<svg width="65" height="65" viewBox="0 0 65 65" fill="none" xmlns="http://www.w3.org/2000/svg">
<rect width="65" height="65" fill="white"/>
<path fill-rule="evenodd" clip-rule="evenodd" d="M26.2197 27.2197C26.5126 26.9268 26.9874 26.9268 27.2803 27.2197L32.5 32.4393L37.7197 27.2197C38.0126 26.9268 38.4874 26.9268 38.7803 27.2197C39.0732 27.5126 39.0732 27.9874 38.7803 28.2803L33.5607 33.5L38.7803 38.7197C39.0732 39.0126 39.0732 39.4874 38.7803 39.7803C38.4874 40.0732 38.0126 40.0732 37.7197 39.7803L32.5 34.5607L27.2803 39.7803C26.9874 40.0732 26.5126 40.0732 26.2197 39.7803C25.9268 39.4874 25.9268 39.0126 26.2197 38.7197L31.4393 33.5L26.2197 28.2803C25.9268 27.9874 25.9268 27.5126 26.2197 27.2197Z" fill="#4A3021"/>
</svg>
