<svg width="382" height="570" viewBox="0 0 382 570" fill="none" xmlns="http://www.w3.org/2000/svg">
<g clip-path="url(#clip0_5632_14011)">
<rect width="382" height="570" fill="#DBDBDB"/>
<g clip-path="url(#clip1_5632_14011)">
<path d="M170.689 0.828125H-142.98V571.673H199.619C199.619 571.673 199.256 551.068 187.476 542.607C175.696 534.146 153.994 519.807 161.72 512.435C169.447 505.063 177.174 491.459 186.741 493.671C196.309 495.884 193.733 503.602 199.619 505.443C205.505 507.284 207.346 513.541 201.832 516.48C196.317 519.418 198.15 546.28 201.46 556.582C204.77 566.885 205.134 571.673 205.134 571.673H239.359C239.359 571.673 223.956 538.739 228.06 507.36C229.555 494.693 230.095 494.794 235.348 495.267C240.6 495.74 246.173 495.909 247.44 494.313C248.707 492.717 254.128 491.78 254.289 487.313C254.449 482.845 255.809 457.647 263.991 457.512C272.174 457.377 275.754 459.894 274.125 449.718C272.495 439.542 275.813 433.344 264.346 429.772C252.878 426.2 240.744 422.746 237.324 416.117C233.904 409.489 234.495 399.229 239.443 402.522C244.392 405.815 242.627 405.342 244.831 402.167C247.035 398.992 251.899 388.563 250.835 384.24C249.771 379.916 251.603 381.47 243.437 372.578C235.272 363.686 227.655 358.974 227.469 356.069C227.283 353.164 229.285 348.629 224.936 348.266C220.587 347.903 213.502 348.266 207.878 350.259C202.254 352.252 196.444 357.521 194.628 355.52C192.813 353.519 184.284 347.54 183.017 345.902C181.751 344.264 186.007 341.916 190.136 346.991C194.266 352.066 200.7 353.13 202.642 350.107C204.584 347.084 200.109 350.014 197.187 347.777C194.265 345.539 190.373 337.745 193.201 337.837C196.03 337.93 197.913 335.017 198.412 337.246C198.91 339.476 199.999 343.951 203.816 343.225C207.633 342.499 210.225 340.793 215.773 342.685C221.321 344.576 230.906 346.594 233.296 347.219C235.685 347.844 236.074 355.664 239.975 358.695C243.876 361.727 247.288 367.266 251.451 367.013C255.614 366.76 260.901 366.169 261.407 362.352C261.914 358.535 260.022 340.042 263.552 338.775C260.901 337.263 249.56 330.33 243.378 319.868C237.197 309.405 231.556 293.648 231.277 287.348C230.999 281.049 232.037 250.539 236.825 247.896C241.613 245.253 247.035 245.362 247.161 240.456C247.288 235.55 245.65 235.389 242.753 233.27C239.857 231.15 240.989 219.286 243.252 213.003C245.515 206.721 247.415 203.714 253.089 202.287C258.764 200.86 266.069 197.499 266.702 195.481C267.335 193.463 275.991 199.264 283.337 198.386C290.684 197.508 292.542 198.006 295.058 196.241C293.547 194.476 292.525 190.186 297.203 187.67C301.881 185.153 305.268 182.882 304.263 180.737C303.258 178.592 302.498 177.587 296.578 174.556C290.659 171.524 285.601 167.876 282.333 164.22C279.065 160.563 268.467 152.752 267.327 150.109C266.187 147.466 259.516 147.964 257.624 147.204C255.733 146.444 253.343 144.181 252.836 139.266C252.329 134.352 252.583 134.977 247.035 131.573C241.487 128.17 236.445 127.917 237.332 122.377C238.219 116.838 243.505 115.943 241.74 113.933C239.975 111.923 232.916 110.648 233.676 103.8C234.436 96.9512 236.952 92.2055 232.916 88.169C228.879 84.1326 229.259 80.7379 231.404 78.7197C233.549 76.7015 232.924 72.6228 231.877 65.5801C230.83 58.5375 231.227 50.4392 233.735 46.1579C236.243 41.8766 239.561 38.5579 236.808 35.8726C234.056 33.1872 236.243 30.1219 236.167 28.8299C236.091 27.5379 236.082 25.9166 230.095 24.1348C224.108 22.353 225.164 23.2903 220.899 19.4397C216.635 15.589 213.401 10.1508 209.558 10.497C205.716 10.8432 203.799 13.6383 200.92 13.0303C198.04 12.4223 194.637 6.65475 192.475 5.69208C190.313 4.72942 190.989 12.6756 188.895 13.2921C186.8 13.9085 185.931 15.209 181.649 13.0303C177.368 10.8516 170.689 0.828125 170.689 0.828125Z" fill="white"/>
<path d="M270.137 38.178C270.137 38.178 273.236 44.7985 276.048 45.1785C278.86 45.5585 290.496 47.4247 291.501 49.5527C292.506 51.6807 295.124 47.5514 297.995 44.6803C300.866 41.8091 299.996 38.9296 299 35.0536C298.003 31.1776 299.498 26.55 295.25 25.7647C291.206 24.9761 287.397 23.2654 284.121 20.7656C281.587 18.7643 279.746 25.5198 278.125 29.1425C276.499 32.9324 273.699 36.0999 270.137 38.178Z" fill="white"/>
<path d="M296.391 0.828125C296.391 0.828125 298.392 9.18812 298.08 10.117C297.767 11.0459 302.496 5.37119 305.316 10.497C308.137 15.6228 309.995 17.7339 310.316 21.9645C310.636 26.1952 316.227 33.4068 320.956 38.009C325.684 42.6112 330.608 46.2592 330.608 48.6152C330.608 50.9712 332.144 51.4441 333.909 52.9726C335.674 54.501 341.687 57.4481 340.741 60.8681C339.795 64.2881 340.792 66.0023 337.819 66.0023C334.847 66.0023 334.365 70.9001 334.686 74.5143C335.007 78.1285 333.842 81.6668 336.291 82.5534C338.74 83.4401 339.609 82.0721 340.842 84.0819C342.075 86.0917 342.675 88.1521 345.208 88.9966C347.741 89.841 350.351 87.2232 351.879 88.9966C353.408 90.7699 352.926 91.7241 354.852 90.8459C356.777 89.9677 357.984 87.4681 360.315 88.8361C362.646 90.2041 363.853 90.1957 364.098 94.1392C364.343 98.0828 363.448 99.2059 367.392 102.17C371.335 105.134 374.054 106.755 376.545 107.718C379.036 108.681 380.244 109.728 384.019 109.162C387.793 108.596 389.001 109.728 389.812 105.548C390.622 101.368 393.189 97.8295 395.115 97.9899C397.04 98.1503 398.163 97.2721 397.648 93.413C397.133 89.5539 396.12 81.3627 397.167 78.6267C398.214 75.8907 399.979 75.7388 400.384 73.8894C400.789 72.0401 401.423 61.113 401.423 58.1406C401.423 55.1681 401.262 49.2992 403.677 47.7708C406.092 46.2423 409.141 44.7983 409.943 42.4677C410.745 40.137 410.788 35.7965 413.878 36.0414C416.969 36.2863 420.955 36.8859 422.078 40.2214C423.201 43.557 425.295 42.7548 426.579 43.3543C427.862 43.9539 429.712 48.3365 429.872 51.6299C430.032 54.9232 430.032 56.6121 432.844 58.2165C435.374 59.7845 438.006 61.181 440.723 62.3965C443.932 63.7645 444.895 65.0481 445.536 61.4339C446.178 57.8196 449.877 57.8365 447.47 55.0583C445.064 52.2801 440.233 51.1485 440.478 46.9685C440.723 42.7885 442.007 38.8534 445.216 38.8534C448.424 38.8534 454.302 39.0139 455.661 38.2877C457.021 37.5614 460.644 38.0512 460.804 34.8339C460.964 31.6165 462.096 26.8792 463.945 25.8321C465.795 24.785 468.041 22.6232 466.757 18.7641C465.474 14.905 464.224 11.6961 462.096 9.04455C459.968 6.393 459.681 2.289 457.114 3.97789C454.547 5.66678 454.378 9.12056 451.203 7.837C448.028 6.55345 446.06 5.66678 443.974 3.61478C443.02 2.61971 441.999 1.69142 440.917 0.836526L296.391 0.828125Z" fill="white"/>
<path d="M266.532 373.996C266.532 373.996 272.645 374.089 273.144 377.703C273.642 381.317 273.769 384.813 276.066 385.818C278.362 386.823 275.153 380.608 278.861 377.897C282.568 375.186 292.287 369.385 290.885 366.776C289.484 364.166 289.382 362.064 286.072 363.972C282.762 365.881 280.296 366.978 278.776 364.969C277.256 362.959 272.544 357.554 272.443 361.667C272.342 365.779 268.938 370.888 267.376 371.589C265.814 372.29 266.532 373.996 266.532 373.996Z" fill="white"/>
<path d="M291.461 394.683C291.461 394.683 298.478 395.528 300.15 398.222C301.822 400.915 305.149 402.326 309.042 401.971C312.935 401.616 315.798 405.171 316.82 407.114C317.841 409.056 319.741 408.507 319.53 406.767C319.319 405.028 315.308 400.307 315.088 398.433C314.869 396.558 315.57 395.232 314.041 393.847C312.513 392.463 312.032 388.426 309.042 389.397C306.053 390.368 305.36 392.04 302.65 391.762C299.939 391.483 293.893 390.79 293.133 392.108C292.373 393.425 291.461 394.683 291.461 394.683Z" fill="white"/>
<path d="M350.732 398.003C350.732 398.003 355.115 403.29 358.214 401.381C361.313 399.473 362.504 399.65 362.132 396.458C361.76 393.266 363.872 389.23 361.406 389.28C358.94 389.331 355.748 388.436 354.566 389.28C353.384 390.125 349.432 389.787 350.732 398.003Z" fill="white"/>
<path d="M382.973 376.951C382.973 376.951 389.662 377.5 389.662 382.195C389.662 386.89 388.395 389.474 384.24 389.263C380.085 389.052 370.146 387.979 366.895 386.729C363.644 385.48 358.13 381.663 356.551 378.42C354.972 375.178 355.512 367.755 351.721 364.504C347.929 361.253 349.187 359.817 344.121 360.172C339.054 360.526 339.611 358.027 334.536 357.824C329.461 357.621 326.151 353.788 324.808 352.023C323.465 350.258 319.007 343.739 316.524 342.81C314.042 341.881 309.38 341.121 306.889 340.842C306.889 339.289 299.23 333.175 300.133 327.998C301.037 322.822 303.292 317.958 300.058 316.607C296.823 315.256 292.407 314.758 288.387 314.918C284.368 315.078 283.709 311.54 285.947 308.914C288.185 306.288 289.325 302.657 292.094 302.353C294.864 302.049 295.101 301.508 298.149 303.02C301.198 304.531 302.473 307.343 304.71 305.967C306.948 304.59 307.556 303.932 307.708 307.495C307.86 311.059 306.442 312.68 308.73 315.171C311.018 317.662 313.256 320.508 314.835 317.966C316.414 315.425 315.68 311.92 317.884 312.9C320.088 313.879 320.577 315.644 322.258 313.744C323.938 311.844 330.432 307.445 333.675 308.889C334.209 309.145 334.797 309.267 335.389 309.244C335.981 309.22 336.558 309.052 337.07 308.754C337.582 308.455 338.012 308.036 338.324 307.532C338.636 307.029 338.82 306.457 338.86 305.865C338.716 304.489 342.541 300.892 341.393 298.265C340.245 295.639 342.761 294.043 345.218 297.041C347.676 300.039 349.255 301.947 351.974 302.446C354.693 302.944 356.196 304.827 357.311 307.132C358.425 309.437 359 309.801 363.433 310.02C367.866 310.24 372.806 311.101 374.825 308.5C376.843 305.899 378.717 305.764 382.247 306.558C385.777 307.352 385.422 306.414 388.091 305.545C390.759 304.675 393.352 303.746 394.576 306.482C395.801 309.218 394.289 312.038 395.657 315.771C397.025 319.503 396.806 321.327 399.694 320.677C402.582 320.027 402.793 318.439 403.443 321.834C404.093 325.229 403.73 329.181 405.976 331.486C408.222 333.791 411.169 336.747 414.125 334.661C417.081 332.575 418.161 328.387 418.525 326.512C418.888 324.638 422.747 321.108 422.561 317.646C422.375 314.183 422.705 308.061 426.31 310.949C429.916 313.837 431.141 313.972 431.926 316.784C432.711 319.596 432.77 322.476 436.832 322.121C440.894 321.766 441.949 318.946 443.748 320.533C445.547 322.121 447.97 322.045 448.435 326.445C448.899 330.844 450.309 337.98 448.004 338.985C445.699 339.99 442.938 339.998 443.605 343.308C444.272 346.618 442.093 352.251 444.255 354.125C446.417 356 448.291 353.906 450.386 356.718C452.48 359.53 453.915 359.893 454.853 362.916C455.79 365.939 457.158 368.54 454.422 368.76C451.686 368.979 450.098 370.846 448.511 371.563C446.923 372.281 447.717 371.563 444.398 371.926C441.08 372.29 440.581 373.083 440.581 375.963C440.581 378.842 443.174 379.341 439.501 381.156C435.827 382.972 433.37 382.524 430.558 382.161C427.746 381.798 421.911 379.932 424.647 377.838C427.383 375.743 428.54 372.501 431.402 371.859C434.265 371.217 436.807 371.926 437.094 370.778C437.381 369.629 438.825 365.509 435.794 365.948C432.762 366.387 430.609 366.446 426.927 368.608C423.245 370.77 423.33 372.644 418.482 372.83C415.277 373.033 412.091 372.198 409.396 370.449C408.172 369.604 404.71 368.76 400.023 369.148C395.336 369.537 392.246 368.067 393.901 364.394C395.556 360.721 398.123 356.794 399.879 356.608C401.636 356.422 404.566 354.227 404.101 353.078C403.637 351.93 404.465 348.316 402.016 348.459C399.567 348.603 396.535 349.836 395.953 351.778C395.484 353.241 394.707 354.587 393.674 355.725C392.641 356.862 391.377 357.766 389.965 358.373C386.436 359.741 382.906 360.18 381.969 363.49C381.031 366.801 380.17 371.352 380.668 372.94C381.166 374.527 380.778 375.836 382.973 376.951Z" fill="white"/>
<path d="M259.874 82.0041C259.874 82.0041 265.033 80.3153 264.586 84.3179C264.138 88.3206 265.481 90.5499 261.563 89.8406C257.644 89.1313 250.526 86.8597 252.924 85.8126C255.322 84.7655 259.874 82.0041 259.874 82.0041Z" fill="white"/>
<path d="M98.1049 572.534C85.4392 564.076 24.216 500.756 12.3938 428.556C7.74933 412.512 -2.25879 385.237 -5.24534 375.095L-22.7676 343.158L-34.6743 318.247L-51.3602 276.556C-51.3602 276.556 -55.7122 268.415 -47.1397 263.045" stroke="#4A3021" stroke-width="3" stroke-miterlimit="10"/>
<path d="M166.187 571.672C166.187 571.672 166.854 531.984 143.43 519.427C120.005 506.87 87.2486 491.332 87.2486 491.332C87.2486 491.332 76.152 485.555 73.6187 482.177C72.2247 480.783 68.35 471.412 66.6189 469.343C64.8878 467.274 54.1542 457.57 50.8187 452.622C47.4831 447.673 35.8979 431.376 34.6312 422.172C33.3645 412.968 26.761 384.332 25.773 373.27C24.785 362.208 24.1939 344.829 32.2921 335.54C40.3903 326.252 58.7571 301.965 60.9273 297.228C63.0975 292.491 84.4619 259.355 84.4619 259.355C109.93 223.777 173.263 169.311 215.485 164.244" stroke="#4A3021" stroke-width="3" stroke-miterlimit="10"/>
<path d="M208.504 272.949C208.504 272.949 217.328 274.275 217.582 267.258C217.835 260.24 216.805 253.746 223.172 252.834C229.539 251.922 228.238 249.718 228.753 246.602C229.269 243.486 225.122 217.114 222.648 212.698C220.174 208.282 209.137 194.12 213.553 188.403C217.97 182.686 216.028 167.225 214.727 161.905C213.427 156.585 225.376 135.271 225.376 135.271C225.376 135.271 230.966 112.8 231.616 104.221C232.266 95.6412 229.226 86.31 225.646 81.6487C222.065 76.9873 229.463 60.2842 228.272 56.2225C227.081 52.1607 229.463 40.3638 216.34 35.2887C203.217 30.2136 198.438 19.4722 189.132 18.2816C179.826 17.0909 168.865 17.0825 166.459 10.6816C165.244 7.15245 163.474 3.83992 161.215 0.869141" stroke="#4A3021" stroke-width="3" stroke-miterlimit="10"/>
<path d="M105.588 293.973H102.629V293.395H110.036V293.973H107.078V300.488H105.588V293.973ZM110.848 293.395H112.348V296.394H116.371V293.395H117.87V300.488H116.371V296.972H112.348V300.488H110.848V293.395ZM124.405 298.674H120.636L119.754 300.488H118.721L122.409 293.294H123.321L126.797 300.488H125.257L124.405 298.674ZM124.132 298.097L122.561 294.743L120.919 298.097H124.132ZM121.001 291.591C120.724 291.409 120.585 291.24 120.585 291.085C120.585 290.99 120.622 290.916 120.697 290.862C120.771 290.808 120.869 290.781 120.99 290.781C121.126 290.781 121.247 290.804 121.355 290.851C121.463 290.899 121.565 290.976 121.659 291.085L123.047 292.686H122.561L121.001 291.591ZM127.661 293.395H129.141L133.001 298.421V293.395H134.379V300.488H133.427L129.039 294.712V300.488H127.661V293.395ZM135.845 293.395H137.345V296.394H141.368V293.395H142.867V300.488H141.368V296.972H137.345V300.488H135.845V293.395ZM147.185 293.395H150.063C151.097 293.395 151.894 293.567 152.455 293.912C153.022 294.25 153.306 294.807 153.306 295.584C153.306 296.354 153.029 296.911 152.475 297.256C151.921 297.6 151.117 297.773 150.063 297.773H148.685V300.488H147.185V293.395ZM150.083 297.185C150.658 297.185 151.09 297.067 151.381 296.83C151.671 296.594 151.816 296.178 151.816 295.584C151.816 295.003 151.671 294.591 151.381 294.347C151.097 294.098 150.664 293.973 150.083 293.973H148.685V297.185H150.083ZM154.261 293.395H155.761V296.394H159.784V293.395H161.283V300.488H159.784V296.972H155.761V300.488H154.261V293.395ZM166.572 300.59C165.741 300.59 165.022 300.444 164.414 300.154C163.812 299.863 163.353 299.445 163.035 298.897C162.718 298.343 162.559 297.681 162.559 296.911C162.559 296.155 162.718 295.506 163.035 294.966C163.36 294.425 163.822 294.013 164.424 293.729C165.025 293.439 165.741 293.294 166.572 293.294C167.396 293.294 168.105 293.439 168.7 293.729C169.301 294.013 169.761 294.425 170.078 294.966C170.402 295.506 170.565 296.155 170.565 296.911C170.565 297.681 170.406 298.343 170.088 298.897C169.771 299.445 169.311 299.863 168.71 300.154C168.109 300.444 167.396 300.59 166.572 300.59ZM166.572 300.012C167.369 300.012 167.981 299.749 168.406 299.222C168.832 298.688 169.045 297.918 169.045 296.911C169.045 295.925 168.832 295.172 168.406 294.651C167.981 294.131 167.369 293.871 166.572 293.871C165.768 293.871 165.15 294.135 164.718 294.662C164.292 295.182 164.079 295.932 164.079 296.911C164.079 297.918 164.292 298.688 164.718 299.222C165.143 299.749 165.761 300.012 166.572 300.012ZM168.487 290.223C168.616 290.061 168.771 289.98 168.953 289.98C169.061 289.98 169.146 290.004 169.207 290.051C169.274 290.098 169.308 290.162 169.308 290.243C169.308 290.311 169.264 290.392 169.176 290.487C169.095 290.575 168.957 290.696 168.761 290.851L168.051 291.399H167.595L168.487 290.223ZM166.136 291.054H167.008L168.355 292.686H167.636L166.572 291.682L165.508 292.686H164.789L166.136 291.054ZM103.51 306.395H104.99L108.851 311.421V306.395H110.229V313.488H109.276L104.888 307.712V313.488H103.51V306.395ZM111.694 306.395H113.194V309.394H117.217V306.395H118.717V313.488H117.217V309.972H113.194V313.488H111.694V306.395ZM125.251 311.674H121.482L120.6 313.488H119.567L123.255 306.294H124.167L127.643 313.488H126.103L125.251 311.674ZM124.978 311.097L123.407 307.743L121.766 311.097H124.978ZM133.667 306.973H130.708V306.395H138.116V306.973H135.157V313.488H133.667V306.973ZM144.703 311.948C144.872 312.374 145.021 312.711 145.149 312.961C145.284 313.211 145.409 313.346 145.524 313.367V313.488H144.035C143.913 313.36 143.802 313.194 143.7 312.992C143.599 312.789 143.487 312.526 143.366 312.201C143.197 311.749 143.028 311.391 142.859 311.127C142.697 310.864 142.491 310.688 142.241 310.6H142.038H140.417V313.488H138.927V306.395H142.038C143.072 306.395 143.869 306.557 144.43 306.881C144.991 307.206 145.271 307.739 145.271 308.482C145.271 309.509 144.703 310.165 143.569 310.448C143.812 310.583 144.021 310.773 144.197 311.016C144.379 311.252 144.548 311.563 144.703 311.948ZM140.417 310.023H142.059C142.606 310.023 143.031 309.911 143.335 309.688C143.639 309.459 143.791 309.057 143.791 308.482C143.791 307.922 143.639 307.53 143.335 307.307C143.031 307.084 142.606 306.973 142.059 306.973H140.417V310.023ZM151.436 311.674H147.666L146.785 313.488H145.751L149.44 306.294H150.352L153.827 313.488H152.287L151.436 311.674ZM151.162 311.097L149.592 307.743L147.95 311.097H151.162ZM154.692 306.395H156.171L160.032 311.421V306.395H161.41V313.488H160.457L156.07 307.712V313.488H154.692V306.395ZM166.797 313.59C165.953 313.59 165.22 313.444 164.598 313.154C163.983 312.863 163.51 312.445 163.179 311.897C162.848 311.35 162.683 310.702 162.683 309.952C162.683 309.209 162.848 308.563 163.179 308.016C163.51 307.462 163.983 307.04 164.598 306.75C165.213 306.452 165.939 306.304 166.777 306.304C167.777 306.304 168.594 306.517 169.229 306.942C169.864 307.368 170.239 307.952 170.354 308.695H169.158C169.036 308.114 168.773 307.668 168.368 307.358C167.962 307.04 167.442 306.881 166.807 306.881C165.99 306.881 165.351 307.152 164.892 307.692C164.433 308.226 164.203 308.976 164.203 309.942C164.203 310.908 164.429 311.661 164.882 312.201C165.341 312.742 165.983 313.012 166.807 313.012C167.172 313.012 167.503 312.975 167.8 312.901C168.097 312.819 168.401 312.688 168.712 312.505V310.286H166.27V309.749H170.212V312.536C169.84 312.867 169.351 313.127 168.743 313.316C168.135 313.498 167.486 313.59 166.797 313.59Z" fill="#4A3021"/>
<path d="M84.1618 480.865C84.0843 481.203 84.1465 481.532 84.3483 481.851C84.5476 482.175 84.8537 482.443 85.2665 482.655C85.3519 482.699 85.4409 482.736 85.5337 482.765L85.36 482.946C85.1746 482.887 85.0036 482.817 84.847 482.737C84.5386 482.578 84.2712 482.375 84.0448 482.127C83.8207 481.886 83.6601 481.621 83.563 481.331C83.4634 481.046 83.4366 480.766 83.4824 480.49C82.8287 480.046 82.423 479.505 82.2651 478.867C82.1097 478.224 82.2195 477.537 82.5945 476.806C82.8672 476.274 83.2078 475.874 83.6161 475.604C84.0269 475.329 84.4851 475.195 84.9907 475.203C85.4963 475.211 86.029 475.358 86.5889 475.646C87.1488 475.933 87.5769 476.279 87.8732 476.682C88.1743 477.089 88.3329 477.539 88.3492 478.033C88.3679 478.522 88.2409 479.032 87.9681 479.564C87.5663 480.347 87.0315 480.851 86.3636 481.078C85.6982 481.3 84.9642 481.229 84.1618 480.865ZM83.3418 477.189C82.9741 477.906 82.8589 478.545 82.9961 479.107C83.1333 479.669 83.5127 480.11 84.1342 480.429C84.7511 480.745 85.3278 480.795 85.8644 480.579C86.4009 480.363 86.8531 479.897 87.2208 479.18C87.5812 478.478 87.6904 477.851 87.5483 477.298C87.4134 476.743 87.0352 476.306 86.4136 475.987C85.792 475.668 85.2154 475.612 84.6837 475.819C84.1519 476.026 83.7047 476.482 83.3418 477.189ZM89.9036 483.821C89.078 483.397 88.5739 482.908 88.3913 482.353C88.2159 481.795 88.3059 481.17 88.6615 480.477L90.1555 477.566L90.8957 477.946L89.3177 481.021C89.0449 481.552 88.9624 482.022 89.0702 482.431C89.178 482.84 89.5143 483.19 90.0789 483.48C90.6341 483.764 91.108 483.834 91.5007 483.688C91.8982 483.544 92.2357 483.202 92.5134 482.661L94.0914 479.586L94.8316 479.966L93.3376 482.877C92.982 483.57 92.5266 484.007 91.9713 484.19C91.4184 484.368 90.7292 484.245 89.9036 483.821ZM95.8444 486.87C95.2845 486.583 94.8552 486.234 94.5566 485.823C94.258 485.412 94.1006 484.959 94.0843 484.465C94.0705 483.966 94.2024 483.447 94.48 482.906C94.7527 482.374 95.0932 481.974 95.5016 481.704C95.9124 481.429 96.3705 481.295 96.8761 481.303C97.3817 481.311 97.9145 481.458 98.4744 481.746C99.0343 482.033 99.4624 482.379 99.7587 482.782C100.06 483.189 100.218 483.639 100.235 484.133C100.253 484.622 100.126 485.132 99.8536 485.664C99.576 486.205 99.2306 486.615 98.8174 486.894C98.4066 487.169 97.9472 487.305 97.4392 487.302C96.9359 487.301 96.4043 487.157 95.8444 486.87ZM96.0197 486.528C96.6365 486.845 97.2133 486.895 97.7498 486.679C98.2864 486.463 98.7385 485.997 99.1063 485.28C99.4667 484.578 99.5758 483.95 99.4338 483.398C99.2989 482.843 98.9206 482.406 98.2991 482.087C97.6775 481.768 97.1008 481.712 96.5691 481.919C96.0374 482.125 95.5901 482.582 95.2273 483.289C94.8596 484.006 94.7443 484.645 94.8815 485.207C95.0187 485.769 95.3981 486.209 96.0197 486.528ZM100.922 480.376C101.08 480.313 101.204 480.305 101.294 480.351C101.356 480.383 101.397 480.425 101.418 480.478C101.441 480.526 101.44 480.576 101.413 480.628C101.389 480.675 101.34 480.711 101.269 480.734C101.197 480.757 101.075 480.784 100.903 480.816L100.043 480.95L99.8079 480.829L100.922 480.376ZM99.0033 480.102L99.5015 480.357L99.8252 481.899L99.4765 481.72L99.0807 480.564L97.9106 480.917L97.5619 480.738L99.0033 480.102ZM101.953 490.005C101.103 489.569 100.565 489.011 100.339 488.332C100.112 487.652 100.212 486.897 100.638 486.066C101.055 485.255 101.601 484.744 102.279 484.534C102.961 484.327 103.724 484.44 104.569 484.873C105.257 485.226 105.742 485.658 106.025 486.169C106.309 486.681 106.358 487.215 106.173 487.774L105.533 487.445C105.661 486.996 105.628 486.577 105.431 486.188C105.237 485.795 104.903 485.477 104.429 485.233C103.812 484.917 103.24 484.863 102.713 485.072C102.191 485.284 101.748 485.743 101.385 486.45C101.015 487.171 100.896 487.811 101.029 488.371C101.164 488.926 101.542 489.363 102.164 489.682C102.638 489.925 103.088 490.012 103.513 489.943C103.939 489.873 104.298 489.653 104.59 489.281L105.231 489.61C104.885 490.086 104.421 490.358 103.841 490.426C103.261 490.493 102.631 490.353 101.953 490.005ZM109.673 487.583L110.413 487.963L108.031 492.603L111.163 494.21L110.988 494.552L107.116 492.565L109.673 487.583ZM113.944 496.159C113.384 495.872 112.954 495.523 112.656 495.111C112.357 494.7 112.2 494.248 112.184 493.754C112.17 493.255 112.302 492.736 112.579 492.195C112.852 491.663 113.193 491.263 113.601 490.993C114.012 490.718 114.47 490.584 114.975 490.592C115.481 490.6 116.014 490.747 116.574 491.035C117.134 491.322 117.562 491.667 117.858 492.071C118.159 492.478 118.318 492.928 118.334 493.422C118.353 493.911 118.226 494.421 117.953 494.953C117.675 495.493 117.33 495.904 116.917 496.183C116.506 496.458 116.046 496.594 115.538 496.591C115.035 496.59 114.504 496.446 113.944 496.159ZM114.119 495.817C114.736 496.134 115.313 496.184 115.849 495.968C116.386 495.752 116.838 495.285 117.206 494.569C117.566 493.867 117.675 493.239 117.533 492.687C117.398 492.132 117.02 491.695 116.398 491.376C115.777 491.057 115.2 491.001 114.668 491.208C114.137 491.414 113.689 491.871 113.327 492.578C112.959 493.295 112.844 493.934 112.981 494.496C113.118 495.058 113.497 495.498 114.119 495.817ZM113.443 497.134C113.334 497.078 113.262 496.996 113.228 496.889C113.195 496.788 113.206 496.686 113.259 496.581C113.313 496.477 113.39 496.408 113.491 496.376C113.596 496.346 113.703 496.359 113.812 496.415C113.921 496.471 113.992 496.55 114.024 496.65C114.061 496.753 114.053 496.857 114 496.961C113.946 497.065 113.867 497.133 113.761 497.163C113.658 497.2 113.552 497.19 113.443 497.134ZM117.103 489.391L117.601 489.646L117.924 491.188L117.576 491.009L117.18 489.853L116.01 490.206L115.661 490.027L117.103 489.391ZM123.34 495.982L122.045 495.317L122.187 495.04C122.543 495.21 122.882 495.291 123.204 495.283C123.529 495.27 123.814 495.164 124.059 494.966L124.629 495.258L122.072 500.241L121.346 499.868L123.34 495.982ZM128.646 501.978L125.778 500.506L124.465 501.469L123.967 501.213L129.151 497.49L129.535 497.687L129.383 503.993L128.586 503.584L128.646 501.978ZM128.658 501.552L128.778 498.305L126.124 500.252L128.658 501.552Z" fill="#4A3021"/>
<path d="M88.2075 384.872L90.3076 384.302C91.3165 384.028 92.1434 384.042 92.7886 384.342C93.4337 384.642 93.8722 385.219 94.104 386.074C94.3456 386.964 94.2677 387.726 93.8702 388.359C93.4765 388.985 92.7932 389.43 91.8203 389.694L89.6739 390.277L88.2075 384.872ZM91.8279 389.294C92.5125 389.109 92.9809 388.758 93.2332 388.242C93.4907 387.724 93.5133 387.074 93.301 386.292C93.1013 385.556 92.7703 385.049 92.3081 384.771C91.8444 384.488 91.2626 384.441 90.5626 384.631L89.1111 385.025L90.3764 389.688L91.8279 389.294ZM96.2817 383.079L93.9963 383.699L93.8957 383.329L99.2617 381.873L99.3623 382.243L97.0846 382.861L98.4505 387.895L97.6475 388.113L96.2817 383.079ZM103.535 386.598C102.825 386.791 102.223 386.811 101.728 386.658C101.238 386.503 100.919 386.192 100.77 385.724L101.457 385.538C101.58 385.908 101.813 386.157 102.157 386.284C102.501 386.412 102.926 386.408 103.43 386.271C103.934 386.134 104.291 385.921 104.5 385.632C104.708 385.338 104.756 384.985 104.644 384.574C104.535 384.172 104.321 383.912 104.002 383.795C103.687 383.675 103.252 383.691 102.696 383.842C102.336 383.94 102.014 384.057 101.731 384.195L101.612 383.755C101.8 383.737 102.049 383.686 102.358 383.602C102.847 383.47 103.213 383.262 103.457 382.981C103.7 382.694 103.776 382.383 103.685 382.048C103.599 381.729 103.407 381.513 103.111 381.4C102.814 381.282 102.449 381.281 102.017 381.399C101.548 381.526 101.197 381.737 100.962 382.033C100.731 382.322 100.654 382.65 100.731 383.016L100.037 383.204C99.9659 382.903 99.9976 382.612 100.132 382.333C100.27 382.047 100.492 381.796 100.798 381.58C101.108 381.358 101.484 381.187 101.927 381.067C102.354 380.951 102.751 380.907 103.118 380.934C103.483 380.957 103.787 381.048 104.029 381.209C104.271 381.365 104.427 381.574 104.498 381.836C104.575 382.119 104.533 382.402 104.371 382.683C104.214 382.958 103.957 383.193 103.601 383.389C104.629 383.265 105.246 383.584 105.453 384.346C105.589 384.85 105.488 385.303 105.15 385.705C104.81 386.101 104.272 386.399 103.535 386.598Z" fill="#4A3021"/>
<path d="M143.627 254.454C142.681 254.33 141.986 253.986 141.543 253.423C141.101 252.859 140.94 252.115 141.061 251.189C141.18 250.285 141.522 249.62 142.089 249.194C142.661 248.769 143.418 248.617 144.359 248.741C145.126 248.841 145.729 249.084 146.168 249.47C146.607 249.855 146.833 250.342 146.848 250.93L146.134 250.837C146.104 250.37 145.93 249.987 145.615 249.688C145.3 249.383 144.878 249.196 144.349 249.127C143.661 249.037 143.105 249.179 142.679 249.554C142.259 249.929 141.997 250.51 141.894 251.298C141.789 252.102 141.893 252.745 142.206 253.227C142.52 253.704 143.024 253.988 143.717 254.078C144.245 254.148 144.698 254.078 145.075 253.869C145.452 253.66 145.716 253.332 145.866 252.883L146.58 252.977C146.415 253.541 146.07 253.954 145.547 254.213C145.023 254.473 144.383 254.553 143.627 254.454ZM151.391 253.921L148.194 253.503L147.284 254.852L146.728 254.779L150.353 249.525L150.781 249.582L152.765 255.57L151.876 255.453L151.391 253.921ZM151.258 253.517L150.276 250.419L148.435 253.147L151.258 253.517ZM155.868 256.057C155.244 255.975 154.722 255.791 154.302 255.505C153.882 255.218 153.582 254.846 153.4 254.386C153.219 253.921 153.167 253.387 153.246 252.785C153.324 252.192 153.509 251.7 153.803 251.308C154.097 250.911 154.483 250.631 154.962 250.468C155.44 250.304 155.991 250.264 156.615 250.345C157.239 250.427 157.759 250.608 158.174 250.888C158.595 251.169 158.896 251.539 159.078 251.999C159.26 252.453 159.313 252.976 159.235 253.569C159.156 254.172 158.969 254.674 158.675 255.077C158.381 255.474 157.994 255.757 157.515 255.925C157.041 256.095 156.492 256.138 155.868 256.057ZM155.918 255.676C156.605 255.766 157.165 255.619 157.597 255.234C158.029 254.85 158.298 254.258 158.402 253.46C158.505 252.677 158.396 252.05 158.076 251.577C157.762 251.101 157.258 250.817 156.566 250.726C155.873 250.635 155.311 250.777 154.88 251.151C154.449 251.525 154.182 252.106 154.079 252.894C153.975 253.692 154.082 254.333 154.4 254.816C154.719 255.298 155.225 255.585 155.918 255.676ZM164.51 251.847L162.162 251.54L162.212 251.159L167.725 251.881L167.675 252.261L165.335 251.955L164.658 257.127L163.833 257.019L164.51 251.847ZM170.493 257.971C169.869 257.89 169.347 257.706 168.927 257.42C168.508 257.133 168.207 256.76 168.025 256.301C167.844 255.836 167.793 255.302 167.871 254.699C167.949 254.107 168.134 253.615 168.428 253.223C168.722 252.826 169.108 252.546 169.587 252.382C170.065 252.219 170.617 252.178 171.241 252.26C171.865 252.342 172.384 252.523 172.799 252.803C173.22 253.084 173.521 253.454 173.703 253.914C173.885 254.368 173.938 254.891 173.86 255.484C173.781 256.086 173.595 256.589 173.3 256.992C173.006 257.389 172.619 257.672 172.14 257.84C171.666 258.009 171.117 258.053 170.493 257.971ZM170.543 257.591C171.23 257.681 171.79 257.533 172.222 257.149C172.655 256.764 172.923 256.173 173.027 255.374C173.13 254.592 173.021 253.964 172.701 253.492C172.387 253.015 171.884 252.732 171.191 252.641C170.498 252.55 169.936 252.692 169.505 253.066C169.075 253.44 168.808 254.021 168.704 254.808C168.6 255.607 168.707 256.248 169.026 256.73C169.344 257.213 169.85 257.5 170.543 257.591ZM173.083 250.145C173.21 250.033 173.325 249.983 173.425 249.997C173.494 250.006 173.547 250.031 173.584 250.074C173.622 250.111 173.638 250.159 173.63 250.217C173.623 250.27 173.59 250.319 173.53 250.365C173.47 250.411 173.365 250.478 173.213 250.566L172.449 250.982L172.187 250.948L173.083 250.145ZM171.184 250.534L171.739 250.607L172.564 251.949L172.176 251.898L171.413 250.943L170.43 251.67L170.042 251.619L171.184 250.534ZM177.301 258.863C176.354 258.739 175.66 258.395 175.217 257.831C174.774 257.268 174.614 256.523 174.735 255.598C174.853 254.694 175.196 254.029 175.763 253.603C176.335 253.177 177.091 253.026 178.033 253.149C178.799 253.25 179.402 253.493 179.841 253.878C180.28 254.264 180.507 254.751 180.521 255.339L179.807 255.246C179.777 254.779 179.604 254.396 179.288 254.096C178.973 253.792 178.551 253.605 178.022 253.535C177.335 253.445 176.778 253.588 176.353 253.962C175.933 254.337 175.671 254.919 175.568 255.707C175.462 256.511 175.567 257.154 175.88 257.636C176.194 258.113 176.697 258.396 177.39 258.487C177.919 258.556 178.372 258.487 178.749 258.278C179.126 258.069 179.389 257.74 179.54 257.292L180.253 257.386C180.088 257.95 179.744 258.362 179.22 258.622C178.697 258.881 178.057 258.962 177.301 258.863ZM185.188 259.895C184.363 259.787 183.758 259.458 183.372 258.907C182.993 258.352 182.864 257.617 182.983 256.702C183.103 255.787 183.417 255.113 183.926 254.679C184.441 254.241 185.11 254.076 185.935 254.184C186.755 254.291 187.354 254.623 187.733 255.178C188.119 255.729 188.251 256.461 188.131 257.376C188.012 258.291 187.697 258.968 187.188 259.407C186.679 259.84 186.012 260.003 185.188 259.895ZM185.231 259.562C185.781 259.634 186.236 259.47 186.594 259.071C186.959 258.672 187.193 258.071 187.299 257.267C187.404 256.463 187.332 255.822 187.083 255.343C186.839 254.864 186.442 254.589 185.892 254.517C185.342 254.445 184.885 254.609 184.52 255.007C184.162 255.407 183.929 256.008 183.824 256.812C183.719 257.616 183.788 258.257 184.032 258.736C184.282 259.215 184.681 259.49 185.231 259.562ZM191.193 256.196L189.749 256.007L189.79 255.697C190.183 255.738 190.529 255.7 190.83 255.583C191.131 255.461 191.363 255.266 191.528 254.997L192.162 255.08L191.435 260.633L190.626 260.527L191.193 256.196Z" fill="#4A3021"/>
<path d="M209.741 148.573C209.442 149.479 208.974 150.097 208.337 150.426C207.7 150.755 206.939 150.773 206.053 150.48C205.187 150.194 204.598 149.732 204.286 149.095C203.976 148.454 203.969 147.682 204.267 146.781C204.51 146.046 204.862 145.5 205.323 145.141C205.784 144.782 206.305 144.651 206.885 144.748L206.659 145.431C206.196 145.373 205.787 145.471 205.433 145.725C205.075 145.978 204.812 146.357 204.644 146.863C204.427 147.522 204.462 148.095 204.75 148.583C205.04 149.067 205.562 149.433 206.316 149.682C207.086 149.937 207.737 149.955 208.269 149.738C208.797 149.519 209.17 149.078 209.389 148.414C209.557 147.908 209.573 147.45 209.439 147.041C209.305 146.631 209.031 146.311 208.619 146.079L208.845 145.395C209.369 145.664 209.709 146.079 209.865 146.642C210.022 147.205 209.981 147.849 209.741 148.573ZM210.677 140.847L209.665 143.908L210.819 145.056L210.643 145.588L206.164 141.041L206.3 140.631L212.554 139.808L212.273 140.658L210.677 140.847ZM210.254 140.901L207.027 141.284L209.361 143.606L210.254 140.901ZM213.615 136.851C213.418 137.449 213.139 137.927 212.779 138.285C212.419 138.644 211.996 138.869 211.511 138.962C211.02 139.052 210.486 139.002 209.909 138.811C209.342 138.624 208.893 138.349 208.563 137.988C208.228 137.624 208.026 137.192 207.955 136.691C207.885 136.191 207.948 135.642 208.146 135.044C208.343 134.446 208.619 133.97 208.972 133.615C209.327 133.255 209.747 133.029 210.233 132.936C210.713 132.842 211.237 132.889 211.804 133.076C212.381 133.267 212.84 133.545 213.18 133.91C213.515 134.274 213.72 134.707 213.795 135.209C213.873 135.706 213.812 136.254 213.615 136.851ZM213.25 136.731C213.468 136.073 213.429 135.495 213.132 134.998C212.836 134.502 212.305 134.127 211.54 133.874C210.791 133.626 210.154 133.615 209.63 133.841C209.103 134.06 208.73 134.501 208.511 135.164C208.291 135.828 208.325 136.406 208.611 136.9C208.897 137.393 209.418 137.765 210.172 138.014C210.937 138.267 211.586 138.282 212.12 138.059C212.655 137.837 213.031 137.394 213.25 136.731ZM211.104 127.572L210.361 129.82L209.996 129.7L211.741 124.421L212.106 124.541L211.365 126.782L216.318 128.419L216.057 129.209L211.104 127.572ZM218.243 122.846C218.046 123.444 217.767 123.922 217.407 124.28C217.047 124.639 216.624 124.864 216.139 124.957C215.648 125.047 215.114 124.997 214.537 124.806C213.97 124.619 213.521 124.344 213.192 123.983C212.857 123.619 212.654 123.187 212.584 122.686C212.513 122.186 212.577 121.637 212.774 121.039C212.972 120.441 213.247 119.965 213.6 119.61C213.955 119.25 214.376 119.024 214.861 118.931C215.341 118.837 215.865 118.884 216.432 119.071C217.01 119.262 217.468 119.54 217.808 119.905C218.143 120.269 218.348 120.702 218.424 121.204C218.501 121.701 218.441 122.249 218.243 122.846ZM217.879 122.726C218.096 122.068 218.057 121.49 217.76 120.993C217.464 120.496 216.933 120.122 216.169 119.869C215.419 119.621 214.783 119.61 214.259 119.836C213.731 120.055 213.358 120.496 213.139 121.159C212.92 121.823 212.953 122.401 213.239 122.895C213.526 123.388 214.046 123.759 214.801 124.009C215.565 124.262 216.215 124.277 216.749 124.054C217.283 123.832 217.66 123.389 217.879 122.726ZM211.043 118.832C210.957 118.686 210.93 118.564 210.961 118.468C210.983 118.402 211.018 118.355 211.067 118.326C211.111 118.296 211.161 118.29 211.216 118.308C211.267 118.325 211.309 118.367 211.343 118.434C211.377 118.502 211.423 118.618 211.481 118.783L211.746 119.612L211.663 119.863L211.043 118.832ZM211.068 120.77L211.244 120.238L212.718 119.681L212.595 120.053L211.513 120.622L212.042 121.724L211.919 122.096L211.068 120.77ZM220.398 116.327C220.098 117.234 219.63 117.851 218.993 118.18C218.357 118.509 217.595 118.527 216.709 118.234C215.843 117.948 215.254 117.487 214.942 116.85C214.632 116.208 214.626 115.436 214.924 114.535C215.166 113.801 215.518 113.254 215.979 112.896C216.441 112.537 216.961 112.406 217.542 112.502L217.316 113.186C216.852 113.128 216.443 113.226 216.09 113.48C215.731 113.732 215.468 114.111 215.301 114.618C215.083 115.276 215.118 115.849 215.406 116.338C215.696 116.821 216.218 117.187 216.973 117.437C217.742 117.691 218.394 117.71 218.926 117.492C219.453 117.273 219.827 116.832 220.046 116.169C220.213 115.662 220.23 115.204 220.095 114.795C219.961 114.385 219.688 114.065 219.276 113.833L219.502 113.15C220.025 113.418 220.365 113.834 220.522 114.397C220.678 114.96 220.637 115.603 220.398 116.327ZM222.894 108.775C222.633 109.565 222.195 110.097 221.582 110.372C220.966 110.64 220.219 110.629 219.343 110.34C218.467 110.05 217.864 109.615 217.534 109.034C217.2 108.446 217.164 107.757 217.425 106.967C217.684 106.183 218.122 105.656 218.739 105.388C219.352 105.113 220.096 105.121 220.972 105.41C221.849 105.7 222.454 106.136 222.79 106.718C223.12 107.299 223.155 107.985 222.894 108.775ZM222.575 108.669C222.749 108.143 222.673 107.666 222.348 107.238C222.025 106.806 221.479 106.462 220.709 106.208C219.939 105.953 219.296 105.904 218.778 106.058C218.263 106.208 217.918 106.546 217.744 107.073C217.57 107.6 217.644 108.079 217.967 108.512C218.292 108.939 218.84 109.28 219.609 109.535C220.379 109.789 221.022 109.841 221.538 109.692C222.055 109.537 222.401 109.196 222.575 108.669ZM220.388 102.181L219.931 103.564L219.635 103.466C219.749 103.088 219.777 102.74 219.718 102.423C219.655 102.105 219.507 101.839 219.274 101.627L219.474 101.02L224.792 102.777L224.536 103.552L220.388 102.181Z" fill="#4A3021"/>
<path d="M28.6289 390.901C28.6289 390.901 37.276 404.235 44.8845 402.571C52.4927 400.908 63.9102 386.756 71.906 385.007C71.9065 385.007 71.9062 385.007 71.9067 385.007C71.9228 385.003 115.945 375.295 118.461 370.271C120.977 365.247 142.57 333.96 147.594 339.956C152.619 345.951 162.338 345.487 162.338 345.487C162.338 345.487 171.213 345.985 173.384 349.844C175.554 353.703 177.243 363.068 175.917 366.421C174.591 369.773 186.633 377.474 188.144 375.634C189.656 373.793 187.595 366.345 196.327 360.163C202.207 356.149 208.48 352.744 215.049 350.002C215.365 349.87 215.572 349.562 215.572 349.219V348.527L218.068 338.139C218.133 337.865 218.33 337.643 218.59 337.534C219.964 336.961 224.227 334.982 223.468 332.795C222.564 330.194 213.191 321.724 210.801 315.965C208.411 310.206 204.586 303.197 205.489 297.32C206.393 291.442 209.155 273.6 209.155 273.6" stroke="#4A3021" stroke-width="0.5" stroke-miterlimit="10"/>
<path d="M242.984 421.598C237.044 420.623 231.532 417.89 227.159 413.753C220.302 406.997 222.194 404.903 214.543 403.915C206.892 402.927 201.724 404.405 197.747 399.541C193.77 394.677 193.373 390.396 191.093 387.322C188.813 384.248 187.402 378.244 188.137 375.635" stroke="#4A3021" stroke-width="0.5" stroke-miterlimit="10"/>
<path d="M140.408 438.08C139.453 438.08 138.72 437.829 138.208 437.328C137.696 436.827 137.44 436.109 137.44 435.176C137.44 434.264 137.693 433.56 138.2 433.064C138.712 432.568 139.443 432.32 140.392 432.32C141.165 432.32 141.795 432.483 142.28 432.808C142.765 433.133 143.053 433.587 143.144 434.168H142.424C142.333 433.709 142.112 433.352 141.76 433.096C141.408 432.835 140.965 432.704 140.432 432.704C139.739 432.704 139.205 432.917 138.832 433.344C138.464 433.771 138.28 434.381 138.28 435.176C138.28 435.987 138.467 436.611 138.84 437.048C139.213 437.48 139.749 437.696 140.448 437.696C140.981 437.696 141.421 437.568 141.768 437.312C142.115 437.056 142.333 436.696 142.424 436.232H143.144C143.053 436.813 142.765 437.267 142.28 437.592C141.795 437.917 141.171 438.08 140.408 438.08ZM148.037 436.544H144.813L144.085 438H143.525L146.437 432.32H146.869L149.613 438H148.717L148.037 436.544ZM147.853 436.16L146.477 433.216L145.005 436.16H147.853ZM156.512 432.4V438H155.68V433.296L153.504 438H153.112L150.776 433.232V438H150.28V432.4H151.232L153.464 437.008L155.6 432.4H156.512ZM159.826 432.4H160.658V434.808H164.25V432.4H165.082V438H164.25V435.184H160.658V438H159.826V432.4ZM169.136 438.08C168.507 438.08 167.965 437.965 167.512 437.736C167.059 437.507 166.712 437.176 166.472 436.744C166.232 436.307 166.112 435.784 166.112 435.176C166.112 434.579 166.232 434.067 166.472 433.64C166.712 433.208 167.059 432.88 167.512 432.656C167.965 432.432 168.507 432.32 169.136 432.32C169.765 432.32 170.304 432.432 170.752 432.656C171.205 432.88 171.552 433.208 171.792 433.64C172.032 434.067 172.152 434.579 172.152 435.176C172.152 435.784 172.032 436.307 171.792 436.744C171.552 437.176 171.205 437.507 170.752 437.736C170.304 437.965 169.765 438.08 169.136 438.08ZM169.136 437.696C169.829 437.696 170.365 437.477 170.744 437.04C171.123 436.603 171.312 435.981 171.312 435.176C171.312 434.387 171.123 433.779 170.744 433.352C170.371 432.92 169.835 432.704 169.136 432.704C168.437 432.704 167.899 432.917 167.52 433.344C167.141 433.771 166.952 434.381 166.952 435.176C166.952 435.981 167.141 436.603 167.52 437.04C167.899 437.477 168.437 437.696 169.136 437.696ZM176.779 436.544H173.555L172.827 438H172.267L175.179 432.32H175.611L178.355 438H177.459L176.779 436.544ZM176.595 436.16L175.219 433.216L173.747 436.16H176.595ZM173.971 430.984C173.769 430.845 173.667 430.72 173.667 430.608C173.667 430.549 173.689 430.501 173.731 430.464C173.779 430.421 173.843 430.4 173.923 430.4C174.083 430.4 174.225 430.469 174.347 430.608L175.475 431.84H175.195L173.971 430.984Z" fill="#4A3021"/>
<path d="M331.592 328.4H332.424V330.808H336.016V328.4H336.848V334H336.016V331.184H332.424V334H331.592V328.4ZM340.902 334.08C340.272 334.08 339.731 333.965 339.278 333.736C338.824 333.507 338.478 333.176 338.238 332.744C337.998 332.307 337.878 331.784 337.878 331.176C337.878 330.579 337.998 330.067 338.238 329.64C338.478 329.208 338.824 328.88 339.278 328.656C339.731 328.432 340.272 328.32 340.902 328.32C341.531 328.32 342.07 328.432 342.518 328.656C342.971 328.88 343.318 329.208 343.558 329.64C343.798 330.067 343.918 330.579 343.918 331.176C343.918 331.784 343.798 332.307 343.558 332.744C343.318 333.176 342.971 333.507 342.518 333.736C342.07 333.965 341.531 334.08 340.902 334.08ZM340.902 333.696C341.595 333.696 342.131 333.477 342.51 333.04C342.888 332.603 343.078 331.981 343.078 331.176C343.078 330.387 342.888 329.779 342.51 329.352C342.136 328.92 341.6 328.704 340.902 328.704C340.203 328.704 339.664 328.917 339.286 329.344C338.907 329.771 338.718 330.381 338.718 331.176C338.718 331.981 338.907 332.603 339.286 333.04C339.664 333.477 340.203 333.696 340.902 333.696ZM339.526 326.984C339.323 326.845 339.222 326.72 339.222 326.608C339.222 326.549 339.243 326.501 339.286 326.464C339.334 326.421 339.398 326.4 339.478 326.4C339.638 326.4 339.779 326.469 339.902 326.608L341.03 327.84H340.75L339.526 326.984ZM344.951 328.4H345.791L349.199 332.744V328.4H349.903V334H349.487L345.655 329.128V334H344.951V328.4ZM355.057 328.784H352.689V328.4H358.249V328.784H355.889V334H355.057V328.784ZM363.184 332.824C363.307 333.133 363.419 333.381 363.52 333.568C363.627 333.749 363.731 333.872 363.832 333.936V334H362.96C362.87 333.899 362.784 333.771 362.704 333.616C362.63 333.461 362.547 333.264 362.456 333.024C362.307 332.629 362.155 332.325 362 332.112C361.846 331.893 361.656 331.749 361.432 331.68H361.224H359.744V334H358.912V328.4H361.224C361.992 328.4 362.584 328.536 363 328.808C363.422 329.075 363.632 329.485 363.632 330.04C363.632 330.867 363.166 331.381 362.232 331.584C362.435 331.685 362.611 331.835 362.76 332.032C362.91 332.224 363.051 332.488 363.184 332.824ZM361.24 331.304C362.286 331.304 362.808 330.883 362.808 330.04C362.808 329.203 362.286 328.784 361.24 328.784H359.744V331.304H361.24ZM364.522 328.4H369.266V328.784H365.354V330.808H368.81V331.184H365.354V333.616H369.266V334H364.522V328.4Z" fill="#4A3021"/>
<path d="M65.6 108.4H67.776C68.8213 108.4 69.616 108.629 70.16 109.088C70.704 109.547 70.976 110.219 70.976 111.104C70.976 112.027 70.7013 112.741 70.152 113.248C69.608 113.749 68.832 114 67.824 114H65.6V108.4ZM67.936 113.616C68.6453 113.616 69.1893 113.4 69.568 112.968C69.952 112.536 70.144 111.915 70.144 111.104C70.144 110.341 69.9573 109.765 69.584 109.376C69.2107 108.981 68.6613 108.784 67.936 108.784H66.432V113.616H67.936ZM72.3419 108.4H73.1739V114H72.3419V108.4ZM74.6858 108.4H79.4298V108.784H75.5178V110.808H78.9738V111.184H75.5178V113.616H79.4298V114H74.6858V108.4ZM76.8458 106.616H77.4058L78.3978 107.84H78.0058L77.1258 106.992L76.2458 107.84H75.8538L76.8458 106.616ZM80.2483 108.4H81.0883L84.4963 112.744V108.4H85.2003V114H84.7843L80.9523 109.128V114H80.2483V108.4ZM88.5061 108.4H89.3381V113.616H92.8581V114H88.5061V108.4ZM97.584 112.544H94.36L93.632 114H93.072L95.984 108.32H96.416L99.16 114H98.264L97.584 112.544ZM97.4 112.16L96.024 109.216L94.552 112.16H97.4ZM95.872 106.616H96.432L97.424 107.84H97.032L96.152 106.992L95.272 107.84H94.88L95.872 106.616ZM106.058 108.4V114H105.226V109.296L103.05 114H102.658L100.322 109.232V114H99.8264V108.4H100.778L103.01 113.008L105.146 108.4H106.058Z" fill="#4A3021"/>
<path d="M-143.824 233.912C-102.165 248.408 -1.36644 279.343 60.1091 282.045" stroke="#4A3021" stroke-width="3"/>
<path d="M55.4648 305.688C55.7463 290.488 61.7982 260.088 83.7537 260.088C111.198 260.088 212.954 256.71 231.109 289.222" stroke="#4A3021" stroke-width="3"/>
</g>
</g>
<defs>
<clipPath id="clip0_5632_14011">
<rect width="382" height="570" fill="white"/>
</clipPath>
<clipPath id="clip1_5632_14011">
<rect width="665.422" height="570" fill="white" transform="translate(-141.711)"/>
</clipPath>
</defs>
</svg>
