<svg width="382" height="570" viewBox="0 0 382 570" fill="none" xmlns="http://www.w3.org/2000/svg">
<g clip-path="url(#clip0_5632_14011)">
<rect width="382" height="570" fill="#DBDBDB"/>
<g clip-path="url(#clip1_5632_14011)">
<path d="M170.617 -1.16797H-144.152V571.679H199.649C199.649 571.679 199.285 551.003 187.464 542.512C175.642 534.021 153.864 519.632 161.618 512.234C169.372 504.836 177.125 491.184 186.727 493.404C196.328 495.625 193.743 503.37 199.649 505.217C205.556 507.065 207.403 513.344 201.87 516.293C196.336 519.242 198.175 546.198 201.497 556.536C204.819 566.875 205.183 571.679 205.183 571.679H239.528C239.528 571.679 224.072 538.631 228.19 507.141C229.69 494.43 230.232 494.531 235.503 495.006C240.774 495.481 246.367 495.65 247.638 494.048C248.909 492.447 254.35 491.506 254.511 487.023C254.672 482.541 256.036 457.254 264.247 457.118C272.459 456.983 276.052 459.508 274.416 449.297C272.781 439.086 276.111 432.866 264.603 429.281C253.095 425.697 240.918 422.231 237.486 415.579C234.054 408.926 234.647 398.63 239.613 401.935C244.579 405.24 242.808 404.766 245.02 401.579C247.231 398.393 252.112 387.928 251.045 383.589C249.977 379.25 251.816 380.809 243.621 371.886C235.427 362.963 227.783 358.235 227.597 355.319C227.411 352.404 229.419 347.854 225.055 347.489C220.691 347.125 213.581 347.489 207.937 349.489C202.293 351.489 196.463 356.777 194.641 354.769C192.819 352.76 184.26 346.761 182.989 345.117C181.718 343.473 185.989 341.117 190.133 346.21C194.277 351.303 200.734 352.37 202.683 349.337C204.632 346.303 200.141 349.243 197.209 346.998C194.277 344.752 190.37 336.931 193.209 337.024C196.048 337.117 197.938 334.194 198.438 336.431C198.938 338.668 200.031 343.159 203.861 342.43C207.691 341.702 210.293 339.99 215.86 341.888C221.428 343.786 231.046 345.812 233.444 346.439C235.842 347.066 236.232 354.913 240.147 357.955C244.062 360.997 247.486 366.556 251.663 366.302C255.841 366.048 261.146 365.454 261.654 361.624C262.163 357.794 260.265 339.236 263.807 337.965C261.146 336.448 249.765 329.49 243.562 318.991C237.359 308.492 231.698 292.679 231.419 286.357C231.139 280.036 232.181 249.419 236.986 246.767C241.791 244.114 247.231 244.224 247.358 239.301C247.485 234.377 245.842 234.216 242.935 232.089C240.028 229.962 241.164 218.056 243.435 211.752C245.706 205.447 247.613 202.43 253.307 200.998C259.002 199.566 266.332 196.193 266.967 194.168C267.603 192.143 276.289 197.964 283.661 197.083C291.034 196.202 292.898 196.702 295.423 194.931C293.907 193.16 292.881 188.855 297.576 186.329C302.27 183.804 305.669 181.525 304.66 179.372C303.652 177.22 302.889 176.211 296.949 173.169C291.008 170.127 285.932 166.466 282.653 162.797C279.374 159.128 268.739 151.289 267.595 148.637C266.451 145.984 259.756 146.484 257.858 145.722C255.96 144.959 253.562 142.688 253.053 137.756C252.545 132.824 252.799 133.451 247.231 130.036C241.664 126.621 236.605 126.367 237.495 120.808C238.384 115.249 243.689 114.351 241.918 112.334C240.147 110.317 233.063 109.037 233.825 102.165C234.588 95.2924 237.113 90.53 233.063 86.4794C229.012 82.4288 229.393 79.0222 231.546 76.9969C233.698 74.9716 233.071 70.8786 232.02 63.8112C230.97 56.7439 231.368 48.6172 233.885 44.3209C236.401 40.0245 239.732 36.6942 236.969 33.9994C234.207 31.3047 236.402 28.2286 236.325 26.932C236.249 25.6355 236.24 24.0085 230.232 22.2205C224.224 20.4324 225.284 21.3731 221.004 17.5089C216.725 13.6447 213.479 8.18737 209.623 8.53481C205.768 8.88224 203.844 11.6872 200.954 11.077C198.065 10.4669 194.65 4.6791 192.48 3.71306C190.311 2.74701 190.989 10.7211 188.887 11.3397C186.786 11.9583 185.913 13.2633 181.617 11.077C177.32 8.89072 170.617 -1.16797 170.617 -1.16797Z" fill="white"/>
<path d="M270.414 36.3127C270.414 36.3127 273.524 42.9563 276.346 43.3377C279.168 43.719 290.845 45.5918 291.853 47.7272C292.862 49.8627 295.489 45.7189 298.37 42.8377C301.251 39.9565 300.378 37.0668 299.378 33.1772C298.378 29.2876 299.878 24.6439 295.616 23.8558C291.557 23.0644 287.735 21.3477 284.447 18.8391C281.905 16.8308 280.058 23.61 278.431 27.2454C276.799 31.0487 273.989 34.2272 270.414 36.3127Z" fill="white"/>
<path d="M296.758 -1.16797C296.758 -1.16797 298.766 7.22136 298.453 8.15351C298.139 9.08566 302.885 3.39104 305.715 8.5348C308.545 13.6786 310.41 15.7971 310.732 20.0426C311.054 24.2881 316.663 31.525 321.409 36.1434C326.154 40.7617 331.095 44.4225 331.095 46.7868C331.095 49.1511 332.637 49.6256 334.408 51.1594C336.179 52.6932 342.213 55.6507 341.264 59.0827C340.315 62.5147 341.315 64.2349 338.332 64.2349C335.349 64.2349 334.866 69.1499 335.188 72.7768C335.51 76.4037 334.34 79.9543 336.798 80.8441C339.255 81.7339 340.128 80.3611 341.365 82.3779C342.603 84.3947 343.204 86.4624 345.746 87.3098C348.289 88.1572 350.907 85.5303 352.441 87.3098C353.975 89.0894 353.492 90.0469 355.424 89.1656C357.356 88.2843 358.568 85.776 360.907 87.1488C363.245 88.5216 364.457 88.5132 364.703 92.4705C364.949 96.4279 364.051 97.5549 368.008 100.529C371.965 103.504 374.694 105.131 377.194 106.097C379.694 107.063 380.905 108.114 384.693 107.546C388.481 106.978 389.693 108.114 390.506 103.919C391.32 99.7243 393.896 96.1737 395.828 96.3347C397.76 96.4957 398.887 95.6144 398.37 91.7417C397.854 87.8691 396.837 79.6492 397.887 76.9036C398.938 74.158 400.709 74.0055 401.116 72.1497C401.523 70.2939 402.158 59.3284 402.158 56.3456C402.158 53.3627 401.997 47.4732 404.421 45.9394C406.845 44.4056 409.904 42.9565 410.709 40.6177C411.514 38.2788 411.556 33.9231 414.658 34.1689C417.759 34.4146 421.759 35.0163 422.886 38.3636C424.013 41.7108 426.115 40.9058 427.403 41.5075C428.691 42.1091 430.547 46.5071 430.708 49.812C430.869 53.1169 430.869 54.8117 433.69 56.4218C436.229 57.9953 438.87 59.3967 441.597 60.6165C444.817 61.9893 445.783 63.2773 446.427 59.6504C447.071 56.0235 450.783 56.0405 448.367 53.2525C445.952 50.4645 441.105 49.329 441.351 45.1343C441.597 40.9397 442.885 36.9908 446.105 36.9908C449.325 36.9908 455.223 37.1518 456.587 36.423C457.952 35.6942 461.587 36.1857 461.748 32.9571C461.909 29.7285 463.045 24.9745 464.9 23.9238C466.756 22.873 469.01 20.7036 467.722 16.831C466.434 12.9583 465.18 9.73815 463.045 7.07729C460.909 4.41643 460.621 0.29803 458.045 1.99284C455.469 3.68766 455.299 7.15356 452.113 5.8655C448.927 4.57744 446.952 3.68767 444.859 1.62847C443.902 0.629906 442.877 -0.301649 441.792 -1.15954L296.758 -1.16797Z" fill="white"/>
<path d="M266.794 373.31C266.794 373.31 272.929 373.403 273.429 377.03C273.929 380.657 274.056 384.165 276.361 385.174C278.666 386.182 275.446 379.945 279.166 377.225C282.886 374.505 292.64 368.683 291.233 366.065C289.826 363.446 289.725 361.336 286.403 363.251C283.081 365.166 280.607 366.268 279.081 364.251C277.556 362.234 272.828 356.811 272.726 360.938C272.624 365.065 269.209 370.191 267.641 370.895C266.074 371.598 266.794 373.31 266.794 373.31Z" fill="white"/>
<path d="M291.812 394.07C291.812 394.07 298.854 394.917 300.532 397.62C302.21 400.323 305.549 401.739 309.455 401.383C313.362 401.027 316.235 404.594 317.26 406.543C318.285 408.493 320.192 407.942 319.98 406.196C319.768 404.45 315.743 399.713 315.523 397.832C315.303 395.951 316.006 394.621 314.472 393.231C312.938 391.841 312.455 387.79 309.455 388.765C306.456 389.739 305.761 391.417 303.041 391.138C300.32 390.858 294.253 390.163 293.49 391.485C292.728 392.807 291.812 394.07 291.812 394.07Z" fill="white"/>
<path d="M351.292 397.401C351.292 397.401 355.69 402.705 358.8 400.79C361.91 398.875 363.104 399.053 362.732 395.85C362.359 392.647 364.477 388.596 362.003 388.647C359.528 388.698 356.325 387.799 355.139 388.647C353.952 389.494 349.987 389.155 351.292 397.401Z" fill="white"/>
<path d="M383.646 376.274C383.646 376.274 390.358 376.825 390.358 381.536C390.358 386.248 389.087 388.841 384.918 388.629C380.748 388.417 370.774 387.341 367.512 386.087C364.249 384.833 358.716 381.003 357.131 377.749C355.547 374.494 356.089 367.046 352.284 363.783C348.479 360.521 349.742 359.08 344.657 359.436C339.573 359.792 340.132 357.284 335.039 357.08C329.946 356.877 326.624 353.03 325.277 351.259C323.93 349.487 319.455 342.945 316.964 342.013C314.473 341.081 309.795 340.319 307.295 340.039C307.295 338.48 299.609 332.344 300.516 327.15C301.423 321.955 303.685 317.074 300.44 315.718C297.194 314.362 292.762 313.863 288.728 314.024C284.695 314.185 284.034 310.634 286.279 307.998C288.525 305.363 289.669 301.719 292.449 301.414C295.228 301.109 295.465 300.567 298.524 302.083C301.584 303.6 302.863 306.422 305.109 305.041C307.354 303.66 307.965 302.999 308.117 306.575C308.27 310.151 306.846 311.778 309.142 314.278C311.439 316.778 313.685 319.633 315.269 317.083C316.854 314.532 316.117 311.015 318.328 311.998C320.54 312.981 321.032 314.752 322.718 312.846C324.404 310.939 330.921 306.524 334.175 307.973C334.711 308.231 335.301 308.353 335.895 308.329C336.489 308.306 337.068 308.137 337.582 307.837C338.095 307.538 338.528 307.117 338.841 306.612C339.154 306.107 339.338 305.532 339.378 304.939C339.234 303.558 343.073 299.948 341.92 297.313C340.768 294.677 343.293 293.076 345.759 296.084C348.225 299.092 349.81 301.007 352.538 301.507C355.267 302.007 356.775 303.897 357.894 306.21C359.012 308.524 359.589 308.888 364.037 309.109C368.486 309.329 373.444 310.193 375.469 307.583C377.494 304.973 379.376 304.838 382.918 305.634C386.46 306.431 386.104 305.49 388.782 304.617C391.46 303.744 394.061 302.812 395.29 305.558C396.519 308.304 395.002 311.134 396.375 314.879C397.747 318.625 397.527 320.455 400.425 319.803C403.323 319.15 403.535 317.557 404.188 320.964C404.84 324.37 404.476 328.336 406.73 330.65C408.984 332.963 411.941 335.929 414.907 333.836C417.873 331.743 418.958 327.54 419.322 325.658C419.687 323.777 423.559 320.235 423.373 316.761C423.187 313.286 423.517 307.143 427.135 310.041C430.754 312.939 431.983 313.074 432.771 315.896C433.559 318.718 433.618 321.608 437.694 321.252C441.77 320.896 442.829 318.066 444.634 319.659C446.439 321.252 448.871 321.176 449.338 325.591C449.804 330.006 451.219 337.166 448.905 338.175C446.592 339.183 443.821 339.192 444.49 342.513C445.16 345.835 442.974 351.487 445.143 353.369C447.312 355.25 449.194 353.148 451.295 355.97C453.397 358.792 454.837 359.156 455.778 362.19C456.718 365.224 458.091 367.834 455.346 368.054C452.6 368.275 451.007 370.147 449.414 370.868C447.821 371.588 448.617 370.868 445.287 371.232C441.957 371.596 441.457 372.393 441.457 375.283C441.457 378.172 444.058 378.672 440.372 380.494C436.686 382.316 434.22 381.867 431.398 381.503C428.576 381.138 422.72 379.265 425.466 377.164C428.212 375.062 429.373 371.808 432.245 371.164C435.118 370.52 437.669 371.232 437.957 370.079C438.245 368.927 439.694 364.792 436.652 365.232C433.61 365.673 431.449 365.732 427.754 367.902C424.059 370.071 424.144 371.952 419.28 372.139C416.063 372.342 412.866 371.504 410.162 369.749C408.933 368.902 405.459 368.054 400.756 368.444C396.053 368.834 392.951 367.359 394.612 363.673C396.273 359.987 398.849 356.046 400.612 355.86C402.374 355.674 405.315 353.47 404.849 352.318C404.383 351.165 405.213 347.538 402.756 347.683C400.298 347.827 397.256 349.064 396.671 351.013C396.201 352.481 395.421 353.832 394.385 354.974C393.348 356.115 392.079 357.021 390.663 357.631C387.121 359.004 383.579 359.445 382.638 362.766C381.697 366.088 380.833 370.656 381.333 372.249C381.833 373.842 381.443 375.155 383.646 376.274Z" fill="white"/>
<path d="M260.115 80.2925C260.115 80.2925 265.292 78.5977 264.843 82.6144C264.394 86.6311 265.741 88.8683 261.809 88.1564C257.878 87.4446 250.734 85.1651 253.141 84.1143C255.547 83.0635 260.115 80.2925 260.115 80.2925Z" fill="white"/>
<path d="M97.7778 572.544C85.0676 564.056 23.6296 500.514 11.7659 428.061C7.10515 411.96 -2.9381 384.589 -5.93513 374.412L-23.5188 342.363L-35.4674 317.364L-52.2118 275.527C-52.2118 275.527 -56.5791 267.358 -47.9765 261.969" stroke="#4A3021" stroke-width="3.01053" stroke-miterlimit="10"/>
<path d="M166.1 571.68C166.1 571.68 166.769 531.852 143.262 519.251C119.755 506.65 86.8842 491.058 86.8842 491.058C86.8842 491.058 75.7487 485.261 73.2065 481.871C71.8076 480.472 67.9193 471.067 66.1821 468.991C64.4449 466.915 53.6737 457.178 50.3265 452.212C46.9792 447.246 35.3533 430.892 34.0822 421.655C32.8111 412.418 26.1844 383.683 25.1929 372.582C24.2015 361.481 23.6082 344.041 31.7349 334.72C39.8615 325.398 58.2928 301.027 60.4706 296.273C62.6484 291.519 84.0877 258.266 84.0877 258.266C109.645 222.564 173.201 167.907 215.571 162.822" stroke="#4A3021" stroke-width="3.01053" stroke-miterlimit="10"/>
<path d="M208.564 271.908C208.564 271.908 217.42 273.238 217.674 266.196C217.928 259.154 216.894 252.638 223.284 251.722C229.673 250.807 228.368 248.596 228.885 245.469C229.402 242.342 225.241 215.877 222.758 211.445C220.275 207.013 209.2 192.802 213.632 187.065C218.064 181.328 216.114 165.812 214.809 160.474C213.504 155.135 225.495 133.746 225.495 133.746C225.495 133.746 231.105 111.197 231.758 102.587C232.41 93.9776 229.359 84.6137 225.766 79.936C222.173 75.2583 229.597 58.4966 228.402 54.4206C227.207 50.3446 229.597 38.5063 216.428 33.4134C203.259 28.3205 198.463 17.5414 189.125 16.3466C179.786 15.1517 168.787 15.1433 166.372 8.71992C165.153 5.1784 163.377 1.85425 161.109 -1.12695" stroke="#4A3021" stroke-width="3.01053" stroke-miterlimit="10"/>
<path d="M105.166 292.969H102.196V292.39H109.63V292.969H106.661V299.508H105.166V292.969ZM110.444 292.39H111.949V295.4H115.986V292.39H117.491V299.508H115.986V295.979H111.949V299.508H110.444V292.39ZM124.049 297.688H120.266L119.382 299.508H118.345L122.046 292.288H122.961L126.449 299.508H124.903L124.049 297.688ZM123.775 297.108L122.199 293.742L120.551 297.108H123.775ZM120.633 290.58C120.355 290.396 120.216 290.227 120.216 290.071C120.216 289.976 120.253 289.902 120.327 289.847C120.402 289.793 120.5 289.766 120.622 289.766C120.758 289.766 120.88 289.79 120.988 289.837C121.097 289.885 121.199 289.963 121.293 290.071L122.687 291.678H122.199L120.633 290.58ZM127.316 292.39H128.801L132.675 297.433V292.39H134.058V299.508H133.103L128.699 293.712V299.508H127.316V292.39ZM135.529 292.39H137.034V295.4H141.071V292.39H142.576V299.508H141.071V295.979H137.034V299.508H135.529V292.39ZM146.909 292.39H149.797C150.834 292.39 151.634 292.562 152.197 292.908C152.766 293.247 153.051 293.806 153.051 294.586C153.051 295.359 152.773 295.918 152.217 296.264C151.661 296.61 150.855 296.783 149.797 296.783H148.414V299.508H146.909V292.39ZM149.817 296.193C150.394 296.193 150.828 296.074 151.119 295.837C151.411 295.6 151.556 295.183 151.556 294.586C151.556 294.003 151.411 293.59 151.119 293.345C150.834 293.095 150.4 292.969 149.817 292.969H148.414V296.193H149.817ZM154.01 292.39H155.515V295.4H159.552V292.39H161.057V299.508H159.552V295.979H155.515V299.508H154.01V292.39ZM166.364 299.61C165.53 299.61 164.808 299.464 164.198 299.172C163.595 298.881 163.134 298.46 162.815 297.911C162.496 297.355 162.337 296.691 162.337 295.918C162.337 295.159 162.496 294.508 162.815 293.966C163.14 293.423 163.605 293.01 164.208 292.725C164.811 292.434 165.53 292.288 166.364 292.288C167.191 292.288 167.903 292.434 168.499 292.725C169.103 293.01 169.564 293.423 169.882 293.966C170.208 294.508 170.37 295.159 170.37 295.918C170.37 296.691 170.211 297.355 169.892 297.911C169.574 298.46 169.113 298.881 168.509 299.172C167.906 299.464 167.191 299.61 166.364 299.61ZM166.364 299.03C167.164 299.03 167.777 298.765 168.204 298.237C168.631 297.701 168.845 296.928 168.845 295.918C168.845 294.928 168.631 294.173 168.204 293.651C167.777 293.129 167.164 292.868 166.364 292.868C165.557 292.868 164.937 293.132 164.503 293.661C164.076 294.183 163.862 294.935 163.862 295.918C163.862 296.928 164.076 297.701 164.503 298.237C164.93 298.765 165.55 299.03 166.364 299.03ZM168.286 289.207C168.415 289.044 168.57 288.963 168.754 288.963C168.862 288.963 168.947 288.986 169.008 289.034C169.076 289.081 169.109 289.146 169.109 289.227C169.109 289.295 169.065 289.376 168.977 289.471C168.896 289.559 168.757 289.681 168.56 289.837L167.848 290.386H167.391L168.286 289.207ZM165.927 290.041H166.801L168.154 291.678H167.432L166.364 290.671L165.296 291.678H164.574L165.927 290.041ZM103.081 305.39H104.566L108.44 310.433V305.39H109.823V312.508H108.867L104.464 306.712V312.508H103.081V305.39ZM111.293 305.39H112.798V308.4H116.836V305.39H118.34V312.508H116.836V308.979H112.798V312.508H111.293V305.39ZM124.898 310.688H121.115L120.231 312.508H119.194L122.895 305.288H123.81L127.298 312.508H125.753L124.898 310.688ZM124.624 310.108L123.048 306.742L121.4 310.108H124.624ZM133.344 305.969H130.374V305.39H137.808V305.969H134.839V312.508H133.344V305.969ZM144.419 310.962C144.588 311.389 144.737 311.728 144.866 311.979C145.002 312.23 145.127 312.365 145.242 312.386V312.508H143.747C143.625 312.379 143.514 312.213 143.412 312.01C143.31 311.806 143.198 311.542 143.076 311.216C142.907 310.762 142.737 310.403 142.568 310.138C142.405 309.874 142.198 309.698 141.948 309.61H141.744H140.117V312.508H138.622V305.39H141.744C142.781 305.39 143.581 305.552 144.144 305.878C144.707 306.203 144.988 306.739 144.988 307.484C144.988 308.515 144.419 309.172 143.28 309.457C143.524 309.593 143.734 309.783 143.91 310.027C144.093 310.264 144.263 310.576 144.419 310.962ZM140.117 309.03H141.765C142.314 309.03 142.741 308.918 143.046 308.694C143.351 308.464 143.503 308.061 143.503 307.484C143.503 306.922 143.351 306.529 143.046 306.305C142.741 306.081 142.314 305.969 141.765 305.969H140.117V309.03ZM151.175 310.688H147.392L146.507 312.508H145.47L149.171 305.288H150.086L153.574 312.508H152.029L151.175 310.688ZM150.9 310.108L149.324 306.742L147.676 310.108H150.9ZM154.442 305.39H155.926L159.801 310.433V305.39H161.184V312.508H160.228L155.825 306.712V312.508H154.442V305.39ZM166.59 312.61C165.742 312.61 165.007 312.464 164.383 312.172C163.766 311.881 163.292 311.46 162.959 310.911C162.627 310.362 162.461 309.711 162.461 308.959C162.461 308.213 162.627 307.566 162.959 307.017C163.292 306.461 163.766 306.037 164.383 305.746C165 305.447 165.729 305.298 166.569 305.298C167.573 305.298 168.393 305.512 169.03 305.939C169.667 306.366 170.044 306.952 170.159 307.698H168.959C168.837 307.115 168.573 306.667 168.166 306.356C167.759 306.037 167.237 305.878 166.6 305.878C165.78 305.878 165.139 306.149 164.678 306.691C164.217 307.227 163.986 307.979 163.986 308.949C163.986 309.918 164.214 310.674 164.668 311.216C165.129 311.759 165.773 312.03 166.6 312.03C166.966 312.03 167.298 311.993 167.596 311.918C167.895 311.837 168.2 311.704 168.512 311.521V309.294H166.061V308.755H170.017V311.552C169.644 311.884 169.152 312.145 168.542 312.335C167.932 312.518 167.281 312.61 166.59 312.61Z" fill="#4A3021"/>
<path d="M83.7982 480.528C83.7205 480.867 83.7828 481.197 83.9853 481.517C84.1853 481.842 84.4925 482.111 84.9067 482.324C84.9925 482.368 85.0818 482.405 85.1749 482.434L85.0006 482.616C84.8145 482.556 84.6429 482.486 84.4858 482.406C84.1763 482.247 83.908 482.043 83.6808 481.794C83.4559 481.552 83.2948 481.286 83.1973 480.995C83.0974 480.709 83.0704 480.428 83.1164 480.151C82.4605 479.706 82.0533 479.163 81.8949 478.522C81.7389 477.877 81.8491 477.187 82.2254 476.454C82.4991 475.921 82.8408 475.519 83.2506 475.248C83.6628 474.972 84.1226 474.838 84.63 474.846C85.1374 474.853 85.672 475.001 86.2338 475.29C86.7957 475.578 87.2253 475.925 87.5226 476.33C87.8247 476.738 87.9839 477.19 88.0003 477.685C88.019 478.176 87.8916 478.688 87.6179 479.222C87.2147 480.007 86.6779 480.514 86.0077 480.741C85.3399 480.964 84.6035 480.893 83.7982 480.528ZM82.9753 476.839C82.6063 477.558 82.4907 478.199 82.6284 478.763C82.7661 479.327 83.1468 479.769 83.7705 480.089C84.3895 480.407 84.9683 480.457 85.5067 480.241C86.0452 480.024 86.4989 479.556 86.8679 478.837C87.2296 478.132 87.3392 477.502 87.1966 476.948C87.0612 476.391 86.6816 475.953 86.0579 475.633C85.4341 475.312 84.8555 475.256 84.3219 475.464C83.7883 475.671 83.3395 476.129 82.9753 476.839ZM89.5601 483.494C88.7316 483.069 88.2257 482.577 88.0425 482.02C87.8665 481.461 87.9569 480.833 88.3136 480.138L89.8129 477.217L90.5557 477.598L88.9721 480.684C88.6984 481.217 88.6157 481.689 88.7239 482.099C88.832 482.51 89.1695 482.86 89.7361 483.151C90.2932 483.437 90.7688 483.507 91.1629 483.36C91.5617 483.216 91.9005 482.872 92.1791 482.329L93.7626 479.244L94.5054 479.625L93.0062 482.546C92.6494 483.242 92.1924 483.681 91.6351 483.864C91.0803 484.042 90.3886 483.919 89.5601 483.494ZM95.5218 486.554C94.9599 486.265 94.5291 485.915 94.2295 485.502C93.9298 485.09 93.7718 484.636 93.7555 484.14C93.7416 483.64 93.874 483.118 94.1526 482.575C94.4263 482.042 94.768 481.64 95.1778 481.369C95.59 481.093 96.0498 480.959 96.5571 480.967C97.0645 480.975 97.5991 481.123 98.161 481.411C98.7229 481.699 99.1525 482.046 99.4498 482.451C99.7519 482.859 99.9111 483.311 99.9274 483.807C99.9462 484.297 99.8187 484.81 99.545 485.343C99.2665 485.886 98.9198 486.297 98.5052 486.578C98.093 486.853 97.6319 486.99 97.1221 486.987C96.6171 486.986 96.0836 486.842 95.5218 486.554ZM95.6977 486.211C96.3167 486.528 96.8954 486.579 97.4339 486.362C97.9724 486.145 98.4261 485.677 98.7951 484.958C99.1568 484.253 99.2663 483.624 99.1237 483.069C98.9884 482.512 98.6088 482.074 97.9851 481.754C97.3613 481.434 96.7826 481.377 96.249 481.585C95.7155 481.792 95.2666 482.251 94.9025 482.96C94.5335 483.679 94.4178 484.321 94.5555 484.885C94.6932 485.449 95.0739 485.891 95.6977 486.211ZM100.617 480.037C100.776 479.974 100.9 479.965 100.991 480.012C101.053 480.044 101.094 480.086 101.115 480.139C101.138 480.187 101.137 480.237 101.11 480.29C101.085 480.337 101.037 480.373 100.965 480.396C100.893 480.419 100.771 480.446 100.598 480.478L99.7348 480.613L99.4991 480.492L100.617 480.037ZM98.6918 479.761L99.1918 480.018L99.5166 481.565L99.1666 481.386L98.7695 480.225L97.5953 480.579L97.2453 480.4L98.6918 479.761ZM101.652 489.7C100.799 489.262 100.259 488.702 100.032 488.02C99.8046 487.338 99.9047 486.58 100.332 485.747C100.75 484.933 101.299 484.42 101.979 484.21C102.663 484.001 103.429 484.115 104.277 484.55C104.967 484.904 105.454 485.338 105.739 485.85C106.023 486.363 106.072 486.9 105.887 487.461L105.244 487.131C105.373 486.68 105.339 486.259 105.142 485.869C104.948 485.475 104.612 485.155 104.136 484.911C103.517 484.593 102.943 484.539 102.415 484.749C101.891 484.961 101.446 485.422 101.082 486.132C100.711 486.856 100.592 487.498 100.725 488.06C100.86 488.616 101.239 489.055 101.863 489.375C102.339 489.619 102.791 489.707 103.218 489.637C103.644 489.567 104.005 489.346 104.298 488.973L104.941 489.303C104.594 489.781 104.129 490.054 103.546 490.122C102.964 490.19 102.332 490.049 101.652 489.7ZM109.399 487.269L110.141 487.65L107.751 492.307L110.894 493.92L110.718 494.262L106.833 492.268L109.399 487.269ZM113.685 495.875C113.123 495.587 112.692 495.236 112.392 494.824C112.093 494.411 111.935 493.957 111.918 493.462C111.904 492.961 112.037 492.44 112.315 491.897C112.589 491.364 112.931 490.961 113.341 490.69C113.753 490.415 114.213 490.281 114.72 490.288C115.227 490.296 115.762 490.444 116.324 490.733C116.886 491.021 117.315 491.368 117.613 491.773C117.915 492.181 118.074 492.632 118.09 493.128C118.109 493.619 117.982 494.131 117.708 494.664C117.429 495.207 117.083 495.619 116.668 495.899C116.256 496.175 115.795 496.311 115.285 496.308C114.78 496.308 114.246 496.163 113.685 495.875ZM113.86 495.532C114.479 495.85 115.058 495.9 115.597 495.683C116.135 495.466 116.589 494.998 116.958 494.279C117.32 493.575 117.429 492.945 117.287 492.391C117.151 491.834 116.772 491.396 116.148 491.075C115.524 490.755 114.945 490.699 114.412 490.906C113.878 491.114 113.429 491.572 113.065 492.282C112.696 493.001 112.581 493.642 112.718 494.206C112.856 494.77 113.237 495.212 113.86 495.532ZM113.182 496.854C113.073 496.797 113.001 496.715 112.966 496.607C112.933 496.506 112.944 496.403 112.998 496.299C113.052 496.194 113.129 496.125 113.23 496.093C113.335 496.063 113.443 496.076 113.553 496.132C113.662 496.188 113.733 496.267 113.766 496.368C113.803 496.471 113.794 496.575 113.741 496.68C113.687 496.785 113.607 496.852 113.502 496.882C113.398 496.919 113.292 496.91 113.182 496.854ZM116.855 489.083L117.355 489.34L117.679 490.887L117.329 490.707L116.932 489.547L115.758 489.901L115.408 489.721L116.855 489.083ZM123.114 495.697L121.814 495.03L121.957 494.752C122.314 494.923 122.654 495.004 122.978 494.996C123.303 494.982 123.589 494.877 123.836 494.678L124.407 494.971L121.841 499.971L121.113 499.597L123.114 495.697ZM128.438 501.715L125.56 500.237L124.243 501.204L123.743 500.947L128.945 497.21L129.331 497.408L129.178 503.737L128.378 503.326L128.438 501.715ZM128.45 501.287L128.571 498.029L125.907 499.982L128.45 501.287Z" fill="#4A3021"/>
<path d="M87.8372 384.196L89.9447 383.624C90.9571 383.35 91.787 383.363 92.4343 383.664C93.0817 383.966 93.5218 384.545 93.7544 385.402C93.9969 386.296 93.9186 387.06 93.5198 387.695C93.1246 388.324 92.439 388.771 91.4627 389.035L89.3088 389.62L87.8372 384.196ZM91.4703 388.634C92.1573 388.448 92.6274 388.096 92.8806 387.578C93.139 387.058 93.1616 386.406 92.9486 385.621C92.7482 384.882 92.4161 384.374 91.9522 384.095C91.4869 383.81 90.903 383.764 90.2005 383.954L88.7439 384.35L90.0137 389.029L91.4703 388.634ZM95.9397 382.397L93.6463 383.019L93.5454 382.647L98.9302 381.186L99.0311 381.558L96.7455 382.178L98.1161 387.23L97.3104 387.449L95.9397 382.397ZM103.219 385.929C102.506 386.122 101.902 386.142 101.405 385.988C100.914 385.833 100.593 385.521 100.444 385.051L101.133 384.864C101.256 385.236 101.49 385.486 101.836 385.614C102.181 385.742 102.607 385.737 103.113 385.6C103.619 385.462 103.977 385.249 104.187 384.959C104.395 384.664 104.443 384.31 104.331 383.897C104.222 383.494 104.007 383.233 103.687 383.115C103.371 382.995 102.935 383.011 102.377 383.163C102.015 383.261 101.692 383.379 101.408 383.517L101.288 383.075C101.478 383.057 101.727 383.006 102.037 382.922C102.528 382.789 102.896 382.581 103.141 382.298C103.384 382.01 103.46 381.699 103.369 381.363C103.282 381.043 103.09 380.826 102.793 380.712C102.495 380.594 102.129 380.593 101.695 380.711C101.225 380.838 100.872 381.05 100.637 381.347C100.405 381.638 100.328 381.966 100.405 382.333L99.7078 382.523C99.6368 382.22 99.6687 381.929 99.8033 381.648C99.9416 381.361 100.164 381.109 100.472 380.893C100.783 380.67 101.16 380.498 101.605 380.378C102.033 380.261 102.432 380.217 102.8 380.245C103.166 380.267 103.471 380.359 103.715 380.52C103.957 380.677 104.113 380.886 104.185 381.15C104.262 381.434 104.22 381.717 104.058 382C103.9 382.275 103.642 382.512 103.285 382.708C104.316 382.584 104.935 382.904 105.143 383.668C105.28 384.174 105.179 384.629 104.839 385.032C104.498 385.429 103.958 385.728 103.219 385.929Z" fill="#4A3021"/>
<path d="M143.463 253.319C142.513 253.195 141.816 252.85 141.372 252.284C140.928 251.719 140.767 250.972 140.888 250.043C141.007 249.136 141.351 248.468 141.92 248.041C142.494 247.614 143.253 247.462 144.198 247.586C144.967 247.687 145.572 247.93 146.013 248.317C146.453 248.704 146.681 249.193 146.695 249.783L145.979 249.689C145.948 249.221 145.775 248.837 145.458 248.536C145.141 248.23 144.718 248.043 144.187 247.973C143.498 247.883 142.939 248.026 142.512 248.401C142.09 248.778 141.828 249.362 141.724 250.152C141.618 250.959 141.723 251.604 142.037 252.088C142.353 252.567 142.858 252.851 143.553 252.942C144.084 253.012 144.538 252.942 144.916 252.732C145.295 252.523 145.559 252.193 145.71 251.743L146.426 251.837C146.26 252.403 145.915 252.817 145.389 253.077C144.864 253.338 144.222 253.419 143.463 253.319ZM151.254 252.785L148.046 252.365L147.132 253.719L146.575 253.646L150.213 248.373L150.642 248.43L152.633 254.439L151.741 254.322L151.254 252.785ZM151.121 252.379L150.136 249.27L148.288 252.008L151.121 252.379ZM155.747 254.927C155.121 254.845 154.597 254.661 154.176 254.374C153.754 254.086 153.453 253.712 153.27 253.251C153.088 252.785 153.037 252.249 153.116 251.644C153.194 251.05 153.38 250.556 153.674 250.162C153.969 249.764 154.357 249.483 154.837 249.319C155.318 249.155 155.871 249.114 156.497 249.196C157.123 249.278 157.645 249.46 158.061 249.741C158.483 250.023 158.785 250.394 158.968 250.855C159.151 251.311 159.204 251.836 159.126 252.431C159.047 253.036 158.859 253.54 158.564 253.944C158.268 254.343 157.88 254.626 157.399 254.796C156.924 254.965 156.373 255.009 155.747 254.927ZM155.797 254.545C156.487 254.636 157.048 254.488 157.482 254.102C157.916 253.716 158.185 253.123 158.29 252.321C158.393 251.536 158.284 250.906 157.963 250.432C157.647 249.954 157.142 249.669 156.447 249.578C155.752 249.487 155.188 249.629 154.756 250.004C154.323 250.38 154.055 250.963 153.952 251.753C153.847 252.555 153.954 253.198 154.274 253.682C154.594 254.167 155.102 254.454 155.797 254.545ZM164.42 250.703L162.063 250.394L162.113 250.012L167.646 250.737L167.596 251.119L165.247 250.811L164.568 256.001L163.74 255.893L164.42 250.703ZM170.423 256.849C169.797 256.767 169.273 256.582 168.852 256.295C168.431 256.008 168.129 255.634 167.947 255.172C167.765 254.706 167.713 254.17 167.793 253.565C167.87 252.971 168.057 252.477 168.351 252.084C168.646 251.685 169.034 251.404 169.514 251.24C169.994 251.077 170.547 251.036 171.174 251.118C171.8 251.2 172.321 251.381 172.738 251.662C173.16 251.944 173.462 252.316 173.644 252.777C173.828 253.233 173.88 253.758 173.802 254.352C173.723 254.957 173.536 255.462 173.24 255.866C172.945 256.264 172.557 256.548 172.076 256.717C171.6 256.887 171.049 256.931 170.423 256.849ZM170.473 256.467C171.163 256.557 171.725 256.409 172.159 256.024C172.592 255.638 172.862 255.044 172.967 254.243C173.07 253.457 172.96 252.828 172.639 252.354C172.324 251.875 171.819 251.591 171.124 251.5C170.428 251.409 169.865 251.551 169.432 251.926C169 252.301 168.732 252.884 168.628 253.675C168.523 254.476 168.631 255.119 168.951 255.604C169.271 256.088 169.778 256.376 170.473 256.467ZM173.022 248.995C173.15 248.883 173.265 248.833 173.366 248.846C173.435 248.855 173.488 248.881 173.525 248.924C173.564 248.961 173.579 249.009 173.571 249.067C173.564 249.12 173.531 249.17 173.471 249.216C173.411 249.262 173.305 249.329 173.153 249.417L172.386 249.835L172.123 249.801L173.022 248.995ZM171.117 249.386L171.674 249.459L172.502 250.806L172.112 250.755L171.347 249.796L170.36 250.525L169.97 250.474L171.117 249.386ZM177.255 257.743C176.305 257.619 175.608 257.274 175.164 256.708C174.72 256.143 174.558 255.396 174.68 254.467C174.799 253.56 175.143 252.892 175.711 252.465C176.285 252.038 177.045 251.886 177.989 252.01C178.759 252.111 179.364 252.354 179.804 252.741C180.245 253.128 180.472 253.617 180.487 254.207L179.77 254.113C179.74 253.645 179.566 253.261 179.249 252.96C178.933 252.654 178.51 252.467 177.979 252.397C177.289 252.307 176.731 252.45 176.304 252.826C175.882 253.202 175.619 253.786 175.516 254.577C175.41 255.383 175.515 256.028 175.829 256.512C176.144 256.991 176.65 257.275 177.345 257.366C177.875 257.436 178.33 257.366 178.708 257.156C179.086 256.947 179.351 256.617 179.502 256.167L180.218 256.261C180.052 256.828 179.706 257.241 179.181 257.502C178.656 257.762 178.014 257.843 177.255 257.743ZM185.169 258.779C184.342 258.671 183.734 258.341 183.348 257.788C182.967 257.231 182.837 256.493 182.958 255.575C183.078 254.657 183.393 253.98 183.903 253.545C184.42 253.106 185.092 252.94 185.92 253.048C186.742 253.156 187.344 253.488 187.724 254.046C188.111 254.598 188.244 255.333 188.124 256.252C188.003 257.17 187.688 257.849 187.177 258.289C186.666 258.724 185.997 258.888 185.169 258.779ZM185.213 258.445C185.765 258.517 186.221 258.353 186.581 257.952C186.947 257.552 187.182 256.949 187.288 256.142C187.393 255.335 187.321 254.692 187.071 254.211C186.826 253.731 186.428 253.455 185.876 253.383C185.324 253.31 184.865 253.474 184.5 253.874C184.14 254.275 183.907 254.879 183.801 255.686C183.696 256.492 183.765 257.136 184.01 257.616C184.26 258.096 184.661 258.373 185.213 258.445ZM191.196 255.067L189.747 254.877L189.788 254.567C190.182 254.608 190.53 254.569 190.831 254.452C191.133 254.33 191.367 254.134 191.532 253.864L192.168 253.947L191.439 259.519L190.627 259.413L191.196 255.067Z" fill="#4A3021"/>
<path d="M209.78 147.087C209.48 147.997 209.01 148.617 208.371 148.947C207.732 149.276 206.968 149.295 206.079 149.001C205.21 148.713 204.619 148.25 204.306 147.611C203.994 146.967 203.988 146.193 204.287 145.289C204.531 144.552 204.884 144.003 205.347 143.643C205.809 143.283 206.332 143.152 206.915 143.248L206.688 143.934C206.222 143.876 205.812 143.975 205.457 144.229C205.097 144.483 204.834 144.863 204.666 145.371C204.447 146.032 204.483 146.607 204.772 147.097C205.062 147.582 205.586 147.95 206.343 148.2C207.116 148.456 207.769 148.474 208.303 148.256C208.833 148.036 209.207 147.594 209.427 146.928C209.595 146.42 209.612 145.96 209.477 145.549C209.342 145.138 209.068 144.817 208.654 144.584L208.881 143.898C209.407 144.168 209.748 144.585 209.905 145.15C210.062 145.715 210.021 146.36 209.78 147.087ZM210.719 139.334L209.704 142.406L210.862 143.558L210.686 144.092L206.191 139.529L206.327 139.117L212.603 138.291L212.321 139.145L210.719 139.334ZM210.295 139.389L207.057 139.773L209.399 142.102L210.295 139.389ZM213.668 135.324C213.47 135.924 213.19 136.404 212.829 136.763C212.467 137.123 212.043 137.349 211.556 137.442C211.064 137.533 210.528 137.483 209.949 137.291C209.379 137.103 208.929 136.828 208.598 136.465C208.262 136.1 208.059 135.666 207.988 135.164C207.918 134.661 207.981 134.11 208.18 133.511C208.378 132.911 208.654 132.433 209.009 132.077C209.365 131.715 209.786 131.488 210.274 131.396C210.756 131.301 211.281 131.348 211.85 131.536C212.43 131.728 212.89 132.007 213.231 132.373C213.567 132.738 213.773 133.172 213.849 133.676C213.926 134.175 213.866 134.725 213.668 135.324ZM213.302 135.203C213.52 134.543 213.481 133.963 213.183 133.465C212.886 132.966 212.353 132.59 211.586 132.337C210.834 132.088 210.195 132.077 209.669 132.303C209.14 132.523 208.765 132.966 208.545 133.632C208.325 134.297 208.359 134.878 208.646 135.373C208.934 135.868 209.456 136.241 210.213 136.491C210.98 136.745 211.632 136.76 212.168 136.537C212.704 136.314 213.082 135.869 213.302 135.203ZM211.148 126.012L210.402 128.269L210.036 128.148L211.787 122.85L212.153 122.971L211.41 125.22L216.38 126.862L216.118 127.655L211.148 126.012ZM218.312 121.27C218.114 121.87 217.834 122.35 217.473 122.709C217.112 123.069 216.688 123.295 216.201 123.388C215.708 123.479 215.172 123.429 214.593 123.237C214.024 123.049 213.574 122.773 213.243 122.41C212.907 122.046 212.704 121.612 212.633 121.11C212.562 120.607 212.626 120.056 212.824 119.456C213.022 118.857 213.299 118.379 213.653 118.023C214.009 117.661 214.431 117.434 214.918 117.341C215.4 117.247 215.926 117.294 216.495 117.482C217.074 117.674 217.535 117.952 217.876 118.319C218.212 118.684 218.418 119.118 218.493 119.622C218.571 120.121 218.511 120.671 218.312 121.27ZM217.946 121.149C218.165 120.489 218.125 119.909 217.828 119.411C217.53 118.912 216.998 118.536 216.231 118.282C215.478 118.034 214.84 118.023 214.314 118.249C213.785 118.469 213.41 118.912 213.19 119.577C212.97 120.243 213.004 120.824 213.291 121.319C213.578 121.814 214.1 122.187 214.858 122.437C215.625 122.69 216.277 122.706 216.813 122.483C217.349 122.259 217.726 121.815 217.946 121.149ZM211.087 117.242C211 117.095 210.973 116.973 211.005 116.877C211.027 116.811 211.062 116.763 211.111 116.734C211.155 116.704 211.205 116.698 211.261 116.716C211.312 116.733 211.354 116.775 211.388 116.843C211.422 116.91 211.468 117.027 211.526 117.193L211.792 118.025L211.709 118.276L211.087 117.242ZM211.112 119.187L211.289 118.653L212.767 118.093L212.644 118.467L211.559 119.038L212.09 120.144L211.966 120.517L211.112 119.187ZM220.474 114.728C220.174 115.638 219.704 116.258 219.065 116.588C218.426 116.918 217.662 116.936 216.773 116.642C215.904 116.355 215.313 115.892 215 115.253C214.688 114.609 214.682 113.834 214.981 112.93C215.225 112.193 215.578 111.644 216.041 111.284C216.503 110.924 217.026 110.793 217.608 110.889L217.382 111.576C216.916 111.517 216.506 111.616 216.151 111.871C215.791 112.124 215.527 112.504 215.36 113.013C215.141 113.673 215.177 114.249 215.466 114.739C215.756 115.224 216.28 115.591 217.037 115.841C217.81 116.097 218.463 116.115 218.997 115.897C219.526 115.678 219.901 115.235 220.121 114.569C220.289 114.061 220.306 113.602 220.171 113.191C220.036 112.78 219.762 112.458 219.348 112.225L219.575 111.539C220.1 111.809 220.442 112.226 220.599 112.791C220.756 113.356 220.715 114.002 220.474 114.728ZM222.979 107.149C222.717 107.942 222.278 108.476 221.663 108.752C221.044 109.021 220.295 109.01 219.416 108.72C218.537 108.429 217.932 107.993 217.6 107.409C217.265 106.82 217.229 106.128 217.491 105.336C217.751 104.548 218.191 104.02 218.809 103.751C219.425 103.475 220.172 103.482 221.051 103.773C221.93 104.063 222.538 104.501 222.875 105.086C223.206 105.669 223.241 106.357 222.979 107.149ZM222.659 107.044C222.834 106.515 222.758 106.036 222.432 105.607C222.107 105.173 221.559 104.828 220.787 104.573C220.014 104.318 219.368 104.268 218.849 104.423C218.332 104.574 217.986 104.913 217.811 105.441C217.636 105.97 217.711 106.451 218.035 106.885C218.362 107.314 218.911 107.657 219.683 107.912C220.456 108.167 221.101 108.22 221.618 108.069C222.137 107.914 222.484 107.572 222.659 107.044ZM220.465 100.533L220.006 101.92L219.709 101.822C219.823 101.442 219.851 101.093 219.793 100.775C219.729 100.456 219.58 100.19 219.346 99.9769L219.548 99.3671L224.884 101.13L224.627 101.908L220.465 100.533Z" fill="#4A3021"/>
<path d="M28.0586 390.274C28.0586 390.274 36.736 403.654 44.3712 401.985C52.0061 400.316 63.4636 386.114 71.4875 384.359C71.488 384.359 71.4877 384.359 71.4882 384.359C71.5044 384.355 115.681 374.613 118.206 369.572C120.731 364.529 142.399 333.133 147.441 339.15C152.483 345.166 162.237 344.7 162.237 344.7C162.237 344.7 171.143 345.2 173.321 349.073C175.499 352.945 177.194 362.343 175.863 365.707C174.533 369.072 186.617 376.8 188.134 374.953C189.651 373.105 187.583 365.631 196.345 359.428C202.246 355.399 208.541 351.983 215.133 349.231C215.45 349.098 215.658 348.789 215.658 348.446V347.751L218.162 337.326C218.228 337.052 218.425 336.828 218.686 336.72C220.065 336.144 224.343 334.159 223.581 331.964C222.674 329.354 213.268 320.854 210.87 315.075C208.472 309.295 204.633 302.262 205.54 296.364C206.446 290.466 209.218 272.561 209.218 272.561" stroke="#4A3021" stroke-width="0.501754" stroke-miterlimit="10"/>
<path d="M243.165 421.078C237.204 420.099 231.673 417.357 227.285 413.205C220.404 406.426 222.302 404.324 214.624 403.333C206.947 402.341 201.761 403.824 197.77 398.943C193.778 394.062 193.38 389.766 191.092 386.681C188.804 383.597 187.389 377.572 188.126 374.953" stroke="#4A3021" stroke-width="0.501754" stroke-miterlimit="10"/>
<path d="M140.229 437.59C139.271 437.59 138.535 437.339 138.021 436.835C137.507 436.332 137.25 435.612 137.25 434.676C137.25 433.761 137.504 433.054 138.013 432.556C138.527 432.059 139.26 431.81 140.212 431.81C140.989 431.81 141.62 431.973 142.107 432.3C142.594 432.626 142.883 433.081 142.974 433.664H142.252C142.161 433.204 141.939 432.845 141.585 432.589C141.232 432.326 140.788 432.195 140.253 432.195C139.557 432.195 139.022 432.409 138.647 432.837C138.278 433.266 138.093 433.878 138.093 434.676C138.093 435.489 138.28 436.116 138.655 436.554C139.03 436.988 139.568 437.205 140.269 437.205C140.804 437.205 141.245 437.076 141.593 436.819C141.941 436.562 142.161 436.201 142.252 435.736H142.974C142.883 436.319 142.594 436.774 142.107 437.1C141.62 437.427 140.994 437.59 140.229 437.59ZM147.884 436.049H144.649L143.919 437.51H143.357L146.279 431.81H146.712L149.466 437.51H148.567L147.884 436.049ZM147.7 435.663L146.319 432.709L144.842 435.663H147.7ZM156.389 431.89V437.51H155.554V432.789L153.37 437.51H152.977L150.632 432.725V437.51H150.135V431.89H151.09L153.33 436.514L155.473 431.89H156.389ZM159.715 431.89H160.55V434.307H164.155V431.89H164.99V437.51H164.155V434.684H160.55V437.51H159.715V431.89ZM169.057 437.59C168.426 437.59 167.882 437.475 167.428 437.245C166.973 437.015 166.625 436.683 166.384 436.249C166.143 435.81 166.023 435.286 166.023 434.676C166.023 434.076 166.143 433.563 166.384 433.134C166.625 432.701 166.973 432.372 167.428 432.147C167.882 431.922 168.426 431.81 169.057 431.81C169.689 431.81 170.229 431.922 170.679 432.147C171.134 432.372 171.482 432.701 171.723 433.134C171.963 433.563 172.084 434.076 172.084 434.676C172.084 435.286 171.963 435.81 171.723 436.249C171.482 436.683 171.134 437.015 170.679 437.245C170.229 437.475 169.689 437.59 169.057 437.59ZM169.057 437.205C169.753 437.205 170.291 436.985 170.671 436.546C171.051 436.108 171.241 435.484 171.241 434.676C171.241 433.884 171.051 433.274 170.671 432.845C170.296 432.412 169.758 432.195 169.057 432.195C168.356 432.195 167.816 432.409 167.436 432.837C167.056 433.266 166.866 433.878 166.866 434.676C166.866 435.484 167.056 436.108 167.436 436.546C167.816 436.985 168.356 437.205 169.057 437.205ZM176.727 436.049H173.492L172.762 437.51H172.2L175.122 431.81H175.555L178.309 437.51H177.41L176.727 436.049ZM176.543 435.663L175.162 432.709L173.685 435.663H176.543ZM173.91 430.469C173.706 430.33 173.605 430.204 173.605 430.092C173.605 430.033 173.626 429.985 173.669 429.947C173.717 429.905 173.781 429.883 173.861 429.883C174.022 429.883 174.164 429.953 174.287 430.092L175.419 431.328H175.138L173.91 430.469Z" fill="#4A3021"/>
<path d="M332.086 327.525H332.921V329.941H336.526V327.525H337.361V333.145H336.526V330.319H332.921V333.145H332.086V327.525ZM341.428 333.225C340.797 333.225 340.254 333.11 339.799 332.88C339.344 332.649 338.996 332.318 338.755 331.884C338.514 331.445 338.394 330.921 338.394 330.311C338.394 329.711 338.514 329.197 338.755 328.769C338.996 328.336 339.344 328.007 339.799 327.782C340.254 327.557 340.797 327.445 341.428 327.445C342.06 327.445 342.601 327.557 343.05 327.782C343.505 328.007 343.853 328.336 344.094 328.769C344.335 329.197 344.455 329.711 344.455 330.311C344.455 330.921 344.335 331.445 344.094 331.884C343.853 332.318 343.505 332.649 343.05 332.88C342.601 333.11 342.06 333.225 341.428 333.225ZM341.428 332.839C342.124 332.839 342.662 332.62 343.042 332.181C343.422 331.742 343.612 331.119 343.612 330.311C343.612 329.519 343.422 328.908 343.042 328.48C342.667 328.047 342.13 327.83 341.428 327.83C340.727 327.83 340.187 328.044 339.807 328.472C339.427 328.9 339.237 329.513 339.237 330.311C339.237 331.119 339.427 331.742 339.807 332.181C340.187 332.62 340.727 332.839 341.428 332.839ZM340.048 326.104C339.844 325.965 339.743 325.839 339.743 325.727C339.743 325.668 339.764 325.62 339.807 325.582C339.855 325.539 339.919 325.518 339.999 325.518C340.16 325.518 340.302 325.587 340.425 325.727L341.557 326.963H341.276L340.048 326.104ZM345.493 327.525H346.335L349.755 331.884V327.525H350.462V333.145H350.044L346.199 328.255V333.145H345.493V327.525ZM355.634 327.91H353.257V327.525H358.837V327.91H356.469V333.145H355.634V327.91ZM363.789 331.964C363.913 332.275 364.025 332.524 364.127 332.711C364.234 332.893 364.338 333.016 364.44 333.08V333.145H363.565C363.474 333.043 363.388 332.914 363.308 332.759C363.233 332.604 363.15 332.406 363.059 332.165C362.909 331.769 362.756 331.464 362.601 331.25C362.446 331.03 362.256 330.886 362.031 330.816H361.823H360.337V333.145H359.502V327.525H361.823C362.593 327.525 363.187 327.661 363.605 327.934C364.028 328.202 364.239 328.614 364.239 329.171C364.239 330 363.771 330.517 362.834 330.72C363.037 330.822 363.214 330.972 363.364 331.17C363.514 331.362 363.656 331.627 363.789 331.964ZM361.839 330.439C362.888 330.439 363.412 330.016 363.412 329.171C363.412 328.33 362.888 327.91 361.839 327.91H360.337V330.439H361.839ZM365.131 327.525H369.892V327.91H365.966V329.941H369.435V330.319H365.966V332.759H369.892V333.145H365.131V327.525Z" fill="#4A3021"/>
<path d="M65.1607 106.753H67.3443C68.3933 106.753 69.1908 106.984 69.7367 107.444C70.2826 107.904 70.5556 108.578 70.5556 109.467C70.5556 110.393 70.2799 111.11 69.7287 111.618C69.1828 112.122 68.404 112.373 67.3925 112.373H65.1607V106.753ZM67.5049 111.988C68.2167 111.988 68.7626 111.771 69.1426 111.337C69.528 110.904 69.7206 110.28 69.7206 109.467C69.7206 108.702 69.5333 108.124 69.1587 107.733C68.784 107.337 68.2328 107.139 67.5049 107.139H65.9956V111.988H67.5049ZM71.9262 106.753H72.7611V112.373H71.9262V106.753ZM74.2783 106.753H79.039V107.139H75.1132V109.17H78.5814V109.547H75.1132V111.988H79.039V112.373H74.2783V106.753ZM76.4459 104.963H77.0079L78.0034 106.191H77.61L76.7269 105.34L75.8438 106.191H75.4504L76.4459 104.963ZM79.8603 106.753H80.7033L84.1233 111.113V106.753H84.8297V112.373H84.4123L80.5668 107.484V112.373H79.8603V106.753ZM88.1471 106.753H88.9821V111.988H92.5144V112.373H88.1471V106.753ZM97.2569 110.912H94.0216L93.2911 112.373H92.7291L95.6513 106.673H96.0848L98.8385 112.373H97.9393L97.2569 110.912ZM97.0723 110.527L95.6915 107.572L94.2143 110.527H97.0723ZM95.5389 104.963H96.1009L97.0964 106.191H96.703L95.8199 105.34L94.9368 106.191H94.5434L95.5389 104.963ZM105.761 106.753V112.373H104.926V107.653L102.742 112.373H102.349L100.005 107.588V112.373H99.5072V106.753H100.463L102.702 111.378L104.846 106.753H105.761Z" fill="#4A3021"/>
<path d="M-145 232.734C-103.195 247.282 -2.04236 278.325 59.6489 281.037" stroke="#4A3021" stroke-width="3.01053"/>
<path d="M54.9883 304.763C55.2708 289.509 61.3438 259.003 83.3764 259.003C110.917 259.003 213.03 255.613 231.249 288.238" stroke="#4A3021" stroke-width="3.01053"/>
</g>
</g>
<defs>
<clipPath id="clip0_5632_14011">
<rect width="382" height="570" fill="white"/>
</clipPath>
<clipPath id="clip1_5632_14011">
<rect width="667.757" height="572" fill="white" transform="translate(-142.879 -2)"/>
</clipPath>
</defs>
</svg>
