<svg width="786" height="617" viewBox="0 0 786 617" fill="none" xmlns="http://www.w3.org/2000/svg">
<path d="M-0.160156 587.31V-1.32031H784.84V69.5997C784.84 69.5997 753.58 148.15 755.17 157.97C751.46 160.35 741.64 173.36 733.68 169.38C725.72 165.4 724.29 161.04 718.55 159.03C718.55 159.03 708.64 156.45 702.76 160.8C696.88 165.15 682.88 186.22 679.82 185.98C676.76 185.74 678.76 179.63 674.05 178.8C669.34 177.97 658.63 178.15 653.75 180.02C648.87 181.89 647.12 181.9 644.75 180.02C642.38 178.14 634.87 175.14 629.75 178.52C624.63 181.9 624.37 186.28 619.62 187.65C614.87 189.02 609.48 192.41 607.23 195.65C604.98 198.89 591.72 224.43 590.59 229.81C589.46 235.19 582.28 273.24 583.14 277.16C584 281.08 580.69 287.93 575.67 286.22C570.65 284.51 567.23 278.63 566.37 276.3C565.51 273.97 559.15 271.65 552.91 274.3C546.67 276.95 536.14 286.67 533.08 293.52C530.02 300.37 524.27 325.34 525.49 329.74C526.49 332.07 527.08 334.39 524.02 334.27C520.96 334.15 508.11 332.8 507.87 330.27C507.63 327.74 508.53 326.85 510.15 326.27C511.77 325.69 510.81 303.19 507.36 301.14C503.91 299.09 492.19 292.14 477.97 288.57C463.75 285 445.37 276.05 429.24 282.57C413.11 289.09 394.68 302.45 390.94 304.32C387.2 306.19 382.58 305.9 379.41 305.62C376.24 305.34 370.63 304.46 366.88 307.62C363.13 310.78 362.28 312.7 355.08 313.18C347.88 313.66 332.9 311.08 326.13 311.37C319.36 311.66 312.45 310.93 305.82 314.53C299.19 318.13 291.42 325.19 288.54 327.93C285.66 330.67 284.54 332.93 282.78 331.67C281.02 330.41 285.51 324.47 283.21 325.19C280.91 325.91 275.72 329.37 272.12 329.19C268.52 329.01 255.42 331.78 247.93 343.19C240.44 354.6 233.09 366.24 230.36 370.85C227.63 375.46 215.08 395.46 210.96 406.6C206.84 417.74 194.96 441.46 192.51 450.14C190.06 458.82 179.98 493.97 178.24 505.45C176.5 516.93 170.99 536.34 169.58 546.37C168.17 556.4 168.98 566.63 166.17 566.83C163.36 567.03 157.95 568.03 157.55 574.05C157.15 580.07 155.34 595.31 151.33 601.93C147.32 608.55 140.7 618.18 138.89 616.77C137.08 615.36 131.67 605.77 124.05 605.94C116.43 606.11 114.51 603.69 109.13 605.94C103.75 608.19 103.53 612.89 101.4 611.88C99.2699 610.87 98.82 605.61 92.55 603.48C86.28 601.35 81.4499 603.25 75.1799 600.12C68.9099 596.99 68.01 592.83 55.79 590.48C43.57 588.13 43.24 587.01 32.71 586.22C22.18 585.43 -0.160156 587.31 -0.160156 587.31Z" fill="white"/>
<path d="M403.5 -2.5C386.5 36 330 117.5 259.339 161.389L162 225.5C134.5 242.5 65.6 301 -2 333" stroke="#4A3021" stroke-width="3" stroke-miterlimit="10"/>
<path d="M-2 417L39.7479 407.715C39.9385 407.673 40.1125 407.576 40.2485 407.436L94.7193 351.295C94.7927 351.219 94.8776 351.155 94.9709 351.106L137.872 328.504C137.977 328.449 138.09 328.412 138.207 328.397L198.382 320.437C198.467 320.426 198.541 320.424 198.626 320.435C200.187 320.632 217.017 322.75 220.63 322.95C224.42 323.16 241.92 317.1 250.35 309.81C258.78 302.52 260.5 294.5 275.84 288.39C324.036 273.526 345.061 241.701 349.579 227.577C349.593 227.531 349.604 227.486 349.612 227.439L360.6 160.29L391.37 106.55L423.882 53.7272C423.934 53.6431 423.998 53.5672 424.072 53.5018L461.638 20.3225C461.802 20.1784 462.007 20.0914 462.224 20.0749L472.7 19.2778C472.933 19.2601 473.152 19.1614 473.32 18.9988L495.5 -2.5" stroke="#4A3021" stroke-width="3" stroke-miterlimit="10"/>
<path d="M347 -5C342.5 -2.5 318.5 101.001 318.5 101.001L310.542 161.071L308.832 198.971L286.431 271.561L280.5 287.5" stroke="#4A3021" stroke-width="3" stroke-miterlimit="10"/>
<path d="M360.609 171.681C360.609 171.681 408.919 181.681 413.609 180.201C418.299 178.721 437.019 181.691 442.339 182.111C447.659 182.531 492.999 191.051 499.169 188.281C505.339 185.511 522.789 179.981 526.169 171.681C529.549 163.381 532.169 138.911 536.809 139.971C541.449 141.031 551.069 143.591 552.559 150.401C554.049 157.211 555.749 158.911 563.839 158.061C571.929 157.211 596.189 160.621 607.039 162.061C617.889 163.501 624.28 162.761 625.77 167.301C627.26 171.841 627.529 182.231 627.529 182.231" stroke="#4A3021" stroke-width="0.5" stroke-miterlimit="10"/>
<path d="M625.789 167.35C625.789 167.35 630.439 160.5 637.139 162.61C643.839 164.72 647.979 169.06 649.359 164.78C650.739 160.5 666.259 140.84 667.359 138.55C668.459 136.26 670.579 132.3 668.829 130.74C667.079 129.18 651.199 118.74 646.879 116.5C642.559 114.26 635.029 115.77 629.979 106.5C624.929 97.2297 621.979 97.2197 623.369 89.4997C624.759 81.7797 627.129 70.9397 625.369 63.1297C623.609 55.3197 616.089 45.8597 617.279 39.3397C618.469 32.8197 623.529 3.62969 622.149 0.679688" stroke="#4A3021" stroke-width="0.5" stroke-miterlimit="10"/>
<path d="M667.359 138.6C667.359 138.6 684.519 151.89 689.439 149.18C694.359 146.47 721.379 126.05 724.019 119.84C726.659 113.63 732.399 109.44 736.739 106.84C741.079 104.24 742.049 101.05 747.739 98.1704C753.429 95.2904 765.539 87.8804 771.819 81.0704C778.099 74.2604 784.819 66.1504 784.819 66.1504" stroke="#4A3021" stroke-width="0.5" stroke-miterlimit="10"/>
<path d="M48.832 398.6C48.832 398.6 66.392 410 64.832 417.89C63.272 425.78 61.952 437.51 66.762 444.81C71.572 452.11 82.912 468.28 87.532 472.32C92.152 476.36 104.262 489.24 109.072 493.09C113.882 496.94 132.532 518.86 138.502 520.02C144.472 521.18 175.332 521.53 175.332 521.53" stroke="#4A3021" stroke-width="0.5" stroke-miterlimit="10"/>
<path d="M232.961 321.21C232.961 321.21 240.251 327.38 246.081 328.67C251.911 329.96 263.391 329.1 271.571 324.22C279.751 319.34 280.331 325.8 283.921 324.08C287.511 322.36 303.441 314.89 308.921 310.87C314.401 306.85 324.711 300.97 331.751 303.26C338.791 305.55 345.671 306.56 354.431 303.41L388.161 287.62L408.5 279.5L432 269C437.17 265.27 445.861 269 454.471 270.54C463.081 272.08 467.101 279.15 473.851 278.54C480.601 277.93 487.201 275.54 490.501 278.98C493.801 282.42 498.111 281.85 501.121 282.71C504.131 283.57 513.751 288.88 513.751 292.18C513.751 295.48 515.331 298.18 518.631 298.07C521.931 297.96 524.951 297.35 526.811 294.76C528.671 292.17 537.151 286.15 538.871 284.43C540.591 282.71 549.781 271.51 556.531 272.8C563.281 274.09 563.991 273.8 568.011 275.24C572.031 276.68 579.641 276.68 579.491 273.66C579.341 270.64 584.951 250.27 584.231 247.25C583.511 244.23 590.961 230.6 590.961 230.6" stroke="#4A3021" stroke-width="0.5" stroke-miterlimit="10"/>
<path d="M386.5 211.784H382.996V211.1H391.768V211.784H388.264V219.5H386.5V211.784ZM392.73 211.1H394.506V214.652H399.27V211.1H401.046V219.5H399.27V215.336H394.506V219.5H392.73V211.1ZM408.784 217.352H404.32L403.276 219.5H402.052L406.42 210.98H407.5L411.616 219.5H409.792L408.784 217.352ZM408.46 216.668L406.6 212.696L404.656 216.668H408.46ZM404.752 208.964C404.424 208.748 404.26 208.548 404.26 208.364C404.26 208.252 404.304 208.164 404.392 208.1C404.48 208.036 404.596 208.004 404.74 208.004C404.9 208.004 405.044 208.032 405.172 208.088C405.3 208.144 405.42 208.236 405.532 208.364L407.176 210.26H406.6L404.752 208.964ZM412.64 211.1H414.392L418.964 217.052V211.1H420.596V219.5H419.468L414.272 212.66V219.5H412.64V211.1ZM422.331 211.1H424.107V214.652H428.871V211.1H430.647V219.5H428.871V215.336H424.107V219.5H422.331V211.1ZM435.76 211.1H439.168C440.392 211.1 441.336 211.304 442 211.712C442.672 212.112 443.008 212.772 443.008 213.692C443.008 214.604 442.68 215.264 442.024 215.672C441.368 216.08 440.416 216.284 439.168 216.284H437.536V219.5H435.76V211.1ZM439.192 215.588C439.872 215.588 440.384 215.448 440.728 215.168C441.072 214.888 441.244 214.396 441.244 213.692C441.244 213.004 441.072 212.516 440.728 212.228C440.392 211.932 439.88 211.784 439.192 211.784H437.536V215.588H439.192ZM444.14 211.1H445.916V214.652H450.68V211.1H452.456V219.5H450.68V215.336H445.916V219.5H444.14V211.1ZM458.718 219.62C457.734 219.62 456.882 219.448 456.162 219.104C455.45 218.76 454.906 218.264 454.53 217.616C454.154 216.96 453.966 216.176 453.966 215.264C453.966 214.368 454.154 213.6 454.53 212.96C454.914 212.32 455.462 211.832 456.174 211.496C456.886 211.152 457.734 210.98 458.718 210.98C459.694 210.98 460.534 211.152 461.238 211.496C461.95 211.832 462.494 212.32 462.87 212.96C463.254 213.6 463.446 214.368 463.446 215.264C463.446 216.176 463.258 216.96 462.882 217.616C462.506 218.264 461.962 218.76 461.25 219.104C460.538 219.448 459.694 219.62 458.718 219.62ZM458.718 218.936C459.662 218.936 460.386 218.624 460.89 218C461.394 217.368 461.646 216.456 461.646 215.264C461.646 214.096 461.394 213.204 460.89 212.588C460.386 211.972 459.662 211.664 458.718 211.664C457.766 211.664 457.034 211.976 456.522 212.6C456.018 213.216 455.766 214.104 455.766 215.264C455.766 216.456 456.018 217.368 456.522 218C457.026 218.624 457.758 218.936 458.718 218.936ZM460.986 207.344C461.138 207.152 461.322 207.056 461.538 207.056C461.666 207.056 461.766 207.084 461.838 207.14C461.918 207.196 461.958 207.272 461.958 207.368C461.958 207.448 461.906 207.544 461.802 207.656C461.706 207.76 461.542 207.904 461.31 208.088L460.47 208.736H459.93L460.986 207.344ZM458.202 208.328H459.234L460.83 210.26H459.978L458.718 209.072L457.458 210.26H456.606L458.202 208.328ZM383.137 227.1H386.545C387.769 227.1 388.713 227.304 389.377 227.712C390.049 228.112 390.385 228.772 390.385 229.692C390.385 230.604 390.057 231.264 389.401 231.672C388.745 232.08 387.793 232.284 386.545 232.284H384.913V235.5H383.137V227.1ZM386.569 231.588C387.249 231.588 387.761 231.448 388.105 231.168C388.449 230.888 388.621 230.396 388.621 229.692C388.621 229.004 388.449 228.516 388.105 228.228C387.769 227.932 387.257 227.784 386.569 227.784H384.913V231.588H386.569ZM391.517 227.1H393.293V230.652H398.057V227.1H399.833V235.5H398.057V231.336H393.293V235.5H391.517V227.1ZM407.571 233.352H403.107L402.063 235.5H400.839L405.207 226.98H406.287L410.403 235.5H408.579L407.571 233.352ZM407.247 232.668L405.387 228.696L403.443 232.668H407.247ZM411.427 227.1H413.179L417.751 233.052V227.1H419.383V235.5H418.255L413.059 228.66V235.5H411.427V227.1ZM427.229 227.784H423.725V227.1H432.497V227.784H428.993V235.5H427.229V227.784ZM433.458 227.1H435.234V230.652H439.998V227.1H441.774V235.5H439.998V231.336H435.234V235.5H433.458V227.1ZM443.957 227.1H445.733V235.5H443.957V227.1ZM447.919 227.1H455.467V227.784H449.695V230.652H454.795V231.336H449.695V234.816H455.467V235.5H447.919V227.1ZM454.087 223.344C454.239 223.152 454.423 223.056 454.639 223.056C454.767 223.056 454.867 223.084 454.939 223.14C455.019 223.196 455.059 223.272 455.059 223.368C455.059 223.448 455.007 223.544 454.903 223.656C454.807 223.76 454.643 223.904 454.411 224.088L453.571 224.736H453.031L454.087 223.344ZM451.303 224.328H452.335L453.931 226.26H453.079L451.819 225.072L450.559 226.26H449.707L451.303 224.328ZM459.373 227.784H455.869V227.1H464.641V227.784H461.137V235.5H459.373V227.784Z" fill="#4A3021"/>
<path d="M112.649 440.628L110.81 442.12L110.568 441.822L114.886 438.319L115.128 438.617L113.295 440.104L116.581 444.155L115.935 444.679L112.649 440.628ZM120.493 439.106L117.989 441.137L118.341 442.727L117.906 443.079L116.589 436.834L116.924 436.562L122.634 439.244L121.938 439.808L120.493 439.106ZM120.108 438.924L117.184 437.505L117.896 440.718L120.108 438.924ZM115.428 435.581L115.863 435.229L117.405 435.554L117.1 435.801L115.883 435.697L115.733 436.91L115.429 437.157L115.428 435.581ZM119.623 434.475L120.275 433.946L125.659 435.172L122.922 431.799L123.468 431.355L126.997 435.704L126.674 435.966L120.628 434.597L123.698 438.38L123.151 438.824L119.623 434.475ZM127.712 428.406L125.874 429.898L125.632 429.6L129.949 426.096L130.191 426.395L128.358 427.882L131.645 431.932L130.999 432.456L127.712 428.406ZM130.464 425.679L131.11 425.154L132.627 427.024L135.417 424.761L133.899 422.891L134.546 422.367L138.074 426.716L137.428 427.24L135.654 425.053L132.864 427.316L134.639 429.503L133.992 430.027L130.464 425.679ZM141.086 424.375C140.365 424.96 139.714 425.224 139.132 425.167C138.551 425.102 138.015 424.768 137.525 424.163L135.463 421.623L136.109 421.098L138.287 423.782C138.663 424.246 139.06 424.511 139.478 424.577C139.896 424.643 140.351 424.477 140.844 424.077C141.328 423.683 141.583 423.278 141.607 422.859C141.636 422.438 141.459 421.991 141.076 421.519L138.898 418.835L139.544 418.311L141.606 420.852C142.097 421.456 142.314 422.05 142.257 422.631C142.197 423.209 141.806 423.79 141.086 424.375ZM145.803 418.569L143.299 420.601L143.651 422.19L143.216 422.543L141.899 416.297L142.234 416.025L147.944 418.707L147.248 419.272L145.803 418.569ZM145.418 418.387L142.495 416.968L143.206 420.182L145.418 418.387ZM146.324 421.536C146.229 421.613 146.125 421.646 146.013 421.634C145.908 421.623 145.818 421.572 145.744 421.481C145.67 421.39 145.639 421.292 145.65 421.187C145.665 421.078 145.72 420.985 145.815 420.908C145.91 420.831 146.011 420.798 146.116 420.809C146.225 420.816 146.316 420.866 146.39 420.957C146.464 421.048 146.494 421.148 146.479 421.256C146.471 421.365 146.42 421.458 146.324 421.536ZM140.738 415.045L141.173 414.692L142.715 415.017L142.41 415.264L141.193 415.16L141.044 416.373L140.739 416.62L140.738 415.045ZM144.933 413.939L145.585 413.409L150.969 414.635L148.232 411.262L148.778 410.818L152.307 415.167L151.984 415.429L145.938 414.06L149.008 417.844L148.461 418.287L144.933 413.939Z" fill="#4A3021"/>
<path d="M482.824 316.9V322.5H481.992V317.796L479.816 322.5H479.424L477.088 317.732V322.5H476.592V316.9H477.544L479.776 321.508L481.912 316.9H482.824ZM486.646 322.58C485.718 322.58 485.046 322.375 484.63 321.964C484.219 321.548 484.014 320.951 484.014 320.172V316.9H484.846V320.356C484.846 320.953 484.987 321.409 485.27 321.724C485.553 322.039 486.011 322.196 486.646 322.196C487.27 322.196 487.723 322.041 488.006 321.732C488.294 321.423 488.438 320.964 488.438 320.356V316.9H489.27V320.172C489.27 320.951 489.065 321.548 488.654 321.964C488.243 322.375 487.574 322.58 486.646 322.58ZM485.254 316.34C485.254 316.073 485.329 315.857 485.478 315.692C485.633 315.527 485.833 315.444 486.078 315.444C486.227 315.444 486.358 315.473 486.47 315.532C486.587 315.585 486.71 315.663 486.838 315.764C486.929 315.839 487.011 315.897 487.086 315.94C487.161 315.983 487.235 316.004 487.31 316.004C487.449 316.004 487.566 315.953 487.662 315.852C487.763 315.745 487.819 315.609 487.83 315.444H488.038C488.038 315.705 487.961 315.921 487.806 316.092C487.657 316.257 487.462 316.34 487.222 316.34C487.067 316.34 486.937 316.316 486.83 316.268C486.729 316.215 486.617 316.14 486.494 316.044C486.409 315.975 486.334 315.924 486.27 315.892C486.206 315.855 486.131 315.836 486.046 315.836C485.881 315.836 485.745 315.884 485.638 315.98C485.531 316.071 485.475 316.191 485.47 316.34H485.254ZM490.779 316.9H491.611V322.5H490.779V316.9ZM495.248 316.9H496.088L499.496 321.244V316.9H500.2V322.5H499.784L495.952 317.628V322.5H495.248V316.9ZM501.381 316.9H506.125V317.284H502.213V319.308H505.669V319.684H502.213V322.116H506.125V322.5H501.381V316.9ZM504.821 315.108C504.944 314.969 505.085 314.9 505.245 314.9C505.325 314.9 505.386 314.921 505.429 314.964C505.477 315.001 505.501 315.049 505.501 315.108C505.501 315.22 505.4 315.345 505.197 315.484L503.973 316.34H503.693L504.821 315.108Z" fill="#4A3021"/>
<path d="M299.032 385.9H299.952L302.184 390.628L304.584 385.9H305.128L302.24 391.58H301.808L299.032 385.9ZM306.076 385.9H306.908V391.5H306.076V385.9ZM306.492 392.676C306.37 392.676 306.268 392.636 306.188 392.556C306.114 392.481 306.076 392.385 306.076 392.268C306.076 392.151 306.114 392.055 306.188 391.98C306.268 391.905 306.37 391.868 306.492 391.868C306.615 391.868 306.714 391.905 306.788 391.98C306.868 392.055 306.908 392.151 306.908 392.268C306.908 392.385 306.868 392.481 306.788 392.556C306.714 392.636 306.615 392.676 306.492 392.676ZM308.42 385.9H309.26L312.668 390.244V385.9H313.372V391.5H312.956L309.124 386.628V391.5H308.42V385.9ZM314.553 385.9H315.385V388.308H318.977V385.9H319.809V391.5H318.977V388.684H315.385V391.5H314.553V385.9ZM323.115 385.9H325.235C326.003 385.9 326.598 386.041 327.019 386.324C327.441 386.607 327.651 387.039 327.651 387.62C327.651 388.196 327.443 388.625 327.027 388.908C326.611 389.191 326.014 389.332 325.235 389.332H323.947V391.5H323.115V385.9ZM325.251 388.948C326.297 388.948 326.819 388.505 326.819 387.62C326.819 386.729 326.297 386.284 325.251 386.284H323.947V388.948H325.251ZM328.428 385.9H329.26V388.308H332.852V385.9H333.684V391.5H332.852V388.684H329.26V391.5H328.428V385.9ZM338.857 390.044H335.633L334.905 391.5H334.345L337.257 385.82H337.689L340.433 391.5H339.537L338.857 390.044ZM338.673 389.66L337.297 386.716L335.825 389.66H338.673ZM341.1 385.9H341.94L345.348 390.244V385.9H346.052V391.5H345.636L341.804 386.628V391.5H341.1V385.9ZM351.206 386.284H348.838V385.9H354.398V386.284H352.038V391.5H351.206V386.284ZM355.061 385.9H355.893V388.308H359.485V385.9H360.317V391.5H359.485V388.684H355.893V391.5H355.061V385.9ZM361.826 385.9H362.658V391.5H361.826V385.9ZM364.17 385.9H368.914V386.284H365.002V388.308H368.458V388.684H365.002V391.116H368.914V391.5H364.17V385.9ZM368.162 383.484C368.274 383.356 368.381 383.292 368.482 383.292C368.551 383.292 368.607 383.311 368.65 383.348C368.693 383.38 368.714 383.425 368.714 383.484C368.714 383.537 368.687 383.591 368.634 383.644C368.581 383.697 368.485 383.777 368.346 383.884L367.642 384.396H367.378L368.162 383.484ZM366.33 384.116H366.89L367.882 385.34H367.49L366.61 384.492L365.73 385.34H365.338L366.33 384.116ZM371.581 386.284H369.213V385.9H374.773V386.284H372.413V391.5H371.581V386.284Z" fill="#4A3021"/>
<path d="M552.592 523.9H555.2C555.872 523.9 556.405 524.017 556.8 524.252C557.195 524.487 557.392 524.807 557.392 525.212C557.392 525.559 557.251 525.857 556.968 526.108C556.685 526.353 556.315 526.511 555.856 526.58C556.464 526.639 556.928 526.78 557.248 527.004C557.568 527.223 557.728 527.553 557.728 527.996C557.728 528.481 557.528 528.855 557.128 529.116C556.728 529.372 556.149 529.5 555.392 529.5H552.592V523.9ZM554.896 526.404C555.435 526.404 555.848 526.308 556.136 526.116C556.424 525.919 556.568 525.633 556.568 525.26C556.568 524.929 556.432 524.684 556.16 524.524C555.888 524.364 555.475 524.284 554.92 524.284H553.424V526.404H554.896ZM555.472 529.116C555.92 529.116 556.269 529.015 556.52 528.812C556.771 528.609 556.896 528.324 556.896 527.956C556.896 527.567 556.723 527.276 556.376 527.084C556.035 526.887 555.525 526.788 554.848 526.788H553.424V529.116H555.472ZM558.92 523.9H559.752V529.5H558.92V523.9ZM561.264 523.9H566.008V524.284H562.096V526.308H565.552V526.684H562.096V529.116H566.008V529.5H561.264V523.9ZM564.472 522.18C564.461 522.137 564.456 522.103 564.456 522.076C564.456 521.996 564.475 521.932 564.512 521.884C564.555 521.836 564.619 521.783 564.704 521.724C564.784 521.671 564.845 521.617 564.888 521.564C564.931 521.511 564.952 521.447 564.952 521.372C564.952 521.308 564.931 521.255 564.888 521.212C564.845 521.169 564.779 521.148 564.688 521.148C564.592 521.148 564.52 521.172 564.472 521.22C564.429 521.268 564.405 521.324 564.4 521.388H564.088C564.088 521.249 564.147 521.14 564.264 521.06C564.381 520.98 564.531 520.94 564.712 520.94C564.893 520.94 565.037 520.98 565.144 521.06C565.251 521.14 565.304 521.249 565.304 521.388C565.304 521.489 565.28 521.569 565.232 521.628C565.184 521.681 565.112 521.743 565.016 521.812C564.947 521.855 564.893 521.897 564.856 521.94C564.824 521.977 564.808 522.023 564.808 522.076C564.808 522.113 564.816 522.148 564.832 522.18H564.472ZM563.424 522.116H563.984L564.976 523.34H564.584L563.704 522.492L562.824 523.34H562.432L563.424 522.116ZM566.826 523.9H567.666L571.074 528.244V523.9H571.778V529.5H571.362L567.53 524.628V529.5H566.826V523.9ZM577.268 523.9C578.314 523.9 579.108 524.129 579.652 524.588C580.196 525.047 580.468 525.719 580.468 526.604C580.468 527.527 580.194 528.241 579.644 528.748C579.1 529.249 578.324 529.5 577.316 529.5H575.092V526.716H574.476V526.364H575.092V523.9H577.268ZM577.428 529.116C578.138 529.116 578.682 528.9 579.06 528.468C579.444 528.036 579.636 527.415 579.636 526.604C579.636 525.841 579.45 525.265 579.076 524.876C578.703 524.481 578.154 524.284 577.428 524.284H575.924V526.364H577.62V526.716H575.924V529.116H577.428ZM584.378 529.58C583.749 529.58 583.207 529.465 582.754 529.236C582.301 529.007 581.954 528.676 581.714 528.244C581.474 527.807 581.354 527.284 581.354 526.676C581.354 526.079 581.474 525.567 581.714 525.14C581.954 524.708 582.301 524.38 582.754 524.156C583.207 523.932 583.749 523.82 584.378 523.82C585.007 523.82 585.546 523.932 585.994 524.156C586.447 524.38 586.794 524.708 587.034 525.14C587.274 525.567 587.394 526.079 587.394 526.676C587.394 527.284 587.274 527.807 587.034 528.244C586.794 528.676 586.447 529.007 585.994 529.236C585.546 529.465 585.007 529.58 584.378 529.58ZM584.378 529.196C585.071 529.196 585.607 528.977 585.986 528.54C586.365 528.103 586.554 527.481 586.554 526.676C586.554 525.887 586.365 525.279 585.986 524.852C585.613 524.42 585.077 524.204 584.378 524.204C583.679 524.204 583.141 524.417 582.762 524.844C582.383 525.271 582.194 525.881 582.194 526.676C582.194 527.481 582.383 528.103 582.762 528.54C583.141 528.977 583.679 529.196 584.378 529.196ZM584.098 522.116H584.658L585.65 523.34H585.258L584.378 522.492L583.498 523.34H583.106L584.098 522.116ZM588.428 523.9H589.268L592.676 528.244V523.9H593.38V529.5H592.964L589.132 524.628V529.5H588.428V523.9ZM597.513 529.58C596.862 529.58 596.305 529.468 595.841 529.244C595.377 529.015 595.022 528.684 594.777 528.252C594.531 527.82 594.409 527.305 594.409 526.708C594.409 526.111 594.529 525.596 594.769 525.164C595.009 524.732 595.355 524.401 595.809 524.172C596.262 523.937 596.801 523.82 597.425 523.82C598.182 523.82 598.803 523.985 599.289 524.316C599.779 524.641 600.075 525.092 600.177 525.668H599.457C599.361 525.199 599.139 524.839 598.793 524.588C598.446 524.332 597.998 524.204 597.449 524.204C596.761 524.204 596.222 524.425 595.833 524.868C595.443 525.305 595.249 525.916 595.249 526.7C595.249 527.495 595.446 528.111 595.841 528.548C596.241 528.98 596.801 529.196 597.521 529.196C597.857 529.196 598.163 529.161 598.441 529.092C598.718 529.017 598.982 528.903 599.233 528.748V526.932H597.273V526.572H600.065V528.804C599.75 529.055 599.374 529.247 598.937 529.38C598.505 529.513 598.03 529.58 597.513 529.58Z" fill="#4A3021"/>
<path d="M101.999 362.354C102.229 362.612 102.533 362.751 102.911 362.772C103.29 362.796 103.686 362.702 104.098 362.487C104.183 362.443 104.264 362.392 104.342 362.333L104.389 362.579C104.233 362.696 104.078 362.795 103.921 362.877C103.614 363.037 103.294 363.137 102.96 363.179C102.634 363.222 102.325 363.2 102.032 363.112C101.742 363.028 101.498 362.888 101.299 362.691C100.559 362.967 99.8834 362.986 99.2712 362.745C98.6565 362.5 98.1595 362.013 97.7803 361.284C97.5045 360.755 97.3745 360.245 97.3904 359.756C97.4038 359.262 97.5598 358.811 97.8585 358.403C98.1572 357.995 98.5856 357.645 99.1439 357.355C99.7021 357.064 100.232 356.915 100.732 356.907C101.238 356.896 101.697 357.027 102.109 357.299C102.519 357.567 102.862 357.966 103.138 358.496C103.544 359.276 103.647 360.004 103.445 360.68C103.242 361.352 102.759 361.909 101.999 362.354ZM98.5254 360.897C98.8972 361.611 99.3521 362.075 99.8899 362.288C100.428 362.501 101.006 362.446 101.626 362.123C102.241 361.803 102.616 361.362 102.75 360.799C102.884 360.236 102.765 359.598 102.393 358.883C102.028 358.183 101.58 357.731 101.047 357.528C100.516 357.317 99.9409 357.373 99.3212 357.695C98.7014 358.018 98.3222 358.456 98.1833 359.009C98.0444 359.563 98.1584 360.192 98.5254 360.897ZM107.73 359.379C106.907 359.807 106.216 359.935 105.658 359.763C105.101 359.584 104.643 359.149 104.284 358.458L102.773 355.556L103.511 355.172L105.107 358.237C105.383 358.767 105.719 359.106 106.115 359.255C106.511 359.403 106.99 359.331 107.553 359.038C108.107 358.75 108.437 358.403 108.545 357.999C108.658 357.591 108.574 357.118 108.293 356.579L106.697 353.513L107.435 353.129L108.946 356.031C109.306 356.722 109.399 357.346 109.227 357.905C109.052 358.459 108.554 358.95 107.73 359.379ZM113.653 356.295C113.095 356.586 112.562 356.734 112.054 356.74C111.546 356.746 111.086 356.613 110.674 356.34C110.259 356.063 109.911 355.655 109.63 355.116C109.354 354.586 109.224 354.076 109.24 353.587C109.254 353.093 109.41 352.642 109.708 352.234C110.007 351.826 110.436 351.477 110.994 351.186C111.552 350.896 112.082 350.746 112.582 350.738C113.088 350.727 113.547 350.858 113.959 351.131C114.369 351.398 114.712 351.797 114.988 352.327C115.268 352.866 115.403 353.385 115.392 353.884C115.379 354.378 115.224 354.831 114.928 355.244C114.637 355.654 114.212 356.005 113.653 356.295ZM113.476 355.955C114.091 355.635 114.466 355.193 114.6 354.63C114.733 354.068 114.615 353.429 114.243 352.715C113.878 352.015 113.43 351.563 112.897 351.359C112.366 351.148 111.791 351.204 111.171 351.527C110.551 351.849 110.172 352.287 110.033 352.841C109.894 353.394 110.008 354.023 110.375 354.728C110.747 355.442 111.202 355.906 111.74 356.119C112.278 356.332 112.856 356.277 113.476 355.955ZM111.292 348.397C111.332 348.232 111.397 348.126 111.487 348.079C111.548 348.047 111.607 348.038 111.662 348.052C111.714 348.06 111.754 348.091 111.781 348.143C111.806 348.19 111.807 348.25 111.784 348.321C111.762 348.393 111.713 348.509 111.64 348.667L111.252 349.447L111.017 349.568L111.292 348.397ZM109.959 349.804L110.455 349.545L111.9 350.173L111.553 350.354L110.381 350.008L109.992 351.167L109.644 351.348L109.959 349.804ZM119.744 353.125C118.897 353.566 118.131 353.682 117.445 353.474C116.759 353.266 116.201 352.748 115.77 351.92C115.349 351.111 115.249 350.369 115.469 349.695C115.694 349.019 116.228 348.462 117.07 348.023C117.756 347.666 118.389 347.52 118.97 347.584C119.55 347.649 120.015 347.918 120.364 348.392L119.725 348.724C119.433 348.359 119.072 348.144 118.641 348.08C118.209 348.011 117.756 348.099 117.282 348.345C116.667 348.666 116.293 349.101 116.159 349.652C116.029 350.2 116.148 350.827 116.515 351.532C116.889 352.251 117.343 352.718 117.876 352.934C118.407 353.144 118.982 353.089 119.602 352.766C120.075 352.52 120.406 352.203 120.595 351.816C120.785 351.429 120.812 351.008 120.678 350.555L121.317 350.223C121.505 350.78 121.459 351.315 121.179 351.828C120.898 352.34 120.42 352.773 119.744 353.125ZM122.232 345.426L122.97 345.042L125.378 349.669L128.501 348.043L128.678 348.384L124.818 350.393L122.232 345.426ZM131.699 346.902C131.14 347.192 130.607 347.341 130.099 347.346C129.591 347.352 129.131 347.219 128.719 346.947C128.304 346.67 127.956 346.261 127.675 345.722C127.4 345.192 127.27 344.683 127.285 344.193C127.299 343.699 127.455 343.248 127.754 342.84C128.052 342.432 128.481 342.083 129.039 341.792C129.597 341.502 130.127 341.353 130.627 341.344C131.133 341.334 131.592 341.465 132.004 341.737C132.414 342.005 132.757 342.403 133.033 342.933C133.314 343.472 133.449 343.991 133.438 344.49C133.424 344.984 133.269 345.438 132.973 345.85C132.682 346.261 132.257 346.611 131.699 346.902ZM131.521 346.561C132.136 346.241 132.511 345.799 132.645 345.237C132.779 344.674 132.66 344.035 132.288 343.321C131.923 342.621 131.475 342.169 130.942 341.965C130.411 341.755 129.836 341.81 129.216 342.133C128.596 342.456 128.217 342.894 128.078 343.447C127.939 344 128.053 344.629 128.42 345.334C128.792 346.049 129.247 346.512 129.785 346.725C130.323 346.938 130.902 346.884 131.521 346.561ZM132.205 347.874C132.096 347.93 131.987 347.942 131.88 347.908C131.779 347.876 131.701 347.808 131.647 347.704C131.593 347.6 131.582 347.498 131.614 347.397C131.65 347.294 131.723 347.214 131.832 347.157C131.94 347.1 132.045 347.088 132.146 347.12C132.251 347.149 132.331 347.216 132.385 347.32C132.439 347.424 132.448 347.528 132.412 347.631C132.383 347.736 132.313 347.817 132.205 347.874ZM128.004 340.41L128.5 340.152L129.946 340.779L129.598 340.96L128.426 340.615L128.037 341.773L127.689 341.954L128.004 340.41ZM136.988 339.133L135.697 339.806L135.553 339.529C135.898 339.337 136.16 339.108 136.339 338.84C136.516 338.567 136.595 338.274 136.575 337.959L137.143 337.664L139.729 342.631L139.005 343.008L136.988 339.133ZM144.948 338.273L142.089 339.761L142.115 341.389L141.618 341.647L141.579 335.265L141.962 335.065L147.019 338.836L146.224 339.25L144.948 338.273ZM144.608 338.017L142.028 336.041L142.082 339.332L144.608 338.017Z" fill="#4A3021"/>
<path d="M435.165 64.0509C435.455 64.2415 435.784 64.2981 436.154 64.2207C436.527 64.1471 436.886 63.954 437.228 63.6412C437.299 63.5765 437.365 63.5059 437.425 63.4294L437.533 63.6552C437.413 63.8082 437.288 63.9441 437.158 64.0627C436.902 64.2964 436.618 64.4759 436.307 64.6014C436.003 64.7272 435.698 64.7849 435.393 64.7748C435.091 64.7685 434.819 64.6957 434.576 64.5562C433.932 65.0137 433.283 65.2049 432.63 65.1297C431.973 65.0506 431.368 64.7077 430.814 64.101C430.411 63.6598 430.155 63.2007 430.045 62.7237C429.931 62.2429 429.966 61.7669 430.149 61.2959C430.333 60.8248 430.658 60.3772 431.123 59.953C431.587 59.5288 432.061 59.2484 432.543 59.1119C433.029 58.9718 433.506 58.9804 433.974 59.1377C434.439 59.2911 434.873 59.5884 435.276 60.0297C435.869 60.6797 436.155 61.3572 436.134 62.0622C436.109 62.7633 435.787 63.4262 435.165 64.0509ZM431.434 63.5348C431.977 64.1297 432.536 64.461 433.11 64.5288C433.685 64.5966 434.23 64.395 434.746 63.9241C435.259 63.4567 435.507 62.9339 435.492 62.3556C435.477 61.7773 435.198 61.1908 434.655 60.5959C434.123 60.0128 433.573 59.6913 433.006 59.6314C432.439 59.564 431.898 59.7657 431.381 60.2366C430.865 60.7076 430.611 61.2283 430.619 61.7987C430.627 62.3691 430.899 62.9478 431.434 63.5348ZM439.941 59.7037C439.255 60.3293 438.621 60.6306 438.037 60.6076C437.453 60.5772 436.898 60.2743 436.374 59.6992L434.168 57.2822L434.783 56.7214L437.112 59.2742C437.515 59.7155 437.927 59.9571 438.348 59.999C438.768 60.0409 439.213 59.8479 439.682 59.4201C440.143 58.9995 440.374 58.5797 440.374 58.1606C440.378 57.738 440.175 57.3021 439.766 56.853L437.436 54.3002L438.051 53.7393L440.256 56.1563C440.781 56.7315 441.032 57.3111 441.009 57.8952C440.982 58.4754 440.626 59.0782 439.941 59.7037ZM444.873 55.2027C444.409 55.6269 443.931 55.9071 443.442 56.0433C442.952 56.1794 442.474 56.1689 442.005 56.0115C441.533 55.8503 441.092 55.5451 440.682 55.0959C440.28 54.6547 440.023 54.1956 439.913 53.7187C439.799 53.2378 439.834 52.7618 440.018 52.2908C440.202 51.8198 440.526 51.3721 440.991 50.9479C441.456 50.5237 441.929 50.2434 442.411 50.1068C442.897 49.9667 443.374 49.9753 443.842 50.1327C444.307 50.2861 444.741 50.5834 445.144 51.0246C445.554 51.4737 445.817 51.9407 445.935 52.4255C446.049 52.9064 446.016 53.3843 445.835 53.8593C445.659 54.3307 445.338 54.7785 444.873 55.2027ZM444.615 54.919C445.127 54.4517 445.375 53.9289 445.36 53.3506C445.345 52.7723 445.066 52.1857 444.523 51.5908C443.991 51.0078 443.442 50.6863 442.874 50.6263C442.307 50.5589 441.766 50.7606 441.25 51.2316C440.734 51.7025 440.479 52.2232 440.487 52.7936C440.495 53.364 440.767 53.9427 441.303 54.5297C441.846 55.1246 442.404 55.456 442.979 55.5238C443.553 55.5916 444.098 55.39 444.615 54.919ZM440.563 48.1762C440.559 48.0062 440.595 47.887 440.67 47.8187C440.721 47.772 440.775 47.748 440.831 47.7468C440.885 47.7417 440.931 47.7608 440.97 47.8042C441.006 47.8436 441.023 47.9009 441.019 47.9763C441.016 48.0516 440.999 48.1754 440.968 48.3477L440.793 49.2004L440.598 49.3784L440.563 48.1762ZM439.635 49.878L440.049 49.5005L441.607 49.736L441.317 50.0002L440.096 49.967L440.017 51.1865L439.728 51.4508L439.635 49.878ZM449.945 50.5747C449.24 51.2182 448.529 51.5273 447.813 51.5021C447.097 51.4769 446.424 51.1196 445.795 50.4302C445.18 49.7565 444.893 49.0657 444.933 48.3578C444.977 47.6463 445.349 46.9706 446.051 46.3307C446.622 45.8094 447.196 45.5054 447.774 45.4185C448.352 45.3317 448.87 45.4724 449.329 45.8407L448.797 46.3261C448.421 46.0484 448.017 45.9336 447.584 45.9818C447.148 46.026 446.733 46.2279 446.339 46.5874C445.827 47.0547 445.577 47.5718 445.589 48.1386C445.604 48.7018 445.88 49.277 446.416 49.864C446.962 50.4628 447.521 50.7979 448.091 50.8693C448.658 50.9367 449.2 50.735 449.716 50.264C450.11 49.9045 450.348 49.5134 450.432 49.0906C450.515 48.6679 450.434 48.2545 450.189 47.8507L450.72 47.3654C451.045 47.8559 451.138 48.3849 450.999 48.9523C450.86 49.5198 450.508 50.0606 449.945 50.5747ZM450.373 42.495L450.987 41.9341L454.503 45.7871L457.103 43.4144L457.362 43.698L454.147 46.6315L450.373 42.495ZM459.901 41.4897C459.436 41.9139 458.959 42.1941 458.469 42.3303C457.98 42.4665 457.501 42.4559 457.032 42.2986C456.56 42.1373 456.119 41.8321 455.71 41.383C455.307 40.9418 455.05 40.4827 454.94 40.0057C454.826 39.5248 454.861 39.0489 455.045 38.5778C455.229 38.1068 455.553 37.6592 456.018 37.235C456.483 36.8108 456.956 36.5304 457.438 36.3939C457.924 36.2538 458.401 36.2624 458.87 36.4197C459.335 36.5731 459.769 36.8704 460.171 37.3116C460.581 37.7608 460.845 38.2277 460.962 38.7125C461.076 39.1934 461.043 39.6714 460.863 40.1463C460.686 40.6177 460.366 41.0655 459.901 41.4897ZM459.642 41.2061C460.154 40.7387 460.403 40.2159 460.388 39.6376C460.372 39.0593 460.094 38.4727 459.551 37.8779C459.019 37.2948 458.469 36.9733 457.902 36.9134C457.335 36.8459 456.793 37.0477 456.277 37.5186C455.761 37.9896 455.507 38.5102 455.515 39.0807C455.523 39.6511 455.794 40.2298 456.33 40.8168C456.873 41.4117 457.432 41.743 458.006 41.8108C458.581 41.8786 459.126 41.677 459.642 41.2061ZM460.64 42.2993C460.549 42.382 460.447 42.4208 460.334 42.4156C460.229 42.4108 460.136 42.365 460.057 42.2783C459.978 42.1917 459.941 42.0956 459.946 41.9901C459.955 41.881 460.004 41.7852 460.095 41.7025C460.186 41.6198 460.284 41.5809 460.389 41.5857C460.499 41.5869 460.593 41.6309 460.672 41.7175C460.751 41.8042 460.786 41.9021 460.777 42.0112C460.776 42.1206 460.73 42.2166 460.64 42.2993ZM454.663 36.165L455.076 35.7875L456.634 36.023L456.345 36.2872L455.123 36.254L455.045 37.4736L454.755 37.7378L454.663 36.165ZM463.018 32.6236L461.942 33.6051L461.732 33.3746C462.016 33.1007 462.211 32.8113 462.315 32.5066C462.416 32.1978 462.417 31.894 462.318 31.5949L462.79 31.1635L466.565 35.3001L465.962 35.8502L463.018 32.6236ZM470.49 29.7473L468.109 31.9205L468.552 33.4867L468.139 33.8642L466.461 27.7056L466.78 27.4144L472.636 29.7605L471.974 30.3644L470.49 29.7473ZM470.095 29.5876L467.094 28.3405L467.992 31.5074L470.095 29.5876Z" fill="#4A3021"/>
<path d="M322.648 180.269C322.991 180.216 323.273 180.036 323.494 179.73C323.721 179.425 323.857 179.041 323.9 178.579C323.909 178.483 323.91 178.387 323.903 178.29L324.135 178.384C324.149 178.578 324.148 178.763 324.131 178.938C324.099 179.283 324.009 179.607 323.863 179.909C323.723 180.207 323.536 180.454 323.303 180.652C323.075 180.85 322.825 180.979 322.551 181.039C322.382 181.811 322.03 182.388 321.496 182.772C320.956 183.155 320.278 183.308 319.46 183.231C318.865 183.175 318.367 183.008 317.965 182.729C317.557 182.449 317.263 182.073 317.083 181.601C316.902 181.129 316.841 180.579 316.9 179.952C316.959 179.326 317.121 178.8 317.386 178.375C317.652 177.945 318.011 177.63 318.464 177.432C318.911 177.233 319.432 177.162 320.027 177.218C320.903 177.3 321.57 177.61 322.028 178.146C322.482 178.681 322.688 179.389 322.648 180.269ZM319.539 182.395C320.341 182.47 320.977 182.34 321.448 182.004C321.919 181.668 322.187 181.152 322.253 180.457C322.318 179.767 322.15 179.212 321.75 178.794C321.35 178.376 320.75 178.13 319.948 178.054C319.162 177.98 318.539 178.111 318.079 178.448C317.614 178.78 317.348 179.293 317.283 179.989C317.217 180.684 317.379 181.24 317.768 181.657C318.157 182.074 318.748 182.32 319.539 182.395ZM323.262 173.84C323.175 174.764 322.907 175.414 322.459 175.79C322.007 176.16 321.393 176.308 320.617 176.235L317.36 175.928L317.438 175.1L320.879 175.424C321.473 175.48 321.941 175.382 322.28 175.13C322.62 174.878 322.82 174.436 322.879 173.804C322.938 173.183 322.826 172.717 322.545 172.407C322.264 172.091 321.821 171.905 321.216 171.848L317.775 171.523L317.853 170.695L321.11 171.002C321.886 171.075 322.461 171.336 322.837 171.783C323.207 172.231 323.349 172.916 323.262 173.84ZM323.888 167.192C323.829 167.819 323.664 168.347 323.393 168.777C323.122 169.207 322.761 169.521 322.308 169.719C321.85 169.917 321.319 169.988 320.713 169.931C320.119 169.875 319.62 169.707 319.218 169.428C318.81 169.149 318.516 168.773 318.336 168.3C318.155 167.828 318.094 167.279 318.154 166.652C318.213 166.025 318.375 165.5 318.64 165.075C318.905 164.644 319.264 164.33 319.717 164.132C320.164 163.933 320.685 163.861 321.28 163.917C321.885 163.974 322.394 164.143 322.807 164.423C323.215 164.702 323.511 165.078 323.697 165.551C323.884 166.019 323.947 166.566 323.888 167.192ZM323.506 167.156C323.571 166.466 323.403 165.912 323.004 165.494C322.604 165.076 322.003 164.829 321.201 164.754C320.415 164.679 319.792 164.811 319.332 165.148C318.867 165.479 318.601 165.992 318.536 166.688C318.47 167.384 318.632 167.94 319.021 168.357C319.411 168.774 320.001 169.02 320.792 169.094C321.594 169.17 322.23 169.04 322.701 168.704C323.172 168.368 323.44 167.852 323.506 167.156ZM315.973 164.888C315.856 164.764 315.803 164.652 315.812 164.551C315.819 164.482 315.843 164.428 315.884 164.389C315.92 164.35 315.967 164.333 316.025 164.338C316.078 164.343 316.129 164.375 316.177 164.433C316.225 164.491 316.296 164.594 316.389 164.742L316.833 165.491L316.808 165.754L315.973 164.888ZM316.431 166.771L316.483 166.213L317.795 165.341L317.758 165.731L316.831 166.527L317.593 167.483L317.556 167.873L316.431 166.771ZM324.532 160.357C324.443 161.307 324.124 162.014 323.577 162.477C323.03 162.939 322.292 163.127 321.363 163.039C320.455 162.954 319.777 162.635 319.331 162.084C318.885 161.528 318.707 160.778 318.796 159.832C318.869 159.062 319.09 158.451 319.459 157.998C319.828 157.546 320.307 157.302 320.894 157.266L320.827 157.983C320.361 158.03 319.985 158.217 319.697 158.543C319.404 158.869 319.232 159.298 319.182 159.829C319.117 160.519 319.279 161.07 319.669 161.482C320.059 161.888 320.65 162.128 321.441 162.203C322.248 162.279 322.887 162.152 323.358 161.821C323.823 161.49 324.088 160.976 324.154 160.281C324.204 159.75 324.117 159.3 323.895 158.931C323.673 158.562 323.335 158.31 322.881 158.176L322.949 157.459C323.519 157.604 323.944 157.934 324.222 158.447C324.5 158.961 324.604 159.597 324.532 160.357ZM319.418 154.087L319.496 153.259L324.689 153.748L325.019 150.244L325.401 150.28L324.993 154.613L319.418 154.087ZM325.796 146.938C325.737 147.565 325.572 148.093 325.302 148.523C325.031 148.953 324.669 149.267 324.216 149.465C323.759 149.663 323.227 149.734 322.622 149.677C322.027 149.621 321.528 149.453 321.126 149.174C320.719 148.895 320.425 148.519 320.244 148.046C320.064 147.574 320.003 147.025 320.062 146.398C320.121 145.771 320.283 145.246 320.548 144.821C320.814 144.39 321.173 144.076 321.625 143.878C322.072 143.679 322.593 143.607 323.188 143.663C323.794 143.72 324.303 143.889 324.715 144.169C325.123 144.448 325.42 144.824 325.606 145.297C325.792 145.765 325.855 146.312 325.796 146.938ZM325.414 146.902C325.479 146.212 325.312 145.658 324.912 145.24C324.512 144.822 323.911 144.575 323.109 144.499C322.324 144.425 321.7 144.557 321.24 144.894C320.775 145.225 320.51 145.738 320.444 146.434C320.379 147.13 320.54 147.686 320.93 148.103C321.319 148.52 321.909 148.766 322.7 148.84C323.502 148.916 324.139 148.786 324.609 148.45C325.08 148.114 325.349 147.598 325.414 146.902ZM326.888 147.041C326.876 147.163 326.827 147.26 326.74 147.333C326.658 147.4 326.559 147.428 326.442 147.417C326.326 147.406 326.234 147.36 326.166 147.278C326.099 147.192 326.072 147.087 326.083 146.965C326.095 146.843 326.141 146.748 326.222 146.681C326.304 146.608 326.404 146.578 326.52 146.589C326.637 146.6 326.729 146.649 326.796 146.735C326.869 146.817 326.899 146.919 326.888 147.041ZM318.339 146.517L318.392 145.959L319.703 145.087L319.667 145.477L318.74 146.273L319.501 147.229L319.465 147.619L318.339 146.517ZM326.279 140.966C325.89 140.887 325.544 140.667 325.24 140.306C324.937 139.945 324.637 139.4 324.342 138.67C324.158 138.23 323.985 137.882 323.821 137.625C323.658 137.369 323.486 137.178 323.305 137.054C323.118 136.929 322.903 136.856 322.659 136.833C322.234 136.792 321.898 136.889 321.651 137.123C321.399 137.357 321.25 137.712 321.205 138.19C321.158 138.684 321.246 139.086 321.469 139.396C321.687 139.701 322.01 139.878 322.439 139.93L322.372 140.646C321.836 140.532 321.432 140.247 321.158 139.793C320.885 139.339 320.78 138.78 320.842 138.116C320.885 137.664 320.991 137.275 321.161 136.949C321.332 136.616 321.553 136.367 321.826 136.2C322.099 136.033 322.4 135.964 322.729 135.995C323 136.021 323.244 136.111 323.459 136.265C323.67 136.419 323.875 136.661 324.074 136.99C324.274 137.314 324.492 137.761 324.727 138.329C324.889 138.714 325.032 139.017 325.156 139.237C325.28 139.453 325.409 139.618 325.543 139.732C325.672 139.84 325.826 139.919 326.003 139.968L326.356 136.225L326.722 136.259L326.279 140.966ZM323.973 132.012C324.25 131.401 324.527 130.963 324.803 130.7C325.08 130.432 325.389 130.313 325.729 130.345C326.053 130.376 326.326 130.512 326.55 130.752C326.774 130.988 326.934 131.308 327.03 131.714C327.126 132.119 327.149 132.587 327.099 133.118C327.05 133.633 326.944 134.076 326.781 134.446C326.618 134.811 326.41 135.086 326.156 135.271C325.904 135.451 325.618 135.526 325.3 135.496C324.928 135.461 324.62 135.29 324.376 134.983C324.126 134.675 323.969 134.27 323.904 133.765C323.688 134.179 323.47 134.477 323.249 134.66C323.023 134.842 322.782 134.921 322.528 134.897C322.108 134.858 321.795 134.622 321.59 134.19C321.379 133.758 321.306 133.191 321.372 132.49C321.413 132.06 321.502 131.685 321.639 131.366C321.776 131.047 321.951 130.806 322.165 130.644C322.373 130.482 322.605 130.413 322.859 130.437C323.136 130.463 323.373 130.616 323.571 130.897C323.765 131.178 323.898 131.55 323.973 132.012ZM322.463 134.047C322.702 134.07 322.918 133.967 323.111 133.739C323.304 133.505 323.519 133.097 323.757 132.514C323.658 132.14 323.517 131.846 323.334 131.63C323.151 131.41 322.948 131.289 322.725 131.268C322.465 131.243 322.24 131.353 322.051 131.598C321.862 131.843 321.748 132.172 321.709 132.586C321.67 133 321.72 133.343 321.861 133.613C321.997 133.878 322.198 134.022 322.463 134.047ZM326.761 133.03C326.81 132.51 326.741 132.083 326.553 131.749C326.364 131.415 326.087 131.231 325.721 131.196C325.535 131.179 325.367 131.225 325.218 131.334C325.063 131.437 324.913 131.616 324.765 131.87C324.618 132.124 324.457 132.475 324.28 132.925L324.156 133.219C324.217 133.653 324.346 133.994 324.542 134.243C324.733 134.486 324.983 134.622 325.291 134.651C325.684 134.688 326.015 134.559 326.284 134.263C326.553 133.967 326.712 133.556 326.761 133.03Z" fill="#4A3021"/>
<path d="M209.358 209.601C208.568 210.137 207.821 210.342 207.115 210.215C206.41 210.087 205.795 209.638 205.271 208.865C204.759 208.111 204.573 207.386 204.714 206.691C204.859 205.993 205.324 205.378 206.109 204.844C206.749 204.41 207.361 204.191 207.946 204.188C208.53 204.184 209.023 204.398 209.424 204.828L208.829 205.232C208.496 204.904 208.112 204.732 207.677 204.718C207.239 204.7 206.8 204.84 206.358 205.14C205.785 205.529 205.463 206.005 205.394 206.568C205.329 207.128 205.52 207.736 205.966 208.394C206.422 209.064 206.926 209.476 207.481 209.628C208.032 209.776 208.597 209.653 209.175 209.261C209.617 208.961 209.909 208.608 210.052 208.202C210.195 207.795 210.174 207.375 209.988 206.94L210.584 206.535C210.835 207.067 210.851 207.604 210.633 208.146C210.414 208.688 209.989 209.173 209.358 209.601ZM214.807 204.045L212.14 205.856L212.355 207.47L211.892 207.784L211.111 201.449L211.468 201.206L216.929 204.365L216.188 204.868L214.807 204.045ZM214.439 203.831L211.647 202.168L212.083 205.43L214.439 203.831ZM219.572 202.667C219.051 203.021 218.539 203.23 218.035 203.295C217.531 203.36 217.059 203.281 216.617 203.058C216.173 202.831 215.78 202.466 215.439 201.963C215.103 201.469 214.915 200.978 214.874 200.49C214.83 199.998 214.932 199.532 215.182 199.092C215.431 198.652 215.816 198.255 216.337 197.902C216.857 197.548 217.366 197.338 217.862 197.272C218.363 197.203 218.834 197.279 219.275 197.502C219.714 197.72 220.101 198.076 220.436 198.571C220.778 199.074 220.972 199.573 221.019 200.07C221.063 200.562 220.962 201.031 220.716 201.475C220.474 201.916 220.092 202.314 219.572 202.667ZM219.356 202.35C219.93 201.96 220.25 201.478 220.318 200.904C220.386 200.329 220.193 199.709 219.741 199.042C219.298 198.389 218.8 197.993 218.247 197.852C217.695 197.705 217.13 197.827 216.552 198.219C215.974 198.612 215.648 199.091 215.575 199.657C215.501 200.222 215.687 200.834 216.134 201.491C216.586 202.158 217.092 202.565 217.651 202.714C218.21 202.864 218.778 202.742 219.356 202.35ZM223.235 193.779L221.276 195.109L221.06 194.792L225.66 191.669L225.876 191.987L223.923 193.312L226.853 197.628L226.165 198.095L223.235 193.779ZM231.775 194.383C231.255 194.736 230.742 194.945 230.239 195.01C229.735 195.075 229.262 194.996 228.821 194.774C228.377 194.547 227.984 194.182 227.642 193.679C227.307 193.184 227.119 192.693 227.078 192.205C227.033 191.713 227.136 191.247 227.385 190.807C227.635 190.367 228.02 189.971 228.54 189.617C229.061 189.264 229.57 189.054 230.066 188.987C230.567 188.918 231.038 188.995 231.479 189.217C231.917 189.436 232.304 189.792 232.64 190.286C232.981 190.789 233.175 191.289 233.223 191.786C233.267 192.278 233.165 192.746 232.919 193.19C232.677 193.632 232.296 194.029 231.775 194.383ZM231.56 194.065C232.133 193.676 232.454 193.194 232.522 192.619C232.589 192.045 232.397 191.424 231.945 190.758C231.501 190.105 231.003 189.708 230.45 189.568C229.899 189.42 229.334 189.542 228.756 189.935C228.178 190.327 227.852 190.806 227.778 191.372C227.705 191.938 227.891 192.549 228.337 193.207C228.79 193.873 229.295 194.281 229.854 194.43C230.413 194.579 230.982 194.457 231.56 194.065ZM228.512 186.813C228.533 186.644 228.585 186.531 228.669 186.474C228.727 186.435 228.783 186.419 228.84 186.426C228.893 186.429 228.936 186.454 228.969 186.503C228.999 186.547 229.007 186.606 228.993 186.68C228.978 186.754 228.944 186.874 228.889 187.04L228.594 187.859L228.376 188.008L228.512 186.813ZM227.352 188.365L227.815 188.05L229.323 188.506L228.999 188.726L227.794 188.518L227.543 189.714L227.218 189.934L227.352 188.365ZM237.456 190.526C236.666 191.063 235.919 191.267 235.213 191.14C234.508 191.013 233.894 190.563 233.369 189.791C232.857 189.036 232.671 188.311 232.812 187.616C232.957 186.919 233.422 186.303 234.208 185.77C234.847 185.335 235.459 185.117 236.044 185.113C236.628 185.11 237.121 185.323 237.522 185.753L236.927 186.157C236.594 185.829 236.21 185.658 235.775 185.643C235.337 185.625 234.898 185.765 234.456 186.065C233.883 186.454 233.561 186.93 233.492 187.493C233.427 188.053 233.618 188.661 234.064 189.319C234.52 189.99 235.025 190.401 235.579 190.553C236.131 190.701 236.695 190.579 237.273 190.186C237.715 189.887 238.007 189.534 238.15 189.127C238.293 188.721 238.272 188.3 238.086 187.865L238.682 187.461C238.933 187.993 238.95 188.529 238.731 189.071C238.512 189.613 238.087 190.098 237.456 190.526ZM244.037 186.059C243.349 186.526 242.678 186.682 242.024 186.526C241.372 186.363 240.786 185.9 240.268 185.136C239.75 184.373 239.537 183.66 239.629 182.998C239.722 182.329 240.113 181.761 240.802 181.293C241.486 180.829 242.154 180.678 242.806 180.842C243.46 180.997 244.046 181.457 244.564 182.22C245.082 182.984 245.297 183.698 245.208 184.365C245.116 185.027 244.725 185.592 244.037 186.059ZM243.848 185.781C244.307 185.469 244.538 185.045 244.541 184.508C244.548 183.968 244.324 183.363 243.869 182.692C243.414 182.021 242.934 181.59 242.429 181.397C241.929 181.202 241.449 181.26 240.991 181.571C240.532 181.883 240.298 182.309 240.291 182.849C240.288 183.386 240.515 183.989 240.97 184.66C241.425 185.331 241.903 185.764 242.403 185.959C242.908 186.152 243.389 186.092 243.848 185.781ZM246.068 179.304L244.863 180.122L244.688 179.864C245.009 179.633 245.243 179.374 245.39 179.088C245.534 178.797 245.578 178.496 245.522 178.186L246.051 177.826L249.197 182.46L248.521 182.918L246.068 179.304Z" fill="#4A3021"/>
<path d="M435.592 141.9H436.424V144.308H440.016V141.9H440.848V147.5H440.016V144.684H436.424V147.5H435.592V141.9ZM444.902 147.58C444.272 147.58 443.731 147.465 443.278 147.236C442.824 147.007 442.478 146.676 442.238 146.244C441.998 145.807 441.878 145.284 441.878 144.676C441.878 144.079 441.998 143.567 442.238 143.14C442.478 142.708 442.824 142.38 443.278 142.156C443.731 141.932 444.272 141.82 444.902 141.82C445.531 141.82 446.07 141.932 446.518 142.156C446.971 142.38 447.318 142.708 447.558 143.14C447.798 143.567 447.918 144.079 447.918 144.676C447.918 145.284 447.798 145.807 447.558 146.244C447.318 146.676 446.971 147.007 446.518 147.236C446.07 147.465 445.531 147.58 444.902 147.58ZM444.902 147.196C445.595 147.196 446.131 146.977 446.51 146.54C446.888 146.103 447.078 145.481 447.078 144.676C447.078 143.887 446.888 143.279 446.51 142.852C446.136 142.42 445.6 142.204 444.902 142.204C444.203 142.204 443.664 142.417 443.286 142.844C442.907 143.271 442.718 143.881 442.718 144.676C442.718 145.481 442.907 146.103 443.286 146.54C443.664 146.977 444.203 147.196 444.902 147.196ZM445.574 139.884C445.44 139.783 445.344 139.705 445.286 139.652C445.232 139.593 445.206 139.537 445.206 139.484C445.206 139.425 445.227 139.38 445.27 139.348C445.312 139.311 445.368 139.292 445.438 139.292C445.544 139.292 445.648 139.356 445.75 139.484L446.542 140.396H446.27L445.574 139.884ZM444.622 140.116H445.182L446.174 141.34H445.782L444.902 140.492L444.022 141.34H443.63L444.622 140.116ZM448.951 141.9H449.791L453.199 146.244V141.9H453.903V147.5H453.487L449.655 142.628V147.5H448.951V141.9ZM458.036 147.58C457.386 147.58 456.828 147.468 456.364 147.244C455.9 147.015 455.546 146.684 455.3 146.252C455.055 145.82 454.932 145.305 454.932 144.708C454.932 144.111 455.052 143.596 455.292 143.164C455.532 142.732 455.879 142.401 456.332 142.172C456.786 141.937 457.324 141.82 457.948 141.82C458.706 141.82 459.327 141.985 459.812 142.316C460.303 142.641 460.599 143.092 460.7 143.668H459.98C459.884 143.199 459.663 142.839 459.316 142.588C458.97 142.332 458.522 142.204 457.972 142.204C457.284 142.204 456.746 142.425 456.356 142.868C455.967 143.305 455.772 143.916 455.772 144.7C455.772 145.495 455.97 146.111 456.364 146.548C456.764 146.98 457.324 147.196 458.044 147.196C458.38 147.196 458.687 147.161 458.964 147.092C459.242 147.017 459.506 146.903 459.756 146.748V144.932H457.796V144.572H460.588V146.804C460.274 147.055 459.898 147.247 459.46 147.38C459.028 147.513 458.554 147.58 458.036 147.58ZM463.858 141.9H465.978C466.746 141.9 467.34 142.041 467.762 142.324C468.183 142.607 468.394 143.039 468.394 143.62C468.394 144.196 468.186 144.625 467.77 144.908C467.354 145.191 466.756 145.332 465.978 145.332H464.69V147.5H463.858V141.9ZM465.994 144.948C467.039 144.948 467.562 144.505 467.562 143.62C467.562 142.729 467.039 142.284 465.994 142.284H464.69V144.948H465.994ZM469.17 141.9H470.002V144.308H473.594V141.9H474.426V147.5H473.594V144.684H470.002V147.5H469.17V141.9ZM478.48 147.58C477.85 147.58 477.309 147.465 476.856 147.236C476.402 147.007 476.056 146.676 475.816 146.244C475.576 145.807 475.456 145.284 475.456 144.676C475.456 144.079 475.576 143.567 475.816 143.14C476.056 142.708 476.402 142.38 476.856 142.156C477.309 141.932 477.85 141.82 478.48 141.82C479.109 141.82 479.648 141.932 480.096 142.156C480.549 142.38 480.896 142.708 481.136 143.14C481.376 143.567 481.496 144.079 481.496 144.676C481.496 145.284 481.376 145.807 481.136 146.244C480.896 146.676 480.549 147.007 480.096 147.236C479.648 147.465 479.109 147.58 478.48 147.58ZM478.48 147.196C479.173 147.196 479.709 146.977 480.088 146.54C480.466 146.103 480.656 145.481 480.656 144.676C480.656 143.887 480.466 143.279 480.088 142.852C479.714 142.42 479.178 142.204 478.48 142.204C477.781 142.204 477.242 142.417 476.864 142.844C476.485 143.271 476.296 143.881 476.296 144.676C476.296 145.481 476.485 146.103 476.864 146.54C477.242 146.977 477.781 147.196 478.48 147.196ZM482.53 141.9H483.37L486.778 146.244V141.9H487.482V147.5H487.066L483.234 142.628V147.5H482.53V141.9ZM491.614 147.58C490.964 147.58 490.406 147.468 489.942 147.244C489.478 147.015 489.124 146.684 488.878 146.252C488.633 145.82 488.51 145.305 488.51 144.708C488.51 144.111 488.63 143.596 488.87 143.164C489.11 142.732 489.457 142.401 489.91 142.172C490.364 141.937 490.902 141.82 491.526 141.82C492.284 141.82 492.905 141.985 493.39 142.316C493.881 142.641 494.177 143.092 494.278 143.668H493.558C493.462 143.199 493.241 142.839 492.894 142.588C492.548 142.332 492.1 142.204 491.55 142.204C490.862 142.204 490.324 142.425 489.934 142.868C489.545 143.305 489.35 143.916 489.35 144.7C489.35 145.495 489.548 146.111 489.942 146.548C490.342 146.98 490.902 147.196 491.622 147.196C491.958 147.196 492.265 147.161 492.542 147.092C492.82 147.017 493.084 146.903 493.334 146.748V144.932H491.374V144.572H494.166V146.804C493.852 147.055 493.476 147.247 493.038 147.38C492.606 147.513 492.132 147.58 491.614 147.58Z" fill="#4A3021"/>
<g clip-path="url(#clip0_5617_11096)">
<path d="M493.989 188.801C493.989 188.801 499.319 195.851 499.319 200.001C499.319 204.151 501.259 217.091 499.319 220.111C497.379 223.131 494.479 227.821 493.989 233.321C493.499 238.821 491.099 253.471 489.039 257.251C486.979 261.031 491.529 280.251 491.529 280.251" stroke="#4A3021" stroke-width="0.5" stroke-miterlimit="10"/>
</g>
<defs>
<clipPath id="clip0_5617_11096">
<rect width="12.68" height="91.89" fill="white" transform="translate(488 188.5)"/>
</clipPath>
</defs>
</svg>
