<svg width="780" height="678" viewBox="0 0 780 678" fill="none" xmlns="http://www.w3.org/2000/svg">
<path d="M482.08 321.288C492.17 305.29 507.17 288.572 501.52 286.603C495.87 284.633 490.94 289.602 485.03 285.603C479.12 281.603 463.14 273.304 451.58 265.435C440.02 257.566 437.58 251.657 429.44 250.437C421.3 249.218 418.12 252.437 412.22 246.998C406.32 241.559 404.1 240.109 392.79 243.798C381.48 247.488 377.79 245.278 376.79 249.697C375.79 254.117 376.79 272.085 367.44 270.855C358.09 269.625 349.44 263.226 346.78 258.306C344.12 253.387 340.38 245.028 330.78 248.468C321.18 251.907 318.72 253.147 310.11 256.097C301.5 259.046 301.99 250.927 304.21 246.508C306.43 242.088 317.21 224.861 313.8 216.742C310.39 208.623 309.62 203.464 293.39 210.353C277.16 217.242 276.17 219.451 261.16 217.482C246.15 215.512 236.31 208.383 229.67 203.214C223.03 198.044 255.5 210.353 258.21 207.893C260.92 205.433 260.71 194.735 272.96 195.725C285.21 196.714 293.16 191.725 296.47 192.415C299.78 193.105 318 192.745 320.65 199.034C323.3 205.323 325.31 209.033 321.13 207.653C316.95 206.273 313.59 213.012 318.13 215.652C322.67 218.292 331.7 219.331 331.37 218.162C331.04 216.992 343.43 222.011 337.73 222.351C332.03 222.691 316.96 218.662 316.62 223.521C316.28 228.38 317.12 235.049 323.49 238.329C329.86 241.609 341.75 245.968 344.43 248.328C347.11 250.687 355.66 260.556 359.18 262.236C362.7 263.916 367.72 266.085 369.4 261.896C371.08 257.706 369.23 245.818 379.45 242.468C389.67 239.119 398.55 237.099 396.21 233.59C393.87 230.08 388.16 226.051 379.62 226.88C371.08 227.71 366.38 230.23 363.37 230.57C360.36 230.91 346.28 231.41 345.11 229.06C343.94 226.711 343.26 221.351 347.95 222.531C352.64 223.711 378.28 219.012 384.48 219.851C390.68 220.691 395.2 221.851 402.57 227.85C409.94 233.85 423.85 240.079 430.72 243.928C437.59 247.778 447.31 253.817 452.84 256.667C458.37 259.516 470.76 258.846 478.97 264.666C487.18 270.485 498.58 285.773 503.97 283.423C509.36 281.073 516.87 270.695 524.07 275.724C531.27 280.753 551.38 288.792 551.07 295.321C550.76 301.851 551.74 321.788 554.25 326.647C556.76 331.507 559.95 342.395 570.34 340.885C580.73 339.376 581.73 338.546 580.06 332.887C578.39 327.227 581.06 321.158 585.92 328.197C590.78 335.236 595.47 339.586 598.32 345.455C601.17 351.324 603.18 359.523 609.21 360.363C615.24 361.203 619.93 362.203 617.59 354.494C615.25 346.785 613.4 337.226 616.41 339.246C619.42 341.265 623.11 354.164 625.96 355.164C628.81 356.163 624.62 359.353 621.1 364.552C617.58 369.752 620.1 375.941 622.78 379.46C625.46 382.98 622.65 388.509 626.91 388.169C631.17 387.829 639.53 380.3 644.23 385.17C648.93 390.039 648.08 393.878 650.93 397.228C653.78 400.578 658.63 402.227 660.93 399.568C663.23 396.908 667.3 394.568 665.93 403.757C664.56 412.946 663.93 422.025 667.77 418.835C671.61 415.646 678.66 406.777 675.31 401.577C671.96 396.378 663.08 383.66 662.91 377.961C662.74 372.261 654.7 363.382 643.98 353.164C633.26 342.945 614.66 324.688 601.59 316.169C588.52 307.65 560.71 290.362 546.3 280.983C531.89 271.605 490.84 249.158 488.66 246.138C486.48 243.118 442.92 215.982 431.03 207.273C419.14 198.564 352.88 159.479 324.58 136.492C296.28 113.505 252.41 74.9406 235.43 58.3128C218.45 41.685 182.31 1.32031 182.31 1.32031H1V475.258C1 475.258 25.67 476.258 31.34 471.598C37.01 466.939 57.82 455.45 70.91 449.201C84 442.952 90.91 432.033 91.67 429.414C92.43 426.794 111.92 406.867 125.01 404.257C132.36 403.347 118.91 397.118 115.07 390.339C111.23 383.56 100.07 365.842 82.32 353.994C64.57 342.145 48.13 337.136 53.15 322.548C59.53 324.148 60.44 328.927 73.2 336.676C85.96 344.425 126.98 382.25 127.67 396.378C127.79 404.837 151.37 388.629 165.95 384.3C180.53 379.97 202.87 375.871 228.85 395.918C254.83 415.966 263.95 420.305 277.39 418.915C290.83 417.525 302.46 407.977 304.51 406.157C306.56 404.337 344.39 392.489 364.22 396.158C384.05 399.828 413.9 406.647 430.54 413.026C447.18 419.405 463.35 440.142 472.7 442.412C482.05 444.682 499.82 442.872 503.01 440.412C509.39 440.872 551.32 436.963 560.01 435.823C568.7 434.683 614.25 418.505 611.74 412.126C609.23 405.747 606.04 402.127 597.84 403.497C589.64 404.867 596.02 386.639 602.62 382.99C602.4 372.061 602.85 361.993 595.33 354.284C587.81 346.575 585.43 344.665 576.33 345.155C567.23 345.645 553.2 345.565 548.53 339.336C543.86 333.106 544.1 330.647 537.46 327.197C530.82 323.748 540.91 309.98 541.64 305.8C542.37 301.621 547.3 293.262 537.22 288.582C527.14 283.903 523.93 279.234 517.78 282.193C511.63 285.153 500.32 300.631 497.12 304.82C493.92 309.01 484.82 326.217 482.6 329.657C482.6 329.657 473.45 342.455 475.12 348.014C476.79 353.574 479.82 358.073 475.22 358.593C470.62 359.113 465.92 358.593 464.88 353.164C463.84 347.735 465.5 336.756 463.41 333.096C461.32 329.437 458.71 326.167 454.41 326.547C450.11 326.927 446.05 327.137 444.69 328.607C443.33 330.077 442.04 335.606 441.69 338.996C441.34 342.385 437.17 357.863 435.91 359.333C434.65 360.803 432.36 372.331 433.2 374.591C434.04 376.851 421.91 382.22 418.25 384.83C414.59 387.439 408.63 389.429 410.51 393.288C412.39 397.148 418.25 397.058 420.34 397.158C422.43 397.258 423.976 409.648 424.476 410.868L422.5 410.222C422.5 410.222 420.99 398.548 417.15 398.548C413.31 398.548 410.36 397.778 409.15 395.838C407.94 393.898 406.36 391.659 408.45 389.169C410.54 386.679 415.72 384.08 413.45 382.26C411.18 380.44 408.6 377.741 405.31 377.921C402.02 378.101 378.61 384.14 377.31 384.82C376.01 385.5 379.49 380.91 384.31 379.88C389.13 378.85 394.02 378.061 397.75 376.421C401.48 374.781 407.84 375.421 410.75 377.881C413.66 380.34 414.83 381.65 417.67 380.55C420.51 379.45 431.08 375.411 431.26 372.981C431.44 370.552 430.68 362.053 431.78 359.043C432.88 356.033 432.35 339.186 438.54 332.367C444.73 325.547 444.73 324.208 447.54 324.118C450.35 324.028 459.04 322.118 462.35 327.257C465.66 332.397 467.12 333.906 466.82 337.846C466.52 341.785 466.12 350.704 467.76 351.904C469.4 353.104 473.35 356.433 473 352.314C472.65 348.194 471.76 337.676 474.53 336.316C477.3 334.956 482.08 321.288 482.08 321.288Z" fill="white"/>
<path d="M313.111 402.928C313.111 402.928 291.201 401.728 286.611 399.329C282.021 396.929 271.701 392.679 270.391 394.079C269.081 395.479 265.051 400.728 260.391 400.358C255.731 399.988 237.391 401.478 235.151 401.148C232.911 400.818 237.581 402.958 237.581 402.958C237.581 402.958 261.971 403.638 264.321 402.158C266.671 400.678 274.161 398.739 278.141 400.158C282.121 401.578 302.61 407.218 305 406.268C307.39 405.318 313.111 402.928 313.111 402.928Z" fill="#DBDBDB"/>
<path d="M479.785 373.099C480.825 372.992 481.639 373.138 482.227 373.538C482.815 373.939 483.155 374.579 483.246 375.46C483.34 376.378 483.141 377.117 482.646 377.677C482.157 378.232 481.411 378.561 480.408 378.664L478.196 378.893L477.91 376.124L477.297 376.187L477.261 375.837L477.873 375.773L477.62 373.323L479.785 373.099ZM480.48 378.271C481.185 378.198 481.704 377.927 482.037 377.459C482.374 376.99 482.501 376.352 482.418 375.545C482.34 374.787 482.095 374.233 481.683 373.884C481.272 373.53 480.705 373.39 479.983 373.465L478.487 373.619L478.701 375.688L480.388 375.514L480.424 375.864L478.737 376.038L478.984 378.425L480.48 378.271ZM490.565 371.986C490.604 372.357 490.514 372.685 490.297 372.97C490.085 373.255 489.779 373.461 489.38 373.588L489.565 375.378C489.645 376.153 489.502 376.768 489.136 377.224C488.77 377.675 488.125 377.948 487.202 378.043C486.279 378.138 485.589 378.003 485.133 377.638C484.682 377.266 484.416 376.693 484.336 375.918L484 372.664L484.828 372.578L485.183 376.016C485.244 376.61 485.432 377.049 485.745 377.333C486.059 377.617 486.531 377.726 487.162 377.661C487.783 377.597 488.218 377.397 488.468 377.06C488.722 376.723 488.818 376.252 488.756 375.647L488.401 372.209L489.228 372.124L489.35 373.301C489.558 373.183 489.711 373.009 489.811 372.779C489.916 372.549 489.955 372.306 489.929 372.051L490.565 371.986ZM497.087 371.224C497.122 371.563 497.049 371.868 496.868 372.139C496.691 372.404 496.434 372.61 496.095 372.758C496.339 373.14 496.489 373.607 496.546 374.159C496.608 374.763 496.543 375.296 496.349 375.755C496.154 376.21 495.844 376.574 495.416 376.849C494.994 377.123 494.47 377.292 493.844 377.357C493.218 377.422 492.668 377.363 492.193 377.182C491.719 377 491.34 376.707 491.057 376.302C490.773 375.892 490.6 375.384 490.538 374.779C490.476 374.185 490.543 373.663 490.738 373.214C490.932 372.76 491.243 372.398 491.671 372.129C492.099 371.859 492.626 371.692 493.252 371.628C493.836 371.567 494.353 371.613 494.803 371.765C495.258 371.916 495.63 372.168 495.918 372.518C496.114 372.391 496.257 372.215 496.346 371.992C496.441 371.767 496.476 371.533 496.45 371.289L497.087 371.224ZM493.805 376.975C494.494 376.904 495.005 376.631 495.337 376.157C495.668 375.684 495.793 375.046 495.71 374.245C495.629 373.46 495.378 372.874 494.958 372.489C494.542 372.098 493.987 371.938 493.292 372.01C492.597 372.081 492.083 372.349 491.75 372.812C491.417 373.276 491.292 373.902 491.373 374.693C491.456 375.494 491.708 376.093 492.13 376.489C492.551 376.885 493.11 377.047 493.805 376.975ZM491.73 370.442C491.514 370.325 491.401 370.21 491.389 370.099C491.383 370.041 491.4 369.991 491.438 369.949C491.481 369.902 491.543 369.874 491.623 369.866C491.782 369.849 491.929 369.904 492.066 370.029L493.314 371.139L493.036 371.167L491.73 370.442ZM497.289 371.291L498.124 371.205L501.961 375.176L501.514 370.855L502.215 370.782L502.79 376.353L502.376 376.396L498.064 371.943L498.565 376.789L497.864 376.862L497.289 371.291ZM506.909 376.008C506.262 376.075 505.696 376.02 505.212 375.845C504.726 375.665 504.34 375.372 504.051 374.968C503.763 374.563 503.588 374.064 503.527 373.47C503.465 372.876 503.532 372.351 503.726 371.897C503.92 371.443 504.231 371.078 504.659 370.803C505.085 370.523 505.609 370.351 506.23 370.287C506.983 370.209 507.618 370.31 508.135 370.589C508.656 370.862 508.997 371.28 509.157 371.843L508.441 371.917C508.297 371.46 508.04 371.124 507.67 370.911C507.298 370.692 506.84 370.61 506.293 370.667C505.609 370.737 505.096 371.013 504.754 371.493C504.412 371.968 504.281 372.596 504.361 373.376C504.443 374.166 504.703 374.759 505.14 375.153C505.582 375.542 506.162 375.699 506.878 375.625C507.212 375.59 507.513 375.524 507.782 375.427C508.05 375.324 508.301 375.183 508.535 375.003L508.348 373.197L506.398 373.398L506.361 373.04L509.139 372.754L509.368 374.974C509.081 375.255 508.727 375.485 508.305 375.663C507.889 375.84 507.424 375.955 506.909 376.008ZM457.309 385.86L454.954 386.103L454.914 385.721L460.445 385.15L460.484 385.532L458.137 385.774L458.673 390.962L457.845 391.048L457.309 385.86ZM464.545 390.436C463.919 390.501 463.368 390.443 462.894 390.261C462.419 390.079 462.041 389.786 461.758 389.381C461.474 388.971 461.301 388.463 461.238 387.858C461.177 387.264 461.244 386.743 461.439 386.294C461.633 385.839 461.944 385.477 462.372 385.208C462.8 384.939 463.327 384.772 463.953 384.707C464.579 384.642 465.126 384.698 465.595 384.875C466.069 385.051 466.447 385.342 466.73 385.747C467.013 386.147 467.185 386.644 467.246 387.238C467.309 387.843 467.243 388.375 467.049 388.835C466.855 389.289 466.544 389.653 466.117 389.928C465.695 390.202 465.171 390.372 464.545 390.436ZM464.505 390.054C465.195 389.983 465.706 389.711 466.037 389.237C466.369 388.763 466.494 388.125 466.411 387.324C466.33 386.539 466.079 385.954 465.658 385.568C465.243 385.177 464.687 385.017 463.992 385.089C463.297 385.161 462.783 385.428 462.451 385.891C462.118 386.355 461.992 386.982 462.074 387.772C462.157 388.573 462.409 389.172 462.83 389.568C463.252 389.964 463.81 390.126 464.505 390.054ZM465.257 382.224C465.355 382.085 465.454 382.01 465.555 382C465.624 381.993 465.682 382.006 465.728 382.038C465.774 382.066 465.8 382.109 465.806 382.167C465.811 382.22 465.79 382.276 465.743 382.334C465.695 382.393 465.608 382.482 465.481 382.603L464.833 383.184L464.57 383.212L465.257 382.224ZM463.499 383.041L464.056 382.983L465.169 384.099L464.779 384.139L463.816 383.386L463.028 384.32L462.638 384.36L463.499 383.041ZM467.99 384.37L468.825 384.284L472.661 388.255L472.215 383.934L472.915 383.862L473.491 389.432L473.077 389.475L468.765 385.022L469.265 389.868L468.565 389.941L467.99 384.37ZM477.61 389.087C476.963 389.154 476.397 389.1 475.912 388.925C475.427 388.744 475.04 388.452 474.752 388.047C474.464 387.643 474.289 387.143 474.227 386.549C474.166 385.955 474.232 385.431 474.427 384.976C474.621 384.522 474.932 384.157 475.359 383.883C475.786 383.603 476.31 383.431 476.93 383.367C477.684 383.289 478.319 383.389 478.836 383.668C479.357 383.942 479.698 384.359 479.858 384.922L479.142 384.996C478.998 384.539 478.741 384.204 478.37 383.99C477.999 383.771 477.54 383.69 476.994 383.746C476.309 383.817 475.796 384.092 475.455 384.573C475.112 385.048 474.981 385.675 475.062 386.455C475.144 387.245 475.403 387.838 475.841 388.232C476.283 388.621 476.862 388.778 477.578 388.704C477.913 388.67 478.214 388.604 478.483 388.506C478.751 388.403 479.002 388.262 479.235 388.083L479.049 386.276L477.099 386.478L477.062 386.12L479.839 385.833L480.069 388.053C479.781 388.335 479.427 388.564 479.006 388.742C478.59 388.919 478.125 389.034 477.61 389.087ZM482.26 382.897L483.175 382.802L485.881 387.276L487.782 382.326L488.324 382.27L486.035 388.217L485.605 388.261L482.26 382.897ZM492.141 386.042L488.934 386.373L488.359 387.896L487.802 387.954L490.115 382.005L490.545 381.96L493.858 387.328L492.967 387.421L492.141 386.042ZM491.918 385.679L490.247 382.892L489.085 385.972L491.918 385.679ZM490.236 381.542C489.849 381.582 489.531 381.516 489.282 381.343C489.039 381.164 488.891 380.903 488.84 380.56L489.118 380.531C489.169 380.762 489.289 380.937 489.478 381.057C489.673 381.177 489.913 381.221 490.2 381.192C490.486 381.162 490.71 381.069 490.871 380.913C491.037 380.757 491.121 380.56 491.124 380.324L491.402 380.296C491.422 380.642 491.328 380.928 491.121 381.153C490.918 381.372 490.623 381.502 490.236 381.542ZM493.945 381.69L494.781 381.603L498.617 385.574L498.171 381.253L498.871 381.181L499.446 386.751L499.033 386.794L494.72 382.342L495.221 387.188L494.521 387.26L493.945 381.69ZM505.274 386.23C504.472 386.313 503.825 386.221 503.331 385.956C502.837 385.691 502.537 385.271 502.429 384.698L503.145 384.624C503.233 385.108 503.445 385.451 503.782 385.652C504.124 385.847 504.603 385.913 505.218 385.85C505.765 385.793 506.171 385.655 506.438 385.434C506.71 385.213 506.828 384.925 506.791 384.569C506.769 384.357 506.695 384.185 506.569 384.053C506.443 383.922 506.238 383.814 505.956 383.731C505.68 383.647 505.295 383.582 504.802 383.536C504.018 383.467 503.417 383.336 503 383.143C502.588 382.944 502.36 382.63 502.316 382.2C502.266 381.723 502.452 381.342 502.873 381.057C503.294 380.767 503.867 380.584 504.594 380.509C505.332 380.433 505.918 380.507 506.354 380.73C506.795 380.947 507.071 381.286 507.183 381.746L506.475 381.819C506.355 381.44 506.138 381.178 505.823 381.034C505.513 380.889 505.098 380.843 504.578 380.897C504.074 380.949 503.698 381.071 503.449 381.263C503.207 381.454 503.1 381.696 503.13 381.988C503.148 382.163 503.214 382.306 503.327 382.418C503.441 382.529 503.627 382.623 503.887 382.698C504.152 382.772 504.523 382.833 505 382.88C505.585 382.938 506.057 383.018 506.416 383.12C506.78 383.222 507.062 383.375 507.26 383.58C507.457 383.779 507.574 384.049 507.609 384.388C507.66 384.887 507.475 385.3 507.053 385.628C506.636 385.95 506.043 386.15 505.274 386.23ZM514.801 379.536C514.84 379.907 514.75 380.235 514.533 380.52C514.321 380.805 514.016 381.011 513.616 381.138L513.801 382.928C513.881 383.703 513.738 384.318 513.372 384.774C513.006 385.225 512.361 385.498 511.438 385.593C510.515 385.689 509.825 385.553 509.369 385.188C508.918 384.816 508.653 384.243 508.573 383.468L508.236 380.214L509.064 380.128L509.419 383.566C509.48 384.16 509.668 384.599 509.981 384.883C510.295 385.167 510.767 385.276 511.399 385.211C512.019 385.147 512.454 384.947 512.704 384.61C512.958 384.273 513.055 383.802 512.992 383.197L512.637 379.759L513.465 379.674L513.586 380.851C513.794 380.733 513.947 380.559 514.047 380.329C514.152 380.099 514.191 379.856 514.165 379.601L514.801 379.536ZM521.323 378.774C521.358 379.113 521.285 379.418 521.104 379.689C520.928 379.954 520.67 380.16 520.332 380.308C520.575 380.69 520.725 381.157 520.782 381.709C520.844 382.314 520.779 382.846 520.585 383.305C520.391 383.76 520.08 384.124 519.652 384.399C519.23 384.673 518.706 384.843 518.08 384.907C517.454 384.972 516.904 384.913 516.43 384.732C515.955 384.55 515.576 384.257 515.293 383.852C515.009 383.442 514.836 382.934 514.774 382.329C514.712 381.735 514.779 381.213 514.974 380.764C515.168 380.31 515.48 379.948 515.908 379.679C516.335 379.409 516.862 379.242 517.488 379.178C518.072 379.117 518.589 379.163 519.039 379.315C519.494 379.467 519.866 379.718 520.154 380.069C520.35 379.941 520.493 379.766 520.582 379.542C520.677 379.318 520.712 379.083 520.687 378.839L521.323 378.774ZM518.041 384.525C518.73 384.454 519.241 384.181 519.573 383.708C519.905 383.234 520.029 382.596 519.946 381.795C519.865 381.01 519.614 380.425 519.194 380.039C518.778 379.648 518.223 379.488 517.528 379.56C516.833 379.631 516.319 379.899 515.986 380.362C515.653 380.826 515.528 381.452 515.609 382.243C515.692 383.044 515.944 383.643 516.366 384.039C516.788 384.435 517.346 384.597 518.041 384.525ZM521.525 378.841L522.361 378.755L526.197 382.726L525.751 378.405L526.451 378.332L527.026 383.903L526.613 383.946L522.3 379.493L522.801 384.339L522.101 384.412L521.525 378.841ZM531.145 383.558C530.498 383.625 529.932 383.571 529.448 383.395C528.963 383.215 528.576 382.922 528.287 382.518C527.999 382.113 527.824 381.614 527.763 381.02C527.701 380.426 527.768 379.901 527.962 379.447C528.157 378.993 528.467 378.628 528.895 378.354C529.322 378.074 529.845 377.901 530.466 377.837C531.219 377.76 531.854 377.86 532.371 378.139C532.893 378.412 533.233 378.83 533.393 379.393L532.677 379.467C532.533 379.01 532.276 378.674 531.906 378.461C531.535 378.242 531.076 378.16 530.529 378.217C529.845 378.288 529.332 378.563 528.99 379.043C528.648 379.518 528.517 380.146 528.597 380.926C528.679 381.716 528.939 382.309 529.376 382.703C529.819 383.092 530.398 383.249 531.114 383.175C531.448 383.141 531.75 383.075 532.018 382.977C532.287 382.874 532.537 382.733 532.771 382.554L532.584 380.747L530.635 380.949L530.598 380.59L533.375 380.304L533.604 382.524C533.317 382.805 532.963 383.035 532.541 383.213C532.125 383.39 531.66 383.505 531.145 383.558Z" fill="#4A3021"/>
<path d="M441.281 366.103C441.281 366.103 445.431 368.882 449.101 368.882C452.771 368.882 524.221 370.552 536.901 351.555" stroke="#4A3021" stroke-width="0.5" stroke-miterlimit="10"/>
<path d="M82.5781 475.068C82.5781 475.068 103.892 464.759 102.268 445.642C101.508 436.693 109.418 421.365 121.948 419.315C134.478 417.265 148.528 414.206 150.578 413.696C152.628 413.186 148.788 415.696 150.578 427.754C152.368 439.812 158.498 448.751 157.478 453.061C156.458 457.37 146.998 463.769 137.288 467.069C119.784 473.424 101.169 476.145 82.5781 475.068Z" fill="white"/>
<path d="M288.49 432.383C288.49 432.383 304.97 445.171 313.21 450.8C321.45 456.429 324.92 459.039 336.84 457.739C348.76 456.439 347.9 457.739 348.12 452.97C348.34 448.201 344.87 444.521 337.93 446.251C330.99 447.981 326.65 445.171 328.17 443.431C329.69 441.691 346.6 438.662 349.85 437.362C353.1 436.062 360.04 430.643 359.39 429.773C358.74 428.903 347.68 432.383 345.52 431.513C343.36 430.643 344.43 426.093 354.4 426.743C364.37 427.393 387.14 428.913 391.91 432.383C396.68 435.852 408.61 450.59 412.29 454.92C415.97 459.249 426.82 460.559 435.49 465.758C444.16 470.958 460.21 476.307 466.71 475.047C473.21 473.787 477.99 470.528 479.71 467.718C481.43 464.908 484.05 450.45 481.23 450.95C478.41 451.45 462.15 451.45 461.07 448.201C459.99 444.951 451.53 440.831 444.37 436.932C437.21 433.033 432.45 425.224 411.63 424.574C390.81 423.924 391.04 423.274 384.53 421.974C378.02 420.674 363.28 416.335 355.91 416.765C348.54 417.195 346.81 407.016 355.7 410.046C364.59 413.075 387.08 415.905 385.48 413.735C383.88 411.565 382.15 405.496 375.64 404.626C369.13 403.756 357.64 399.857 351.58 402.247C345.52 404.636 349.58 407.886 344.86 408.096C340.14 408.306 333.8 411.785 330.33 408.536C326.86 405.286 315.15 403.976 312.12 409.186C309.09 414.395 308.86 418.504 303.23 421.534C297.6 424.564 285.15 429.803 288.49 432.383Z" fill="white"/>
<path d="M479.91 478.336C479.91 478.336 485.21 490.204 509.59 487.444C533.97 484.685 569.16 477.446 568.95 475.226C568.74 473.006 558.14 472.226 549.24 468.797C540.34 465.367 530.58 464.797 519.77 459.678C508.96 454.559 499.84 449.679 495.77 453.739C491.7 457.798 487.5 464.977 486.44 468.587C485.38 472.196 482.24 476.216 479.91 478.336Z" fill="white"/>
<path d="M370.629 453.259C378.435 454.073 386.304 454.073 394.109 453.259C405.329 451.829 409.009 454.069 406.759 456.108C404.509 458.148 402.879 458.558 405.949 461.008C409.019 463.457 419.619 466.517 416.559 469.007C413.499 471.496 399.209 477.785 392.679 483.705C386.149 489.624 383.899 497.993 376.749 497.183C369.599 496.373 353.069 492.893 346.539 488.604C340.009 484.315 334.089 476.766 337.759 472.686C341.429 468.607 364.509 455.298 370.629 453.259Z" fill="white"/>
<path d="M1.91016 507.343V676.93H294.01C294.01 676.93 282.28 634.166 301.39 626.777C320.5 619.388 310.95 615.919 298.79 609.409C286.63 602.9 282.13 599.411 283.73 593.271C285.33 587.132 286.92 587.572 281.68 585.523C276.44 583.473 279.62 581.423 281.68 578.913C283.74 576.404 288.28 580.053 279.17 567.295C270.06 554.537 263.44 554.757 256.38 548.148C249.32 541.538 242.93 539.949 228.38 532.43C213.83 524.911 192.77 511.462 184.77 502.803C176.77 494.145 176.6 484.116 157.55 485.486C138.5 486.856 133.49 483.486 114.8 490.955C96.1102 498.424 94.5201 500.294 78.5701 500.074C62.6201 499.854 45.9801 497.794 37.5701 500.754C29.1601 503.713 1.91016 507.343 1.91016 507.343Z" fill="white"/>
<path d="M161.699 474.998C161.699 474.998 170.059 473.118 179.099 480.517C188.139 487.916 194.179 484.896 193.899 489.836C193.619 494.775 191.709 495.835 199.109 502.164C206.509 508.493 217.469 512.573 229.529 519.162C241.589 525.751 250.629 528.161 254.469 533.16C258.309 538.159 269.539 538.909 271.179 542.159C272.819 545.408 279.679 545.448 283.789 555.307C287.899 565.166 285.429 570.385 293.109 583.813C300.789 597.241 298.589 596.142 310.109 601.891C321.629 607.64 327.649 606.55 329.289 604.36C330.929 602.171 338.289 593.362 343.819 592.852C345.189 590.382 347.109 588.463 353.679 583.263C360.249 578.064 373.769 561.906 373.089 560.056C372.409 558.207 367.849 556.837 373.089 551.547C378.329 546.258 395.089 522.551 410.999 522.551C426.909 522.551 444.799 524.621 451.929 525.551C459.059 526.481 483.429 521.181 483.429 519.122C483.429 517.062 476.759 511.763 461.349 507.393C445.939 503.024 426.179 501.874 420.659 498.654C415.139 495.435 410.539 492.915 411.659 490.846C412.779 488.776 427.299 496.585 430.519 494.975C433.739 493.365 444.769 487.636 444.519 485.326C444.269 483.017 436.929 485.106 429.809 485.326C422.689 485.546 411.639 481.877 404.519 486.706C397.399 491.535 388.029 503.064 379.069 505.124C370.109 507.183 362.969 509.263 351.249 501.674C339.529 494.085 328.619 489.266 322.569 484.676C316.519 480.087 298.139 479.157 290.319 470.418C282.499 461.679 276.529 452.491 265.259 448.811C253.989 445.132 227.549 439.612 224.769 437.073C221.989 434.533 194.189 425.804 193.039 424.654C191.889 423.504 211.659 426.724 226.139 431.553C240.619 436.383 240.859 438.452 247.759 439.832C254.659 441.212 253.759 438.682 250.979 434.083C248.199 429.484 247.759 426.954 249.139 426.264C250.519 425.574 248.909 427.414 234.419 420.975C219.929 414.536 195.799 403.507 180.159 409.256C164.519 415.006 159.469 421.205 162.919 431.093C166.369 440.982 177.009 462.579 161.699 474.998Z" fill="white"/>
<path d="M312.242 674.482C312.242 674.482 329.002 600.992 355.882 608.671C382.762 616.35 415.112 617.449 433.212 598.252C433.212 615.8 454.052 651.445 439.212 659.674C424.372 667.903 399.782 670.112 399.572 676.932H311.012L312.242 674.482Z" fill="white"/>
<path d="M444.562 674.52C444.562 674.52 458.222 651.154 449.272 631.266C440.322 611.379 447.892 605.42 452.272 592.491C456.652 579.563 459.482 572.564 457.072 566.415C454.662 560.266 475.802 533.499 490.522 538.588C490.522 538.588 468.142 555.176 479.872 569.354C484.642 562.135 489.992 554.906 488.922 551.157C487.852 547.407 497.212 539.658 510.862 535.109C524.512 530.559 579.642 505.113 587.402 489.115C590.612 485.115 601.13 491.805 610.5 489.115C619.87 486.425 667.13 454.809 669 450.259C669 450.259 671.49 439.263 683.5 439.263C689.62 439.263 689.092 424.084 707.832 433.992C726.572 443.901 749.832 450.51 753.602 452.29C757.372 454.07 750.382 455.929 748.242 466.898C746.102 477.866 742.622 499.814 745.832 530.889C749.042 561.965 759.222 619.468 765.102 641.405C770.982 663.342 787.582 677 775.002 677H443.352L444.562 674.52Z" fill="white"/>
<path d="M362.61 593.411C362.61 593.411 379.97 603.66 392.53 600.73C405.09 597.801 404.46 598.731 410.11 598.251C415.76 597.771 427.43 595.611 427.43 589.172C427.43 582.733 436.79 574.244 438.26 571.904C439.73 569.564 452.74 552.907 447.33 549.817C441.92 546.727 443.52 552.747 441.62 552.007C439.72 551.267 435.04 556.106 432.55 557.006C430.06 557.906 425.82 557.056 427.14 554.006C428.46 550.957 432.84 547.687 433.87 546.817C434.9 545.947 442.23 539.648 444.56 539.938C446.89 540.228 449.23 536.569 445.28 534.939C441.33 533.309 437.52 530.839 434.6 533.619C431.68 536.399 429.48 539.908 427.72 538.448C425.96 536.989 425.38 534.939 424.5 533.179C423.62 531.419 417.92 535.079 415.72 538.738C413.52 542.398 414.72 544.588 412.51 545.178C407.709 546.193 403.205 548.293 399.34 551.317C393.92 555.706 381.05 561.995 381.49 565.315C381.93 568.634 381.34 569.554 379.44 571.014C377.54 572.474 377.24 579.653 374.17 581.843C371.1 584.032 359.29 591.651 362.61 593.411Z" fill="white"/>
<path d="M453.941 675.281L459.781 622.718L504.701 564.506L568.951 529.671L600.771 517.592L625.751 499.865L631.701 481.737L649.411 471.148L652.541 478.317V487.866L678.521 544.779L687.591 574.375L682.751 581.634L700.881 639.426L710.951 647.485L718.401 676.931" fill="white"/>
<path d="M453.941 675.281L459.781 622.718L504.701 564.506L568.951 529.671L600.771 517.592L625.751 499.865L631.701 481.737L649.411 471.148L652.541 478.317V487.866L678.521 544.779L687.591 574.375L682.751 581.634L700.881 639.426L710.951 647.485L718.401 676.931" stroke="#4A3021" stroke-width="0.5" stroke-miterlimit="10"/>
<path d="M655.449 676.93L643.199 627.157L558.189 407.656L552.285 362.831C552.179 362.026 551.752 361.299 551.1 360.815L428.051 269.378C427.653 269.083 427.532 268.541 427.765 268.105L444.919 235.969" stroke="#4A3021" stroke-width="3" stroke-miterlimit="10"/>
<path d="M514.5 277.284L432.709 230.48L418.619 217.481L339.519 177.877L327.519 166.958L323.519 158.289C323.519 158.289 243.519 102.697 218.029 83.989C192.539 65.2815 158.789 1 158.789 1" stroke="#4A3021" stroke-width="3" stroke-miterlimit="10"/>
<path d="M598.694 445.542C598.321 444.663 598.265 443.89 598.526 443.223C598.788 442.556 599.348 442.04 600.207 441.675C601.046 441.319 601.794 441.277 602.448 441.549C603.105 441.827 603.619 442.403 603.99 443.276C604.292 443.988 604.388 444.631 604.278 445.205C604.168 445.779 603.864 446.221 603.364 446.532L603.082 445.869C603.469 445.606 603.712 445.263 603.81 444.839C603.913 444.413 603.86 443.954 603.652 443.463C603.381 442.825 602.976 442.417 602.437 442.241C601.901 442.068 601.267 442.138 600.535 442.448C599.789 442.765 599.288 443.181 599.031 443.695C598.779 444.207 598.79 444.785 599.063 445.428C599.271 445.919 599.561 446.274 599.932 446.493C600.303 446.712 600.72 446.773 601.183 446.675L601.464 447.338C600.893 447.482 600.363 447.394 599.874 447.074C599.385 446.754 598.992 446.244 598.694 445.542ZM603.089 451.964L601.829 448.996L600.204 448.895L599.985 448.38L606.352 448.841L606.521 449.239L602.364 453.983L602.014 453.159L603.089 451.964ZM603.37 451.645L605.543 449.228L602.257 449.023L603.37 451.645ZM608.462 448.858C608.503 448.695 608.537 448.577 608.563 448.502C608.596 448.43 608.638 448.384 608.687 448.363C608.741 448.34 608.791 448.342 608.837 448.368C608.888 448.393 608.927 448.437 608.954 448.501C608.996 448.599 608.977 448.72 608.899 448.863L608.369 449.949L608.263 449.698L608.462 448.858ZM607.877 448.072L608.095 448.588L607.356 449.979L607.203 449.618L607.64 448.477L606.515 447.998L606.362 447.637L607.877 448.072ZM603.393 456.612C603.031 455.758 602.957 455.059 603.173 454.516C603.395 453.975 603.865 453.553 604.582 453.249L607.593 451.97L607.919 452.736L604.737 454.086C604.187 454.32 603.823 454.628 603.644 455.011C603.464 455.394 603.499 455.878 603.747 456.462C603.991 457.037 604.31 457.393 604.705 457.533C605.103 457.677 605.581 457.63 606.141 457.393L609.322 456.043L609.647 456.808L606.635 458.087C605.919 458.391 605.289 458.435 604.745 458.22C604.207 458.002 603.756 457.466 603.393 456.612ZM586.141 441.563C585.768 440.684 585.712 439.911 585.973 439.244C586.235 438.577 586.795 438.061 587.654 437.697C588.494 437.34 589.241 437.298 589.895 437.571C590.552 437.849 591.066 438.424 591.437 439.298C591.739 440.01 591.835 440.653 591.725 441.227C591.616 441.8 591.311 442.243 590.811 442.553L590.53 441.89C590.916 441.628 591.159 441.284 591.257 440.86C591.36 440.434 591.307 439.976 591.099 439.485C590.828 438.847 590.423 438.439 589.885 438.262C589.348 438.09 588.714 438.159 587.982 438.47C587.236 438.787 586.735 439.202 586.478 439.717C586.226 440.229 586.237 440.807 586.51 441.45C586.718 441.941 587.008 442.296 587.379 442.515C587.75 442.734 588.167 442.795 588.63 442.697L588.911 443.36C588.341 443.503 587.811 443.415 587.322 443.096C586.832 442.776 586.439 442.265 586.141 441.563ZM595.37 448.767C595.026 448.913 594.686 448.924 594.35 448.8C594.015 448.682 593.729 448.45 593.49 448.105L591.833 448.808C591.116 449.113 590.486 449.157 589.942 448.941C589.404 448.724 588.953 448.188 588.591 447.334C588.228 446.48 588.154 445.781 588.37 445.237C588.592 444.697 589.062 444.275 589.779 443.97L592.791 442.692L593.116 443.458L589.934 444.808C589.385 445.041 589.02 445.35 588.841 445.733C588.662 446.116 588.696 446.6 588.944 447.184C589.188 447.758 589.507 448.115 589.903 448.254C590.3 448.399 590.778 448.352 591.338 448.114L594.519 446.764L594.845 447.53L593.755 447.993C593.929 448.156 594.14 448.252 594.389 448.279C594.641 448.312 594.884 448.278 595.12 448.178L595.37 448.767ZM594.244 444.682C594.295 444.638 594.335 444.609 594.364 444.597C594.467 444.553 594.563 444.547 594.652 444.579C594.748 444.613 594.857 444.672 594.978 444.753C595.1 444.835 595.205 444.892 595.294 444.923C595.383 444.955 595.478 444.949 595.582 444.906C595.675 444.866 595.731 444.801 595.751 444.712C595.778 444.625 595.767 444.523 595.717 444.405C595.667 444.287 595.597 444.204 595.506 444.155C595.423 444.109 595.326 444.099 595.215 444.123L595.058 443.755C595.244 443.687 595.424 443.701 595.597 443.795C595.772 443.895 595.909 444.06 596.007 444.29C596.103 444.516 596.127 444.723 596.08 444.911C596.032 445.1 595.92 445.231 595.743 445.306C595.601 445.367 595.472 445.378 595.357 445.34C595.25 445.304 595.129 445.239 594.997 445.145C594.893 445.079 594.807 445.032 594.737 445.003C594.674 444.978 594.608 444.98 594.539 445.009C594.49 445.03 594.45 445.058 594.419 445.095L594.244 444.682ZM592.865 453.473L591.606 450.505L589.981 450.404L589.762 449.888L596.128 450.349L596.297 450.747L592.141 455.492L591.791 454.667L592.865 453.473ZM593.147 453.153L595.319 450.736L592.034 450.532L593.147 453.153ZM599.24 457.884C599.649 458.846 599.748 459.667 599.538 460.347C599.329 461.027 598.817 461.54 598.002 461.886C597.152 462.246 596.387 462.273 595.706 461.965C595.032 461.66 594.498 461.044 594.104 460.116L593.235 458.069L595.798 456.981L595.557 456.414L595.881 456.277L596.122 456.844L598.39 455.881L599.24 457.884ZM594.501 460.069C594.778 460.722 595.19 461.138 595.735 461.318C596.283 461.503 596.93 461.437 597.676 461.12C598.378 460.822 598.836 460.425 599.048 459.93C599.266 459.432 599.233 458.849 598.949 458.181L598.361 456.797L596.447 457.609L597.11 459.171L596.786 459.308L596.123 457.747L593.913 458.685L594.501 460.069ZM598.516 466.784L597.256 463.816L595.632 463.715L595.413 463.199L601.779 463.661L601.948 464.058L597.792 468.803L597.442 467.978L598.516 466.784ZM598.798 466.464L600.97 464.047L597.685 463.843L598.798 466.464ZM595.521 466.464C595.474 466.351 595.471 466.242 595.513 466.138C595.553 466.04 595.626 465.968 595.734 465.922C595.842 465.876 595.945 465.873 596.043 465.913C596.143 465.957 596.217 466.036 596.265 466.149C596.313 466.262 596.317 466.367 596.278 466.465C596.24 466.568 596.168 466.642 596.06 466.688C595.952 466.734 595.848 466.734 595.748 466.69C595.645 466.652 595.569 466.577 595.521 466.464ZM603.335 467.531L603.661 468.296L598.506 470.484L598.181 469.718L603.335 467.531Z" fill="#4A3021"/>
<path d="M632.332 561.404C632.687 562.387 632.74 563.212 632.493 563.88C632.246 564.547 631.706 565.031 630.873 565.331C630.005 565.644 629.24 565.628 628.577 565.283C627.921 564.941 627.422 564.296 627.08 563.348L626.326 561.255L628.945 560.311L628.736 559.732L629.067 559.613L629.276 560.192L631.594 559.357L632.332 561.404ZM627.479 563.323C627.72 563.99 628.108 564.429 628.642 564.638C629.179 564.853 629.829 564.823 630.591 564.548C631.309 564.29 631.787 563.919 632.027 563.436C632.272 562.95 632.271 562.367 632.025 561.684L631.515 560.27L629.558 560.975L630.133 562.57L629.802 562.69L629.227 561.094L626.969 561.908L627.479 563.323ZM636.008 571.599C635.656 571.726 635.316 571.718 634.987 571.576C634.66 571.439 634.386 571.191 634.167 570.834L632.474 571.444C631.741 571.708 631.109 571.718 630.579 571.472C630.053 571.225 629.633 570.665 629.318 569.792C629.004 568.919 628.969 568.218 629.214 567.687C629.466 567.16 629.959 566.764 630.691 566.5L633.769 565.39L634.051 566.173L630.8 567.345C630.238 567.547 629.857 567.835 629.657 568.208C629.457 568.58 629.464 569.065 629.68 569.662C629.891 570.249 630.19 570.623 630.577 570.784C630.966 570.95 631.446 570.93 632.018 570.724L635.27 569.552L635.552 570.335L634.438 570.736C634.602 570.91 634.808 571.017 635.056 571.058C635.305 571.104 635.55 571.084 635.79 570.997L636.008 571.599ZM638.317 577.746C637.996 577.862 637.682 577.864 637.376 577.753C637.076 577.646 636.814 577.446 636.589 577.153C636.277 577.481 635.859 577.739 635.338 577.927C634.766 578.133 634.233 578.197 633.74 578.12C633.253 578.04 632.824 577.826 632.455 577.478C632.087 577.134 631.796 576.666 631.583 576.074C631.369 575.482 631.294 574.934 631.356 574.43C631.418 573.925 631.611 573.487 631.936 573.115C632.266 572.741 632.717 572.451 633.289 572.245C633.851 572.042 634.374 571.981 634.856 572.063C635.344 572.142 635.77 572.357 636.135 572.707C636.499 573.058 636.788 573.529 637.002 574.121C637.201 574.673 637.281 575.186 637.241 575.659C637.204 576.137 637.05 576.559 636.779 576.923C636.949 577.082 637.154 577.179 637.393 577.212C637.633 577.25 637.869 577.227 638.1 577.144L638.317 577.746ZM631.944 575.944C632.179 576.596 632.567 577.026 633.107 577.234C633.646 577.442 634.295 577.41 635.053 577.137C635.795 576.869 636.303 576.485 636.576 575.984C636.856 575.486 636.877 574.909 636.64 574.251C636.403 573.594 636.02 573.16 635.49 572.948C634.96 572.737 634.322 572.765 633.574 573.035C632.817 573.308 632.296 573.697 632.013 574.201C631.73 574.706 631.707 575.287 631.944 575.944ZM637.786 572.359C637.848 572.121 637.932 571.983 638.037 571.945C638.092 571.925 638.145 571.929 638.194 571.957C638.251 571.987 638.292 572.04 638.32 572.115C638.374 572.266 638.357 572.422 638.268 572.585L637.491 574.064L637.396 573.8L637.786 572.359ZM638.3 577.958L638.585 578.748L635.654 583.427L639.74 581.954L639.979 582.617L634.711 584.515L634.57 584.124L637.854 578.867L633.27 580.519L633.032 579.857L638.3 577.958ZM636.037 588.43C635.817 587.818 635.733 587.256 635.786 586.744C635.845 586.229 636.036 585.784 636.359 585.406C636.682 585.029 637.125 584.739 637.686 584.537C638.248 584.334 638.773 584.272 639.261 584.352C639.749 584.431 640.178 584.645 640.547 584.994C640.922 585.341 641.215 585.808 641.426 586.395C641.683 587.107 641.738 587.748 641.592 588.316C641.452 588.888 641.128 589.32 640.621 589.61L640.377 588.933C640.786 588.683 641.049 588.353 641.168 587.942C641.291 587.529 641.259 587.064 641.073 586.547C640.84 585.9 640.449 585.469 639.9 585.252C639.357 585.034 638.716 585.058 637.979 585.324C637.231 585.594 636.719 585.988 636.441 586.508C636.17 587.03 636.157 587.63 636.401 588.308C636.515 588.624 636.652 588.901 636.811 589.138C636.975 589.374 637.173 589.583 637.403 589.766L639.112 589.151L638.447 587.307L638.786 587.185L639.733 589.811L637.633 590.568C637.29 590.357 636.982 590.068 636.708 589.702C636.436 589.341 636.213 588.917 636.037 588.43ZM642.91 594.378L642.416 593.008L642.709 592.903C642.853 593.27 643.046 593.561 643.287 593.774C643.534 593.986 643.814 594.103 644.128 594.126L644.345 594.728L639.077 596.627L638.8 595.859L642.91 594.378ZM639.913 598.947C640.299 598.853 640.706 598.905 641.134 599.102C641.563 599.299 642.066 599.665 642.644 600.199C642.998 600.52 643.303 600.761 643.56 600.924C643.817 601.086 644.054 601.185 644.271 601.22C644.492 601.254 644.719 601.229 644.95 601.146C645.351 601.001 645.614 600.77 645.738 600.453C645.866 600.135 645.85 599.75 645.687 599.298C645.519 598.832 645.268 598.505 644.934 598.319C644.608 598.137 644.239 598.113 643.829 598.25L643.585 597.573C644.118 597.448 644.606 597.534 645.046 597.828C645.487 598.123 645.82 598.584 646.046 599.211C646.2 599.638 646.27 600.035 646.255 600.403C646.242 600.776 646.148 601.096 645.972 601.364C645.796 601.631 645.553 601.821 645.242 601.933C644.986 602.025 644.728 602.048 644.467 602C644.211 601.95 643.922 601.819 643.602 601.606C643.283 601.398 642.896 601.086 642.44 600.672C642.13 600.393 641.872 600.18 641.666 600.033C641.461 599.891 641.274 599.797 641.105 599.751C640.942 599.707 640.769 599.701 640.588 599.733L641.863 603.27L641.517 603.395L639.913 598.947ZM647.917 604.399C648.197 605.176 648.187 605.863 647.886 606.459C647.59 607.054 647.028 607.5 646.2 607.798C645.623 608.006 645.084 608.084 644.583 608.032C644.088 607.978 643.658 607.801 643.295 607.502C642.932 607.202 642.656 606.791 642.468 606.269C642.343 605.923 642.283 605.582 642.286 605.246C642.292 604.915 642.357 604.617 642.482 604.35C642.614 604.087 642.8 603.879 643.039 603.725L643.28 604.394C642.999 604.621 642.817 604.885 642.733 605.187C642.651 605.494 642.672 605.821 642.797 606.167C642.924 606.519 643.128 606.794 643.409 606.993C643.691 607.192 644.025 607.301 644.412 607.32C644.8 607.345 645.218 607.276 645.664 607.115L645.732 607.091C645.408 607.026 645.11 606.859 644.837 606.589C644.569 606.317 644.362 605.98 644.218 605.579C644.062 605.147 643.998 604.742 644.026 604.364C644.056 603.99 644.171 603.665 644.372 603.389C644.58 603.115 644.862 602.915 645.218 602.786C645.584 602.654 645.942 602.633 646.292 602.722C646.647 602.81 646.964 602.999 647.244 603.289C647.53 603.577 647.754 603.947 647.917 604.399ZM644.598 605.595C644.762 606.052 645.028 606.364 645.395 606.532C645.762 606.7 646.176 606.701 646.637 606.535C647.099 606.369 647.415 606.105 647.585 605.743C647.755 605.381 647.758 604.972 647.593 604.515C647.428 604.059 647.162 603.744 646.793 603.571C646.43 603.396 646.02 603.39 645.563 603.555C645.106 603.719 644.789 603.987 644.611 604.357C644.439 604.731 644.435 605.143 644.598 605.595Z" fill="#4A3021"/>
<path d="M196 238.573H192.496V237.889H201.268V238.573H197.764V246.289H196V238.573ZM202.23 237.889H204.006V241.441H208.77V237.889H210.546V246.289H208.77V242.125H204.006V246.289H202.23V237.889ZM218.284 244.141H213.82L212.776 246.289H211.552L215.92 237.769H217L221.116 246.289H219.292L218.284 244.141ZM217.96 243.457L216.1 239.485L214.156 243.457H217.96ZM214.252 235.753C213.924 235.537 213.76 235.337 213.76 235.153C213.76 235.041 213.804 234.953 213.892 234.889C213.98 234.825 214.096 234.793 214.24 234.793C214.4 234.793 214.544 234.821 214.672 234.877C214.8 234.933 214.92 235.025 215.032 235.153L216.676 237.049H216.1L214.252 235.753ZM222.14 237.889H223.892L228.464 243.841V237.889H230.096V246.289H228.968L223.772 239.449V246.289H222.14V237.889ZM231.831 237.889H233.607V241.441H238.371V237.889H240.147V246.289H238.371V242.125H233.607V246.289H231.831V237.889ZM245.26 237.889H248.668C249.892 237.889 250.836 238.093 251.5 238.501C252.172 238.901 252.508 239.561 252.508 240.481C252.508 241.393 252.18 242.053 251.524 242.461C250.868 242.869 249.916 243.073 248.668 243.073H247.036V246.289H245.26V237.889ZM248.692 242.377C249.372 242.377 249.884 242.237 250.228 241.957C250.572 241.677 250.744 241.185 250.744 240.481C250.744 239.793 250.572 239.305 250.228 239.017C249.892 238.721 249.38 238.573 248.692 238.573H247.036V242.377H248.692ZM253.64 237.889H255.416V241.441H260.18V237.889H261.956V246.289H260.18V242.125H255.416V246.289H253.64V237.889ZM268.218 246.409C267.234 246.409 266.382 246.237 265.662 245.893C264.95 245.549 264.406 245.053 264.03 244.405C263.654 243.749 263.466 242.965 263.466 242.053C263.466 241.157 263.654 240.389 264.03 239.749C264.414 239.109 264.962 238.621 265.674 238.285C266.386 237.941 267.234 237.769 268.218 237.769C269.194 237.769 270.034 237.941 270.738 238.285C271.45 238.621 271.994 239.109 272.37 239.749C272.754 240.389 272.946 241.157 272.946 242.053C272.946 242.965 272.758 243.749 272.382 244.405C272.006 245.053 271.462 245.549 270.75 245.893C270.038 246.237 269.194 246.409 268.218 246.409ZM268.218 245.725C269.162 245.725 269.886 245.413 270.39 244.789C270.894 244.157 271.146 243.245 271.146 242.053C271.146 240.885 270.894 239.993 270.39 239.377C269.886 238.761 269.162 238.453 268.218 238.453C267.266 238.453 266.534 238.765 266.022 239.389C265.518 240.005 265.266 240.893 265.266 242.053C265.266 243.245 265.518 244.157 266.022 244.789C266.526 245.413 267.258 245.725 268.218 245.725ZM270.486 234.133C270.638 233.941 270.822 233.845 271.038 233.845C271.166 233.845 271.266 233.873 271.338 233.929C271.418 233.985 271.458 234.061 271.458 234.157C271.458 234.237 271.406 234.333 271.302 234.445C271.206 234.549 271.042 234.693 270.81 234.877L269.97 235.525H269.43L270.486 234.133ZM267.702 235.117H268.734L270.33 237.049H269.478L268.218 235.861L266.958 237.049H266.106L267.702 235.117ZM209.788 253.889H211.564V257.441H216.328V253.889H218.104V262.289H216.328V258.125H211.564V262.289H209.788V253.889ZM224.367 262.409C223.383 262.409 222.531 262.237 221.811 261.893C221.099 261.549 220.555 261.053 220.179 260.405C219.803 259.749 219.615 258.965 219.615 258.053C219.615 257.157 219.803 256.389 220.179 255.749C220.563 255.109 221.111 254.621 221.823 254.285C222.535 253.941 223.383 253.769 224.367 253.769C225.343 253.769 226.183 253.941 226.887 254.285C227.599 254.621 228.143 255.109 228.519 255.749C228.903 256.389 229.095 257.157 229.095 258.053C229.095 258.965 228.907 259.749 228.531 260.405C228.155 261.053 227.611 261.549 226.899 261.893C226.187 262.237 225.343 262.409 224.367 262.409ZM224.367 261.725C225.311 261.725 226.035 261.413 226.539 260.789C227.043 260.157 227.295 259.245 227.295 258.053C227.295 256.885 227.043 255.993 226.539 255.377C226.035 254.761 225.311 254.453 224.367 254.453C223.415 254.453 222.683 254.765 222.171 255.389C221.667 256.005 221.415 256.893 221.415 258.053C221.415 259.245 221.667 260.157 222.171 260.789C222.675 261.413 223.407 261.725 224.367 261.725ZM224.367 264.257C224.143 264.257 223.959 264.189 223.815 264.053C223.671 263.917 223.599 263.741 223.599 263.525C223.599 263.317 223.671 263.141 223.815 262.997C223.959 262.861 224.143 262.793 224.367 262.793C224.591 262.793 224.775 262.861 224.919 262.997C225.063 263.141 225.135 263.317 225.135 263.525C225.135 263.741 225.063 263.917 224.919 264.053C224.775 264.189 224.591 264.257 224.367 264.257ZM223.851 251.117H224.883L226.479 253.049H225.627L224.367 251.861L223.107 253.049H222.255L223.851 251.117ZM231.068 253.889H232.844V262.289H231.068V253.889ZM244.417 260.141H239.953L238.909 262.289H237.685L242.053 253.769H243.133L247.249 262.289H245.425L244.417 260.141ZM244.093 259.457L242.233 255.485L240.289 259.457H244.093ZM248.272 253.889H250.024L254.596 259.841V253.889H256.228V262.289H255.1L249.904 255.449V262.289H248.272V253.889Z" fill="#4A3021"/>
<path d="M188.408 147.383C187.453 147.383 186.72 147.132 186.208 146.631C185.696 146.129 185.44 145.412 185.44 144.479C185.44 143.567 185.693 142.863 186.2 142.367C186.712 141.871 187.443 141.623 188.392 141.623C189.165 141.623 189.795 141.785 190.28 142.111C190.765 142.436 191.053 142.889 191.144 143.471H190.424C190.333 143.012 190.112 142.655 189.76 142.399C189.408 142.137 188.965 142.007 188.432 142.007C187.739 142.007 187.205 142.22 186.832 142.647C186.464 143.073 186.28 143.684 186.28 144.479C186.28 145.289 186.467 145.913 186.84 146.351C187.213 146.783 187.749 146.999 188.448 146.999C188.981 146.999 189.421 146.871 189.768 146.615C190.115 146.359 190.333 145.999 190.424 145.535H191.144C191.053 146.116 190.765 146.569 190.28 146.895C189.795 147.22 189.171 147.383 188.408 147.383ZM196.037 145.847H192.813L192.085 147.303H191.525L194.437 141.623H194.869L197.613 147.303H196.717L196.037 145.847ZM195.853 145.463L194.477 142.519L193.005 145.463H195.853ZM195.373 139.983C195.362 139.94 195.357 139.905 195.357 139.879C195.357 139.799 195.376 139.735 195.413 139.687C195.456 139.639 195.52 139.585 195.605 139.527C195.685 139.473 195.746 139.42 195.789 139.367C195.832 139.313 195.853 139.249 195.853 139.175C195.853 139.111 195.832 139.057 195.789 139.015C195.746 138.972 195.68 138.951 195.589 138.951C195.493 138.951 195.421 138.975 195.373 139.023C195.33 139.071 195.306 139.127 195.301 139.191H194.989C194.989 139.052 195.048 138.943 195.165 138.863C195.282 138.783 195.432 138.743 195.613 138.743C195.794 138.743 195.938 138.783 196.045 138.863C196.152 138.943 196.205 139.052 196.205 139.191C196.205 139.292 196.181 139.372 196.133 139.431C196.085 139.484 196.013 139.545 195.917 139.615C195.848 139.657 195.794 139.7 195.757 139.743C195.725 139.78 195.709 139.825 195.709 139.879C195.709 139.916 195.717 139.951 195.733 139.983H195.373ZM194.325 139.919H194.885L195.877 141.143H195.485L194.605 140.295L193.725 141.143H193.333L194.325 139.919ZM204.512 141.703V147.303H203.68V142.599L201.504 147.303H201.112L198.776 142.535V147.303H198.28V141.703H199.232L201.464 146.311L203.6 141.703H204.512ZM207.826 141.703H208.658V144.111H212.25V141.703H213.082V147.303H212.25V144.487H208.658V147.303H207.826V141.703ZM218.256 145.847H215.032L214.304 147.303H213.744L216.656 141.623H217.088L219.832 147.303H218.936L218.256 145.847ZM218.072 145.463L216.696 142.519L215.224 145.463H218.072ZM215.448 140.287C215.245 140.148 215.144 140.023 215.144 139.911C215.144 139.852 215.165 139.804 215.208 139.767C215.256 139.724 215.32 139.703 215.4 139.703C215.56 139.703 215.701 139.772 215.824 139.911L216.952 141.143H216.672L215.448 140.287Z" fill="#4A3021"/>
<path d="M263.408 508.334C262.453 508.334 261.72 508.083 261.208 507.582C260.696 507.081 260.44 506.363 260.44 505.43C260.44 504.518 260.693 503.814 261.2 503.318C261.712 502.822 262.443 502.574 263.392 502.574C264.165 502.574 264.795 502.737 265.28 503.062C265.765 503.387 266.053 503.841 266.144 504.422H265.424C265.333 503.963 265.112 503.606 264.76 503.35C264.408 503.089 263.965 502.958 263.432 502.958C262.739 502.958 262.205 503.171 261.832 503.598C261.464 504.025 261.28 504.635 261.28 505.43C261.28 506.241 261.467 506.865 261.84 507.302C262.213 507.734 262.749 507.95 263.448 507.95C263.981 507.95 264.421 507.822 264.768 507.566C265.115 507.31 265.333 506.95 265.424 506.486H266.144C266.053 507.067 265.765 507.521 265.28 507.846C264.795 508.171 264.171 508.334 263.408 508.334ZM271.037 506.798H267.813L267.085 508.254H266.525L269.437 502.574H269.869L272.613 508.254H271.717L271.037 506.798ZM270.853 506.414L269.477 503.47L268.005 506.414H270.853ZM270.373 500.934C270.362 500.891 270.357 500.857 270.357 500.83C270.357 500.75 270.376 500.686 270.413 500.638C270.456 500.59 270.52 500.537 270.605 500.478C270.685 500.425 270.746 500.371 270.789 500.318C270.832 500.265 270.853 500.201 270.853 500.126C270.853 500.062 270.832 500.009 270.789 499.966C270.746 499.923 270.68 499.902 270.589 499.902C270.493 499.902 270.421 499.926 270.373 499.974C270.33 500.022 270.306 500.078 270.301 500.142H269.989C269.989 500.003 270.048 499.894 270.165 499.814C270.282 499.734 270.432 499.694 270.613 499.694C270.794 499.694 270.938 499.734 271.045 499.814C271.152 499.894 271.205 500.003 271.205 500.142C271.205 500.243 271.181 500.323 271.133 500.382C271.085 500.435 271.013 500.497 270.917 500.566C270.848 500.609 270.794 500.651 270.757 500.694C270.725 500.731 270.709 500.777 270.709 500.83C270.709 500.867 270.717 500.902 270.733 500.934H270.373ZM269.325 500.87H269.885L270.877 502.094H270.485L269.605 501.246L268.725 502.094H268.333L269.325 500.87ZM279.512 502.654V508.254H278.68V503.55L276.504 508.254H276.112L273.776 503.486V508.254H273.28V502.654H274.232L276.464 507.262L278.6 502.654H279.512ZM284.65 505.502L283.658 506.494V508.254H282.826V502.654H283.658V505.75L286.786 502.654H287.506L285.21 504.942L287.754 508.254H286.77L284.65 505.502ZM288.795 502.654H289.627V508.254H288.795V502.654ZM297.371 502.654V508.254H296.539V503.55L294.363 508.254H293.971L291.635 503.486V508.254H291.139V502.654H292.091L294.323 507.262L296.459 502.654H297.371Z" fill="#4A3021"/>
<path d="M101.6 590.642H103.776C104.821 590.642 105.616 590.872 106.16 591.33C106.704 591.789 106.976 592.461 106.976 593.346C106.976 594.269 106.701 594.984 106.152 595.49C105.608 595.992 104.832 596.242 103.824 596.242H101.6V590.642ZM103.936 595.858C104.645 595.858 105.189 595.642 105.568 595.21C105.952 594.778 106.144 594.157 106.144 593.346C106.144 592.584 105.957 592.008 105.584 591.618C105.211 591.224 104.661 591.026 103.936 591.026H102.432V595.858H103.936ZM110.646 596.322C109.718 596.322 109.046 596.117 108.63 595.706C108.219 595.29 108.014 594.693 108.014 593.914V590.642H108.846V594.098C108.846 594.696 108.987 595.152 109.27 595.466C109.553 595.781 110.011 595.938 110.646 595.938C111.27 595.938 111.723 595.784 112.006 595.474C112.294 595.165 112.438 594.706 112.438 594.098V590.642H113.27V593.914C113.27 594.693 113.065 595.29 112.654 595.706C112.243 596.117 111.574 596.322 110.646 596.322ZM116.291 593.81L113.891 590.642H114.795L116.835 593.322L119.035 590.642H119.619L117.123 593.69V596.242H116.291V593.81ZM122.365 590.642H124.485C125.253 590.642 125.848 590.784 126.269 591.066C126.691 591.349 126.901 591.781 126.901 592.362C126.901 592.938 126.693 593.368 126.277 593.65C125.861 593.933 125.264 594.074 124.485 594.074H123.197V596.242H122.365V590.642ZM124.501 593.69C125.547 593.69 126.069 593.248 126.069 592.362C126.069 591.472 125.547 591.026 124.501 591.026H123.197V593.69H124.501ZM127.678 590.642H128.51V593.05H132.102V590.642H132.934V596.242H132.102V593.426H128.51V596.242H127.678V590.642ZM140.715 590.642C140.715 591.016 140.593 591.333 140.347 591.594C140.107 591.856 139.782 592.029 139.371 592.114V593.914C139.371 594.693 139.166 595.29 138.755 595.706C138.345 596.117 137.675 596.322 136.747 596.322C135.819 596.322 135.147 596.117 134.731 595.706C134.321 595.29 134.115 594.693 134.115 593.914V590.642H134.947V594.098C134.947 594.696 135.089 595.152 135.371 595.466C135.654 595.781 136.113 595.938 136.747 595.938C137.371 595.938 137.825 595.784 138.107 595.474C138.395 595.165 138.539 594.706 138.539 594.098V590.642H139.371V591.826C139.59 591.73 139.761 591.573 139.883 591.354C140.011 591.136 140.075 590.898 140.075 590.642H140.715ZM147.281 590.554C147.281 590.896 147.177 591.192 146.969 591.442C146.766 591.688 146.489 591.866 146.137 591.978C146.34 592.384 146.441 592.864 146.441 593.418C146.441 594.026 146.321 594.549 146.081 594.986C145.841 595.418 145.494 595.749 145.041 595.978C144.593 596.208 144.054 596.322 143.425 596.322C142.796 596.322 142.254 596.208 141.801 595.978C141.348 595.749 141.001 595.418 140.761 594.986C140.521 594.549 140.401 594.026 140.401 593.418C140.401 592.821 140.521 592.309 140.761 591.882C141.001 591.45 141.348 591.122 141.801 590.898C142.254 590.674 142.796 590.562 143.425 590.562C144.012 590.562 144.521 590.661 144.953 590.858C145.39 591.056 145.734 591.344 145.985 591.722C146.193 591.616 146.353 591.456 146.465 591.242C146.582 591.029 146.641 590.8 146.641 590.554H147.281ZM143.425 595.938C144.118 595.938 144.654 595.72 145.033 595.282C145.412 594.845 145.601 594.224 145.601 593.418C145.601 592.629 145.412 592.021 145.033 591.594C144.66 591.162 144.124 590.946 143.425 590.946C142.726 590.946 142.188 591.16 141.809 591.586C141.43 592.013 141.241 592.624 141.241 593.418C141.241 594.224 141.43 594.845 141.809 595.282C142.188 595.72 142.726 595.938 143.425 595.938ZM144.409 588.85C144.532 588.712 144.673 588.642 144.833 588.642C144.913 588.642 144.974 588.664 145.017 588.706C145.065 588.744 145.089 588.792 145.089 588.85C145.089 588.962 144.988 589.088 144.785 589.226L143.561 590.082H143.281L144.409 588.85ZM150.291 596.322C149.336 596.322 148.603 596.072 148.091 595.57C147.579 595.069 147.323 594.352 147.323 593.418C147.323 592.506 147.576 591.802 148.083 591.306C148.595 590.81 149.325 590.562 150.275 590.562C151.048 590.562 151.677 590.725 152.163 591.05C152.648 591.376 152.936 591.829 153.027 592.41H152.307C152.216 591.952 151.995 591.594 151.643 591.338C151.291 591.077 150.848 590.946 150.315 590.946C149.621 590.946 149.088 591.16 148.715 591.586C148.347 592.013 148.163 592.624 148.163 593.418C148.163 594.229 148.349 594.853 148.723 595.29C149.096 595.722 149.632 595.938 150.331 595.938C150.864 595.938 151.304 595.81 151.651 595.554C151.997 595.298 152.216 594.938 152.307 594.474H153.027C152.936 595.056 152.648 595.509 152.163 595.834C151.677 596.16 151.053 596.322 150.291 596.322Z" fill="#4A3021"/>
<path d="M528.6 620.638H530.776C531.821 620.638 532.616 620.868 533.16 621.326C533.704 621.785 533.976 622.457 533.976 623.342C533.976 624.265 533.701 624.98 533.152 625.486C532.608 625.988 531.832 626.238 530.824 626.238H528.6V620.638ZM530.936 625.854C531.645 625.854 532.189 625.638 532.568 625.206C532.952 624.774 533.144 624.153 533.144 623.342C533.144 622.58 532.957 622.004 532.584 621.614C532.211 621.22 531.661 621.022 530.936 621.022H529.432V625.854H530.936ZM537.646 626.318C536.718 626.318 536.046 626.113 535.63 625.702C535.219 625.286 535.014 624.689 535.014 623.91V620.638H535.846V624.094C535.846 624.692 535.987 625.148 536.27 625.462C536.553 625.777 537.011 625.934 537.646 625.934C538.27 625.934 538.723 625.78 539.006 625.47C539.294 625.161 539.438 624.702 539.438 624.094V620.638H540.27V623.91C540.27 624.689 540.065 625.286 539.654 625.702C539.243 626.113 538.574 626.318 537.646 626.318ZM543.291 623.806L540.891 620.638H541.795L543.835 623.318L546.035 620.638H546.619L544.123 623.686V626.238H543.291V623.806ZM549.365 620.638H550.205L553.613 624.982V620.638H554.317V626.238H553.901L550.069 621.366V626.238H549.365V620.638ZM558.45 626.318C557.8 626.318 557.242 626.206 556.778 625.982C556.314 625.753 555.96 625.422 555.714 624.99C555.469 624.558 555.346 624.044 555.346 623.446C555.346 622.849 555.466 622.334 555.706 621.902C555.946 621.47 556.293 621.14 556.746 620.91C557.2 620.676 557.738 620.558 558.362 620.558C559.12 620.558 559.741 620.724 560.226 621.054C560.717 621.38 561.013 621.83 561.114 622.406H560.394C560.298 621.937 560.077 621.577 559.73 621.326C559.384 621.07 558.936 620.942 558.386 620.942C557.698 620.942 557.16 621.164 556.77 621.606C556.381 622.044 556.186 622.654 556.186 623.438C556.186 624.233 556.384 624.849 556.778 625.286C557.178 625.718 557.738 625.934 558.458 625.934C558.794 625.934 559.101 625.9 559.378 625.83C559.656 625.756 559.92 625.641 560.17 625.486V623.67H558.21V623.31H561.002V625.542C560.688 625.793 560.312 625.985 559.874 626.118C559.442 626.252 558.968 626.318 558.45 626.318ZM562.147 620.638H562.979V623.046H566.571V620.638H567.403V626.238H566.571V623.422H562.979V626.238H562.147V620.638ZM568.912 620.638H569.744V626.238H568.912V620.638ZM567.936 620.078C567.936 619.812 568.011 619.596 568.16 619.43C568.315 619.265 568.515 619.182 568.76 619.182C568.91 619.182 569.04 619.212 569.152 619.27C569.27 619.324 569.392 619.401 569.52 619.502C569.611 619.577 569.694 619.636 569.768 619.678C569.843 619.721 569.918 619.742 569.992 619.742C570.131 619.742 570.248 619.692 570.344 619.59C570.446 619.484 570.502 619.348 570.512 619.182H570.72C570.72 619.444 570.643 619.66 570.488 619.83C570.339 619.996 570.144 620.078 569.904 620.078C569.75 620.078 569.619 620.054 569.512 620.006C569.411 619.953 569.299 619.878 569.176 619.782C569.091 619.713 569.016 619.662 568.952 619.63C568.888 619.593 568.814 619.574 568.728 619.574C568.563 619.574 568.427 619.622 568.32 619.718C568.214 619.809 568.158 619.929 568.152 620.078H567.936ZM575.248 624.782H572.024L571.296 626.238H570.736L573.648 620.558H574.08L576.824 626.238H575.928L575.248 624.782ZM575.064 624.398L573.688 621.454L572.216 624.398H575.064Z" fill="#4A3021"/>
<path d="M689.6 500.654H691.776C692.821 500.654 693.616 500.883 694.16 501.342C694.704 501.801 694.976 502.473 694.976 503.358C694.976 504.281 694.701 504.995 694.152 505.502C693.608 506.003 692.832 506.254 691.824 506.254H689.6V500.654ZM691.936 505.87C692.645 505.87 693.189 505.654 693.568 505.222C693.952 504.79 694.144 504.169 694.144 503.358C694.144 502.595 693.957 502.019 693.584 501.63C693.211 501.235 692.661 501.038 691.936 501.038H690.432V505.87H691.936ZM698.646 506.334C697.718 506.334 697.046 506.129 696.63 505.718C696.219 505.302 696.014 504.705 696.014 503.926V500.654H696.846V504.11C696.846 504.707 696.987 505.163 697.27 505.478C697.553 505.793 698.011 505.95 698.646 505.95C699.27 505.95 699.723 505.795 700.006 505.486C700.294 505.177 700.438 504.718 700.438 504.11V500.654H701.27V503.926C701.27 504.705 701.065 505.302 700.654 505.718C700.243 506.129 699.574 506.334 698.646 506.334ZM704.291 503.822L701.891 500.654H702.795L704.835 503.334L707.035 500.654H707.619L705.123 503.702V506.254H704.291V503.822ZM710.365 500.654H711.197V503.062H714.789V500.654H715.621V506.254H714.789V503.438H711.197V506.254H710.365V500.654ZM720.795 504.798H717.571L716.843 506.254H716.283L719.195 500.574H719.627L722.371 506.254H721.475L720.795 504.798ZM720.611 504.414L719.235 501.47L717.763 504.414H720.611ZM719.131 500.094C719.11 500.03 719.099 499.982 719.099 499.95C719.099 499.838 719.131 499.747 719.195 499.678C719.264 499.603 719.36 499.526 719.483 499.446C719.606 499.366 719.699 499.291 719.763 499.222C719.827 499.153 719.859 499.062 719.859 498.95C719.859 498.849 719.822 498.771 719.747 498.718C719.678 498.659 719.579 498.63 719.451 498.63C719.323 498.63 719.219 498.662 719.139 498.726C719.064 498.785 719.016 498.87 718.995 498.982H718.595C718.606 498.785 718.688 498.625 718.843 498.502C719.003 498.379 719.208 498.318 719.459 498.318C719.704 498.318 719.904 498.377 720.059 498.494C720.214 498.611 720.291 498.766 720.291 498.958C720.291 499.113 720.251 499.235 720.171 499.326C720.096 499.411 719.99 499.497 719.851 499.582C719.75 499.651 719.672 499.713 719.619 499.766C719.571 499.814 719.547 499.875 719.547 499.95C719.547 500.003 719.558 500.051 719.579 500.094H719.131ZM723.365 500.654H724.197V506.254H723.365V500.654Z" fill="#4A3021"/>
<path d="M587.592 143.703H590.2C590.872 143.703 591.405 143.82 591.8 144.055C592.195 144.289 592.392 144.609 592.392 145.015C592.392 145.361 592.251 145.66 591.968 145.911C591.685 146.156 591.315 146.313 590.856 146.383C591.464 146.441 591.928 146.583 592.248 146.807C592.568 147.025 592.728 147.356 592.728 147.799C592.728 148.284 592.528 148.657 592.128 148.919C591.728 149.175 591.149 149.303 590.392 149.303H587.592V143.703ZM589.896 146.207C590.435 146.207 590.848 146.111 591.136 145.919C591.424 145.721 591.568 145.436 591.568 145.063C591.568 144.732 591.432 144.487 591.16 144.327C590.888 144.167 590.475 144.087 589.92 144.087H588.424V146.207H589.896ZM590.472 148.919C590.92 148.919 591.269 148.817 591.52 148.615C591.771 148.412 591.896 148.127 591.896 147.759C591.896 147.369 591.723 147.079 591.376 146.887C591.035 146.689 590.525 146.591 589.848 146.591H588.424V148.919H590.472ZM593.92 143.703H594.752V149.303H593.92V143.703ZM596.264 143.703H601.008V144.087H597.096V146.111H600.552V146.487H597.096V148.919H601.008V149.303H596.264V143.703ZM599.472 141.983C599.461 141.94 599.456 141.905 599.456 141.879C599.456 141.799 599.475 141.735 599.512 141.687C599.555 141.639 599.619 141.585 599.704 141.527C599.784 141.473 599.845 141.42 599.888 141.367C599.931 141.313 599.952 141.249 599.952 141.175C599.952 141.111 599.931 141.057 599.888 141.015C599.845 140.972 599.779 140.951 599.688 140.951C599.592 140.951 599.52 140.975 599.472 141.023C599.429 141.071 599.405 141.127 599.4 141.191H599.088C599.088 141.052 599.147 140.943 599.264 140.863C599.381 140.783 599.531 140.743 599.712 140.743C599.893 140.743 600.037 140.783 600.144 140.863C600.251 140.943 600.304 141.052 600.304 141.191C600.304 141.292 600.28 141.372 600.232 141.431C600.184 141.484 600.112 141.545 600.016 141.615C599.947 141.657 599.893 141.7 599.856 141.743C599.824 141.78 599.808 141.825 599.808 141.879C599.808 141.916 599.816 141.951 599.832 141.983H599.472ZM598.424 141.919H598.984L599.976 143.143H599.584L598.704 142.295L597.824 143.143H597.432L598.424 141.919ZM601.826 143.703H602.666L606.074 148.047V143.703H606.778V149.303H606.362L602.53 144.431V149.303H601.826V143.703ZM612.268 143.703C613.314 143.703 614.108 143.932 614.652 144.391C615.196 144.849 615.468 145.521 615.468 146.407C615.468 147.329 615.194 148.044 614.644 148.551C614.1 149.052 613.324 149.303 612.316 149.303H610.092V146.519H609.476V146.167H610.092V143.703H612.268ZM612.428 148.919C613.138 148.919 613.682 148.703 614.06 148.271C614.444 147.839 614.636 147.217 614.636 146.407C614.636 145.644 614.45 145.068 614.076 144.679C613.703 144.284 613.154 144.087 612.428 144.087H610.924V146.167H612.62V146.519H610.924V148.919H612.428ZM619.378 149.383C618.749 149.383 618.207 149.268 617.754 149.039C617.301 148.809 616.954 148.479 616.714 148.047C616.474 147.609 616.354 147.087 616.354 146.479C616.354 145.881 616.474 145.369 616.714 144.943C616.954 144.511 617.301 144.183 617.754 143.959C618.207 143.735 618.749 143.623 619.378 143.623C620.007 143.623 620.546 143.735 620.994 143.959C621.447 144.183 621.794 144.511 622.034 144.943C622.274 145.369 622.394 145.881 622.394 146.479C622.394 147.087 622.274 147.609 622.034 148.047C621.794 148.479 621.447 148.809 620.994 149.039C620.546 149.268 620.007 149.383 619.378 149.383ZM619.378 148.999C620.071 148.999 620.607 148.78 620.986 148.343C621.365 147.905 621.554 147.284 621.554 146.479C621.554 145.689 621.365 145.081 620.986 144.655C620.613 144.223 620.077 144.007 619.378 144.007C618.679 144.007 618.141 144.22 617.762 144.647C617.383 145.073 617.194 145.684 617.194 146.479C617.194 147.284 617.383 147.905 617.762 148.343C618.141 148.78 618.679 148.999 619.378 148.999ZM619.098 141.919H619.658L620.65 143.143H620.258L619.378 142.295L618.498 143.143H618.106L619.098 141.919ZM623.428 143.703H624.268L627.676 148.047V143.703H628.38V149.303H627.964L624.132 144.431V149.303H623.428V143.703ZM632.513 149.383C631.862 149.383 631.305 149.271 630.841 149.047C630.377 148.817 630.022 148.487 629.777 148.055C629.531 147.623 629.409 147.108 629.409 146.511C629.409 145.913 629.529 145.399 629.769 144.967C630.009 144.535 630.355 144.204 630.809 143.975C631.262 143.74 631.801 143.623 632.425 143.623C633.182 143.623 633.803 143.788 634.289 144.119C634.779 144.444 635.075 144.895 635.177 145.471H634.457C634.361 145.001 634.139 144.641 633.793 144.391C633.446 144.135 632.998 144.007 632.449 144.007C631.761 144.007 631.222 144.228 630.833 144.671C630.443 145.108 630.249 145.719 630.249 146.503C630.249 147.297 630.446 147.913 630.841 148.351C631.241 148.783 631.801 148.999 632.521 148.999C632.857 148.999 633.163 148.964 633.441 148.895C633.718 148.82 633.982 148.705 634.233 148.551V146.735H632.273V146.375H635.065V148.607C634.75 148.857 634.374 149.049 633.937 149.183C633.505 149.316 633.03 149.383 632.513 149.383Z" fill="#4A3021"/>
<path d="M631.297 450.027L632.078 449.541L636.474 452.372L636.008 447.09L636.47 446.802L637.025 453.15L636.658 453.378L631.297 450.027ZM637.275 446.301L637.981 445.86L640.944 450.612L640.238 451.052L637.275 446.301ZM641.213 451.83C641.109 451.895 641.002 451.915 640.892 451.889C640.789 451.865 640.707 451.804 640.644 451.704C640.582 451.604 640.563 451.503 640.587 451.4C640.615 451.295 640.682 451.209 640.786 451.145C640.89 451.08 640.993 451.059 641.096 451.083C641.204 451.104 641.288 451.164 641.35 451.264C641.413 451.363 641.429 451.466 641.401 451.572C641.38 451.679 641.317 451.765 641.213 451.83ZM639.264 445.061L639.977 444.616L645.167 446.499L642.869 442.813L643.466 442.441L646.429 447.192L646.076 447.413L640.246 445.306L642.824 449.44L642.227 449.812L639.264 445.061ZM644.468 441.816L645.174 441.376L646.448 443.419L649.496 441.519L648.222 439.475L648.928 439.035L651.891 443.787L651.185 444.227L649.695 441.838L646.647 443.738L648.137 446.128L647.431 446.568L644.468 441.816ZM657.129 440.616C656.319 441.121 655.564 441.296 654.864 441.142C654.165 440.987 653.568 440.514 653.074 439.722C652.591 438.948 652.434 438.217 652.601 437.528C652.773 436.836 653.262 436.239 654.068 435.737C654.724 435.328 655.344 435.133 655.928 435.152C656.512 435.171 656.996 435.404 657.381 435.849L656.77 436.23C656.45 435.889 656.073 435.702 655.639 435.671C655.202 435.636 654.758 435.759 654.305 436.041C653.717 436.408 653.377 436.871 653.286 437.431C653.199 437.988 653.366 438.603 653.787 439.278C654.216 439.965 654.704 440.396 655.253 440.57C655.798 440.739 656.367 440.638 656.96 440.269C657.413 439.987 657.718 439.645 657.877 439.245C658.036 438.844 658.031 438.423 657.862 437.981L658.473 437.6C658.704 438.141 658.699 438.679 658.46 439.211C658.22 439.744 657.776 440.212 657.129 440.616ZM662.811 430.38C663.008 430.697 663.072 431.031 663.002 431.383C662.937 431.731 662.753 432.051 662.449 432.34L663.402 433.868C663.814 434.528 663.956 435.144 663.827 435.714C663.696 436.28 663.237 436.808 662.449 437.299C661.662 437.79 660.983 437.971 660.412 437.843C659.844 437.707 659.354 437.309 658.942 436.648L657.21 433.872L657.916 433.432L659.745 436.364C660.061 436.871 660.422 437.183 660.829 437.301C661.235 437.418 661.707 437.309 662.246 436.973C662.776 436.643 663.078 436.272 663.155 435.86C663.235 435.445 663.115 434.98 662.793 434.464L660.964 431.531L661.67 431.091L662.297 432.096C662.432 431.899 662.493 431.675 662.482 431.425C662.474 431.171 662.403 430.936 662.268 430.719L662.811 430.38ZM658.95 432.127C658.898 432.084 658.864 432.049 658.847 432.022C658.788 431.927 658.767 431.833 658.785 431.74C658.804 431.64 658.844 431.524 658.906 431.391C658.968 431.258 659.008 431.145 659.025 431.053C659.043 430.96 659.022 430.866 658.963 430.771C658.909 430.685 658.837 430.639 658.745 430.634C658.655 430.62 658.556 430.648 658.447 430.716C658.339 430.783 658.267 430.865 658.233 430.962C658.201 431.051 658.205 431.149 658.247 431.255L657.907 431.467C657.812 431.294 657.797 431.114 657.864 430.929C657.934 430.74 658.076 430.579 658.289 430.447C658.497 430.317 658.698 430.261 658.891 430.278C659.085 430.296 659.232 430.387 659.334 430.549C659.416 430.681 659.446 430.806 659.427 430.925C659.408 431.037 659.363 431.166 659.29 431.312C659.241 431.424 659.208 431.517 659.191 431.591C659.176 431.657 659.188 431.721 659.227 431.785C659.255 431.83 659.29 431.865 659.331 431.89L658.95 432.127ZM667.849 432.123L665.113 433.828L665.266 435.449L664.791 435.745L664.256 429.385L664.623 429.156L669.957 432.524L669.196 432.998L667.849 432.123ZM667.49 431.894L664.764 430.124L665.073 433.401L667.49 431.894ZM671.216 425.14C672.103 424.587 672.898 424.361 673.603 424.463C674.307 424.564 674.893 424.991 675.362 425.742C675.85 426.525 675.995 427.276 675.797 427.997C675.601 428.71 675.075 429.333 674.22 429.867L672.332 431.043L670.859 428.681L670.336 429.007L670.15 428.708L670.673 428.382L669.369 426.292L671.216 425.14ZM674.111 429.482C674.713 429.106 675.061 428.635 675.153 428.068C675.251 427.499 675.085 426.87 674.656 426.182C674.252 425.535 673.789 425.145 673.266 425.012C672.741 424.875 672.17 424.998 671.555 425.382L670.278 426.177L671.379 427.942L672.818 427.045L673.004 427.344L671.565 428.241L672.835 430.277L674.111 429.482ZM680.12 424.472L677.384 426.178L677.537 427.798L677.062 428.095L676.527 421.734L676.894 421.506L682.228 424.874L681.468 425.348L680.12 424.472ZM679.761 424.244L677.036 422.473L677.344 425.75L679.761 424.244ZM680.271 427.48C680.167 427.545 680.059 427.564 679.949 427.539C679.846 427.515 679.764 427.453 679.702 427.354C679.64 427.254 679.621 427.153 679.644 427.05C679.673 426.944 679.739 426.859 679.843 426.794C679.947 426.729 680.051 426.709 680.154 426.733C680.261 426.754 680.346 426.814 680.408 426.914C680.47 427.013 680.487 427.116 680.458 427.221C680.437 427.329 680.375 427.415 680.271 427.48ZM680.109 419.596L680.815 419.156L683.778 423.907L683.072 424.348L680.109 419.596Z" fill="#4A3021"/>
<path d="M495.486 524.117C494.77 524.485 494.134 524.636 493.577 524.568C493.02 524.501 492.588 524.219 492.279 523.725L492.919 523.395C493.177 523.814 493.499 524.056 493.887 524.121C494.276 524.178 494.746 524.066 495.296 523.783C495.785 523.531 496.113 523.254 496.281 522.952C496.454 522.647 496.459 522.336 496.295 522.018C496.198 521.828 496.066 521.695 495.901 521.618C495.735 521.541 495.506 521.515 495.213 521.54C494.924 521.563 494.542 521.642 494.067 521.779C493.311 522 492.704 522.097 492.245 522.068C491.789 522.033 491.463 521.823 491.265 521.439C491.045 521.013 491.08 520.59 491.368 520.172C491.654 519.749 492.122 519.37 492.772 519.036C493.431 518.696 494.004 518.551 494.492 518.601C494.981 518.643 495.362 518.858 495.633 519.246L495 519.571C494.751 519.262 494.453 519.097 494.107 519.077C493.766 519.055 493.363 519.163 492.898 519.403C492.447 519.634 492.141 519.885 491.98 520.154C491.823 520.42 491.812 520.684 491.946 520.945C492.027 521.101 492.14 521.211 492.286 521.274C492.433 521.336 492.64 521.355 492.91 521.331C493.184 521.304 493.551 521.226 494.012 521.096C494.578 520.937 495.047 520.84 495.419 520.805C495.795 520.767 496.113 520.807 496.372 520.926C496.629 521.04 496.835 521.248 496.991 521.552C497.221 521.998 497.198 522.45 496.925 522.909C496.653 523.36 496.174 523.763 495.486 524.117ZM501.21 521.172C500.651 521.459 500.117 521.605 499.609 521.609C499.101 521.612 498.641 521.477 498.23 521.202C497.816 520.923 497.471 520.514 497.192 519.973C496.919 519.442 496.791 518.932 496.81 518.443C496.825 517.949 496.983 517.498 497.284 517.092C497.585 516.685 498.015 516.338 498.574 516.05C499.134 515.762 499.664 515.615 500.165 515.609C500.671 515.601 501.129 515.734 501.54 516.009C501.949 516.278 502.29 516.678 502.563 517.21C502.841 517.75 502.974 518.27 502.961 518.768C502.945 519.262 502.788 519.715 502.49 520.126C502.196 520.535 501.77 520.884 501.21 521.172ZM501.034 520.83C501.651 520.513 502.027 520.073 502.164 519.511C502.301 518.949 502.185 518.31 501.816 517.594C501.455 516.892 501.008 516.438 500.476 516.232C499.947 516.019 499.371 516.072 498.75 516.391C498.129 516.711 497.747 517.147 497.606 517.7C497.464 518.253 497.576 518.882 497.939 519.589C498.308 520.305 498.76 520.771 499.297 520.986C499.834 521.202 500.413 521.15 501.034 520.83ZM497.546 514.663L498.044 514.407L499.486 515.041L499.137 515.221L497.967 514.869L497.572 516.026L497.224 516.205L497.546 514.663ZM502.212 514.268L502.959 513.884L507.977 516.187L505.989 512.325L506.615 512.003L509.178 516.982L508.808 517.172L503.171 514.594L505.401 518.925L504.775 519.248L502.212 514.268ZM512.89 515.162C512.311 515.46 511.764 515.615 511.249 515.628C510.732 515.637 510.265 515.505 509.849 515.233C509.433 514.961 509.089 514.56 508.815 514.029C508.542 513.498 508.413 512.985 508.429 512.491C508.444 511.997 508.601 511.545 508.9 511.133C509.195 510.717 509.621 510.366 510.175 510.081C510.849 509.734 511.477 509.597 512.06 509.669C512.645 509.734 513.115 509.999 513.468 510.465L512.828 510.794C512.528 510.421 512.166 510.202 511.743 510.138C511.318 510.069 510.861 510.16 510.373 510.411C509.761 510.726 509.383 511.169 509.239 511.741C509.093 512.308 509.2 512.94 509.558 513.637C509.922 514.344 510.379 514.801 510.931 515.01C511.484 515.211 512.081 515.147 512.721 514.817C513.02 514.663 513.277 514.492 513.491 514.304C513.704 514.11 513.886 513.888 514.038 513.636L513.207 512.021L511.464 512.918L511.3 512.597L513.782 511.32L514.804 513.305C514.639 513.672 514.392 514.014 514.064 514.333C513.741 514.649 513.35 514.926 512.89 515.162ZM517.286 506.944L515.18 508.028L515.004 507.686L519.948 505.143L520.124 505.484L518.026 506.564L520.412 511.202L519.673 511.582L517.286 506.944ZM520.538 504.839L521.278 504.459L522.38 506.6L525.574 504.956L524.472 502.815L525.212 502.434L527.774 507.414L527.034 507.794L525.746 505.291L522.552 506.934L523.84 509.438L523.101 509.818L520.538 504.839ZM531.202 505.74C530.377 506.165 529.685 506.29 529.127 506.115C528.572 505.933 528.116 505.496 527.76 504.803L526.262 501.894L527.002 501.513L528.584 504.586C528.857 505.117 529.191 505.458 529.587 505.609C529.982 505.759 530.462 505.689 531.026 505.399C531.581 505.113 531.913 504.768 532.023 504.364C532.138 503.957 532.056 503.483 531.778 502.943L530.196 499.87L530.936 499.489L532.433 502.399C532.789 503.091 532.88 503.716 532.705 504.274C532.528 504.827 532.027 505.316 531.202 505.74ZM533.876 497.976L536.195 496.783C536.793 496.476 537.321 496.336 537.779 496.364C538.237 496.392 538.559 496.587 538.745 496.947C538.903 497.255 538.914 497.585 538.778 497.938C538.638 498.285 538.381 498.595 538.005 498.866C538.572 498.64 539.049 498.553 539.437 498.606C539.821 498.654 540.115 498.875 540.317 499.269C540.539 499.7 540.532 500.124 540.296 500.539C540.058 500.95 539.602 501.328 538.928 501.675L536.439 502.956L533.876 497.976ZM537.071 499.149C537.55 498.902 537.873 498.628 538.041 498.325C538.207 498.018 538.205 497.699 538.034 497.367C537.882 497.073 537.649 496.917 537.334 496.899C537.019 496.881 536.615 496.999 536.122 497.253L534.792 497.937L535.762 499.822L537.071 499.149ZM538.824 501.297C539.222 501.092 539.486 500.842 539.617 500.547C539.747 500.252 539.728 499.941 539.559 499.614C539.381 499.268 539.094 499.088 538.698 499.076C538.304 499.057 537.806 499.202 537.204 499.512L535.937 500.164L537.003 502.234L538.824 501.297ZM544.364 498.968C543.805 499.256 543.271 499.401 542.763 499.405C542.255 499.408 541.795 499.273 541.384 498.999C540.97 498.72 540.625 498.31 540.346 497.769C540.073 497.238 539.945 496.728 539.964 496.239C539.979 495.745 540.137 495.295 540.438 494.888C540.739 494.481 541.169 494.134 541.728 493.846C542.288 493.558 542.818 493.411 543.319 493.406C543.825 493.397 544.283 493.53 544.694 493.805C545.103 494.074 545.444 494.475 545.717 495.006C545.995 495.546 546.128 496.066 546.115 496.565C546.099 497.059 545.942 497.511 545.644 497.923C545.35 498.331 544.924 498.68 544.364 498.968ZM544.188 498.626C544.805 498.309 545.182 497.869 545.318 497.307C545.455 496.745 545.339 496.106 544.97 495.39C544.609 494.688 544.162 494.234 543.63 494.028C543.101 493.815 542.525 493.868 541.904 494.188C541.283 494.507 540.901 494.943 540.76 495.496C540.619 496.049 540.73 496.678 541.093 497.385C541.462 498.101 541.915 498.567 542.451 498.782C542.988 498.998 543.567 498.946 544.188 498.626ZM541.44 491.817C541.275 491.788 541.154 491.763 541.078 491.743C541.003 491.715 540.954 491.678 540.93 491.63C540.903 491.578 540.901 491.528 540.924 491.48C540.945 491.427 540.986 491.385 541.048 491.353C541.143 491.304 541.265 491.314 541.413 491.381L542.535 491.83L542.293 491.954L541.44 491.817ZM540.7 492.459L541.198 492.203L542.64 492.837L542.291 493.017L541.121 492.665L540.726 493.822L540.378 494.001L540.7 492.459ZM545.366 492.064L546.113 491.68L551.131 493.983L549.143 490.121L549.769 489.799L552.332 494.778L551.962 494.968L546.325 492.39L548.555 496.722L547.929 497.044L545.366 492.064Z" fill="#4A3021"/>
<path d="M263.67 433.671C263.013 433.207 262.585 432.712 262.388 432.187C262.191 431.662 262.24 431.149 262.537 430.646L263.124 431.062C262.872 431.484 262.806 431.882 262.928 432.255C263.057 432.627 263.374 432.992 263.879 433.349C264.328 433.666 264.725 433.829 265.071 433.838C265.421 433.851 265.7 433.711 265.906 433.419C266.029 433.245 266.086 433.067 266.078 432.885C266.07 432.703 265.987 432.487 265.829 432.239C265.676 431.993 265.429 431.692 265.088 431.333C264.543 430.765 264.177 430.271 263.99 429.852C263.811 429.431 263.846 429.044 264.095 428.691C264.372 428.299 264.763 428.135 265.267 428.197C265.775 428.256 266.327 428.496 266.923 428.917C267.529 429.345 267.922 429.786 268.104 430.241C268.292 430.695 268.278 431.132 268.059 431.552L267.477 431.141C267.637 430.777 267.645 430.437 267.503 430.12C267.365 429.807 267.083 429.5 266.656 429.198C266.242 428.906 265.879 428.75 265.566 428.732C265.257 428.716 265.018 428.828 264.848 429.067C264.747 429.211 264.702 429.362 264.714 429.521C264.726 429.679 264.805 429.872 264.951 430.1C265.102 430.33 265.341 430.62 265.669 430.969C266.071 431.398 266.374 431.768 266.577 432.082C266.785 432.398 266.896 432.699 266.91 432.983C266.927 433.263 266.838 433.543 266.641 433.821C266.351 434.231 265.94 434.42 265.407 434.389C264.881 434.357 264.302 434.118 263.67 433.671ZM268.927 437.387C268.413 437.024 268.038 436.617 267.8 436.169C267.562 435.72 267.47 435.25 267.523 434.758C267.579 434.263 267.783 433.767 268.134 433.27C268.479 432.782 268.872 432.434 269.315 432.224C269.76 432.009 270.233 431.942 270.732 432.02C271.232 432.099 271.738 432.32 272.252 432.683C272.766 433.047 273.141 433.449 273.378 433.89C273.619 434.335 273.713 434.803 273.659 435.294C273.609 435.781 273.411 436.268 273.067 436.756C272.716 437.253 272.316 437.61 271.868 437.829C271.422 438.043 270.948 438.113 270.446 438.039C269.947 437.967 269.441 437.75 268.927 437.387ZM269.149 437.073C269.715 437.473 270.279 437.604 270.841 437.466C271.403 437.327 271.916 436.929 272.381 436.271C272.836 435.627 273.033 435.021 272.97 434.454C272.914 433.886 272.601 433.4 272.031 432.997C271.46 432.594 270.897 432.457 270.341 432.587C269.786 432.717 269.279 433.106 268.82 433.755C268.355 434.413 268.151 435.029 268.208 435.605C268.265 436.181 268.578 436.67 269.149 437.073ZM273.007 431.13L273.465 431.453L273.568 433.025L273.248 432.799L273.019 431.599L271.811 431.783L271.491 431.557L273.007 431.13ZM275.513 435.086L276.199 435.571L276.475 441.085L278.982 437.538L279.557 437.944L276.325 442.517L275.985 442.277L275.668 436.087L272.856 440.065L272.281 439.659L275.513 435.086ZM279.654 444.967C279.122 444.592 278.732 444.179 278.482 443.728C278.236 443.273 278.137 442.798 278.186 442.304C278.235 441.81 278.432 441.318 278.777 440.831C279.121 440.343 279.517 439.992 279.962 439.778C280.407 439.563 280.881 439.494 281.384 439.568C281.89 439.638 282.397 439.853 282.907 440.213C283.525 440.65 283.937 441.144 284.143 441.694C284.356 442.243 284.337 442.782 284.087 443.31L283.499 442.895C283.692 442.456 283.719 442.035 283.581 441.63C283.445 441.221 283.153 440.858 282.705 440.541C282.143 440.143 281.575 440.013 281.002 440.15C280.431 440.282 279.92 440.669 279.467 441.309C279.009 441.958 278.814 442.575 278.884 443.16C278.961 443.743 279.294 444.243 279.882 444.658C280.156 444.852 280.427 445.001 280.693 445.104C280.963 445.204 281.245 445.262 281.539 445.281L282.587 443.798L280.986 442.667L281.194 442.373L283.474 443.984L282.186 445.807C281.784 445.83 281.366 445.769 280.932 445.626C280.502 445.485 280.076 445.266 279.654 444.967ZM288.974 445.069L287.04 443.702L287.262 443.389L291.802 446.598L291.581 446.911L289.653 445.549L286.643 449.809L285.963 449.328L288.974 445.069ZM292.344 446.981L293.023 447.461L291.633 449.427L294.567 451.5L295.957 449.534L296.636 450.014L293.404 454.587L292.724 454.107L294.35 451.807L291.416 449.734L289.791 452.034L289.111 451.553L292.344 446.981ZM296.472 456.853C295.714 456.317 295.284 455.762 295.181 455.187C295.086 454.61 295.263 454.004 295.712 453.368L297.601 450.696L298.281 451.176L296.286 453.998C295.941 454.486 295.793 454.94 295.842 455.36C295.891 455.78 296.175 456.173 296.693 456.539C297.203 456.9 297.662 457.035 298.072 456.946C298.486 456.859 298.868 456.568 299.219 456.071L301.214 453.249L301.893 453.729L300.005 456.401C299.555 457.037 299.043 457.406 298.467 457.509C297.895 457.607 297.23 457.389 296.472 456.853ZM304.594 455.638L306.723 457.143C307.272 457.531 307.64 457.934 307.827 458.354C308.014 458.773 307.99 459.148 307.756 459.479C307.556 459.762 307.268 459.925 306.893 459.966C306.52 460.003 306.127 459.918 305.712 459.71C306.175 460.109 306.472 460.492 306.604 460.859C306.739 461.223 306.679 461.585 306.423 461.947C306.143 462.343 305.764 462.532 305.287 462.515C304.813 462.493 304.266 462.264 303.648 461.826L301.361 460.21L304.594 455.638ZM305.03 459.012C305.47 459.323 305.863 459.483 306.209 459.493C306.558 459.498 306.84 459.348 307.055 459.043C307.246 458.773 307.277 458.494 307.147 458.206C307.017 457.919 306.726 457.615 306.273 457.295L305.051 456.431L303.828 458.163L305.03 459.012ZM303.935 461.559C304.3 461.818 304.644 461.936 304.966 461.916C305.288 461.895 305.555 461.734 305.767 461.434C305.992 461.116 306.018 460.778 305.846 460.422C305.681 460.063 305.322 459.689 304.769 459.298L303.606 458.476L302.262 460.377L303.935 461.559ZM308.56 465.396C308.046 465.033 307.67 464.627 307.432 464.178C307.195 463.729 307.102 463.259 307.156 462.768C307.212 462.272 307.416 461.776 307.767 461.28C308.112 460.792 308.505 460.443 308.948 460.233C309.393 460.019 309.865 459.951 310.365 460.03C310.864 460.109 311.371 460.33 311.885 460.693C312.399 461.056 312.774 461.458 313.011 461.9C313.252 462.344 313.345 462.812 313.292 463.304C313.242 463.79 313.044 464.278 312.699 464.766C312.348 465.262 311.949 465.62 311.5 465.838C311.055 466.052 310.581 466.122 310.078 466.048C309.58 465.977 309.074 465.759 308.56 465.396ZM308.782 465.083C309.348 465.483 309.912 465.614 310.474 465.475C311.035 465.336 311.549 464.938 312.013 464.281C312.469 463.636 312.665 463.03 312.602 462.463C312.547 461.895 312.234 461.41 311.663 461.006C311.093 460.603 310.53 460.466 309.974 460.596C309.419 460.726 308.912 461.115 308.453 461.764C307.988 462.422 307.784 463.039 307.841 463.614C307.898 464.19 308.211 464.679 308.782 465.083ZM313.551 459.5C313.501 459.34 313.467 459.221 313.45 459.144C313.44 459.065 313.451 459.004 313.482 458.961C313.516 458.913 313.559 458.888 313.612 458.887C313.669 458.881 313.725 458.898 313.782 458.938C313.869 458.999 313.917 459.112 313.926 459.275L314.046 460.476L313.824 460.319L313.551 459.5ZM312.64 459.14L313.097 459.463L313.201 461.035L312.881 460.809L312.652 459.608L311.443 459.793L311.123 459.567L312.64 459.14ZM315.146 463.095L315.832 463.58L316.108 469.094L318.615 465.547L319.19 465.953L315.958 470.526L315.618 470.286L315.301 464.096L312.488 468.075L311.914 467.668L315.146 463.095Z" fill="#4A3021"/>
<path d="M110.44 319.063H108.072V318.679H113.632V319.063H111.272V324.279H110.44V319.063ZM114.295 318.679H115.127V321.087H118.719V318.679H119.551V324.279H118.719V321.463H115.127V324.279H114.295V318.679ZM124.725 322.823H121.501L120.773 324.279H120.213L123.125 318.599H123.557L126.301 324.279H125.405L124.725 322.823ZM124.541 322.439L123.165 319.495L121.693 322.439H124.541ZM126.967 318.679H127.807L131.215 323.023V318.679H131.919V324.279H131.503L127.671 319.407V324.279H126.967V318.679ZM133.1 318.679H133.932V321.087H137.524V318.679H138.356V324.279H137.524V321.463H133.932V324.279H133.1V318.679ZM141.662 318.679H142.494V321.087H146.086V318.679H146.918V324.279H146.086V321.463H142.494V324.279H141.662V318.679ZM152.092 322.823H148.868L148.14 324.279H147.58L150.492 318.599H150.924L153.668 324.279H152.772L152.092 322.823ZM151.908 322.439L150.532 319.495L149.06 322.439H151.908ZM149.284 317.263C149.081 317.125 148.98 316.999 148.98 316.887C148.98 316.829 149.001 316.781 149.044 316.743C149.092 316.701 149.156 316.679 149.236 316.679C149.396 316.679 149.537 316.749 149.66 316.887L150.788 318.119H150.508L149.284 317.263Z" fill="#4A3021"/>
<path d="M114.131 241.738C115.044 242.248 115.626 242.836 115.877 243.502C116.128 244.167 116.038 244.887 115.606 245.659C115.156 246.465 114.567 246.955 113.84 247.129C113.121 247.301 112.321 247.142 111.441 246.65L109.5 245.565L110.858 243.135L110.32 242.834L110.492 242.527L111.03 242.828L112.232 240.677L114.131 241.738ZM111.726 246.369C112.346 246.715 112.926 246.792 113.467 246.6C114.013 246.41 114.484 245.961 114.879 245.254C115.251 244.588 115.37 243.994 115.234 243.472C115.1 242.945 114.717 242.505 114.084 242.151L112.771 241.418L111.756 243.233L113.237 244.061L113.065 244.368L111.584 243.541L110.413 245.636L111.726 246.369ZM123.593 247.025C123.41 247.35 123.148 247.568 122.807 247.676C122.47 247.787 122.101 247.78 121.701 247.654L120.823 249.225C120.443 249.905 119.972 250.326 119.411 250.489C118.852 250.647 118.168 250.5 117.357 250.047C116.547 249.595 116.061 249.088 115.898 248.526C115.743 247.963 115.855 247.341 116.235 246.661L117.831 243.805L118.557 244.211L116.871 247.228C116.58 247.749 116.481 248.216 116.574 248.629C116.667 249.041 116.991 249.402 117.545 249.712C118.09 250.016 118.561 250.103 118.958 249.97C119.361 249.841 119.71 249.511 120.007 248.98L121.693 245.963L122.419 246.369L121.842 247.403C122.079 247.425 122.305 247.371 122.519 247.24C122.737 247.112 122.909 246.936 123.034 246.712L123.593 247.025ZM129.367 250.15C129.2 250.448 128.965 250.656 128.661 250.773C128.365 250.888 128.035 250.909 127.674 250.835C127.653 251.288 127.507 251.756 127.236 252.24C126.94 252.771 126.58 253.169 126.157 253.434C125.737 253.694 125.273 253.813 124.765 253.792C124.262 253.774 123.736 253.611 123.187 253.304C122.637 252.997 122.221 252.633 121.937 252.212C121.653 251.791 121.512 251.333 121.513 250.839C121.517 250.34 121.667 249.825 121.964 249.294C122.255 248.773 122.61 248.385 123.027 248.129C123.448 247.869 123.91 247.752 124.415 247.777C124.92 247.803 125.447 247.969 125.997 248.276C126.509 248.562 126.906 248.897 127.186 249.28C127.472 249.666 127.632 250.085 127.666 250.538C127.899 250.546 128.117 250.484 128.319 250.353C128.525 250.224 128.689 250.052 128.808 249.838L129.367 250.15ZM123.374 252.969C123.979 253.307 124.554 253.378 125.098 253.181C125.642 252.984 126.11 252.534 126.503 251.831C126.888 251.142 127.02 250.519 126.897 249.962C126.782 249.402 126.419 248.952 125.81 248.612C125.2 248.271 124.625 248.194 124.087 248.382C123.548 248.57 123.085 249.01 122.697 249.704C122.304 250.407 122.166 251.042 122.283 251.608C122.401 252.175 122.764 252.628 123.374 252.969ZM125.433 246.431C125.324 246.211 125.297 246.052 125.352 245.955C125.38 245.903 125.422 245.872 125.478 245.86C125.54 245.846 125.607 245.859 125.677 245.898C125.816 245.976 125.906 246.105 125.945 246.286L126.329 247.912L126.084 247.775L125.433 246.431ZM129.493 250.322L130.227 250.731L131.082 256.186L133.202 252.394L133.816 252.737L131.084 257.625L130.721 257.422L129.753 251.3L127.376 255.553L126.761 255.21L129.493 250.322ZM134.653 259.711C134.085 259.394 133.653 259.024 133.357 258.602C133.064 258.176 132.916 257.714 132.912 257.217C132.909 256.721 133.053 256.211 133.344 255.69C133.636 255.169 133.992 254.778 134.412 254.518C134.832 254.258 135.296 254.138 135.804 254.159C136.314 254.175 136.842 254.336 137.386 254.64C138.047 255.01 138.509 255.457 138.771 255.982C139.041 256.506 139.08 257.043 138.887 257.596L138.259 257.244C138.404 256.788 138.386 256.366 138.206 255.978C138.028 255.585 137.699 255.255 137.22 254.987C136.619 254.651 136.041 254.582 135.485 254.778C134.932 254.97 134.464 255.408 134.082 256.093C133.694 256.786 133.566 257.42 133.697 257.995C133.835 258.567 134.219 259.029 134.847 259.38C135.141 259.544 135.425 259.663 135.701 259.738C135.98 259.808 136.266 259.837 136.56 259.824L137.446 258.239L135.735 257.283L135.911 256.968L138.348 258.33L137.259 260.278C136.862 260.344 136.44 260.328 135.994 260.231C135.551 260.137 135.105 259.963 134.653 259.711ZM142.506 257.592L143.239 258.002L144.095 263.456L146.214 259.664L146.829 260.008L144.097 264.896L143.734 264.693L142.765 258.571L140.388 262.824L139.774 262.481L142.506 257.592ZM147.666 266.982C147.098 266.665 146.666 266.295 146.37 265.873C146.077 265.447 145.929 264.985 145.925 264.488C145.922 263.991 146.066 263.482 146.357 262.961C146.649 262.439 147.004 262.049 147.425 261.789C147.845 261.529 148.309 261.409 148.817 261.43C149.327 261.446 149.854 261.607 150.399 261.911C151.06 262.28 151.522 262.728 151.784 263.253C152.054 263.777 152.092 264.314 151.9 264.867L151.271 264.515C151.416 264.059 151.399 263.637 151.219 263.249C151.041 262.856 150.712 262.526 150.233 262.258C149.632 261.922 149.054 261.853 148.498 262.049C147.945 262.241 147.477 262.679 147.094 263.364C146.707 264.057 146.578 264.691 146.71 265.266C146.848 265.838 147.231 266.299 147.86 266.651C148.153 266.815 148.438 266.934 148.714 267.009C148.992 267.079 149.279 267.107 149.573 267.095L150.459 265.509L148.748 264.553L148.924 264.239L151.361 265.601L150.272 267.549C149.875 267.615 149.453 267.599 149.006 267.502C148.564 267.408 148.117 267.234 147.666 266.982ZM153.19 270.069C152.38 269.616 151.894 269.109 151.731 268.548C151.575 267.984 151.687 267.363 152.067 266.683L153.664 263.827L154.39 264.233L152.704 267.249C152.412 267.771 152.313 268.238 152.407 268.65C152.5 269.063 152.823 269.424 153.378 269.734C153.922 270.038 154.393 270.124 154.791 269.992C155.193 269.862 155.543 269.532 155.84 269.001L157.526 265.985L158.252 266.391L156.656 269.247C156.276 269.926 155.805 270.348 155.244 270.51C154.685 270.669 154 270.521 153.19 270.069ZM159.344 270.63L158.795 266.694L159.584 267.135L160.057 270.469L163.285 269.203L163.795 269.488L160.129 270.931L158.884 273.158L158.158 272.753L159.344 270.63ZM164.337 269.791L168.478 272.105L168.291 272.44L164.876 270.532L163.889 272.298L166.906 273.984L166.722 274.312L163.705 272.627L162.519 274.75L165.934 276.658L165.746 276.993L161.605 274.679L164.337 269.791ZM166.464 268.56C166.576 268.402 166.71 268.306 166.864 268.27C167.023 268.237 167.177 268.262 167.326 268.345C167.405 268.389 167.477 268.447 167.54 268.52C167.604 268.592 167.679 268.692 167.766 268.82C167.838 268.921 167.899 269.004 167.948 269.068C168.001 269.128 168.055 269.173 168.11 269.205C168.199 269.254 168.295 269.268 168.399 269.247C168.502 269.225 168.603 269.171 168.7 269.085L168.8 269.233C168.503 269.568 168.203 269.651 167.901 269.482C167.826 269.44 167.76 269.384 167.701 269.315C167.642 269.245 167.571 269.148 167.488 269.022C167.413 268.906 167.349 268.819 167.296 268.759C167.247 268.695 167.192 268.646 167.131 268.612C167.038 268.56 166.941 268.542 166.84 268.559C166.739 268.576 166.647 268.625 166.565 268.707L166.464 268.56ZM167.093 269.287L167.582 269.56L167.851 271.112L167.509 270.921L167.154 269.752L165.972 270.063L165.63 269.871L167.093 269.287ZM169.193 272.504L169.926 272.914L170.782 278.368L172.901 274.576L173.516 274.919L170.784 279.808L170.421 279.605L169.452 273.483L167.075 277.736L166.461 277.392L169.193 272.504ZM177.828 277.768L175.761 276.613L175.948 276.278L180.802 278.99L180.614 279.325L178.554 278.174L176.009 282.727L175.283 282.321L177.828 277.768ZM182.148 284.489L179.334 282.917L177.988 283.833L177.499 283.56L182.812 280.022L183.189 280.233L182.813 286.529L182.031 286.092L182.148 284.489ZM182.175 284.064L182.41 280.823L179.688 282.675L182.175 284.064ZM185.453 278.822C185.613 278.765 185.738 278.761 185.826 278.81C185.887 278.844 185.926 278.888 185.946 278.941C185.967 278.99 185.964 279.04 185.935 279.091C185.909 279.137 185.86 279.171 185.787 279.192C185.715 279.212 185.592 279.235 185.419 279.261L184.554 279.364L184.324 279.235L185.453 278.822ZM183.546 278.48L184.034 278.753L184.303 280.305L183.961 280.114L183.607 278.945L182.425 279.256L182.082 279.064L183.546 278.48ZM186.857 282.814L184.79 281.659L184.978 281.324L189.831 284.036L189.644 284.371L187.584 283.22L185.039 287.773L184.313 287.367L186.857 282.814ZM193.691 286.632L191.624 285.477L191.811 285.142L196.665 287.854L196.478 288.189L194.418 287.038L191.873 291.591L191.146 291.185L193.691 286.632ZM197.244 288.177L197.97 288.583L196.795 290.685L199.931 292.437L201.106 290.335L201.832 290.741L199.1 295.629L198.374 295.224L199.748 292.765L196.612 291.013L195.238 293.471L194.512 293.066L197.244 288.177ZM204.327 296.882L201.512 295.309L200.167 296.225L199.678 295.952L204.991 292.414L205.368 292.625L204.992 298.922L204.21 298.485L204.327 296.882ZM204.354 296.457L204.589 293.216L201.867 295.068L204.354 296.457ZM204.588 290.659C204.479 290.439 204.452 290.28 204.506 290.182C204.535 290.131 204.577 290.1 204.632 290.088C204.695 290.074 204.761 290.087 204.831 290.126C204.971 290.204 205.06 290.333 205.1 290.514L205.483 292.14L205.239 292.003L204.588 290.659ZM208.306 294.358L209.039 294.768L209.895 300.222L212.015 296.43L212.629 296.774L209.897 301.662L209.534 301.459L208.566 295.337L206.189 299.59L205.574 299.247L208.306 294.358ZM213.66 297.35L214.386 297.756L213.211 299.858L216.347 301.61L217.522 299.508L218.248 299.913L215.516 304.802L214.79 304.396L216.164 301.938L213.028 300.186L211.654 302.644L210.928 302.238L213.66 297.35Z" fill="#4A3021"/>
<path d="M188.191 49.6445L177.101 54.8638L154.161 76.9809L147.161 92.9788L130.371 177.768L92.3711 253.688C92.3711 253.688 99.9211 248.588 114.301 256.687C128.681 264.786 212.371 309.59 212.371 309.59L221.001 314.67L236.651 331.087L280.851 350.255L339.521 371.452L385.211 362.453L398.581 395.829H402.641L404.451 401.478L433.541 399.668L467.371 409.137L490.151 421.075L500.531 430.924L511.131 434.614L519.251 437.313L545.411 435.733L553.531 429.644L554.661 426.045L563.661 421.765" stroke="#4A3021" stroke-width="0.5" stroke-miterlimit="10"/>
<path d="M362.899 189.584L352.869 222.36L351.079 250.486L347.879 256.695L335.869 278.802L305.269 307.468L277.199 358.282L286.909 372.74L288.259 378.379" stroke="#4A3021" stroke-width="0.5" stroke-miterlimit="10"/>
<path d="M160.52 386.328C160.92 386.158 169.06 354.432 169.06 354.432L188.32 331.206L212.5 309.779" stroke="#4A3021" stroke-width="0.5" stroke-miterlimit="10"/>
<path d="M2.26953 391.548L10.6495 387.549L47.8295 376.73C55.9934 377.385 124.295 383.316 132.974 384.07C133.491 384.115 133.88 384.547 133.88 385.066V386.646C133.88 387.288 134.475 387.763 135.101 387.621L202.3 372.371L222.02 377.08L240.66 377.25L254.84 381.969L265.84 383.359L274.22 377.08L339.53 381.969L361.67 374.97L390.67 372.35L432.03 337.795L450.5 321.278L465.17 322.437L503 282.783" stroke="#4A3021" stroke-width="0.5" stroke-miterlimit="10"/>
<path d="M1 254.32H92L53.6573 323.32L1 326.32" stroke="#4A3021" stroke-width="0.5"/>
<rect x="565" y="433.51" width="6" height="60.4678" transform="rotate(-21.4068 565 433.51)" fill="#4A3021"/>
</svg>
