<svg width="382" height="570" viewBox="0 0 382 570" fill="none" xmlns="http://www.w3.org/2000/svg">
<g clip-path="url(#clip0_5632_13883)">
<rect width="382" height="570" fill="#DBDBDB"/>
<path d="M112 530H111.5" stroke="#D9A952"/>
<path d="M140 378H139.5" stroke="#D9A952" stroke-width="1.00278"/>
<path d="M155 437H154.5" stroke="#D9A952" stroke-width="1.00278"/>
<path d="M321.338 265.855C329.965 252.177 342.79 237.882 337.959 236.198C333.128 234.514 328.913 238.763 323.86 235.343C318.807 231.924 305.143 224.828 295.259 218.1C285.375 211.371 283.289 206.319 276.329 205.276C269.369 204.233 266.65 206.986 261.605 202.335C256.561 197.684 254.662 196.445 244.992 199.599C235.322 202.754 232.167 200.865 231.311 204.643C230.456 208.422 231.312 223.785 223.317 222.733C215.322 221.682 207.926 216.21 205.652 212.004C203.378 207.798 200.18 200.651 191.972 203.592C183.763 206.533 181.66 207.593 174.298 210.115C166.936 212.637 167.355 205.695 169.253 201.916C171.152 198.137 180.369 183.407 177.453 176.465C174.538 169.523 173.879 165.112 160.002 171.002C146.125 176.893 145.278 178.782 132.444 177.098C119.61 175.414 111.197 169.318 105.52 164.898C99.8422 160.478 127.605 171.002 129.922 168.899C132.239 166.796 132.06 157.648 142.534 158.495C153.008 159.341 159.805 155.075 162.636 155.665C165.466 156.255 181.044 155.947 183.31 161.325C185.576 166.702 187.295 169.874 183.721 168.694C180.147 167.514 177.274 173.276 181.155 175.533C185.037 177.79 192.758 178.679 192.476 177.679C192.194 176.679 202.788 180.971 197.914 181.261C193.04 181.552 180.155 178.107 179.864 182.262C179.574 186.416 180.292 192.119 185.738 194.923C191.185 197.727 201.351 201.454 203.643 203.472C205.934 205.49 213.245 213.928 216.254 215.364C219.264 216.8 223.556 218.655 224.993 215.073C226.429 211.491 224.847 201.326 233.586 198.462C242.324 195.598 249.917 193.871 247.916 190.871C245.915 187.87 241.033 184.424 233.731 185.134C226.429 185.844 222.411 187.998 219.837 188.289C217.263 188.579 205.225 189.007 204.224 186.998C203.224 184.989 202.642 180.406 206.652 181.415C210.663 182.424 232.586 178.406 237.887 179.124C243.188 179.842 247.053 180.834 253.354 185.963C259.656 191.093 271.549 196.419 277.423 199.71C283.297 203.002 291.608 208.165 296.337 210.602C301.065 213.039 311.659 212.466 318.678 217.441C325.698 222.417 335.446 235.489 340.054 233.48C344.663 231.471 351.084 222.596 357.24 226.897C363.396 231.197 380.591 238.07 380.326 243.653C380.061 249.236 380.899 266.283 383.045 270.438C385.191 274.592 387.919 283.903 396.802 282.612C405.686 281.321 406.541 280.611 405.113 275.772C403.685 270.933 405.968 265.744 410.124 271.763C414.279 277.781 418.289 281.5 420.726 286.519C423.163 291.537 424.882 298.547 430.037 299.265C435.193 299.984 439.203 300.838 437.203 294.247C435.202 287.656 433.62 279.483 436.194 281.21C438.767 282.936 441.922 293.965 444.359 294.82C446.796 295.675 443.213 298.402 440.204 302.847C437.194 307.293 439.349 312.585 441.64 315.594C443.932 318.604 441.529 323.331 445.171 323.041C448.814 322.75 455.962 316.312 459.981 320.476C463.999 324.639 463.272 327.922 465.709 330.786C468.146 333.65 472.293 335.061 474.26 332.787C476.226 330.513 479.706 328.512 478.535 336.369C477.363 344.225 476.825 351.988 480.108 349.261C483.391 346.534 489.419 338.951 486.555 334.505C483.691 330.059 476.098 319.185 475.953 314.312C475.807 309.439 468.933 301.847 459.767 293.11C450.601 284.373 434.697 268.762 423.522 261.478C412.347 254.194 388.569 239.413 376.248 231.394C363.927 223.374 328.828 204.182 326.964 201.6C325.1 199.018 287.855 175.815 277.688 168.369C267.522 160.923 210.868 127.504 186.67 107.85C162.473 88.1951 124.963 55.2209 110.445 41.0037C95.9261 26.7864 65.0254 -7.72656 65.0254 -7.72656H-90V397.504C-90 397.504 -68.9065 398.359 -64.0584 394.375C-59.2104 390.391 -41.4172 380.568 -30.2249 375.225C-19.0326 369.882 -13.1243 360.546 -12.4745 358.306C-11.8247 356.066 4.83987 339.028 16.0322 336.796C22.3167 336.018 10.8165 330.692 7.53322 324.896C4.2499 319.099 -5.29222 303.95 -20.469 293.82C-35.6458 283.689 -49.7025 279.406 -45.4102 266.932C-39.9552 268.3 -39.177 272.387 -28.2669 279.012C-17.3567 285.638 17.7166 317.98 18.3066 330.059C18.4092 337.292 38.5708 323.434 51.0371 319.732C63.5034 316.03 82.6048 312.525 104.818 329.666C127.032 346.807 134.83 350.518 146.322 349.329C157.813 348.141 167.757 339.977 169.51 338.421C171.263 336.865 203.609 326.734 220.564 329.871C237.519 333.009 263.042 338.839 277.269 344.294C291.497 349.748 305.323 367.479 313.317 369.42C321.312 371.36 336.506 369.813 339.233 367.71C344.688 368.103 380.54 364.761 387.97 363.786C395.4 362.811 434.347 348.979 432.201 343.524C430.055 338.07 427.327 334.975 420.316 336.146C413.305 337.318 418.76 321.733 424.403 318.612C424.215 309.268 424.599 300.659 418.17 294.068C411.74 287.476 409.705 285.843 401.924 286.262C394.143 286.681 382.147 286.613 378.154 281.286C374.161 275.96 374.366 273.857 368.689 270.908C363.012 267.958 371.639 256.186 372.263 252.613C372.887 249.039 377.103 241.892 368.484 237.891C359.865 233.89 357.121 229.897 351.862 232.428C346.604 234.959 336.933 248.193 334.197 251.775C331.461 255.357 323.68 270.07 321.782 273.011C321.782 273.011 313.959 283.954 315.387 288.707C316.814 293.461 319.405 297.308 315.472 297.752C311.539 298.197 307.52 297.752 306.631 293.11C305.742 288.468 307.161 279.081 305.374 275.952C303.587 272.823 301.355 270.027 297.679 270.352C294.002 270.677 290.531 270.857 289.368 272.113C288.205 273.37 287.102 278.098 286.803 280.996C286.504 283.894 282.938 297.128 281.861 298.385C280.784 299.642 278.826 309.499 279.544 311.431C280.262 313.363 269.89 317.954 266.761 320.185C263.632 322.417 258.536 324.118 260.143 327.418C261.751 330.718 266.761 330.641 268.548 330.726C270.335 330.812 271.657 341.406 272.085 342.449L270.395 341.896C270.395 341.896 269.104 331.915 265.82 331.915C262.537 331.915 260.015 331.256 258.98 329.598C257.946 327.939 256.595 326.024 258.382 323.896C260.169 321.767 264.598 319.544 262.657 317.988C260.716 316.432 258.51 314.124 255.697 314.278C252.884 314.432 232.868 319.595 231.756 320.177C230.645 320.758 233.62 316.834 237.741 315.953C241.863 315.073 246.044 314.397 249.233 312.995C252.422 311.593 257.86 312.14 260.348 314.244C262.836 316.347 263.837 317.467 266.265 316.526C268.693 315.586 277.731 312.132 277.885 310.054C278.039 307.977 277.389 300.71 278.33 298.137C279.27 295.564 278.817 281.158 284.11 275.328C289.402 269.497 289.402 268.352 291.805 268.275C294.207 268.198 301.638 266.565 304.468 270.959C307.298 275.353 308.546 276.644 308.29 280.013C308.033 283.381 307.691 291.007 309.094 292.033C310.496 293.059 313.873 295.906 313.574 292.383C313.275 288.861 312.514 279.867 314.882 278.705C317.251 277.542 321.338 265.855 321.338 265.855Z" fill="white"/>
<path d="M176.866 335.66C176.866 335.66 158.132 334.634 154.207 332.582C150.283 330.53 141.459 326.897 140.339 328.094C139.219 329.291 135.773 333.779 131.788 333.463C127.804 333.146 112.123 334.42 110.207 334.138C108.292 333.856 112.285 335.686 112.285 335.686C112.285 335.686 133.139 336.267 135.149 335.002C137.158 333.736 143.562 332.078 146.965 333.292C150.368 334.506 167.887 339.328 169.93 338.515C171.974 337.703 176.866 335.66 176.866 335.66Z" fill="#DBDBDB"/>
<path d="M317.261 311.884C318.301 311.777 319.115 311.923 319.703 312.324C320.292 312.724 320.631 313.364 320.722 314.245C320.817 315.163 320.617 315.902 320.123 316.462C319.633 317.017 318.887 317.346 317.885 317.45L315.672 317.678L315.386 314.909L314.773 314.972L314.737 314.622L315.35 314.559L315.097 312.108L317.261 311.884ZM317.956 317.056C318.662 316.983 319.181 316.712 319.513 316.244C319.851 315.775 319.978 315.137 319.895 314.331C319.816 313.572 319.571 313.018 319.16 312.669C318.748 312.315 318.181 312.175 317.46 312.25L315.964 312.404L316.178 314.473L317.865 314.299L317.901 314.649L316.214 314.823L316.46 317.211L317.956 317.056ZM328.042 310.771C328.08 311.142 327.991 311.47 327.774 311.755C327.562 312.04 327.256 312.246 326.856 312.373L327.041 314.163C327.121 314.938 326.978 315.553 326.613 316.009C326.246 316.46 325.602 316.733 324.679 316.828C323.755 316.924 323.066 316.788 322.61 316.423C322.159 316.051 321.893 315.478 321.813 314.703L321.477 311.449L322.304 311.363L322.66 314.801C322.721 315.395 322.908 315.834 323.222 316.118C323.535 316.402 324.008 316.512 324.639 316.446C325.26 316.382 325.695 316.182 325.944 315.845C326.199 315.508 326.295 315.037 326.233 314.432L325.877 310.994L326.705 310.909L326.827 312.087C327.034 311.969 327.188 311.795 327.287 311.564C327.392 311.334 327.432 311.091 327.405 310.836L328.042 310.771ZM334.564 310.009C334.599 310.348 334.526 310.653 334.344 310.924C334.168 311.189 333.911 311.395 333.572 311.543C333.815 311.925 333.965 312.392 334.022 312.944C334.085 313.549 334.019 314.081 333.825 314.541C333.631 314.995 333.32 315.359 332.893 315.634C332.471 315.908 331.947 316.078 331.321 316.142C330.695 316.207 330.144 316.149 329.67 315.967C329.195 315.785 328.817 315.492 328.534 315.087C328.25 314.677 328.077 314.169 328.014 313.564C327.953 312.97 328.02 312.449 328.215 311.999C328.409 311.545 328.72 311.183 329.148 310.914C329.576 310.644 330.103 310.477 330.729 310.413C331.312 310.353 331.829 310.398 332.279 310.55C332.734 310.702 333.106 310.953 333.394 311.304C333.59 311.176 333.733 311.001 333.823 310.777C333.917 310.553 333.952 310.318 333.927 310.074L334.564 310.009ZM331.281 315.76C331.971 315.689 332.482 315.417 332.813 314.943C333.145 314.469 333.27 313.831 333.187 313.03C333.106 312.245 332.855 311.66 332.434 311.274C332.019 310.883 331.463 310.723 330.768 310.795C330.073 310.867 329.559 311.134 329.227 311.597C328.894 312.061 328.768 312.688 328.85 313.478C328.933 314.279 329.185 314.878 329.606 315.274C330.028 315.67 330.586 315.832 331.281 315.76ZM329.207 309.227C328.991 309.11 328.877 308.995 328.866 308.884C328.86 308.826 328.876 308.776 328.915 308.734C328.958 308.687 329.02 308.659 329.099 308.651C329.258 308.634 329.406 308.689 329.542 308.814L330.791 309.924L330.512 309.953L329.207 309.227ZM334.765 310.076L335.601 309.99L339.437 313.961L338.991 309.64L339.691 309.568L340.267 315.138L339.853 315.181L335.541 310.728L336.041 315.574L335.341 315.647L334.765 310.076ZM344.386 314.793C343.739 314.86 343.173 314.806 342.688 314.63C342.203 314.45 341.816 314.158 341.528 313.753C341.239 313.349 341.065 312.849 341.003 312.255C340.942 311.661 341.008 311.137 341.203 310.682C341.397 310.228 341.708 309.863 342.135 309.589C342.562 309.309 343.086 309.137 343.706 309.072C344.46 308.995 345.095 309.095 345.612 309.374C346.133 309.648 346.474 310.065 346.634 310.628L345.918 310.702C345.774 310.245 345.517 309.91 345.146 309.696C344.775 309.477 344.316 309.396 343.77 309.452C343.085 309.523 342.572 309.798 342.231 310.278C341.888 310.753 341.757 311.381 341.838 312.161C341.92 312.951 342.179 313.544 342.617 313.938C343.059 314.327 343.638 314.484 344.354 314.41C344.689 314.376 344.99 314.31 345.259 314.212C345.527 314.109 345.778 313.968 346.011 313.789L345.825 311.982L343.875 312.184L343.838 311.825L346.615 311.539L346.845 313.759C346.557 314.041 346.203 314.27 345.782 314.448C345.366 314.625 344.901 314.74 344.386 314.793ZM294.786 324.645L292.43 324.888L292.391 324.506L297.921 323.935L297.961 324.317L295.613 324.559L296.149 329.748L295.322 329.833L294.786 324.645ZM302.021 329.222C301.395 329.286 300.845 329.228 300.371 329.046C299.896 328.865 299.517 328.571 299.234 328.166C298.95 327.756 298.777 327.248 298.715 326.644C298.654 326.049 298.72 325.528 298.915 325.079C299.11 324.624 299.421 324.262 299.849 323.993C300.276 323.724 300.803 323.557 301.429 323.492C302.055 323.427 302.603 323.483 303.071 323.66C303.545 323.836 303.924 324.127 304.207 324.532C304.49 324.932 304.662 325.429 304.723 326.023C304.785 326.628 304.72 327.16 304.526 327.62C304.332 328.074 304.021 328.439 303.593 328.713C303.171 328.987 302.647 329.157 302.021 329.222ZM301.982 328.84C302.672 328.768 303.182 328.496 303.514 328.022C303.846 327.548 303.97 326.91 303.887 326.109C303.806 325.324 303.556 324.739 303.135 324.353C302.719 323.962 302.164 323.802 301.469 323.874C300.774 323.946 300.26 324.213 299.927 324.677C299.594 325.14 299.469 325.767 299.551 326.557C299.633 327.358 299.885 327.957 300.307 328.353C300.729 328.749 301.287 328.911 301.982 328.84ZM302.733 321.009C302.831 320.87 302.931 320.796 303.032 320.785C303.101 320.778 303.158 320.791 303.205 320.824C303.25 320.851 303.276 320.894 303.282 320.952C303.288 321.005 303.267 321.061 303.219 321.12C303.172 321.178 303.084 321.268 302.957 321.388L302.31 321.97L302.047 321.997L302.733 321.009ZM300.976 321.826L301.533 321.768L302.645 322.884L302.255 322.924L301.293 322.171L300.505 323.105L300.115 323.145L300.976 321.826ZM305.466 323.156L306.302 323.069L310.138 327.04L309.692 322.719L310.392 322.647L310.967 328.217L310.554 328.26L306.241 323.807L306.742 328.654L306.042 328.726L305.466 323.156ZM315.087 327.872C314.439 327.939 313.873 327.885 313.389 327.71C312.904 327.529 312.517 327.237 312.229 326.832C311.94 326.428 311.765 325.928 311.704 325.334C311.642 324.74 311.709 324.216 311.903 323.761C312.098 323.307 312.408 322.943 312.836 322.668C313.263 322.388 313.786 322.216 314.407 322.152C315.16 322.074 315.795 322.175 316.312 322.454C316.834 322.727 317.174 323.145 317.334 323.707L316.618 323.781C316.475 323.324 316.217 322.989 315.847 322.775C315.476 322.556 315.017 322.475 314.47 322.531C313.786 322.602 313.273 322.877 312.931 323.358C312.589 323.833 312.458 324.46 312.539 325.24C312.62 326.03 312.88 326.623 313.317 327.017C313.76 327.406 314.339 327.563 315.055 327.489C315.389 327.455 315.691 327.389 315.959 327.291C316.228 327.189 316.479 327.047 316.712 326.868L316.525 325.061L314.576 325.263L314.539 324.905L317.316 324.618L317.545 326.838C317.258 327.12 316.904 327.349 316.482 327.527C316.066 327.704 315.601 327.819 315.087 327.872ZM319.736 321.682L320.652 321.587L323.358 326.061L325.259 321.111L325.8 321.055L323.511 327.002L323.081 327.046L319.736 321.682ZM329.617 324.827L326.41 325.158L325.836 326.682L325.279 326.739L327.592 320.79L328.021 320.746L331.334 326.114L330.443 326.206L329.617 324.827ZM329.395 324.464L327.723 321.677L326.562 324.757L329.395 324.464ZM327.713 320.327C327.325 320.367 327.008 320.301 326.759 320.128C326.515 319.949 326.368 319.689 326.316 319.345L326.595 319.317C326.646 319.547 326.765 319.723 326.955 319.842C327.149 319.962 327.39 320.007 327.676 319.977C327.963 319.947 328.187 319.855 328.347 319.699C328.514 319.542 328.598 319.346 328.6 319.109L328.879 319.081C328.898 319.427 328.805 319.713 328.597 319.938C328.395 320.157 328.1 320.287 327.713 320.327ZM331.422 320.475L332.257 320.389L336.094 324.359L335.647 320.038L336.348 319.966L336.923 325.536L336.509 325.579L332.197 321.127L332.698 325.973L331.997 326.045L331.422 320.475ZM342.75 325.015C341.949 325.098 341.302 325.006 340.808 324.741C340.314 324.476 340.013 324.056 339.906 323.483L340.622 323.409C340.709 323.893 340.922 324.236 341.259 324.437C341.601 324.632 342.079 324.698 342.695 324.635C343.241 324.578 343.648 324.44 343.915 324.219C344.187 323.998 344.304 323.71 344.268 323.354C344.246 323.142 344.172 322.97 344.045 322.838C343.919 322.707 343.715 322.599 343.433 322.516C343.156 322.432 342.771 322.367 342.279 322.321C341.494 322.252 340.894 322.121 340.477 321.928C340.065 321.73 339.837 321.415 339.792 320.986C339.743 320.508 339.929 320.127 340.35 319.842C340.77 319.552 341.344 319.37 342.071 319.295C342.808 319.218 343.395 319.292 343.831 319.515C344.271 319.732 344.548 320.071 344.659 320.531L343.951 320.604C343.832 320.225 343.614 319.964 343.299 319.819C342.989 319.674 342.574 319.629 342.054 319.682C341.55 319.734 341.174 319.856 340.926 320.048C340.683 320.239 340.577 320.481 340.607 320.773C340.625 320.948 340.691 321.091 340.804 321.203C340.918 321.314 341.104 321.408 341.364 321.483C341.629 321.557 342 321.618 342.476 321.665C343.062 321.723 343.534 321.803 343.893 321.905C344.257 322.007 344.538 322.16 344.736 322.365C344.934 322.564 345.05 322.834 345.085 323.173C345.137 323.672 344.952 324.085 344.53 324.413C344.113 324.735 343.519 324.936 342.75 325.015ZM352.278 318.321C352.316 318.692 352.227 319.02 352.01 319.306C351.798 319.59 351.492 319.796 351.092 319.923L351.277 321.714C351.357 322.488 351.215 323.103 350.849 323.559C350.483 324.01 349.838 324.283 348.915 324.378C347.992 324.474 347.302 324.338 346.846 323.973C346.395 323.601 346.129 323.028 346.049 322.254L345.713 318.999L346.541 318.913L346.896 322.351C346.957 322.945 347.145 323.384 347.458 323.668C347.772 323.952 348.244 324.062 348.875 323.996C349.496 323.932 349.931 323.732 350.18 323.395C350.435 323.058 350.531 322.587 350.469 321.982L350.114 318.544L350.941 318.459L351.063 319.637C351.27 319.519 351.424 319.345 351.524 319.114C351.628 318.884 351.668 318.641 351.641 318.387L352.278 318.321ZM358.8 317.559C358.835 317.898 358.762 318.203 358.581 318.474C358.404 318.739 358.147 318.945 357.808 319.093C358.051 319.475 358.202 319.942 358.259 320.494C358.321 321.099 358.255 321.631 358.062 322.091C357.867 322.545 357.556 322.909 357.129 323.184C356.707 323.458 356.183 323.628 355.557 323.692C354.931 323.757 354.381 323.699 353.906 323.517C353.432 323.335 353.053 323.042 352.77 322.637C352.486 322.227 352.313 321.719 352.25 321.114C352.189 320.52 352.256 319.999 352.451 319.55C352.645 319.095 352.956 318.733 353.384 318.464C353.812 318.195 354.339 318.028 354.965 317.963C355.549 317.903 356.065 317.948 356.515 318.1C356.971 318.252 357.342 318.503 357.631 318.854C357.827 318.726 357.969 318.551 358.059 318.327C358.154 318.103 358.188 317.869 358.163 317.625L358.8 317.559ZM355.517 323.31C356.207 323.239 356.718 322.967 357.05 322.493C357.381 322.019 357.506 321.381 357.423 320.58C357.342 319.795 357.091 319.21 356.671 318.824C356.255 318.433 355.699 318.273 355.004 318.345C354.309 318.417 353.796 318.684 353.463 319.147C353.13 319.611 353.004 320.238 353.086 321.028C353.169 321.829 353.421 322.428 353.843 322.824C354.264 323.22 354.822 323.382 355.517 323.31ZM359.002 317.626L359.837 317.54L363.674 321.511L363.227 317.19L363.927 317.118L364.503 322.688L364.089 322.731L359.777 318.278L360.277 323.124L359.577 323.197L359.002 317.626ZM368.622 322.343C367.975 322.41 367.409 322.356 366.924 322.181C366.439 322 366.053 321.708 365.764 321.303C365.476 320.899 365.301 320.399 365.239 319.805C365.178 319.211 365.244 318.687 365.439 318.232C365.633 317.778 365.944 317.413 366.371 317.139C366.798 316.859 367.322 316.687 367.943 316.623C368.696 316.545 369.331 316.645 369.848 316.924C370.369 317.198 370.71 317.615 370.87 318.178L370.154 318.252C370.01 317.795 369.753 317.46 369.382 317.246C369.011 317.027 368.552 316.946 368.006 317.002C367.322 317.073 366.809 317.348 366.467 317.829C366.124 318.304 365.994 318.931 366.074 319.711C366.156 320.501 366.415 321.094 366.853 321.488C367.295 321.877 367.874 322.034 368.591 321.96C368.925 321.926 369.226 321.86 369.495 321.762C369.763 321.659 370.014 321.518 370.247 321.339L370.061 319.532L368.111 319.734L368.074 319.376L370.851 319.089L371.081 321.309C370.794 321.591 370.439 321.82 370.018 321.998C369.602 322.175 369.137 322.29 368.622 322.343Z" fill="#4A3021"/>
<path d="M286.453 304.173C286.453 304.173 290.001 306.55 293.139 306.55C296.277 306.55 357.369 307.978 368.211 291.734" stroke="#4A3021" stroke-width="0.427515" stroke-miterlimit="10"/>
<path d="M-20.25 397.341C-20.25 397.341 -2.02626 388.527 -3.41447 372.181C-4.06429 364.53 2.69899 351.424 13.4125 349.671C24.126 347.919 36.1392 345.303 37.892 344.867C39.6448 344.431 36.3615 346.577 37.892 356.887C39.4225 367.197 44.6639 374.84 43.7917 378.525C42.9196 382.209 34.831 387.681 26.5287 390.502C11.5624 395.936 -4.35434 398.263 -20.25 397.341Z" fill="white"/>
<path d="M155.811 360.844C155.811 360.844 169.902 371.779 176.947 376.592C183.993 381.405 186.96 383.636 197.152 382.525C207.344 381.414 206.608 382.525 206.796 378.447C206.985 374.369 204.018 371.223 198.084 372.702C192.15 374.181 188.439 371.779 189.739 370.291C191.038 368.804 205.497 366.213 208.276 365.102C211.055 363.99 216.988 359.357 216.433 358.613C215.877 357.869 206.42 360.844 204.573 360.101C202.727 359.357 203.641 355.467 212.166 356.023C220.691 356.578 240.16 357.878 244.238 360.844C248.317 363.811 258.517 376.412 261.664 380.114C264.81 383.816 274.087 384.936 281.5 389.382C288.913 393.827 302.637 398.401 308.194 397.324C313.752 396.246 317.839 393.459 319.31 391.057C320.78 388.655 323.021 376.293 320.609 376.72C318.198 377.148 304.295 377.148 303.372 374.369C302.449 371.591 295.215 368.068 289.093 364.734C282.971 361.4 278.901 354.723 261.099 354.168C243.298 353.612 243.494 353.056 237.928 351.945C232.362 350.833 219.759 347.123 213.457 347.491C207.156 347.858 205.676 339.155 213.278 341.746C220.879 344.336 240.108 346.755 238.74 344.9C237.372 343.045 235.893 337.856 230.327 337.112C224.761 336.368 214.936 333.034 209.755 335.077C204.573 337.12 208.045 339.899 204.009 340.078C199.973 340.258 194.552 343.233 191.585 340.455C188.619 337.676 178.606 336.556 176.015 341.01C173.425 345.464 173.228 348.978 168.414 351.569C163.6 354.159 152.955 358.639 155.811 360.844Z" fill="white"/>
<path d="M319.48 400.135C319.48 400.135 324.012 410.283 344.858 407.924C365.703 405.564 395.792 399.375 395.612 397.477C395.433 395.579 386.369 394.912 378.76 391.98C371.15 389.047 362.805 388.56 353.562 384.183C344.319 379.806 336.521 375.634 333.041 379.104C329.561 382.575 325.97 388.714 325.064 391.8C324.157 394.886 321.473 398.323 319.48 400.135Z" fill="white"/>
<path d="M226.045 378.695C232.719 379.391 239.447 379.391 246.121 378.695C255.714 377.473 258.861 379.388 256.937 381.132C255.013 382.876 253.619 383.226 256.244 385.321C258.869 387.415 267.933 390.031 265.316 392.16C262.7 394.289 250.481 399.666 244.898 404.727C239.315 409.788 237.391 416.944 231.277 416.252C225.164 415.559 211.03 412.584 205.447 408.916C199.864 405.249 194.802 398.794 197.94 395.306C201.078 391.818 220.812 380.439 226.045 378.695Z" fill="white"/>
<path d="M-89.2227 424.937V569.94H160.531C160.531 569.94 150.502 533.375 166.842 527.057C183.181 520.739 175.016 517.773 164.618 512.207C154.221 506.642 150.374 503.658 151.742 498.409C153.11 493.159 154.469 493.536 149.989 491.783C145.509 490.03 148.228 488.278 149.989 486.132C151.75 483.986 155.632 487.107 147.843 476.198C140.053 465.289 134.393 465.477 128.357 459.826C122.32 454.175 116.857 452.816 104.416 446.387C91.9752 439.958 73.9683 428.459 67.128 421.056C60.2878 413.652 60.1425 405.077 43.8541 406.249C27.5658 407.42 23.2821 404.539 7.30164 410.925C-8.67887 417.311 -10.0384 418.91 -23.6761 418.722C-37.3138 418.534 -51.5415 416.773 -58.7323 419.303C-65.9231 421.834 -89.2227 424.937 -89.2227 424.937Z" fill="white"/>
<path d="M47.4023 397.283C47.4023 397.283 54.5504 395.676 62.2799 402.002C70.0093 408.328 75.1737 405.746 74.9343 409.97C74.6949 414.193 73.0618 415.099 79.389 420.511C85.7162 425.922 95.0873 429.411 105.399 435.044C115.711 440.678 123.44 442.739 126.723 447.013C130.007 451.288 139.609 451.929 141.011 454.707C142.413 457.486 148.279 457.52 151.793 465.95C155.307 474.379 153.195 478.842 159.762 490.323C166.328 501.805 164.447 500.864 174.297 505.78C184.147 510.696 189.294 509.764 190.697 507.892C192.099 506.02 198.392 498.488 203.12 498.052C204.292 495.94 205.933 494.299 211.551 489.853C217.168 485.408 228.728 471.592 228.147 470.011C227.566 468.429 223.667 467.258 228.147 462.735C232.627 458.213 246.958 437.943 260.561 437.943C274.165 437.943 289.461 439.712 295.558 440.507C301.654 441.302 322.491 436.771 322.491 435.01C322.491 433.249 316.788 428.718 303.612 424.982C290.436 421.246 273.541 420.263 268.821 417.51C264.101 414.757 260.168 412.603 261.126 410.833C262.083 409.064 274.498 415.74 277.251 414.364C280.005 412.988 289.436 408.089 289.222 406.114C289.008 404.139 282.732 405.926 276.644 406.114C270.556 406.302 261.108 403.165 255.021 407.294C248.933 411.423 240.921 421.28 233.26 423.041C225.599 424.803 219.494 426.581 209.473 420.092C199.452 413.603 190.124 409.482 184.951 405.558C179.778 401.634 164.063 400.839 157.376 393.367C150.69 385.895 145.585 378.039 135.949 374.893C126.313 371.746 103.706 367.027 101.329 364.856C98.9521 362.684 75.1823 355.221 74.199 354.238C73.2157 353.255 90.1196 356.007 102.5 360.137C114.881 364.266 115.086 366.036 120.986 367.215C126.886 368.395 126.116 366.232 123.739 362.3C121.362 358.367 120.986 356.204 122.166 355.614C123.346 355.024 121.969 356.597 109.58 351.092C97.1907 345.586 76.5589 336.156 63.1862 341.072C49.8135 345.988 45.4957 351.288 48.4455 359.743C51.3954 368.199 60.4928 386.665 47.4023 397.283Z" fill="white"/>
<path d="M176.122 567.847C176.122 567.847 190.452 505.01 213.435 511.576C236.419 518.142 264.079 519.082 279.555 502.668C279.555 517.672 297.374 548.15 284.685 555.185C271.996 562.221 250.971 564.111 250.792 569.941H175.07L176.122 567.847Z" fill="white"/>
<path d="M289.257 567.879C289.257 567.879 300.937 547.9 293.284 530.895C285.632 513.891 292.105 508.796 295.85 497.742C299.595 486.688 302.014 480.703 299.954 475.445C297.893 470.188 315.968 447.302 328.554 451.653C328.554 451.653 309.419 465.836 319.448 477.959C323.527 471.786 328.101 465.605 327.186 462.399C326.271 459.194 334.275 452.568 345.946 448.678C357.617 444.788 404.755 423.031 411.39 409.352C414.134 405.932 423.128 411.652 431.139 409.352C439.151 407.052 479.56 380.019 481.159 376.129C481.159 376.129 483.288 366.727 493.557 366.727C498.789 366.727 498.338 353.748 514.361 362.22C530.384 370.693 550.272 376.344 553.496 377.865C556.719 379.387 550.742 380.977 548.913 390.356C547.083 399.734 544.107 418.5 546.852 445.07C549.597 471.641 558.301 520.807 563.328 539.564C568.356 558.321 582.549 569.999 571.793 569.999H288.223L289.257 567.879Z" fill="white"/>
<path d="M219.186 498.53C219.186 498.53 234.029 507.293 244.768 504.788C255.508 502.283 254.969 503.078 259.8 502.668C264.631 502.257 274.609 500.411 274.609 494.905C274.609 489.399 282.612 482.141 283.869 480.141C285.126 478.14 296.25 463.897 291.624 461.255C286.998 458.614 288.366 463.76 286.742 463.128C285.117 462.495 281.116 466.633 278.987 467.402C276.858 468.172 273.232 467.445 274.361 464.838C275.49 462.23 279.235 459.434 280.115 458.691C280.996 457.947 287.263 452.561 289.256 452.809C291.248 453.057 293.249 449.928 289.871 448.534C286.494 447.141 283.236 445.029 280.739 447.406C278.243 449.782 276.362 452.783 274.857 451.535C273.352 450.287 272.856 448.534 272.104 447.03C271.351 445.525 266.478 448.654 264.596 451.783C262.715 454.912 263.741 456.784 261.852 457.289C257.747 458.157 253.895 459.953 250.591 462.538C245.957 466.291 234.953 471.668 235.329 474.507C235.705 477.345 235.201 478.132 233.576 479.38C231.951 480.628 231.695 486.766 229.07 488.638C226.445 490.511 216.347 497.025 219.186 498.53Z" fill="white"/>
<path d="M297.277 568.53L302.271 523.587L340.679 473.814L395.614 444.028L422.821 433.701L444.18 418.543L449.267 403.044L464.41 393.99L467.086 400.12V408.284L489.3 456.946L497.055 482.252L492.917 488.459L508.418 537.873L517.028 544.763L523.398 569.941" fill="white"/>
<path d="M297.277 568.53L302.271 523.587L340.679 473.814L395.614 444.028L422.821 433.701L444.18 418.543L449.267 403.044L464.41 393.99L467.086 400.12V408.284L489.3 456.946L497.055 482.252L492.917 488.459L508.418 537.873L517.028 544.763L523.398 569.941" stroke="#4A3021" stroke-width="0.5" stroke-miterlimit="10"/>
<path d="M469.574 569.94L459.1 527.382L386.414 339.702L381.366 301.375C381.275 300.687 380.91 300.065 380.353 299.651L275.142 221.47C274.802 221.218 274.698 220.755 274.898 220.381L289.565 192.904" stroke="#4A3021" stroke-width="3" stroke-miterlimit="10"/>
<path d="M349.057 228.231L279.124 188.212L267.076 177.098L199.444 143.235L189.183 133.899L185.763 126.487C185.763 126.487 117.361 78.9535 95.566 62.9581C73.7713 46.9626 44.9141 -8 44.9141 -8" stroke="#4A3021" stroke-width="3" stroke-miterlimit="10"/>
<path d="M82.733 196.871H79.7369V196.287H87.2372V196.871H84.2412V203.469H82.733V196.871ZM88.059 196.287H89.5776V199.324H93.6509V196.287H95.1695V203.469H93.6509V199.908H89.5776V203.469H88.059V196.287ZM101.786 201.632H97.9694L97.0768 203.469H96.0302L99.765 196.184H100.688L104.208 203.469H102.648L101.786 201.632ZM101.509 201.047L99.9189 197.651L98.2567 201.047H101.509ZM98.3388 194.46C98.0583 194.275 97.9181 194.104 97.9181 193.947C97.9181 193.851 97.9557 193.776 98.031 193.721C98.1062 193.667 98.2054 193.639 98.3285 193.639C98.4653 193.639 98.5885 193.663 98.6979 193.711C98.8073 193.759 98.9099 193.838 99.0057 193.947L100.411 195.568H99.9189L98.3388 194.46ZM105.083 196.287H106.581L110.49 201.376V196.287H111.885V203.469H110.921L106.478 197.62V203.469H105.083V196.287ZM113.369 196.287H114.888V199.324H118.961V196.287H120.48V203.469H118.961V199.908H114.888V203.469H113.369V196.287ZM124.852 196.287H127.766C128.812 196.287 129.619 196.461 130.187 196.81C130.762 197.152 131.049 197.716 131.049 198.503C131.049 199.283 130.769 199.847 130.208 200.196C129.647 200.545 128.833 200.719 127.766 200.719H126.37V203.469H124.852V196.287ZM127.786 200.124C128.368 200.124 128.805 200.004 129.1 199.765C129.394 199.525 129.541 199.105 129.541 198.503C129.541 197.914 129.394 197.497 129.1 197.251C128.812 196.998 128.375 196.871 127.786 196.871H126.37V200.124H127.786ZM132.016 196.287H133.535V199.324H137.608V196.287H139.127V203.469H137.608V199.908H133.535V203.469H132.016V196.287ZM144.481 203.571C143.64 203.571 142.912 203.424 142.296 203.13C141.687 202.836 141.222 202.412 140.901 201.858C140.579 201.297 140.418 200.627 140.418 199.847C140.418 199.081 140.579 198.424 140.901 197.877C141.229 197.33 141.697 196.912 142.306 196.625C142.915 196.331 143.64 196.184 144.481 196.184C145.316 196.184 146.034 196.331 146.636 196.625C147.245 196.912 147.71 197.33 148.032 197.877C148.36 198.424 148.524 199.081 148.524 199.847C148.524 200.627 148.363 201.297 148.042 201.858C147.72 202.412 147.255 202.836 146.646 203.13C146.038 203.424 145.316 203.571 144.481 203.571ZM144.481 202.987C145.289 202.987 145.908 202.72 146.339 202.186C146.769 201.646 146.985 200.866 146.985 199.847C146.985 198.848 146.769 198.085 146.339 197.559C145.908 197.032 145.289 196.769 144.481 196.769C143.667 196.769 143.042 197.036 142.604 197.569C142.173 198.096 141.957 198.855 141.957 199.847C141.957 200.866 142.173 201.646 142.604 202.186C143.035 202.72 143.661 202.987 144.481 202.987ZM146.421 193.075C146.551 192.911 146.708 192.829 146.893 192.829C147.002 192.829 147.088 192.853 147.149 192.901C147.218 192.948 147.252 193.013 147.252 193.096C147.252 193.164 147.207 193.246 147.118 193.342C147.036 193.431 146.896 193.554 146.698 193.711L145.979 194.265H145.518L146.421 193.075ZM144.04 193.916H144.923L146.287 195.568H145.559L144.481 194.553L143.404 195.568H142.676L144.04 193.916ZM94.5219 209.287H96.0404V212.324H100.114V209.287H101.632V216.469H100.114V212.908H96.0404V216.469H94.5219V209.287ZM106.987 216.571C106.146 216.571 105.417 216.424 104.802 216.13C104.193 215.836 103.728 215.412 103.406 214.858C103.085 214.297 102.924 213.627 102.924 212.847C102.924 212.081 103.085 211.424 103.406 210.877C103.735 210.33 104.203 209.912 104.812 209.625C105.421 209.331 106.146 209.184 106.987 209.184C107.822 209.184 108.54 209.331 109.142 209.625C109.751 209.912 110.216 210.33 110.537 210.877C110.865 211.424 111.03 212.081 111.03 212.847C111.03 213.627 110.869 214.297 110.547 214.858C110.226 215.412 109.761 215.836 109.152 216.13C108.543 216.424 107.822 216.571 106.987 216.571ZM106.987 215.987C107.794 215.987 108.413 215.72 108.844 215.186C109.275 214.646 109.491 213.866 109.491 212.847C109.491 211.848 109.275 211.085 108.844 210.559C108.413 210.032 107.794 209.769 106.987 209.769C106.173 209.769 105.547 210.036 105.109 210.569C104.678 211.096 104.463 211.855 104.463 212.847C104.463 213.866 104.678 214.646 105.109 215.186C105.54 215.72 106.166 215.987 106.987 215.987ZM106.987 218.151C106.796 218.151 106.638 218.093 106.515 217.977C106.392 217.861 106.33 217.71 106.33 217.526C106.33 217.348 106.392 217.197 106.515 217.074C106.638 216.958 106.796 216.9 106.987 216.9C107.179 216.9 107.336 216.958 107.459 217.074C107.582 217.197 107.644 217.348 107.644 217.526C107.644 217.71 107.582 217.861 107.459 217.977C107.336 218.093 107.179 218.151 106.987 218.151ZM106.546 206.916H107.428L108.793 208.568H108.064L106.987 207.553L105.91 208.568H105.181L106.546 206.916ZM112.717 209.287H114.235V216.469H112.717V209.287ZM124.131 214.632H120.314L119.421 216.469H118.375L122.109 209.184H123.033L126.552 216.469H124.992L124.131 214.632ZM123.854 214.047L122.263 210.651L120.601 214.047H123.854ZM127.427 209.287H128.925L132.834 214.376V209.287H134.23V216.469H133.265L128.823 210.62V216.469H127.427V209.287Z" fill="#4A3021"/>
<path d="M70.7322 118.332C69.7776 118.332 69.0442 118.081 68.5322 117.58C68.0202 117.079 67.7642 116.361 67.7642 115.428C67.7642 114.516 68.0176 113.812 68.5242 113.316C69.0362 112.82 69.7669 112.572 70.7162 112.572C71.4896 112.572 72.1189 112.735 72.6042 113.06C73.0896 113.385 73.3776 113.839 73.4682 114.42H72.7482C72.6576 113.961 72.4362 113.604 72.0842 113.348C71.7322 113.087 71.2896 112.956 70.7562 112.956C70.0629 112.956 69.5296 113.169 69.1562 113.596C68.7882 114.023 68.6042 114.633 68.6042 115.428C68.6042 116.239 68.7909 116.863 69.1642 117.3C69.5376 117.732 70.0736 117.948 70.7722 117.948C71.3056 117.948 71.7456 117.82 72.0922 117.564C72.4389 117.308 72.6576 116.948 72.7482 116.484H73.4682C73.3776 117.065 73.0896 117.519 72.6042 117.844C72.1189 118.169 71.4949 118.332 70.7322 118.332ZM78.3613 116.796H75.1373L74.4093 118.252H73.8493L76.7613 112.572H77.1933L79.9373 118.252H79.0413L78.3613 116.796ZM78.1773 116.412L76.8013 113.468L75.3293 116.412H78.1773ZM77.6973 110.932C77.6867 110.889 77.6813 110.855 77.6813 110.828C77.6813 110.748 77.7 110.684 77.7373 110.636C77.78 110.588 77.844 110.535 77.9293 110.476C78.0093 110.423 78.0707 110.369 78.1133 110.316C78.156 110.263 78.1773 110.199 78.1773 110.124C78.1773 110.06 78.156 110.007 78.1133 109.964C78.0707 109.921 78.004 109.9 77.9133 109.9C77.8173 109.9 77.7453 109.924 77.6973 109.972C77.6547 110.02 77.6307 110.076 77.6253 110.14H77.3133C77.3133 110.001 77.372 109.892 77.4893 109.812C77.6067 109.732 77.756 109.692 77.9373 109.692C78.1187 109.692 78.2627 109.732 78.3693 109.812C78.476 109.892 78.5293 110.001 78.5293 110.14C78.5293 110.241 78.5053 110.321 78.4573 110.38C78.4093 110.433 78.3373 110.495 78.2413 110.564C78.172 110.607 78.1187 110.649 78.0813 110.692C78.0493 110.729 78.0333 110.775 78.0333 110.828C78.0333 110.865 78.0413 110.9 78.0573 110.932H77.6973ZM76.6493 110.868H77.2093L78.2013 112.092H77.8093L76.9293 111.244L76.0493 112.092H75.6573L76.6493 110.868ZM86.8357 112.652V118.252H86.0037V113.548L83.8277 118.252H83.4357L81.0997 113.484V118.252H80.6037V112.652H81.5557L83.7877 117.26L85.9237 112.652H86.8357ZM90.1506 112.652H90.9826V115.06H94.5746V112.652H95.4066V118.252H94.5746V115.436H90.9826V118.252H90.1506V112.652ZM100.58 116.796H97.3561L96.6281 118.252H96.0681L98.9801 112.572H99.4121L102.156 118.252H101.26L100.58 116.796ZM100.396 116.412L99.0201 113.468L97.5481 116.412H100.396ZM97.7721 111.236C97.5694 111.097 97.4681 110.972 97.4681 110.86C97.4681 110.801 97.4894 110.753 97.5321 110.716C97.5801 110.673 97.6441 110.652 97.7241 110.652C97.8841 110.652 98.0254 110.721 98.1481 110.86L99.2761 112.092H98.9961L97.7721 111.236Z" fill="#4A3021"/>
<path d="M134.861 426.957C133.906 426.957 133.173 426.706 132.661 426.205C132.149 425.704 131.893 424.986 131.893 424.053C131.893 423.141 132.146 422.437 132.653 421.941C133.165 421.445 133.896 421.197 134.845 421.197C135.618 421.197 136.248 421.36 136.733 421.685C137.218 422.01 137.506 422.464 137.597 423.045H136.877C136.786 422.586 136.565 422.229 136.213 421.973C135.861 421.712 135.418 421.581 134.885 421.581C134.192 421.581 133.658 421.794 133.285 422.221C132.917 422.648 132.733 423.258 132.733 424.053C132.733 424.864 132.92 425.488 133.293 425.925C133.666 426.357 134.202 426.573 134.901 426.573C135.434 426.573 135.874 426.445 136.221 426.189C136.568 425.933 136.786 425.573 136.877 425.109H137.597C137.506 425.69 137.218 426.144 136.733 426.469C136.248 426.794 135.624 426.957 134.861 426.957ZM142.49 425.421H139.266L138.538 426.877H137.978L140.89 421.197H141.322L144.066 426.877H143.17L142.49 425.421ZM142.306 425.037L140.93 422.093L139.458 425.037H142.306ZM141.826 419.557C141.816 419.514 141.81 419.48 141.81 419.453C141.81 419.373 141.829 419.309 141.866 419.261C141.909 419.213 141.973 419.16 142.058 419.101C142.138 419.048 142.2 418.994 142.242 418.941C142.285 418.888 142.306 418.824 142.306 418.749C142.306 418.685 142.285 418.632 142.242 418.589C142.2 418.546 142.133 418.525 142.042 418.525C141.946 418.525 141.874 418.549 141.826 418.597C141.784 418.645 141.76 418.701 141.754 418.765H141.442C141.442 418.626 141.501 418.517 141.618 418.437C141.736 418.357 141.885 418.317 142.066 418.317C142.248 418.317 142.392 418.357 142.498 418.437C142.605 418.517 142.658 418.626 142.658 418.765C142.658 418.866 142.634 418.946 142.586 419.005C142.538 419.058 142.466 419.12 142.37 419.189C142.301 419.232 142.248 419.274 142.21 419.317C142.178 419.354 142.162 419.4 142.162 419.453C142.162 419.49 142.17 419.525 142.186 419.557H141.826ZM140.778 419.493H141.338L142.33 420.717H141.938L141.058 419.869L140.178 420.717H139.786L140.778 419.493ZM150.965 421.277V426.877H150.133V422.173L147.957 426.877H147.565L145.229 422.109V426.877H144.733V421.277H145.685L147.917 425.885L150.053 421.277H150.965ZM156.104 424.125L155.112 425.117V426.877H154.28V421.277H155.112V424.373L158.24 421.277H158.96L156.664 423.565L159.208 426.877H158.224L156.104 424.125ZM160.248 421.277H161.08V426.877H160.248V421.277ZM168.824 421.277V426.877H167.992V422.173L165.816 426.877H165.424L163.088 422.109V426.877H162.592V421.277H163.544L165.776 425.885L167.912 421.277H168.824Z" fill="#4A3021"/>
<path d="M52.1039 496.509H54.2799C55.3252 496.509 56.1199 496.739 56.6639 497.197C57.2079 497.656 57.4799 498.328 57.4799 499.213C57.4799 500.136 57.2052 500.851 56.6559 501.357C56.1119 501.859 55.3359 502.109 54.3279 502.109H52.1039V496.509ZM54.4399 501.725C55.1492 501.725 55.6932 501.509 56.0719 501.077C56.4559 500.645 56.6479 500.024 56.6479 499.213C56.6479 498.451 56.4612 497.875 56.0879 497.485C55.7146 497.091 55.1652 496.893 54.4399 496.893H52.9359V501.725H54.4399ZM61.1498 502.189C60.2218 502.189 59.5498 501.984 59.1338 501.573C58.7231 501.157 58.5178 500.56 58.5178 499.781V496.509H59.3498V499.965C59.3498 500.563 59.4911 501.019 59.7738 501.333C60.0564 501.648 60.5151 501.805 61.1498 501.805C61.7738 501.805 62.2271 501.651 62.5098 501.341C62.7978 501.032 62.9418 500.573 62.9418 499.965V496.509H63.7738V499.781C63.7738 500.56 63.5684 501.157 63.1578 501.573C62.7471 501.984 62.0778 502.189 61.1498 502.189ZM66.7953 499.677L64.3953 496.509H65.2993L67.3393 499.189L69.5393 496.509H70.1233L67.6273 499.557V502.109H66.7953V499.677ZM72.8693 496.509H74.9893C75.7573 496.509 76.352 496.651 76.7733 496.933C77.1947 497.216 77.4053 497.648 77.4053 498.229C77.4053 498.805 77.1973 499.235 76.7813 499.517C76.3653 499.8 75.768 499.941 74.9893 499.941H73.7013V502.109H72.8693V496.509ZM75.0053 499.557C76.0507 499.557 76.5733 499.115 76.5733 498.229C76.5733 497.339 76.0507 496.893 75.0053 496.893H73.7013V499.557H75.0053ZM78.1818 496.509H79.0138V498.917H82.6058V496.509H83.4378V502.109H82.6058V499.293H79.0138V502.109H78.1818V496.509ZM91.2193 496.509C91.2193 496.883 91.0967 497.2 90.8513 497.461C90.6113 497.723 90.286 497.896 89.8753 497.981V499.781C89.8753 500.56 89.67 501.157 89.2593 501.573C88.8487 501.984 88.1793 502.189 87.2513 502.189C86.3233 502.189 85.6513 501.984 85.2353 501.573C84.8247 501.157 84.6193 500.56 84.6193 499.781V496.509H85.4513V499.965C85.4513 500.563 85.5927 501.019 85.8753 501.333C86.158 501.648 86.6167 501.805 87.2513 501.805C87.8753 501.805 88.3287 501.651 88.6113 501.341C88.8993 501.032 89.0433 500.573 89.0433 499.965V496.509H89.8753V497.693C90.094 497.597 90.2647 497.44 90.3873 497.221C90.5153 497.003 90.5793 496.765 90.5793 496.509H91.2193ZM97.7848 496.421C97.7848 496.763 97.6808 497.059 97.4728 497.309C97.2702 497.555 96.9928 497.733 96.6408 497.845C96.8435 498.251 96.9448 498.731 96.9448 499.285C96.9448 499.893 96.8248 500.416 96.5848 500.853C96.3448 501.285 95.9982 501.616 95.5448 501.845C95.0968 502.075 94.5582 502.189 93.9288 502.189C93.2995 502.189 92.7582 502.075 92.3048 501.845C91.8515 501.616 91.5048 501.285 91.2648 500.853C91.0248 500.416 90.9048 499.893 90.9048 499.285C90.9048 498.688 91.0248 498.176 91.2648 497.749C91.5048 497.317 91.8515 496.989 92.3048 496.765C92.7582 496.541 93.2995 496.429 93.9288 496.429C94.5155 496.429 95.0248 496.528 95.4568 496.725C95.8942 496.923 96.2382 497.211 96.4888 497.589C96.6968 497.483 96.8568 497.323 96.9688 497.109C97.0862 496.896 97.1448 496.667 97.1448 496.421H97.7848ZM93.9288 501.805C94.6222 501.805 95.1582 501.587 95.5368 501.149C95.9155 500.712 96.1048 500.091 96.1048 499.285C96.1048 498.496 95.9155 497.888 95.5368 497.461C95.1635 497.029 94.6275 496.813 93.9288 496.813C93.2302 496.813 92.6915 497.027 92.3128 497.453C91.9342 497.88 91.7448 498.491 91.7448 499.285C91.7448 500.091 91.9342 500.712 92.3128 501.149C92.6915 501.587 93.2302 501.805 93.9288 501.805ZM94.9128 494.717C95.0355 494.579 95.1768 494.509 95.3368 494.509C95.4168 494.509 95.4782 494.531 95.5208 494.573C95.5688 494.611 95.5928 494.659 95.5928 494.717C95.5928 494.829 95.4915 494.955 95.2888 495.093L94.0648 495.949H93.7848L94.9128 494.717ZM100.795 502.189C99.8401 502.189 99.1067 501.939 98.5947 501.437C98.0827 500.936 97.8267 500.219 97.8267 499.285C97.8267 498.373 98.0801 497.669 98.5867 497.173C99.0987 496.677 99.8294 496.429 100.779 496.429C101.552 496.429 102.181 496.592 102.667 496.917C103.152 497.243 103.44 497.696 103.531 498.277H102.811C102.72 497.819 102.499 497.461 102.147 497.205C101.795 496.944 101.352 496.813 100.819 496.813C100.125 496.813 99.5921 497.027 99.2187 497.453C98.8507 497.88 98.6667 498.491 98.6667 499.285C98.6667 500.096 98.8534 500.72 99.2267 501.157C99.6001 501.589 100.136 501.805 100.835 501.805C101.368 501.805 101.808 501.677 102.155 501.421C102.501 501.165 102.72 500.805 102.811 500.341H103.531C103.44 500.923 103.152 501.376 102.667 501.701C102.181 502.027 101.557 502.189 100.795 502.189Z" fill="#4A3021"/>
<path d="M322.6 533.4H324.776C325.821 533.4 326.616 533.629 327.16 534.088C327.704 534.547 327.976 535.219 327.976 536.104C327.976 537.027 327.701 537.741 327.152 538.248C326.608 538.749 325.832 539 324.824 539H322.6V533.4ZM324.936 538.616C325.645 538.616 326.189 538.4 326.568 537.968C326.952 537.536 327.144 536.915 327.144 536.104C327.144 535.341 326.957 534.765 326.584 534.376C326.211 533.981 325.661 533.784 324.936 533.784H323.432V538.616H324.936ZM331.646 539.08C330.718 539.08 330.046 538.875 329.63 538.464C329.219 538.048 329.014 537.451 329.014 536.672V533.4H329.846V536.856C329.846 537.453 329.987 537.909 330.27 538.224C330.553 538.539 331.011 538.696 331.646 538.696C332.27 538.696 332.723 538.541 333.006 538.232C333.294 537.923 333.438 537.464 333.438 536.856V533.4H334.27V536.672C334.27 537.451 334.065 538.048 333.654 538.464C333.243 538.875 332.574 539.08 331.646 539.08ZM337.291 536.568L334.891 533.4H335.795L337.835 536.08L340.035 533.4H340.619L338.123 536.448V539H337.291V536.568ZM343.365 533.4H344.205L347.613 537.744V533.4H348.317V539H347.901L344.069 534.128V539H343.365V533.4ZM352.45 539.08C351.8 539.08 351.242 538.968 350.778 538.744C350.314 538.515 349.96 538.184 349.714 537.752C349.469 537.32 349.346 536.805 349.346 536.208C349.346 535.611 349.466 535.096 349.706 534.664C349.946 534.232 350.293 533.901 350.746 533.672C351.2 533.437 351.738 533.32 352.362 533.32C353.12 533.32 353.741 533.485 354.226 533.816C354.717 534.141 355.013 534.592 355.114 535.168H354.394C354.298 534.699 354.077 534.339 353.73 534.088C353.384 533.832 352.936 533.704 352.386 533.704C351.698 533.704 351.16 533.925 350.77 534.368C350.381 534.805 350.186 535.416 350.186 536.2C350.186 536.995 350.384 537.611 350.778 538.048C351.178 538.48 351.738 538.696 352.458 538.696C352.794 538.696 353.101 538.661 353.378 538.592C353.656 538.517 353.92 538.403 354.17 538.248V536.432H352.21V536.072H355.002V538.304C354.688 538.555 354.312 538.747 353.874 538.88C353.442 539.013 352.968 539.08 352.45 539.08ZM356.147 533.4H356.979V535.808H360.571V533.4H361.403V539H360.571V536.184H356.979V539H356.147V533.4ZM362.912 533.4H363.744V539H362.912V533.4ZM361.936 532.84C361.936 532.573 362.011 532.357 362.16 532.192C362.315 532.027 362.515 531.944 362.76 531.944C362.91 531.944 363.04 531.973 363.152 532.032C363.27 532.085 363.392 532.163 363.52 532.264C363.611 532.339 363.694 532.397 363.768 532.44C363.843 532.483 363.918 532.504 363.992 532.504C364.131 532.504 364.248 532.453 364.344 532.352C364.446 532.245 364.502 532.109 364.512 531.944H364.72C364.72 532.205 364.643 532.421 364.488 532.592C364.339 532.757 364.144 532.84 363.904 532.84C363.75 532.84 363.619 532.816 363.512 532.768C363.411 532.715 363.299 532.64 363.176 532.544C363.091 532.475 363.016 532.424 362.952 532.392C362.888 532.355 362.814 532.336 362.728 532.336C362.563 532.336 362.427 532.384 362.32 532.48C362.214 532.571 362.158 532.691 362.152 532.84H361.936ZM369.248 537.544H366.024L365.296 539H364.736L367.648 533.32H368.08L370.824 539H369.928L369.248 537.544ZM369.064 537.16L367.688 534.216L366.216 537.16H369.064Z" fill="#4A3021"/>
<path d="M318.486 448.861C317.77 449.229 317.134 449.38 316.577 449.312C316.02 449.245 315.588 448.964 315.279 448.469L315.919 448.139C316.177 448.558 316.499 448.8 316.887 448.865C317.276 448.923 317.746 448.81 318.296 448.527C318.785 448.275 319.113 447.999 319.281 447.696C319.454 447.391 319.459 447.08 319.295 446.762C319.198 446.572 319.066 446.439 318.901 446.362C318.735 446.286 318.506 446.26 318.213 446.284C317.924 446.307 317.542 446.386 317.067 446.523C316.311 446.744 315.704 446.841 315.245 446.813C314.789 446.777 314.463 446.568 314.265 446.183C314.045 445.757 314.08 445.334 314.368 444.916C314.654 444.493 315.122 444.114 315.772 443.78C316.431 443.44 317.004 443.296 317.492 443.345C317.981 443.387 318.362 443.602 318.633 443.99L318 444.316C317.751 444.006 317.453 443.841 317.107 443.821C316.766 443.799 316.363 443.908 315.898 444.147C315.447 444.379 315.141 444.629 314.98 444.898C314.823 445.165 314.812 445.428 314.946 445.689C315.027 445.846 315.14 445.955 315.286 446.018C315.433 446.081 315.64 446.1 315.91 446.075C316.184 446.048 316.551 445.97 317.012 445.84C317.578 445.681 318.047 445.584 318.419 445.549C318.795 445.511 319.113 445.551 319.372 445.67C319.629 445.784 319.835 445.993 319.991 446.296C320.221 446.742 320.198 447.194 319.925 447.653C319.653 448.104 319.174 448.507 318.486 448.861ZM324.21 445.916C323.651 446.204 323.117 446.349 322.609 446.353C322.101 446.356 321.641 446.221 321.23 445.947C320.816 445.668 320.471 445.258 320.192 444.717C319.919 444.186 319.791 443.676 319.81 443.187C319.825 442.693 319.983 442.243 320.284 441.836C320.585 441.429 321.015 441.082 321.574 440.794C322.134 440.506 322.664 440.359 323.165 440.354C323.671 440.345 324.129 440.478 324.54 440.753C324.949 441.022 325.29 441.423 325.563 441.954C325.841 442.494 325.974 443.014 325.961 443.513C325.945 444.007 325.788 444.459 325.49 444.87C325.196 445.279 324.77 445.628 324.21 445.916ZM324.034 445.574C324.651 445.257 325.027 444.817 325.164 444.255C325.301 443.693 325.185 443.054 324.816 442.338C324.455 441.636 324.008 441.182 323.476 440.976C322.947 440.763 322.371 440.816 321.75 441.136C321.129 441.455 320.747 441.891 320.606 442.444C320.464 442.997 320.576 443.626 320.939 444.333C321.308 445.049 321.76 445.515 322.297 445.73C322.834 445.946 323.413 445.894 324.034 445.574ZM320.546 439.407L321.044 439.151L322.486 439.785L322.137 439.965L320.967 439.613L320.572 440.77L320.224 440.949L320.546 439.407ZM325.212 439.012L325.959 438.628L330.977 440.931L328.989 437.069L329.615 436.747L332.178 441.726L331.808 441.916L326.171 439.338L328.401 443.67L327.775 443.992L325.212 439.012ZM335.89 439.906C335.311 440.204 334.764 440.359 334.249 440.373C333.732 440.381 333.265 440.249 332.849 439.977C332.433 439.705 332.089 439.304 331.815 438.773C331.542 438.242 331.413 437.729 331.429 437.235C331.444 436.741 331.601 436.289 331.9 435.877C332.195 435.461 332.621 435.111 333.175 434.825C333.849 434.479 334.477 434.341 335.06 434.413C335.645 434.478 336.115 434.743 336.468 435.209L335.828 435.539C335.528 435.165 335.166 434.946 334.743 434.882C334.318 434.813 333.861 434.904 333.373 435.156C332.761 435.47 332.383 435.914 332.239 436.485C332.093 437.052 332.2 437.684 332.558 438.381C332.922 439.088 333.379 439.545 333.931 439.754C334.484 439.955 335.081 439.891 335.721 439.561C336.02 439.408 336.277 439.236 336.491 439.048C336.704 438.855 336.886 438.632 337.038 438.38L336.207 436.765L334.464 437.662L334.3 437.342L336.782 436.064L337.804 438.049C337.639 438.416 337.392 438.758 337.064 439.077C336.741 439.393 336.35 439.67 335.89 439.906ZM340.286 431.689L338.18 432.772L338.004 432.431L342.948 429.887L343.124 430.228L341.026 431.308L343.412 435.946L342.673 436.326L340.286 431.689ZM343.538 429.583L344.278 429.203L345.38 431.344L348.574 429.7L347.472 427.559L348.212 427.179L350.774 432.158L350.034 432.539L348.746 430.035L345.552 431.678L346.84 434.182L346.101 434.563L343.538 429.583ZM354.202 430.484C353.377 430.909 352.685 431.034 352.127 430.859C351.572 430.677 351.116 430.24 350.76 429.547L349.262 426.638L350.002 426.257L351.584 429.33C351.857 429.861 352.191 430.202 352.587 430.353C352.982 430.503 353.462 430.433 354.026 430.143C354.581 429.857 354.913 429.512 355.023 429.108C355.138 428.701 355.056 428.228 354.778 427.687L353.196 424.614L353.936 424.233L355.433 427.143C355.789 427.835 355.88 428.46 355.705 429.018C355.528 429.571 355.027 430.06 354.202 430.484ZM356.876 422.721L359.195 421.527C359.793 421.22 360.321 421.08 360.779 421.108C361.237 421.136 361.559 421.331 361.745 421.691C361.903 421.999 361.914 422.33 361.778 422.682C361.638 423.029 361.381 423.339 361.005 423.61C361.572 423.384 362.049 423.298 362.437 423.35C362.821 423.398 363.115 423.619 363.317 424.013C363.539 424.444 363.532 424.868 363.296 425.283C363.058 425.694 362.602 426.072 361.928 426.419L359.439 427.7L356.876 422.721ZM360.071 423.893C360.55 423.646 360.873 423.372 361.041 423.07C361.207 422.762 361.205 422.443 361.034 422.111C360.882 421.817 360.649 421.661 360.334 421.643C360.019 421.625 359.615 421.743 359.122 421.997L357.792 422.681L358.762 424.566L360.071 423.893ZM361.824 426.041C362.222 425.836 362.486 425.586 362.617 425.291C362.747 424.996 362.728 424.685 362.559 424.358C362.381 424.012 362.094 423.833 361.698 423.82C361.304 423.801 360.806 423.946 360.204 424.256L358.937 424.908L360.003 426.978L361.824 426.041ZM367.364 423.712C366.805 424 366.271 424.146 365.763 424.149C365.255 424.153 364.795 424.017 364.384 423.743C363.97 423.464 363.625 423.054 363.346 422.513C363.073 421.982 362.945 421.472 362.964 420.983C362.979 420.489 363.137 420.039 363.438 419.632C363.739 419.226 364.169 418.878 364.728 418.59C365.288 418.302 365.818 418.156 366.319 418.15C366.825 418.142 367.283 418.275 367.694 418.549C368.103 418.818 368.444 419.219 368.717 419.75C368.995 420.291 369.128 420.81 369.115 421.309C369.099 421.803 368.942 422.255 368.644 422.667C368.35 423.076 367.924 423.424 367.364 423.712ZM367.188 423.37C367.805 423.053 368.182 422.614 368.318 422.051C368.455 421.489 368.339 420.85 367.97 420.134C367.609 419.432 367.162 418.978 366.63 418.772C366.101 418.559 365.525 418.612 364.904 418.932C364.283 419.251 363.901 419.688 363.76 420.24C363.619 420.793 363.73 421.422 364.093 422.129C364.462 422.845 364.915 423.311 365.451 423.527C365.988 423.742 366.567 423.69 367.188 423.37ZM364.44 416.562C364.275 416.532 364.154 416.508 364.078 416.487C364.003 416.459 363.954 416.422 363.93 416.374C363.903 416.322 363.901 416.272 363.924 416.224C363.945 416.171 363.986 416.129 364.048 416.097C364.143 416.049 364.265 416.058 364.413 416.125L365.535 416.574L365.293 416.698L364.44 416.562ZM363.7 417.203L364.198 416.947L365.64 417.582L365.291 417.761L364.121 417.41L363.726 418.566L363.378 418.746L363.7 417.203ZM368.366 416.809L369.113 416.424L374.131 418.728L372.143 414.865L372.769 414.543L375.332 419.522L374.962 419.713L369.325 417.134L371.555 421.466L370.929 421.788L368.366 416.809Z" fill="#4A3021"/>
<path d="M134.287 363.166C133.63 362.701 133.202 362.206 133.005 361.681C132.808 361.157 132.857 360.643 133.154 360.141L133.742 360.556C133.489 360.978 133.423 361.376 133.545 361.749C133.674 362.121 133.991 362.486 134.496 362.843C134.945 363.16 135.342 363.323 135.688 363.333C136.038 363.345 136.317 363.205 136.523 362.914C136.646 362.739 136.704 362.561 136.695 362.379C136.687 362.197 136.604 361.981 136.446 361.733C136.293 361.488 136.046 361.186 135.705 360.827C135.16 360.259 134.794 359.765 134.607 359.346C134.428 358.925 134.463 358.538 134.712 358.186C134.989 357.794 135.38 357.629 135.884 357.691C136.392 357.75 136.944 357.99 137.541 358.411C138.146 358.839 138.539 359.281 138.721 359.735C138.91 360.189 138.895 360.626 138.676 361.046L138.095 360.635C138.254 360.271 138.263 359.931 138.12 359.615C137.982 359.302 137.7 358.994 137.273 358.693C136.859 358.4 136.496 358.245 136.183 358.226C135.874 358.21 135.635 358.322 135.465 358.561C135.364 358.705 135.319 358.856 135.331 359.015C135.343 359.173 135.422 359.366 135.568 359.594C135.719 359.824 135.958 360.114 136.286 360.464C136.688 360.892 136.991 361.263 137.194 361.576C137.402 361.892 137.513 362.193 137.527 362.477C137.545 362.757 137.455 363.037 137.258 363.315C136.968 363.725 136.557 363.914 136.024 363.883C135.498 363.851 134.919 363.612 134.287 363.166ZM139.545 366.881C139.031 366.518 138.655 366.112 138.417 365.663C138.179 365.214 138.087 364.744 138.14 364.252C138.197 363.757 138.4 363.261 138.751 362.764C139.096 362.277 139.49 361.928 139.932 361.718C140.377 361.504 140.85 361.436 141.349 361.515C141.849 361.593 142.356 361.814 142.869 362.177C143.383 362.541 143.759 362.943 143.995 363.384C144.236 363.829 144.33 364.297 144.276 364.788C144.226 365.275 144.029 365.762 143.684 366.25C143.333 366.747 142.933 367.104 142.485 367.323C142.039 367.537 141.565 367.607 141.063 367.533C140.565 367.461 140.058 367.244 139.545 366.881ZM139.766 366.567C140.332 366.967 140.896 367.098 141.458 366.96C142.02 366.821 142.533 366.423 142.998 365.765C143.454 365.121 143.65 364.515 143.587 363.948C143.531 363.38 143.218 362.894 142.648 362.491C142.077 362.088 141.514 361.951 140.959 362.081C140.403 362.211 139.896 362.6 139.437 363.249C138.972 363.907 138.768 364.523 138.825 365.099C138.882 365.675 139.196 366.164 139.766 366.567ZM143.624 360.624L144.082 360.948L144.185 362.52L143.865 362.293L143.636 361.093L142.428 361.278L142.108 361.051L143.624 360.624ZM146.131 364.58L146.817 365.065L147.092 370.579L149.6 367.032L150.175 367.438L146.942 372.011L146.602 371.771L146.285 365.581L143.473 369.559L142.898 369.153L146.131 364.58ZM150.271 374.461C149.74 374.086 149.349 373.673 149.099 373.222C148.853 372.767 148.754 372.292 148.803 371.798C148.852 371.304 149.049 370.813 149.394 370.325C149.739 369.837 150.134 369.486 150.579 369.272C151.024 369.058 151.498 368.988 152.001 369.062C152.507 369.132 153.014 369.347 153.524 369.707C154.142 370.144 154.554 370.638 154.76 371.188C154.973 371.737 154.954 372.276 154.705 372.805L154.117 372.389C154.309 371.95 154.336 371.529 154.198 371.124C154.062 370.715 153.77 370.352 153.322 370.035C152.76 369.638 152.192 369.507 151.619 369.644C151.049 369.777 150.537 370.163 150.084 370.803C149.626 371.452 149.431 372.069 149.501 372.654C149.578 373.237 149.911 373.737 150.499 374.153C150.773 374.346 151.044 374.495 151.31 374.599C151.58 374.698 151.862 374.756 152.156 374.775L153.204 373.292L151.603 372.161L151.811 371.867L154.091 373.478L152.803 375.301C152.401 375.324 151.983 375.264 151.549 375.12C151.119 374.98 150.693 374.76 150.271 374.461ZM159.591 374.563L157.657 373.197L157.879 372.883L162.42 376.092L162.198 376.406L160.271 375.043L157.26 379.303L156.58 378.823L159.591 374.563ZM162.961 376.475L163.641 376.955L162.251 378.921L165.184 380.994L166.574 379.028L167.253 379.508L164.021 384.081L163.341 383.601L164.967 381.301L162.033 379.228L160.408 381.528L159.729 381.047L162.961 376.475ZM167.089 386.347C166.331 385.812 165.901 385.256 165.798 384.681C165.703 384.104 165.88 383.498 166.329 382.862L168.218 380.19L168.898 380.67L166.903 383.492C166.558 383.98 166.41 384.434 166.459 384.854C166.509 385.274 166.792 385.667 167.311 386.034C167.82 386.394 168.28 386.529 168.689 386.44C169.103 386.353 169.485 386.062 169.836 385.565L171.831 382.743L172.511 383.223L170.622 385.895C170.172 386.531 169.66 386.9 169.084 387.003C168.512 387.101 167.847 386.883 167.089 386.347ZM175.211 385.132L177.341 386.637C177.889 387.025 178.257 387.428 178.444 387.848C178.631 388.267 178.607 388.642 178.373 388.973C178.173 389.257 177.885 389.419 177.51 389.46C177.137 389.498 176.744 389.412 176.329 389.204C176.792 389.603 177.089 389.986 177.221 390.354C177.356 390.717 177.296 391.079 177.041 391.441C176.76 391.837 176.382 392.026 175.904 392.009C175.43 391.987 174.883 391.758 174.265 391.321L171.978 389.705L175.211 385.132ZM175.647 388.506C176.087 388.817 176.48 388.977 176.826 388.987C177.175 388.992 177.457 388.842 177.673 388.537C177.864 388.267 177.894 387.988 177.764 387.701C177.635 387.413 177.343 387.109 176.89 386.789L175.669 385.926L174.445 387.657L175.647 388.506ZM174.552 391.053C174.918 391.312 175.261 391.431 175.583 391.41C175.905 391.389 176.172 391.228 176.384 390.928C176.609 390.61 176.635 390.273 176.463 389.916C176.298 389.558 175.939 389.183 175.386 388.792L174.223 387.97L172.879 389.871L174.552 391.053ZM179.177 394.89C178.663 394.527 178.287 394.121 178.05 393.672C177.812 393.223 177.72 392.753 177.773 392.262C177.829 391.766 178.033 391.27 178.384 390.774C178.729 390.286 179.122 389.937 179.565 389.727C180.01 389.513 180.482 389.445 180.982 389.524C181.482 389.603 181.988 389.824 182.502 390.187C183.016 390.55 183.391 390.952 183.628 391.394C183.869 391.838 183.963 392.306 183.909 392.798C183.859 393.285 183.661 393.772 183.317 394.26C182.966 394.756 182.566 395.114 182.117 395.332C181.672 395.547 181.198 395.616 180.696 395.542C180.197 395.471 179.691 395.254 179.177 394.89ZM179.399 394.577C179.965 394.977 180.529 395.108 181.091 394.969C181.652 394.831 182.166 394.432 182.631 393.775C183.086 393.13 183.283 392.525 183.22 391.958C183.164 391.389 182.851 390.904 182.281 390.5C181.71 390.097 181.147 389.961 180.591 390.09C180.036 390.22 179.529 390.61 179.07 391.259C178.605 391.916 178.401 392.533 178.458 393.108C178.515 393.684 178.828 394.174 179.399 394.577ZM184.169 388.994C184.118 388.834 184.084 388.716 184.067 388.638C184.058 388.559 184.068 388.498 184.099 388.455C184.133 388.407 184.176 388.382 184.23 388.381C184.286 388.375 184.343 388.392 184.399 388.432C184.486 388.493 184.534 388.606 184.543 388.769L184.663 389.971L184.441 389.814L184.169 388.994ZM183.257 388.634L183.714 388.957L183.818 390.529L183.498 390.303L183.269 389.102L182.061 389.287L181.741 389.061L183.257 388.634ZM185.763 392.59L186.449 393.074L186.725 398.588L189.232 395.041L189.807 395.448L186.575 400.02L186.235 399.78L185.918 393.59L183.106 397.569L182.531 397.162L185.763 392.59Z" fill="#4A3021"/>
<path d="M11.9283 264.356H9.56028V263.972H15.1203V264.356H12.7603V269.572H11.9283V264.356ZM15.7834 263.972H16.6154V266.38H20.2074V263.972H21.0394V269.572H20.2074V266.756H16.6154V269.572H15.7834V263.972ZM26.2129 268.116H22.9889L22.2609 269.572H21.7009L24.6129 263.892H25.0449L27.7889 269.572H26.8929L26.2129 268.116ZM26.0289 267.732L24.6529 264.788L23.1809 267.732H26.0289ZM28.4553 263.972H29.2953L32.7033 268.316V263.972H33.4073V269.572H32.9913L29.1593 264.7V269.572H28.4553V263.972ZM34.5881 263.972H35.4201V266.38H39.0121V263.972H39.8441V269.572H39.0121V266.756H35.4201V269.572H34.5881V263.972ZM43.1506 263.972H43.9826V266.38H47.5746V263.972H48.4066V269.572H47.5746V266.756H43.9826V269.572H43.1506V263.972ZM53.5801 268.116H50.3561L49.6281 269.572H49.0681L51.9801 263.892H52.4121L55.1561 269.572H54.2601L53.5801 268.116ZM53.3961 267.732L52.0201 264.788L50.5481 267.732H53.3961ZM50.7721 262.556C50.5694 262.418 50.4681 262.292 50.4681 262.18C50.4681 262.122 50.4894 262.074 50.5321 262.036C50.5801 261.994 50.6441 261.972 50.7241 261.972C50.8841 261.972 51.0254 262.042 51.1481 262.18L52.2761 263.412H51.9961L50.7721 262.556Z" fill="#4A3021"/>
<path d="M6.91263 198.338C7.82518 198.848 8.40701 199.435 8.65814 200.101C8.90926 200.767 8.81886 201.486 8.38694 202.259C7.93679 203.064 7.34835 203.554 6.62161 203.729C5.90213 203.901 5.10241 203.741 4.22246 203.249L2.28097 202.165L3.6392 199.734L3.10145 199.434L3.27318 199.127L3.81093 199.427L5.01305 197.276L6.91263 198.338ZM4.50757 202.969C5.1268 203.315 5.70708 203.392 6.2484 203.199C6.79438 203.009 7.26512 202.561 7.66062 201.853C8.03271 201.187 8.15077 200.594 8.0148 200.072C7.88144 199.545 7.49816 199.105 6.86497 198.751L5.55202 198.017L4.53725 199.833L6.0178 200.66L5.84607 200.968L4.36551 200.14L3.19462 202.235L4.50757 202.969ZM16.3738 203.624C16.1916 203.95 15.9297 204.167 15.5881 204.276C15.2511 204.387 14.8825 204.379 14.4824 204.254L13.6042 205.825C13.2243 206.504 12.7536 206.926 12.1922 207.089C11.6333 207.247 10.9488 207.099 10.1387 206.647C9.32861 206.194 8.84215 205.687 8.67934 205.126C8.5238 204.562 8.63597 203.941 9.01586 203.261L10.6122 200.405L11.3385 200.811L9.6524 203.827C9.36098 204.349 9.26189 204.816 9.35513 205.228C9.44838 205.641 9.77202 206.002 10.3261 206.312C10.8708 206.616 11.342 206.702 11.7397 206.57C12.142 206.44 12.4915 206.11 12.7881 205.58L14.4742 202.563L15.2005 202.969L14.6229 204.002C14.8606 204.025 15.0863 203.971 15.3001 203.84C15.5185 203.711 15.6902 203.535 15.8151 203.312L16.3738 203.624ZM22.1482 206.75C21.9817 207.048 21.7465 207.255 21.4426 207.373C21.146 207.488 20.8167 207.509 20.4548 207.435C20.434 207.887 20.2882 208.356 20.0176 208.84C19.721 209.371 19.3613 209.769 18.9384 210.033C18.5181 210.293 18.0542 210.413 17.5465 210.392C17.0436 210.374 16.5174 210.211 15.968 209.904C15.4186 209.597 15.002 209.233 14.7181 208.812C14.4342 208.39 14.2929 207.932 14.2942 207.438C14.298 206.939 14.4483 206.425 14.7449 205.894C15.0363 205.373 15.3909 204.984 15.8085 204.729C16.2288 204.469 16.6915 204.352 17.1965 204.377C17.7015 204.403 18.2287 204.569 18.7781 204.876C19.2903 205.162 19.6868 205.497 19.9676 205.88C20.2531 206.265 20.4129 206.684 20.447 207.137C20.6806 207.146 20.8983 207.084 21.1002 206.952C21.3067 206.823 21.4698 206.652 21.5895 206.438L22.1482 206.75ZM16.1553 209.569C16.7606 209.907 17.3352 209.977 17.8791 209.78C18.423 209.583 18.8914 209.133 19.2843 208.43C19.6694 207.741 19.8008 207.118 19.6784 206.561C19.5632 206.002 19.2007 205.552 18.5908 205.211C17.9809 204.87 17.4065 204.794 16.8678 204.982C16.3291 205.169 15.8659 205.61 15.4782 206.304C15.0853 207.007 14.9474 207.641 15.0647 208.208C15.1819 208.774 15.5454 209.228 16.1553 209.569ZM18.2147 203.031C18.1055 202.811 18.0782 202.652 18.1328 202.554C18.1614 202.503 18.2035 202.472 18.2589 202.46C18.3216 202.446 18.3879 202.459 18.4578 202.498C18.5974 202.576 18.687 202.705 18.7264 202.886L19.1101 204.512L18.8656 204.375L18.2147 203.031ZM22.2745 206.921L23.0078 207.331L23.8636 212.785L25.9829 208.993L26.5975 209.337L23.8654 214.225L23.5022 214.022L22.5339 207.9L20.157 212.153L19.5424 211.81L22.2745 206.921ZM27.4342 216.311C26.8662 215.993 26.4343 215.624 26.1385 215.202C25.8453 214.775 25.697 214.314 25.6936 213.817C25.6902 213.32 25.8342 212.811 26.1256 212.29C26.4171 211.768 26.7729 211.377 27.1932 211.117C27.6135 210.857 28.0774 210.738 28.585 210.759C29.0953 210.775 29.6228 210.935 30.1675 211.24C30.8286 211.609 31.2904 212.057 31.5527 212.582C31.8223 213.105 31.8609 213.643 31.6683 214.195L31.0398 213.844C31.185 213.388 31.1674 212.965 30.987 212.577C30.8093 212.185 30.4807 211.855 30.0011 211.587C29.4005 211.251 28.8223 211.182 28.2664 211.378C27.7132 211.57 27.2453 212.008 26.8628 212.692C26.4752 213.386 26.3469 214.02 26.4781 214.594C26.6165 215.166 27 215.628 27.6285 215.979C27.9218 216.143 28.2065 216.263 28.4824 216.337C28.7609 216.407 29.0473 216.436 29.3416 216.423L30.2276 214.838L28.5166 213.882L28.6922 213.568L31.1295 214.93L30.0406 216.878C29.6436 216.943 29.2217 216.928 28.7749 216.831C28.3327 216.736 27.8858 216.563 27.4342 216.311ZM35.2872 214.192L36.0205 214.602L36.8763 220.056L38.9956 216.264L39.6102 216.608L36.8781 221.496L36.515 221.293L35.5466 215.171L33.1697 219.424L32.5552 219.08L35.2872 214.192ZM40.4469 223.582C39.8789 223.264 39.447 222.895 39.1512 222.473C38.858 222.046 38.7098 221.585 38.7063 221.088C38.7029 220.591 38.8469 220.082 39.1384 219.56C39.4298 219.039 39.7856 218.648 40.2059 218.388C40.6262 218.128 41.0901 218.009 41.5978 218.03C42.108 218.046 42.6355 218.206 43.1802 218.511C43.8413 218.88 44.3031 219.327 44.5654 219.853C44.8351 220.376 44.8736 220.914 44.681 221.466L44.0525 221.115C44.1977 220.658 44.1801 220.236 43.9998 219.848C43.822 219.456 43.4934 219.125 43.0138 218.858C42.4132 218.522 41.835 218.452 41.2792 218.649C40.7259 218.841 40.2581 219.279 39.8756 219.963C39.4879 220.657 39.3596 221.291 39.4908 221.865C39.6292 222.437 40.0127 222.899 40.6412 223.25C40.9345 223.414 41.2192 223.533 41.4951 223.608C41.7736 223.678 42.06 223.707 42.3543 223.694L43.2403 222.109L41.5293 221.153L41.7049 220.839L44.1422 222.201L43.0533 224.149C42.6563 224.214 42.2344 224.198 41.7876 224.102C41.3454 224.007 40.8985 223.834 40.4469 223.582ZM45.9714 226.668C45.1613 226.216 44.6749 225.709 44.5121 225.147C44.3565 224.584 44.4687 223.962 44.8486 223.283L46.4449 220.426L47.1712 220.832L45.4851 223.849C45.1937 224.37 45.0946 224.837 45.1879 225.25C45.2811 225.663 45.6047 226.024 46.1588 226.333C46.7035 226.638 47.1747 226.724 47.5724 226.592C47.9747 226.462 48.3242 226.132 48.6208 225.601L50.3069 222.584L51.0332 222.99L49.4369 225.846C49.057 226.526 48.5863 226.947 48.0249 227.11C47.466 227.268 46.7816 227.121 45.9714 226.668ZM52.1253 227.229L51.5758 223.293L52.3649 223.734L52.8383 227.069L56.0663 225.802L56.5762 226.087L52.9102 227.53L51.6651 229.758L50.9388 229.352L52.1253 227.229ZM57.1183 226.39L61.2597 228.704L61.0724 229.039L57.6573 227.131L56.6698 228.898L59.6868 230.584L59.5034 230.912L56.4864 229.226L55.2999 231.349L58.715 233.257L58.5276 233.593L54.3862 231.279L57.1183 226.39ZM59.2452 225.159C59.3574 225.002 59.4908 224.905 59.6453 224.87C59.8044 224.836 59.9585 224.861 60.1075 224.945C60.1866 224.989 60.258 225.047 60.3215 225.119C60.385 225.191 60.4604 225.291 60.5476 225.42C60.6194 225.521 60.6801 225.604 60.7296 225.668C60.7818 225.728 60.8358 225.773 60.8917 225.804C60.9801 225.854 61.0762 225.868 61.1799 225.846C61.2835 225.825 61.3839 225.771 61.481 225.685L61.5817 225.832C61.2845 226.167 60.9846 226.25 60.682 226.081C60.6075 226.04 60.5408 225.984 60.4819 225.914C60.423 225.845 60.3523 225.747 60.2697 225.622C60.1939 225.506 60.1298 225.418 60.0777 225.359C60.0281 225.294 59.9731 225.245 59.9125 225.211C59.8194 225.159 59.7223 225.142 59.6213 225.159C59.5202 225.175 59.4284 225.225 59.3458 225.307L59.2452 225.159ZM59.8743 225.886L60.3632 226.16L60.632 227.712L60.2898 227.521L59.9353 226.351L58.7534 226.662L58.4112 226.471L59.8743 225.886ZM61.9742 229.103L62.7075 229.513L63.5633 234.967L65.6826 231.175L66.2972 231.519L63.5651 236.407L63.2019 236.204L62.2336 230.082L59.8567 234.335L59.2421 233.992L61.9742 229.103ZM70.609 234.368L68.5418 233.213L68.7291 232.878L73.5828 235.59L73.3955 235.925L71.3353 234.774L68.7905 239.327L68.0642 238.921L70.609 234.368ZM74.9292 241.089L72.1148 239.516L70.7689 240.432L70.28 240.159L75.5932 236.621L75.9704 236.832L75.5947 243.129L74.8125 242.692L74.9292 241.089ZM74.9559 240.664L75.191 237.423L72.4697 239.275L74.9559 240.664ZM78.2344 235.421C78.3946 235.364 78.519 235.36 78.6074 235.41C78.668 235.444 78.7077 235.487 78.7268 235.541C78.7484 235.589 78.7449 235.639 78.7163 235.69C78.6903 235.737 78.641 235.771 78.5684 235.791C78.4958 235.812 78.373 235.835 78.1999 235.86L77.3355 235.964L77.1051 235.835L78.2344 235.421ZM76.3268 235.079L76.8157 235.352L77.0845 236.905L76.7423 236.714L76.3878 235.544L75.2059 235.855L74.8637 235.664L76.3268 235.079ZM79.6387 239.413L77.5715 238.258L77.7589 237.923L82.6126 240.635L82.4253 240.97L80.3651 239.819L77.8203 244.372L77.094 243.966L79.6387 239.413ZM86.4725 243.232L84.4053 242.077L84.5926 241.741L89.4463 244.453L89.259 244.789L87.1988 243.638L84.654 248.191L83.9277 247.785L86.4725 243.232ZM90.0252 244.777L90.7515 245.183L89.5767 247.285L92.7124 249.037L93.8872 246.935L94.6136 247.341L91.8815 252.229L91.1552 251.823L92.529 249.365L89.3933 247.613L88.0195 250.071L87.2931 249.665L90.0252 244.777ZM97.1081 253.482L94.2937 251.909L92.9478 252.825L92.4589 252.552L97.7721 249.014L98.1493 249.225L97.7736 255.521L96.9914 255.084L97.1081 253.482ZM97.1348 253.057L97.3699 249.816L94.6486 251.667L97.1348 253.057ZM97.3694 247.258C97.2601 247.039 97.2328 246.88 97.2874 246.782C97.3161 246.731 97.3581 246.699 97.4136 246.687C97.4763 246.674 97.5426 246.686 97.6124 246.725C97.7521 246.803 97.8416 246.933 97.8811 247.114L98.2647 248.739L98.0203 248.603L97.3694 247.258ZM101.087 250.958L101.821 251.368L102.676 256.822L104.796 253.03L105.41 253.373L102.678 258.262L102.315 258.059L101.347 251.937L98.9699 256.19L98.3553 255.846L101.087 250.958ZM106.441 253.949L107.167 254.355L105.993 256.457L109.128 258.209L110.303 256.107L111.029 256.513L108.297 261.401L107.571 260.996L108.945 258.537L105.809 256.785L104.435 259.243L103.709 258.838L106.441 253.949Z" fill="#4A3021"/>
<path d="M70.0539 33.5918L60.5717 38.0545L40.9573 56.9652L34.9721 70.6439L20.6161 143.141L-11.875 208.055C-11.875 208.055 -5.41948 203.695 6.87584 210.619C19.1712 217.544 90.7285 255.853 90.7285 255.853L98.1074 260.196L111.489 274.234L149.281 290.622L199.185 308.652C199.355 308.714 199.54 308.728 199.718 308.693L237.699 301.213C238.17 301.12 238.641 301.376 238.82 301.822L249.944 329.589H253.415L254.963 334.42L279.835 332.872L308.761 340.968L328.239 351.176L337.114 359.597L346.177 362.752L353.12 365.06L375.488 363.709L382.43 358.503L383.397 355.425L391.092 351.766" stroke="#4A3021" stroke-width="0.5" stroke-miterlimit="10"/>
<path d="M219.436 153.244L210.86 181.268L209.33 205.317L206.594 210.626L196.325 229.528L170.161 254.039L146.16 297.486L154.462 309.848L155.617 314.669" stroke="#4A3021" stroke-width="0.5" stroke-miterlimit="10"/>
<path d="M46.3945 321.467C46.7365 321.322 53.6965 294.195 53.6965 294.195L70.1643 274.336L90.8394 256.016" stroke="#4A3021" stroke-width="0.5" stroke-miterlimit="10"/>
<path d="M-88.9141 325.931L-81.7489 322.511L-49.9589 313.261C-42.9786 313.821 15.421 318.892 22.8419 319.537C23.2837 319.575 23.6163 319.945 23.6163 320.388V321.739C23.6163 322.288 24.1256 322.695 24.6606 322.573L82.1175 309.533L98.9786 313.56L114.916 313.705L127.041 317.741L136.446 318.929L143.611 313.56L199.453 317.741L218.384 311.756L243.179 309.516L278.543 279.97L294.336 265.848L306.879 266.839L339.225 232.934" stroke="#4A3021" stroke-width="0.427515" stroke-miterlimit="10"/>
</g>
<defs>
<clipPath id="clip0_5632_13883">
<rect width="382" height="570" fill="white"/>
</clipPath>
</defs>
</svg>
