<svg width="382" height="570" viewBox="0 0 382 570" fill="none" xmlns="http://www.w3.org/2000/svg">
<g clip-path="url(#clip0_5632_13931)">
<rect width="382" height="570" fill="#DBDBDB"/>
<path d="M-138.629 542.634V-1.59766H587.161V63.9731C587.161 63.9731 558.259 136.598 559.729 145.678C556.299 147.878 547.22 159.907 539.86 156.227C532.5 152.547 531.178 148.516 525.871 146.658C525.871 146.658 516.709 144.272 511.272 148.294C505.836 152.316 492.892 171.797 490.062 171.575C487.233 171.353 489.082 165.704 484.728 164.936C480.373 164.169 470.471 164.335 465.959 166.064C461.447 167.793 459.829 167.803 457.638 166.064C455.446 164.326 448.503 161.553 443.769 164.678C439.035 167.803 438.795 171.852 434.403 173.119C430.011 174.386 425.028 177.52 422.948 180.515C420.867 183.511 408.608 207.125 407.563 212.099C406.518 217.073 399.88 252.253 400.675 255.877C401.47 259.502 398.409 265.835 393.768 264.254C389.127 262.673 385.965 257.237 385.17 255.082C384.375 252.928 378.494 250.783 372.725 253.233C366.956 255.683 357.22 264.67 354.391 271.003C351.561 277.337 346.245 300.423 347.373 304.491C348.298 306.646 348.843 308.791 346.014 308.68C343.185 308.569 331.304 307.321 331.082 304.982C330.86 302.642 331.692 301.82 333.19 301.283C334.688 300.747 333.8 279.944 330.611 278.049C327.421 276.153 316.585 269.728 303.437 266.427C290.29 263.126 273.296 254.851 258.383 260.879C243.47 266.908 226.43 279.26 222.972 280.989C219.514 282.718 215.242 282.45 212.311 282.191C209.38 281.932 204.194 281.118 200.726 284.04C197.259 286.962 196.474 288.737 189.817 289.181C183.16 289.624 169.309 287.239 163.05 287.507C156.791 287.775 150.402 287.1 144.272 290.429C138.142 293.757 130.958 300.285 128.296 302.818C125.633 305.351 124.597 307.441 122.97 306.276C121.343 305.111 125.494 299.619 123.367 300.285C121.241 300.95 116.442 304.149 113.114 303.983C109.785 303.817 97.6736 306.378 90.7485 316.927C83.8235 327.476 77.0278 338.238 74.5037 342.501C71.9796 346.763 60.3763 365.254 56.5671 375.554C52.7579 385.854 41.774 407.785 39.5088 415.81C37.2436 423.835 27.9238 456.334 26.3151 466.948C24.7063 477.562 19.612 495.508 18.3084 504.782C17.0047 514.055 17.7535 523.514 15.1554 523.698C12.5574 523.883 7.55554 524.808 7.18571 530.374C6.81589 535.94 5.14244 550.03 1.43491 556.151C-2.27264 562.272 -8.39348 571.175 -10.067 569.872C-11.7404 568.568 -16.7422 559.701 -23.7875 559.859C-30.8327 560.016 -32.6081 557.778 -37.5823 559.859C-42.5565 561.939 -42.7599 566.284 -44.7292 565.351C-46.6985 564.417 -47.1145 559.553 -52.9115 557.584C-58.7086 555.615 -63.1744 557.371 -68.9715 554.478C-74.7686 551.584 -75.6006 547.737 -86.8989 545.565C-98.1971 543.392 -98.5023 542.356 -108.238 541.626C-117.974 540.896 -138.629 542.634 -138.629 542.634Z" fill="white"/>
<path d="M234.586 -2.68945C218.869 32.9066 166.63 108.259 101.299 148.838L11.3019 208.113C-14.1239 223.831 -77.827 277.918 -140.328 307.505" stroke="#4A3021" stroke-width="3" stroke-miterlimit="10"/>
<path d="M-140.328 385.169L-101.729 376.585C-101.553 376.545 -101.392 376.456 -101.266 376.326L-50.9041 324.419C-50.8362 324.35 -50.7577 324.291 -50.6715 324.245L-11.0062 303.348C-10.9096 303.297 -10.8047 303.263 -10.6965 303.249L44.9394 295.89C45.0182 295.879 45.0866 295.878 45.1654 295.888C46.6085 296.07 62.1687 298.028 65.5095 298.213C69.0136 298.407 85.1936 292.804 92.9878 286.064C100.782 279.324 102.372 271.909 116.555 266.26C161.116 252.517 180.555 223.092 184.732 210.033C184.746 209.991 184.755 209.95 184.763 209.906L194.922 147.822L223.371 98.1356L253.431 49.2967C253.479 49.219 253.538 49.1487 253.606 49.0883L288.339 18.4116C288.49 18.2784 288.681 18.198 288.881 18.1827L298.566 17.4457C298.782 17.4293 298.985 17.3381 299.14 17.1877L319.647 -2.68945" stroke="#4A3021" stroke-width="3" stroke-miterlimit="10"/>
<path d="M182.347 -5C178.187 -2.68857 155.997 93.0059 155.997 93.0059L148.639 148.545L147.058 183.586L126.347 250.701L120.863 265.438" stroke="#4A3021" stroke-width="3" stroke-miterlimit="10"/>
<path d="M194.93 158.355C194.93 158.355 239.596 167.601 243.932 166.232C248.268 164.864 265.576 167.61 270.495 167.998C275.414 168.387 317.334 176.264 323.039 173.703C328.743 171.142 344.877 166.029 348.002 158.355C351.127 150.681 353.55 128.057 357.84 129.037C362.13 130.017 371.024 132.384 372.402 138.68C373.779 144.976 375.351 146.548 382.831 145.762C390.311 144.976 412.741 148.129 422.772 149.461C432.804 150.792 438.712 150.108 440.09 154.305C441.467 158.503 441.717 168.109 441.717 168.109" stroke="#4A3021" stroke-width="0.5" stroke-miterlimit="10"/>
<path d="M-93.332 368.158C-93.332 368.158 -77.0965 378.698 -78.5389 385.993C-79.9812 393.288 -81.2017 404.133 -76.7545 410.883C-72.3073 417.632 -61.8226 432.582 -57.5511 436.318C-53.2796 440.053 -42.083 451.962 -37.6358 455.521C-33.1886 459.081 -15.9453 479.347 -10.4256 480.42C-4.90594 481.492 23.6265 481.816 23.6265 481.816" stroke="#4A3021" stroke-width="0.462287" stroke-miterlimit="10"/>
<path d="M76.9102 296.604C76.9102 296.604 83.6504 302.308 89.0407 303.501C94.4309 304.694 105.045 303.899 112.608 299.387C120.171 294.875 120.707 300.847 124.026 299.257C127.346 297.667 142.074 290.76 147.141 287.044C152.207 283.327 161.74 277.89 168.249 280.008C174.758 282.125 181.119 283.059 189.218 280.146L220.404 265.547L239.209 258.04L260.936 248.332C265.716 244.883 273.752 248.332 281.712 249.756C289.673 251.179 293.39 257.716 299.63 257.152C305.871 256.588 311.974 254.378 315.025 257.559C318.076 260.74 322.061 260.212 324.844 261.008C327.627 261.803 336.521 266.712 336.521 269.763C336.521 272.814 337.982 275.311 341.033 275.209C344.084 275.107 346.876 274.543 348.596 272.149C350.316 269.754 358.156 264.188 359.746 262.598C361.337 261.008 369.833 250.652 376.074 251.845C382.315 253.038 382.972 252.77 386.688 254.101C390.405 255.432 397.441 255.432 397.302 252.64C397.164 249.848 402.351 231.014 401.685 228.222C401.019 225.43 407.907 212.828 407.907 212.828" stroke="#4A3021" stroke-width="0.5" stroke-miterlimit="10"/>
<path d="M218.998 195.339H215.758V194.706H223.869V195.339H220.629V202.473H218.998V195.339ZM224.757 194.706H226.4V197.99H230.804V194.706H232.446V202.473H230.804V198.623H226.4V202.473H224.757V194.706ZM239.601 200.487H235.474L234.509 202.473H233.377L237.416 194.595H238.414L242.22 202.473H240.533L239.601 200.487ZM239.302 199.854L237.582 196.182L235.785 199.854H239.302ZM235.873 192.731C235.57 192.532 235.418 192.347 235.418 192.177C235.418 192.073 235.459 191.992 235.54 191.933C235.622 191.873 235.729 191.844 235.862 191.844C236.01 191.844 236.143 191.87 236.262 191.921C236.38 191.973 236.491 192.058 236.594 192.177L238.114 193.93H237.582L235.873 192.731ZM243.166 194.706H244.786L249.013 200.209V194.706H250.522V202.473H249.479L244.675 196.149V202.473H243.166V194.706ZM252.126 194.706H253.768V197.99H258.173V194.706H259.815V202.473H258.173V198.623H253.768V202.473H252.126V194.706ZM264.543 194.706H267.694C268.825 194.706 269.698 194.895 270.312 195.272C270.933 195.642 271.244 196.252 271.244 197.103C271.244 197.946 270.941 198.556 270.334 198.933C269.728 199.311 268.848 199.499 267.694 199.499H266.185V202.473H264.543V194.706ZM267.716 198.856C268.345 198.856 268.818 198.726 269.136 198.467C269.454 198.209 269.613 197.754 269.613 197.103C269.613 196.467 269.454 196.015 269.136 195.749C268.825 195.475 268.352 195.339 267.716 195.339H266.185V198.856H267.716ZM272.29 194.706H273.932V197.99H278.337V194.706H279.979V202.473H278.337V198.623H273.932V202.473H272.29V194.706ZM285.769 202.584C284.859 202.584 284.071 202.425 283.406 202.107C282.747 201.788 282.245 201.33 281.897 200.731C281.549 200.124 281.375 199.399 281.375 198.556C281.375 197.728 281.549 197.018 281.897 196.426C282.252 195.834 282.759 195.383 283.417 195.072C284.075 194.754 284.859 194.595 285.769 194.595C286.671 194.595 287.448 194.754 288.099 195.072C288.757 195.383 289.26 195.834 289.608 196.426C289.963 197.018 290.14 197.728 290.14 198.556C290.14 199.399 289.967 200.124 289.619 200.731C289.271 201.33 288.768 201.788 288.11 202.107C287.452 202.425 286.671 202.584 285.769 202.584ZM285.769 201.951C286.642 201.951 287.311 201.663 287.777 201.086C288.243 200.501 288.476 199.658 288.476 198.556C288.476 197.476 288.243 196.652 287.777 196.082C287.311 195.512 286.642 195.228 285.769 195.228C284.889 195.228 284.212 195.516 283.739 196.093C283.273 196.663 283.04 197.484 283.04 198.556C283.04 199.658 283.273 200.501 283.739 201.086C284.205 201.663 284.881 201.951 285.769 201.951ZM287.866 191.234C288.006 191.056 288.177 190.967 288.376 190.967C288.495 190.967 288.587 190.993 288.654 191.045C288.728 191.097 288.765 191.167 288.765 191.256C288.765 191.33 288.717 191.418 288.62 191.522C288.532 191.618 288.38 191.751 288.165 191.921L287.389 192.521H286.89L287.866 191.234ZM285.292 192.143H286.246L287.722 193.93H286.934L285.769 192.831L284.604 193.93H283.816L285.292 192.143ZM215.889 208.706H219.04C220.172 208.706 221.044 208.895 221.658 209.272C222.28 209.642 222.59 210.252 222.59 211.103C222.59 211.946 222.287 212.556 221.68 212.933C221.074 213.311 220.194 213.499 219.04 213.499H217.531V216.473H215.889V208.706ZM219.062 212.856C219.691 212.856 220.164 212.726 220.482 212.467C220.8 212.209 220.959 211.754 220.959 211.103C220.959 210.467 220.8 210.015 220.482 209.749C220.172 209.475 219.698 209.339 219.062 209.339H217.531V212.856H219.062ZM223.636 208.706H225.278V211.99H229.683V208.706H231.325V216.473H229.683V212.623H225.278V216.473H223.636V208.706ZM238.48 214.487H234.353L233.387 216.473H232.256L236.294 208.595H237.293L241.098 216.473H239.412L238.48 214.487ZM238.18 213.854L236.461 210.182L234.663 213.854H238.18ZM242.044 208.706H243.664L247.891 214.209V208.706H249.4V216.473H248.357L243.553 210.149V216.473H242.044V208.706ZM256.655 209.339H253.415V208.706H261.525V209.339H258.286V216.473H256.655V209.339ZM262.414 208.706H264.056V211.99H268.461V208.706H270.103V216.473H268.461V212.623H264.056V216.473H262.414V208.706ZM272.121 208.706H273.763V216.473H272.121V208.706ZM275.784 208.706H282.763V209.339H277.426V211.99H282.142V212.623H277.426V215.84H282.763V216.473H275.784V208.706ZM281.487 205.234C281.627 205.056 281.798 204.967 281.997 204.967C282.116 204.967 282.208 204.993 282.275 205.045C282.349 205.097 282.386 205.167 282.386 205.256C282.386 205.33 282.338 205.418 282.241 205.522C282.153 205.618 282.001 205.751 281.786 205.921L281.01 206.521H280.511L281.487 205.234ZM278.913 206.143H279.867L281.343 207.93H280.555L279.39 206.831L278.225 207.93H277.437L278.913 206.143ZM286.375 209.339H283.135V208.706H291.245V209.339H288.006V216.473H286.375V209.339Z" fill="#4A3021"/>
<path d="M-36.9454 407.485L-38.6455 408.865L-38.8692 408.589L-34.8773 405.35L-34.6536 405.626L-36.348 407.001L-33.3094 410.746L-33.9068 411.23L-36.9454 407.485ZM-29.6932 406.078L-32.0079 407.956L-31.6824 409.425L-32.0844 409.752L-33.3026 403.977L-32.9925 403.726L-27.7135 406.205L-28.3568 406.727L-29.6932 406.078ZM-30.049 405.909L-32.7519 404.597L-32.0937 407.568L-30.049 405.909ZM-34.3757 402.819L-33.9736 402.493L-32.5484 402.794L-32.8298 403.022L-33.9556 402.926L-34.0934 404.047L-34.3749 404.276L-34.3757 402.819ZM-30.4973 401.796L-29.8942 401.307L-24.9168 402.44L-27.4474 399.322L-26.942 398.911L-23.6797 402.932L-23.9784 403.174L-29.5678 401.909L-26.7296 405.407L-27.235 405.817L-30.4973 401.796ZM-23.0181 396.185L-24.7182 397.564L-24.9419 397.289L-20.95 394.05L-20.7263 394.325L-22.4207 395.7L-19.3821 399.445L-19.9795 399.93L-23.0181 396.185ZM-20.4739 393.663L-19.8766 393.179L-18.4738 394.907L-15.8949 392.815L-17.2977 391.086L-16.7003 390.601L-13.438 394.622L-14.0354 395.107L-15.6758 393.085L-18.2548 395.177L-16.6143 397.199L-17.2116 397.684L-20.4739 393.663ZM-10.6535 392.458C-11.3198 392.998 -11.9218 393.242 -12.4597 393.19C-12.9969 393.131 -13.4923 392.821 -13.9459 392.262L-15.8521 389.913L-15.2547 389.428L-13.2414 391.91C-12.8934 392.339 -12.5263 392.584 -12.1401 392.645C-11.7538 392.706 -11.3329 392.552 -10.8772 392.182C-10.4292 391.819 -10.1938 391.443 -10.1711 391.057C-10.1445 390.667 -10.3083 390.254 -10.6625 389.817L-12.6758 387.336L-12.0785 386.851L-10.1723 389.2C-9.71873 389.759 -9.51818 390.308 -9.57068 390.846C-9.62628 391.38 -9.98722 391.917 -10.6535 392.458ZM-6.29215 387.09L-8.60685 388.968L-8.28133 390.438L-8.68339 390.764L-9.90159 384.99L-9.59143 384.738L-4.31244 387.217L-4.95573 387.739L-6.29215 387.09ZM-6.64795 386.922L-9.3509 385.61L-8.6927 388.581L-6.64795 386.922ZM-5.80996 389.833C-5.89803 389.904 -5.99408 389.934 -6.09813 389.924C-6.19523 389.914 -6.27796 389.866 -6.34631 389.782C-6.41467 389.698 -6.44379 389.607 -6.43368 389.51C-6.41974 389.41 -6.36873 389.324 -6.28066 389.253C-6.19259 389.181 -6.10001 389.15 -6.0029 389.161C-5.90197 389.168 -5.81732 389.213 -5.74897 389.297C-5.68062 389.382 -5.65341 389.474 -5.66735 389.574C-5.67435 389.675 -5.72189 389.761 -5.80996 389.833ZM-10.9747 383.831L-10.5726 383.505L-9.14735 383.806L-9.42879 384.034L-10.5546 383.938L-10.6924 385.06L-10.9738 385.288L-10.9747 383.831ZM-7.09631 382.809L-6.49322 382.319L-1.5158 383.453L-4.04642 380.334L-3.54097 379.924L-0.278673 383.944L-0.577345 384.187L-6.16677 382.921L-3.32857 386.419L-3.83401 386.829L-7.09631 382.809Z" fill="#4A3021"/>
<path d="M304.824 287.4V293H303.992V288.296L301.816 293H301.424L299.088 288.232V293H298.592V287.4H299.544L301.776 292.008L303.912 287.4H304.824ZM308.646 293.08C307.718 293.08 307.046 292.875 306.63 292.464C306.219 292.048 306.014 291.451 306.014 290.672V287.4H306.846V290.856C306.846 291.453 306.987 291.909 307.27 292.224C307.553 292.539 308.011 292.696 308.646 292.696C309.27 292.696 309.723 292.541 310.006 292.232C310.294 291.923 310.438 291.464 310.438 290.856V287.4H311.27V290.672C311.27 291.451 311.065 292.048 310.654 292.464C310.243 292.875 309.574 293.08 308.646 293.08ZM307.254 286.84C307.254 286.573 307.329 286.357 307.478 286.192C307.633 286.027 307.833 285.944 308.078 285.944C308.227 285.944 308.358 285.973 308.47 286.032C308.587 286.085 308.71 286.163 308.838 286.264C308.929 286.339 309.011 286.397 309.086 286.44C309.161 286.483 309.235 286.504 309.31 286.504C309.449 286.504 309.566 286.453 309.662 286.352C309.763 286.245 309.819 286.109 309.83 285.944H310.038C310.038 286.205 309.961 286.421 309.806 286.592C309.657 286.757 309.462 286.84 309.222 286.84C309.067 286.84 308.937 286.816 308.83 286.768C308.729 286.715 308.617 286.64 308.494 286.544C308.409 286.475 308.334 286.424 308.27 286.392C308.206 286.355 308.131 286.336 308.046 286.336C307.881 286.336 307.745 286.384 307.638 286.48C307.531 286.571 307.475 286.691 307.47 286.84H307.254ZM312.779 287.4H313.611V293H312.779V287.4ZM317.248 287.4H318.088L321.496 291.744V287.4H322.2V293H321.784L317.952 288.128V293H317.248V287.4ZM323.381 287.4H328.125V287.784H324.213V289.808H327.669V290.184H324.213V292.616H328.125V293H323.381V287.4ZM326.821 285.608C326.944 285.469 327.085 285.4 327.245 285.4C327.325 285.4 327.386 285.421 327.429 285.464C327.477 285.501 327.501 285.549 327.501 285.608C327.501 285.72 327.4 285.845 327.197 285.984L325.973 286.84H325.693L326.821 285.608Z" fill="#4A3021"/>
<path d="M138.001 356.597H138.921L141.153 361.325L143.553 356.597H144.097L141.209 362.277H140.777L138.001 356.597ZM145.045 356.597H145.877V362.197H145.045V356.597ZM145.461 363.373C145.338 363.373 145.237 363.333 145.157 363.253C145.082 363.179 145.045 363.083 145.045 362.965C145.045 362.848 145.082 362.752 145.157 362.677C145.237 362.603 145.338 362.565 145.461 362.565C145.584 362.565 145.682 362.603 145.757 362.677C145.837 362.752 145.877 362.848 145.877 362.965C145.877 363.083 145.837 363.179 145.757 363.253C145.682 363.333 145.584 363.373 145.461 363.373ZM147.389 356.597H148.229L151.637 360.941V356.597H152.341V362.197H151.925L148.093 357.325V362.197H147.389V356.597ZM153.522 356.597H154.354V359.005H157.946V356.597H158.778V362.197H157.946V359.381H154.354V362.197H153.522V356.597ZM162.084 356.597H164.204C164.972 356.597 165.567 356.739 165.988 357.021C166.41 357.304 166.62 357.736 166.62 358.317C166.62 358.893 166.412 359.323 165.996 359.605C165.58 359.888 164.983 360.029 164.204 360.029H162.916V362.197H162.084V356.597ZM164.22 359.645C165.266 359.645 165.788 359.203 165.788 358.317C165.788 357.427 165.266 356.981 164.22 356.981H162.916V359.645H164.22ZM167.397 356.597H168.229V359.005H171.821V356.597H172.653V362.197H171.821V359.381H168.229V362.197H167.397V356.597ZM177.826 360.741H174.602L173.874 362.197H173.314L176.226 356.517H176.658L179.402 362.197H178.506L177.826 360.741ZM177.642 360.357L176.266 357.413L174.794 360.357H177.642ZM180.069 356.597H180.909L184.317 360.941V356.597H185.021V362.197H184.605L180.773 357.325V362.197H180.069V356.597ZM190.174 356.981H187.806V356.597H193.366V356.981H191.006V362.197H190.174V356.981ZM194.03 356.597H194.862V359.005H198.454V356.597H199.286V362.197H198.454V359.381H194.862V362.197H194.03V356.597ZM200.795 356.597H201.627V362.197H200.795V356.597ZM203.139 356.597H207.883V356.981H203.971V359.005H207.427V359.381H203.971V361.813H207.883V362.197H203.139V356.597ZM207.131 354.181C207.243 354.053 207.35 353.989 207.451 353.989C207.52 353.989 207.576 354.008 207.619 354.045C207.662 354.077 207.683 354.123 207.683 354.181C207.683 354.235 207.656 354.288 207.603 354.341C207.55 354.395 207.454 354.475 207.315 354.581L206.611 355.093H206.347L207.131 354.181ZM205.299 354.813H205.859L206.851 356.037H206.459L205.579 355.189L204.699 356.037H204.307L205.299 354.813ZM210.549 356.981H208.181V356.597H213.741V356.981H211.381V362.197H210.549V356.981Z" fill="#4A3021"/>
<path d="M284.479 484.187H287.087C287.759 484.187 288.292 484.304 288.687 484.539C289.081 484.774 289.279 485.094 289.279 485.499C289.279 485.846 289.137 486.144 288.855 486.395C288.572 486.64 288.201 486.798 287.743 486.867C288.351 486.926 288.815 487.067 289.135 487.291C289.455 487.51 289.615 487.84 289.615 488.283C289.615 488.768 289.415 489.142 289.015 489.403C288.615 489.659 288.036 489.787 287.279 489.787H284.479V484.187ZM286.783 486.691C287.321 486.691 287.735 486.595 288.023 486.403C288.311 486.206 288.455 485.92 288.455 485.547C288.455 485.216 288.319 484.971 288.047 484.811C287.775 484.651 287.361 484.571 286.807 484.571H285.311V486.691H286.783ZM287.359 489.403C287.807 489.403 288.156 489.302 288.407 489.099C288.657 488.896 288.783 488.611 288.783 488.243C288.783 487.854 288.609 487.563 288.263 487.371C287.921 487.174 287.412 487.075 286.735 487.075H285.311V489.403H287.359ZM290.807 484.187H291.639V489.787H290.807V484.187ZM293.151 484.187H297.895V484.571H293.983V486.595H297.439V486.971H293.983V489.403H297.895V489.787H293.151V484.187ZM296.359 482.467C296.348 482.424 296.343 482.39 296.343 482.363C296.343 482.283 296.361 482.219 296.399 482.171C296.441 482.123 296.505 482.07 296.591 482.011C296.671 481.958 296.732 481.904 296.775 481.851C296.817 481.798 296.839 481.734 296.839 481.659C296.839 481.595 296.817 481.542 296.775 481.499C296.732 481.456 296.665 481.435 296.575 481.435C296.479 481.435 296.407 481.459 296.359 481.507C296.316 481.555 296.292 481.611 296.287 481.675H295.975C295.975 481.536 296.033 481.427 296.151 481.347C296.268 481.267 296.417 481.227 296.599 481.227C296.78 481.227 296.924 481.267 297.031 481.347C297.137 481.427 297.191 481.536 297.191 481.675C297.191 481.776 297.167 481.856 297.119 481.915C297.071 481.968 296.999 482.03 296.903 482.099C296.833 482.142 296.78 482.184 296.743 482.227C296.711 482.264 296.695 482.31 296.695 482.363C296.695 482.4 296.703 482.435 296.719 482.467H296.359ZM295.311 482.403H295.871L296.863 483.627H296.471L295.591 482.779L294.711 483.627H294.319L295.311 482.403ZM298.713 484.187H299.553L302.961 488.531V484.187H303.665V489.787H303.249L299.417 484.915V489.787H298.713V484.187ZM309.155 484.187C310.2 484.187 310.995 484.416 311.539 484.875C312.083 485.334 312.355 486.006 312.355 486.891C312.355 487.814 312.08 488.528 311.531 489.035C310.987 489.536 310.211 489.787 309.203 489.787H306.979V487.003H306.363V486.651H306.979V484.187H309.155ZM309.315 489.403C310.024 489.403 310.568 489.187 310.947 488.755C311.331 488.323 311.523 487.702 311.523 486.891C311.523 486.128 311.336 485.552 310.963 485.163C310.59 484.768 310.04 484.571 309.315 484.571H307.811V486.651H309.507V487.003H307.811V489.403H309.315ZM316.265 489.867C315.635 489.867 315.094 489.752 314.641 489.523C314.187 489.294 313.841 488.963 313.601 488.531C313.361 488.094 313.241 487.571 313.241 486.963C313.241 486.366 313.361 485.854 313.601 485.427C313.841 484.995 314.187 484.667 314.641 484.443C315.094 484.219 315.635 484.107 316.265 484.107C316.894 484.107 317.433 484.219 317.881 484.443C318.334 484.667 318.681 484.995 318.921 485.427C319.161 485.854 319.281 486.366 319.281 486.963C319.281 487.571 319.161 488.094 318.921 488.531C318.681 488.963 318.334 489.294 317.881 489.523C317.433 489.752 316.894 489.867 316.265 489.867ZM316.265 489.483C316.958 489.483 317.494 489.264 317.873 488.827C318.251 488.39 318.441 487.768 318.441 486.963C318.441 486.174 318.251 485.566 317.873 485.139C317.499 484.707 316.963 484.491 316.265 484.491C315.566 484.491 315.027 484.704 314.649 485.131C314.27 485.558 314.081 486.168 314.081 486.963C314.081 487.768 314.27 488.39 314.649 488.827C315.027 489.264 315.566 489.483 316.265 489.483ZM315.985 482.403H316.545L317.537 483.627H317.145L316.265 482.779L315.385 483.627H314.993L315.985 482.403ZM320.315 484.187H321.155L324.563 488.531V484.187H325.267V489.787H324.851L321.019 484.915V489.787H320.315V484.187ZM329.399 489.867C328.749 489.867 328.191 489.755 327.727 489.531C327.263 489.302 326.909 488.971 326.663 488.539C326.418 488.107 326.295 487.592 326.295 486.995C326.295 486.398 326.415 485.883 326.655 485.451C326.895 485.019 327.242 484.688 327.695 484.459C328.149 484.224 328.687 484.107 329.311 484.107C330.069 484.107 330.69 484.272 331.175 484.603C331.666 484.928 331.962 485.379 332.063 485.955H331.343C331.247 485.486 331.026 485.126 330.679 484.875C330.333 484.619 329.885 484.491 329.335 484.491C328.647 484.491 328.109 484.712 327.719 485.155C327.33 485.592 327.135 486.203 327.135 486.987C327.135 487.782 327.333 488.398 327.727 488.835C328.127 489.267 328.687 489.483 329.407 489.483C329.743 489.483 330.05 489.448 330.327 489.379C330.605 489.304 330.869 489.19 331.119 489.035V487.219H329.159V486.859H331.951V489.091C331.637 489.342 331.261 489.534 330.823 489.667C330.391 489.8 329.917 489.867 329.399 489.867Z" fill="#4A3021"/>
<path d="M253.712 80.4464C254.035 80.5723 254.369 80.5586 254.715 80.4055C255.064 80.2554 255.374 79.9916 255.644 79.614C255.699 79.5359 255.749 79.4531 255.792 79.3657L255.945 79.5638C255.859 79.7386 255.765 79.8977 255.663 80.0409C255.462 80.323 255.222 80.558 254.943 80.7458C254.672 80.9325 254.387 81.0527 254.086 81.1067C253.79 81.1637 253.508 81.1495 253.242 81.0639C252.708 81.6461 252.113 81.9688 251.459 82.0321C250.8 82.0922 250.136 81.8836 249.468 81.4062C248.982 81.059 248.635 80.6638 248.427 80.2205C248.215 79.7741 248.15 79.3014 248.231 78.8023C248.312 78.3032 248.535 77.7976 248.901 77.2855C249.267 76.7734 249.671 76.4001 250.114 76.1658C250.56 75.9271 251.028 75.8356 251.519 75.8914C252.006 75.9441 252.492 76.144 252.978 76.4912C253.694 77.0027 254.116 77.6053 254.243 78.2991C254.366 78.9897 254.189 79.7055 253.712 80.4464ZM249.956 80.7227C250.611 81.1908 251.227 81.3978 251.803 81.3439C252.379 81.2899 252.87 80.9787 253.276 80.4101C253.679 79.8459 253.813 79.2827 253.677 78.7204C253.541 78.158 253.145 77.6428 252.49 77.1747C251.848 76.716 251.243 76.5167 250.676 76.5768C250.107 76.6295 249.62 76.9401 249.214 77.5087C248.808 78.0772 248.668 78.6395 248.795 79.1957C248.922 79.7518 249.309 80.2608 249.956 80.7227ZM257.472 75.196C256.933 75.9511 256.375 76.3786 255.799 76.4785C255.222 76.5709 254.616 76.3908 253.983 75.9382L251.32 74.0364L251.804 73.3594L254.616 75.3681C255.102 75.7153 255.555 75.8653 255.976 75.8182C256.396 75.771 256.791 75.4893 257.16 74.9728C257.522 74.465 257.66 74.0062 257.572 73.5964C257.488 73.1823 257.199 72.7985 256.704 72.4451L253.892 70.4364L254.375 69.7594L257.038 71.6611C257.671 72.1137 258.038 72.628 258.138 73.204C258.233 73.7768 258.011 74.4408 257.472 75.196ZM261.353 69.7622C260.987 70.2743 260.579 70.6482 260.129 70.8838C259.679 71.1194 259.209 71.2093 258.718 71.1535C258.222 71.0946 257.727 70.8885 257.232 70.5351C256.746 70.1879 256.399 69.7927 256.192 69.3494C255.98 68.903 255.914 68.4303 255.996 67.9312C256.077 67.4321 256.3 66.9265 256.666 66.4144C257.032 65.9023 257.436 65.529 257.879 65.2946C258.324 65.0559 258.793 64.9645 259.284 65.0203C259.771 65.073 260.257 65.2729 260.743 65.6201C261.238 65.9735 261.593 66.3749 261.81 66.8244C262.022 67.2708 262.089 67.7451 262.013 68.2473C261.939 68.7451 261.719 69.2501 261.353 69.7622ZM261.041 69.539C261.444 68.9748 261.577 68.4116 261.441 67.8492C261.306 67.2869 260.91 66.7717 260.255 66.3036C259.612 65.8449 259.008 65.6455 258.44 65.7057C257.872 65.7584 257.385 66.069 256.978 66.6376C256.572 67.2061 256.433 67.7684 256.56 68.3246C256.687 68.8807 257.074 69.3897 257.721 69.8516C258.376 70.3196 258.992 70.5267 259.568 70.4727C260.144 70.4188 260.635 70.1076 261.041 69.539ZM255.667 63.7937C255.628 63.6282 255.638 63.5042 255.697 63.4217C255.737 63.3653 255.785 63.3306 255.84 63.3175C255.891 63.3014 255.94 63.3104 255.988 63.3445C256.031 63.3755 256.059 63.4282 256.072 63.5026C256.084 63.577 256.093 63.7016 256.1 63.8765L256.107 64.7469L255.954 64.9617L255.667 63.7937ZM255.117 65.6518L255.442 65.1961L257.015 65.1003L256.787 65.4193L255.585 65.6425L255.764 66.8515L255.536 67.1705L255.117 65.6518ZM265.344 64.1751C264.789 64.952 264.159 65.403 263.453 65.5283C262.748 65.6536 262.015 65.4449 261.256 64.9025C260.513 64.3724 260.088 63.7571 259.979 63.0565C259.873 62.3516 260.096 61.6128 260.647 60.8403C261.097 60.211 261.595 59.7935 262.142 59.5876C262.689 59.3818 263.225 59.4109 263.751 59.675L263.332 60.2609C262.906 60.0681 262.487 60.0405 262.074 60.1781C261.657 60.3127 261.293 60.597 260.983 61.031C260.58 61.5952 260.444 62.1531 260.574 62.7049C260.707 63.2524 261.097 63.757 261.744 64.2189C262.404 64.6901 263.02 64.9009 263.593 64.8513C264.161 64.7986 264.648 64.4879 265.055 63.9194C265.365 63.4854 265.516 63.053 265.509 62.6221C265.502 62.1912 265.337 61.804 265.012 61.4605L265.43 60.8746C265.851 61.2863 266.052 61.7841 266.035 62.3682C266.017 62.9522 265.787 63.5545 265.344 64.1751ZM264.071 56.1849L264.554 55.5079L268.799 58.5395L270.845 55.6751L271.157 55.8983L268.628 59.4397L264.071 56.1849ZM273.177 53.2076C272.812 53.7197 272.404 54.0936 271.954 54.3292C271.503 54.5648 271.033 54.6547 270.542 54.5989C270.047 54.54 269.551 54.3339 269.057 53.9805C268.571 53.6333 268.224 53.2381 268.016 52.7948C267.804 52.3484 267.739 51.8757 267.82 51.3766C267.901 50.8775 268.124 50.3719 268.49 49.8598C268.856 49.3476 269.26 48.9744 269.703 48.74C270.149 48.5013 270.617 48.4099 271.108 48.4657C271.595 48.5184 272.081 48.7183 272.567 49.0655C273.062 49.4189 273.418 49.8203 273.634 50.2698C273.846 50.7162 273.914 51.1905 273.837 51.6926C273.763 52.1905 273.543 52.6955 273.177 53.2076ZM272.865 52.9844C273.268 52.4202 273.402 51.8569 273.266 51.2946C273.13 50.7323 272.734 50.2171 272.079 49.749C271.437 49.2902 270.832 49.0909 270.265 49.1511C269.696 49.2038 269.209 49.5144 268.803 50.0829C268.397 50.6515 268.257 51.2138 268.384 51.7699C268.511 52.3261 268.898 52.8351 269.545 53.2969C270.2 53.765 270.816 53.9721 271.392 53.9181C271.968 53.8642 272.459 53.5529 272.865 52.9844ZM274.069 53.8446C273.998 53.9444 273.907 54.0036 273.795 54.0222C273.691 54.0396 273.591 54.0142 273.496 53.946C273.4 53.8778 273.344 53.7916 273.326 53.6875C273.312 53.579 273.34 53.4748 273.412 53.375C273.483 53.2752 273.571 53.2166 273.675 53.1992C273.782 53.1775 273.884 53.2008 273.979 53.269C274.075 53.3372 274.129 53.4255 274.144 53.534C274.165 53.6413 274.141 53.7448 274.069 53.8446ZM266.941 49.0972L267.266 48.6415L268.839 48.5457L268.611 48.8647L267.41 49.0879L267.588 50.2969L267.36 50.6158L266.941 49.0972ZM274.37 43.8854L273.524 45.0702L273.27 44.8889C273.49 44.5615 273.62 44.2379 273.658 43.918C273.692 43.595 273.629 43.2977 273.47 43.0261L273.842 42.5053L278.398 45.7602L277.924 46.4242L274.37 43.8854ZM281.074 39.5088L279.2 42.1323L279.962 43.571L279.637 44.0267L276.707 38.3557L276.958 38.0042L283.175 39.0726L282.654 39.8017L281.074 39.5088ZM280.655 39.4353L277.459 38.8439L279 41.7529L280.655 39.4353Z" fill="#4A3021"/>
<path d="M164.301 168.795C164.641 168.728 164.916 168.537 165.125 168.223C165.34 167.909 165.46 167.52 165.486 167.057C165.491 166.961 165.488 166.865 165.478 166.768L165.713 166.853C165.735 167.047 165.741 167.231 165.731 167.407C165.712 167.753 165.635 168.08 165.501 168.388C165.372 168.691 165.195 168.945 164.97 169.152C164.751 169.359 164.505 169.498 164.234 169.568C164.096 170.346 163.767 170.937 163.248 171.341C162.724 171.745 162.051 171.924 161.231 171.879C160.635 171.847 160.13 171.699 159.717 171.436C159.299 171.172 158.991 170.808 158.792 170.343C158.593 169.878 158.511 169.332 158.545 168.703C158.58 168.075 158.721 167.543 158.969 167.108C159.218 166.668 159.564 166.34 160.009 166.124C160.448 165.907 160.966 165.816 161.562 165.848C162.441 165.896 163.12 166.179 163.599 166.697C164.072 167.214 164.306 167.914 164.301 168.795ZM161.277 171.04C162.082 171.085 162.712 170.93 163.17 170.575C163.627 170.221 163.875 169.695 163.913 168.998C163.951 168.305 163.762 167.758 163.346 167.356C162.93 166.954 162.32 166.731 161.516 166.687C160.728 166.644 160.111 166.8 159.664 167.154C159.212 167.503 158.967 168.027 158.929 168.724C158.89 169.422 159.074 169.972 159.479 170.373C159.885 170.774 160.484 170.997 161.277 171.04ZM164.662 162.347C164.612 163.274 164.37 163.933 163.937 164.326C163.499 164.713 162.891 164.886 162.114 164.843L158.847 164.664L158.892 163.833L162.343 164.022C162.94 164.055 163.403 163.939 163.732 163.674C164.062 163.409 164.244 162.96 164.279 162.326C164.313 161.703 164.184 161.242 163.89 160.943C163.597 160.638 163.147 160.469 162.54 160.436L159.089 160.247L159.135 159.416L162.402 159.595C163.179 159.638 163.764 159.875 164.157 160.308C164.545 160.741 164.713 161.42 164.662 162.347ZM165.028 155.679C164.994 156.308 164.85 156.842 164.596 157.282C164.342 157.722 163.993 158.05 163.548 158.266C163.098 158.482 162.57 158.573 161.963 158.54C161.366 158.507 160.862 158.359 160.449 158.096C160.031 157.833 159.722 157.469 159.523 157.004C159.324 156.539 159.242 155.992 159.277 155.364C159.311 154.736 159.453 154.204 159.701 153.769C159.949 153.328 160.296 153 160.74 152.784C161.179 152.568 161.697 152.476 162.294 152.509C162.901 152.542 163.416 152.691 163.84 152.954C164.258 153.218 164.569 153.582 164.773 154.047C164.978 154.507 165.063 155.051 165.028 155.679ZM164.645 155.658C164.683 154.966 164.494 154.419 164.078 154.017C163.662 153.615 163.052 153.392 162.248 153.348C161.459 153.304 160.842 153.46 160.395 153.815C159.943 154.164 159.698 154.687 159.66 155.385C159.622 156.083 159.805 156.632 160.211 157.034C160.616 157.435 161.215 157.658 162.009 157.701C162.813 157.745 163.444 157.59 163.901 157.236C164.359 156.882 164.606 156.356 164.645 155.658ZM157.029 153.686C156.908 153.568 156.849 153.458 156.855 153.356C156.859 153.287 156.881 153.232 156.92 153.192C156.954 153.151 157.001 153.132 157.059 153.135C157.113 153.138 157.164 153.168 157.215 153.224C157.265 153.28 157.34 153.38 157.439 153.525L157.911 154.256L157.897 154.519L157.029 153.686ZM157.56 155.55L157.591 154.991L158.867 154.068L158.846 154.459L157.951 155.291L158.749 156.216L158.728 156.608L157.56 155.55ZM165.404 148.824C165.352 149.777 165.061 150.496 164.533 150.979C164.004 151.463 163.274 151.68 162.342 151.628C161.431 151.578 160.742 151.287 160.275 150.754C159.807 150.216 159.6 149.472 159.652 148.524C159.694 147.752 159.891 147.133 160.242 146.666C160.594 146.199 161.062 145.936 161.648 145.878L161.608 146.597C161.145 146.662 160.776 146.864 160.502 147.201C160.221 147.538 160.067 147.973 160.037 148.506C159.999 149.198 160.183 149.742 160.589 150.138C160.995 150.529 161.594 150.746 162.388 150.79C163.197 150.834 163.831 150.682 164.288 150.333C164.74 149.984 164.985 149.461 165.023 148.763C165.052 148.23 164.948 147.784 164.712 147.424C164.475 147.064 164.128 146.826 163.669 146.71L163.709 145.991C164.284 146.113 164.721 146.426 165.019 146.928C165.318 147.43 165.446 148.062 165.404 148.824ZM160.048 142.759L160.094 141.929L165.302 142.214L165.495 138.7L165.878 138.721L165.64 143.066L160.048 142.759ZM166.142 135.366C166.108 135.995 165.963 136.529 165.71 136.969C165.456 137.409 165.107 137.737 164.662 137.953C164.212 138.169 163.684 138.26 163.077 138.227C162.48 138.194 161.976 138.046 161.563 137.783C161.145 137.52 160.836 137.156 160.637 136.691C160.438 136.226 160.356 135.679 160.391 135.051C160.425 134.422 160.566 133.891 160.815 133.456C161.063 133.015 161.41 132.687 161.854 132.471C162.293 132.255 162.811 132.163 163.408 132.196C164.015 132.229 164.53 132.377 164.953 132.641C165.372 132.904 165.683 133.269 165.887 133.734C166.091 134.194 166.176 134.738 166.142 135.366ZM165.759 135.345C165.797 134.653 165.608 134.106 165.192 133.704C164.776 133.302 164.166 133.079 163.362 133.034C162.573 132.991 161.956 133.147 161.509 133.502C161.057 133.851 160.812 134.374 160.774 135.072C160.736 135.769 160.919 136.319 161.325 136.72C161.73 137.122 162.329 137.344 163.123 137.388C163.927 137.432 164.558 137.277 165.015 136.923C165.473 136.569 165.72 136.043 165.759 135.345ZM167.236 135.426C167.23 135.549 167.184 135.648 167.1 135.723C167.021 135.794 166.923 135.826 166.806 135.819C166.689 135.813 166.595 135.77 166.525 135.692C166.455 135.608 166.423 135.504 166.43 135.382C166.436 135.259 166.479 135.163 166.558 135.093C166.637 135.017 166.735 134.982 166.852 134.989C166.969 134.995 167.063 135.04 167.133 135.124C167.209 135.203 167.243 135.304 167.236 135.426ZM158.674 135.237L158.705 134.678L159.981 133.754L159.96 134.146L159.065 134.978L159.863 135.903L159.842 136.295L158.674 135.237ZM166.39 129.38C165.998 129.316 165.644 129.109 165.326 128.761C165.009 128.412 164.688 127.879 164.365 127.162C164.164 126.729 163.977 126.387 163.804 126.137C163.631 125.888 163.451 125.704 163.265 125.587C163.074 125.47 162.856 125.404 162.611 125.391C162.185 125.368 161.853 125.478 161.615 125.721C161.372 125.964 161.238 126.325 161.211 126.805C161.184 127.3 161.288 127.698 161.522 127.999C161.752 128.295 162.082 128.46 162.513 128.494L162.473 129.213C161.934 129.12 161.518 128.851 161.228 128.408C160.937 127.965 160.81 127.41 160.846 126.744C160.871 126.292 160.962 125.899 161.119 125.566C161.277 125.227 161.488 124.969 161.754 124.791C162.021 124.614 162.319 124.534 162.649 124.552C162.921 124.567 163.167 124.647 163.389 124.793C163.605 124.938 163.819 125.172 164.031 125.493C164.244 125.809 164.479 126.247 164.737 126.806C164.914 127.184 165.068 127.481 165.201 127.696C165.333 127.907 165.469 128.066 165.607 128.175C165.74 128.279 165.896 128.351 166.076 128.393L166.282 124.639L166.649 124.659L166.39 129.38ZM163.735 120.523C163.988 119.901 164.248 119.453 164.514 119.179C164.78 118.9 165.084 118.77 165.425 118.789C165.749 118.806 166.028 118.931 166.261 119.163C166.495 119.39 166.667 119.703 166.779 120.105C166.89 120.506 166.931 120.973 166.902 121.506C166.874 122.022 166.785 122.469 166.636 122.845C166.488 123.216 166.291 123.499 166.045 123.694C165.8 123.884 165.517 123.97 165.198 123.952C164.825 123.932 164.51 123.773 164.254 123.476C163.993 123.178 163.82 122.779 163.735 122.277C163.536 122.699 163.329 123.006 163.116 123.197C162.897 123.388 162.66 123.476 162.404 123.462C161.984 123.439 161.662 123.216 161.439 122.792C161.212 122.369 161.117 121.805 161.156 121.102C161.179 120.671 161.253 120.293 161.378 119.969C161.503 119.645 161.668 119.397 161.875 119.227C162.077 119.056 162.306 118.978 162.561 118.992C162.838 119.007 163.081 119.152 163.291 119.425C163.495 119.698 163.643 120.064 163.735 120.523ZM162.306 122.616C162.546 122.629 162.758 122.518 162.942 122.282C163.126 122.041 163.325 121.625 163.539 121.033C163.426 120.663 163.273 120.375 163.082 120.166C162.89 119.953 162.683 119.84 162.459 119.828C162.198 119.814 161.978 119.932 161.799 120.184C161.619 120.436 161.518 120.77 161.496 121.185C161.473 121.601 161.537 121.941 161.688 122.205C161.834 122.464 162.04 122.601 162.306 122.616ZM166.562 121.431C166.59 120.909 166.504 120.485 166.303 120.159C166.102 119.833 165.818 119.66 165.45 119.639C165.264 119.629 165.098 119.681 164.953 119.796C164.803 119.906 164.659 120.09 164.522 120.35C164.385 120.609 164.237 120.967 164.078 121.423L163.966 121.721C164.044 122.153 164.186 122.489 164.391 122.73C164.592 122.965 164.847 123.092 165.156 123.108C165.55 123.13 165.875 122.988 166.133 122.681C166.39 122.375 166.533 121.958 166.562 121.431Z" fill="#4A3021"/>
<path d="M55.3579 197.101C54.568 197.637 53.8205 197.842 53.1153 197.715C52.4101 197.587 51.7954 197.138 51.2712 196.365C50.759 195.611 50.5732 194.886 50.7138 194.191C50.8588 193.493 51.324 192.878 52.1095 192.344C52.7493 191.91 53.3614 191.691 53.9456 191.688C54.5299 191.684 55.0228 191.898 55.4243 192.328L54.8286 192.732C54.496 192.404 54.1122 192.232 53.6772 192.218C53.2392 192.2 52.7995 192.34 52.3583 192.64C51.7846 193.029 51.4632 193.505 51.3939 194.068C51.3291 194.628 51.5199 195.236 51.9662 195.894C52.4215 196.564 52.9264 196.976 53.481 197.128C54.0325 197.276 54.5973 197.153 55.1753 196.761C55.6166 196.461 55.9087 196.108 56.0518 195.702C56.1948 195.295 56.1735 194.875 55.9879 194.44L56.5836 194.035C56.8351 194.567 56.8515 195.104 56.6326 195.646C56.4138 196.188 55.9889 196.673 55.3579 197.101ZM60.8073 191.545L58.1398 193.356L58.3553 194.97L57.892 195.284L57.111 188.949L57.4684 188.706L62.929 191.865L62.1877 192.368L60.8073 191.545ZM60.4394 191.331L57.6474 189.668L58.083 192.93L60.4394 191.331ZM65.5718 190.167C65.0511 190.521 64.5388 190.73 64.0349 190.795C63.531 190.86 63.0585 190.781 62.6173 190.558C62.1731 190.331 61.7803 189.966 61.4388 189.463C61.1033 188.969 60.915 188.478 60.8739 187.99C60.8298 187.498 60.9324 187.032 61.1817 186.592C61.4309 186.152 61.8159 185.755 62.3366 185.402C62.8573 185.048 63.3659 184.838 63.8623 184.772C64.3632 184.703 64.8343 184.779 65.2755 185.002C65.7137 185.22 66.1005 185.576 66.436 186.071C66.7775 186.574 66.9718 187.073 67.0189 187.57C67.063 188.062 66.9619 188.531 66.7156 188.975C66.4737 189.416 66.0925 189.814 65.5718 190.167ZM65.3561 189.85C65.9297 189.46 66.2504 188.978 66.3181 188.404C66.3857 187.829 66.1934 187.209 65.7411 186.542C65.2977 185.889 64.7996 185.493 64.2466 185.352C63.6951 185.205 63.1303 185.327 62.5523 185.719C61.9742 186.112 61.6484 186.591 61.5747 187.157C61.5011 187.722 61.6874 188.334 62.1337 188.991C62.5861 189.658 63.0917 190.065 63.6506 190.214C64.2096 190.364 64.7781 190.242 65.3561 189.85ZM69.2351 181.279L67.2759 182.609L67.0602 182.292L71.6603 179.169L71.876 179.487L69.9234 180.812L72.8531 185.128L72.1647 185.595L69.2351 181.279ZM77.7754 181.883C77.2547 182.236 76.7425 182.445 76.2386 182.51C75.7347 182.575 75.2621 182.496 74.8209 182.274C74.3767 182.047 73.9839 181.682 73.6424 181.179C73.3069 180.684 73.1186 180.193 73.0775 179.705C73.0335 179.213 73.1361 178.747 73.3853 178.307C73.6346 177.867 74.0196 177.471 74.5402 177.117C75.0609 176.764 75.5695 176.554 76.066 176.487C76.5669 176.418 77.0379 176.495 77.4791 176.717C77.9173 176.936 78.3042 177.292 78.6397 177.786C78.9812 178.289 79.1755 178.789 79.2225 179.286C79.2666 179.778 79.1655 180.246 78.9192 180.69C78.6774 181.132 78.2961 181.529 77.7754 181.883ZM77.5597 181.565C78.1334 181.176 78.454 180.694 78.5217 180.119C78.5894 179.545 78.397 178.924 77.9447 178.258C77.5014 177.605 77.0032 177.208 76.4503 177.068C75.8988 176.92 75.334 177.042 74.7559 177.435C74.1779 177.827 73.852 178.306 73.7784 178.872C73.7047 179.438 73.8911 180.049 74.3374 180.707C74.7897 181.373 75.2953 181.781 75.8543 181.93C76.4132 182.079 76.9817 181.957 77.5597 181.565ZM74.5123 174.313C74.533 174.144 74.5853 174.031 74.6692 173.974C74.7265 173.935 74.7834 173.919 74.8396 173.926C74.8929 173.929 74.936 173.954 74.969 174.003C74.9989 174.047 75.0068 174.106 74.9926 174.18C74.9785 174.254 74.944 174.374 74.8892 174.54L74.5943 175.359L74.3758 175.508L74.5123 174.313ZM73.3515 175.865L73.8148 175.55L75.3231 176.006L74.9987 176.226L73.7944 176.018L73.5426 177.214L73.2182 177.434L73.3515 175.865ZM83.456 178.026C82.6662 178.563 81.9186 178.767 81.2134 178.64C80.5082 178.513 79.8935 178.063 79.3693 177.291C78.8571 176.536 78.6713 175.811 78.8119 175.116C78.9569 174.419 79.4221 173.803 80.2076 173.27C80.8474 172.835 81.4595 172.617 82.0437 172.613C82.628 172.61 83.1209 172.823 83.5225 173.253L82.9268 173.657C82.5941 173.329 82.2103 173.158 81.7753 173.143C81.3373 173.125 80.8976 173.265 80.4564 173.565C79.8827 173.954 79.5613 174.43 79.492 174.993C79.4272 175.553 79.618 176.161 80.0643 176.819C80.5196 177.49 81.0245 177.901 81.5791 178.053C82.1306 178.201 82.6954 178.079 83.2734 177.686C83.7147 177.387 84.0068 177.034 84.1499 176.627C84.2929 176.221 84.2716 175.8 84.086 175.365L84.6817 174.961C84.9332 175.493 84.9496 176.029 84.7307 176.571C84.5119 177.113 84.087 177.598 83.456 178.026ZM90.037 173.559C89.3486 174.026 88.6776 174.182 88.0239 174.026C87.3717 173.863 86.7865 173.4 86.2682 172.636C85.75 171.873 85.5369 171.16 85.629 170.498C85.7225 169.829 86.1134 169.261 86.8018 168.793C87.4858 168.329 88.1538 168.178 88.8061 168.342C89.4597 168.497 90.0457 168.957 90.5639 169.72C91.0821 170.484 91.2967 171.198 91.2076 171.865C91.1156 172.527 90.7253 173.092 90.037 173.559ZM89.8483 173.281C90.3072 172.969 90.5381 172.545 90.541 172.008C90.5483 171.468 90.3243 170.863 89.8689 170.192C89.4136 169.521 88.9337 169.09 88.4291 168.897C87.929 168.702 87.4494 168.76 86.9905 169.071C86.5316 169.383 86.2985 169.809 86.2912 170.349C86.2883 170.886 86.5145 171.489 86.9698 172.16C87.4252 172.831 87.9029 173.264 88.4031 173.459C88.9076 173.652 89.3893 173.592 89.8483 173.281ZM92.0681 166.804L90.8635 167.622L90.6882 167.364C91.0088 167.133 91.2425 166.874 91.3895 166.588C91.5335 166.297 91.5776 165.996 91.5218 165.686L92.0513 165.326L95.1966 169.96L94.5215 170.418L92.0681 166.804Z" fill="#4A3021"/>
<path d="M269.592 116.4H270.424V118.808H274.016V116.4H274.848V122H274.016V119.184H270.424V122H269.592V116.4ZM278.902 122.08C278.272 122.08 277.731 121.965 277.278 121.736C276.824 121.507 276.478 121.176 276.238 120.744C275.998 120.307 275.878 119.784 275.878 119.176C275.878 118.579 275.998 118.067 276.238 117.64C276.478 117.208 276.824 116.88 277.278 116.656C277.731 116.432 278.272 116.32 278.902 116.32C279.531 116.32 280.07 116.432 280.518 116.656C280.971 116.88 281.318 117.208 281.558 117.64C281.798 118.067 281.918 118.579 281.918 119.176C281.918 119.784 281.798 120.307 281.558 120.744C281.318 121.176 280.971 121.507 280.518 121.736C280.07 121.965 279.531 122.08 278.902 122.08ZM278.902 121.696C279.595 121.696 280.131 121.477 280.51 121.04C280.888 120.603 281.078 119.981 281.078 119.176C281.078 118.387 280.888 117.779 280.51 117.352C280.136 116.92 279.6 116.704 278.902 116.704C278.203 116.704 277.664 116.917 277.286 117.344C276.907 117.771 276.718 118.381 276.718 119.176C276.718 119.981 276.907 120.603 277.286 121.04C277.664 121.477 278.203 121.696 278.902 121.696ZM279.574 114.384C279.44 114.283 279.344 114.205 279.286 114.152C279.232 114.093 279.206 114.037 279.206 113.984C279.206 113.925 279.227 113.88 279.27 113.848C279.312 113.811 279.368 113.792 279.438 113.792C279.544 113.792 279.648 113.856 279.75 113.984L280.542 114.896H280.27L279.574 114.384ZM278.622 114.616H279.182L280.174 115.84H279.782L278.902 114.992L278.022 115.84H277.63L278.622 114.616ZM282.951 116.4H283.791L287.199 120.744V116.4H287.903V122H287.487L283.655 117.128V122H282.951V116.4ZM292.036 122.08C291.386 122.08 290.828 121.968 290.364 121.744C289.9 121.515 289.546 121.184 289.3 120.752C289.055 120.32 288.932 119.805 288.932 119.208C288.932 118.611 289.052 118.096 289.292 117.664C289.532 117.232 289.879 116.901 290.332 116.672C290.786 116.437 291.324 116.32 291.948 116.32C292.706 116.32 293.327 116.485 293.812 116.816C294.303 117.141 294.599 117.592 294.7 118.168H293.98C293.884 117.699 293.663 117.339 293.316 117.088C292.97 116.832 292.522 116.704 291.972 116.704C291.284 116.704 290.746 116.925 290.356 117.368C289.967 117.805 289.772 118.416 289.772 119.2C289.772 119.995 289.97 120.611 290.364 121.048C290.764 121.48 291.324 121.696 292.044 121.696C292.38 121.696 292.687 121.661 292.964 121.592C293.242 121.517 293.506 121.403 293.756 121.248V119.432H291.796V119.072H294.588V121.304C294.274 121.555 293.898 121.747 293.46 121.88C293.028 122.013 292.554 122.08 292.036 122.08ZM297.858 116.4H299.978C300.746 116.4 301.34 116.541 301.762 116.824C302.183 117.107 302.394 117.539 302.394 118.12C302.394 118.696 302.186 119.125 301.77 119.408C301.354 119.691 300.756 119.832 299.978 119.832H298.69V122H297.858V116.4ZM299.994 119.448C301.039 119.448 301.562 119.005 301.562 118.12C301.562 117.229 301.039 116.784 299.994 116.784H298.69V119.448H299.994ZM303.17 116.4H304.002V118.808H307.594V116.4H308.426V122H307.594V119.184H304.002V122H303.17V116.4ZM312.48 122.08C311.85 122.08 311.309 121.965 310.856 121.736C310.402 121.507 310.056 121.176 309.816 120.744C309.576 120.307 309.456 119.784 309.456 119.176C309.456 118.579 309.576 118.067 309.816 117.64C310.056 117.208 310.402 116.88 310.856 116.656C311.309 116.432 311.85 116.32 312.48 116.32C313.109 116.32 313.648 116.432 314.096 116.656C314.549 116.88 314.896 117.208 315.136 117.64C315.376 118.067 315.496 118.579 315.496 119.176C315.496 119.784 315.376 120.307 315.136 120.744C314.896 121.176 314.549 121.507 314.096 121.736C313.648 121.965 313.109 122.08 312.48 122.08ZM312.48 121.696C313.173 121.696 313.709 121.477 314.088 121.04C314.466 120.603 314.656 119.981 314.656 119.176C314.656 118.387 314.466 117.779 314.088 117.352C313.714 116.92 313.178 116.704 312.48 116.704C311.781 116.704 311.242 116.917 310.864 117.344C310.485 117.771 310.296 118.381 310.296 119.176C310.296 119.981 310.485 120.603 310.864 121.04C311.242 121.477 311.781 121.696 312.48 121.696ZM316.53 116.4H317.37L320.778 120.744V116.4H321.482V122H321.066L317.234 117.128V122H316.53V116.4ZM325.614 122.08C324.964 122.08 324.406 121.968 323.942 121.744C323.478 121.515 323.124 121.184 322.878 120.752C322.633 120.32 322.51 119.805 322.51 119.208C322.51 118.611 322.63 118.096 322.87 117.664C323.11 117.232 323.457 116.901 323.91 116.672C324.364 116.437 324.902 116.32 325.526 116.32C326.284 116.32 326.905 116.485 327.39 116.816C327.881 117.141 328.177 117.592 328.278 118.168H327.558C327.462 117.699 327.241 117.339 326.894 117.088C326.548 116.832 326.1 116.704 325.55 116.704C324.862 116.704 324.324 116.925 323.934 117.368C323.545 117.805 323.35 118.416 323.35 119.2C323.35 119.995 323.548 120.611 323.942 121.048C324.342 121.48 324.902 121.696 325.622 121.696C325.958 121.696 326.265 121.661 326.542 121.592C326.82 121.517 327.084 121.403 327.334 121.248V119.432H325.374V119.072H328.166V121.304C327.852 121.555 327.476 121.747 327.038 121.88C326.606 122.013 326.132 122.08 325.614 122.08Z" fill="#4A3021"/>
<g clip-path="url(#clip1_5632_13931)">
<path d="M318.247 174.184C318.247 174.184 323.175 180.702 323.175 184.539C323.175 188.376 324.969 200.34 323.175 203.132C321.381 205.924 318.7 210.26 318.247 215.346C317.794 220.431 315.575 233.976 313.671 237.471C311.766 240.965 315.973 258.736 315.973 258.736" stroke="#4A3021" stroke-width="0.5" stroke-miterlimit="10"/>
</g>
</g>
<defs>
<clipPath id="clip0_5632_13931">
<rect width="382" height="570" fill="white"/>
</clipPath>
<clipPath id="clip1_5632_13931">
<rect width="11.7236" height="84.959" fill="white" transform="translate(312.711 173.904)"/>
</clipPath>
</defs>
</svg>
