<svg width="788" height="675" viewBox="0 0 788 675" fill="none" xmlns="http://www.w3.org/2000/svg">
<g clip-path="url(#clip0_5617_11066)">
<path d="M-4.26953 -3V679.96H779.274C779.274 679.96 764.92 632.173 772.323 621.1C768.23 620.939 763.663 617.776 761.259 616.827C758.855 615.877 756.371 605.895 748.495 599.247C740.62 592.6 719.879 579.547 714.488 576.081C709.097 572.616 681.125 556.401 671.167 545.581C661.209 534.76 644.764 519.313 628.339 489.58C611.913 459.847 589.554 427.184 583.901 397.108C578.248 367.031 576.086 359.727 580.129 348.361C584.172 336.995 586.586 323.74 593.597 323.74C600.608 323.74 602.217 332.893 605.064 332.055C607.91 331.216 608.916 326.831 612.275 327.508C615.635 328.185 617.134 330.539 619.809 329.195C622.485 327.852 626.508 319.769 631.879 319.436C637.25 319.103 643.275 319.769 645.287 323.305C647.298 326.841 647.63 332.893 651.322 331.044C655.013 329.195 656.512 327.508 655.677 322.295C654.842 317.082 652.991 312.697 658.192 311.182C663.392 309.666 666.731 308.08 668.069 305.342C669.407 302.604 678.127 306.353 680.642 304.453C683.156 302.554 685.832 304.12 688.688 301.927C691.545 299.735 691.203 298.735 684.836 294.522C678.469 290.309 676.287 280.56 674.949 276.519C673.611 272.477 668.421 268.436 664.729 269.79C661.038 271.144 655.345 275.175 656.19 280.216C657.035 285.258 659.368 292.673 655.687 294.522C652.006 296.371 648.646 298.391 644.462 294.017C640.278 289.642 641.947 286.611 636.254 283.247C630.561 279.883 626.87 276.519 620 279.883C613.13 283.247 611.793 283.924 608.272 278.206C604.752 272.487 601.07 262.556 595.538 259.182C590.006 255.808 584.142 253.292 581.628 254.474C579.113 255.656 574.758 260.364 572.917 261.879C571.077 263.395 565.544 262.385 563.865 263.395C562.185 264.405 560.344 268.941 560.012 271.305C559.68 273.67 558.333 279.883 554.983 281.408C551.634 282.934 547.108 289.147 547.439 291.845C547.771 294.542 541.746 292.855 540.077 294.37C538.407 295.886 534.374 302.109 536.888 303.463C537.991 304.082 539.256 304.35 540.514 304.229C541.772 304.108 542.963 303.605 543.929 302.786C545.438 301.281 551.302 301.443 552.137 304.302C552.972 307.161 558.172 307.838 562.859 308.515C567.546 309.191 573.923 312.051 572.746 318.446C571.569 324.841 571.74 335.621 568.552 334.429C565.363 333.237 563.865 324.164 563.865 322.143C563.865 320.123 560.012 320.456 557.659 324.498C555.315 320.456 558.333 315.243 555.154 315.071C551.976 314.9 550.628 319.284 550.799 323.326C550.97 327.367 544.09 333.247 543.587 333.247C543.084 333.247 540.912 328.71 540.077 331.226C539.242 333.742 542.752 335.944 538.397 336.449C534.042 336.954 529.345 336.954 529.687 339.642C530.029 342.329 531.698 350.412 529.013 353.281C526.327 356.15 520.966 361.525 510.586 359.666C500.206 357.807 478.58 350.078 464.509 337.621C450.437 325.164 441.897 313.899 435.531 300.937C429.164 287.975 428.661 281.59 428.661 277.549C428.661 273.508 433.519 271.154 437.874 273.508C442.229 275.862 444.915 275.528 446.756 271.831C448.596 268.133 448.093 265.436 446.253 262.071C444.412 258.707 440.55 251.968 445.911 247.765C451.272 243.563 452.117 242.381 457.478 246.078C462.839 249.776 464.851 249.948 465.685 247.927C466.174 246.582 466.209 245.113 465.786 243.746C465.362 242.379 464.504 241.19 463.342 240.36C460.495 238.339 465.183 240.693 465.183 234.632C465.183 228.57 463.171 211.243 470.373 210.233C470.373 210.233 476.237 211.748 477.242 207.879C478.248 204.01 484.354 209.738 486.717 207.687C489.081 205.636 491.887 203.898 493.758 201.201C495.629 198.504 505.597 197.635 510.656 198.716C515.716 199.797 518.401 190.633 515.816 187.047C513.231 183.46 512.155 186.723 502.801 179.268C501.614 178.833 498.385 178.722 499.461 182.723C496.886 183.157 494.301 181.854 491.716 183.48C489.131 185.107 489.785 188.663 485.681 187.804C481.578 186.946 477.635 184.885 473.531 179.803C472.887 178.722 471.057 183.157 467.295 179.156C463.533 175.156 462.668 171.488 459.972 172.246C457.277 173.004 451.795 174.186 453.203 179.48C453.947 180.995 453.847 182.834 449.431 181.965C445.016 181.096 443.949 180.955 442.229 177.429C439.534 176.782 441.475 177.964 434.585 178.075C427.695 178.186 430.28 179.086 427.916 180.561C425.553 182.036 422.535 185.531 417.053 179.268C415.766 177.752 415.333 176.56 410.817 174.832C406.301 173.105 407.589 175.701 400.055 168.568C392.521 161.436 394.141 160.729 390.198 161.951C386.255 163.173 348.405 100.384 348.405 100.384L323.732 60.7295C323.732 60.7295 319.709 55.3951 327.695 54.4252C329.979 54.6677 325.905 37.6846 320.222 31.1076C318.331 29.7942 322.093 29.2992 321.117 27.7837C320.141 26.2683 319.88 25.5611 317.748 25.9248C315.615 26.2885 312.97 26.1874 309.701 20.4085C306.432 14.6296 306.422 14.0033 304.742 14.8924C303.063 15.7814 297.701 17.5595 298.546 22.7222C299.391 27.8848 301.373 36.0581 300.488 38.3716C299.603 40.6852 304.39 39.5334 304.39 39.5334C304.39 39.5334 307.931 45.4033 302.881 47.8886C297.832 50.3739 288.267 57.4056 273.159 53.6473C258.052 49.889 248.567 45.3124 249.914 55.2537C249.844 56.365 256.503 62.7501 249.914 67.1651C243.326 71.5801 244.885 72.6207 239.574 72.9238C234.264 73.2268 233.972 77.6923 231.679 77.8136C229.923 77.9642 228.159 78.0013 226.398 77.9247C223.873 77.8135 226.398 74.5806 231.91 72.6206C237.422 70.6606 239.957 70.5496 241.194 67.6702C242.431 64.7909 246.132 62.255 245.328 60.5274C244.523 58.7998 242.23 60.6385 240.852 62.0226C239.474 63.4067 237.834 67.9025 235.692 66.0638C233.549 64.2251 236.265 61.2245 240.51 58.234C244.754 55.2435 248.878 53.0512 248.999 49.2525C249.12 45.4538 247.39 44.9891 243.145 43.3726C238.901 41.7561 224.336 27.9353 224.034 22.3989C223.733 16.8624 225.523 17.1049 221.741 16.1855C217.959 15.2661 217.265 15.7208 213.936 11.6897C210.606 7.6586 210.264 13.9932 210.385 15.1449C210.506 16.2967 208.434 18.6001 201.091 12.9525C193.749 7.305 192.039 6.73923 189.021 3.16278C186.004 -0.413667 181.789 0.131912 180.532 1.66756C179.275 3.20321 180.985 5.70878 177.776 5.93104C175.363 6.03884 172.945 5.92042 170.554 5.5774C169.056 5.46627 168.945 0.970483 173.873 0.0511133C178.802 -0.868256 175.825 -2.97977 175.825 -2.97977L-4.26953 -3Z" fill="white"/>
<path d="M520.143 179.328C520.143 179.328 531.116 192.695 531.911 186.308C532.705 179.921 538.952 176.381 532.716 170.165C526.479 163.949 524.93 163.355 523.733 168.153C522.536 172.951 517.849 176.672 520.143 179.328Z" fill="white"/>
<path d="M7.40663 -1.11907C7.40663 -1.11907 0.426141 -1.26995 2.86025 1.76767C5.29437 4.80528 6.50139 4.78515 3.01115 6.46488C-0.479084 8.14462 -7.91219 14.3506 -2.14877 13.1436C3.61465 11.9366 12.4157 9.35165 14.2363 8.43634C16.0568 7.52103 16.3586 3.88994 20.4524 9.65336C24.5461 15.4168 26.8192 15.2659 26.8192 21.6328C26.8192 27.9998 29.4042 31.49 23.6408 32.8579C23.1781 34.5276 20.7541 44.8474 24.5461 50.7617C28.338 56.676 27.7346 59.7036 28.489 61.9868C29.2433 64.2701 44.1094 75.9377 44.1094 75.9377L52.2869 84.1151C52.2869 84.1151 84.8859 89.8584 89.5026 85.5535C94.1194 81.2485 105.143 71.2103 105.143 75.123C105.143 79.0357 98.8872 87.6355 102.8 92.7251C106.713 97.8146 108.835 102.109 110.494 102.109C112.154 102.109 128.227 95.984 129.796 99.092C131.365 102.2 138.919 100.923 147.006 94.274C148.696 93.0972 151.563 94.4048 155.344 92.9664C159.126 91.5281 158.09 86.3179 158.865 85.2718C159.639 84.2257 166.912 84.618 169.044 80.2426C171.176 75.8673 172.564 72.025 170.603 66.8047C173.339 65.5072 178.559 64.9842 177.382 57.8126C176.205 50.641 176.024 53.6384 177.553 48.6797C179.082 43.7209 185.469 35.121 176.547 32.7774C174.335 30.9468 177.986 26.5212 174.204 23.1315C170.422 19.7419 174.727 18.9573 174.858 16.3422C174.988 13.727 175.25 10.0859 169.637 11.132C164.809 12.0222 160.089 13.4214 155.556 15.3061C150.084 17.3882 149.299 18.9573 146.564 16.7345C143.828 14.5116 142.912 19.0881 142.912 19.0881C142.912 19.0881 140.307 20.0939 137.561 15.9599C135.218 15.9599 126.226 18.3035 121.659 15.4369C117.093 12.5703 109.267 6.17321 106.572 2.52204C105.264 3.04507 108.272 9.1706 106.31 9.82439C104.349 10.4782 102.287 11.836 102.397 13.737C102.508 15.6381 99.1386 14.3909 96.1412 15.0447C93.1439 15.6985 94.8336 19.7419 92.2285 20.1241C89.6234 20.5063 85.9723 20.6471 85.58 17.519C85.1877 14.3908 85.7107 20.6471 83.3671 21.5423C81.0235 22.4375 76.5878 21.15 76.3263 23.4936C76.0648 25.8372 72.8059 25.5857 71.3676 24.6704C69.9292 23.7551 72.6751 27.014 68.7624 26.7626C64.8497 26.5111 65.3727 26.2396 65.242 22.3269C65.1112 18.4142 62.7576 24.0167 61.8523 21.8038C60.9471 19.591 62.2446 15.5475 65.242 15.9398C68.2394 16.3321 72.5444 15.4168 73.5804 11.9165C74.6164 8.41618 71.4983 1.486 76.7085 1.35524C81.9187 1.22448 84.9261 1.99899 87.0183 1.99899C89.1104 1.99899 91.0416 -0.173617 87.7928 -1.08892C84.5439 -2.00423 70.1907 -1.99414 70.1907 -1.99414C70.1907 -1.99414 73.0674 4.74494 70.8445 8.00384C68.6216 11.2627 68.6317 13.7371 66.5395 12.8218C64.4474 11.9064 54.4695 -1.99414 51.1603 -1.99414C47.8511 -1.99414 7.40663 -1.11907 7.40663 -1.11907Z" fill="#DBDBDB"/>
<path d="M11.6948 132.727C11.6948 132.727 19.4899 125.928 24.4889 130.927C29.4879 135.926 34.678 136.519 36.6695 132.727C38.6611 128.935 41.2662 132.446 39.8681 135.181C38.47 137.917 38.2689 142.514 42.2721 144.113C46.2753 145.712 52.8634 153.709 48.8602 153.709C44.857 153.709 41.6685 152.703 39.4658 149.313C37.263 145.924 36.0761 143.077 32.425 141.397C28.7738 139.718 24.6297 134.125 25.2332 136.72C25.8367 139.315 20.8378 142.755 24.0363 144.113C27.2349 145.471 32.8273 146.316 32.0226 149.907C31.2179 153.498 28.4318 155.308 29.0051 158.104C29.5784 160.901 33.2095 165.698 35.2011 168.092C37.1926 170.486 39.5966 173.292 36.5992 172.488C33.6018 171.683 33.2095 173.242 29.8098 170.164C26.4101 167.086 23.6138 159.905 22.8192 155.902C22.0246 151.898 10.699 137.324 11.6948 132.727Z" fill="#DBDBDB"/>
<path d="M164.99 675.565C164.99 675.565 199.631 656.957 203.875 651.616C208.12 646.275 222.664 639.455 232.038 637.977C241.413 636.498 250.465 634.296 255.253 630.061C260.041 625.826 267.786 629.136 268.892 631.529C269.999 633.923 277.945 638.721 282.34 640.19C286.736 641.658 294.682 644.213 300.576 641.296C306.47 638.379 313.109 628.954 317.896 629.87C322.684 630.785 330.972 633.561 335.217 633.189C339.461 632.817 348.484 630.795 351.803 624.348C355.122 617.9 359.286 608.134 363.692 607.752C368.097 607.369 373.64 606.243 375.762 609.14C377.884 612.036 385.921 620.666 387.369 628.985C388.818 637.303 404.68 609.643 407.385 608.295C410.091 606.947 412.797 603.457 414.154 599.011C415.512 594.565 413.963 585.865 418.178 588.188C422.392 590.512 429.976 593.992 432.682 590.512C435.388 587.031 439.451 582.777 442.348 584.708C445.245 586.639 446.603 582.193 446.794 580.835C446.985 579.478 452.748 580.393 454.569 582.032C456.389 583.672 456.761 579.719 459.125 578.23C461.489 576.742 463.863 570.737 472.201 568.373C480.539 566.01 489.863 553.799 490.044 552.35C490.226 550.902 493.323 551.978 496.421 549.796C499.519 547.613 503.885 543.419 499.7 534.859C495.516 526.299 502.98 524.66 504.438 524.66C505.896 524.66 510.262 525.394 510.624 526.671C510.986 527.949 515.542 525.947 516.659 522.306C517.775 518.665 525.037 513.565 526.315 513.384C527.592 513.203 524.856 507.913 525.399 503.909C525.943 499.906 526.496 500.631 524.303 496.808C522.11 492.986 530.338 487.756 530.338 487.756L531.615 490.301C531.615 490.301 525.42 492.312 525.963 494.123C526.506 495.933 528.699 500.681 527.974 504.181C527.25 507.681 530.71 510.015 528.89 512.922C527.069 515.829 522.694 517.478 521.426 518.756C520.159 520.033 517.785 525.676 515.049 527.808C512.314 529.94 509.014 531.268 508.129 529.267C507.244 527.265 507.023 525.645 504.599 526.661C502.175 527.677 499.751 528.311 499.912 530.111C500.073 531.912 501.159 533.783 501.863 535.352C502.567 536.921 503.04 537.072 502.869 541.055C502.698 545.038 502.094 547.09 500.445 548.88C498.795 550.671 491.533 554.282 490.195 555.609C487.943 558.023 485.853 560.584 483.939 563.274C481.827 566.291 481.364 567.035 479.252 567.659C476.873 568.23 474.542 568.987 472.281 569.922C469.264 571.25 468.137 575.555 465.402 576.812C462.666 578.069 458.904 579.588 458.904 581.68C458.904 583.773 458.28 585.493 456.409 585.02C454.539 584.547 454.217 582.515 452.185 582.515C450.153 582.515 449.751 584.597 447.88 586.77C446.009 588.943 445.868 587.263 443.495 586.77C441.121 586.277 436.061 589.948 434.583 591.668C433.104 593.388 431.917 594.022 426.908 593.469C421.899 592.916 419.244 589.797 418.459 590.894C417.675 591.99 417.755 596.929 417.061 598.709C416.367 600.489 413.923 604.191 413.038 605.991C412.153 607.792 408.814 610.286 407.244 611.775C405.675 613.264 402.215 618.665 400.364 621.159C398.514 623.654 393.324 631.65 390.115 632.747C386.906 633.843 385.74 633.833 384.643 629.065C383.547 624.298 382.29 621.793 377.995 617.176C373.7 612.559 377.13 610.92 372.593 610.367C368.057 609.814 366.025 608.023 362.968 612.006C359.91 615.989 356.872 623.201 352.96 626.792C349.047 630.383 349.52 632.505 344.35 633.521C339.18 634.537 334.291 637.746 328.79 635.633C323.288 633.521 321.668 631.489 318.731 633.209C315.794 634.929 307.395 639.315 303.241 642.262C299.087 645.209 295.818 647.653 289.713 647.291C283.607 646.929 277.904 646.194 274.847 642.362C271.789 638.53 268.983 634.929 265.935 634.537C262.887 634.145 261.469 631.519 256.933 634.849C252.396 638.178 250.757 639.003 242.539 641.115C234.322 643.227 227.291 640.17 222.745 643.227C218.198 646.285 215.161 646.044 209.216 652.219C203.272 658.395 196.704 662.942 191.926 665.054C187.148 667.166 183.165 668.182 179.725 670.687C176.285 673.191 169.948 677.013 169.948 677.013L163.531 677.516L164.99 675.565Z" fill="#DBDBDB"/>
<path d="M543.538 332.245C543.538 332.245 543.377 334.417 545.63 337.475C547.883 340.533 552.47 345.662 552.148 350.37C551.826 355.077 552.399 370.054 552.148 376.048C551.896 382.043 549.603 397.02 552.208 395.843C554.813 394.666 558.877 390.814 561.009 397.855C563.141 404.896 565.324 409.1 561.009 411.665C556.694 414.23 555.98 415.266 552.037 416.926C548.094 418.585 547.782 423.785 543.518 426.219C539.253 428.654 539.102 433.763 533.691 436.771C528.279 439.778 519.71 447.292 515.797 449.404C511.884 451.516 511.945 452.351 513.654 452.502C515.364 452.653 520.464 451.426 520.927 453.276C521.389 455.127 524.025 455.6 524.186 453.276C524.347 450.953 521.55 447.704 526.036 445.531C530.522 443.359 537.191 438.098 539.977 437.022C542.763 435.946 543.226 426.803 546.012 426.964C548.798 427.125 549.573 424.017 551.584 421.854C553.596 419.692 559.289 415.97 563.483 419.531C567.678 423.091 569.86 423.554 566.451 428.513C563.041 433.471 561.653 437.957 560.255 442.916C558.857 447.875 556.845 446.165 556.533 449.887C556.221 453.608 557.619 456.233 553.908 460.719C550.196 465.205 547.551 463.506 546.626 466.604C545.7 469.702 548.486 473.423 547.4 476.36C546.314 479.297 543.216 483.18 541.667 486.589C541.017 488.239 540.833 490.035 541.134 491.783C541.436 493.53 542.211 495.161 543.377 496.497C545.389 498.509 551.122 499.595 551.122 502.23C551.122 504.865 546.777 516.01 548.175 517.559C549.573 519.108 558.826 515.346 562.669 518.987C566.511 522.628 571.44 525.606 573.149 527.104C574.859 528.603 576.167 535.231 576.358 537.585C576.549 539.939 577.635 559.17 578.068 563.445C578.501 567.72 577.636 572.86 579.345 573.715C581.055 574.57 580.08 565.014 580.08 561.433C580.08 557.853 579.878 547.211 579.788 542.856C579.697 538.501 578.138 530.655 575.624 527.074C573.109 523.493 567.688 522.045 566.571 519.913C565.455 517.78 557.338 514.521 552.731 516.04C548.124 517.559 550.217 511.102 551.474 508.999C552.731 506.897 554.954 501.959 550.699 498.639C546.445 495.32 541.114 492.987 544.021 487.686C546.927 482.385 549.15 482.184 550.408 478.221C551.665 474.258 547.792 470.959 550.8 469.993C553.807 469.028 560.184 465.829 560.084 463.023C559.983 460.216 560.959 455.308 560.084 453.025C559.209 450.742 559.792 449.183 561.442 445.984C563.091 442.785 563.182 435.443 566.28 433.411C569.378 431.379 569.669 430.394 571.027 431.762C572.385 433.129 577.796 434.668 579.738 439.114C581.679 443.56 582.926 454.896 586.899 455.57C590.872 456.244 590.671 458.668 590.862 456.243C591.053 453.819 587.382 456.052 585.924 448.8C584.465 441.548 580.512 438.249 581.568 434.467C582.624 430.685 581.186 429.338 578.279 427.789C575.372 426.24 572.083 425.475 570.735 421.402C569.388 417.328 568.12 415.789 568.02 409.332C567.883 403.815 566.769 398.366 564.731 393.238C563.373 390.05 559.51 385.785 559.018 377.95C558.525 370.114 557.861 371.271 557.569 363.717C557.277 356.163 557.187 342.816 555.346 340.392C553.506 337.968 551.494 338.461 551.675 334.779C551.856 331.098 552.852 330.525 551.675 328.01C550.662 326.018 549.495 324.108 548.185 322.297L543.538 332.245Z" fill="#DBDBDB"/>
<path d="M-4.35938 275.747C-4.35938 275.747 73.8341 263.104 116.501 279.7C159.169 296.296 191.939 298.268 208.937 295.099C225.936 291.931 289.132 301.818 308.102 292.333C327.072 282.848 344.443 303.005 361.039 312.45C377.636 321.895 386.718 326.662 383.168 342.866C379.617 359.07 434.697 429.871 457.509 447.986C480.321 466.101 497.893 579.197 494.091 594.405C490.289 609.613 511.19 681.469 516.903 681.469" stroke="#4A3021" stroke-width="3.0175" stroke-miterlimit="10"/>
<path d="M574.464 405.658C567.564 406.543 551.108 411.14 547.92 416.451C544.731 421.762 518.197 434.495 513.651 435.723C509.105 436.95 500.324 437.734 481.575 437.151C462.826 436.567 457.495 448.024 457.495 448.024C452.396 473.17 442.488 470.303 435.226 474.286C427.964 478.269 413.842 477.575 383.044 476.298C352.245 475.02 337.288 484.002 335.579 491.697C333.869 499.392 300.083 495.549 295.345 496.827C263.269 508.374 165.341 502.862 129.383 491.697C93.4244 480.532 54.1165 496.404 40.4271 508.374C26.7377 520.343 -4.05078 491.697 -4.05078 491.697" stroke="#4A3021" stroke-width="3.0175" stroke-miterlimit="10"/>
<path d="M299.253 398.542H295.729V397.854H304.552V398.542H301.028V406.303H299.253V398.542ZM305.519 397.854H307.305V401.426H312.097V397.854H313.883V406.303H312.097V402.114H307.305V406.303H305.519V397.854ZM321.667 404.142H317.177L316.127 406.303H314.896L319.289 397.733H320.376L324.516 406.303H322.681L321.667 404.142ZM321.341 403.454L319.47 399.459L317.515 403.454H321.341ZM317.612 395.705C317.282 395.488 317.117 395.287 317.117 395.102C317.117 394.989 317.161 394.901 317.25 394.836C317.338 394.772 317.455 394.74 317.6 394.74C317.76 394.74 317.905 394.768 318.034 394.824C318.163 394.881 318.284 394.973 318.396 395.102L320.05 397.009H319.47L317.612 395.705ZM325.545 397.854H327.307L331.906 403.84V397.854H333.547V406.303H332.413L327.187 399.423V406.303H325.545V397.854ZM335.293 397.854H337.079V401.426H341.871V397.854H343.658V406.303H341.871V402.114H337.079V406.303H335.293V397.854ZM348.801 397.854H352.229C353.46 397.854 354.409 398.059 355.077 398.469C355.753 398.872 356.091 399.535 356.091 400.461C356.091 401.378 355.761 402.042 355.101 402.452C354.441 402.863 353.484 403.068 352.229 403.068H350.587V406.303H348.801V397.854ZM352.253 402.368C352.937 402.368 353.452 402.227 353.798 401.945C354.144 401.664 354.317 401.169 354.317 400.461C354.317 399.769 354.144 399.278 353.798 398.988C353.46 398.691 352.945 398.542 352.253 398.542H350.587V402.368H352.253ZM357.229 397.854H359.015V401.426H363.807V397.854H365.593V406.303H363.807V402.114H359.015V406.303H357.229V397.854ZM371.893 406.423C370.903 406.423 370.046 406.25 369.322 405.904C368.605 405.558 368.058 405.06 367.68 404.408C367.302 403.748 367.113 402.959 367.113 402.042C367.113 401.141 367.302 400.368 367.68 399.725C368.066 399.081 368.618 398.59 369.334 398.252C370.05 397.906 370.903 397.733 371.893 397.733C372.874 397.733 373.719 397.906 374.427 398.252C375.143 398.59 375.691 399.081 376.069 399.725C376.455 400.368 376.648 401.141 376.648 402.042C376.648 402.959 376.459 403.748 376.081 404.408C375.703 405.06 375.155 405.558 374.439 405.904C373.723 406.25 372.874 406.423 371.893 406.423ZM371.893 405.735C372.842 405.735 373.57 405.422 374.077 404.794C374.584 404.158 374.838 403.241 374.838 402.042C374.838 400.867 374.584 399.97 374.077 399.35C373.57 398.731 372.842 398.421 371.893 398.421C370.935 398.421 370.199 398.735 369.684 399.362C369.177 399.982 368.923 400.875 368.923 402.042C368.923 403.241 369.177 404.158 369.684 404.794C370.191 405.422 370.927 405.735 371.893 405.735ZM374.174 394.076C374.327 393.883 374.512 393.786 374.729 393.786C374.858 393.786 374.958 393.814 375.031 393.871C375.111 393.927 375.151 394.003 375.151 394.1C375.151 394.18 375.099 394.277 374.994 394.39C374.898 394.494 374.733 394.639 374.5 394.824L373.655 395.476H373.112L374.174 394.076ZM371.373 395.066H372.412L374.017 397.009H373.16L371.893 395.814L370.625 397.009H369.768L371.373 395.066ZM309.479 413.854C311.113 413.854 312.36 414.204 313.221 414.904C314.09 415.596 314.524 416.606 314.524 417.933C314.524 419.35 314.098 420.432 313.245 421.18C312.392 421.929 311.161 422.303 309.552 422.303H305.979V418.235H305.061V417.571H305.979V413.854H309.479ZM309.72 421.615C310.702 421.615 311.446 421.305 311.953 420.685C312.46 420.058 312.714 419.14 312.714 417.933C312.714 416.823 312.46 415.982 311.953 415.411C311.446 414.831 310.702 414.542 309.72 414.542H307.765V417.571H309.902V418.235H307.765V421.615H309.72ZM321.608 420.142H317.118L316.068 422.303H314.837L319.23 413.733H320.317L324.457 422.303H322.622L321.608 420.142ZM321.282 419.454L319.411 415.459L317.456 419.454H321.282ZM317.553 411.705C317.223 411.488 317.058 411.287 317.058 411.102C317.058 410.989 317.102 410.901 317.191 410.836C317.279 410.772 317.396 410.74 317.541 410.74C317.702 410.74 317.846 410.768 317.975 410.824C318.104 410.881 318.225 410.973 318.337 411.102L319.991 413.009H319.411L317.553 411.705ZM328.893 413.854H330.655L335.254 419.84V413.854H336.895V422.303H335.76L330.534 415.423V422.303H328.893V413.854ZM344.676 420.142H340.186L339.135 422.303H337.904L342.298 413.733H343.384L347.524 422.303H345.689L344.676 420.142ZM344.35 419.454L342.479 415.459L340.523 419.454H344.35ZM340.849 410.667C340.882 410.337 340.994 410.08 341.187 409.895C341.388 409.71 341.63 409.617 341.912 409.617C342.056 409.617 342.205 409.645 342.358 409.702C342.511 409.758 342.704 409.838 342.937 409.943C343.082 410.007 343.227 410.068 343.372 410.124C343.517 410.18 343.642 410.209 343.746 410.209C343.907 410.209 344.052 410.16 344.181 410.064C344.317 409.967 344.414 409.83 344.47 409.653L344.748 409.786C344.611 410.518 344.253 410.885 343.674 410.885C343.537 410.885 343.396 410.86 343.251 410.812C343.114 410.756 342.925 410.671 342.684 410.559C342.483 410.462 342.318 410.39 342.189 410.341C342.06 410.293 341.944 410.269 341.839 410.269C341.67 410.269 341.521 410.317 341.393 410.414C341.264 410.502 341.175 410.631 341.127 410.8L340.849 410.667ZM342.817 413.105C342.189 413.105 341.686 412.94 341.308 412.611C340.93 412.281 340.729 411.846 340.705 411.307H341.211C341.252 411.637 341.417 411.91 341.706 412.128C341.996 412.337 342.366 412.442 342.817 412.442C343.267 412.442 343.638 412.337 343.927 412.128C344.217 411.91 344.382 411.637 344.422 411.307H344.929C344.905 411.846 344.704 412.281 344.326 412.611C343.947 412.94 343.444 413.105 342.817 413.105ZM348.553 413.854H350.316L354.914 419.84V413.854H356.556V422.303H355.421L350.195 415.423V422.303H348.553V413.854ZM362.973 422.423C361.967 422.423 361.094 422.25 360.353 421.904C359.621 421.558 359.058 421.06 358.664 420.408C358.269 419.756 358.072 418.983 358.072 418.09C358.072 417.205 358.269 416.437 358.664 415.785C359.058 415.125 359.621 414.622 360.353 414.276C361.086 413.922 361.951 413.745 362.948 413.745C364.139 413.745 365.113 413.999 365.869 414.506C366.626 415.012 367.072 415.708 367.209 416.594H365.785C365.64 415.902 365.326 415.371 364.843 415C364.361 414.622 363.741 414.433 362.985 414.433C362.011 414.433 361.251 414.755 360.703 415.399C360.156 416.034 359.883 416.928 359.883 418.078C359.883 419.229 360.152 420.126 360.691 420.77C361.238 421.414 362.003 421.735 362.985 421.735C363.419 421.735 363.813 421.691 364.167 421.603C364.521 421.506 364.884 421.349 365.254 421.132V418.489H362.345V417.849H367.04V421.168C366.598 421.562 366.014 421.872 365.29 422.098C364.566 422.315 363.793 422.423 362.973 422.423Z" fill="#4A3021"/>
<path d="M478.169 429.225H474.927L474.194 430.689H473.631L476.56 424.976H476.995L479.755 430.689H478.853L478.169 429.225ZM477.984 428.839L476.6 425.878L475.12 428.839H477.984ZM480.425 425.057H481.262V427.479H484.875V425.057H485.711V430.689H484.875V427.857H481.262V430.689H480.425V425.057ZM489.016 426.296H487.552V425.982C487.949 425.971 488.289 425.888 488.574 425.733C488.858 425.572 489.064 425.346 489.193 425.057H489.837V430.689H489.016V426.296ZM493.428 430.689C493.428 430.266 493.487 429.861 493.605 429.474C493.728 429.083 493.924 428.672 494.192 428.243C494.466 427.814 494.833 427.326 495.295 426.779C495.601 426.419 495.812 426.14 495.93 425.942C496.054 425.743 496.118 425.569 496.124 425.419H492.301V425.057H497.057C497.057 425.271 496.985 425.499 496.84 425.741C496.7 425.982 496.429 426.339 496.027 426.811C495.389 427.567 494.935 428.235 494.667 428.815C494.404 429.394 494.273 430.019 494.273 430.689H493.428Z" fill="#4A3021"/>
<path d="M123.231 298.341C122.295 298.126 121.633 297.714 121.245 297.107C120.856 296.5 120.768 295.739 120.979 294.824C121.185 293.93 121.592 293.298 122.201 292.926C122.815 292.556 123.587 292.478 124.518 292.692C125.275 292.867 125.855 293.169 126.258 293.598C126.66 294.026 126.84 294.536 126.797 295.126L126.091 294.963C126.106 294.493 125.97 294.093 125.683 293.762C125.397 293.427 124.993 293.198 124.47 293.078C123.79 292.921 123.219 293.01 122.757 293.343C122.3 293.678 121.982 294.235 121.802 295.014C121.619 295.809 121.661 296.462 121.928 296.975C122.196 297.483 122.672 297.816 123.357 297.974C123.88 298.095 124.34 298.069 124.738 297.896C125.135 297.724 125.431 297.42 125.625 296.986L126.33 297.149C126.11 297.698 125.725 298.077 125.176 298.286C124.627 298.495 123.979 298.514 123.231 298.341ZM131.056 298.561L127.896 297.832L126.853 299.094L126.304 298.968L130.442 294.059L130.866 294.157L132.271 300.344L131.393 300.141L131.056 298.561ZM130.962 298.143L130.279 294.946L128.171 297.499L130.962 298.143ZM135.33 301.132C134.714 300.99 134.209 300.755 133.816 300.428C133.424 300.101 133.159 299.698 133.021 299.221C132.885 298.738 132.886 298.198 133.023 297.602C133.158 297.017 133.391 296.542 133.723 296.178C134.056 295.809 134.47 295.566 134.965 295.449C135.46 295.332 136.016 295.345 136.633 295.487C137.249 295.629 137.752 295.861 138.14 296.182C138.534 296.504 138.8 296.903 138.937 297.381C139.076 297.854 139.078 298.382 138.943 298.968C138.805 299.564 138.57 300.049 138.236 300.423C137.903 300.792 137.488 301.038 136.992 301.16C136.501 301.284 135.947 301.275 135.33 301.132ZM135.417 300.756C136.097 300.913 136.672 300.82 137.141 300.477C137.611 300.134 137.938 299.567 138.12 298.778C138.298 298.004 138.25 297.366 137.975 296.862C137.707 296.354 137.231 296.021 136.546 295.863C135.861 295.705 135.285 295.793 134.817 296.125C134.35 296.458 134.026 297.014 133.846 297.792C133.664 298.582 133.709 299.233 133.982 299.748C134.254 300.262 134.732 300.598 135.417 300.756ZM144.391 297.755L142.07 297.22L142.157 296.844L147.606 298.101L147.519 298.477L145.206 297.944L144.027 303.056L143.212 302.868L144.391 297.755ZM149.787 304.467C149.17 304.325 148.665 304.09 148.273 303.763C147.88 303.435 147.615 303.033 147.478 302.555C147.342 302.072 147.342 301.533 147.48 300.937C147.615 300.352 147.848 299.877 148.18 299.513C148.512 299.144 148.926 298.901 149.421 298.784C149.916 298.667 150.472 298.679 151.089 298.821C151.706 298.964 152.208 299.195 152.597 299.516C152.991 299.838 153.256 300.238 153.394 300.716C153.532 301.188 153.534 301.717 153.399 302.302C153.262 302.898 153.026 303.384 152.692 303.758C152.359 304.127 151.945 304.373 151.448 304.495C150.957 304.619 150.404 304.609 149.787 304.467ZM149.874 304.09C150.553 304.247 151.128 304.154 151.598 303.811C152.068 303.468 152.394 302.902 152.576 302.113C152.754 301.339 152.706 300.7 152.432 300.196C152.163 299.689 151.687 299.356 151.002 299.198C150.317 299.04 149.741 299.127 149.274 299.46C148.806 299.792 148.482 300.348 148.303 301.127C148.121 301.916 148.166 302.568 148.438 303.082C148.71 303.596 149.189 303.933 149.874 304.09ZM153.138 296.883C153.277 296.783 153.396 296.744 153.495 296.767C153.563 296.783 153.614 296.814 153.647 296.86C153.682 296.901 153.692 296.95 153.679 297.008C153.667 297.06 153.629 297.106 153.565 297.146C153.5 297.187 153.388 297.243 153.228 297.316L152.422 297.659L152.164 297.599L153.138 296.883ZM151.2 297.088L151.749 297.215L152.444 298.639L152.06 298.55L151.389 297.52L150.335 298.152L149.951 298.063L151.2 297.088ZM156.516 306.019C155.58 305.803 154.918 305.392 154.53 304.785C154.141 304.178 154.053 303.417 154.264 302.502C154.47 301.608 154.877 300.975 155.486 300.604C156.1 300.233 156.872 300.155 157.803 300.37C158.56 300.545 159.141 300.847 159.543 301.275C159.945 301.704 160.125 302.213 160.082 302.803L159.376 302.641C159.391 302.171 159.255 301.77 158.968 301.44C158.682 301.104 158.278 300.876 157.755 300.755C157.075 300.599 156.504 300.687 156.042 301.021C155.585 301.356 155.267 301.913 155.087 302.692C154.904 303.486 154.946 304.14 155.213 304.653C155.481 305.161 155.957 305.494 156.642 305.652C157.165 305.772 157.625 305.746 158.023 305.574C158.42 305.401 158.716 305.098 158.91 304.664L159.615 304.826C159.395 305.376 159.01 305.755 158.461 305.964C157.912 306.173 157.264 306.191 156.516 306.019ZM164.312 307.817C163.496 307.629 162.923 307.241 162.59 306.652C162.265 306.06 162.206 305.311 162.415 304.407C162.623 303.502 163.003 302.858 163.554 302.473C164.112 302.084 164.799 301.984 165.614 302.172C166.424 302.359 166.992 302.749 167.318 303.341C167.65 303.93 167.712 304.676 167.503 305.581C167.295 306.485 166.914 307.132 166.362 307.522C165.811 307.907 165.127 308.005 164.312 307.817ZM164.388 307.488C164.931 307.613 165.402 307.493 165.8 307.128C166.204 306.764 166.497 306.185 166.68 305.391C166.863 304.596 166.853 303.947 166.65 303.443C166.452 302.941 166.082 302.627 165.538 302.501C164.994 302.376 164.521 302.495 164.118 302.859C163.72 303.224 163.429 303.804 163.246 304.598C163.063 305.393 163.07 306.042 163.268 306.544C163.471 307.048 163.844 307.363 164.388 307.488ZM170.683 304.695L169.256 304.366L169.326 304.06C169.716 304.139 170.066 304.135 170.378 304.047C170.692 303.954 170.943 303.781 171.134 303.528L171.761 303.672L170.495 309.161L169.695 308.976L170.683 304.695Z" fill="#4A3021"/>
<path d="M502.801 620.265C502.525 619.345 502.555 618.566 502.889 617.928C503.224 617.29 503.841 616.836 504.74 616.566C505.619 616.302 506.37 616.342 506.995 616.687C507.621 617.037 508.071 617.669 508.346 618.584C508.569 619.328 508.595 619.982 508.422 620.543C508.249 621.105 507.895 621.514 507.361 621.769L507.153 621.076C507.569 620.856 507.849 620.539 507.994 620.126C508.144 619.711 508.141 619.247 507.987 618.733C507.787 618.065 507.427 617.613 506.908 617.377C506.39 617.146 505.749 617.145 504.983 617.375C504.202 617.61 503.655 617.97 503.342 618.456C503.034 618.941 502.981 619.519 503.183 620.192C503.337 620.706 503.588 621.093 503.935 621.353C504.281 621.613 504.691 621.719 505.165 621.673L505.373 622.366C504.787 622.447 504.267 622.301 503.813 621.927C503.359 621.554 503.022 621 502.801 620.265ZM506.488 627.17L505.555 624.064L503.942 623.784L503.78 623.245L510.094 624.407L510.219 624.823L505.541 629.11L505.282 628.246L506.488 627.17ZM506.804 626.882L509.243 624.705L505.981 624.138L506.804 626.882ZM506.372 632.158C506.19 631.551 506.144 630.997 506.234 630.494C506.324 629.991 506.542 629.561 506.889 629.205C507.24 628.847 507.709 628.58 508.295 628.404C508.87 628.232 509.398 628.199 509.879 628.307C510.364 628.413 510.781 628.652 511.128 629.024C511.474 629.396 511.739 629.885 511.921 630.491C512.103 631.098 512.151 631.649 512.065 632.145C511.98 632.647 511.764 633.076 511.418 633.432C511.076 633.787 510.617 634.05 510.042 634.223C509.456 634.399 508.918 634.434 508.427 634.33C507.942 634.224 507.523 633.985 507.171 633.615C506.82 633.25 506.554 632.764 506.372 632.158ZM506.742 632.046C506.943 632.714 507.308 633.168 507.839 633.406C508.37 633.644 509.023 633.647 509.799 633.414C510.559 633.185 511.09 632.827 511.392 632.339C511.7 631.854 511.753 631.276 511.551 630.603C511.349 629.929 510.988 629.472 510.467 629.231C509.947 628.99 509.303 628.984 508.538 629.214C507.762 629.447 507.218 629.809 506.907 630.3C506.595 630.791 506.54 631.373 506.742 632.046ZM513.795 638.354L513.11 636.073L513.48 635.962L515.088 641.318L514.718 641.429L514.035 639.156L509.01 640.665L508.77 639.863L513.795 638.354ZM510.639 646.367C510.457 645.761 510.41 645.206 510.5 644.703C510.59 644.2 510.808 643.77 511.155 643.414C511.507 643.056 511.976 642.79 512.561 642.614C513.137 642.441 513.665 642.408 514.145 642.516C514.631 642.623 515.047 642.862 515.394 643.234C515.741 643.605 516.005 644.095 516.187 644.701C516.369 645.307 516.417 645.858 516.331 646.355C516.246 646.856 516.031 647.285 515.684 647.641C515.342 647.996 514.884 648.26 514.308 648.432C513.723 648.608 513.185 648.644 512.694 648.539C512.208 648.433 511.789 648.195 511.437 647.824C511.087 647.459 510.821 646.973 510.639 646.367ZM511.008 646.256C511.209 646.924 511.575 647.377 512.106 647.615C512.636 647.853 513.29 647.856 514.066 647.623C514.826 647.395 515.357 647.037 515.658 646.548C515.967 646.064 516.02 645.485 515.817 644.812C515.615 644.139 515.254 643.682 514.734 643.44C514.213 643.199 513.57 643.193 512.804 643.423C512.029 643.656 511.485 644.018 511.173 644.509C510.861 645.001 510.806 645.583 511.008 646.256ZM518.887 645.52C519.042 645.591 519.135 645.675 519.164 645.773C519.184 645.84 519.182 645.899 519.159 645.951C519.14 646.001 519.103 646.035 519.046 646.052C518.995 646.067 518.936 646.057 518.869 646.021C518.802 645.985 518.697 645.916 518.555 645.813L517.858 645.283L517.781 645.029L518.887 645.52ZM517.748 643.938L517.91 644.478L517.018 645.787L516.904 645.41L517.467 644.317L516.395 643.714L516.282 643.337L517.748 643.938ZM512.624 652.981C512.348 652.061 512.378 651.282 512.713 650.644C513.047 650.006 513.664 649.552 514.564 649.282C515.442 649.018 516.194 649.059 516.818 649.403C517.444 649.753 517.894 650.385 518.169 651.3C518.392 652.045 518.418 652.698 518.245 653.26C518.072 653.821 517.718 654.23 517.184 654.485L516.976 653.792C517.392 653.572 517.672 653.255 517.817 652.842C517.967 652.427 517.965 651.963 517.81 651.449C517.61 650.781 517.25 650.329 516.731 650.093C516.214 649.862 515.572 649.861 514.807 650.091C514.026 650.326 513.478 650.686 513.165 651.172C512.857 651.657 512.804 652.235 513.006 652.909C513.16 653.422 513.411 653.809 513.758 654.069C514.105 654.329 514.515 654.436 514.988 654.389L515.196 655.082C514.61 655.163 514.09 655.017 513.636 654.643C513.182 654.27 512.845 653.716 512.624 652.981ZM514.925 660.644C514.685 659.842 514.738 659.151 515.084 658.571C515.438 657.995 516.059 657.573 516.948 657.306C517.836 657.039 518.585 657.05 519.192 657.338C519.806 657.629 520.233 658.176 520.474 658.978C520.713 659.774 520.656 660.46 520.303 661.037C519.956 661.617 519.338 662.041 518.449 662.308C517.561 662.574 516.81 662.565 516.197 662.278C515.59 661.99 515.166 661.445 514.925 660.644ZM515.249 660.546C515.409 661.081 515.747 661.43 516.261 661.595C516.777 661.765 517.425 661.733 518.206 661.498C518.987 661.264 519.546 660.934 519.883 660.508C520.222 660.087 520.311 659.609 520.15 659.075C519.99 658.54 519.652 658.188 519.136 658.018C518.622 657.854 517.974 657.888 517.193 658.123C516.412 658.357 515.852 658.685 515.514 659.106C515.177 659.532 515.088 660.012 515.249 660.546ZM520.794 664.631L520.373 663.228L520.673 663.138C520.798 663.515 520.975 663.817 521.206 664.045C521.442 664.271 521.717 664.404 522.031 664.444L522.217 665.061L516.822 666.68L516.586 665.894L520.794 664.631Z" fill="#4A3021"/>
<path d="M172.565 512.233C172.629 512.575 172.818 512.853 173.132 513.067C173.446 513.286 173.836 513.411 174.302 513.44C174.398 513.447 174.495 513.445 174.592 513.435L174.504 513.671C174.31 513.691 174.124 513.695 173.947 513.684C173.599 513.661 173.271 513.581 172.963 513.443C172.66 513.311 172.405 513.131 172.199 512.903C171.993 512.68 171.856 512.432 171.787 512.159C171.007 512.012 170.415 511.676 170.014 511.15C169.612 510.619 169.438 509.941 169.491 509.117C169.529 508.517 169.682 508.011 169.951 507.598C170.22 507.18 170.589 506.873 171.058 506.677C171.527 506.482 172.078 506.404 172.71 506.444C173.341 506.485 173.875 506.632 174.31 506.886C174.751 507.14 175.078 507.491 175.291 507.94C175.504 508.384 175.592 508.906 175.553 509.505C175.497 510.388 175.206 511.069 174.681 511.546C174.156 512.017 173.451 512.246 172.565 512.233ZM170.334 509.171C170.282 509.979 170.432 510.615 170.784 511.078C171.136 511.542 171.663 511.796 172.364 511.841C173.06 511.885 173.612 511.7 174.02 511.286C174.429 510.871 174.659 510.259 174.71 509.451C174.761 508.659 174.61 508.036 174.257 507.584C173.911 507.126 173.386 506.875 172.685 506.83C171.984 506.785 171.429 506.964 171.022 507.368C170.614 507.772 170.385 508.373 170.334 509.171ZM179.046 512.656C178.115 512.596 177.454 512.347 177.062 511.908C176.677 511.464 176.509 510.851 176.559 510.069L176.77 506.785L177.605 506.839L177.383 510.308C177.344 510.907 177.457 511.374 177.72 511.708C177.984 512.042 178.434 512.23 179.071 512.27C179.698 512.311 180.162 512.184 180.466 511.892C180.775 511.6 180.949 511.149 180.988 510.539L181.21 507.07L182.046 507.123L181.835 510.407C181.785 511.189 181.541 511.775 181.102 512.167C180.663 512.552 179.978 512.716 179.046 512.656ZM185.749 513.085C185.117 513.045 184.581 512.895 184.141 512.636C183.701 512.376 183.374 512.022 183.161 511.573C182.948 511.118 182.861 510.586 182.9 509.976C182.939 509.376 183.092 508.87 183.361 508.457C183.629 508.039 183.998 507.732 184.468 507.536C184.937 507.341 185.488 507.263 186.12 507.304C186.751 507.344 187.285 507.491 187.72 507.745C188.161 507.999 188.488 508.35 188.701 508.799C188.914 509.243 189.002 509.765 188.963 510.364C188.924 510.975 188.77 511.491 188.501 511.915C188.232 512.333 187.863 512.643 187.393 512.844C186.929 513.045 186.381 513.126 185.749 513.085ZM185.774 512.7C186.47 512.744 187.022 512.559 187.43 512.145C187.838 511.73 188.068 511.119 188.12 510.31C188.171 509.518 188.02 508.895 187.667 508.443C187.32 507.985 186.796 507.734 186.095 507.689C185.394 507.644 184.839 507.824 184.432 508.227C184.024 508.631 183.795 509.232 183.744 510.03C183.692 510.838 183.842 511.474 184.194 511.937C184.546 512.401 185.073 512.655 185.774 512.7ZM187.828 505.058C187.948 504.937 188.059 504.88 188.161 504.886C188.231 504.891 188.286 504.913 188.326 504.953C188.367 504.988 188.386 505.035 188.382 505.094C188.378 505.148 188.348 505.199 188.291 505.249C188.234 505.3 188.133 505.374 187.987 505.472L187.247 505.941L186.982 505.924L187.828 505.058ZM185.948 505.575L186.51 505.611L187.427 506.903L187.034 506.878L186.205 505.97L185.267 506.765L184.874 506.74L185.948 505.575ZM192.641 513.527C191.683 513.465 190.963 513.167 190.481 512.63C189.999 512.094 189.788 511.358 189.848 510.421C189.907 509.506 190.207 508.815 190.747 508.35C191.293 507.885 192.042 507.683 192.995 507.744C193.772 507.794 194.393 507.997 194.859 508.355C195.325 508.713 195.585 509.187 195.639 509.776L194.916 509.73C194.855 509.263 194.655 508.891 194.319 508.611C193.982 508.326 193.546 508.166 193.011 508.132C192.315 508.087 191.766 508.267 191.364 508.672C190.967 509.076 190.743 509.677 190.692 510.475C190.64 511.289 190.787 511.927 191.133 512.39C191.48 512.848 192.004 513.099 192.706 513.144C193.241 513.178 193.691 513.078 194.055 512.843C194.42 512.609 194.663 512.261 194.783 511.801L195.506 511.848C195.378 512.425 195.059 512.862 194.551 513.157C194.043 513.453 193.406 513.576 192.641 513.527ZM198.79 508.196L199.625 508.249L199.29 513.485L202.823 513.711L202.798 514.097L198.43 513.817L198.79 508.196ZM206.17 514.394C205.538 514.353 205.002 514.203 204.562 513.944C204.121 513.684 203.795 513.33 203.582 512.881C203.369 512.427 203.282 511.894 203.321 511.284C203.359 510.684 203.513 510.178 203.781 509.765C204.05 509.347 204.419 509.04 204.888 508.845C205.358 508.649 205.908 508.571 206.54 508.612C207.172 508.652 207.705 508.799 208.141 509.053C208.581 509.307 208.908 509.658 209.121 510.108C209.335 510.551 209.422 511.073 209.384 511.672C209.345 512.283 209.191 512.8 208.922 513.223C208.653 513.641 208.284 513.951 207.814 514.152C207.349 514.354 206.801 514.434 206.17 514.394ZM206.194 514.008C206.89 514.053 207.442 513.868 207.851 513.453C208.259 513.038 208.489 512.427 208.541 511.618C208.591 510.826 208.44 510.204 208.088 509.751C207.741 509.293 207.217 509.042 206.515 508.997C205.814 508.952 205.26 509.132 204.852 509.536C204.445 509.94 204.215 510.54 204.164 511.338C204.112 512.146 204.263 512.782 204.614 513.246C204.966 513.709 205.493 513.963 206.194 514.008ZM206.099 515.494C205.976 515.486 205.877 515.439 205.802 515.354C205.732 515.274 205.7 515.175 205.708 515.057C205.715 514.94 205.759 514.846 205.839 514.775C205.924 514.706 206.028 514.675 206.151 514.683C206.274 514.69 206.371 514.734 206.441 514.814C206.517 514.894 206.551 514.993 206.543 515.111C206.535 515.229 206.489 515.322 206.404 515.392C206.324 515.468 206.222 515.502 206.099 515.494ZM206.369 506.883L206.931 506.919L207.848 508.212L207.454 508.187L206.626 507.279L205.688 508.073L205.294 508.048L206.369 506.883ZM212.633 510.324L211.171 510.231L211.191 509.918C211.588 509.932 211.934 509.871 212.227 509.734C212.521 509.592 212.742 509.38 212.889 509.099L213.531 509.14L213.171 514.761L212.352 514.709L212.633 510.324ZM218.904 514.169L215.603 513.958L215.621 513.677L219.666 509.453L220.043 509.477L219.762 513.861L220.645 513.918L220.622 514.279L219.739 514.223L219.678 515.178L218.843 515.125L218.904 514.169ZM218.927 513.808L219.128 510.676L216.317 513.641L218.927 513.808ZM224.373 515.56C223.72 515.518 223.167 515.37 222.716 515.115C222.265 514.855 221.93 514.5 221.712 514.051C221.493 513.601 221.403 513.077 221.442 512.477C221.48 511.878 221.634 511.369 221.902 510.951C222.171 510.532 222.54 510.223 223.01 510.022C223.48 509.815 224.029 509.732 224.655 509.772C225.415 509.821 226.028 510.027 226.494 510.39C226.966 510.748 227.234 511.22 227.298 511.804L226.576 511.758C226.51 511.281 226.311 510.905 225.979 510.631C225.647 510.352 225.206 510.195 224.654 510.159C223.964 510.115 223.409 510.303 222.99 510.722C222.571 511.136 222.336 511.736 222.285 512.523C222.234 513.321 222.393 513.952 222.761 514.416C223.135 514.876 223.683 515.128 224.406 515.175C224.743 515.196 225.053 515.181 225.336 515.13C225.619 515.072 225.891 514.974 226.153 514.835L226.27 513.012L224.302 512.886L224.325 512.525L227.128 512.704L226.984 514.945C226.652 515.176 226.263 515.345 225.815 515.451C225.373 515.557 224.892 515.593 224.373 515.56Z" fill="#4A3021"/>
<path d="M455.274 491.596C455.463 490.654 455.855 489.981 456.451 489.575C457.047 489.169 457.805 489.059 458.725 489.243C459.625 489.424 460.269 489.813 460.658 490.411C461.046 491.014 461.146 491.783 460.958 492.72C460.805 493.482 460.52 494.071 460.103 494.485C459.686 494.899 459.182 495.094 458.591 495.068L458.733 494.358C459.204 494.359 459.6 494.212 459.922 493.915C460.249 493.62 460.466 493.209 460.571 492.683C460.708 491.999 460.604 491.431 460.257 490.979C459.909 490.531 459.343 490.229 458.559 490.072C457.76 489.911 457.107 489.972 456.602 490.254C456.102 490.536 455.783 491.022 455.645 491.711C455.54 492.237 455.579 492.696 455.763 493.089C455.946 493.482 456.258 493.768 456.698 493.95L456.555 494.66C456 494.455 455.61 494.082 455.385 493.539C455.16 492.996 455.123 492.348 455.274 491.596ZM455.28 499.423L455.918 496.244L454.626 495.238L454.737 494.686L459.762 498.681L459.676 499.107L453.532 500.69L453.709 499.806L455.28 499.423ZM455.695 499.318L458.87 498.543L456.258 496.509L455.695 499.318ZM452.832 503.77C452.957 503.15 453.177 502.639 453.493 502.237C453.808 501.835 454.203 501.559 454.677 501.407C455.155 501.257 455.695 501.242 456.294 501.363C456.883 501.481 457.364 501.7 457.738 502.022C458.116 502.344 458.371 502.75 458.502 503.242C458.634 503.733 458.637 504.289 458.512 504.91C458.388 505.531 458.171 506.04 457.861 506.437C457.551 506.84 457.159 507.117 456.685 507.268C456.217 507.42 455.688 507.437 455.099 507.319C454.5 507.199 454.008 506.977 453.624 506.654C453.246 506.332 452.988 505.925 452.852 505.432C452.714 504.945 452.708 504.391 452.832 503.77ZM453.211 503.846C453.074 504.53 453.183 505.102 453.54 505.562C453.896 506.022 454.471 506.332 455.265 506.491C456.044 506.647 456.681 506.581 457.177 506.292C457.677 506.009 457.996 505.523 458.134 504.834C458.272 504.145 458.168 503.571 457.822 503.114C457.476 502.656 456.912 502.348 456.128 502.191C455.334 502.032 454.684 502.096 454.177 502.382C453.671 502.669 453.349 503.157 453.211 503.846ZM456.468 512.73L456.936 510.395L457.315 510.471L456.215 515.954L455.836 515.878L456.303 513.551L451.159 512.519L451.324 511.698L456.468 512.73ZM449.914 518.317C450.039 517.696 450.259 517.185 450.575 516.783C450.89 516.381 451.285 516.105 451.759 515.954C452.237 515.804 452.777 515.789 453.376 515.909C453.965 516.027 454.446 516.247 454.82 516.568C455.198 516.89 455.453 517.297 455.584 517.788C455.716 518.279 455.719 518.835 455.595 519.456C455.47 520.077 455.253 520.586 454.943 520.983C454.633 521.386 454.241 521.663 453.767 521.814C453.299 521.967 452.77 521.984 452.181 521.865C451.582 521.745 451.09 521.523 450.706 521.2C450.328 520.878 450.07 520.471 449.934 519.978C449.796 519.491 449.79 518.937 449.914 518.317ZM450.293 518.393C450.156 519.076 450.265 519.648 450.622 520.108C450.978 520.568 451.553 520.878 452.348 521.037C453.126 521.193 453.763 521.127 454.259 520.838C454.759 520.555 455.078 520.069 455.216 519.38C455.354 518.691 455.25 518.118 454.904 517.66C454.559 517.202 453.994 516.894 453.21 516.737C452.416 516.578 451.766 516.642 451.259 516.929C450.753 517.216 450.431 517.704 450.293 518.393ZM457.591 521.449C457.695 521.585 457.737 521.702 457.717 521.802C457.704 521.871 457.674 521.922 457.629 521.957C457.589 521.993 457.54 522.005 457.482 521.993C457.429 521.983 457.382 521.946 457.34 521.883C457.298 521.819 457.238 521.709 457.16 521.551L456.795 520.756L456.847 520.495L457.591 521.449ZM457.33 519.517L457.22 520.069L455.816 520.806L455.894 520.419L456.904 519.719L456.242 518.683L456.32 518.297L457.33 519.517ZM448.556 525.088C448.745 524.146 449.137 523.473 449.733 523.067C450.328 522.661 451.086 522.551 452.007 522.735C452.906 522.916 453.55 523.305 453.939 523.902C454.327 524.506 454.427 525.275 454.239 526.211C454.086 526.974 453.802 527.562 453.385 527.977C452.968 528.391 452.464 528.585 451.873 528.56L452.015 527.85C452.485 527.851 452.881 527.703 453.204 527.407C453.531 527.112 453.747 526.701 453.853 526.175C453.99 525.491 453.885 524.923 453.538 524.47C453.19 524.023 452.624 523.721 451.841 523.564C451.041 523.403 450.389 523.464 449.884 523.745C449.384 524.028 449.065 524.514 448.927 525.203C448.821 525.729 448.86 526.188 449.044 526.581C449.228 526.973 449.54 527.26 449.979 527.441L449.837 528.151C449.282 527.947 448.892 527.573 448.667 527.03C448.442 526.487 448.405 525.84 448.556 525.088ZM446.982 532.932C447.147 532.111 447.519 531.527 448.097 531.178C448.68 530.835 449.427 530.755 450.337 530.938C451.247 531.12 451.902 531.481 452.303 532.021C452.707 532.568 452.827 533.251 452.663 534.071C452.499 534.887 452.126 535.466 451.543 535.808C450.964 536.157 450.22 536.24 449.31 536.058C448.4 535.875 447.742 535.514 447.336 534.973C446.936 534.433 446.818 533.752 446.982 532.932ZM447.314 532.998C447.204 533.545 447.337 534.013 447.714 534.4C448.089 534.793 448.676 535.069 449.476 535.229C450.275 535.39 450.924 535.361 451.422 535.144C451.918 534.932 452.222 534.552 452.331 534.005C452.441 533.458 452.308 532.988 451.933 532.595C451.557 532.208 450.969 531.934 450.169 531.774C449.37 531.613 448.722 531.639 448.225 531.852C447.727 532.069 447.423 532.451 447.314 532.998ZM446.431 536.09C446.812 536.21 447.135 536.467 447.401 536.859C447.667 537.252 447.91 537.829 448.129 538.589C448.267 539.049 448.404 539.416 448.54 539.689C448.677 539.963 448.829 540.171 448.997 540.315C449.171 540.459 449.379 540.555 449.621 540.604C450.041 540.688 450.388 540.626 450.659 540.418C450.936 540.211 451.122 539.871 451.217 539.397C451.315 538.908 451.269 538.497 451.079 538.163C450.893 537.836 450.588 537.624 450.164 537.528L450.306 536.818C450.83 536.989 451.205 537.316 451.431 537.799C451.657 538.282 451.704 538.852 451.572 539.51C451.482 539.957 451.335 540.335 451.131 540.644C450.926 540.959 450.678 541.185 450.387 541.324C450.097 541.463 449.788 541.499 449.462 541.434C449.194 541.38 448.96 541.265 448.76 541.088C448.566 540.912 448.386 540.649 448.221 540.298C448.055 539.953 447.884 539.484 447.707 538.89C447.586 538.489 447.474 538.171 447.373 537.937C447.272 537.709 447.16 537.53 447.038 537.402C446.92 537.28 446.775 537.185 446.602 537.118L445.858 540.826L445.495 540.753L446.431 536.09Z" fill="#4A3021"/>
<path d="M532.306 595.678C533.277 595.276 534.104 595.183 534.786 595.4C535.468 595.617 535.979 596.137 536.32 596.96C536.675 597.817 536.695 598.587 536.379 599.269C536.066 599.944 535.442 600.476 534.505 600.864L532.438 601.719L531.367 599.132L530.794 599.369L530.659 599.042L531.232 598.805L530.283 596.515L532.306 595.678ZM534.461 600.464C535.12 600.191 535.543 599.781 535.729 599.234C535.919 598.684 535.859 598.033 535.547 597.28C535.253 596.571 534.858 596.107 534.361 595.889C533.863 595.666 533.276 595.694 532.602 595.973L531.204 596.552L532.005 598.485L533.581 597.832L533.716 598.159L532.14 598.812L533.064 601.042L534.461 600.464ZM538.109 593.693L535.909 594.604L535.761 594.247L540.928 592.108L541.076 592.465L538.882 593.373L540.889 598.22L540.116 598.541L538.109 593.693ZM544.489 592.593C544.916 592.417 545.317 592.335 545.694 592.347C546.076 592.357 546.409 592.46 546.693 592.656C546.98 592.845 547.197 593.116 547.342 593.467C547.492 593.829 547.531 594.19 547.46 594.551C547.386 594.906 547.212 595.234 546.935 595.534C546.657 595.83 546.295 596.07 545.849 596.254C545.08 596.572 544.391 596.597 543.78 596.327C543.167 596.052 542.691 595.506 542.352 594.688C542.116 594.118 542.014 593.583 542.045 593.083C542.073 592.577 542.23 592.135 542.514 591.756C542.799 591.377 543.199 591.081 543.714 590.868C544.061 590.724 544.401 590.647 544.733 590.637C545.066 590.627 545.368 590.682 545.638 590.803C545.911 590.916 546.131 591.089 546.297 591.322L545.636 591.596C545.393 591.319 545.117 591.149 544.806 591.086C544.498 591.016 544.174 591.052 543.832 591.193C543.485 591.337 543.218 591.555 543.031 591.847C542.849 592.137 542.755 592.478 542.749 592.87C542.743 593.261 542.831 593.678 543.013 594.119L543.066 594.245C543.105 593.892 543.251 593.57 543.503 593.28C543.754 592.991 544.083 592.761 544.489 592.593ZM545.716 595.935C546.167 595.748 546.472 595.468 546.631 595.094C546.788 594.716 546.773 594.301 546.586 593.85C546.399 593.399 546.117 593.095 545.738 592.938C545.358 592.776 544.942 592.789 544.491 592.976C544.045 593.16 543.744 593.442 543.587 593.82C543.435 594.197 543.453 594.613 543.642 595.069C543.831 595.525 544.111 595.83 544.482 595.984C544.854 596.138 545.265 596.121 545.716 595.935ZM550.943 594.145C550.17 594.465 549.478 594.482 548.865 594.195C548.256 593.902 547.774 593.326 547.419 592.469C547.064 591.611 546.999 590.866 547.225 590.233C547.453 589.592 547.954 589.112 548.727 588.792C549.495 588.474 550.184 588.462 550.793 588.755C551.406 589.042 551.889 589.614 552.244 590.471C552.599 591.329 552.665 592.077 552.441 592.715C552.216 593.348 551.717 593.825 550.943 594.145ZM550.814 593.833C551.33 593.619 551.643 593.248 551.756 592.72C551.873 592.19 551.775 591.548 551.464 590.794C551.152 590.041 550.767 589.518 550.309 589.226C549.856 588.931 549.372 588.891 548.857 589.104C548.341 589.318 548.025 589.69 547.908 590.22C547.795 590.748 547.895 591.389 548.207 592.143C548.519 592.896 548.901 593.42 549.354 593.714C549.812 594.007 550.299 594.046 550.814 593.833ZM553.807 586.689C554.576 586.371 555.266 586.349 555.879 586.624C556.49 586.893 556.965 587.437 557.304 588.255C557.54 588.825 557.643 589.362 557.614 589.868C557.584 590.368 557.426 590.808 557.142 591.187C556.857 591.566 556.457 591.862 555.942 592.076C555.6 592.217 555.26 592.294 554.922 592.306C554.59 592.316 554.287 592.264 554.014 592.151C553.743 592.031 553.525 591.854 553.359 591.621L554.02 591.347C554.261 591.619 554.535 591.79 554.842 591.86C555.155 591.928 555.482 591.891 555.824 591.75C556.171 591.606 556.438 591.388 556.625 591.096C556.812 590.804 556.906 590.463 556.907 590.074C556.913 589.682 556.825 589.266 556.642 588.825L556.615 588.758C556.565 589.086 556.411 589.394 556.152 589.681C555.892 589.963 555.563 590.186 555.166 590.35C554.74 590.527 554.336 590.61 553.955 590.599C553.578 590.587 553.246 590.486 552.959 590.297C552.674 590.102 552.459 589.828 552.314 589.476C552.164 589.114 552.126 588.755 552.199 588.4C552.271 588.039 552.445 587.711 552.724 587.416C553 587.116 553.361 586.873 553.807 586.689ZM555.165 589.968C555.616 589.781 555.917 589.499 556.069 589.123C556.221 588.746 556.203 588.33 556.014 587.874C555.825 587.418 555.545 587.113 555.174 586.959C554.802 586.805 554.391 586.822 553.94 587.009C553.489 587.195 553.185 587.478 553.028 587.856C552.869 588.23 552.883 588.642 553.07 589.093C553.256 589.544 553.54 589.851 553.921 590.012C554.304 590.167 554.719 590.152 555.165 589.968Z" fill="#4A3021"/>
<path d="M599.349 521.365C599.643 522.374 599.645 523.206 599.355 523.86C599.065 524.515 598.493 524.967 597.638 525.216C596.747 525.476 595.98 525.411 595.336 525.024C594.699 524.639 594.238 523.961 593.954 522.987L593.328 520.84L596.017 520.056L595.843 519.461L596.183 519.362L596.357 519.957L598.736 519.263L599.349 521.365ZM594.357 522.987C594.556 523.672 594.918 524.137 595.442 524.381C595.967 524.63 596.621 524.641 597.404 524.412C598.14 524.198 598.644 523.855 598.915 523.385C599.191 522.914 599.227 522.328 599.023 521.627L598.599 520.175L596.591 520.76L597.068 522.398L596.728 522.497L596.251 520.859L593.933 521.535L594.357 522.987ZM600.691 527.349L600.024 525.063L600.395 524.955L601.96 530.324L601.589 530.432L600.925 528.153L595.888 529.621L595.654 528.818L600.691 527.349ZM601.091 533.811C601.22 534.254 601.258 534.662 601.205 535.036C601.153 535.414 601.014 535.734 600.789 535.995C600.57 536.26 600.278 536.446 599.912 536.552C599.536 536.662 599.173 536.662 598.822 536.551C598.477 536.44 598.17 536.23 597.901 535.923C597.638 535.614 597.439 535.228 597.304 534.765C597.071 533.966 597.122 533.278 597.456 532.7C597.796 532.121 598.39 531.707 599.24 531.459C599.833 531.287 600.376 531.243 600.87 531.328C601.369 531.411 601.792 531.615 602.138 531.939C602.483 532.263 602.734 532.693 602.891 533.228C602.996 533.589 603.035 533.935 603.009 534.267C602.983 534.598 602.895 534.892 602.746 535.148C602.604 535.407 602.408 535.607 602.158 535.747L601.958 535.059C602.259 534.848 602.458 534.592 602.555 534.29C602.658 533.992 602.658 533.665 602.554 533.31C602.449 532.949 602.261 532.66 601.991 532.443C601.722 532.23 601.394 532.1 601.005 532.051C600.617 532.002 600.193 532.045 599.735 532.178L599.604 532.217C599.95 532.294 600.254 532.474 600.515 532.756C600.776 533.037 600.968 533.389 601.091 533.811ZM597.636 534.668C597.773 535.136 598.018 535.47 598.372 535.669C598.731 535.866 599.145 535.896 599.614 535.759C600.082 535.623 600.415 535.375 600.612 535.015C600.814 534.655 600.847 534.24 600.711 533.771C600.575 533.308 600.328 532.978 599.969 532.781C599.611 532.589 599.196 532.562 598.722 532.7C598.248 532.838 597.914 533.083 597.721 533.436C597.528 533.788 597.499 534.199 597.636 534.668ZM598.847 540.059C598.613 539.255 598.671 538.565 599.023 537.987C599.381 537.414 600.005 536.997 600.896 536.737C601.787 536.477 602.535 536.494 603.14 536.787C603.752 537.084 604.175 537.634 604.409 538.437C604.642 539.235 604.579 539.921 604.221 540.495C603.87 541.073 603.249 541.491 602.358 541.751C601.467 542.01 600.716 541.995 600.106 541.703C599.501 541.41 599.081 540.862 598.847 540.059ZM599.171 539.964C599.328 540.5 599.662 540.852 600.175 541.021C600.69 541.195 601.338 541.168 602.121 540.94C602.904 540.711 603.466 540.386 603.806 539.962C604.148 539.544 604.241 539.067 604.085 538.532C603.928 537.996 603.593 537.641 603.079 537.467C602.566 537.298 601.918 537.328 601.135 537.556C600.352 537.784 599.79 538.107 599.448 538.526C599.107 538.949 599.015 539.428 599.171 539.964ZM600.132 544.179C600.539 544.06 600.944 544.004 601.348 544.009C601.758 544.018 602.207 544.091 602.694 544.228C603.183 544.371 603.754 544.587 604.409 544.877C604.839 545.07 605.167 545.195 605.39 545.253C605.615 545.316 605.801 545.329 605.946 545.292L604.877 541.623L605.224 541.521L606.555 546.087C606.349 546.147 606.11 546.141 605.838 546.07C605.567 546.003 605.149 545.843 604.583 545.589C603.678 545.188 602.91 544.939 602.279 544.844C601.649 544.754 601.012 544.803 600.368 544.99L600.132 544.179Z" fill="#4A3021"/>
<path d="M468.691 299.11L469.617 299.111L471.859 303.868L474.276 299.113L474.823 299.114L471.915 304.825L471.48 304.825L468.691 299.11ZM475.777 299.114L476.613 299.115L476.61 304.747L475.774 304.747L475.777 299.114ZM476.191 305.93C476.068 305.93 475.966 305.89 475.886 305.809C475.811 305.734 475.773 305.637 475.773 305.519C475.773 305.401 475.811 305.305 475.886 305.23C475.966 305.155 476.068 305.117 476.192 305.117C476.315 305.117 476.414 305.155 476.489 305.23C476.57 305.305 476.61 305.402 476.61 305.52C476.61 305.638 476.57 305.734 476.489 305.809C476.414 305.89 476.315 305.93 476.191 305.93ZM478.134 299.115L478.979 299.116L482.405 303.487L482.407 299.118L483.115 299.118L483.112 304.751L482.694 304.75L478.842 299.848L478.839 304.748L478.131 304.748L478.134 299.115ZM484.303 299.119L485.14 299.119L485.138 301.541L488.751 301.543L488.752 299.121L489.589 299.121L489.586 304.754L488.75 304.754L488.751 301.921L485.138 301.919L485.137 304.752L484.3 304.751L484.303 299.119ZM462.287 309.107C463.339 309.108 464.138 309.339 464.685 309.8C465.232 310.262 465.505 310.938 465.505 311.829C465.504 312.757 465.228 313.475 464.675 313.985C464.127 314.489 463.347 314.74 462.333 314.74L460.096 314.739L460.097 311.938L459.478 311.938L459.478 311.584L460.097 311.584L460.099 309.106L462.287 309.107ZM462.446 314.354C463.159 314.354 463.706 314.137 464.087 313.703C464.474 313.268 464.667 312.644 464.668 311.828C464.668 311.061 464.481 310.482 464.105 310.09C463.73 309.693 463.178 309.494 462.448 309.493L460.935 309.493L460.934 311.585L462.64 311.586L462.64 311.94L460.934 311.939L460.933 314.353L462.446 314.354ZM470.241 313.279L466.998 313.278L466.265 314.742L465.702 314.742L468.634 309.03L469.068 309.03L471.825 314.745L470.924 314.744L470.241 313.279ZM470.056 312.893L468.674 309.931L467.191 312.892L470.056 312.893ZM467.419 307.686C467.216 307.546 467.114 307.42 467.114 307.307C467.114 307.248 467.135 307.2 467.178 307.162C467.227 307.12 467.291 307.098 467.371 307.098C467.532 307.098 467.675 307.168 467.798 307.308L468.932 308.547L468.65 308.547L467.419 307.686ZM474.636 309.114L475.481 309.114L478.906 313.485L478.909 309.116L479.617 309.116L479.614 314.749L479.195 314.749L475.344 309.846L475.341 314.747L474.633 314.746L474.636 309.114ZM484.818 313.287L481.575 313.285L480.842 314.749L480.279 314.749L483.211 309.038L483.645 309.038L486.402 314.752L485.501 314.752L484.818 313.287ZM484.633 312.901L483.25 309.939L481.768 312.899L484.633 312.901ZM482.174 307.041C482.2 306.848 482.273 306.698 482.391 306.591C482.514 306.484 482.662 306.43 482.834 306.43C482.925 306.43 483.013 306.446 483.099 306.479C483.185 306.511 483.3 306.562 483.445 306.632C483.558 306.685 483.652 306.728 483.727 306.761C483.802 306.788 483.874 306.801 483.944 306.801C484.046 306.801 484.134 306.766 484.21 306.697C484.29 306.627 484.352 306.53 484.395 306.407L484.564 306.488C484.515 306.702 484.435 306.866 484.322 306.978C484.209 307.091 484.067 307.147 483.895 307.147C483.81 307.147 483.724 307.131 483.638 307.099C483.552 307.066 483.442 307.015 483.308 306.946C483.19 306.886 483.091 306.841 483.011 306.809C482.93 306.776 482.855 306.76 482.785 306.76C482.683 306.76 482.592 306.792 482.512 306.857C482.431 306.921 482.375 307.009 482.342 307.122L482.174 307.041ZM483.38 308.587C482.988 308.587 482.677 308.487 482.446 308.289C482.221 308.085 482.101 307.809 482.085 307.46L482.366 307.46C482.393 307.696 482.495 307.884 482.672 308.023C482.854 308.163 483.09 308.233 483.38 308.233C483.67 308.233 483.903 308.164 484.08 308.024C484.263 307.885 484.367 307.697 484.394 307.461L484.676 307.461C484.66 307.81 484.536 308.086 484.305 308.29C484.08 308.488 483.771 308.587 483.38 308.587ZM487.075 309.12L487.92 309.121L491.346 313.492L491.348 309.122L492.056 309.123L492.053 314.755L491.635 314.755L487.783 309.853L487.78 314.753L487.072 314.753L487.075 309.12ZM496.21 314.838C495.556 314.838 494.995 314.725 494.528 314.499C494.062 314.268 493.705 313.935 493.459 313.501C493.212 313.066 493.089 312.548 493.089 311.948C493.09 311.347 493.211 310.829 493.452 310.395C493.694 309.96 494.043 309.628 494.499 309.398C494.955 309.162 495.497 309.044 496.125 309.044C496.886 309.045 497.511 309.211 497.999 309.544C498.493 309.872 498.79 310.325 498.892 310.905L498.167 310.904C498.071 310.432 497.849 310.07 497.5 309.818C497.152 309.56 496.701 309.431 496.149 309.431C495.456 309.43 494.915 309.653 494.523 310.098C494.131 310.537 493.935 311.151 493.934 311.94C493.934 312.739 494.132 313.359 494.529 313.799C494.931 314.234 495.494 314.451 496.218 314.452C496.556 314.452 496.865 314.417 497.144 314.348C497.423 314.273 497.688 314.158 497.941 314.002L497.941 312.175L495.97 312.174L495.97 311.812L498.779 311.814L498.777 314.059C498.461 314.311 498.082 314.504 497.642 314.638C497.208 314.771 496.73 314.838 496.21 314.838Z" fill="#4A3021"/>
<path d="M607.875 121.073L610.499 121.074C611.175 121.074 611.711 121.193 612.108 121.429C612.505 121.665 612.703 121.987 612.703 122.395C612.703 122.744 612.56 123.044 612.276 123.296C611.991 123.543 611.618 123.701 611.157 123.77C611.769 123.829 612.235 123.972 612.557 124.197C612.879 124.417 613.039 124.75 613.039 125.195C613.039 125.683 612.838 126.059 612.435 126.322C612.033 126.579 611.451 126.707 610.689 126.707L607.873 126.705L607.875 121.073ZM610.192 123.593C610.733 123.593 611.149 123.496 611.439 123.304C611.729 123.105 611.874 122.818 611.874 122.443C611.874 122.11 611.737 121.863 611.464 121.702C611.19 121.541 610.775 121.46 610.217 121.46L608.712 121.459L608.711 123.592L610.192 123.593ZM610.77 126.321C611.22 126.321 611.572 126.219 611.824 126.015C612.076 125.812 612.202 125.525 612.202 125.155C612.203 124.763 612.028 124.471 611.68 124.277C611.337 124.079 610.824 123.979 610.143 123.979L608.711 123.978L608.71 126.32L610.77 126.321ZM614.24 121.076L615.077 121.077L615.074 126.709L614.237 126.709L614.24 121.076ZM616.598 121.077L621.37 121.08L621.369 121.466L617.435 121.464L617.433 123.5L620.91 123.502L620.909 123.88L617.433 123.878L617.432 126.324L621.367 126.326L621.367 126.712L616.595 126.71L616.598 121.077ZM617.862 118.954C617.884 118.761 617.954 118.61 618.072 118.503C618.195 118.396 618.343 118.342 618.514 118.342C618.606 118.342 618.697 118.359 618.788 118.391C618.879 118.423 618.994 118.474 619.134 118.544C619.247 118.598 619.34 118.641 619.416 118.673C619.491 118.7 619.56 118.713 619.625 118.713C619.727 118.713 619.818 118.678 619.898 118.609C619.979 118.539 620.041 118.442 620.084 118.319L620.244 118.4C620.148 118.84 619.925 119.059 619.576 119.059C619.49 119.059 619.405 119.043 619.319 119.011C619.233 118.978 619.123 118.927 618.989 118.858C618.866 118.793 618.766 118.748 618.691 118.721C618.616 118.688 618.544 118.672 618.474 118.672C618.367 118.672 618.273 118.704 618.192 118.769C618.112 118.833 618.055 118.922 618.023 119.034L617.862 118.954ZM618.771 119.284L619.335 119.284L620.332 120.516L619.938 120.516L619.053 119.662L618.167 120.515L617.773 120.515L618.771 119.284ZM622.193 121.08L623.038 121.081L626.463 125.452L626.466 121.082L627.174 121.083L627.171 126.715L626.752 126.715L622.901 121.813L622.898 126.713L622.19 126.713L622.193 121.08ZM632.696 121.086C633.747 121.086 634.546 121.317 635.093 121.779C635.64 122.241 635.913 122.917 635.913 123.807C635.912 124.735 635.636 125.454 635.083 125.963C634.535 126.467 633.755 126.719 632.741 126.718L630.504 126.717L630.505 123.917L629.886 123.917L629.886 123.563L630.506 123.563L630.507 121.085L632.696 121.086ZM632.854 126.332C633.567 126.333 634.115 126.116 634.496 125.681C634.882 125.247 635.076 124.622 635.076 123.807C635.076 123.04 634.889 122.46 634.514 122.068C634.138 121.671 633.586 121.472 632.856 121.472L631.344 121.471L631.342 123.563L633.048 123.564L633.048 123.918L631.342 123.917L631.341 126.331L632.854 126.332ZM639.844 126.803C639.211 126.802 638.666 126.687 638.211 126.456C637.755 126.225 637.406 125.892 637.165 125.457C636.924 125.017 636.803 124.492 636.804 123.88C636.804 123.279 636.925 122.764 637.167 122.335C637.408 121.901 637.757 121.571 638.213 121.346C638.669 121.121 639.214 121.009 639.847 121.009C640.48 121.009 641.022 121.122 641.472 121.348C641.928 121.573 642.277 121.903 642.518 122.338C642.759 122.767 642.879 123.282 642.879 123.883C642.879 124.495 642.758 125.02 642.516 125.46C642.274 125.895 641.926 126.227 641.47 126.457C641.019 126.688 640.477 126.803 639.844 126.803ZM639.844 126.416C640.541 126.417 641.081 126.197 641.462 125.757C641.843 125.318 642.034 124.693 642.034 123.883C642.035 123.089 641.844 122.477 641.464 122.048C641.088 121.613 640.549 121.396 639.847 121.395C639.144 121.395 638.602 121.609 638.221 122.038C637.84 122.467 637.649 123.081 637.649 123.881C637.648 124.691 637.838 125.316 638.219 125.756C638.6 126.196 639.141 126.416 639.844 126.416ZM639.566 119.295L640.129 119.295L641.127 120.527L640.732 120.527L639.848 119.673L638.962 120.526L638.568 120.526L639.566 119.295ZM643.92 121.092L644.765 121.092L648.191 125.463L648.193 121.094L648.901 121.094L648.898 126.727L648.48 126.727L644.628 121.824L644.626 126.725L643.917 126.724L643.92 121.092ZM653.055 126.81C652.401 126.809 651.84 126.696 651.374 126.471C650.907 126.24 650.55 125.907 650.304 125.472C650.057 125.038 649.934 124.52 649.935 123.919C649.935 123.318 650.056 122.801 650.298 122.366C650.539 121.932 650.888 121.6 651.344 121.369C651.8 121.133 652.342 121.016 652.97 121.016C653.731 121.016 654.356 121.183 654.844 121.516C655.338 121.843 655.635 122.297 655.737 122.876L655.013 122.876C654.916 122.404 654.694 122.041 654.345 121.789C653.997 121.531 653.546 121.402 652.994 121.402C652.302 121.402 651.76 121.624 651.368 122.069C650.976 122.509 650.78 123.123 650.78 123.912C650.779 124.711 650.977 125.331 651.374 125.771C651.776 126.205 652.339 126.423 653.063 126.423C653.401 126.423 653.71 126.389 653.989 126.319C654.268 126.244 654.533 126.129 654.786 125.974L654.787 124.147L652.815 124.146L652.815 123.784L655.624 123.785L655.622 126.03C655.306 126.282 654.928 126.475 654.488 126.609C654.053 126.743 653.576 126.81 653.055 126.81Z" fill="#4A3021"/>
<path d="M74.5995 42.0075C75.651 42.008 76.4502 42.2391 76.9971 42.7007C77.544 43.1624 77.8172 43.8384 77.8168 44.7289C77.8163 45.657 77.5397 46.3757 76.9868 46.885C76.4394 47.389 75.6588 47.6407 74.6449 47.6402L72.4079 47.639L72.4094 44.8388L71.7898 44.8384L71.79 44.4844L72.4096 44.4847L72.4109 42.0063L74.5995 42.0075ZM74.7577 47.254C75.4712 47.2544 76.0185 47.0374 76.3996 46.6031C76.7861 46.1687 76.9795 45.5439 76.9799 44.7285C76.9803 43.9614 76.7929 43.3819 76.4176 42.9901C76.0423 42.593 75.4898 42.3942 74.7603 42.3938L73.2475 42.393L73.2464 44.4851L74.9523 44.486L74.9521 44.8401L73.2462 44.8392L73.245 47.2532L74.7577 47.254ZM82.5531 46.1798L79.3102 46.1781L78.5772 47.6422L78.014 47.6419L80.9459 41.9303L81.3805 41.9306L84.1375 47.6451L83.2363 47.6447L82.5531 46.1798ZM82.3682 45.7935L80.9857 42.8316L79.5036 45.792L82.3682 45.7935ZM81.7919 39.9835C81.6578 39.8815 81.5613 39.8037 81.5023 39.75C81.4487 39.6909 81.4219 39.6346 81.4219 39.581C81.422 39.5219 81.4434 39.4764 81.4864 39.4442C81.5293 39.4067 81.5856 39.3879 81.6554 39.388C81.7627 39.388 81.8672 39.4524 81.9691 39.5812L82.7652 40.499L82.4917 40.4988L81.7919 39.9835ZM80.8342 40.2163L81.3975 40.2166L82.3946 41.4483L82.0003 41.4481L81.1156 40.5947L80.23 41.4472L79.8358 41.4469L80.8342 40.2163ZM91.079 42.0161L91.0761 47.6488L90.2392 47.6483L90.2417 42.9169L88.0505 47.6472L87.6563 47.647L85.3091 42.8499L85.3066 47.6457L84.8077 47.6455L84.8107 42.0128L85.7682 42.0133L88.0108 46.6494L90.1617 42.0156L91.079 42.0161ZM97.2427 47.7325C96.2824 47.732 95.545 47.4794 95.0302 46.9749C94.5155 46.4704 94.2584 45.7487 94.2589 44.81C94.2594 43.8926 94.5146 43.1847 95.0244 42.686C95.5397 42.1874 96.2747 41.9384 97.2296 41.9389C98.0075 41.9393 98.6404 42.1032 99.1284 42.4307C99.6164 42.7582 99.9058 43.2143 99.9967 43.7991L99.2725 43.7987C99.1815 43.3373 98.9591 42.9778 98.6052 42.7201C98.2513 42.4571 97.8061 42.3254 97.2696 42.3251C96.5723 42.3248 96.0357 42.539 95.66 42.968C95.2896 43.397 95.1042 44.0111 95.1038 44.8104C95.1034 45.6258 95.2908 46.2535 95.6661 46.6936C96.0414 47.1283 96.5804 47.3459 97.2831 47.3462C97.8195 47.3465 98.2622 47.218 98.611 46.9607C98.9598 46.7034 99.18 46.3414 99.2714 45.8747L99.9956 45.8751C99.9041 46.4598 99.6142 46.9156 99.1258 47.2426C98.6375 47.5696 98.0098 47.7329 97.2427 47.7325ZM104.917 46.1915L101.674 46.1898L100.941 47.6539L100.378 47.6536L103.31 41.942L103.745 41.9423L106.502 47.6568L105.6 47.6564L104.917 46.1915ZM104.732 45.8052L103.35 42.8433L101.868 45.8037L104.732 45.8052ZM104.156 39.9952C104.022 39.8932 103.925 39.8154 103.866 39.7617C103.813 39.7026 103.786 39.6463 103.786 39.5927C103.786 39.5337 103.807 39.4881 103.85 39.4559C103.893 39.4184 103.95 39.3996 104.019 39.3997C104.127 39.3997 104.231 39.4642 104.333 39.593L105.129 40.5107L104.856 40.5105L104.156 39.9952ZM103.198 40.228L103.762 40.2283L104.759 41.46L104.364 41.4598L103.48 40.6064L102.594 41.4589L102.2 41.4587L103.198 40.228ZM109.34 47.7388C108.406 47.7383 107.731 47.5314 107.312 47.1181C106.899 46.6995 106.693 46.0986 106.694 45.3154L106.695 42.0243L107.532 42.0247L107.53 45.5009C107.53 46.1017 107.672 46.5604 107.956 46.8771C108.24 47.1937 108.702 47.3522 109.34 47.3526C109.968 47.3529 110.424 47.1976 110.708 46.8866C110.998 46.5756 111.143 46.1143 111.143 45.5028L111.145 42.0266L111.982 42.027L111.98 45.3181C111.98 46.1013 111.773 46.702 111.36 47.1203C110.947 47.5331 110.273 47.7393 109.34 47.7388ZM115.308 42.0288L116.145 42.0292L116.143 44.4513L119.756 44.4532L119.758 42.0311L120.594 42.0316L120.592 47.6642L119.755 47.6638L119.756 44.8314L116.143 44.8295L116.142 47.6619L115.305 47.6614L115.308 42.0288ZM125.796 46.2024L122.553 46.2008L121.82 47.6649L121.257 47.6646L124.189 41.953L124.623 41.9532L127.38 47.6678L126.479 47.6673L125.796 46.2024ZM125.611 45.8161L124.229 42.8542L122.746 45.8146L125.611 45.8161ZM128.384 42.0356L129.22 42.0361L129.217 47.6687L128.381 47.6683L128.384 42.0356Z" fill="#4A3021"/>
<path d="M439.284 603.258C440.324 603.105 441.148 603.217 441.757 603.594C442.365 603.971 442.734 604.6 442.863 605.481C442.998 606.4 442.829 607.151 442.356 607.735C441.888 608.314 441.152 608.676 440.149 608.824L437.936 609.148L437.529 606.378L436.916 606.468L436.865 606.117L437.478 606.027L437.118 603.575L439.284 603.258ZM440.204 608.425C440.91 608.321 441.42 608.027 441.734 607.542C442.053 607.056 442.153 606.41 442.035 605.603C441.924 604.844 441.654 604.298 441.225 603.965C440.796 603.627 440.221 603.51 439.499 603.616L438.002 603.836L438.306 605.906L439.994 605.658L440.045 606.009L438.357 606.256L438.708 608.645L440.204 608.425ZM450.069 601.675C450.124 602.047 450.048 602.38 449.842 602.676C449.641 602.971 449.343 603.191 448.947 603.336L449.209 605.128C449.323 605.902 449.206 606.527 448.858 607.001C448.509 607.469 447.873 607.772 446.95 607.907C446.026 608.043 445.327 607.936 444.853 607.588C444.384 607.234 444.092 606.67 443.979 605.895L443.501 602.639L444.329 602.517L444.834 605.957C444.921 606.551 445.128 606.984 445.455 607.256C445.783 607.528 446.262 607.618 446.894 607.525C447.515 607.434 447.943 607.214 448.179 606.865C448.421 606.515 448.497 606.037 448.408 605.432L447.904 601.993L448.732 601.871L448.905 603.05C449.108 602.922 449.255 602.741 449.345 602.505C449.441 602.269 449.47 602.023 449.432 601.769L450.069 601.675ZM456.59 600.629C456.64 600.968 456.58 601.278 456.409 601.558C456.243 601.832 455.994 602.05 455.66 602.213C455.92 602.587 456.091 603.05 456.172 603.602C456.261 604.207 456.218 604.744 456.043 605.215C455.867 605.68 455.571 606.059 455.153 606.354C454.741 606.647 454.221 606.84 453.595 606.932C452.969 607.024 452.413 606.989 451.929 606.827C451.444 606.665 451.051 606.386 450.749 605.991C450.446 605.591 450.25 605.089 450.162 604.484C450.074 603.889 450.119 603.362 450.296 602.902C450.471 602.437 450.768 602.06 451.187 601.771C451.605 601.482 452.128 601.292 452.754 601.2C453.338 601.114 453.859 601.138 454.318 601.271C454.782 601.404 455.166 601.64 455.471 601.98C455.662 601.844 455.798 601.661 455.879 601.433C455.964 601.203 455.989 600.966 455.953 600.722L456.59 600.629ZM453.539 606.55C454.229 606.449 454.73 606.153 455.043 605.662C455.356 605.172 455.454 604.526 455.336 603.724C455.221 602.939 454.944 602.361 454.505 601.992C454.07 601.617 453.505 601.48 452.81 601.582C452.115 601.684 451.61 601.975 451.295 602.455C450.981 602.935 450.881 603.57 450.997 604.361C451.115 605.162 451.394 605.753 451.835 606.133C452.276 606.513 452.844 606.652 453.539 606.55ZM451.174 600.073C450.952 599.965 450.832 599.855 450.816 599.744C450.808 599.685 450.822 599.634 450.859 599.591C450.9 599.542 450.961 599.511 451.041 599.499C451.2 599.476 451.351 599.524 451.493 599.644L452.795 600.706L452.517 600.747L451.174 600.073ZM456.796 600.688L457.632 600.565L461.658 604.391L461.023 600.068L461.724 599.965L462.542 605.538L462.128 605.599L457.603 601.31L458.314 606.158L457.614 606.261L456.796 600.688ZM466.666 605.014C466.019 605.109 465.448 605.079 464.953 604.924C464.458 604.763 464.057 604.486 463.75 604.092C463.442 603.698 463.245 603.204 463.158 602.609C463.071 602.015 463.115 601.485 463.291 601.02C463.467 600.555 463.763 600.175 464.181 599.881C464.598 599.581 465.117 599.386 465.738 599.295C466.491 599.184 467.134 599.258 467.665 599.516C468.201 599.768 468.561 600.174 468.746 600.732L468.03 600.837C467.866 600.384 467.593 600.058 467.211 599.859C466.829 599.655 466.364 599.593 465.818 599.673C465.133 599.774 464.629 600.073 464.306 600.57C463.983 601.062 463.878 601.698 463.993 602.479C464.109 603.269 464.395 603.854 464.852 604.231C465.313 604.603 465.902 604.736 466.618 604.631C466.953 604.582 467.253 604.502 467.519 604.393C467.784 604.278 468.03 604.125 468.257 603.935L467.991 602.128L466.041 602.414L465.988 602.056L468.767 601.648L469.093 603.869C468.816 604.165 468.47 604.411 468.054 604.607C467.644 604.803 467.181 604.939 466.666 605.014ZM424.87 615.479L425.698 615.358L426.05 617.754L429.625 617.23L429.273 614.833L430.101 614.712L430.919 620.285L430.091 620.406L429.68 617.604L426.105 618.129L426.516 620.931L425.688 621.052L424.87 615.479ZM434.726 619.808C433.802 619.943 433.103 619.837 432.629 619.489C432.16 619.135 431.868 618.571 431.755 617.796L431.277 614.539L432.105 614.418L432.609 617.857C432.697 618.452 432.904 618.885 433.231 619.157C433.558 619.429 434.038 619.518 434.669 619.426C435.29 619.334 435.719 619.114 435.955 618.765C436.197 618.415 436.273 617.938 436.184 617.333L435.68 613.893L436.507 613.772L436.985 617.028C437.099 617.803 436.982 618.428 436.634 618.902C436.285 619.37 435.649 619.672 434.726 619.808ZM432.32 612.947C432.098 612.839 431.979 612.729 431.963 612.617C431.954 612.559 431.968 612.508 432.005 612.464C432.047 612.415 432.107 612.384 432.187 612.373C432.346 612.349 432.497 612.398 432.639 612.518L433.942 613.579L433.663 613.62L432.32 612.947ZM437.683 613.599L438.519 613.477L442.545 617.302L441.911 612.979L442.611 612.876L443.429 618.449L443.015 618.51L438.49 614.221L439.202 619.07L438.501 619.172L437.683 613.599ZM447.554 617.926C446.906 618.021 446.335 617.99 445.841 617.835C445.345 617.675 444.944 617.398 444.637 617.003C444.33 616.609 444.133 616.115 444.045 615.521C443.958 614.926 444.002 614.396 444.178 613.931C444.354 613.467 444.651 613.087 445.068 612.792C445.485 612.493 446.004 612.297 446.625 612.206C447.379 612.096 448.021 612.169 448.552 612.428C449.088 612.68 449.449 613.085 449.634 613.643L448.917 613.749C448.753 613.295 448.48 612.97 448.099 612.771C447.716 612.567 447.252 612.505 446.705 612.585C446.02 612.685 445.517 612.984 445.194 613.482C444.87 613.974 444.766 614.61 444.88 615.39C444.996 616.181 445.282 616.765 445.739 617.143C446.2 617.514 446.789 617.647 447.506 617.542C447.84 617.493 448.14 617.414 448.406 617.304C448.671 617.19 448.917 617.037 449.144 616.846L448.879 615.039L446.928 615.325L446.876 614.967L449.654 614.559L449.98 616.781C449.704 617.076 449.357 617.322 448.942 617.519C448.531 617.714 448.069 617.85 447.554 617.926ZM451.96 611.505L452.876 611.37L455.788 615.75L457.486 610.694L458.027 610.614L455.982 616.689L455.552 616.752L451.96 611.505ZM465.212 609.56C465.267 609.932 465.191 610.265 464.985 610.561C464.784 610.856 464.486 611.076 464.09 611.221L464.353 613.013C464.466 613.788 464.349 614.412 464.001 614.886C463.653 615.355 463.016 615.657 462.093 615.792C461.169 615.928 460.471 615.821 459.997 615.474C459.527 615.12 459.236 614.555 459.122 613.78L458.644 610.524L459.472 610.402L459.977 613.842C460.064 614.436 460.271 614.869 460.599 615.141C460.926 615.413 461.405 615.503 462.037 615.41C462.658 615.319 463.086 615.099 463.323 614.75C463.564 614.4 463.64 613.922 463.552 613.317L463.047 609.878L463.875 609.756L464.048 610.935C464.251 610.807 464.398 610.626 464.488 610.39C464.584 610.154 464.613 609.908 464.575 609.654L465.212 609.56ZM471.733 608.514C471.783 608.854 471.723 609.163 471.553 609.443C471.387 609.717 471.137 609.935 470.803 610.098C471.064 610.472 471.235 610.935 471.316 611.487C471.404 612.092 471.361 612.629 471.186 613.1C471.011 613.565 470.714 613.944 470.296 614.239C469.884 614.532 469.364 614.725 468.738 614.817C468.112 614.909 467.556 614.874 467.072 614.712C466.587 614.55 466.194 614.271 465.892 613.877C465.589 613.476 465.394 612.974 465.305 612.369C465.218 611.774 465.262 611.247 465.439 610.788C465.614 610.323 465.912 609.946 466.33 609.656C466.748 609.367 467.271 609.177 467.897 609.085C468.481 608.999 469.002 609.023 469.461 609.156C469.925 609.289 470.309 609.525 470.614 609.866C470.806 609.729 470.941 609.546 471.022 609.318C471.107 609.088 471.132 608.852 471.096 608.607L471.733 608.514ZM468.682 614.435C469.372 614.334 469.874 614.038 470.187 613.547C470.5 613.057 470.597 612.411 470.48 611.609C470.364 610.824 470.087 610.246 469.648 609.877C469.213 609.502 468.648 609.365 467.953 609.467C467.258 609.569 466.753 609.86 466.438 610.34C466.124 610.82 466.025 611.455 466.141 612.246C466.258 613.048 466.537 613.638 466.978 614.018C467.419 614.398 467.987 614.537 468.682 614.435ZM471.939 608.573L472.775 608.451L476.801 612.276L476.167 607.953L476.867 607.85L477.685 613.423L477.271 613.484L472.746 609.195L473.457 614.043L472.757 614.146L471.939 608.573ZM481.81 612.899C481.162 612.994 480.591 612.964 480.097 612.809C479.601 612.649 479.2 612.371 478.893 611.977C478.586 611.583 478.388 611.089 478.301 610.494C478.214 609.9 478.258 609.37 478.434 608.905C478.61 608.44 478.906 608.061 479.324 607.766C479.741 607.466 480.26 607.271 480.881 607.18C481.635 607.069 482.277 607.143 482.808 607.401C483.344 607.653 483.704 608.059 483.889 608.617L483.173 608.722C483.009 608.269 482.736 607.943 482.354 607.744C481.972 607.54 481.508 607.478 480.961 607.558C480.276 607.659 479.772 607.958 479.45 608.455C479.126 608.947 479.021 609.583 479.136 610.364C479.252 611.155 479.538 611.739 479.995 612.116C480.456 612.488 481.045 612.621 481.761 612.516C482.096 612.467 482.396 612.388 482.662 612.278C482.927 612.163 483.173 612.011 483.4 611.82L483.135 610.013L481.184 610.299L481.131 609.941L483.91 609.533L484.236 611.754C483.959 612.05 483.613 612.296 483.197 612.492C482.787 612.688 482.324 612.824 481.81 612.899Z" fill="#4A3021"/>
<path d="M635.44 680.905C635.44 680.905 579.193 590.017 565.383 560.426C551.573 530.834 517.948 454.381 512.567 431.679C507.186 408.978 476.136 377.304 470.463 370.052C464.79 362.8 429.485 294.393 423.581 291.436C417.677 288.479 403.464 294.091 408.493 283.772C413.522 273.452 409.922 247.481 407.488 234.486C405.053 221.49 392.32 184.627 381.698 162.498C371.076 140.37 363.704 131.519 354.852 126.5C346.001 121.481 342.46 117.95 330.652 120.897C318.844 123.844 316.792 112.046 311.481 110.577C306.17 109.109 251.885 106.735 242.732 107.62C233.579 108.505 189.111 109.954 181.045 103.899C172.978 97.8435 163.07 99.5032 154.269 106.282C145.468 113.062 146.565 113.434 138.176 111.05C129.787 108.666 117.456 113.464 109.56 101.615C101.664 89.7667 93.2454 91.4263 84.4142 91.2453C75.583 91.0642 58.7353 93.8101 52.137 85.5623C45.5388 77.3145 -4.32031 39.5254 -4.32031 39.5254" stroke="#4A3021" stroke-width="3.0175" stroke-miterlimit="10"/>
<path d="M175.195 676.8C175.195 676.8 209.585 668.16 217.541 660.606C225.497 653.053 233.051 654.139 242.898 651.443C252.745 648.748 272.842 641.053 278.233 631.327C283.624 621.6 297.253 607.448 308.579 605.698C319.904 603.948 341.62 603.274 350.25 591.003C358.88 578.732 375.607 580.623 383.704 578.189C391.801 575.754 408.388 568.211 412.159 561.089C415.931 553.968 433.061 544.996 438.462 540.188C443.863 535.38 453.549 498.165 446.74 469.418" stroke="#4A3021" stroke-width="3.0175" stroke-miterlimit="10"/>
<path d="M438.456 540.18C438.456 540.18 437.158 561.493 429.172 568.051C421.186 574.609 404.63 600.972 415.925 601.012C427.221 601.053 453.483 592.181 463.199 592.543C472.916 592.905 493.656 589.073 494.038 594.444" stroke="#4A3021" stroke-width="3.0175" stroke-miterlimit="10"/>
<path d="M493.777 592.593C493.777 592.593 513.602 619.047 526.648 611.543C539.694 604.04 578.851 592.603 579.122 586.699" stroke="#4A3021" stroke-width="3.0175" stroke-miterlimit="10"/>
<path d="M581.95 591.787C581.95 591.787 627.032 602.509 631.98 593.799C636.929 585.088 641.254 577.987 630.542 575.694C619.83 573.4 602.992 563.453 597.35 551.212C597.35 551.212 584.857 525.191 588.166 503.767C591.476 482.342 595.569 451.222 594.292 446.635C593.015 442.049 570.947 400.005 568.241 387.603C565.535 375.201 553.918 360.687 562.628 350.629C571.339 340.57 583.328 321.46 577.334 314.057C571.339 306.654 568.281 304.904 565.334 304.451C562.387 303.998 555.085 304.582 553.153 300.9C551.222 297.219 548.909 293.578 536.809 302.56" stroke="#4A3021" stroke-width="3.0175" stroke-miterlimit="10"/>
<path d="M469.477 370.165C480.205 367.315 502.367 363.326 505.184 370.165C508.704 378.715 524.797 430.011 527.312 429.509" stroke="#4A3021" stroke-width="0.502916"/>
<path d="M513.23 393.298C528.318 391.454 565.031 388.269 567.545 387.766" stroke="#4A3021" stroke-width="0.502916"/>
<path d="M508.707 379.72C523.795 377.876 560.004 374.188 562.519 374.188" stroke="#4A3021" stroke-width="0.502916"/>
<path d="M504.684 369.66C519.771 367.816 555.981 362.619 558.496 362.619" stroke="#4A3021" stroke-width="0.502916"/>
</g>
<defs>
<clipPath id="clip0_5617_11066">
<rect width="788" height="675" fill="white"/>
</clipPath>
</defs>
</svg>
