<svg width="788" height="675" viewBox="0 0 788 675" fill="none" xmlns="http://www.w3.org/2000/svg">
<g clip-path="url(#clip0_5617_10977)">
<path d="M479.622 320.181C489.772 304.089 504.86 287.272 499.177 285.291C493.493 283.309 488.534 288.308 482.589 284.285C476.644 280.262 460.57 271.914 448.941 263.998C437.313 256.083 434.859 250.138 426.67 248.911C418.482 247.684 415.283 250.923 409.349 245.451C403.414 239.98 401.18 238.522 389.804 242.233C378.427 245.944 374.715 243.722 373.709 248.167C372.703 252.613 373.709 270.687 364.304 269.45C354.898 268.212 346.197 261.775 343.521 256.827C340.846 251.878 337.083 243.47 327.427 246.93C317.77 250.39 315.295 251.637 306.634 254.604C297.973 257.571 298.466 249.404 300.699 244.959C302.933 240.513 313.776 223.183 310.346 215.016C306.916 206.85 306.141 201.66 289.815 208.59C273.489 215.519 272.493 217.742 257.395 215.761C242.296 213.779 232.398 206.608 225.718 201.408C219.039 196.208 251.701 208.59 254.427 206.115C257.153 203.641 256.942 192.879 269.264 193.875C281.587 194.871 289.584 189.852 292.914 190.546C296.243 191.24 314.571 190.878 317.237 197.204C319.902 203.53 321.924 207.262 317.72 205.874C313.515 204.486 310.135 211.265 314.702 213.92C319.269 216.575 328.352 217.621 328.02 216.445C327.688 215.268 340.151 220.317 334.418 220.659C328.684 221.001 313.525 216.948 313.183 221.836C312.841 226.724 313.686 233.432 320.093 236.731C326.501 240.03 338.462 244.416 341.157 246.789C343.853 249.163 352.454 259.09 355.995 260.78C359.536 262.469 364.585 264.652 366.275 260.438C367.965 256.223 366.104 244.265 376.385 240.895C386.665 237.526 395.598 235.494 393.244 231.964C390.89 228.434 385.146 224.38 376.556 225.215C367.965 226.05 363.237 228.585 360.209 228.926C357.182 229.268 343.018 229.771 341.841 227.408C340.664 225.044 339.981 219.653 344.698 220.84C349.416 222.027 375.208 217.3 381.444 218.144C387.681 218.989 392.228 220.156 399.641 226.191C407.055 232.225 421.047 238.491 427.958 242.364C434.869 246.236 444.646 252.311 450.209 255.177C455.772 258.044 468.235 257.37 476.493 263.224C484.752 269.077 496.219 284.456 501.641 282.092C507.063 279.729 514.618 269.289 521.86 274.348C529.103 279.407 549.332 287.493 549.02 294.061C548.708 300.629 549.694 320.684 552.219 325.572C554.744 330.46 557.953 341.413 568.404 339.895C578.856 338.376 579.862 337.541 578.182 331.848C576.502 326.156 579.188 320.051 584.076 327.131C588.965 334.212 593.683 338.587 596.55 344.491C599.417 350.395 601.438 358.642 607.504 359.487C613.57 360.332 618.288 361.338 615.934 353.583C613.58 345.829 611.719 336.213 614.747 338.245C617.775 340.277 621.486 353.251 624.353 354.257C627.22 355.263 623.005 358.471 619.464 363.702C615.924 368.932 618.459 375.157 621.154 378.698C623.85 382.238 621.024 387.8 625.309 387.458C629.594 387.116 638.004 379.543 642.731 384.441C647.459 389.339 646.604 393.201 649.471 396.571C652.338 399.94 657.217 401.599 659.53 398.924C661.844 396.249 665.938 393.895 664.56 403.138C663.182 412.381 662.548 421.514 666.411 418.306C670.273 415.097 677.365 406.176 673.995 400.946C670.625 395.716 661.693 382.922 661.522 377.189C661.351 371.456 653.263 362.525 642.48 352.246C631.696 341.967 612.986 323.601 599.839 315.032C586.692 306.462 558.717 289.072 544.222 279.638C529.727 270.204 488.434 247.624 486.241 244.587C484.048 241.549 440.23 214.252 428.27 205.492C416.309 196.731 349.657 157.415 321.19 134.292C292.722 111.169 248.593 72.3762 231.512 55.65C214.432 38.9238 178.078 -1.67969 178.078 -1.67969H-4.30469V475.062C-4.30469 475.062 20.5113 476.068 26.2148 471.381C31.9184 466.694 52.8515 455.137 66.0189 448.851C79.1864 442.565 86.1373 431.582 86.9018 428.947C87.6663 426.312 107.272 406.266 120.439 403.641C127.833 402.726 114.303 396.46 110.44 389.641C106.578 382.821 95.3515 364.999 77.4965 353.08C59.6415 341.162 43.1041 336.123 48.1539 321.449C54.5716 323.058 55.487 327.865 68.3225 335.66C81.158 343.455 122.421 381.504 123.115 395.716C123.236 404.225 146.955 387.921 161.621 383.566C176.288 379.211 198.76 375.087 224.893 395.253C251.027 415.419 260.201 419.784 273.721 418.386C287.24 416.988 298.939 407.383 301.001 405.552C303.063 403.722 341.117 391.803 361.064 395.494C381.012 399.186 411.038 406.045 427.777 412.462C444.515 418.879 460.781 439.739 470.186 442.022C479.592 444.305 497.467 442.485 500.676 440.01C507.093 440.473 549.272 436.54 558.013 435.394C566.754 434.247 612.574 417.974 610.049 411.557C607.524 405.14 604.315 401.499 596.067 402.877C587.818 404.255 594.236 385.919 600.875 382.248C600.654 371.255 601.106 361.127 593.542 353.372C585.977 345.618 583.583 343.696 574.43 344.189C565.276 344.682 551.163 344.602 546.465 338.336C541.767 332.07 542.009 329.595 535.33 326.125C528.65 322.656 538.8 308.806 539.534 304.602C540.269 300.397 545.228 291.989 535.088 287.282C524.948 282.575 521.72 277.878 515.533 280.855C509.347 283.832 497.97 299.402 494.751 303.616C491.532 307.83 482.378 325.14 480.145 328.6C480.145 328.6 470.941 341.474 472.621 347.066C474.301 352.658 477.348 357.184 472.721 357.707C468.094 358.23 463.366 357.707 462.32 352.246C461.274 346.784 462.944 335.741 460.841 332.06C458.739 328.378 456.114 325.089 451.788 325.472C447.463 325.854 443.379 326.065 442.011 327.544C440.643 329.022 439.345 334.584 438.993 337.994C438.641 341.403 434.446 356.973 433.179 358.451C431.911 359.93 429.608 371.527 430.453 373.8C431.298 376.073 419.096 381.474 415.414 384.099C411.733 386.724 405.737 388.725 407.628 392.608C409.52 396.49 415.414 396.4 417.517 396.5C419.619 396.601 421.174 409.065 421.677 410.292L419.689 409.641C419.689 409.641 418.17 397.898 414.308 397.898C410.445 397.898 407.478 397.124 406.26 395.173C405.043 393.221 403.454 390.968 405.556 388.464C407.659 385.96 412.869 383.344 410.586 381.514C408.302 379.683 405.707 376.968 402.398 377.149C399.088 377.33 375.54 383.405 374.232 384.089C372.924 384.773 376.425 380.156 381.273 379.12C386.122 378.084 391.041 377.29 394.793 375.64C398.545 373.991 404.943 374.634 407.87 377.109C410.797 379.583 411.974 380.9 414.831 379.794C417.688 378.688 428.32 374.624 428.501 372.18C428.682 369.736 427.918 361.187 429.024 358.16C430.131 355.132 429.598 338.185 435.824 331.325C442.051 324.466 442.051 323.118 444.877 323.028C447.704 322.937 456.446 321.016 459.775 326.186C463.105 331.356 464.573 332.874 464.272 336.837C463.97 340.8 463.567 349.771 465.217 350.978C466.867 352.185 470.84 355.535 470.488 351.391C470.136 347.247 469.241 336.666 472.027 335.298C474.814 333.93 479.622 320.181 479.622 320.181Z" fill="white"/>
<path d="M309.654 402.306C309.654 402.306 287.614 401.099 282.997 398.685C278.38 396.272 267.999 391.997 266.681 393.405C265.364 394.813 261.31 400.094 256.622 399.721C251.935 399.349 233.486 400.848 231.233 400.516C228.979 400.184 233.677 402.336 233.677 402.336C233.677 402.336 258.211 403.02 260.575 401.532C262.939 400.043 270.474 398.092 274.477 399.52C278.481 400.948 299.091 406.621 301.495 405.666C303.899 404.71 309.654 402.306 309.654 402.306Z" fill="#DBDBDB"/>
<path d="M477.304 372.253C478.35 372.145 479.169 372.292 479.761 372.695C480.353 373.098 480.694 373.742 480.786 374.628C480.881 375.551 480.68 376.295 480.183 376.858C479.69 377.416 478.94 377.747 477.931 377.851L475.706 378.081L475.418 375.296L474.802 375.359L474.765 375.007L475.382 374.943L475.127 372.478L477.304 372.253ZM478.004 377.456C478.713 377.382 479.235 377.11 479.57 376.639C479.909 376.167 480.037 375.525 479.953 374.714C479.875 373.951 479.628 373.394 479.214 373.043C478.8 372.686 478.23 372.546 477.504 372.621L475.999 372.776L476.214 374.857L477.911 374.682L477.948 375.034L476.251 375.21L476.499 377.611L478.004 377.456ZM488.149 371.133C488.187 371.507 488.097 371.837 487.879 372.124C487.666 372.41 487.358 372.617 486.956 372.745L487.142 374.546C487.223 375.325 487.079 375.944 486.711 376.403C486.343 376.856 485.694 377.131 484.766 377.226C483.837 377.322 483.143 377.186 482.685 376.818C482.231 376.445 481.964 375.868 481.883 375.089L481.545 371.815L482.377 371.729L482.735 375.187C482.796 375.785 482.985 376.227 483.3 376.512C483.616 376.798 484.091 376.908 484.726 376.842C485.35 376.778 485.788 376.576 486.039 376.237C486.295 375.898 486.392 375.424 486.329 374.816L485.971 371.358L486.804 371.272L486.926 372.457C487.135 372.338 487.29 372.163 487.39 371.931C487.495 371.699 487.535 371.455 487.508 371.199L488.149 371.133ZM494.709 370.366C494.744 370.708 494.671 371.015 494.489 371.287C494.311 371.554 494.052 371.761 493.712 371.91C493.956 372.294 494.107 372.764 494.165 373.319C494.227 373.927 494.161 374.463 493.966 374.925C493.771 375.382 493.458 375.749 493.028 376.025C492.604 376.301 492.077 376.471 491.447 376.536C490.817 376.601 490.264 376.543 489.786 376.36C489.309 376.177 488.928 375.882 488.643 375.475C488.358 375.062 488.184 374.552 488.121 373.943C488.059 373.345 488.126 372.821 488.322 372.369C488.518 371.912 488.831 371.548 489.261 371.277C489.692 371.006 490.222 370.838 490.852 370.773C491.439 370.712 491.958 370.758 492.411 370.911C492.869 371.064 493.243 371.316 493.533 371.669C493.73 371.541 493.874 371.364 493.964 371.139C494.059 370.914 494.094 370.678 494.069 370.433L494.709 370.366ZM491.407 376.152C492.101 376.081 492.615 375.806 492.948 375.33C493.282 374.853 493.407 374.212 493.324 373.406C493.243 372.616 492.99 372.027 492.567 371.639C492.149 371.246 491.59 371.085 490.891 371.157C490.192 371.229 489.675 371.499 489.34 371.965C489.006 372.431 488.879 373.061 488.962 373.856C489.045 374.662 489.298 375.264 489.723 375.663C490.147 376.061 490.708 376.224 491.407 376.152ZM489.321 369.58C489.104 369.462 488.989 369.347 488.978 369.235C488.972 369.177 488.988 369.126 489.027 369.085C489.07 369.037 489.132 369.009 489.212 369.001C489.372 368.984 489.521 369.039 489.658 369.165L490.914 370.281L490.634 370.31L489.321 369.58ZM494.912 370.435L495.753 370.348L499.612 374.342L499.163 369.996L499.867 369.923L500.446 375.526L500.03 375.569L495.692 371.09L496.195 375.965L495.491 376.038L494.912 370.435ZM504.59 375.179C503.938 375.246 503.369 375.192 502.882 375.016C502.394 374.834 502.005 374.54 501.715 374.133C501.424 373.726 501.249 373.224 501.187 372.626C501.125 372.028 501.192 371.501 501.387 371.044C501.583 370.587 501.896 370.22 502.325 369.944C502.755 369.662 503.282 369.489 503.906 369.425C504.664 369.346 505.303 369.448 505.822 369.728C506.347 370.003 506.69 370.424 506.851 370.989L506.13 371.064C505.986 370.604 505.727 370.267 505.354 370.052C504.981 369.831 504.519 369.75 503.97 369.806C503.281 369.878 502.765 370.155 502.421 370.638C502.077 371.116 501.945 371.747 502.026 372.531C502.109 373.326 502.37 373.922 502.81 374.319C503.255 374.71 503.837 374.868 504.558 374.794C504.894 374.759 505.197 374.693 505.468 374.595C505.737 374.491 505.99 374.349 506.225 374.169L506.037 372.352L504.076 372.554L504.038 372.194L506.832 371.906L507.063 374.139C506.774 374.422 506.417 374.653 505.994 374.832C505.575 375.01 505.107 375.126 504.59 375.179ZM454.69 385.03L452.32 385.275L452.281 384.891L457.844 384.316L457.884 384.7L455.522 384.944L456.061 390.163L455.229 390.249L454.69 385.03ZM461.968 389.634C461.339 389.699 460.785 389.64 460.308 389.458C459.83 389.275 459.449 388.98 459.165 388.573C458.879 388.16 458.705 387.649 458.642 387.041C458.58 386.443 458.648 385.919 458.844 385.467C459.039 385.01 459.352 384.646 459.783 384.375C460.213 384.104 460.743 383.936 461.373 383.871C462.003 383.806 462.553 383.862 463.025 384.04C463.501 384.217 463.882 384.51 464.167 384.917C464.451 385.319 464.624 385.819 464.686 386.417C464.749 387.025 464.683 387.561 464.488 388.023C464.292 388.48 463.98 388.847 463.55 389.123C463.125 389.399 462.598 389.569 461.968 389.634ZM461.929 389.25C462.622 389.178 463.136 388.904 463.47 388.427C463.803 387.951 463.929 387.309 463.845 386.504C463.764 385.714 463.511 385.125 463.088 384.737C462.67 384.344 462.112 384.183 461.413 384.255C460.713 384.327 460.196 384.596 459.862 385.062C459.527 385.528 459.401 386.159 459.483 386.954C459.566 387.76 459.82 388.362 460.244 388.761C460.668 389.159 461.229 389.322 461.929 389.25ZM462.684 381.373C462.783 381.233 462.883 381.158 462.985 381.148C463.054 381.141 463.112 381.154 463.158 381.186C463.204 381.214 463.231 381.257 463.237 381.316C463.242 381.369 463.221 381.425 463.173 381.484C463.125 381.543 463.037 381.633 462.91 381.754L462.258 382.339L461.994 382.367L462.684 381.373ZM460.917 382.195L461.477 382.137L462.596 383.259L462.204 383.3L461.236 382.542L460.443 383.481L460.05 383.522L460.917 382.195ZM465.433 383.532L466.274 383.445L470.133 387.44L469.684 383.093L470.388 383.021L470.967 388.624L470.551 388.667L466.213 384.188L466.717 389.063L466.012 389.136L465.433 383.532ZM475.111 388.277C474.46 388.344 473.89 388.29 473.403 388.113C472.915 387.932 472.526 387.638 472.236 387.231C471.946 386.824 471.77 386.322 471.708 385.724C471.646 385.126 471.713 384.599 471.909 384.142C472.104 383.685 472.417 383.318 472.847 383.042C473.276 382.76 473.803 382.587 474.427 382.522C475.185 382.444 475.824 382.545 476.344 382.826C476.868 383.101 477.211 383.521 477.372 384.087L476.651 384.162C476.507 383.702 476.248 383.365 475.875 383.15C475.502 382.929 475.041 382.847 474.491 382.904C473.803 382.975 473.286 383.252 472.943 383.736C472.598 384.213 472.467 384.845 472.548 385.629C472.63 386.424 472.891 387.02 473.331 387.417C473.776 387.808 474.359 387.966 475.079 387.892C475.415 387.857 475.718 387.791 475.989 387.693C476.259 387.589 476.511 387.447 476.746 387.267L476.558 385.449L474.597 385.652L474.56 385.292L477.353 385.003L477.584 387.237C477.295 387.52 476.939 387.751 476.515 387.93C476.096 388.108 475.628 388.223 475.111 388.277ZM479.788 382.05L480.709 381.955L483.431 386.455L485.343 381.476L485.888 381.42L483.585 387.402L483.153 387.446L479.788 382.05ZM489.727 385.214L486.501 385.547L485.923 387.079L485.363 387.137L487.69 381.153L488.122 381.108L491.455 386.508L490.558 386.6L489.727 385.214ZM489.503 384.849L487.822 382.045L486.654 385.143L489.503 384.849ZM487.811 380.687C487.422 380.727 487.102 380.661 486.852 380.487C486.607 380.307 486.459 380.045 486.407 379.7L486.687 379.671C486.738 379.903 486.859 380.079 487.049 380.2C487.245 380.32 487.487 380.365 487.775 380.335C488.063 380.305 488.288 380.212 488.45 380.055C488.617 379.897 488.702 379.7 488.704 379.462L488.984 379.433C489.004 379.782 488.91 380.069 488.701 380.296C488.498 380.516 488.201 380.647 487.811 380.687ZM491.543 380.836L492.383 380.749L496.242 384.743L495.793 380.397L496.498 380.324L497.076 385.927L496.66 385.97L492.322 381.491L492.826 386.366L492.121 386.439L491.543 380.836ZM502.938 385.403C502.132 385.486 501.481 385.394 500.984 385.127C500.487 384.86 500.185 384.439 500.077 383.862L500.797 383.787C500.885 384.275 501.099 384.619 501.438 384.822C501.782 385.018 502.263 385.084 502.882 385.02C503.432 384.963 503.841 384.824 504.109 384.602C504.383 384.38 504.501 384.09 504.464 383.732C504.442 383.519 504.368 383.346 504.241 383.213C504.114 383.081 503.909 382.973 503.625 382.889C503.346 382.804 502.959 382.739 502.464 382.693C501.675 382.624 501.07 382.492 500.651 382.298C500.237 382.098 500.007 381.782 499.963 381.349C499.913 380.869 500.1 380.486 500.524 380.199C500.946 379.908 501.523 379.724 502.255 379.648C502.996 379.572 503.586 379.646 504.025 379.87C504.468 380.089 504.746 380.429 504.859 380.892L504.146 380.966C504.026 380.585 503.807 380.321 503.49 380.176C503.179 380.03 502.761 379.984 502.238 380.038C501.731 380.091 501.353 380.214 501.103 380.407C500.859 380.599 500.752 380.842 500.782 381.135C500.8 381.312 500.866 381.456 500.98 381.568C501.094 381.68 501.282 381.774 501.543 381.85C501.81 381.925 502.183 381.986 502.663 382.033C503.251 382.091 503.726 382.172 504.087 382.275C504.454 382.377 504.737 382.531 504.936 382.737C505.135 382.938 505.252 383.209 505.287 383.55C505.339 384.052 505.152 384.468 504.728 384.797C504.308 385.121 503.712 385.323 502.938 385.403ZM512.522 378.669C512.561 379.042 512.471 379.373 512.252 379.66C512.039 379.946 511.732 380.153 511.33 380.281L511.516 382.082C511.596 382.861 511.452 383.48 511.085 383.938C510.716 384.392 510.068 384.666 509.139 384.762C508.211 384.858 507.517 384.722 507.058 384.354C506.604 383.981 506.337 383.404 506.257 382.625L505.918 379.351L506.751 379.265L507.108 382.723C507.17 383.321 507.358 383.762 507.674 384.048C507.989 384.334 508.464 384.444 509.099 384.378C509.724 384.314 510.161 384.112 510.412 383.773C510.668 383.434 510.765 382.96 510.702 382.352L510.345 378.894L511.177 378.808L511.3 379.993C511.509 379.874 511.663 379.699 511.763 379.467C511.869 379.235 511.908 378.991 511.882 378.735L512.522 378.669ZM519.083 377.902C519.118 378.244 519.044 378.551 518.862 378.823C518.685 379.09 518.426 379.297 518.085 379.445C518.33 379.83 518.481 380.3 518.538 380.855C518.601 381.463 518.535 381.999 518.34 382.461C518.145 382.918 517.832 383.285 517.402 383.561C516.977 383.837 516.45 384.007 515.821 384.072C515.191 384.137 514.637 384.079 514.16 383.896C513.683 383.713 513.302 383.418 513.017 383.011C512.731 382.598 512.557 382.087 512.495 381.479C512.433 380.881 512.5 380.357 512.696 379.905C512.891 379.448 513.204 379.084 513.635 378.813C514.065 378.542 514.595 378.374 515.225 378.309C515.812 378.248 516.332 378.294 516.785 378.447C517.243 378.599 517.617 378.852 517.907 379.205C518.104 379.077 518.247 378.9 518.337 378.675C518.433 378.45 518.468 378.214 518.442 377.969L519.083 377.902ZM515.781 383.688C516.475 383.616 516.988 383.342 517.322 382.865C517.656 382.389 517.781 381.748 517.698 380.942C517.616 380.152 517.364 379.563 516.941 379.175C516.523 378.782 515.964 378.621 515.265 378.693C514.566 378.765 514.049 379.034 513.714 379.5C513.379 379.967 513.253 380.597 513.335 381.392C513.418 382.198 513.672 382.8 514.096 383.199C514.52 383.597 515.082 383.76 515.781 383.688ZM519.286 377.97L520.126 377.884L523.985 381.878L523.536 377.531L524.241 377.459L524.819 383.062L524.403 383.105L520.065 378.626L520.569 383.501L519.865 383.574L519.286 377.97ZM528.963 382.715C528.312 382.782 527.743 382.728 527.255 382.552C526.767 382.37 526.378 382.076 526.088 381.669C525.798 381.262 525.622 380.76 525.56 380.162C525.499 379.564 525.565 379.037 525.761 378.58C525.956 378.123 526.269 377.756 526.699 377.48C527.128 377.198 527.655 377.025 528.28 376.961C529.037 376.882 529.676 376.984 530.196 377.264C530.721 377.539 531.063 377.959 531.224 378.525L530.504 378.6C530.359 378.14 530.101 377.803 529.728 377.588C529.354 377.367 528.893 377.286 528.343 377.342C527.655 377.413 527.139 377.691 526.795 378.174C526.451 378.652 526.319 379.283 526.4 380.067C526.482 380.862 526.743 381.458 527.183 381.855C527.628 382.246 528.211 382.404 528.931 382.33C529.268 382.295 529.571 382.229 529.841 382.131C530.111 382.027 530.363 381.885 530.598 381.705L530.41 379.888L528.449 380.09L528.412 379.73L531.206 379.441L531.436 381.675C531.147 381.958 530.791 382.189 530.367 382.368C529.949 382.546 529.481 382.661 528.963 382.715Z" fill="#4A3021"/>
<path d="M438.578 365.263C438.578 365.263 442.753 368.059 446.444 368.059C450.136 368.059 522.009 369.739 534.764 350.629" stroke="#4A3021" stroke-width="0.502958" stroke-miterlimit="10"/>
<path d="M77.7578 474.873C77.7578 474.873 99.1975 464.503 97.5643 445.272C96.7998 436.271 104.757 420.852 117.361 418.79C129.965 416.728 144.098 413.651 146.16 413.138C148.222 412.625 144.36 415.149 146.16 427.279C147.961 439.409 154.127 448.4 153.101 452.735C152.075 457.07 142.559 463.507 132.792 466.826C115.184 473.219 96.4586 475.957 77.7578 474.873Z" fill="white"/>
<path d="M284.884 431.937C284.884 431.937 301.461 444.801 309.75 450.463C318.039 456.126 321.529 458.751 333.52 457.443C345.511 456.136 344.645 457.443 344.867 452.646C345.088 447.848 341.597 444.147 334.616 445.887C327.635 447.627 323.27 444.801 324.799 443.05C326.328 441.3 343.338 438.253 346.607 436.945C349.876 435.638 356.857 430.186 356.203 429.311C355.55 428.436 344.424 431.937 342.251 431.062C340.079 430.186 341.155 425.61 351.184 426.264C361.213 426.918 384.118 428.446 388.916 431.937C393.714 435.427 405.715 450.252 409.416 454.607C413.118 458.962 424.032 460.28 432.754 465.51C441.475 470.74 457.62 476.121 464.158 474.853C470.697 473.586 475.505 470.307 477.235 467.481C478.966 464.655 481.601 450.111 478.764 450.614C475.928 451.117 459.571 451.117 458.485 447.848C457.399 444.579 448.889 440.435 441.686 436.513C434.484 432.59 429.696 424.735 408.752 424.081C387.809 423.428 388.041 422.774 381.492 421.466C374.944 420.159 360.116 415.794 352.703 416.226C345.289 416.659 343.549 406.42 352.492 409.467C361.434 412.515 384.057 415.361 382.448 413.179C380.838 410.996 379.098 404.891 372.55 404.016C366.001 403.141 354.443 399.218 348.347 401.622C342.251 404.026 346.335 407.295 341.587 407.506C336.84 407.717 330.462 411.217 326.971 407.949C323.481 404.68 311.702 403.362 308.654 408.602C305.606 413.842 305.374 417.976 299.711 421.024C294.048 424.071 281.524 429.342 284.884 431.937Z" fill="white"/>
<path d="M477.441 478.16C477.441 478.16 482.773 490.099 507.297 487.323C531.821 484.547 567.219 477.265 567.008 475.032C566.797 472.799 556.134 472.015 547.182 468.565C538.229 465.115 528.411 464.542 517.537 459.392C506.663 454.242 497.489 449.334 493.395 453.418C489.301 457.501 485.076 464.723 484.01 468.354C482.944 471.985 479.785 476.028 477.441 478.16Z" fill="white"/>
<path d="M367.51 452.933C375.362 453.753 383.278 453.753 391.129 452.933C402.416 451.495 406.117 453.748 403.854 455.8C401.591 457.852 399.951 458.264 403.039 460.728C406.127 463.192 416.79 466.27 413.712 468.774C410.634 471.279 396.259 477.605 389.691 483.559C383.122 489.514 380.859 497.932 373.667 497.117C366.474 496.303 349.846 492.803 343.278 488.488C336.709 484.173 330.754 476.579 334.446 472.476C338.138 468.372 361.354 454.985 367.51 452.933Z" fill="white"/>
<path d="M-3.38672 507.34V677.931H290.442C290.442 677.931 278.642 634.914 297.865 627.481C317.088 620.048 307.482 616.558 295.25 610.011C283.018 603.463 278.491 599.953 280.101 593.777C281.71 587.602 283.31 588.044 278.039 585.982C272.768 583.921 275.966 581.859 278.039 579.334C280.111 576.81 284.678 580.481 275.514 567.647C266.35 554.813 259.691 555.034 252.589 548.386C245.487 541.738 239.059 540.139 224.423 532.575C209.787 525.012 188.603 511.484 180.555 502.774C172.508 494.064 172.337 483.976 153.174 485.354C134.011 486.732 128.972 483.342 110.171 490.855C91.3707 498.369 89.7712 500.249 73.7268 500.028C57.6825 499.807 40.944 497.735 32.4843 500.712C24.0245 503.689 -3.38672 507.34 -3.38672 507.34Z" fill="white"/>
<path d="M157.348 474.802C157.348 474.802 165.757 472.911 174.851 480.354C183.944 487.797 190.02 484.76 189.738 489.728C189.457 494.697 187.535 495.763 194.979 502.129C202.423 508.496 213.448 512.6 225.579 519.228C237.71 525.856 246.804 528.28 250.667 533.309C254.529 538.338 265.826 539.092 267.475 542.361C269.125 545.63 276.026 545.67 280.16 555.587C284.294 565.504 281.81 570.754 289.535 584.262C297.261 597.77 295.048 596.663 306.636 602.446C318.224 608.23 324.28 607.133 325.929 604.931C327.579 602.728 334.983 593.867 340.545 593.354C341.923 590.87 343.855 588.939 350.464 583.709C357.072 578.479 370.673 562.225 369.988 560.364C369.304 558.504 364.717 557.126 369.988 551.805C375.259 546.485 392.119 522.637 408.123 522.637C424.127 522.637 442.123 524.719 449.295 525.655C456.467 526.59 480.981 521.26 480.981 519.188C480.981 517.116 474.272 511.785 458.771 507.39C443.27 502.994 423.393 501.838 417.84 498.599C412.287 495.361 407.66 492.826 408.787 490.744C409.913 488.662 424.519 496.517 427.758 494.898C430.997 493.279 442.093 487.515 441.841 485.192C441.59 482.869 434.206 484.971 427.044 485.192C419.882 485.413 408.767 481.722 401.604 486.58C394.442 491.438 385.017 503.035 376.004 505.107C366.991 507.179 359.809 509.271 348.019 501.637C336.23 494.003 325.255 489.155 319.17 484.538C313.084 479.922 294.595 478.986 286.729 470.196C278.862 461.405 272.857 452.162 261.52 448.461C250.184 444.76 223.587 439.208 220.791 436.653C217.994 434.098 190.03 425.318 188.873 424.161C187.716 423.004 207.603 426.243 222.169 431.101C236.735 435.959 236.976 438.041 243.917 439.429C250.858 440.817 249.952 438.272 247.156 433.646C244.36 429.019 243.917 426.474 245.305 425.78C246.693 425.086 245.074 426.937 230.498 420.46C215.922 413.983 191.649 402.889 175.917 408.672C160.184 414.455 155.104 420.691 158.575 430.638C162.045 440.586 172.748 462.31 157.348 474.802Z" fill="white"/>
<path d="M308.78 675.468C308.78 675.468 325.639 601.543 352.678 609.267C379.718 616.992 412.259 618.098 430.466 598.787C430.466 616.439 451.429 652.295 436.502 660.572C421.574 668.85 396.838 671.073 396.627 677.932H307.543L308.78 675.468Z" fill="white"/>
<path d="M441.881 675.506C441.881 675.506 455.622 652.001 446.619 631.996C437.616 611.991 445.231 605.997 449.637 592.992C454.043 579.987 456.89 572.947 454.465 566.761C452.041 560.576 473.306 533.651 488.113 538.77C488.113 538.77 465.601 555.456 477.4 569.718C482.198 562.456 487.58 555.185 486.504 551.413C485.427 547.641 494.843 539.846 508.574 535.27C522.304 530.694 577.761 505.096 585.566 489.004C588.795 484.981 599.376 491.709 608.802 489.004C618.227 486.298 665.767 454.495 667.648 449.918C667.648 449.918 670.152 438.857 682.233 438.857C688.39 438.857 687.858 423.588 706.709 433.555C725.56 443.522 748.957 450.171 752.75 451.961C756.542 453.751 749.511 455.622 747.358 466.655C745.205 477.689 741.705 499.766 744.934 531.026C748.163 562.285 758.403 620.128 764.318 642.195C770.233 664.262 786.931 678.001 774.276 678.001H440.664L441.881 675.506Z" fill="white"/>
<path d="M359.442 593.917C359.442 593.917 376.905 604.226 389.539 601.279C402.173 598.332 401.539 599.268 407.223 598.785C412.906 598.302 424.645 596.13 424.645 589.652C424.645 583.175 434.061 574.636 435.539 572.283C437.018 569.929 450.105 553.173 444.663 550.065C439.221 546.957 440.831 553.012 438.919 552.267C437.008 551.523 432.3 556.391 429.796 557.296C427.291 558.202 423.026 557.347 424.354 554.279C425.681 551.211 430.087 547.922 431.123 547.047C432.16 546.172 439.533 539.836 441.877 540.128C444.22 540.419 446.574 536.738 442.601 535.099C438.628 533.459 434.795 530.975 431.858 533.771C428.92 536.567 426.707 540.097 424.937 538.629C423.167 537.161 422.583 535.099 421.698 533.329C420.813 531.558 415.079 535.24 412.866 538.921C410.653 542.602 411.86 544.805 409.637 545.398C404.808 546.42 400.276 548.532 396.389 551.573C390.937 555.989 377.991 562.315 378.433 565.654C378.876 568.994 378.283 569.919 376.371 571.387C374.46 572.856 374.158 580.077 371.07 582.28C367.982 584.483 356.102 592.147 359.442 593.917Z" fill="white"/>
<path d="M451.316 676.271L457.191 623.396L502.377 564.84L567.007 529.798L599.015 517.648L624.143 499.816L630.128 481.581L647.943 470.93L651.092 478.141V487.746L677.225 544.996L686.349 574.767L681.48 582.069L699.718 640.203L709.847 648.31L717.341 677.93" fill="white"/>
<path d="M451.316 676.271L457.191 623.396L502.377 564.84L567.007 529.798L599.015 517.648L624.143 499.816L630.128 481.581L647.943 470.93L651.092 478.141V487.746L677.225 544.996L686.349 574.767L681.48 582.069L699.718 640.203L709.847 648.31L717.341 677.93" stroke="#4A3021" stroke-width="0.502958" stroke-miterlimit="10"/>
<path d="M654.018 677.93L641.695 627.862L556.182 407.063L550.243 361.972C550.137 361.163 549.706 360.431 549.051 359.944L425.274 267.966C424.874 267.669 424.752 267.125 424.986 266.685L442.242 234.359" stroke="#4A3021" stroke-width="3.01775" stroke-miterlimit="10"/>
<path d="M512.238 275.919L429.963 228.838L415.789 215.762L336.221 175.923L324.15 164.94L320.127 156.22C320.127 156.22 239.653 100.298 214.012 81.4801C188.372 62.6618 154.422 -2 154.422 -2" stroke="#4A3021" stroke-width="3.01775" stroke-miterlimit="10"/>
<path d="M596.971 445.154C596.596 444.27 596.54 443.493 596.803 442.822C597.066 442.151 597.629 441.632 598.493 441.265C599.338 440.907 600.089 440.864 600.748 441.139C601.408 441.418 601.925 441.997 602.298 442.876C602.602 443.592 602.699 444.239 602.589 444.816C602.478 445.393 602.172 445.838 601.669 446.15L601.386 445.484C601.775 445.219 602.019 444.874 602.118 444.448C602.221 444.019 602.168 443.558 601.959 443.064C601.686 442.422 601.279 442.012 600.737 441.834C600.197 441.661 599.559 441.73 598.824 442.043C598.073 442.361 597.569 442.779 597.31 443.297C597.057 443.812 597.068 444.394 597.342 445.041C597.552 445.534 597.844 445.891 598.217 446.112C598.59 446.332 599.009 446.393 599.475 446.295L599.758 446.961C599.184 447.106 598.651 447.017 598.159 446.696C597.667 446.374 597.271 445.861 596.971 445.154ZM601.392 451.615L600.125 448.63L598.491 448.528L598.27 448.009L604.675 448.473L604.844 448.873L600.664 453.646L600.311 452.817L601.392 451.615ZM601.676 451.294L603.861 448.862L600.556 448.656L601.676 451.294ZM606.798 448.49C606.839 448.327 606.873 448.208 606.899 448.132C606.932 448.06 606.974 448.013 607.023 447.992C607.078 447.969 607.128 447.971 607.174 447.998C607.226 448.023 607.265 448.067 607.292 448.132C607.334 448.23 607.316 448.352 607.237 448.496L606.704 449.588L606.597 449.336L606.798 448.49ZM606.208 447.7L606.429 448.218L605.685 449.618L605.531 449.255L605.97 448.107L604.839 447.625L604.685 447.262L606.208 447.7ZM601.699 456.291C601.334 455.431 601.26 454.728 601.477 454.182C601.7 453.638 602.173 453.213 602.894 452.907L605.924 451.621L606.251 452.392L603.051 453.75C602.497 453.985 602.131 454.295 601.95 454.68C601.77 455.065 601.805 455.552 602.054 456.14C602.3 456.717 602.621 457.076 603.019 457.217C603.418 457.362 603.899 457.315 604.462 457.076L607.663 455.718L607.99 456.488L604.96 457.774C604.239 458.08 603.605 458.124 603.058 457.908C602.517 457.689 602.063 457.15 601.699 456.291ZM584.398 441.129C584.023 440.245 583.967 439.468 584.23 438.797C584.493 438.126 585.057 437.607 585.921 437.24C586.765 436.881 587.517 436.839 588.175 437.114C588.836 437.393 589.353 437.972 589.726 438.851C590.03 439.567 590.127 440.214 590.016 440.791C589.906 441.368 589.599 441.813 589.096 442.125L588.813 441.459C589.202 441.194 589.446 440.849 589.545 440.423C589.649 439.994 589.596 439.533 589.386 439.039C589.113 438.397 588.706 437.987 588.164 437.809C587.625 437.636 586.987 437.705 586.251 438.018C585.5 438.336 584.996 438.754 584.738 439.272C584.484 439.787 584.495 440.369 584.77 441.015C584.979 441.509 585.271 441.866 585.644 442.087C586.018 442.307 586.437 442.368 586.902 442.27L587.185 442.936C586.611 443.081 586.078 442.992 585.586 442.671C585.094 442.349 584.698 441.836 584.398 441.129ZM593.682 448.376C593.336 448.523 592.994 448.534 592.656 448.409C592.32 448.29 592.031 448.057 591.791 447.71L590.124 448.417C589.403 448.723 588.769 448.768 588.223 448.551C587.681 448.332 587.228 447.793 586.863 446.934C586.498 446.075 586.424 445.372 586.641 444.825C586.865 444.282 587.337 443.857 588.058 443.551L591.088 442.265L591.415 443.035L588.215 444.393C587.661 444.628 587.295 444.938 587.115 445.324C586.934 445.709 586.969 446.196 587.218 446.783C587.464 447.361 587.785 447.72 588.183 447.86C588.582 448.005 589.064 447.958 589.627 447.719L592.827 446.361L593.154 447.132L592.057 447.597C592.232 447.762 592.445 447.858 592.696 447.885C592.949 447.918 593.193 447.884 593.431 447.783L593.682 448.376ZM592.55 444.267C592.601 444.222 592.641 444.193 592.67 444.181C592.774 444.137 592.871 444.131 592.96 444.163C593.056 444.198 593.166 444.256 593.288 444.338C593.41 444.42 593.516 444.477 593.606 444.509C593.695 444.542 593.791 444.536 593.895 444.491C593.989 444.452 594.046 444.387 594.066 444.297C594.093 444.209 594.081 444.106 594.031 443.988C593.981 443.869 593.91 443.786 593.82 443.737C593.736 443.691 593.638 443.68 593.526 443.704L593.369 443.334C593.556 443.266 593.736 443.28 593.911 443.375C594.087 443.475 594.225 443.641 594.323 443.873C594.42 444.1 594.444 444.308 594.396 444.497C594.348 444.687 594.235 444.819 594.058 444.895C593.914 444.955 593.785 444.967 593.67 444.928C593.561 444.893 593.44 444.827 593.307 444.732C593.203 444.666 593.116 444.618 593.045 444.59C592.982 444.564 592.916 444.566 592.847 444.596C592.797 444.617 592.757 444.645 592.726 444.682L592.55 444.267ZM591.163 453.109L589.896 450.124L588.261 450.022L588.041 449.504L594.445 449.968L594.615 450.368L590.434 455.141L590.082 454.311L591.163 453.109ZM591.446 452.788L593.631 450.357L590.327 450.151L591.446 452.788ZM597.575 457.547C597.986 458.515 598.086 459.341 597.875 460.025C597.665 460.708 597.149 461.224 596.329 461.572C595.475 461.935 594.705 461.962 594.02 461.652C593.342 461.345 592.805 460.725 592.409 459.792L591.535 457.733L594.112 456.639L593.87 456.068L594.196 455.93L594.438 456.5L596.72 455.532L597.575 457.547ZM592.808 459.745C593.087 460.402 593.501 460.82 594.05 461.001C594.601 461.187 595.252 461.121 596.002 460.802C596.709 460.502 597.169 460.103 597.382 459.604C597.601 459.104 597.568 458.517 597.283 457.846L596.691 456.453L594.765 457.271L595.432 458.841L595.106 458.979L594.44 457.409L592.217 458.352L592.808 459.745ZM596.847 466.499L595.58 463.514L593.946 463.412L593.725 462.893L600.13 463.358L600.299 463.758L596.119 468.531L595.766 467.701L596.847 466.499ZM597.131 466.178L599.316 463.747L596.011 463.541L597.131 466.178ZM593.835 466.178C593.786 466.064 593.784 465.955 593.826 465.849C593.866 465.751 593.94 465.678 594.049 465.632C594.158 465.586 594.261 465.583 594.36 465.623C594.46 465.668 594.535 465.747 594.583 465.86C594.631 465.974 594.635 466.08 594.595 466.178C594.558 466.282 594.485 466.357 594.376 466.403C594.267 466.449 594.163 466.449 594.062 466.405C593.959 466.367 593.883 466.291 593.835 466.178ZM601.695 467.25L602.022 468.021L596.836 470.222L596.509 469.451L601.695 467.25Z" fill="#4A3021"/>
<path d="M630.806 561.705C631.163 562.694 631.217 563.524 630.968 564.195C630.72 564.867 630.177 565.353 629.339 565.655C628.466 565.97 627.696 565.954 627.029 565.607C626.369 565.263 625.867 564.614 625.523 563.66L624.764 561.556L627.399 560.606L627.189 560.023L627.522 559.903L627.732 560.486L630.064 559.646L630.806 561.705ZM625.925 563.635C626.167 564.306 626.557 564.748 627.095 564.959C627.635 565.175 628.288 565.144 629.055 564.868C629.777 564.608 630.258 564.235 630.499 563.749C630.746 563.261 630.745 562.674 630.497 561.987L629.984 560.564L628.016 561.273L628.595 562.878L628.261 562.998L627.683 561.393L625.412 562.212L625.925 563.635ZM634.504 571.961C634.15 572.088 633.808 572.08 633.477 571.937C633.148 571.799 632.873 571.55 632.652 571.191L630.949 571.805C630.212 572.07 629.576 572.08 629.043 571.833C628.514 571.585 628.091 571.021 627.775 570.143C627.458 569.265 627.423 568.559 627.67 568.025C627.923 567.495 628.419 567.097 629.156 566.831L632.252 565.715L632.536 566.502L629.265 567.681C628.7 567.885 628.317 568.174 628.115 568.549C627.914 568.924 627.922 569.411 628.138 570.012C628.351 570.603 628.652 570.979 629.041 571.141C629.432 571.308 629.915 571.288 630.491 571.08L633.761 569.902L634.045 570.689L632.925 571.093C633.09 571.267 633.297 571.375 633.546 571.416C633.796 571.463 634.043 571.442 634.285 571.355L634.504 571.961ZM636.827 578.144C636.504 578.26 636.188 578.263 635.88 578.151C635.578 578.043 635.315 577.842 635.089 577.547C634.774 577.877 634.355 578.136 633.83 578.326C633.254 578.533 632.719 578.598 632.223 578.52C631.732 578.44 631.301 578.225 630.929 577.874C630.56 577.528 630.267 577.058 630.053 576.462C629.838 575.866 629.762 575.315 629.824 574.808C629.887 574.301 630.081 573.86 630.408 573.485C630.74 573.109 631.194 572.817 631.769 572.61C632.334 572.406 632.86 572.345 633.346 572.427C633.836 572.507 634.265 572.723 634.632 573.075C634.998 573.428 635.289 573.902 635.504 574.497C635.704 575.053 635.784 575.568 635.745 576.044C635.707 576.526 635.552 576.949 635.279 577.316C635.451 577.476 635.657 577.573 635.897 577.606C636.139 577.644 636.376 577.622 636.608 577.538L636.827 578.144ZM630.416 576.331C630.653 576.987 631.042 577.42 631.585 577.629C632.128 577.838 632.781 577.805 633.543 577.531C634.29 577.262 634.801 576.875 635.075 576.371C635.357 575.87 635.378 575.29 635.14 574.628C634.902 573.967 634.516 573.53 633.983 573.318C633.45 573.105 632.808 573.134 632.056 573.405C631.294 573.679 630.77 574.071 630.486 574.578C630.201 575.086 630.178 575.67 630.416 576.331ZM636.293 572.725C636.355 572.485 636.439 572.347 636.545 572.309C636.601 572.289 636.653 572.292 636.703 572.32C636.76 572.351 636.802 572.404 636.829 572.48C636.884 572.631 636.866 572.789 636.777 572.952L635.996 574.44L635.9 574.175L636.293 572.725ZM636.809 578.357L637.096 579.152L634.148 583.859L638.259 582.377L638.499 583.043L633.199 584.953L633.057 584.56L636.361 579.272L631.75 580.933L631.51 580.267L636.809 578.357ZM634.533 588.891C634.311 588.276 634.227 587.71 634.281 587.195C634.34 586.677 634.532 586.229 634.857 585.849C635.182 585.47 635.627 585.178 636.192 584.975C636.758 584.771 637.286 584.709 637.776 584.789C638.267 584.868 638.698 585.084 639.07 585.434C639.447 585.783 639.741 586.253 639.954 586.844C640.213 587.56 640.268 588.205 640.121 588.777C639.98 589.352 639.655 589.786 639.144 590.078L638.899 589.397C639.31 589.146 639.575 588.814 639.694 588.4C639.818 587.985 639.786 587.517 639.599 586.997C639.364 586.346 638.971 585.912 638.419 585.695C637.873 585.475 637.228 585.499 636.487 585.767C635.734 586.038 635.219 586.435 634.94 586.957C634.667 587.483 634.654 588.087 634.9 588.768C635.014 589.086 635.152 589.364 635.312 589.603C635.477 589.84 635.676 590.051 635.908 590.235L637.626 589.616L636.957 587.761L637.298 587.638L638.251 590.28L636.138 591.042C635.794 590.829 635.484 590.539 635.208 590.171C634.935 589.807 634.71 589.381 634.533 588.891ZM641.446 594.874L640.95 593.496L641.245 593.39C641.39 593.76 641.583 594.052 641.826 594.267C642.074 594.48 642.356 594.598 642.672 594.621L642.891 595.226L637.591 597.136L637.313 596.364L641.446 594.874ZM638.433 599.47C638.821 599.376 639.23 599.428 639.661 599.626C640.092 599.825 640.598 600.192 641.179 600.73C641.535 601.052 641.842 601.295 642.101 601.459C642.359 601.622 642.597 601.721 642.815 601.757C643.039 601.79 643.266 601.765 643.498 601.682C643.902 601.536 644.166 601.304 644.291 600.986C644.421 600.665 644.404 600.278 644.24 599.824C644.071 599.354 643.818 599.026 643.483 598.839C643.154 598.655 642.784 598.632 642.371 598.769L642.126 598.088C642.662 597.963 643.152 598.048 643.596 598.345C644.039 598.641 644.374 599.105 644.602 599.736C644.757 600.165 644.826 600.564 644.812 600.935C644.799 601.31 644.704 601.632 644.527 601.901C644.35 602.17 644.105 602.361 643.793 602.474C643.535 602.567 643.275 602.589 643.013 602.541C642.755 602.491 642.465 602.359 642.143 602.145C641.822 601.935 641.433 601.622 640.974 601.206C640.662 600.925 640.402 600.71 640.195 600.563C639.99 600.42 639.802 600.325 639.631 600.279C639.467 600.235 639.294 600.229 639.111 600.261L640.394 603.819L640.045 603.944L638.433 599.47ZM646.483 604.954C646.765 605.737 646.755 606.427 646.452 607.027C646.154 607.625 645.589 608.074 644.756 608.374C644.176 608.583 643.634 608.661 643.13 608.609C642.631 608.555 642.2 608.377 641.834 608.075C641.469 607.774 641.191 607.36 641.002 606.835C640.877 606.487 640.816 606.144 640.819 605.806C640.825 605.474 640.891 605.173 641.017 604.906C641.149 604.641 641.336 604.431 641.577 604.276L641.819 604.95C641.536 605.177 641.353 605.443 641.269 605.747C641.186 606.056 641.208 606.385 641.333 606.733C641.461 607.087 641.666 607.363 641.949 607.564C642.232 607.764 642.568 607.874 642.957 607.893C643.348 607.917 643.768 607.849 644.218 607.687L644.286 607.662C643.96 607.597 643.66 607.429 643.385 607.157C643.115 606.884 642.908 606.545 642.762 606.141C642.606 605.707 642.542 605.3 642.57 604.919C642.6 604.543 642.716 604.216 642.918 603.938C643.126 603.663 643.41 603.461 643.768 603.332C644.137 603.199 644.497 603.178 644.849 603.268C645.205 603.356 645.525 603.546 645.807 603.838C646.094 604.128 646.319 604.5 646.483 604.954ZM643.144 606.158C643.31 606.617 643.577 606.931 643.946 607.1C644.315 607.27 644.732 607.271 645.196 607.103C645.661 606.936 645.978 606.67 646.149 606.306C646.32 605.942 646.323 605.531 646.158 605.072C645.992 604.612 645.724 604.296 645.353 604.121C644.987 603.945 644.575 603.94 644.115 604.105C643.656 604.271 643.337 604.54 643.158 604.912C642.985 605.288 642.981 605.703 643.144 606.158Z" fill="#4A3021"/>
<path d="M191.852 236.906H188.327V236.218H197.151V236.906H193.627V244.668H191.852V236.906ZM198.118 236.218H199.905V239.791H204.697V236.218H206.483V244.668H204.697V240.479H199.905V244.668H198.118V236.218ZM214.268 242.507H209.777L208.727 244.668H207.496L211.89 236.098H212.976L217.117 244.668H215.282L214.268 242.507ZM213.942 241.819L212.071 237.824L210.115 241.819H213.942ZM210.212 234.07C209.882 233.852 209.717 233.651 209.717 233.466C209.717 233.353 209.761 233.265 209.85 233.201C209.938 233.136 210.055 233.104 210.2 233.104C210.361 233.104 210.506 233.132 210.634 233.188C210.763 233.245 210.884 233.337 210.997 233.466L212.65 235.373H212.071L210.212 234.07ZM218.146 236.218H219.909L224.508 242.205V236.218H226.149V244.668H225.015L219.788 237.787V244.668H218.146V236.218ZM227.895 236.218H229.681V239.791H234.474V236.218H236.26V244.668H234.474V240.479H229.681V244.668H227.895V236.218ZM241.404 236.218H244.832C246.063 236.218 247.013 236.423 247.681 236.834C248.357 237.236 248.695 237.9 248.695 238.826C248.695 239.743 248.365 240.407 247.705 240.817C247.045 241.228 246.087 241.433 244.832 241.433H243.19V244.668H241.404V236.218ZM244.856 240.733C245.54 240.733 246.055 240.592 246.401 240.31C246.747 240.029 246.92 239.534 246.92 238.826C246.92 238.134 246.747 237.643 246.401 237.353C246.063 237.055 245.548 236.906 244.856 236.906H243.19V240.733H244.856ZM249.833 236.218H251.619V239.791H256.411V236.218H258.198V244.668H256.411V240.479H251.619V244.668H249.833V236.218ZM264.497 244.789C263.508 244.789 262.651 244.616 261.926 244.27C261.21 243.924 260.663 243.425 260.285 242.773C259.906 242.113 259.717 241.324 259.717 240.407C259.717 239.506 259.906 238.733 260.285 238.089C260.671 237.445 261.222 236.955 261.938 236.617C262.655 236.271 263.508 236.098 264.497 236.098C265.479 236.098 266.324 236.271 267.032 236.617C267.749 236.955 268.296 237.445 268.674 238.089C269.06 238.733 269.253 239.506 269.253 240.407C269.253 241.324 269.064 242.113 268.686 242.773C268.308 243.425 267.761 243.924 267.044 244.27C266.328 244.616 265.479 244.789 264.497 244.789ZM264.497 244.101C265.447 244.101 266.175 243.787 266.682 243.159C267.189 242.523 267.443 241.606 267.443 240.407C267.443 239.232 267.189 238.335 266.682 237.715C266.175 237.095 265.447 236.786 264.497 236.786C263.54 236.786 262.804 237.099 262.288 237.727C261.781 238.347 261.528 239.24 261.528 240.407C261.528 241.606 261.781 242.523 262.288 243.159C262.795 243.787 263.532 244.101 264.497 244.101ZM266.779 232.44C266.932 232.247 267.117 232.15 267.334 232.15C267.463 232.15 267.564 232.179 267.636 232.235C267.716 232.291 267.757 232.368 267.757 232.464C267.757 232.545 267.704 232.641 267.6 232.754C267.503 232.859 267.338 233.003 267.105 233.188L266.26 233.84H265.717L266.779 232.44ZM263.978 233.43H265.017L266.622 235.373H265.765L264.497 234.178L263.23 235.373H262.373L263.978 233.43ZM205.721 252.218H207.508V255.791H212.3V252.218H214.087V260.668H212.3V256.479H207.508V260.668H205.721V252.218ZM220.386 260.789C219.397 260.789 218.54 260.616 217.815 260.27C217.099 259.924 216.552 259.425 216.174 258.773C215.795 258.113 215.606 257.324 215.606 256.407C215.606 255.506 215.795 254.733 216.174 254.089C216.56 253.445 217.111 252.955 217.827 252.617C218.544 252.271 219.397 252.098 220.386 252.098C221.368 252.098 222.213 252.271 222.921 252.617C223.638 252.955 224.185 253.445 224.563 254.089C224.949 254.733 225.142 255.506 225.142 256.407C225.142 257.324 224.953 258.113 224.575 258.773C224.197 259.425 223.65 259.924 222.933 260.27C222.217 260.616 221.368 260.789 220.386 260.789ZM220.386 260.101C221.336 260.101 222.064 259.787 222.571 259.159C223.078 258.523 223.332 257.606 223.332 256.407C223.332 255.232 223.078 254.335 222.571 253.715C222.064 253.095 221.336 252.786 220.386 252.786C219.429 252.786 218.692 253.099 218.177 253.727C217.67 254.347 217.417 255.24 217.417 256.407C217.417 257.606 217.67 258.523 218.177 259.159C218.684 259.787 219.421 260.101 220.386 260.101ZM220.386 262.648C220.161 262.648 219.976 262.579 219.831 262.442C219.686 262.306 219.614 262.129 219.614 261.911C219.614 261.702 219.686 261.525 219.831 261.38C219.976 261.243 220.161 261.175 220.386 261.175C220.612 261.175 220.797 261.243 220.942 261.38C221.087 261.525 221.159 261.702 221.159 261.911C221.159 262.129 221.087 262.306 220.942 262.442C220.797 262.579 220.612 262.648 220.386 262.648ZM219.867 249.43H220.905L222.511 251.373H221.654L220.386 250.178L219.119 251.373H218.262L219.867 249.43ZM227.127 252.218H228.914V260.668H227.127V252.218ZM240.555 258.507H236.065L235.015 260.668H233.783L238.177 252.098H239.264L243.404 260.668H241.569L240.555 258.507ZM240.229 257.819L238.358 253.824L236.403 257.819H240.229ZM244.434 252.218H246.196L250.795 258.205V252.218H252.437V260.668H251.302L246.075 253.787V260.668H244.434V252.218Z" fill="#4A3021"/>
<path d="M184.209 145.2C183.249 145.2 182.511 144.947 181.996 144.443C181.481 143.939 181.224 143.217 181.224 142.278C181.224 141.361 181.479 140.653 181.988 140.154C182.503 139.655 183.238 139.406 184.193 139.406C184.971 139.406 185.604 139.569 186.092 139.896C186.581 140.224 186.87 140.68 186.962 141.264H186.237C186.146 140.803 185.923 140.444 185.569 140.186C185.215 139.923 184.77 139.792 184.234 139.792C183.536 139.792 183 140.006 182.624 140.436C182.254 140.865 182.069 141.479 182.069 142.278C182.069 143.094 182.257 143.722 182.632 144.162C183.008 144.596 183.547 144.813 184.25 144.813C184.786 144.813 185.229 144.685 185.577 144.427C185.926 144.17 186.146 143.807 186.237 143.341H186.962C186.87 143.925 186.581 144.381 186.092 144.709C185.604 145.036 184.977 145.2 184.209 145.2ZM191.884 143.655H188.641L187.908 145.119H187.345L190.274 139.406H190.709L193.469 145.119H192.568L191.884 143.655ZM191.699 143.268L190.314 140.307L188.834 143.268H191.699ZM191.216 137.756C191.205 137.713 191.2 137.678 191.2 137.651C191.2 137.571 191.218 137.506 191.256 137.458C191.299 137.41 191.363 137.356 191.449 137.297C191.53 137.243 191.591 137.19 191.634 137.136C191.677 137.083 191.699 137.018 191.699 136.943C191.699 136.879 191.677 136.825 191.634 136.782C191.591 136.739 191.524 136.718 191.433 136.718C191.336 136.718 191.264 136.742 191.216 136.79C191.173 136.838 191.149 136.895 191.143 136.959H190.829C190.829 136.82 190.888 136.71 191.007 136.629C191.125 136.549 191.275 136.508 191.457 136.508C191.64 136.508 191.784 136.549 191.892 136.629C191.999 136.71 192.053 136.82 192.053 136.959C192.053 137.061 192.029 137.142 191.98 137.201C191.932 137.254 191.86 137.316 191.763 137.386C191.693 137.429 191.64 137.471 191.602 137.514C191.57 137.552 191.554 137.598 191.554 137.651C191.554 137.689 191.562 137.724 191.578 137.756H191.216ZM190.162 137.691H190.725L191.723 138.923H191.328L190.443 138.07L189.558 138.923H189.164L190.162 137.691ZM200.408 139.486V145.119H199.571V140.387L197.382 145.119H196.988L194.638 140.323V145.119H194.139V139.486H195.097L197.342 144.121L199.491 139.486H200.408ZM203.743 139.486H204.58V141.908H208.193V139.486H209.03V145.119H208.193V142.286H204.58V145.119H203.743V139.486ZM214.234 143.655H210.991L210.259 145.119H209.695L212.624 139.406H213.059L215.819 145.119H214.918L214.234 143.655ZM214.049 143.268L212.665 140.307L211.184 143.268H214.049ZM211.409 138.062C211.205 137.922 211.103 137.796 211.103 137.683C211.103 137.624 211.125 137.576 211.168 137.539C211.216 137.496 211.281 137.474 211.361 137.474C211.522 137.474 211.664 137.544 211.788 137.683L212.922 138.923H212.641L211.409 138.062Z" fill="#4A3021"/>
<path d="M259.655 508.288C258.694 508.288 257.957 508.035 257.442 507.531C256.927 507.027 256.669 506.305 256.669 505.366C256.669 504.449 256.924 503.741 257.434 503.242C257.949 502.743 258.684 502.493 259.639 502.493C260.417 502.493 261.05 502.657 261.538 502.984C262.026 503.312 262.316 503.768 262.407 504.352H261.683C261.591 503.891 261.369 503.532 261.015 503.274C260.661 503.011 260.215 502.88 259.679 502.88C258.981 502.88 258.445 503.094 258.069 503.523C257.699 503.953 257.514 504.567 257.514 505.366C257.514 506.182 257.702 506.809 258.077 507.249C258.453 507.684 258.992 507.901 259.695 507.901C260.231 507.901 260.674 507.772 261.023 507.515C261.371 507.257 261.591 506.895 261.683 506.429H262.407C262.316 507.013 262.026 507.469 261.538 507.797C261.05 508.124 260.422 508.288 259.655 508.288ZM267.329 506.742H264.086L263.354 508.207H262.79L265.72 502.493H266.154L268.914 508.207H268.013L267.329 506.742ZM267.144 506.356L265.76 503.395L264.279 506.356H267.144ZM266.661 500.844C266.65 500.801 266.645 500.766 266.645 500.739C266.645 500.659 266.664 500.594 266.701 500.546C266.744 500.498 266.809 500.444 266.894 500.385C266.975 500.331 267.037 500.278 267.08 500.224C267.122 500.17 267.144 500.106 267.144 500.031C267.144 499.967 267.122 499.913 267.08 499.87C267.037 499.827 266.97 499.806 266.878 499.806C266.782 499.806 266.709 499.83 266.661 499.878C266.618 499.926 266.594 499.983 266.589 500.047H266.275C266.275 499.908 266.334 499.798 266.452 499.717C266.57 499.637 266.72 499.596 266.902 499.596C267.085 499.596 267.23 499.637 267.337 499.717C267.444 499.798 267.498 499.908 267.498 500.047C267.498 500.149 267.474 500.229 267.426 500.288C267.377 500.342 267.305 500.404 267.208 500.474C267.139 500.516 267.085 500.559 267.047 500.602C267.015 500.64 266.999 500.685 266.999 500.739C266.999 500.777 267.007 500.812 267.023 500.844H266.661ZM265.607 500.779H266.17L267.168 502.011H266.774L265.889 501.158L265.003 502.011H264.609L265.607 500.779ZM275.854 502.574V508.207H275.017V503.475L272.828 508.207H272.433L270.084 503.411V508.207H269.585V502.574H270.542L272.787 507.209L274.936 502.574H275.854ZM281.023 505.439L280.025 506.437V508.207H279.188V502.574H280.025V505.688L283.171 502.574H283.896L281.586 504.875L284.145 508.207H283.155L281.023 505.439ZM285.192 502.574H286.029V508.207H285.192V502.574ZM293.819 502.574V508.207H292.982V503.475L290.793 508.207H290.398L288.049 503.411V508.207H287.55V502.574H288.507L290.753 507.209L292.901 502.574H293.819Z" fill="#4A3021"/>
<path d="M96.8926 591.086H99.0815C100.133 591.086 100.932 591.316 101.48 591.778C102.027 592.239 102.3 592.915 102.3 593.806C102.3 594.734 102.024 595.453 101.472 595.962C100.924 596.467 100.144 596.719 99.1298 596.719H96.8926V591.086ZM99.2424 596.332C99.956 596.332 100.503 596.115 100.884 595.681C101.27 595.246 101.463 594.621 101.463 593.806C101.463 593.038 101.276 592.459 100.9 592.067C100.525 591.67 99.9721 591.472 99.2424 591.472H97.7295V596.332H99.2424ZM105.992 596.799C105.059 596.799 104.383 596.593 103.964 596.18C103.551 595.761 103.344 595.16 103.344 594.377V591.086H104.181V594.562C104.181 595.163 104.324 595.622 104.608 595.938C104.892 596.255 105.354 596.413 105.992 596.413C106.62 596.413 107.076 596.257 107.36 595.946C107.65 595.635 107.795 595.174 107.795 594.562V591.086H108.632V594.377C108.632 595.16 108.425 595.761 108.012 596.18C107.599 596.593 106.926 596.799 105.992 596.799ZM111.671 594.272L109.257 591.086H110.166L112.218 593.781L114.431 591.086H115.019L112.508 594.152V596.719H111.671V594.272ZM117.781 591.086H119.913C120.686 591.086 121.284 591.228 121.708 591.512C122.132 591.796 122.344 592.231 122.344 592.816C122.344 593.395 122.135 593.827 121.716 594.111C121.298 594.396 120.697 594.538 119.913 594.538H118.618V596.719H117.781V591.086ZM119.93 594.152C120.981 594.152 121.507 593.706 121.507 592.816C121.507 591.92 120.981 591.472 119.93 591.472H118.618V594.152H119.93ZM123.125 591.086H123.962V593.508H127.575V591.086H128.412V596.719H127.575V593.886H123.962V596.719H123.125V591.086ZM136.239 591.086C136.239 591.461 136.116 591.78 135.869 592.043C135.628 592.306 135.301 592.48 134.888 592.566V594.377C134.888 595.16 134.681 595.761 134.268 596.18C133.855 596.593 133.182 596.799 132.248 596.799C131.315 596.799 130.639 596.593 130.22 596.18C129.807 595.761 129.6 595.16 129.6 594.377V591.086H130.437V594.562C130.437 595.163 130.58 595.622 130.864 595.938C131.148 596.255 131.61 596.413 132.248 596.413C132.876 596.413 133.332 596.257 133.616 595.946C133.906 595.635 134.051 595.174 134.051 594.562V591.086H134.888V592.277C135.108 592.18 135.279 592.022 135.403 591.802C135.531 591.582 135.596 591.343 135.596 591.086H136.239ZM142.844 590.997C142.844 591.34 142.739 591.638 142.53 591.89C142.326 592.137 142.047 592.317 141.693 592.43C141.897 592.837 141.999 593.32 141.999 593.878C141.999 594.49 141.878 595.015 141.637 595.455C141.395 595.89 141.047 596.222 140.591 596.453C140.14 596.684 139.598 596.799 138.965 596.799C138.332 596.799 137.787 596.684 137.331 596.453C136.875 596.222 136.527 595.89 136.285 595.455C136.044 595.015 135.923 594.49 135.923 593.878C135.923 593.277 136.044 592.762 136.285 592.333C136.527 591.898 136.875 591.568 137.331 591.343C137.787 591.118 138.332 591.005 138.965 591.005C139.555 591.005 140.068 591.104 140.502 591.303C140.942 591.501 141.288 591.791 141.54 592.172C141.749 592.065 141.91 591.904 142.023 591.689C142.141 591.475 142.2 591.244 142.2 590.997H142.844ZM138.965 596.413C139.662 596.413 140.202 596.193 140.583 595.753C140.963 595.313 141.154 594.688 141.154 593.878C141.154 593.084 140.963 592.472 140.583 592.043C140.207 591.609 139.668 591.391 138.965 591.391C138.262 591.391 137.72 591.606 137.339 592.035C136.959 592.464 136.768 593.079 136.768 593.878C136.768 594.688 136.959 595.313 137.339 595.753C137.72 596.193 138.262 596.413 138.965 596.413ZM139.955 589.283C140.078 589.144 140.22 589.074 140.381 589.074C140.462 589.074 140.524 589.095 140.566 589.138C140.615 589.176 140.639 589.224 140.639 589.283C140.639 589.396 140.537 589.522 140.333 589.661L139.102 590.522H138.82L139.955 589.283ZM145.872 596.799C144.911 596.799 144.174 596.547 143.659 596.043C143.143 595.538 142.886 594.817 142.886 593.878C142.886 592.961 143.141 592.252 143.65 591.754C144.165 591.255 144.9 591.005 145.855 591.005C146.633 591.005 147.266 591.169 147.755 591.496C148.243 591.823 148.533 592.279 148.624 592.864H147.899C147.808 592.403 147.586 592.043 147.232 591.786C146.877 591.523 146.432 591.391 145.896 591.391C145.198 591.391 144.662 591.606 144.286 592.035C143.916 592.464 143.731 593.079 143.731 593.878C143.731 594.694 143.919 595.321 144.294 595.761C144.67 596.196 145.209 596.413 145.912 596.413C146.448 596.413 146.891 596.284 147.24 596.027C147.588 595.769 147.808 595.407 147.899 594.94H148.624C148.533 595.525 148.243 595.981 147.755 596.308C147.266 596.636 146.639 596.799 145.872 596.799Z" fill="#4A3021"/>
<path d="M526.416 621.257H528.605C529.656 621.257 530.456 621.488 531.003 621.95C531.55 622.411 531.824 623.087 531.824 623.977C531.824 624.906 531.548 625.625 530.995 626.134C530.448 626.638 529.667 626.891 528.653 626.891H526.416V621.257ZM528.766 626.504C529.479 626.504 530.027 626.287 530.408 625.853C530.794 625.418 530.987 624.793 530.987 623.977C530.987 623.21 530.799 622.631 530.424 622.239C530.048 621.842 529.495 621.644 528.766 621.644H527.253V626.504H528.766ZM535.515 626.971C534.582 626.971 533.906 626.765 533.488 626.351C533.074 625.933 532.868 625.332 532.868 624.549V621.257H533.705V624.734C533.705 625.335 533.847 625.794 534.131 626.11C534.416 626.427 534.877 626.585 535.515 626.585C536.143 626.585 536.599 626.429 536.883 626.118C537.173 625.807 537.318 625.346 537.318 624.734V621.257H538.155V624.549C538.155 625.332 537.948 625.933 537.535 626.351C537.122 626.765 536.449 626.971 535.515 626.971ZM541.194 624.444L538.78 621.257H539.69L541.742 623.953L543.955 621.257H544.542L542.031 624.324V626.891H541.194V624.444ZM547.304 621.257H548.149L551.577 625.627V621.257H552.286V626.891H551.867L548.013 621.99V626.891H547.304V621.257ZM556.443 626.971C555.788 626.971 555.228 626.858 554.761 626.633C554.294 626.402 553.938 626.07 553.691 625.635C553.444 625.201 553.321 624.683 553.321 624.082C553.321 623.481 553.441 622.964 553.683 622.529C553.924 622.094 554.273 621.762 554.729 621.531C555.185 621.295 555.727 621.177 556.354 621.177C557.116 621.177 557.741 621.343 558.229 621.676C558.723 622.003 559.021 622.457 559.123 623.036H558.398C558.302 622.564 558.079 622.202 557.73 621.95C557.382 621.692 556.931 621.563 556.379 621.563C555.686 621.563 555.145 621.786 554.753 622.231C554.361 622.671 554.166 623.285 554.166 624.074C554.166 624.873 554.364 625.493 554.761 625.933C555.163 626.368 555.727 626.585 556.451 626.585C556.789 626.585 557.097 626.55 557.376 626.48C557.655 626.405 557.921 626.29 558.173 626.134V624.307H556.202V623.945H559.01V626.191C558.693 626.443 558.315 626.636 557.875 626.77C557.441 626.904 556.963 626.971 556.443 626.971ZM560.161 621.257H560.998V623.68H564.611V621.257H565.448V626.891H564.611V624.058H560.998V626.891H560.161V621.257ZM566.967 621.257H567.804V626.891H566.967V621.257ZM565.985 620.694C565.985 620.426 566.06 620.209 566.21 620.042C566.366 619.876 566.567 619.793 566.814 619.793C566.964 619.793 567.096 619.822 567.208 619.881C567.326 619.935 567.45 620.013 567.578 620.115C567.67 620.19 567.753 620.249 567.828 620.292C567.903 620.335 567.978 620.356 568.053 620.356C568.193 620.356 568.311 620.305 568.407 620.203C568.509 620.096 568.566 619.959 568.576 619.793H568.785C568.785 620.056 568.708 620.273 568.552 620.445C568.402 620.611 568.206 620.694 567.965 620.694C567.809 620.694 567.678 620.67 567.57 620.622C567.468 620.568 567.356 620.493 567.232 620.396C567.146 620.327 567.071 620.276 567.007 620.244C566.943 620.206 566.868 620.187 566.782 620.187C566.615 620.187 566.479 620.235 566.371 620.332C566.264 620.423 566.208 620.544 566.202 620.694H565.985ZM573.34 625.426H570.097L569.365 626.891H568.801L571.731 621.177H572.165L574.925 626.891H574.024L573.34 625.426ZM573.155 625.04L571.771 622.078L570.29 625.04H573.155Z" fill="#4A3021"/>
<path d="M688.369 500.562H690.558C691.61 500.562 692.409 500.793 692.956 501.254C693.503 501.716 693.777 502.392 693.777 503.282C693.777 504.21 693.501 504.929 692.948 505.439C692.401 505.943 691.62 506.195 690.606 506.195H688.369V500.562ZM690.719 505.809C691.433 505.809 691.98 505.592 692.361 505.157C692.747 504.723 692.94 504.098 692.94 503.282C692.94 502.515 692.752 501.936 692.377 501.544C692.001 501.147 691.449 500.948 690.719 500.948H689.206V505.809H690.719ZM697.469 506.276C696.535 506.276 695.859 506.069 695.441 505.656C695.028 505.238 694.821 504.637 694.821 503.854V500.562H695.658V504.039C695.658 504.639 695.8 505.098 696.084 505.415C696.369 505.731 696.83 505.89 697.469 505.89C698.096 505.89 698.552 505.734 698.837 505.423C699.126 505.112 699.271 504.65 699.271 504.039V500.562H700.108V503.854C700.108 504.637 699.902 505.238 699.488 505.656C699.075 506.069 698.402 506.276 697.469 506.276ZM703.147 503.749L700.733 500.562H701.643L703.695 503.258L705.908 500.562H706.495L703.984 503.628V506.195H703.147V503.749ZM709.257 500.562H710.094V502.984H713.708V500.562H714.545V506.195H713.708V503.363H710.094V506.195H709.257V500.562ZM719.749 504.731H716.506L715.773 506.195H715.21L718.139 500.482H718.574L721.334 506.195H720.433L719.749 504.731ZM719.564 504.344L718.179 501.383L716.699 504.344H719.564ZM718.075 499.999C718.053 499.934 718.043 499.886 718.043 499.854C718.043 499.741 718.075 499.65 718.139 499.58C718.209 499.505 718.306 499.428 718.429 499.347C718.552 499.267 718.646 499.191 718.711 499.122C718.775 499.052 718.807 498.961 718.807 498.848C718.807 498.746 718.77 498.668 718.694 498.615C718.625 498.556 718.525 498.526 718.397 498.526C718.268 498.526 718.163 498.558 718.083 498.623C718.008 498.682 717.96 498.768 717.938 498.88H717.536C717.546 498.682 717.63 498.521 717.785 498.397C717.946 498.274 718.153 498.212 718.405 498.212C718.652 498.212 718.853 498.271 719.008 498.389C719.164 498.507 719.242 498.663 719.242 498.856C719.242 499.012 719.201 499.135 719.121 499.226C719.046 499.312 718.939 499.398 718.799 499.484C718.697 499.554 718.619 499.615 718.566 499.669C718.517 499.717 718.493 499.779 718.493 499.854C718.493 499.908 718.504 499.956 718.525 499.999H718.075ZM722.334 500.562H723.171V506.195H722.334V500.562Z" fill="#4A3021"/>
<path d="M585.76 141.502H588.383C589.059 141.502 589.595 141.62 589.992 141.856C590.389 142.092 590.588 142.414 590.588 142.821C590.588 143.17 590.446 143.471 590.161 143.723C589.877 143.969 589.504 144.128 589.043 144.197C589.654 144.257 590.121 144.399 590.443 144.624C590.765 144.844 590.926 145.177 590.926 145.622C590.926 146.11 590.725 146.486 590.322 146.748C589.92 147.006 589.338 147.135 588.576 147.135H585.76V141.502ZM588.077 144.02C588.619 144.02 589.035 143.924 589.325 143.731C589.614 143.532 589.759 143.245 589.759 142.87C589.759 142.537 589.622 142.29 589.349 142.129C589.075 141.968 588.659 141.888 588.101 141.888H586.596V144.02H588.077ZM588.657 146.748C589.107 146.748 589.459 146.647 589.711 146.443C589.963 146.239 590.089 145.952 590.089 145.582C590.089 145.19 589.915 144.898 589.566 144.704C589.223 144.506 588.71 144.407 588.029 144.407H586.596V146.748H588.657ZM592.125 141.502H592.962V147.135H592.125V141.502ZM594.483 141.502H599.255V141.888H595.32V143.924H598.796V144.302H595.32V146.748H599.255V147.135H594.483V141.502ZM597.71 139.771C597.699 139.729 597.694 139.694 597.694 139.667C597.694 139.586 597.712 139.522 597.75 139.474C597.793 139.425 597.857 139.372 597.943 139.313C598.024 139.259 598.085 139.205 598.128 139.152C598.171 139.098 598.193 139.034 598.193 138.959C598.193 138.894 598.171 138.841 598.128 138.798C598.085 138.755 598.018 138.733 597.927 138.733C597.83 138.733 597.758 138.757 597.71 138.806C597.667 138.854 597.643 138.91 597.637 138.975H597.323C597.323 138.835 597.382 138.725 597.501 138.645C597.619 138.564 597.769 138.524 597.951 138.524C598.134 138.524 598.278 138.564 598.386 138.645C598.493 138.725 598.547 138.835 598.547 138.975C598.547 139.077 598.523 139.157 598.474 139.216C598.426 139.27 598.354 139.332 598.257 139.401C598.187 139.444 598.134 139.487 598.096 139.53C598.064 139.568 598.048 139.613 598.048 139.667C598.048 139.704 598.056 139.739 598.072 139.771H597.71ZM596.656 139.707H597.219L598.217 140.938H597.822L596.937 140.085L596.052 140.938H595.658L596.656 139.707ZM600.078 141.502H600.923L604.351 145.871V141.502H605.059V147.135H604.641L600.786 142.234V147.135H600.078V141.502ZM610.582 141.502C611.633 141.502 612.433 141.732 612.98 142.194C613.527 142.655 613.801 143.331 613.801 144.222C613.801 145.15 613.524 145.869 612.972 146.378C612.425 146.883 611.644 147.135 610.63 147.135H608.393V144.334H607.773V143.98H608.393V141.502H610.582ZM610.743 146.748C611.456 146.748 612.003 146.531 612.384 146.097C612.771 145.662 612.964 145.037 612.964 144.222C612.964 143.454 612.776 142.875 612.4 142.483C612.025 142.086 611.472 141.888 610.743 141.888H609.23V143.98H610.936V144.334H609.23V146.748H610.743ZM617.734 147.215C617.101 147.215 616.556 147.1 616.1 146.869C615.644 146.639 615.295 146.306 615.054 145.871C614.813 145.431 614.692 144.906 614.692 144.294C614.692 143.693 614.813 143.178 615.054 142.749C615.295 142.314 615.644 141.984 616.1 141.759C616.556 141.534 617.101 141.421 617.734 141.421C618.367 141.421 618.909 141.534 619.359 141.759C619.815 141.984 620.164 142.314 620.405 142.749C620.647 143.178 620.768 143.693 620.768 144.294C620.768 144.906 620.647 145.431 620.405 145.871C620.164 146.306 619.815 146.639 619.359 146.869C618.909 147.1 618.367 147.215 617.734 147.215ZM617.734 146.829C618.431 146.829 618.97 146.609 619.351 146.169C619.732 145.729 619.923 145.104 619.923 144.294C619.923 143.5 619.732 142.888 619.351 142.459C618.976 142.025 618.437 141.807 617.734 141.807C617.031 141.807 616.489 142.022 616.108 142.451C615.727 142.88 615.537 143.495 615.537 144.294C615.537 145.104 615.727 145.729 616.108 146.169C616.489 146.609 617.031 146.829 617.734 146.829ZM617.452 139.707H618.015L619.013 140.938H618.619L617.734 140.085L616.848 140.938H616.454L617.452 139.707ZM621.808 141.502H622.653L626.081 145.871V141.502H626.789V147.135H626.37L622.516 142.234V147.135H621.808V141.502ZM630.946 147.215C630.292 147.215 629.731 147.103 629.264 146.877C628.797 146.647 628.441 146.314 628.194 145.879C627.947 145.445 627.824 144.927 627.824 144.326C627.824 143.725 627.944 143.208 628.186 142.773C628.427 142.339 628.776 142.006 629.232 141.775C629.688 141.539 630.23 141.421 630.858 141.421C631.619 141.421 632.244 141.587 632.733 141.92C633.226 142.247 633.524 142.701 633.626 143.28H632.902C632.805 142.808 632.582 142.446 632.234 142.194C631.885 141.936 631.434 141.807 630.882 141.807C630.19 141.807 629.648 142.03 629.256 142.475C628.865 142.915 628.669 143.53 628.669 144.318C628.669 145.118 628.867 145.737 629.264 146.177C629.667 146.612 630.23 146.829 630.954 146.829C631.292 146.829 631.601 146.794 631.88 146.724C632.159 146.649 632.424 146.534 632.676 146.378V144.552H630.705V144.189H633.513V146.435C633.197 146.687 632.818 146.88 632.379 147.014C631.944 147.148 631.467 147.215 630.946 147.215Z" fill="#4A3021"/>
<path d="M629.694 449.644L630.479 449.154L634.901 452.002L634.433 446.689L634.897 446.399L635.456 452.785L635.087 453.014L629.694 449.644ZM635.707 445.895L636.417 445.452L639.398 450.232L638.688 450.675L635.707 445.895ZM639.669 451.457C639.564 451.522 639.456 451.542 639.345 451.516C639.242 451.492 639.159 451.43 639.096 451.33C639.034 451.23 639.015 451.128 639.039 451.025C639.067 450.919 639.134 450.833 639.239 450.767C639.343 450.702 639.447 450.682 639.551 450.706C639.659 450.727 639.744 450.787 639.807 450.887C639.869 450.988 639.886 451.091 639.858 451.197C639.836 451.305 639.773 451.392 639.669 451.457ZM637.708 444.647L638.425 444.2L643.646 446.095L641.334 442.387L641.935 442.012L644.915 446.792L644.56 447.013L638.696 444.894L641.289 449.053L640.688 449.427L637.708 444.647ZM642.943 441.384L643.653 440.941L644.935 442.996L648.001 441.085L646.719 439.029L647.429 438.587L650.41 443.366L649.7 443.809L648.201 441.406L645.135 443.317L646.634 445.721L645.923 446.164L642.943 441.384ZM655.679 440.176C654.864 440.684 654.105 440.861 653.401 440.705C652.697 440.55 652.096 440.074 651.6 439.277C651.114 438.499 650.956 437.763 651.124 437.07C651.297 436.374 651.789 435.774 652.599 435.269C653.259 434.857 653.883 434.661 654.471 434.68C655.058 434.7 655.545 434.933 655.932 435.381L655.317 435.764C654.996 435.421 654.617 435.234 654.18 435.203C653.74 435.167 653.293 435.291 652.838 435.575C652.246 435.944 651.904 436.41 651.813 436.973C651.726 437.533 651.894 438.152 652.317 438.83C652.748 439.522 653.24 439.955 653.791 440.13C654.34 440.3 654.912 440.199 655.509 439.827C655.964 439.544 656.271 439.2 656.431 438.797C656.591 438.394 656.586 437.971 656.416 437.526L657.031 437.143C657.263 437.687 657.258 438.228 657.017 438.764C656.776 439.3 656.33 439.771 655.679 440.176ZM661.394 429.88C661.593 430.199 661.657 430.535 661.587 430.889C661.521 431.239 661.335 431.561 661.03 431.852L661.988 433.388C662.403 434.053 662.546 434.672 662.416 435.246C662.284 435.815 661.822 436.346 661.03 436.84C660.238 437.334 659.555 437.516 658.981 437.387C658.409 437.251 657.916 436.85 657.502 436.185L655.76 433.393L656.47 432.95L658.31 435.9C658.628 436.41 658.991 436.724 659.4 436.842C659.809 436.96 660.284 436.85 660.826 436.512C661.358 436.18 661.663 435.807 661.74 435.393C661.821 434.975 661.7 434.507 661.376 433.988L659.537 431.038L660.247 430.596L660.877 431.606C661.013 431.408 661.074 431.183 661.063 430.931C661.056 430.676 660.984 430.439 660.848 430.221L661.394 429.88ZM657.511 431.637C657.458 431.594 657.424 431.559 657.407 431.532C657.347 431.436 657.326 431.342 657.344 431.248C657.363 431.148 657.404 431.031 657.466 430.897C657.528 430.763 657.568 430.65 657.586 430.557C657.604 430.464 657.583 430.369 657.523 430.274C657.469 430.187 657.396 430.141 657.304 430.135C657.214 430.122 657.114 430.149 657.005 430.218C656.895 430.286 656.824 430.368 656.789 430.466C656.757 430.555 656.761 430.654 656.803 430.761L656.461 430.974C656.365 430.799 656.351 430.619 656.418 430.432C656.489 430.242 656.631 430.08 656.845 429.947C657.055 429.816 657.257 429.76 657.451 429.778C657.646 429.796 657.794 429.887 657.896 430.05C657.979 430.183 658.01 430.308 657.99 430.428C657.971 430.541 657.926 430.671 657.853 430.817C657.803 430.93 657.77 431.024 657.753 431.098C657.737 431.164 657.749 431.229 657.789 431.293C657.818 431.339 657.852 431.374 657.893 431.399L657.511 431.637ZM666.462 431.633L663.71 433.349L663.863 434.979L663.385 435.277L662.848 428.879L663.216 428.649L668.582 432.037L667.817 432.514L666.462 431.633ZM666.1 431.403L663.359 429.623L663.669 432.919L666.1 431.403ZM669.848 424.609C670.741 424.053 671.541 423.826 672.25 423.928C672.958 424.03 673.548 424.459 674.019 425.214C674.51 426.002 674.656 426.758 674.457 427.483C674.26 428.2 673.731 428.827 672.87 429.364L670.972 430.547L669.49 428.171L668.964 428.499L668.777 428.198L669.303 427.871L667.991 425.767L669.848 424.609ZM672.761 428.976C673.367 428.599 673.716 428.125 673.81 427.555C673.907 426.982 673.741 426.349 673.309 425.657C672.903 425.006 672.437 424.614 671.911 424.48C671.383 424.342 670.809 424.466 670.189 424.852L668.906 425.652L670.013 427.428L671.46 426.525L671.648 426.826L670.2 427.728L671.478 429.777L672.761 428.976ZM678.806 423.937L676.054 425.653L676.207 427.283L675.729 427.581L675.192 421.183L675.561 420.953L680.926 424.341L680.161 424.818L678.806 423.937ZM678.444 423.707L675.703 421.927L676.013 425.223L678.444 423.707ZM678.957 426.963C678.852 427.028 678.745 427.048 678.634 427.022C678.53 426.998 678.447 426.936 678.385 426.836C678.322 426.736 678.303 426.634 678.327 426.531C678.356 426.424 678.422 426.338 678.527 426.273C678.632 426.208 678.736 426.187 678.839 426.211C678.947 426.232 679.033 426.293 679.095 426.393C679.158 426.493 679.175 426.597 679.146 426.703C679.125 426.811 679.062 426.898 678.957 426.963ZM678.794 419.032L679.504 418.589L682.485 423.369L681.775 423.812L678.794 419.032Z" fill="#4A3021"/>
<path d="M493.089 524.171C492.368 524.542 491.728 524.693 491.168 524.625C490.608 524.557 490.173 524.275 489.863 523.777L490.507 523.445C490.766 523.867 491.09 524.11 491.48 524.175C491.872 524.233 492.344 524.12 492.898 523.835C493.389 523.582 493.719 523.304 493.888 522.999C494.062 522.693 494.067 522.38 493.903 522.06C493.805 521.869 493.672 521.735 493.506 521.658C493.339 521.581 493.109 521.555 492.814 521.58C492.524 521.602 492.14 521.682 491.661 521.82C490.901 522.042 490.29 522.139 489.829 522.111C489.37 522.075 489.041 521.864 488.843 521.478C488.622 521.049 488.656 520.624 488.947 520.203C489.234 519.777 489.705 519.396 490.359 519.06C491.022 518.719 491.598 518.573 492.088 518.622C492.581 518.665 492.964 518.881 493.237 519.271L492.6 519.599C492.349 519.288 492.05 519.122 491.702 519.102C491.358 519.079 490.953 519.189 490.485 519.429C490.032 519.662 489.724 519.914 489.562 520.185C489.404 520.453 489.393 520.718 489.528 520.981C489.609 521.138 489.723 521.248 489.87 521.311C490.017 521.374 490.226 521.394 490.497 521.369C490.773 521.342 491.142 521.263 491.606 521.133C492.176 520.973 492.647 520.875 493.021 520.839C493.4 520.801 493.719 520.842 493.98 520.961C494.238 521.076 494.446 521.286 494.603 521.591C494.834 522.04 494.811 522.495 494.536 522.956C494.263 523.41 493.78 523.815 493.089 524.171ZM498.847 521.209C498.284 521.498 497.747 521.645 497.236 521.648C496.725 521.652 496.262 521.516 495.849 521.24C495.433 520.959 495.085 520.547 494.805 520.003C494.53 519.469 494.402 518.955 494.42 518.463C494.436 517.967 494.595 517.514 494.897 517.105C495.2 516.696 495.632 516.346 496.195 516.057C496.758 515.767 497.292 515.619 497.795 515.614C498.304 515.605 498.765 515.739 499.179 516.015C499.59 516.286 499.933 516.689 500.208 517.223C500.487 517.767 500.621 518.29 500.607 518.791C500.592 519.288 500.434 519.743 500.134 520.157C499.839 520.568 499.41 520.919 498.847 521.209ZM498.67 520.865C499.29 520.546 499.669 520.104 499.806 519.538C499.944 518.973 499.827 518.33 499.456 517.61C499.093 516.904 498.644 516.447 498.109 516.24C497.576 516.025 496.997 516.079 496.372 516.4C495.747 516.722 495.363 517.16 495.221 517.716C495.079 518.272 495.191 518.906 495.556 519.616C495.927 520.337 496.382 520.805 496.922 521.022C497.463 521.239 498.045 521.187 498.67 520.865ZM495.16 514.662L495.661 514.404L497.112 515.042L496.761 515.222L495.584 514.869L495.187 516.032L494.837 516.213L495.16 514.662ZM499.855 514.264L500.606 513.878L505.654 516.195L503.654 512.309L504.284 511.985L506.862 516.994L506.49 517.186L500.819 514.592L503.062 518.949L502.432 519.273L499.855 514.264ZM510.595 515.164C510.013 515.463 509.463 515.619 508.945 515.633C508.424 515.641 507.955 515.509 507.537 515.235C507.118 514.962 506.772 514.558 506.497 514.023C506.222 513.489 506.092 512.974 506.108 512.477C506.124 511.98 506.282 511.525 506.582 511.111C506.879 510.692 507.307 510.34 507.865 510.052C508.542 509.704 509.174 509.566 509.761 509.638C510.349 509.703 510.821 509.97 511.177 510.439L510.533 510.77C510.231 510.394 509.868 510.174 509.442 510.11C509.014 510.04 508.555 510.132 508.063 510.385C507.448 510.701 507.068 511.147 506.923 511.722C506.777 512.293 506.884 512.929 507.244 513.63C507.61 514.34 508.07 514.801 508.625 515.01C509.181 515.212 509.782 515.148 510.426 514.817C510.726 514.662 510.984 514.49 511.201 514.3C511.414 514.106 511.598 513.882 511.751 513.628L510.915 512.004L509.162 512.906L508.996 512.584L511.493 511.299L512.521 513.295C512.355 513.664 512.107 514.009 511.777 514.329C511.452 514.648 511.058 514.926 510.595 515.164ZM515.017 506.897L512.899 507.987L512.723 507.644L517.696 505.085L517.872 505.428L515.762 506.514L518.163 511.18L517.418 511.562L515.017 506.897ZM518.289 504.78L519.033 504.397L520.141 506.55L523.354 504.897L522.246 502.744L522.99 502.361L525.568 507.369L524.824 507.752L523.527 505.234L520.315 506.887L521.611 509.405L520.867 509.788L518.289 504.78ZM529.016 505.686C528.186 506.113 527.49 506.239 526.929 506.063C526.37 505.88 525.912 505.44 525.553 504.743L524.047 501.817L524.791 501.434L526.382 504.525C526.657 505.059 526.993 505.402 527.391 505.553C527.789 505.705 528.271 505.634 528.839 505.342C529.397 505.055 529.731 504.708 529.842 504.301C529.957 503.892 529.875 503.416 529.595 502.872L528.004 499.781L528.748 499.398L530.254 502.324C530.613 503.021 530.704 503.65 530.528 504.211C530.35 504.767 529.846 505.259 529.016 505.686ZM531.706 497.876L534.039 496.676C534.64 496.367 535.171 496.226 535.632 496.254C536.093 496.283 536.417 496.478 536.603 496.841C536.763 497.151 536.774 497.483 536.636 497.837C536.496 498.187 536.237 498.498 535.859 498.771C536.43 498.544 536.91 498.457 537.299 498.51C537.686 498.558 537.981 498.78 538.185 499.176C538.409 499.61 538.402 500.036 538.164 500.454C537.924 500.867 537.465 501.248 536.788 501.596L534.284 502.885L531.706 497.876ZM534.919 499.055C535.401 498.808 535.727 498.531 535.896 498.227C536.063 497.918 536.06 497.597 535.888 497.263C535.736 496.967 535.501 496.81 535.184 496.792C534.868 496.774 534.461 496.893 533.965 497.148L532.627 497.837L533.603 499.733L534.919 499.055ZM536.683 501.216C537.084 501.01 537.349 500.758 537.48 500.462C537.611 500.165 537.592 499.852 537.423 499.523C537.243 499.175 536.955 498.995 536.556 498.983C536.16 498.963 535.659 499.109 535.053 499.421L533.779 500.076L534.851 502.159L536.683 501.216ZM542.256 498.873C541.693 499.163 541.156 499.31 540.645 499.313C540.134 499.317 539.672 499.18 539.258 498.904C538.842 498.624 538.494 498.212 538.214 497.668C537.939 497.133 537.811 496.62 537.829 496.128C537.845 495.631 538.004 495.178 538.307 494.769C538.609 494.361 539.042 494.011 539.605 493.722C540.168 493.432 540.701 493.284 541.205 493.278C541.713 493.27 542.174 493.404 542.588 493.68C542.999 493.951 543.342 494.354 543.617 494.888C543.897 495.432 544.03 495.954 544.017 496.456C544.001 496.953 543.843 497.408 543.543 497.822C543.248 498.233 542.819 498.584 542.256 498.873ZM542.079 498.53C542.699 498.211 543.078 497.769 543.216 497.203C543.353 496.638 543.236 495.995 542.866 495.275C542.502 494.569 542.053 494.112 541.518 493.905C540.985 493.69 540.406 493.743 539.781 494.065C539.156 494.387 538.773 494.825 538.631 495.381C538.488 495.937 538.6 496.57 538.966 497.281C539.337 498.001 539.792 498.47 540.332 498.687C540.872 498.904 541.454 498.851 542.079 498.53ZM539.315 491.681C539.149 491.651 539.027 491.626 538.95 491.606C538.875 491.578 538.826 491.54 538.801 491.492C538.774 491.44 538.772 491.389 538.796 491.341C538.817 491.288 538.858 491.246 538.92 491.214C539.016 491.165 539.138 491.174 539.288 491.242L540.416 491.693L540.173 491.818L539.315 491.681ZM538.57 492.326L539.071 492.069L540.521 492.707L540.171 492.887L538.993 492.534L538.597 493.697L538.246 493.878L538.57 492.326ZM543.264 491.929L544.015 491.543L549.063 493.86L547.064 489.974L547.693 489.65L550.271 494.659L549.899 494.85L544.229 492.256L546.471 496.614L545.842 496.938L543.264 491.929Z" fill="#4A3021"/>
<path d="M259.951 433.194C259.289 432.727 258.859 432.229 258.661 431.701C258.462 431.173 258.512 430.657 258.81 430.151L259.402 430.569C259.148 430.994 259.082 431.394 259.204 431.77C259.333 432.144 259.652 432.51 260.161 432.87C260.612 433.189 261.012 433.353 261.36 433.362C261.712 433.375 261.992 433.234 262.2 432.941C262.323 432.766 262.381 432.586 262.373 432.403C262.364 432.22 262.281 432.003 262.123 431.753C261.969 431.506 261.72 431.203 261.377 430.842C260.829 430.27 260.46 429.774 260.272 429.352C260.092 428.929 260.127 428.54 260.378 428.185C260.657 427.79 261.05 427.625 261.557 427.688C262.068 427.746 262.623 427.988 263.223 428.412C263.832 428.842 264.228 429.286 264.41 429.744C264.6 430.2 264.585 430.639 264.365 431.062L263.781 430.649C263.941 430.282 263.949 429.94 263.806 429.622C263.668 429.307 263.383 428.998 262.954 428.695C262.538 428.401 262.172 428.244 261.857 428.225C261.547 428.209 261.306 428.322 261.136 428.563C261.034 428.707 260.988 428.859 261 429.019C261.012 429.178 261.092 429.373 261.239 429.601C261.391 429.833 261.631 430.125 261.961 430.476C262.366 430.907 262.671 431.28 262.875 431.595C263.084 431.913 263.195 432.216 263.21 432.502C263.227 432.784 263.137 433.065 262.939 433.345C262.648 433.757 262.234 433.947 261.697 433.916C261.168 433.884 260.586 433.643 259.951 433.194ZM265.239 436.932C264.722 436.566 264.344 436.158 264.105 435.706C263.865 435.255 263.773 434.782 263.826 434.288C263.883 433.789 264.088 433.29 264.441 432.791C264.788 432.3 265.184 431.949 265.629 431.738C266.077 431.522 266.552 431.454 267.054 431.533C267.557 431.613 268.067 431.835 268.584 432.2C269.101 432.566 269.478 432.97 269.716 433.414C269.958 433.862 270.053 434.332 269.999 434.826C269.948 435.316 269.75 435.807 269.403 436.297C269.05 436.797 268.648 437.156 268.197 437.376C267.749 437.592 267.272 437.662 266.766 437.587C266.265 437.515 265.756 437.297 265.239 436.932ZM265.462 436.616C266.031 437.019 266.599 437.15 267.164 437.011C267.729 436.871 268.245 436.471 268.713 435.81C269.171 435.161 269.369 434.552 269.305 433.982C269.249 433.41 268.935 432.921 268.361 432.516C267.787 432.11 267.22 431.973 266.661 432.103C266.103 432.234 265.593 432.626 265.131 433.278C264.663 433.94 264.458 434.56 264.515 435.139C264.572 435.718 264.888 436.211 265.462 436.616ZM269.343 430.638L269.803 430.963L269.907 432.544L269.585 432.317L269.355 431.109L268.139 431.295L267.817 431.068L269.343 430.638ZM271.864 434.617L272.554 435.105L272.831 440.652L275.354 437.083L275.932 437.492L272.68 442.092L272.338 441.85L272.02 435.624L269.191 439.626L268.612 439.217L271.864 434.617ZM276.029 444.557C275.494 444.179 275.101 443.764 274.85 443.31C274.602 442.853 274.503 442.375 274.552 441.878C274.602 441.38 274.8 440.887 275.147 440.396C275.493 439.905 275.891 439.552 276.339 439.337C276.787 439.121 277.264 439.051 277.769 439.126C278.278 439.196 278.788 439.412 279.301 439.775C279.923 440.214 280.338 440.711 280.544 441.264C280.758 441.816 280.74 442.358 280.489 442.89L279.897 442.472C280.091 442.031 280.118 441.607 279.979 441.2C279.843 440.788 279.549 440.423 279.098 440.104C278.533 439.705 277.962 439.574 277.385 439.711C276.811 439.844 276.296 440.233 275.841 440.877C275.38 441.53 275.184 442.15 275.255 442.739C275.332 443.326 275.667 443.828 276.258 444.246C276.534 444.441 276.806 444.591 277.074 444.695C277.346 444.795 277.629 444.854 277.925 444.872L278.979 443.38L277.369 442.243L277.578 441.947L279.872 443.568L278.576 445.401C278.172 445.424 277.751 445.364 277.315 445.219C276.882 445.078 276.454 444.857 276.029 444.557ZM285.404 444.659L283.459 443.285L283.682 442.969L288.249 446.197L288.026 446.513L286.088 445.142L283.059 449.427L282.375 448.944L285.404 444.659ZM288.794 446.582L289.478 447.065L288.079 449.043L291.03 451.128L292.428 449.15L293.112 449.634L289.86 454.233L289.177 453.75L290.812 451.437L287.861 449.352L286.226 451.665L285.542 451.182L288.794 446.582ZM292.946 456.513C292.184 455.974 291.751 455.415 291.648 454.837C291.552 454.257 291.73 453.647 292.182 453.007L294.082 450.319L294.766 450.802L292.759 453.641C292.412 454.132 292.264 454.588 292.313 455.011C292.362 455.434 292.648 455.829 293.169 456.198C293.682 456.56 294.144 456.696 294.556 456.606C294.972 456.519 295.357 456.226 295.71 455.727L297.717 452.888L298.4 453.371L296.5 456.058C296.048 456.698 295.532 457.07 294.954 457.173C294.378 457.272 293.709 457.052 292.946 456.513ZM301.116 455.29L303.259 456.805C303.811 457.195 304.181 457.601 304.369 458.023C304.557 458.444 304.533 458.822 304.297 459.155C304.096 459.44 303.807 459.603 303.429 459.645C303.054 459.682 302.658 459.596 302.241 459.387C302.707 459.788 303.006 460.173 303.139 460.543C303.275 460.909 303.214 461.273 302.957 461.637C302.675 462.035 302.294 462.226 301.814 462.208C301.336 462.186 300.787 461.956 300.165 461.516L297.865 459.89L301.116 455.29ZM301.555 458.685C301.997 458.998 302.393 459.159 302.741 459.168C303.092 459.173 303.376 459.023 303.593 458.716C303.785 458.444 303.815 458.164 303.685 457.874C303.554 457.585 303.261 457.279 302.806 456.957L301.577 456.089L300.346 457.83L301.555 458.685ZM300.453 461.247C300.821 461.507 301.167 461.627 301.491 461.606C301.814 461.585 302.083 461.423 302.297 461.121C302.523 460.801 302.549 460.462 302.376 460.103C302.21 459.742 301.849 459.366 301.293 458.972L300.123 458.146L298.771 460.058L300.453 461.247ZM305.106 465.107C304.589 464.741 304.211 464.333 303.972 463.881C303.733 463.43 303.64 462.957 303.694 462.463C303.75 461.964 303.955 461.465 304.308 460.966C304.655 460.475 305.051 460.124 305.496 459.913C305.944 459.698 306.419 459.629 306.922 459.709C307.424 459.788 307.934 460.01 308.451 460.375C308.968 460.741 309.345 461.146 309.583 461.59C309.826 462.037 309.92 462.507 309.866 463.002C309.816 463.491 309.617 463.982 309.27 464.472C308.917 464.972 308.515 465.331 308.064 465.551C307.616 465.767 307.139 465.837 306.633 465.762C306.132 465.691 305.623 465.472 305.106 465.107ZM305.329 464.791C305.899 465.194 306.466 465.325 307.031 465.186C307.596 465.047 308.112 464.646 308.58 463.985C309.038 463.336 309.236 462.727 309.172 462.157C309.117 461.585 308.802 461.096 308.228 460.691C307.654 460.285 307.088 460.148 306.529 460.278C305.97 460.409 305.46 460.801 304.998 461.453C304.531 462.115 304.325 462.735 304.383 463.314C304.44 463.893 304.755 464.386 305.329 464.791ZM310.127 459.175C310.076 459.015 310.042 458.895 310.025 458.818C310.015 458.738 310.026 458.677 310.057 458.633C310.091 458.585 310.135 458.56 310.188 458.559C310.245 458.553 310.302 458.57 310.359 458.61C310.447 458.672 310.495 458.785 310.504 458.949L310.625 460.158L310.401 460L310.127 459.175ZM309.21 458.813L309.67 459.138L309.774 460.72L309.452 460.492L309.222 459.285L308.007 459.47L307.685 459.243L309.21 458.813ZM311.731 462.792L312.421 463.28L312.698 468.827L315.221 465.259L315.799 465.667L312.547 470.267L312.206 470.026L311.887 463.799L309.058 467.801L308.48 467.392L311.731 462.792Z" fill="#4A3021"/>
<path d="M105.783 317.9H103.401V317.513H108.993V317.9H106.619V323.146H105.783V317.9ZM109.66 317.513H110.497V319.936H114.111V317.513H114.948V323.146H114.111V320.314H110.497V323.146H109.66V317.513ZM120.152 321.682H116.909L116.176 323.146H115.613L118.542 317.433H118.977L121.737 323.146H120.836L120.152 321.682ZM119.967 321.296L118.582 318.334L117.102 321.296H119.967ZM122.407 317.513H123.252L126.68 321.883V317.513H127.389V323.146H126.97L123.116 318.246V323.146H122.407V317.513ZM128.576 317.513H129.413V319.936H133.027V317.513H133.864V323.146H133.027V320.314H129.413V323.146H128.576V317.513ZM137.19 317.513H138.027V319.936H141.64V317.513H142.477V323.146H141.64V320.314H138.027V323.146H137.19V317.513ZM147.681 321.682H144.438L143.705 323.146H143.142L146.071 317.433H146.506L149.266 323.146H148.365L147.681 321.682ZM147.496 321.296L146.112 318.334L144.631 321.296H147.496ZM144.856 316.089C144.652 315.949 144.55 315.823 144.55 315.711C144.55 315.652 144.572 315.603 144.615 315.566C144.663 315.523 144.727 315.502 144.808 315.502C144.969 315.502 145.111 315.571 145.234 315.711L146.369 316.95H146.087L144.856 316.089Z" fill="#4A3021"/>
<path d="M109.521 240.12C110.439 240.632 111.024 241.224 111.277 241.893C111.53 242.563 111.439 243.287 111.004 244.064C110.551 244.874 109.96 245.367 109.229 245.542C108.505 245.716 107.7 245.555 106.815 245.06L104.862 243.969L106.228 241.525L105.688 241.222L105.86 240.913L106.401 241.215L107.61 239.052L109.521 240.12ZM107.102 244.778C107.725 245.126 108.309 245.203 108.853 245.01C109.402 244.819 109.876 244.368 110.274 243.656C110.648 242.986 110.767 242.389 110.63 241.864C110.496 241.334 110.11 240.891 109.473 240.535L108.153 239.797L107.132 241.624L108.621 242.456L108.448 242.765L106.959 241.933L105.781 244.04L107.102 244.778ZM119.038 245.437C118.855 245.765 118.592 245.984 118.248 246.093C117.909 246.204 117.538 246.197 117.136 246.07L116.252 247.651C115.87 248.335 115.397 248.758 114.832 248.922C114.27 249.081 113.581 248.933 112.766 248.478C111.952 248.022 111.462 247.512 111.298 246.948C111.142 246.381 111.255 245.756 111.637 245.072L113.243 242.199L113.973 242.607L112.277 245.642C111.984 246.166 111.884 246.636 111.978 247.051C112.072 247.466 112.398 247.829 112.955 248.141C113.503 248.447 113.977 248.533 114.377 248.4C114.782 248.27 115.133 247.938 115.432 247.404L117.128 244.37L117.858 244.778L117.277 245.817C117.516 245.84 117.743 245.786 117.958 245.654C118.178 245.525 118.351 245.348 118.476 245.123L119.038 245.437ZM124.847 248.581C124.679 248.881 124.443 249.09 124.137 249.208C123.839 249.324 123.508 249.345 123.144 249.27C123.123 249.726 122.976 250.197 122.704 250.684C122.405 251.218 122.044 251.618 121.618 251.884C121.195 252.146 120.729 252.266 120.218 252.245C119.712 252.227 119.183 252.063 118.63 251.754C118.078 251.445 117.658 251.079 117.373 250.655C117.087 250.231 116.945 249.771 116.946 249.274C116.95 248.772 117.101 248.254 117.4 247.72C117.693 247.196 118.05 246.805 118.47 246.548C118.893 246.287 119.358 246.169 119.866 246.195C120.374 246.22 120.904 246.388 121.457 246.696C121.972 246.984 122.371 247.321 122.653 247.706C122.941 248.094 123.101 248.516 123.136 248.971C123.371 248.979 123.59 248.918 123.793 248.785C124.001 248.655 124.165 248.483 124.285 248.267L124.847 248.581ZM118.819 251.417C119.427 251.757 120.005 251.828 120.553 251.63C121.1 251.432 121.571 250.979 121.966 250.272C122.354 249.579 122.486 248.952 122.363 248.392C122.247 247.829 121.882 247.376 121.269 247.034C120.655 246.691 120.077 246.614 119.535 246.803C118.993 246.992 118.527 247.435 118.138 248.133C117.742 248.84 117.604 249.478 117.722 250.048C117.839 250.618 118.205 251.074 118.819 251.417ZM120.89 244.84C120.78 244.619 120.753 244.459 120.808 244.361C120.837 244.309 120.879 244.278 120.935 244.266C120.998 244.252 121.064 244.265 121.135 244.304C121.275 244.382 121.365 244.513 121.405 244.695L121.791 246.33L121.545 246.193L120.89 244.84ZM124.974 248.754L125.712 249.166L126.573 254.652L128.704 250.838L129.323 251.184L126.574 256.101L126.209 255.897L125.235 249.738L122.844 254.016L122.226 253.671L124.974 248.754ZM130.164 258.199C129.593 257.88 129.158 257.508 128.861 257.083C128.566 256.654 128.417 256.19 128.413 255.69C128.41 255.191 128.555 254.678 128.848 254.154C129.141 253.629 129.499 253.236 129.922 252.975C130.345 252.713 130.811 252.593 131.322 252.614C131.835 252.63 132.366 252.792 132.914 253.098C133.579 253.47 134.043 253.92 134.307 254.448C134.578 254.974 134.617 255.515 134.423 256.071L133.791 255.718C133.937 255.258 133.92 254.834 133.738 254.444C133.559 254.049 133.229 253.716 132.746 253.447C132.142 253.109 131.561 253.039 131.001 253.237C130.445 253.43 129.974 253.871 129.59 254.559C129.2 255.257 129.071 255.895 129.202 256.472C129.342 257.048 129.727 257.512 130.36 257.866C130.655 258.03 130.941 258.15 131.219 258.226C131.499 258.296 131.787 258.325 132.083 258.312L132.974 256.718L131.253 255.756L131.43 255.44L133.881 256.81L132.786 258.77C132.387 258.835 131.962 258.819 131.513 258.722C131.068 258.627 130.619 258.453 130.164 258.199ZM138.064 256.068L138.801 256.48L139.662 261.966L141.794 258.152L142.412 258.497L139.664 263.415L139.299 263.211L138.325 257.052L135.934 261.33L135.316 260.985L138.064 256.068ZM143.254 265.513C142.683 265.193 142.248 264.822 141.951 264.397C141.656 263.968 141.507 263.504 141.503 263.004C141.5 262.504 141.645 261.992 141.938 261.468C142.231 260.943 142.589 260.55 143.012 260.289C143.434 260.027 143.901 259.907 144.412 259.928C144.925 259.944 145.455 260.106 146.003 260.412C146.668 260.783 147.133 261.233 147.397 261.762C147.668 262.288 147.707 262.829 147.513 263.385L146.881 263.032C147.027 262.572 147.009 262.148 146.828 261.757C146.649 261.363 146.318 261.03 145.836 260.761C145.232 260.423 144.65 260.353 144.091 260.551C143.535 260.744 143.064 261.185 142.679 261.873C142.289 262.571 142.16 263.209 142.292 263.786C142.431 264.362 142.817 264.826 143.449 265.179C143.744 265.344 144.031 265.464 144.308 265.54C144.589 265.61 144.877 265.639 145.173 265.626L146.064 264.031L144.343 263.07L144.519 262.754L146.971 264.124L145.876 266.083C145.476 266.149 145.052 266.133 144.603 266.036C144.158 265.941 143.708 265.767 143.254 265.513ZM148.811 268.618C147.996 268.162 147.507 267.652 147.343 267.088C147.187 266.521 147.3 265.896 147.682 265.212L149.287 262.339L150.018 262.747L148.322 265.782C148.029 266.306 147.929 266.776 148.023 267.191C148.117 267.606 148.442 267.969 149 268.281C149.548 268.587 150.022 268.673 150.422 268.541C150.826 268.41 151.178 268.078 151.476 267.544L153.172 264.51L153.903 264.918L152.297 267.791C151.915 268.475 151.442 268.898 150.877 269.062C150.315 269.221 149.626 269.073 148.811 268.618ZM155.001 269.182L154.449 265.223L155.243 265.666L155.719 269.021L158.966 267.747L159.479 268.033L155.791 269.485L154.539 271.726L153.808 271.318L155.001 269.182ZM160.024 268.338L164.19 270.666L164.001 271.003L160.566 269.083L159.573 270.861L162.608 272.556L162.423 272.887L159.388 271.191L158.195 273.326L161.63 275.246L161.442 275.583L157.276 273.255L160.024 268.338ZM162.163 267.1C162.276 266.942 162.411 266.845 162.566 266.808C162.726 266.775 162.881 266.8 163.031 266.884C163.11 266.928 163.182 266.987 163.246 267.059C163.31 267.132 163.386 267.233 163.474 267.362C163.546 267.463 163.607 267.547 163.657 267.611C163.709 267.672 163.764 267.717 163.82 267.749C163.909 267.798 164.005 267.812 164.11 267.791C164.214 267.769 164.315 267.715 164.413 267.628L164.514 267.777C164.215 268.114 163.913 268.197 163.609 268.027C163.534 267.985 163.467 267.929 163.407 267.859C163.348 267.789 163.277 267.691 163.194 267.565C163.118 267.449 163.053 267.36 163.001 267.3C162.951 267.236 162.896 267.186 162.835 267.152C162.741 267.1 162.643 267.082 162.542 267.099C162.44 267.116 162.348 267.166 162.265 267.249L162.163 267.1ZM162.796 267.831L163.288 268.106L163.558 269.668L163.214 269.475L162.858 268.299L161.669 268.612L161.325 268.419L162.796 267.831ZM164.909 271.067L165.646 271.479L166.507 276.966L168.639 273.152L169.257 273.497L166.509 278.414L166.144 278.21L165.17 272.052L162.779 276.33L162.16 275.985L164.909 271.067ZM173.594 276.363L171.515 275.201L171.703 274.864L176.586 277.592L176.397 277.929L174.325 276.771L171.765 281.351L171.035 280.943L173.594 276.363ZM177.94 283.124L175.109 281.542L173.755 282.463L173.264 282.188L178.608 278.63L178.988 278.842L178.61 285.176L177.823 284.736L177.94 283.124ZM177.967 282.696L178.204 279.436L175.466 281.299L177.967 282.696ZM181.265 277.422C181.426 277.365 181.551 277.361 181.64 277.411C181.701 277.445 181.741 277.489 181.76 277.543C181.782 277.592 181.779 277.642 181.75 277.693C181.724 277.74 181.674 277.774 181.601 277.795C181.528 277.815 181.404 277.838 181.23 277.864L180.361 277.968L180.129 277.839L181.265 277.422ZM179.346 277.079L179.838 277.353L180.108 278.915L179.764 278.722L179.407 277.546L178.219 277.859L177.874 277.667L179.346 277.079ZM182.678 281.438L180.598 280.276L180.787 279.939L185.669 282.667L185.481 283.004L183.408 281.846L180.849 286.427L180.118 286.018L182.678 281.438ZM189.552 285.279L187.472 284.117L187.661 283.78L192.543 286.508L192.355 286.845L190.282 285.687L187.723 290.267L186.992 289.859L189.552 285.279ZM193.126 286.834L193.856 287.242L192.674 289.356L195.829 291.119L197.01 289.004L197.741 289.412L194.993 294.33L194.262 293.921L195.644 291.449L192.49 289.686L191.108 292.159L190.377 291.751L193.126 286.834ZM200.25 295.59L197.419 294.008L196.066 294.929L195.574 294.654L200.918 291.096L201.298 291.308L200.92 297.641L200.133 297.202L200.25 295.59ZM200.277 295.162L200.514 291.902L197.776 293.765L200.277 295.162ZM200.513 289.33C200.403 289.109 200.376 288.949 200.431 288.85C200.46 288.799 200.502 288.767 200.558 288.755C200.621 288.741 200.687 288.754 200.758 288.793C200.898 288.872 200.988 289.002 201.028 289.184L201.414 290.819L201.168 290.682L200.513 289.33ZM204.253 293.051L204.991 293.463L205.852 298.95L207.984 295.135L208.602 295.481L205.854 300.398L205.488 300.194L204.514 294.036L202.123 298.314L201.505 297.968L204.253 293.051ZM209.639 296.06L210.369 296.468L209.188 298.583L212.342 300.345L213.524 298.231L214.254 298.639L211.506 303.556L210.775 303.148L212.157 300.675L209.003 298.913L207.621 301.386L206.89 300.977L209.639 296.06Z" fill="#4A3021"/>
<path d="M183.992 46.9336L172.837 52.1838L149.761 74.4317L142.72 90.5243L125.83 175.815L87.6055 252.184C87.6055 252.184 95.2002 247.054 109.665 255.201C124.13 263.348 208.316 308.417 208.316 308.417L216.997 313.527L232.739 330.042L277.201 349.323L336.218 370.645L382.178 361.593L395.627 395.166H399.711L401.532 400.849L430.794 399.028L464.824 408.553L487.739 420.562L498.181 430.469L508.843 434.181L517.011 436.896L543.326 435.307L551.494 429.182L552.631 425.561L561.684 421.256" stroke="#4A3021" stroke-width="0.502958" stroke-miterlimit="10"/>
<path d="M359.734 187.701L349.645 220.671L347.844 248.963L344.626 255.209L332.544 277.447L301.763 306.283L273.527 357.397L283.295 371.941L284.653 377.613" stroke="#4A3021" stroke-width="0.502958" stroke-miterlimit="10"/>
<path d="M156.16 385.609C156.563 385.438 164.751 353.525 164.751 353.525L184.125 330.16L208.448 308.607" stroke="#4A3021" stroke-width="0.502958" stroke-miterlimit="10"/>
<path d="M-3.02734 390.859L5.40225 386.836L42.8022 375.954C51.0144 376.613 119.72 382.579 128.45 383.338C128.97 383.383 129.361 383.817 129.361 384.339V385.929C129.361 386.574 129.961 387.052 130.59 386.91L198.186 371.569L218.023 376.306L236.773 376.477L251.037 381.224L262.102 382.622L270.532 376.306L336.228 381.224L358.499 374.184L387.671 371.548L429.276 336.789L447.855 320.174L462.612 321.34L500.666 281.451" stroke="#4A3021" stroke-width="0.502958" stroke-miterlimit="10"/>
<path d="M-4.30469 252.82H87.2338L48.6642 322.229L-4.30469 325.246" stroke="#4A3021" stroke-width="0.502958"/>
<rect x="563.031" y="433.068" width="6.0355" height="60.8256" transform="rotate(-21.4068 563.031 433.068)" fill="#4A3021"/>
</g>
<defs>
<clipPath id="clip0_5617_10977">
<rect width="788" height="675" fill="white"/>
</clipPath>
</defs>
</svg>
