<svg width="777" height="675" viewBox="0 0 777 675" fill="none" xmlns="http://www.w3.org/2000/svg">
<path d="M-2.08984 -2.5V673.5H776.91C776.91 673.5 762.64 626.2 770 615.24C765.93 615.08 761.39 611.95 759 611.01C756.61 610.07 754.14 600.19 746.31 593.61C738.48 587.03 717.86 574.11 712.5 570.68C707.14 567.25 679.33 551.2 669.43 540.49C659.53 529.78 643.18 514.49 626.85 485.06C610.52 455.63 588.29 423.3 582.67 393.53C577.05 363.76 574.9 356.53 578.92 345.28C582.94 334.03 585.34 320.91 592.31 320.91C599.28 320.91 600.88 329.97 603.71 329.14C606.54 328.31 607.54 323.97 610.88 324.64C614.22 325.31 615.71 327.64 618.37 326.31C621.03 324.98 625.03 316.98 630.37 316.65C635.71 316.32 641.7 316.98 643.7 320.48C645.7 323.98 646.03 329.97 649.7 328.14C653.37 326.31 654.86 324.64 654.03 319.48C653.2 314.32 651.36 309.98 656.53 308.48C661.7 306.98 665.02 305.41 666.35 302.7C667.68 299.99 676.35 303.7 678.85 301.82C681.35 299.94 684.01 301.49 686.85 299.32C689.69 297.15 689.35 296.16 683.02 291.99C676.69 287.82 674.52 278.17 673.19 274.17C671.86 270.17 666.7 266.17 663.03 267.51C659.36 268.85 653.7 272.84 654.54 277.83C655.38 282.82 657.7 290.16 654.04 291.99C650.38 293.82 647.04 295.82 642.88 291.49C638.72 287.16 640.38 284.16 634.72 280.83C629.06 277.5 625.39 274.17 618.56 277.5C611.73 280.83 610.4 281.5 606.9 275.84C603.4 270.18 599.74 260.35 594.24 257.01C588.74 253.67 582.91 251.18 580.41 252.35C577.91 253.52 573.58 258.18 571.75 259.68C569.92 261.18 564.42 260.18 562.75 261.18C561.08 262.18 559.25 266.67 558.92 269.01C558.59 271.35 557.25 277.5 553.92 279.01C550.59 280.52 546.09 286.67 546.42 289.34C546.75 292.01 540.76 290.34 539.1 291.84C537.44 293.34 533.43 299.5 535.93 300.84C537.027 301.453 538.284 301.717 539.535 301.598C540.785 301.478 541.97 300.98 542.93 300.17C544.43 298.68 550.26 298.84 551.09 301.67C551.92 304.5 557.09 305.17 561.75 305.84C566.41 306.51 572.75 309.34 571.58 315.67C570.41 322 570.58 332.67 567.41 331.49C564.24 330.31 562.75 321.33 562.75 319.33C562.75 317.33 558.92 317.66 556.58 321.66C554.25 317.66 557.25 312.5 554.09 312.33C550.93 312.16 549.59 316.5 549.76 320.5C549.93 324.5 543.09 330.32 542.59 330.32C542.09 330.32 539.93 325.83 539.1 328.32C538.27 330.81 541.76 332.99 537.43 333.49C533.1 333.99 528.43 333.99 528.77 336.65C529.11 339.31 530.77 347.31 528.1 350.15C525.43 352.99 520.1 358.31 509.78 356.47C499.46 354.63 477.96 346.98 463.97 334.65C449.98 322.32 441.49 311.17 435.16 298.34C428.83 285.51 428.33 279.19 428.33 275.19C428.33 271.19 433.16 268.86 437.49 271.19C441.82 273.52 444.49 273.19 446.32 269.53C448.15 265.87 447.65 263.2 445.82 259.87C443.99 256.54 440.15 249.87 445.48 245.71C450.81 241.55 451.65 240.38 456.98 244.04C462.31 247.7 464.31 247.87 465.14 245.87C465.626 244.539 465.661 243.085 465.24 241.732C464.819 240.379 463.965 239.201 462.81 238.38C459.98 236.38 464.64 238.71 464.64 232.71C464.64 226.71 462.64 209.56 469.8 208.56C469.8 208.56 475.63 210.06 476.63 206.23C477.63 202.4 483.7 208.07 486.05 206.04C488.4 204.01 491.19 202.29 493.05 199.62C494.91 196.95 504.82 196.09 509.85 197.16C514.88 198.23 517.55 189.16 514.98 185.61C512.41 182.06 511.34 185.29 502.04 177.91C500.86 177.48 497.65 177.37 498.72 181.33C496.16 181.76 493.59 180.47 491.02 182.08C488.45 183.69 489.1 187.21 485.02 186.36C480.94 185.51 477.02 183.47 472.94 178.44C472.3 177.37 470.48 181.76 466.74 177.8C463 173.84 462.14 170.21 459.46 170.96C456.78 171.71 451.33 172.88 452.73 178.12C453.47 179.62 453.37 181.44 448.98 180.58C444.59 179.72 443.53 179.58 441.82 176.09C439.14 175.45 441.07 176.62 434.22 176.73C427.37 176.84 429.94 177.73 427.59 179.19C425.24 180.65 422.24 184.11 416.79 177.91C415.51 176.41 415.08 175.23 410.59 173.52C406.1 171.81 407.38 174.38 399.89 167.32C392.4 160.26 394.01 159.56 390.09 160.77C386.17 161.98 348.54 99.83 348.54 99.83L324.01 60.58C324.01 60.58 320.01 55.3 327.95 54.34C330.22 54.58 326.17 37.77 320.52 31.26C318.64 29.96 322.38 29.47 321.41 27.97C320.44 26.47 320.18 25.77 318.06 26.13C315.94 26.49 313.31 26.39 310.06 20.67C306.81 14.95 306.8 14.33 305.13 15.21C303.46 16.09 298.13 17.85 298.97 22.96C299.81 28.07 301.78 36.16 300.9 38.45C300.02 40.74 304.78 39.6 304.78 39.6C304.78 39.6 308.3 45.41 303.28 47.87C298.26 50.33 288.75 57.29 273.73 53.57C258.71 49.85 249.28 45.32 250.62 55.16C250.55 56.26 257.17 62.58 250.62 66.95C244.07 71.32 245.62 72.35 240.34 72.65C235.06 72.95 234.77 77.37 232.49 77.49C230.744 77.6391 228.991 77.6758 227.24 77.6C224.73 77.49 227.24 74.29 232.72 72.35C238.2 70.41 240.72 70.3 241.95 67.45C243.18 64.6 246.86 62.09 246.06 60.38C245.26 58.67 242.98 60.49 241.61 61.86C240.24 63.23 238.61 67.68 236.48 65.86C234.35 64.04 237.05 61.07 241.27 58.11C245.49 55.15 249.59 52.98 249.71 49.22C249.83 45.46 248.11 45 243.89 43.4C239.67 41.8 225.19 28.12 224.89 22.64C224.59 17.16 226.37 17.4 222.61 16.49C218.85 15.58 218.16 16.03 214.85 12.04C211.54 8.04998 211.2 14.32 211.32 15.46C211.44 16.6 209.38 18.88 202.08 13.29C194.78 7.69998 193.08 7.13998 190.08 3.59998C187.08 0.0599756 182.89 0.599995 181.64 2.12C180.39 3.64 182.09 6.12003 178.9 6.34003C176.501 6.44672 174.097 6.32951 171.72 5.98999C170.23 5.87999 170.12 1.43002 175.02 0.52002C179.92 -0.389981 176.96 -2.47998 176.96 -2.47998L-2.08984 -2.5Z" fill="white"/>
<path d="M519.369 178.27C519.369 178.27 530.279 191.56 531.069 185.21C531.859 178.86 538.069 175.34 531.869 169.16C525.669 162.98 524.129 162.39 522.939 167.16C521.749 171.93 517.089 175.63 519.369 178.27Z" fill="white"/>
<path d="M9.60846 -1.13C9.60846 -1.13 2.66845 -1.28 5.08845 1.74C7.50845 4.75999 8.70847 4.73998 5.23847 6.40998C1.76847 8.07998 -5.62154 14.25 0.108464 13.05C5.83846 11.85 14.5885 9.28 16.3985 8.37C18.2085 7.46 18.5086 3.84996 22.5786 9.57996C26.6486 15.31 28.9085 15.16 28.9085 21.49C28.9085 27.82 31.4785 31.29 25.7485 32.65C25.2885 34.31 22.8785 44.57 26.6485 50.45C30.4185 56.33 29.8185 59.34 30.5685 61.61C31.3185 63.88 46.0985 75.48 46.0985 75.48L54.2285 83.61C54.2285 83.61 86.6385 89.32 91.2285 85.04C95.8185 80.76 106.779 70.78 106.779 74.67C106.779 78.56 100.559 87.11 104.449 92.17C108.339 97.23 110.448 101.5 112.098 101.5C113.748 101.5 129.729 95.41 131.289 98.5C132.849 101.59 140.359 100.32 148.398 93.71C150.078 92.54 152.929 93.84 156.689 92.41C160.449 90.98 159.419 85.8 160.189 84.76C160.959 83.72 168.189 84.11 170.309 79.76C172.429 75.41 173.808 71.59 171.858 66.4C174.578 65.11 179.768 64.59 178.598 57.46C177.428 50.33 177.248 53.31 178.768 48.38C180.288 43.45 186.638 34.8999 177.768 32.57C175.568 30.75 179.199 26.35 175.439 22.98C171.679 19.61 175.958 18.83 176.088 16.23C176.218 13.63 176.479 10.01 170.898 11.05C166.098 11.9351 161.406 13.3261 156.898 15.2C151.458 17.27 150.679 18.83 147.959 16.62C145.239 14.41 144.329 18.96 144.329 18.96C144.329 18.96 141.738 19.96 139.008 15.85C136.678 15.85 127.739 18.18 123.199 15.33C118.659 12.48 110.879 6.12 108.199 2.49C106.899 3.00999 109.889 9.10001 107.939 9.75C105.989 10.4 103.939 11.75 104.049 13.64C104.159 15.53 100.809 14.29 97.8286 14.94C94.8486 15.59 96.5285 19.61 93.9385 19.99C91.3485 20.37 87.7186 20.51 87.3286 17.4C86.9386 14.29 87.4585 20.51 85.1285 21.4C82.7985 22.29 78.3885 21.01 78.1285 23.34C77.8685 25.67 74.6286 25.42 73.1986 24.51C71.7686 23.6 74.4985 26.84 70.6085 26.59C66.7185 26.34 67.2385 26.07 67.1085 22.18C66.9785 18.29 64.6385 23.86 63.7385 21.66C62.8385 19.46 64.1285 15.44 67.1085 15.83C70.0885 16.22 74.3685 15.31 75.3985 11.83C76.4285 8.34996 73.3285 1.45996 78.5085 1.32996C83.6885 1.19996 86.6785 1.96998 88.7585 1.96998C90.8385 1.96998 92.7585 -0.190032 89.5285 -1.10003C86.2985 -2.01003 72.0285 -2 72.0285 -2C72.0285 -2 74.8885 4.70001 72.6785 7.94001C70.4685 11.18 70.4785 13.64 68.3985 12.73C66.3185 11.82 56.3985 -2 53.1085 -2C49.8185 -2 9.60846 -1.13 9.60846 -1.13Z" fill="#DBDBDB"/>
<path d="M13.8702 131.94C13.8702 131.94 21.6202 125.18 26.5902 130.15C31.5602 135.12 36.7201 135.71 38.7001 131.94C40.6801 128.17 43.2702 131.66 41.8802 134.38C40.4902 137.1 40.2902 141.67 44.2702 143.26C48.2502 144.85 54.8001 152.8 50.8201 152.8C46.8401 152.8 43.6702 151.8 41.4802 148.43C39.2902 145.06 38.1102 142.23 34.4802 140.56C30.8502 138.89 26.7302 133.331 27.3302 135.911C27.9302 138.491 22.9602 141.91 26.1402 143.26C29.3202 144.61 34.8801 145.45 34.0802 149.02C33.2802 152.59 30.5102 154.39 31.0802 157.17C31.6502 159.95 35.2602 164.72 37.2402 167.1C39.2202 169.48 41.6102 172.271 38.6302 171.471C35.6502 170.671 35.2602 172.221 31.8802 169.161C28.5002 166.101 25.7201 158.96 24.9301 154.98C24.1401 151 12.8802 136.51 13.8702 131.94Z" fill="#DBDBDB"/>
<path d="M166.278 671.63C166.278 671.63 200.718 653.13 204.938 647.82C209.158 642.51 223.618 635.73 232.938 634.26C242.258 632.79 251.258 630.6 256.018 626.39C260.778 622.18 268.478 625.47 269.578 627.85C270.678 630.23 278.578 635 282.948 636.46C287.318 637.92 295.218 640.46 301.078 637.56C306.938 634.66 313.538 625.29 318.298 626.2C323.058 627.11 331.298 629.87 335.518 629.5C339.738 629.13 348.708 627.12 352.008 620.71C355.308 614.3 359.448 604.59 363.828 604.21C368.208 603.83 373.718 602.71 375.828 605.59C377.938 608.47 385.928 617.05 387.368 625.32C388.808 633.59 404.578 606.09 407.268 604.75C409.958 603.41 412.648 599.94 413.998 595.52C415.348 591.1 413.808 582.45 417.998 584.76C422.188 587.07 429.728 590.53 432.418 587.07C435.108 583.61 439.148 579.38 442.028 581.3C444.908 583.22 446.258 578.8 446.448 577.45C446.638 576.1 452.368 577.01 454.178 578.64C455.988 580.27 456.358 576.34 458.708 574.86C461.058 573.38 463.418 567.41 471.708 565.06C479.998 562.71 489.268 550.57 489.448 549.13C489.628 547.69 492.708 548.76 495.788 546.59C498.868 544.42 503.208 540.25 499.048 531.74C494.888 523.23 502.308 521.6 503.758 521.6C505.208 521.6 509.548 522.33 509.908 523.6C510.268 524.87 514.798 522.88 515.908 519.26C517.018 515.64 524.238 510.57 525.508 510.39C526.778 510.21 524.058 504.95 524.598 500.97C525.138 496.99 525.688 497.71 523.508 493.91C521.328 490.11 529.508 484.91 529.508 484.91L530.778 487.44C530.778 487.44 524.618 489.44 525.158 491.24C525.698 493.04 527.878 497.76 527.158 501.24C526.438 504.72 529.878 507.04 528.068 509.93C526.258 512.82 521.908 514.46 520.648 515.73C519.388 517 517.028 522.61 514.308 524.73C511.588 526.85 508.308 528.17 507.428 526.18C506.548 524.19 506.328 522.58 503.918 523.59C501.508 524.6 499.098 525.23 499.258 527.02C499.418 528.81 500.498 530.67 501.198 532.23C501.898 533.79 502.368 533.94 502.198 537.9C502.028 541.86 501.428 543.9 499.788 545.68C498.148 547.46 490.928 551.05 489.598 552.37C487.359 554.77 485.281 557.316 483.378 559.99C481.278 562.99 480.818 563.73 478.718 564.35C476.353 564.918 474.036 565.67 471.788 566.6C468.788 567.92 467.668 572.2 464.948 573.45C462.228 574.7 458.488 576.21 458.488 578.29C458.488 580.37 457.868 582.08 456.008 581.61C454.148 581.14 453.828 579.12 451.808 579.12C449.788 579.12 449.388 581.19 447.528 583.35C445.668 585.51 445.528 583.84 443.168 583.35C440.808 582.86 435.778 586.51 434.308 588.22C432.838 589.93 431.658 590.56 426.678 590.01C421.698 589.46 419.058 586.36 418.278 587.45C417.498 588.54 417.578 593.45 416.888 595.22C416.198 596.99 413.768 600.67 412.888 602.46C412.008 604.25 408.688 606.73 407.128 608.21C405.568 609.69 402.128 615.06 400.288 617.54C398.448 620.02 393.288 627.97 390.098 629.06C386.908 630.15 385.748 630.14 384.658 625.4C383.568 620.66 382.318 618.17 378.048 613.58C373.778 608.99 377.188 607.36 372.678 606.81C368.168 606.26 366.148 604.48 363.108 608.44C360.068 612.4 357.048 619.57 353.158 623.14C349.268 626.71 349.738 628.82 344.598 629.83C339.458 630.84 334.598 634.03 329.128 631.93C323.658 629.83 322.048 627.81 319.128 629.52C316.208 631.23 307.858 635.59 303.728 638.52C299.598 641.45 296.348 643.88 290.278 643.52C284.208 643.16 278.538 642.43 275.498 638.62C272.458 634.81 269.668 631.23 266.638 630.84C263.608 630.45 262.198 627.84 257.688 631.15C253.178 634.46 251.548 635.28 243.378 637.38C235.208 639.48 228.218 636.44 223.698 639.48C219.178 642.52 216.158 642.28 210.248 648.42C204.338 654.56 197.808 659.08 193.058 661.18C188.308 663.28 184.348 664.29 180.928 666.78C177.508 669.27 171.208 673.07 171.208 673.07L164.828 673.57L166.278 671.63Z" fill="#DBDBDB"/>
<path d="M542.632 330.3C542.632 330.3 542.472 332.46 544.712 335.5C546.952 338.54 551.511 343.64 551.191 348.32C550.871 353 551.441 367.89 551.191 373.85C550.941 379.81 548.662 394.7 551.252 393.53C553.842 392.36 557.882 388.53 560.002 395.53C562.122 402.53 564.292 406.71 560.002 409.26C555.712 411.81 555.001 412.84 551.081 414.49C547.161 416.14 546.852 421.31 542.612 423.73C538.372 426.15 538.222 431.23 532.842 434.22C527.462 437.21 518.941 444.68 515.051 446.78C511.161 448.88 511.221 449.71 512.921 449.86C514.621 450.01 519.692 448.79 520.152 450.63C520.612 452.47 523.232 452.94 523.392 450.63C523.552 448.32 520.772 445.09 525.232 442.93C529.692 440.77 536.322 435.54 539.092 434.47C541.862 433.4 542.322 424.31 545.092 424.47C547.862 424.63 548.632 421.54 550.632 419.39C552.632 417.24 558.292 413.54 562.462 417.08C566.632 420.62 568.801 421.08 565.411 426.01C562.021 430.94 560.642 435.4 559.252 440.33C557.862 445.26 555.861 443.56 555.551 447.26C555.241 450.96 556.631 453.57 552.941 458.03C549.251 462.49 546.621 460.8 545.701 463.88C544.781 466.96 547.552 470.66 546.472 473.58C545.392 476.5 542.312 480.36 540.772 483.75C540.125 485.39 539.942 487.176 540.242 488.913C540.542 490.65 541.313 492.272 542.472 493.6C544.472 495.6 550.171 496.68 550.171 499.3C550.171 501.92 545.852 513 547.242 514.54C548.632 516.08 557.832 512.34 561.652 515.96C565.472 519.58 570.371 522.54 572.071 524.03C573.771 525.52 575.072 532.11 575.262 534.45C575.452 536.79 576.532 555.91 576.962 560.16C577.392 564.41 576.532 569.52 578.232 570.37C579.932 571.22 578.962 561.72 578.962 558.16C578.962 554.6 578.761 544.02 578.671 539.69C578.581 535.36 577.031 527.56 574.531 524C572.031 520.44 566.641 519 565.531 516.88C564.421 514.76 556.352 511.52 551.772 513.03C547.192 514.54 549.272 508.12 550.522 506.03C551.772 503.94 553.982 499.03 549.752 495.73C545.522 492.43 540.222 490.11 543.112 484.84C546.002 479.57 548.212 479.37 549.462 475.43C550.712 471.49 546.862 468.21 549.852 467.25C552.842 466.29 559.181 463.11 559.081 460.32C558.981 457.53 559.951 452.65 559.081 450.38C558.211 448.11 558.791 446.56 560.431 443.38C562.071 440.2 562.162 432.9 565.242 430.88C568.322 428.86 568.612 427.88 569.962 429.24C571.312 430.6 576.692 432.13 578.622 436.55C580.552 440.97 581.792 452.24 585.742 452.91C589.692 453.58 589.491 455.99 589.681 453.58C589.871 451.17 586.222 453.39 584.772 446.18C583.322 438.97 579.391 435.69 580.441 431.93C581.491 428.17 580.061 426.83 577.171 425.29C574.281 423.75 571.011 422.99 569.671 418.94C568.331 414.89 567.072 413.36 566.972 406.94C566.835 401.456 565.728 396.038 563.701 390.94C562.351 387.77 558.512 383.53 558.022 375.74C557.532 367.95 556.871 369.1 556.581 361.59C556.291 354.08 556.202 340.81 554.372 338.4C552.542 335.99 550.542 336.48 550.722 332.82C550.902 329.16 551.892 328.59 550.722 326.09C549.714 324.109 548.554 322.21 547.252 320.41L542.632 330.3Z" fill="#DBDBDB"/>
<path d="M-2.08984 274.131C-2.08984 274.131 75.6502 261.561 118.07 278.061C160.49 294.561 193.07 296.521 209.97 293.371C226.87 290.221 289.7 300.051 308.56 290.621C327.42 281.191 344.69 301.231 361.19 310.621C377.69 320.011 386.72 324.751 383.19 340.861C379.66 356.971 434.42 427.361 457.1 445.371C479.78 463.381 497.25 575.821 493.47 590.941C489.69 606.061 510.47 673.461 516.15 673.461" stroke="#4A3021" stroke-width="3" stroke-miterlimit="10"/>
<path d="M573.379 403.289C566.519 404.169 550.159 408.739 546.989 414.019C543.819 419.299 517.439 431.959 512.919 433.179C508.399 434.399 499.669 435.179 481.029 434.599C462.389 434.019 457.089 445.409 457.089 445.409C452.019 470.409 442.169 467.559 434.949 471.519C427.729 475.479 413.689 474.789 383.069 473.519C352.449 472.249 337.579 481.179 335.879 488.829C334.179 496.479 300.589 492.659 295.879 493.929C263.989 505.409 166.629 499.929 130.879 488.829C95.1288 477.729 56.0487 493.509 42.4387 505.409C28.8287 517.309 -1.78125 488.829 -1.78125 488.829" stroke="#4A3021" stroke-width="3" stroke-miterlimit="10"/>
<path d="M300 396.284H296.496V395.6H305.268V396.284H301.764V404H300V396.284ZM306.23 395.6H308.006V399.152H312.77V395.6H314.546V404H312.77V399.836H308.006V404H306.23V395.6ZM322.284 401.852H317.82L316.776 404H315.552L319.92 395.48H321L325.116 404H323.292L322.284 401.852ZM321.96 401.168L320.1 397.196L318.156 401.168H321.96ZM318.252 393.464C317.924 393.248 317.76 393.048 317.76 392.864C317.76 392.752 317.804 392.664 317.892 392.6C317.98 392.536 318.096 392.504 318.24 392.504C318.4 392.504 318.544 392.532 318.672 392.588C318.8 392.644 318.92 392.736 319.032 392.864L320.676 394.76H320.1L318.252 393.464ZM326.14 395.6H327.892L332.464 401.552V395.6H334.096V404H332.968L327.772 397.16V404H326.14V395.6ZM335.831 395.6H337.607V399.152H342.371V395.6H344.147V404H342.371V399.836H337.607V404H335.831V395.6ZM349.26 395.6H352.668C353.892 395.6 354.836 395.804 355.5 396.212C356.172 396.612 356.508 397.272 356.508 398.192C356.508 399.104 356.18 399.764 355.524 400.172C354.868 400.58 353.916 400.784 352.668 400.784H351.036V404H349.26V395.6ZM352.692 400.088C353.372 400.088 353.884 399.948 354.228 399.668C354.572 399.388 354.744 398.896 354.744 398.192C354.744 397.504 354.572 397.016 354.228 396.728C353.892 396.432 353.38 396.284 352.692 396.284H351.036V400.088H352.692ZM357.64 395.6H359.416V399.152H364.18V395.6H365.956V404H364.18V399.836H359.416V404H357.64V395.6ZM372.218 404.12C371.234 404.12 370.382 403.948 369.662 403.604C368.95 403.26 368.406 402.764 368.03 402.116C367.654 401.46 367.466 400.676 367.466 399.764C367.466 398.868 367.654 398.1 368.03 397.46C368.414 396.82 368.962 396.332 369.674 395.996C370.386 395.652 371.234 395.48 372.218 395.48C373.194 395.48 374.034 395.652 374.738 395.996C375.45 396.332 375.994 396.82 376.37 397.46C376.754 398.1 376.946 398.868 376.946 399.764C376.946 400.676 376.758 401.46 376.382 402.116C376.006 402.764 375.462 403.26 374.75 403.604C374.038 403.948 373.194 404.12 372.218 404.12ZM372.218 403.436C373.162 403.436 373.886 403.124 374.39 402.5C374.894 401.868 375.146 400.956 375.146 399.764C375.146 398.596 374.894 397.704 374.39 397.088C373.886 396.472 373.162 396.164 372.218 396.164C371.266 396.164 370.534 396.476 370.022 397.1C369.518 397.716 369.266 398.604 369.266 399.764C369.266 400.956 369.518 401.868 370.022 402.5C370.526 403.124 371.258 403.436 372.218 403.436ZM374.486 391.844C374.638 391.652 374.822 391.556 375.038 391.556C375.166 391.556 375.266 391.584 375.338 391.64C375.418 391.696 375.458 391.772 375.458 391.868C375.458 391.948 375.406 392.044 375.302 392.156C375.206 392.26 375.042 392.404 374.81 392.588L373.97 393.236H373.43L374.486 391.844ZM371.702 392.828H372.734L374.33 394.76H373.478L372.218 393.572L370.958 394.76H370.106L371.702 392.828ZM310.167 411.6C311.791 411.6 313.031 411.948 313.887 412.644C314.751 413.332 315.183 414.336 315.183 415.656C315.183 417.064 314.759 418.14 313.911 418.884C313.063 419.628 311.839 420 310.239 420H306.687V415.956H305.775V415.296H306.687V411.6H310.167ZM310.407 419.316C311.383 419.316 312.123 419.008 312.627 418.392C313.131 417.768 313.383 416.856 313.383 415.656C313.383 414.552 313.131 413.716 312.627 413.148C312.123 412.572 311.383 412.284 310.407 412.284H308.463V415.296H310.587V415.956H308.463V419.316H310.407ZM322.226 417.852H317.762L316.718 420H315.494L319.862 411.48H320.942L325.058 420H323.234L322.226 417.852ZM321.902 417.168L320.042 413.196L318.098 417.168H321.902ZM318.194 409.464C317.866 409.248 317.702 409.048 317.702 408.864C317.702 408.752 317.746 408.664 317.834 408.6C317.922 408.536 318.038 408.504 318.182 408.504C318.342 408.504 318.486 408.532 318.614 408.588C318.742 408.644 318.862 408.736 318.974 408.864L320.618 410.76H320.042L318.194 409.464ZM329.468 411.6H331.22L335.792 417.552V411.6H337.424V420H336.296L331.1 413.16V420H329.468V411.6ZM345.159 417.852H340.695L339.651 420H338.427L342.795 411.48H343.875L347.991 420H346.167L345.159 417.852ZM344.835 417.168L342.975 413.196L341.031 417.168H344.835ZM341.355 408.432C341.387 408.104 341.499 407.848 341.691 407.664C341.891 407.48 342.131 407.388 342.411 407.388C342.555 407.388 342.703 407.416 342.855 407.472C343.007 407.528 343.199 407.608 343.431 407.712C343.575 407.776 343.719 407.836 343.863 407.892C344.007 407.948 344.131 407.976 344.235 407.976C344.395 407.976 344.539 407.928 344.667 407.832C344.803 407.736 344.899 407.6 344.955 407.424L345.231 407.556C345.095 408.284 344.739 408.648 344.163 408.648C344.027 408.648 343.887 408.624 343.743 408.576C343.607 408.52 343.419 408.436 343.179 408.324C342.979 408.228 342.815 408.156 342.687 408.108C342.559 408.06 342.443 408.036 342.339 408.036C342.171 408.036 342.023 408.084 341.895 408.18C341.767 408.268 341.679 408.396 341.631 408.564L341.355 408.432ZM343.311 410.856C342.687 410.856 342.187 410.692 341.811 410.364C341.435 410.036 341.235 409.604 341.211 409.068H341.715C341.755 409.396 341.919 409.668 342.207 409.884C342.495 410.092 342.863 410.196 343.311 410.196C343.759 410.196 344.127 410.092 344.415 409.884C344.703 409.668 344.867 409.396 344.907 409.068H345.411C345.387 409.604 345.187 410.036 344.811 410.364C344.435 410.692 343.935 410.856 343.311 410.856ZM349.015 411.6H350.767L355.339 417.552V411.6H356.971V420H355.843L350.647 413.16V420H349.015V411.6ZM363.35 420.12C362.35 420.12 361.482 419.948 360.746 419.604C360.018 419.26 359.458 418.764 359.066 418.116C358.674 417.468 358.478 416.7 358.478 415.812C358.478 414.932 358.674 414.168 359.066 413.52C359.458 412.864 360.018 412.364 360.746 412.02C361.474 411.668 362.334 411.492 363.326 411.492C364.51 411.492 365.478 411.744 366.23 412.248C366.982 412.752 367.426 413.444 367.562 414.324H366.146C366.002 413.636 365.69 413.108 365.21 412.74C364.73 412.364 364.114 412.176 363.362 412.176C362.394 412.176 361.638 412.496 361.094 413.136C360.55 413.768 360.278 414.656 360.278 415.8C360.278 416.944 360.546 417.836 361.082 418.476C361.626 419.116 362.386 419.436 363.362 419.436C363.794 419.436 364.186 419.392 364.538 419.304C364.89 419.208 365.25 419.052 365.618 418.836V416.208H362.726V415.572H367.394V418.872C366.954 419.264 366.374 419.572 365.654 419.796C364.934 420.012 364.166 420.12 363.35 420.12Z" fill="#4A3021"/>
<path d="M477.643 426.765H474.419L473.691 428.221H473.131L476.043 422.541H476.475L479.219 428.221H478.323L477.643 426.765ZM477.459 426.381L476.083 423.437L474.611 426.381H477.459ZM479.885 422.621H480.717V425.029H484.309V422.621H485.141V428.221H484.309V425.405H480.717V428.221H479.885V422.621ZM488.426 423.853H486.97V423.541C487.365 423.53 487.704 423.447 487.986 423.293C488.269 423.133 488.474 422.909 488.602 422.621H489.242V428.221H488.426V423.853ZM492.813 428.221C492.813 427.799 492.871 427.397 492.989 427.013C493.111 426.623 493.306 426.215 493.573 425.789C493.845 425.362 494.21 424.877 494.669 424.333C494.973 423.975 495.183 423.698 495.301 423.501C495.423 423.303 495.487 423.13 495.493 422.981H491.693V422.621H496.421C496.421 422.834 496.349 423.061 496.205 423.301C496.066 423.541 495.797 423.895 495.397 424.365C494.762 425.117 494.311 425.781 494.045 426.357C493.783 426.933 493.653 427.554 493.653 428.221H492.813Z" fill="#4A3021"/>
<path d="M124.751 296.639C123.821 296.425 123.162 296.016 122.776 295.412C122.39 294.808 122.302 294.052 122.511 293.142C122.716 292.254 123.122 291.625 123.727 291.255C124.337 290.887 125.105 290.81 126.03 291.023C126.783 291.197 127.36 291.497 127.76 291.923C128.16 292.349 128.338 292.855 128.296 293.442L127.595 293.28C127.609 292.813 127.474 292.415 127.188 292.087C126.904 291.753 126.502 291.526 125.983 291.406C125.307 291.25 124.739 291.338 124.28 291.67C123.825 292.003 123.509 292.557 123.33 293.331C123.148 294.121 123.189 294.771 123.455 295.281C123.722 295.786 124.195 296.117 124.876 296.274C125.396 296.394 125.853 296.368 126.249 296.197C126.644 296.025 126.938 295.723 127.131 295.292L127.832 295.453C127.613 296 127.231 296.377 126.685 296.584C126.139 296.792 125.494 296.811 124.751 296.639ZM132.53 296.857L129.388 296.133L128.352 297.388L127.806 297.262L131.92 292.382L132.341 292.479L133.738 298.63L132.865 298.429L132.53 296.857ZM132.437 296.442L131.758 293.264L129.662 295.802L132.437 296.442ZM136.78 299.414C136.167 299.272 135.665 299.039 135.275 298.714C134.885 298.388 134.621 297.988 134.484 297.513C134.349 297.033 134.349 296.497 134.486 295.905C134.62 295.323 134.852 294.851 135.182 294.489C135.513 294.122 135.925 293.88 136.417 293.764C136.909 293.647 137.461 293.66 138.075 293.801C138.688 293.943 139.188 294.173 139.574 294.492C139.965 294.812 140.229 295.21 140.366 295.684C140.504 296.154 140.506 296.68 140.372 297.262C140.235 297.855 140.001 298.337 139.668 298.709C139.337 299.076 138.925 299.32 138.432 299.442C137.944 299.565 137.393 299.555 136.78 299.414ZM136.866 299.04C137.542 299.196 138.113 299.103 138.581 298.762C139.048 298.421 139.372 297.858 139.553 297.073C139.73 296.304 139.683 295.669 139.41 295.168C139.143 294.663 138.669 294.333 137.988 294.175C137.308 294.018 136.735 294.105 136.27 294.436C135.805 294.767 135.483 295.319 135.305 296.093C135.124 296.878 135.168 297.526 135.439 298.037C135.71 298.549 136.186 298.883 136.866 299.04ZM145.788 296.057L143.481 295.524L143.567 295.15L148.985 296.4L148.898 296.774L146.599 296.244L145.426 301.326L144.616 301.139L145.788 296.057ZM151.153 302.729C150.539 302.588 150.038 302.354 149.648 302.029C149.257 301.704 148.994 301.303 148.857 300.829C148.722 300.348 148.722 299.812 148.859 299.22C148.993 298.638 149.225 298.166 149.555 297.804C149.886 297.437 150.297 297.195 150.789 297.079C151.281 296.963 151.834 296.975 152.447 297.117C153.06 297.258 153.56 297.488 153.946 297.807C154.338 298.127 154.602 298.525 154.739 299C154.877 299.469 154.878 299.995 154.744 300.577C154.608 301.17 154.373 301.652 154.041 302.024C153.71 302.391 153.298 302.636 152.805 302.757C152.317 302.88 151.766 302.871 151.153 302.729ZM151.239 302.355C151.915 302.511 152.486 302.418 152.953 302.077C153.421 301.736 153.745 301.173 153.926 300.389C154.103 299.619 154.055 298.984 153.782 298.484C153.515 297.979 153.042 297.648 152.361 297.491C151.68 297.334 151.107 297.42 150.642 297.751C150.178 298.082 149.856 298.634 149.677 299.409C149.496 300.193 149.541 300.841 149.812 301.353C150.082 301.864 150.558 302.198 151.239 302.355ZM154.485 295.189C154.622 295.09 154.741 295.051 154.84 295.074C154.907 295.09 154.957 295.12 154.991 295.166C155.025 295.207 155.036 295.256 155.022 295.313C155.01 295.365 154.973 295.411 154.909 295.451C154.845 295.491 154.733 295.547 154.574 295.62L153.773 295.961L153.516 295.902L154.485 295.189ZM152.557 295.393L153.103 295.519L153.795 296.935L153.413 296.847L152.746 295.823L151.698 296.451L151.316 296.363L152.557 295.393ZM157.843 304.272C156.913 304.058 156.254 303.649 155.868 303.045C155.482 302.442 155.394 301.685 155.603 300.776C155.808 299.887 156.214 299.258 156.819 298.888C157.429 298.52 158.197 298.443 159.122 298.656C159.875 298.83 160.452 299.13 160.852 299.556C161.252 299.982 161.43 300.489 161.388 301.075L160.687 300.914C160.701 300.446 160.566 300.048 160.28 299.72C159.996 299.386 159.594 299.159 159.075 299.039C158.399 298.883 157.831 298.971 157.372 299.303C156.917 299.636 156.601 300.19 156.422 300.964C156.24 301.754 156.281 302.404 156.547 302.914C156.814 303.419 157.287 303.75 157.968 303.907C158.488 304.027 158.945 304.001 159.341 303.83C159.736 303.658 160.03 303.356 160.223 302.925L160.924 303.087C160.705 303.633 160.323 304.01 159.777 304.218C159.231 304.425 158.586 304.444 157.843 304.272ZM165.593 306.06C164.783 305.873 164.212 305.487 163.882 304.902C163.558 304.313 163.5 303.568 163.707 302.669C163.915 301.77 164.292 301.13 164.84 300.747C165.395 300.36 166.077 300.26 166.888 300.447C167.694 300.633 168.258 301.021 168.582 301.61C168.912 302.195 168.974 302.937 168.766 303.836C168.559 304.735 168.181 305.379 167.632 305.767C167.084 306.149 166.404 306.247 165.593 306.06ZM165.669 305.733C166.209 305.857 166.678 305.738 167.073 305.375C167.474 305.013 167.766 304.437 167.948 303.648C168.13 302.858 168.12 302.212 167.918 301.711C167.722 301.212 167.353 300.9 166.813 300.775C166.272 300.65 165.801 300.769 165.4 301.131C165.005 301.494 164.716 302.07 164.534 302.86C164.351 303.65 164.359 304.295 164.555 304.794C164.757 305.295 165.129 305.608 165.669 305.733ZM171.928 302.956L170.509 302.629L170.579 302.325C170.966 302.403 171.315 302.399 171.625 302.312C171.936 302.219 172.187 302.047 172.376 301.795L173 301.939L171.741 307.396L170.946 307.213L171.928 302.956Z" fill="#4A3021"/>
<path d="M502.085 616.664C501.811 615.749 501.84 614.975 502.173 614.34C502.506 613.706 503.119 613.254 504.013 612.986C504.886 612.724 505.634 612.764 506.254 613.107C506.877 613.454 507.324 614.083 507.597 614.992C507.82 615.733 507.845 616.382 507.673 616.941C507.501 617.499 507.149 617.905 506.619 618.159L506.412 617.47C506.825 617.251 507.103 616.936 507.247 616.525C507.396 616.113 507.394 615.652 507.241 615.141C507.042 614.477 506.684 614.027 506.168 613.792C505.653 613.563 505.016 613.562 504.254 613.791C503.478 614.024 502.934 614.382 502.623 614.865C502.316 615.347 502.263 615.923 502.464 616.592C502.618 617.102 502.867 617.487 503.212 617.745C503.557 618.004 503.964 618.11 504.435 618.063L504.642 618.753C504.059 618.833 503.542 618.688 503.091 618.316C502.64 617.945 502.304 617.394 502.085 616.664ZM505.75 623.529L504.823 620.441L503.219 620.163L503.058 619.626L509.336 620.782L509.46 621.196L504.809 625.457L504.551 624.599L505.75 623.529ZM506.065 623.242L508.489 621.078L505.246 620.515L506.065 623.242ZM505.635 628.487C505.454 627.885 505.408 627.333 505.498 626.833C505.587 626.333 505.804 625.906 506.149 625.552C506.499 625.196 506.965 624.931 507.547 624.756C508.119 624.584 508.644 624.552 509.122 624.659C509.604 624.765 510.018 625.002 510.363 625.372C510.708 625.742 510.971 626.228 511.152 626.831C511.333 627.434 511.381 627.982 511.295 628.475C511.211 628.974 510.996 629.4 510.651 629.754C510.312 630.107 509.856 630.369 509.284 630.541C508.702 630.716 508.166 630.751 507.679 630.647C507.196 630.541 506.779 630.304 506.429 629.936C506.081 629.573 505.816 629.09 505.635 628.487ZM506.003 628.377C506.202 629.041 506.566 629.491 507.094 629.728C507.621 629.965 508.271 629.968 509.042 629.736C509.798 629.509 510.326 629.153 510.626 628.668C510.932 628.186 510.985 627.611 510.784 626.941C510.583 626.272 510.224 625.818 509.706 625.578C509.189 625.338 508.55 625.332 507.788 625.561C507.017 625.792 506.477 626.152 506.167 626.641C505.857 627.129 505.802 627.708 506.003 628.377ZM513.015 634.648L512.334 632.38L512.701 632.27L514.3 637.595L513.933 637.706L513.254 635.445L508.258 636.945L508.019 636.148L513.015 634.648ZM509.877 642.614C509.696 642.012 509.65 641.46 509.739 640.96C509.829 640.46 510.046 640.033 510.39 639.679C510.74 639.323 511.206 639.058 511.789 638.883C512.361 638.711 512.886 638.679 513.363 638.786C513.846 638.892 514.26 639.129 514.605 639.499C514.95 639.869 515.213 640.355 515.394 640.958C515.575 641.561 515.622 642.109 515.536 642.602C515.452 643.101 515.238 643.527 514.893 643.881C514.554 644.234 514.098 644.496 513.526 644.668C512.943 644.843 512.408 644.878 511.92 644.774C511.437 644.668 511.021 644.431 510.671 644.063C510.323 643.7 510.058 643.217 509.877 642.614ZM510.245 642.504C510.444 643.168 510.808 643.618 511.335 643.855C511.863 644.092 512.513 644.095 513.284 643.863C514.04 643.636 514.568 643.28 514.868 642.795C515.174 642.313 515.227 641.738 515.026 641.068C514.825 640.399 514.466 639.945 513.948 639.705C513.431 639.465 512.791 639.459 512.03 639.687C511.259 639.919 510.718 640.279 510.408 640.768C510.098 641.256 510.044 641.835 510.245 642.504ZM518.077 641.773C518.232 641.843 518.324 641.927 518.353 642.024C518.373 642.09 518.371 642.149 518.348 642.201C518.329 642.251 518.292 642.284 518.236 642.301C518.185 642.317 518.126 642.306 518.06 642.271C517.993 642.235 517.889 642.166 517.747 642.064L517.054 641.537L516.978 641.284L518.077 641.773ZM516.945 640.2L517.106 640.736L516.219 642.038L516.106 641.663L516.665 640.576L515.6 639.977L515.488 639.602L516.945 640.2ZM511.851 649.19C511.577 648.276 511.606 647.501 511.939 646.867C512.272 646.232 512.885 645.781 513.779 645.512C514.653 645.25 515.4 645.29 516.02 645.633C516.643 645.981 517.09 646.609 517.363 647.518C517.586 648.259 517.611 648.909 517.439 649.467C517.267 650.025 516.916 650.432 516.385 650.686L516.178 649.996C516.591 649.777 516.87 649.463 517.014 649.052C517.163 648.64 517.161 648.178 517.007 647.667C516.808 647.003 516.45 646.554 515.934 646.319C515.42 646.089 514.782 646.088 514.021 646.317C513.244 646.55 512.7 646.908 512.389 647.392C512.082 647.873 512.03 648.449 512.231 649.118C512.384 649.629 512.633 650.013 512.978 650.272C513.323 650.53 513.731 650.636 514.201 650.59L514.408 651.279C513.825 651.36 513.308 651.214 512.857 650.843C512.406 650.472 512.071 649.921 511.851 649.19ZM514.139 656.808C513.899 656.011 513.952 655.325 514.297 654.748C514.648 654.175 515.266 653.755 516.149 653.49C517.033 653.225 517.777 653.235 518.381 653.522C518.991 653.812 519.416 654.355 519.655 655.152C519.893 655.944 519.836 656.626 519.485 657.199C519.14 657.776 518.526 658.197 517.642 658.463C516.759 658.728 516.012 658.718 515.403 658.433C514.8 658.147 514.378 657.605 514.139 656.808ZM514.461 656.712C514.62 657.243 514.955 657.59 515.467 657.754C515.98 657.923 516.624 657.891 517.401 657.658C518.177 657.425 518.733 657.097 519.068 656.673C519.405 656.255 519.493 655.78 519.334 655.249C519.174 654.717 518.838 654.367 518.325 654.198C517.814 654.034 517.17 654.069 516.393 654.302C515.617 654.535 515.06 654.861 514.724 655.279C514.389 655.703 514.301 656.18 514.461 656.712ZM519.973 660.772L519.554 659.378L519.853 659.288C519.977 659.663 520.154 659.964 520.383 660.19C520.617 660.415 520.891 660.547 521.204 660.587L521.388 661.2L516.024 662.81L515.79 662.029L519.973 660.772Z" fill="#4A3021"/>
<path d="M173.805 509.291C173.869 509.632 174.057 509.909 174.369 510.121C174.681 510.339 175.069 510.462 175.532 510.492C175.628 510.498 175.724 510.496 175.821 510.487L175.734 510.721C175.54 510.741 175.355 510.745 175.18 510.734C174.834 510.712 174.507 510.632 174.201 510.495C173.899 510.363 173.646 510.184 173.442 509.957C173.237 509.736 173.1 509.489 173.032 509.218C172.256 509.072 171.668 508.738 171.269 508.215C170.87 507.687 170.696 507.013 170.749 506.194C170.787 505.597 170.939 505.094 171.206 504.684C171.473 504.268 171.84 503.963 172.307 503.768C172.774 503.574 173.321 503.496 173.949 503.537C174.577 503.577 175.108 503.723 175.54 503.975C175.979 504.228 176.303 504.577 176.515 505.024C176.728 505.465 176.815 505.984 176.776 506.58C176.72 507.458 176.431 508.134 175.909 508.608C175.387 509.077 174.686 509.305 173.805 509.291ZM171.587 506.247C171.536 507.051 171.685 507.683 172.035 508.144C172.385 508.604 172.908 508.857 173.605 508.902C174.297 508.946 174.846 508.762 175.252 508.35C175.658 507.938 175.887 507.33 175.938 506.526C175.989 505.738 175.839 505.119 175.488 504.669C175.143 504.214 174.622 503.965 173.925 503.92C173.227 503.875 172.676 504.054 172.271 504.455C171.866 504.857 171.638 505.454 171.587 506.247ZM180.249 509.712C179.323 509.653 178.666 509.405 178.277 508.969C177.893 508.527 177.727 507.918 177.776 507.141L177.986 503.875L178.816 503.929L178.595 507.378C178.557 507.974 178.669 508.438 178.931 508.77C179.193 509.102 179.64 509.288 180.274 509.329C180.896 509.369 181.359 509.243 181.661 508.953C181.968 508.663 182.141 508.214 182.18 507.607L182.401 504.158L183.231 504.212L183.022 507.477C182.972 508.254 182.729 508.837 182.292 509.226C181.856 509.609 181.175 509.771 180.249 509.712ZM186.913 510.139C186.285 510.099 185.752 509.95 185.314 509.692C184.877 509.434 184.552 509.082 184.34 508.635C184.128 508.184 184.042 507.654 184.081 507.048C184.119 506.452 184.272 505.948 184.538 505.538C184.805 505.122 185.172 504.817 185.639 504.622C186.106 504.428 186.653 504.351 187.281 504.391C187.909 504.431 188.44 504.577 188.872 504.829C189.311 505.082 189.636 505.431 189.847 505.878C190.06 506.319 190.147 506.838 190.108 507.434C190.07 508.041 189.916 508.555 189.649 508.976C189.382 509.391 189.015 509.699 188.548 509.899C188.086 510.099 187.541 510.179 186.913 510.139ZM186.938 509.756C187.629 509.8 188.178 509.616 188.584 509.204C188.99 508.792 189.219 508.184 189.27 507.38C189.321 506.592 189.171 505.974 188.82 505.524C188.475 505.069 187.954 504.819 187.257 504.774C186.559 504.729 186.008 504.908 185.603 505.309C185.198 505.711 184.97 506.308 184.919 507.101C184.868 507.905 185.017 508.537 185.367 508.998C185.717 509.459 186.24 509.711 186.938 509.756ZM188.979 502.159C189.099 502.038 189.21 501.981 189.311 501.988C189.38 501.992 189.435 502.014 189.475 502.054C189.516 502.089 189.534 502.136 189.53 502.194C189.527 502.247 189.497 502.299 189.44 502.349C189.384 502.399 189.283 502.472 189.137 502.57L188.402 503.036L188.139 503.019L188.979 502.159ZM187.111 502.672L187.67 502.708L188.581 503.993L188.19 503.968L187.366 503.066L186.434 503.856L186.043 503.831L187.111 502.672ZM193.765 510.578C192.812 510.517 192.096 510.22 191.617 509.687C191.139 509.154 190.929 508.422 190.989 507.49C191.047 506.58 191.345 505.894 191.882 505.431C192.425 504.969 193.17 504.768 194.117 504.829C194.889 504.878 195.507 505.081 195.97 505.436C196.434 505.792 196.692 506.263 196.745 506.849L196.027 506.803C195.966 506.339 195.768 505.969 195.433 505.691C195.098 505.407 194.665 505.249 194.132 505.215C193.441 505.17 192.895 505.349 192.495 505.751C192.1 506.153 191.878 506.751 191.827 507.544C191.775 508.353 191.921 508.988 192.266 509.448C192.611 509.903 193.132 510.153 193.829 510.197C194.362 510.231 194.809 510.132 195.171 509.899C195.533 509.665 195.775 509.32 195.895 508.863L196.613 508.909C196.486 509.483 196.169 509.917 195.664 510.211C195.159 510.504 194.526 510.627 193.765 510.578ZM199.878 505.278L200.709 505.331L200.375 510.537L203.888 510.762L203.863 511.145L199.52 510.867L199.878 505.278ZM207.215 511.44C206.587 511.399 206.054 511.25 205.616 510.993C205.179 510.735 204.854 510.383 204.642 509.936C204.43 509.484 204.344 508.955 204.383 508.348C204.421 507.752 204.574 507.249 204.84 506.838C205.108 506.423 205.474 506.118 205.941 505.923C206.408 505.728 206.955 505.651 207.583 505.692C208.211 505.732 208.742 505.878 209.175 506.13C209.613 506.383 209.938 506.732 210.15 507.179C210.362 507.62 210.449 508.138 210.411 508.734C210.372 509.341 210.219 509.855 209.951 510.276C209.684 510.692 209.317 511 208.85 511.2C208.388 511.4 207.843 511.48 207.215 511.44ZM207.24 511.057C207.932 511.101 208.48 510.917 208.886 510.505C209.292 510.092 209.521 509.484 209.572 508.681C209.623 507.893 209.473 507.274 209.122 506.824C208.777 506.369 208.256 506.119 207.559 506.075C206.862 506.03 206.31 506.209 205.905 506.61C205.5 507.012 205.272 507.609 205.221 508.402C205.17 509.206 205.319 509.838 205.669 510.299C206.019 510.759 206.542 511.012 207.24 511.057ZM207.145 512.533C207.023 512.526 206.924 512.479 206.849 512.394C206.78 512.315 206.748 512.217 206.756 512.1C206.763 511.983 206.807 511.889 206.886 511.819C206.971 511.75 207.074 511.719 207.197 511.727C207.319 511.735 207.415 511.779 207.485 511.858C207.56 511.937 207.594 512.036 207.586 512.153C207.579 512.27 207.533 512.363 207.448 512.433C207.368 512.508 207.267 512.541 207.145 512.533ZM207.413 503.973L207.972 504.009L208.883 505.294L208.492 505.269L207.668 504.366L206.736 505.156L206.345 505.131L207.413 503.973ZM213.641 507.394L212.188 507.301L212.208 506.99C212.602 507.004 212.946 506.944 213.237 506.807C213.53 506.666 213.749 506.455 213.895 506.176L214.534 506.217L214.176 511.806L213.362 511.753L213.641 507.394ZM219.875 511.217L216.594 511.006L216.612 510.727L220.633 506.528L221.008 506.552L220.729 510.911L221.607 510.967L221.584 511.326L220.706 511.27L220.645 512.22L219.815 512.167L219.875 511.217ZM219.898 510.857L220.098 507.744L217.304 510.691L219.898 510.857ZM225.313 512.599C224.663 512.558 224.114 512.41 223.666 512.157C223.217 511.898 222.884 511.546 222.667 511.099C222.45 510.652 222.36 510.131 222.399 509.535C222.437 508.938 222.59 508.433 222.857 508.017C223.124 507.601 223.491 507.293 223.958 507.093C224.425 506.888 224.97 506.805 225.593 506.845C226.349 506.894 226.958 507.098 227.422 507.459C227.89 507.816 228.157 508.284 228.221 508.865L227.503 508.819C227.437 508.345 227.239 507.972 226.909 507.699C226.58 507.422 226.141 507.265 225.593 507.23C224.906 507.186 224.354 507.373 223.937 507.789C223.521 508.201 223.288 508.798 223.237 509.58C223.187 510.373 223.344 511.001 223.71 511.462C224.082 511.919 224.627 512.17 225.345 512.216C225.681 512.238 225.989 512.223 226.27 512.171C226.552 512.115 226.822 512.017 227.082 511.879L227.198 510.067L225.242 509.941L225.266 509.582L228.052 509.76L227.909 511.988C227.579 512.218 227.192 512.386 226.747 512.491C226.307 512.596 225.829 512.632 225.313 512.599Z" fill="#4A3021"/>
<path d="M454.833 488.719C455.021 487.783 455.411 487.113 456.003 486.71C456.596 486.307 457.349 486.197 458.264 486.38C459.159 486.56 459.799 486.946 460.186 487.541C460.571 488.14 460.671 488.905 460.484 489.836C460.332 490.594 460.049 491.18 459.634 491.591C459.22 492.003 458.719 492.196 458.131 492.171L458.272 491.465C458.74 491.466 459.134 491.32 459.454 491.025C459.78 490.731 459.995 490.323 460.1 489.8C460.236 489.12 460.132 488.555 459.787 488.105C459.441 487.661 458.878 487.36 458.099 487.204C457.304 487.044 456.656 487.105 456.154 487.385C455.657 487.666 455.339 488.149 455.202 488.834C455.097 489.357 455.136 489.813 455.319 490.204C455.502 490.594 455.812 490.879 456.249 491.059L456.107 491.765C455.555 491.562 455.167 491.19 454.944 490.65C454.72 490.111 454.683 489.467 454.833 488.719ZM454.839 496.501L455.473 493.34L454.189 492.34L454.299 491.791L459.295 495.763L459.21 496.187L453.101 497.76L453.278 496.882L454.839 496.501ZM455.251 496.396L458.409 495.626L455.812 493.604L455.251 496.396ZM452.405 500.823C452.529 500.206 452.748 499.698 453.062 499.298C453.376 498.899 453.768 498.624 454.239 498.474C454.715 498.324 455.251 498.31 455.847 498.429C456.433 498.547 456.911 498.765 457.283 499.084C457.659 499.405 457.912 499.809 458.043 500.297C458.173 500.786 458.177 501.339 458.053 501.956C457.929 502.573 457.713 503.079 457.405 503.474C457.097 503.875 456.707 504.15 456.236 504.3C455.771 504.452 455.245 504.469 454.659 504.351C454.063 504.232 453.574 504.011 453.193 503.69C452.816 503.37 452.56 502.965 452.425 502.475C452.288 501.991 452.281 501.44 452.405 500.823ZM452.782 500.899C452.645 501.578 452.754 502.147 453.109 502.604C453.463 503.061 454.035 503.369 454.825 503.528C455.598 503.683 456.232 503.617 456.725 503.329C457.222 503.048 457.539 502.565 457.676 501.88C457.814 501.195 457.71 500.625 457.367 500.17C457.023 499.715 456.461 499.409 455.682 499.253C454.893 499.094 454.246 499.158 453.743 499.443C453.24 499.728 452.919 500.213 452.782 500.899ZM456.02 509.731L456.486 507.409L456.862 507.485L455.769 512.936L455.392 512.86L455.856 510.547L450.742 509.521L450.906 508.705L456.02 509.731ZM449.504 515.285C449.628 514.668 449.847 514.16 450.161 513.76C450.475 513.361 450.867 513.086 451.338 512.936C451.814 512.786 452.35 512.772 452.946 512.891C453.532 513.009 454.01 513.227 454.381 513.546C454.758 513.866 455.011 514.271 455.142 514.759C455.272 515.248 455.276 515.801 455.152 516.418C455.028 517.035 454.812 517.541 454.504 517.936C454.196 518.337 453.806 518.612 453.335 518.762C452.87 518.914 452.344 518.931 451.758 518.813C451.162 518.694 450.673 518.473 450.292 518.152C449.915 517.831 449.659 517.427 449.524 516.937C449.387 516.453 449.38 515.902 449.504 515.285ZM449.881 515.36C449.744 516.04 449.853 516.609 450.208 517.066C450.562 517.523 451.134 517.831 451.924 517.99C452.697 518.145 453.331 518.079 453.824 517.791C454.321 517.51 454.638 517.027 454.775 516.342C454.913 515.657 454.809 515.087 454.466 514.632C454.122 514.177 453.56 513.871 452.781 513.715C451.991 513.556 451.345 513.62 450.842 513.905C450.338 514.19 450.018 514.675 449.881 515.36ZM457.137 518.399C457.24 518.534 457.282 518.651 457.262 518.75C457.249 518.818 457.219 518.87 457.174 518.904C457.134 518.94 457.086 518.952 457.028 518.94C456.976 518.93 456.929 518.893 456.887 518.83C456.845 518.767 456.786 518.658 456.708 518.501L456.345 517.71L456.397 517.451L457.137 518.399ZM456.878 516.478L456.767 517.027L455.372 517.759L455.449 517.375L456.454 516.679L455.795 515.649L455.873 515.265L456.878 516.478ZM448.154 522.017C448.342 521.081 448.732 520.411 449.324 520.008C449.916 519.604 450.67 519.494 451.585 519.678C452.479 519.857 453.119 520.244 453.506 520.838C453.892 521.438 453.991 522.203 453.804 523.134C453.652 523.892 453.369 524.477 452.955 524.889C452.54 525.301 452.039 525.494 451.451 525.469L451.593 524.763C452.06 524.764 452.454 524.617 452.775 524.322C453.1 524.029 453.315 523.62 453.42 523.098C453.556 522.418 453.452 521.853 453.107 521.403C452.761 520.958 452.199 520.658 451.42 520.501C450.625 520.342 449.976 520.402 449.474 520.682C448.977 520.963 448.66 521.446 448.522 522.131C448.418 522.654 448.457 523.111 448.639 523.501C448.822 523.891 449.132 524.177 449.569 524.357L449.428 525.063C448.875 524.859 448.488 524.488 448.264 523.948C448.041 523.408 448.004 522.764 448.154 522.017ZM446.589 529.815C446.753 529 447.123 528.418 447.698 528.071C448.278 527.731 449.02 527.651 449.925 527.833C450.829 528.014 451.481 528.373 451.879 528.91C452.281 529.453 452.401 530.133 452.237 530.948C452.074 531.759 451.703 532.334 451.124 532.675C450.548 533.022 449.808 533.105 448.903 532.923C447.999 532.742 447.345 532.382 446.941 531.844C446.543 531.307 446.426 530.631 446.589 529.815ZM446.919 529.881C446.81 530.425 446.942 530.89 447.317 531.275C447.69 531.665 448.274 531.94 449.069 532.1C449.863 532.259 450.508 532.231 451.003 532.014C451.497 531.803 451.798 531.426 451.907 530.882C452.017 530.338 451.885 529.871 451.511 529.481C451.137 529.096 450.553 528.824 449.758 528.664C448.963 528.505 448.319 528.53 447.825 528.741C447.33 528.958 447.028 529.338 446.919 529.881ZM446.041 532.955C446.42 533.075 446.741 533.33 447.006 533.72C447.27 534.11 447.511 534.684 447.729 535.44C447.866 535.897 448.002 536.262 448.138 536.534C448.274 536.806 448.426 537.013 448.593 537.155C448.765 537.299 448.972 537.395 449.212 537.443C449.631 537.527 449.975 537.465 450.245 537.258C450.52 537.052 450.705 536.714 450.799 536.243C450.897 535.757 450.851 535.348 450.662 535.016C450.477 534.691 450.174 534.481 449.752 534.385L449.894 533.679C450.415 533.849 450.787 534.174 451.012 534.654C451.237 535.134 451.283 535.701 451.152 536.355C451.063 536.8 450.917 537.175 450.714 537.483C450.51 537.796 450.263 538.021 449.975 538.159C449.686 538.297 449.379 538.333 449.055 538.268C448.788 538.214 448.556 538.1 448.357 537.924C448.164 537.749 447.985 537.488 447.821 537.139C447.656 536.796 447.486 536.329 447.31 535.739C447.189 535.34 447.079 535.024 446.978 534.792C446.877 534.565 446.766 534.387 446.644 534.26C446.527 534.138 446.383 534.044 446.212 533.977L445.472 537.663L445.111 537.591L446.041 532.955Z" fill="#4A3021"/>
<path d="M531.483 592.249C532.449 591.849 533.271 591.757 533.949 591.973C534.627 592.189 535.135 592.706 535.474 593.524C535.827 594.376 535.846 595.141 535.533 595.82C535.222 596.491 534.601 597.019 533.669 597.405L531.615 598.256L530.55 595.684L529.98 595.919L529.846 595.594L530.415 595.358L529.472 593.082L531.483 592.249ZM533.626 597.007C534.281 596.736 534.701 596.328 534.886 595.784C535.076 595.238 535.015 594.591 534.705 593.842C534.413 593.137 534.021 592.676 533.527 592.46C533.031 592.238 532.448 592.265 531.778 592.543L530.388 593.118L531.184 595.04L532.751 594.391L532.885 594.717L531.318 595.365L532.236 597.583L533.626 597.007ZM537.253 590.276L535.065 591.182L534.918 590.827L540.055 588.7L540.202 589.055L538.022 589.958L540.017 594.777L539.248 595.095L537.253 590.276ZM543.596 589.183C544.02 589.007 544.419 588.926 544.794 588.938C545.173 588.948 545.504 589.051 545.787 589.245C546.072 589.433 546.287 589.702 546.432 590.052C546.581 590.411 546.62 590.771 546.549 591.129C546.476 591.482 546.302 591.808 546.028 592.107C545.751 592.4 545.391 592.639 544.947 592.823C544.183 593.139 543.498 593.163 542.89 592.895C542.281 592.622 541.808 592.079 541.471 591.266C541.237 590.699 541.135 590.167 541.165 589.669C541.194 589.167 541.35 588.727 541.632 588.35C541.915 587.974 542.313 587.679 542.825 587.467C543.17 587.324 543.508 587.248 543.839 587.238C544.169 587.228 544.469 587.283 544.738 587.402C545.01 587.515 545.228 587.687 545.393 587.919L544.736 588.191C544.495 587.916 544.22 587.747 543.911 587.684C543.605 587.615 543.282 587.65 542.942 587.791C542.597 587.934 542.332 588.15 542.146 588.441C541.965 588.729 541.872 589.068 541.866 589.457C541.859 589.847 541.947 590.261 542.129 590.699L542.181 590.825C542.22 590.474 542.365 590.154 542.615 589.866C542.865 589.578 543.192 589.35 543.596 589.183ZM544.816 592.505C545.264 592.319 545.567 592.041 545.725 591.669C545.881 591.293 545.866 590.881 545.681 590.432C545.495 589.984 545.214 589.682 544.838 589.526C544.459 589.365 544.046 589.377 543.598 589.563C543.154 589.746 542.854 590.026 542.699 590.403C542.548 590.777 542.566 591.191 542.754 591.644C542.941 592.097 543.22 592.401 543.589 592.554C543.958 592.707 544.367 592.69 544.816 592.505ZM550.013 590.725C549.244 591.044 548.555 591.06 547.947 590.776C547.341 590.484 546.862 589.912 546.509 589.059C546.156 588.207 546.091 587.465 546.316 586.836C546.543 586.199 547.041 585.722 547.809 585.404C548.573 585.087 549.258 585.075 549.863 585.367C550.472 585.652 550.953 586.22 551.306 587.073C551.659 587.925 551.724 588.669 551.502 589.304C551.278 589.933 550.781 590.407 550.013 590.725ZM549.884 590.415C550.397 590.203 550.709 589.834 550.82 589.309C550.937 588.781 550.84 588.143 550.53 587.394C550.22 586.645 549.837 586.125 549.382 585.835C548.932 585.542 548.45 585.502 547.938 585.714C547.425 585.926 547.111 586.296 546.994 586.823C546.883 587.348 546.982 587.986 547.292 588.735C547.602 589.484 547.982 590.005 548.433 590.297C548.888 590.588 549.372 590.627 549.884 590.415ZM552.86 583.312C553.624 582.996 554.31 582.975 554.92 583.248C555.527 583.516 555.999 584.056 556.336 584.869C556.57 585.436 556.673 585.971 556.645 586.473C556.614 586.971 556.457 587.408 556.175 587.785C555.892 588.161 555.494 588.456 554.982 588.668C554.642 588.809 554.304 588.885 553.969 588.897C553.638 588.907 553.337 588.856 553.065 588.743C552.796 588.624 552.579 588.448 552.414 588.216L553.072 587.944C553.311 588.214 553.583 588.384 553.889 588.454C554.2 588.521 554.525 588.485 554.865 588.344C555.21 588.201 555.475 587.985 555.661 587.694C555.847 587.404 555.94 587.065 555.942 586.678C555.948 586.288 555.86 585.874 555.679 585.436L555.651 585.369C555.601 585.696 555.448 586.002 555.191 586.287C554.932 586.567 554.605 586.789 554.211 586.952C553.787 587.128 553.386 587.21 553.006 587.2C552.632 587.188 552.302 587.088 552.016 586.9C551.734 586.705 551.52 586.433 551.375 586.083C551.226 585.724 551.188 585.367 551.261 585.013C551.332 584.655 551.506 584.329 551.783 584.036C552.057 583.737 552.416 583.496 552.86 583.312ZM554.21 586.572C554.658 586.386 554.958 586.107 555.109 585.732C555.26 585.358 555.241 584.944 555.054 584.491C554.866 584.038 554.587 583.734 554.218 583.581C553.849 583.428 553.44 583.445 552.992 583.63C552.543 583.816 552.241 584.097 552.085 584.473C551.927 584.845 551.941 585.254 552.127 585.703C552.312 586.151 552.594 586.456 552.973 586.617C553.354 586.771 553.766 586.756 554.21 586.572Z" fill="#4A3021"/>
<path d="M598.074 518.337C598.367 519.34 598.369 520.167 598.081 520.818C597.793 521.469 597.224 521.918 596.374 522.166C595.488 522.424 594.725 522.36 594.085 521.975C593.451 521.593 592.994 520.918 592.712 519.95L592.089 517.815L594.762 517.036L594.59 516.444L594.927 516.346L595.1 516.937L597.465 516.248L598.074 518.337ZM593.112 519.95C593.31 520.631 593.67 521.093 594.19 521.336C594.713 521.583 595.363 521.594 596.141 521.367C596.873 521.153 597.374 520.813 597.643 520.346C597.918 519.877 597.953 519.294 597.75 518.598L597.33 517.154L595.333 517.736L595.807 519.364L595.469 519.463L594.995 517.835L592.691 518.506L593.112 519.95ZM599.409 524.287L598.746 522.014L599.115 521.906L600.671 527.244L600.302 527.351L599.642 525.086L594.634 526.545L594.401 525.747L599.409 524.287ZM599.807 530.711C599.935 531.152 599.973 531.557 599.92 531.928C599.868 532.304 599.73 532.622 599.506 532.882C599.289 533.146 598.998 533.33 598.634 533.436C598.261 533.545 597.899 533.545 597.551 533.436C597.207 533.325 596.902 533.116 596.636 532.811C596.374 532.504 596.176 532.12 596.041 531.659C595.81 530.865 595.861 530.181 596.193 529.607C596.531 529.03 597.122 528.619 597.967 528.373C598.556 528.201 599.096 528.158 599.587 528.242C600.083 528.325 600.503 528.528 600.847 528.85C601.191 529.172 601.441 529.599 601.596 530.131C601.7 530.49 601.74 530.834 601.714 531.164C601.687 531.494 601.6 531.786 601.452 532.04C601.311 532.298 601.116 532.496 600.868 532.635L600.668 531.952C600.968 531.742 601.166 531.487 601.262 531.187C601.364 530.891 601.364 530.566 601.261 530.212C601.157 529.854 600.97 529.567 600.702 529.351C600.435 529.14 600.108 529.01 599.722 528.961C599.335 528.913 598.914 528.955 598.458 529.088L598.328 529.126C598.673 529.203 598.975 529.382 599.234 529.662C599.493 529.942 599.684 530.292 599.807 530.711ZM596.372 531.563C596.508 532.029 596.751 532.36 597.103 532.558C597.46 532.754 597.872 532.784 598.338 532.648C598.804 532.512 599.135 532.266 599.331 531.908C599.532 531.55 599.564 531.138 599.428 530.672C599.294 530.211 599.048 529.882 598.691 529.687C598.336 529.496 597.922 529.469 597.451 529.606C596.98 529.744 596.649 529.988 596.456 530.338C596.264 530.689 596.236 531.097 596.372 531.563ZM597.576 536.922C597.343 536.123 597.401 535.437 597.75 534.863C598.106 534.293 598.727 533.878 599.613 533.62C600.499 533.362 601.242 533.378 601.844 533.67C602.452 533.965 602.873 534.512 603.106 535.31C603.337 536.104 603.275 536.786 602.919 537.356C602.569 537.93 601.952 538.346 601.066 538.605C600.18 538.863 599.434 538.847 598.827 538.557C598.226 538.266 597.809 537.721 597.576 536.922ZM597.898 536.828C598.053 537.361 598.386 537.711 598.896 537.879C599.408 538.052 600.053 538.025 600.831 537.798C601.609 537.571 602.168 537.248 602.506 536.827C602.846 536.411 602.938 535.937 602.783 535.404C602.628 534.872 602.294 534.519 601.783 534.346C601.273 534.178 600.629 534.207 599.85 534.434C599.072 534.661 598.513 534.982 598.173 535.398C597.835 535.819 597.743 536.296 597.898 536.828ZM598.853 541.019C599.258 540.901 599.661 540.845 600.062 540.85C600.47 540.859 600.916 540.931 601.401 541.068C601.886 541.21 602.455 541.425 603.105 541.713C603.533 541.905 603.859 542.029 604.081 542.087C604.305 542.149 604.489 542.162 604.634 542.125L603.57 538.477L603.916 538.376L605.239 542.916C605.034 542.975 604.797 542.97 604.526 542.898C604.257 542.833 603.841 542.673 603.278 542.421C602.379 542.022 601.615 541.775 600.988 541.68C600.361 541.59 599.728 541.639 599.088 541.825L598.853 541.019Z" fill="#4A3021"/>
<path d="M459.035 297.4L459.955 297.4L462.184 302.13L464.587 297.403L465.131 297.403L462.24 303.082L461.808 303.081L459.035 297.4ZM466.079 297.404L466.911 297.404L466.908 303.004L466.076 303.004L466.079 297.404ZM466.491 304.18C466.369 304.18 466.267 304.14 466.187 304.06C466.113 303.985 466.076 303.889 466.076 303.772C466.076 303.654 466.113 303.558 466.188 303.484C466.268 303.409 466.369 303.372 466.492 303.372C466.614 303.372 466.713 303.409 466.788 303.484C466.868 303.559 466.908 303.655 466.908 303.772C466.908 303.889 466.867 303.985 466.787 304.06C466.713 304.14 466.614 304.18 466.491 304.18ZM468.423 297.405L469.263 297.405L472.668 301.751L472.671 297.407L473.375 297.408L473.372 303.008L472.956 303.007L469.126 298.133L469.124 303.005L468.42 303.005L468.423 297.405ZM474.556 297.408L475.388 297.409L475.386 299.817L478.978 299.818L478.98 297.41L479.812 297.411L479.809 303.011L478.977 303.01L478.978 300.194L475.386 300.193L475.385 303.009L474.553 303.008L474.556 297.408ZM485.302 297.414C486.347 297.414 487.142 297.644 487.686 298.103C488.229 298.562 488.501 299.234 488.501 300.119C488.5 301.042 488.225 301.757 487.676 302.263C487.131 302.764 486.355 303.014 485.347 303.014L483.123 303.013L483.125 300.229L482.509 300.228L482.509 299.876L483.125 299.877L483.126 297.413L485.302 297.414ZM485.459 302.63C486.169 302.63 486.713 302.415 487.092 301.983C487.476 301.551 487.668 300.93 487.669 300.119C487.669 299.356 487.483 298.78 487.11 298.391C486.736 297.996 486.187 297.798 485.462 297.798L483.958 297.797L483.957 299.877L485.653 299.878L485.653 300.23L483.957 300.229L483.955 302.629L485.459 302.63ZM493.209 301.562L489.985 301.56L489.257 303.016L488.697 303.016L491.612 297.337L492.044 297.337L494.785 303.019L493.889 303.018L493.209 301.562ZM493.026 301.178L491.651 298.233L490.178 301.176L493.026 301.178ZM490.404 296C490.202 295.862 490.101 295.736 490.101 295.624C490.101 295.566 490.122 295.518 490.165 295.48C490.213 295.438 490.277 295.416 490.357 295.416C490.517 295.416 490.658 295.486 490.781 295.625L491.908 296.857L491.628 296.857L490.404 296ZM497.579 297.42L498.419 297.421L501.825 301.766L501.827 297.422L502.531 297.423L502.528 303.023L502.112 303.023L498.283 298.149L498.28 303.021L497.576 303.02L497.579 297.42ZM507.702 301.569L504.478 301.568L503.749 303.023L503.189 303.023L506.104 297.345L506.536 297.345L509.277 303.026L508.381 303.026L507.702 301.569ZM507.518 301.185L506.143 298.241L504.67 301.184L507.518 301.185ZM505.073 295.36C505.1 295.168 505.172 295.019 505.289 294.912C505.412 294.806 505.559 294.752 505.729 294.752C505.82 294.753 505.908 294.769 505.993 294.801C506.079 294.833 506.193 294.883 506.337 294.953C506.449 295.006 506.542 295.049 506.617 295.081C506.692 295.108 506.764 295.121 506.833 295.121C506.934 295.121 507.022 295.086 507.097 295.017C507.177 294.948 507.239 294.852 507.281 294.729L507.449 294.809C507.401 295.023 507.321 295.185 507.209 295.297C507.097 295.409 506.956 295.465 506.785 295.465C506.7 295.465 506.614 295.449 506.529 295.417C506.444 295.385 506.334 295.334 506.201 295.265C506.084 295.206 505.985 295.161 505.905 295.129C505.825 295.097 505.75 295.08 505.681 295.08C505.58 295.08 505.489 295.112 505.409 295.176C505.329 295.24 505.273 295.328 505.241 295.44L505.073 295.36ZM506.272 296.897C505.883 296.897 505.573 296.798 505.344 296.6C505.12 296.397 505.001 296.123 504.985 295.776L505.265 295.776C505.291 296.011 505.392 296.198 505.568 296.336C505.75 296.475 505.984 296.545 506.272 296.545C506.56 296.545 506.792 296.476 506.968 296.337C507.15 296.199 507.254 296.012 507.281 295.777L507.561 295.777C507.545 296.124 507.422 296.399 507.192 296.601C506.968 296.798 506.661 296.897 506.272 296.897ZM509.946 297.427L510.786 297.427L514.192 301.773L514.194 297.429L514.898 297.429L514.895 303.029L514.479 303.029L510.65 298.155L510.647 303.027L509.943 303.027L509.946 297.427ZM519.028 303.111C518.377 303.111 517.82 302.999 517.356 302.775C516.892 302.545 516.538 302.214 516.293 301.782C516.048 301.35 515.925 300.835 515.926 300.238C515.926 299.64 516.046 299.126 516.286 298.694C516.527 298.262 516.873 297.932 517.327 297.703C517.78 297.468 518.319 297.351 518.943 297.351C519.7 297.352 520.322 297.517 520.807 297.848C521.297 298.174 521.593 298.625 521.694 299.201L520.974 299.2C520.878 298.731 520.657 298.371 520.311 298.12C519.964 297.864 519.516 297.736 518.967 297.735C518.279 297.735 517.74 297.956 517.351 298.399C516.961 298.836 516.766 299.446 516.766 300.23C516.765 301.025 516.962 301.641 517.357 302.079C517.756 302.511 518.316 302.727 519.036 302.727C519.372 302.728 519.679 302.693 519.956 302.624C520.234 302.549 520.498 302.435 520.748 302.28L520.749 300.464L518.789 300.463L518.79 300.103L521.582 300.105L521.58 302.337C521.266 302.587 520.89 302.779 520.452 302.912C520.02 303.045 519.545 303.112 519.028 303.111Z" fill="#4A3021"/>
<path d="M606.595 120.4L609.203 120.402C609.875 120.402 610.408 120.52 610.802 120.755C611.197 120.989 611.394 121.309 611.394 121.715C611.394 122.061 611.252 122.36 610.969 122.611C610.687 122.856 610.316 123.013 609.857 123.082C610.465 123.141 610.929 123.283 611.249 123.507C611.569 123.726 611.729 124.056 611.729 124.499C611.728 124.984 611.528 125.358 611.128 125.619C610.728 125.874 610.149 126.002 609.392 126.002L606.592 126L606.595 120.4ZM608.897 122.906C609.436 122.906 609.849 122.81 610.137 122.618C610.426 122.421 610.57 122.136 610.57 121.762C610.57 121.432 610.434 121.186 610.162 121.026C609.89 120.866 609.477 120.786 608.922 120.786L607.426 120.785L607.425 122.905L608.897 122.906ZM609.472 125.618C609.92 125.618 610.269 125.517 610.52 125.314C610.771 125.112 610.896 124.827 610.897 124.459C610.897 124.069 610.724 123.778 610.377 123.586C610.036 123.389 609.526 123.29 608.849 123.289L607.425 123.289L607.424 125.617L609.472 125.618ZM612.923 120.404L613.755 120.404L613.752 126.004L612.92 126.004L612.923 120.404ZM615.267 120.405L620.011 120.407L620.01 120.791L616.098 120.789L616.097 122.813L619.553 122.815L619.553 123.191L616.097 123.189L616.096 125.621L620.008 125.623L620.008 126.007L615.264 126.005L615.267 120.405ZM616.524 118.294C616.545 118.102 616.614 117.952 616.732 117.846C616.855 117.739 617.001 117.686 617.172 117.686C617.263 117.686 617.353 117.702 617.444 117.734C617.535 117.766 617.649 117.817 617.788 117.886C617.9 117.94 617.993 117.982 618.068 118.014C618.142 118.041 618.212 118.054 618.276 118.054C618.377 118.054 618.468 118.02 618.548 117.951C618.628 117.881 618.689 117.785 618.732 117.663L618.892 117.743C618.796 118.18 618.574 118.399 618.228 118.398C618.142 118.398 618.057 118.382 617.972 118.35C617.886 118.318 617.777 118.267 617.644 118.198C617.521 118.134 617.422 118.089 617.348 118.062C617.273 118.03 617.201 118.014 617.132 118.014C617.025 118.014 616.932 118.046 616.852 118.11C616.772 118.174 616.716 118.262 616.684 118.374L616.524 118.294ZM617.427 118.622L617.987 118.622L618.979 119.847L618.587 119.847L617.707 118.998L616.827 119.846L616.435 119.845L617.427 118.622ZM620.829 120.408L621.669 120.408L625.075 124.754L625.077 120.41L625.781 120.41L625.778 126.01L625.362 126.01L621.533 121.136L621.53 126.008L620.826 126.008L620.829 120.408ZM631.271 120.413C632.316 120.414 633.111 120.644 633.654 121.102C634.198 121.561 634.47 122.234 634.469 123.119C634.469 124.042 634.194 124.756 633.644 125.262C633.1 125.764 632.324 126.014 631.316 126.013L629.092 126.012L629.093 123.228L628.477 123.228L628.478 122.876L629.094 122.876L629.095 120.412L631.271 120.413ZM631.428 125.629C632.137 125.63 632.682 125.414 633.06 124.982C633.445 124.55 633.637 123.929 633.637 123.118C633.638 122.356 633.451 121.78 633.078 121.39C632.705 120.995 632.156 120.798 631.431 120.797L629.927 120.797L629.926 122.877L631.622 122.877L631.621 123.229L629.925 123.229L629.924 125.629L631.428 125.629ZM638.378 126.097C637.748 126.097 637.207 125.982 636.754 125.752C636.301 125.523 635.954 125.192 635.714 124.76C635.475 124.322 635.355 123.799 635.355 123.191C635.356 122.594 635.476 122.082 635.716 121.656C635.956 121.224 636.303 120.896 636.757 120.672C637.21 120.448 637.751 120.337 638.381 120.337C639.01 120.337 639.549 120.45 639.997 120.674C640.45 120.898 640.796 121.226 641.036 121.658C641.276 122.085 641.396 122.597 641.395 123.195C641.395 123.803 641.275 124.325 641.034 124.762C640.794 125.194 640.447 125.525 639.994 125.754C639.546 125.983 639.007 126.097 638.378 126.097ZM638.378 125.713C639.071 125.713 639.607 125.495 639.986 125.058C640.365 124.621 640.555 123.999 640.555 123.194C640.556 122.405 640.367 121.797 639.988 121.37C639.615 120.938 639.079 120.721 638.381 120.721C637.682 120.721 637.143 120.934 636.764 121.36C636.385 121.787 636.196 122.397 636.195 123.192C636.195 123.997 636.384 124.619 636.762 125.056C637.141 125.494 637.679 125.713 638.378 125.713ZM638.102 118.633L638.662 118.633L639.653 119.858L639.261 119.857L638.381 119.009L637.501 119.856L637.109 119.856L638.102 118.633ZM642.431 120.419L643.271 120.42L646.676 124.765L646.679 120.421L647.383 120.422L647.38 126.022L646.964 126.021L643.134 121.147L643.132 126.019L642.428 126.019L642.431 120.419ZM651.512 126.104C650.862 126.103 650.304 125.991 649.841 125.767C649.377 125.537 649.022 125.207 648.777 124.774C648.532 124.342 648.41 123.828 648.41 123.23C648.41 122.633 648.531 122.118 648.771 121.686C649.011 121.255 649.358 120.924 649.811 120.695C650.265 120.461 650.803 120.343 651.427 120.344C652.185 120.344 652.806 120.51 653.291 120.841C653.782 121.166 654.077 121.617 654.178 122.193L653.458 122.193C653.363 121.723 653.142 121.363 652.795 121.113C652.449 120.856 652.001 120.728 651.451 120.728C650.763 120.727 650.224 120.948 649.835 121.391C649.445 121.828 649.25 122.439 649.25 123.223C649.25 124.017 649.447 124.633 649.841 125.071C650.241 125.503 650.801 125.719 651.521 125.72C651.857 125.72 652.163 125.686 652.441 125.616C652.718 125.542 652.982 125.427 653.233 125.273L653.234 123.457L651.274 123.456L651.274 123.096L654.066 123.097L654.065 125.329C653.75 125.58 653.374 125.771 652.937 125.905C652.504 126.038 652.03 126.104 651.512 126.104Z" fill="#4A3021"/>
<path d="M76.4115 41.7921C77.4568 41.7926 78.2513 42.0224 78.7951 42.4813C79.3389 42.9403 79.6105 43.6124 79.61 44.4978C79.6096 45.4204 79.3345 46.1349 78.7849 46.6413C78.2407 47.1424 77.4645 47.3926 76.4565 47.3921L74.2325 47.3909L74.234 44.6069L73.618 44.6066L73.6182 44.2546L74.2342 44.2549L74.2355 41.7909L76.4115 41.7921ZM76.5687 47.0082C77.2781 47.0085 77.8222 46.7928 78.2011 46.361C78.5853 45.9292 78.7776 45.308 78.778 44.4973C78.7784 43.7347 78.5921 43.1586 78.219 42.769C77.8458 42.3742 77.2966 42.1765 76.5713 42.1762L75.0673 42.1754L75.0662 44.2554L76.7622 44.2563L76.762 44.6083L75.066 44.6074L75.0647 47.0074L76.5687 47.0082ZM84.3189 45.9402L81.0949 45.9385L80.3661 47.3941L79.8061 47.3939L82.7211 41.7154L83.1531 41.7156L85.8941 47.397L84.9981 47.3966L84.3189 45.9402ZM84.1351 45.5561L82.7606 42.6114L81.2871 45.5546L84.1351 45.5561ZM83.5621 39.7798C83.4288 39.6784 83.3328 39.601 83.2742 39.5477C83.2209 39.489 83.1943 39.433 83.1943 39.3796C83.1943 39.321 83.2157 39.2756 83.2584 39.2437C83.301 39.2064 83.3571 39.1877 83.4264 39.1878C83.5331 39.1878 83.637 39.2519 83.7383 39.3799L84.5298 40.2923L84.2578 40.2922L83.5621 39.7798ZM82.61 40.0113L83.17 40.0116L84.1613 41.2361L83.7693 41.2359L82.8898 40.3875L82.0093 41.235L81.6173 41.2348L82.61 40.0113ZM92.7954 41.8007L92.7925 47.4007L91.9605 47.4002L91.9629 42.6962L89.7845 47.3991L89.3925 47.3989L87.059 42.6297L87.0565 47.3977L86.5605 47.3974L86.5634 41.7974L87.5154 41.7979L89.745 46.4071L91.8834 41.8002L92.7954 41.8007ZM98.9233 47.4839C97.9686 47.4834 97.2354 47.2323 96.7237 46.7307C96.212 46.2291 95.9563 45.5116 95.9568 44.5783C95.9573 43.6663 96.211 42.9624 96.7179 42.4667C97.2302 41.971 97.961 41.7234 98.9103 41.7239C99.6836 41.7243 100.313 41.8873 100.798 42.2128C101.283 42.5384 101.571 42.9919 101.661 43.5733L100.941 43.5729C100.851 43.1142 100.63 42.7568 100.278 42.5006C99.926 42.2391 99.4834 42.1082 98.9501 42.1079C98.2568 42.1075 97.7233 42.3206 97.3498 42.747C96.9816 43.1735 96.7972 43.7841 96.7968 44.5788C96.7964 45.3894 96.9827 46.0135 97.3558 46.451C97.7289 46.8832 98.2648 47.0995 98.9635 47.0999C99.4968 47.1002 99.9369 46.9724 100.284 46.7166C100.631 46.4608 100.849 46.1009 100.94 45.6369L101.66 45.6373C101.569 46.2186 101.281 46.6718 100.796 46.9968C100.31 47.3219 99.686 47.4843 98.9233 47.4839ZM106.553 45.9519L103.329 45.9502L102.6 47.4058L102.04 47.4055L104.955 41.727L105.387 41.7272L108.128 47.4087L107.232 47.4082L106.553 45.9519ZM106.369 45.5678L104.995 42.623L103.521 45.5663L106.369 45.5678ZM105.796 39.7915C105.663 39.6901 105.567 39.6127 105.509 39.5593C105.455 39.5006 105.429 39.4446 105.429 39.3913C105.429 39.3326 105.45 39.2873 105.493 39.2553C105.535 39.218 105.591 39.1994 105.661 39.1994C105.767 39.1994 105.871 39.2635 105.973 39.3916L106.764 40.304L106.492 40.3038L105.796 39.7915ZM104.844 40.023L105.404 40.0233L106.396 41.2478L106.004 41.2476L105.124 40.3991L104.244 41.2467L103.852 41.2464L104.844 40.023ZM110.95 47.4902C110.022 47.4897 109.35 47.284 108.935 46.8731C108.524 46.4569 108.319 45.8595 108.319 45.0808L108.321 41.8088L109.153 41.8092L109.151 45.2652C109.151 45.8626 109.292 46.3186 109.575 46.6334C109.857 46.9483 110.316 47.1058 110.95 47.1062C111.574 47.1065 112.028 46.9521 112.311 46.6429C112.599 46.3337 112.743 45.8751 112.743 45.2671L112.745 41.8111L113.577 41.8115L113.575 45.0835C113.575 45.8622 113.369 46.4594 112.959 46.8752C112.548 47.2857 111.878 47.4906 110.95 47.4902ZM116.884 41.8133L117.716 41.8137L117.714 44.2217L121.306 44.2236L121.308 41.8156L122.14 41.816L122.137 47.416L121.305 47.4156L121.306 44.5996L117.714 44.5977L117.713 47.4137L116.881 47.4133L116.884 41.8133ZM127.311 45.9627L124.087 45.961L123.358 47.4167L122.798 47.4164L125.713 41.7379L126.145 41.7381L128.886 47.4196L127.99 47.4191L127.311 45.9627ZM127.127 45.5786L125.753 42.6339L124.279 45.5771L127.127 45.5786ZM129.884 41.8201L130.716 41.8205L130.713 47.4205L129.881 47.4201L129.884 41.8201Z" fill="#4A3021"/>
<path d="M439.163 599.763C440.197 599.611 441.017 599.723 441.622 600.097C442.227 600.472 442.593 601.098 442.722 601.974C442.856 602.887 442.688 603.634 442.218 604.215C441.752 604.79 441.021 605.15 440.024 605.297L437.823 605.619L437.419 602.865L436.81 602.954L436.758 602.606L437.368 602.517L437.01 600.079L439.163 599.763ZM440.079 604.9C440.78 604.797 441.287 604.505 441.599 604.022C441.917 603.539 442.016 602.897 441.899 602.094C441.788 601.34 441.52 600.797 441.094 600.466C440.667 600.13 440.095 600.014 439.377 600.12L437.889 600.338L438.191 602.396L439.869 602.15L439.92 602.498L438.242 602.744L438.591 605.119L440.079 604.9ZM449.886 598.189C449.94 598.559 449.865 598.891 449.66 599.185C449.461 599.478 449.164 599.697 448.77 599.841L449.031 601.622C449.144 602.392 449.028 603.013 448.682 603.484C448.335 603.95 447.703 604.251 446.785 604.385C445.867 604.52 445.172 604.414 444.701 604.069C444.234 603.717 443.944 603.155 443.831 602.385L443.356 599.148L444.179 599.027L444.681 602.446C444.768 603.037 444.974 603.468 445.299 603.738C445.624 604.008 446.101 604.098 446.729 604.005C447.346 603.915 447.773 603.696 448.007 603.349C448.247 603.001 448.323 602.526 448.235 601.925L447.733 598.505L448.556 598.385L448.728 599.556C448.931 599.429 449.077 599.249 449.166 599.015C449.261 598.78 449.29 598.536 449.253 598.282L449.886 598.189ZM456.369 597.149C456.419 597.487 456.359 597.795 456.19 598.073C456.025 598.345 455.776 598.562 455.444 598.724C455.704 599.096 455.874 599.556 455.954 600.105C456.042 600.706 455.999 601.241 455.825 601.709C455.651 602.171 455.356 602.548 454.941 602.841C454.531 603.133 454.014 603.325 453.392 603.416C452.769 603.507 452.217 603.472 451.735 603.311C451.253 603.15 450.862 602.873 450.562 602.481C450.261 602.083 450.066 601.583 449.978 600.982C449.891 600.391 449.936 599.867 450.111 599.41C450.286 598.947 450.581 598.573 450.997 598.285C451.413 597.998 451.933 597.808 452.555 597.717C453.136 597.632 453.654 597.655 454.11 597.788C454.572 597.92 454.954 598.155 455.257 598.493C455.447 598.357 455.582 598.176 455.662 597.948C455.747 597.72 455.772 597.485 455.736 597.242L456.369 597.149ZM453.336 603.036C454.022 602.935 454.52 602.641 454.832 602.154C455.143 601.666 455.24 601.024 455.123 600.227C455.008 599.446 454.733 598.872 454.296 598.505C453.864 598.131 453.302 597.995 452.611 598.097C451.92 598.198 451.418 598.488 451.105 598.965C450.792 599.442 450.694 600.074 450.809 600.86C450.926 601.657 451.204 602.244 451.642 602.622C452.08 602.999 452.645 603.137 453.336 603.036ZM450.984 596.597C450.764 596.489 450.645 596.38 450.629 596.269C450.62 596.211 450.634 596.161 450.671 596.118C450.713 596.068 450.773 596.038 450.852 596.026C451.01 596.003 451.16 596.051 451.302 596.171L452.596 597.226L452.319 597.266L450.984 596.597ZM456.574 597.208L457.405 597.086L461.408 600.889L460.777 596.591L461.473 596.489L462.286 602.03L461.875 602.09L457.376 597.826L458.083 602.647L457.387 602.749L456.574 597.208ZM466.387 601.509C465.743 601.604 465.176 601.574 464.684 601.419C464.192 601.26 463.793 600.984 463.487 600.592C463.182 600.201 462.986 599.709 462.899 599.118C462.812 598.527 462.856 598.001 463.031 597.538C463.206 597.076 463.501 596.699 463.916 596.406C464.331 596.108 464.846 595.914 465.464 595.823C466.213 595.713 466.852 595.786 467.38 596.043C467.913 596.294 468.271 596.697 468.455 597.252L467.743 597.356C467.579 596.906 467.308 596.582 466.929 596.384C466.549 596.181 466.087 596.12 465.543 596.199C464.863 596.299 464.362 596.596 464.041 597.091C463.719 597.58 463.615 598.213 463.729 598.988C463.844 599.775 464.129 600.355 464.583 600.731C465.041 601.1 465.627 601.233 466.339 601.128C466.672 601.079 466.97 601 467.234 600.892C467.498 600.777 467.743 600.626 467.968 600.436L467.704 598.64L465.765 598.924L465.713 598.568L468.475 598.163L468.799 600.371C468.524 600.665 468.18 600.909 467.767 601.105C467.359 601.299 466.899 601.434 466.387 601.509ZM424.842 611.971L425.665 611.85L426.015 614.233L429.569 613.711L429.219 611.329L430.042 611.208L430.855 616.749L430.032 616.87L429.623 614.084L426.069 614.605L426.478 617.391L425.655 617.512L424.842 611.971ZM434.64 616.274C433.722 616.409 433.027 616.304 432.556 615.958C432.089 615.606 431.799 615.044 431.686 614.274L431.211 611.037L432.034 610.916L432.536 614.335C432.623 614.926 432.829 615.357 433.154 615.627C433.48 615.898 433.956 615.987 434.584 615.894C435.202 615.804 435.628 615.585 435.862 615.238C436.102 614.89 436.178 614.415 436.09 613.814L435.588 610.394L436.412 610.274L436.887 613.511C437 614.281 436.883 614.902 436.537 615.373C436.191 615.839 435.558 616.14 434.64 616.274ZM432.248 609.453C432.028 609.346 431.909 609.236 431.893 609.125C431.884 609.067 431.899 609.017 431.935 608.974C431.977 608.925 432.037 608.894 432.116 608.883C432.274 608.859 432.424 608.907 432.566 609.027L433.861 610.082L433.584 610.123L432.248 609.453ZM437.581 610.102L438.412 609.98L442.414 613.783L441.784 609.485L442.48 609.383L443.293 614.924L442.881 614.984L438.383 610.72L439.09 615.541L438.394 615.643L437.581 610.102ZM447.394 614.403C446.75 614.498 446.182 614.468 445.691 614.313C445.198 614.154 444.799 613.878 444.494 613.486C444.188 613.095 443.992 612.603 443.906 612.012C443.819 611.421 443.863 610.894 444.038 610.432C444.212 609.97 444.507 609.592 444.923 609.3C445.337 609.002 445.853 608.807 446.47 608.717C447.22 608.607 447.858 608.68 448.387 608.937C448.919 609.188 449.278 609.591 449.462 610.146L448.749 610.25C448.586 609.8 448.315 609.476 447.935 609.278C447.555 609.075 447.093 609.014 446.55 609.093C445.869 609.193 445.368 609.49 445.047 609.985C444.726 610.474 444.622 611.107 444.736 611.882C444.851 612.669 445.136 613.249 445.59 613.625C446.048 613.994 446.633 614.127 447.346 614.022C447.678 613.973 447.977 613.894 448.241 613.786C448.505 613.671 448.749 613.52 448.975 613.33L448.711 611.533L446.772 611.818L446.72 611.462L449.482 611.056L449.806 613.265C449.531 613.559 449.187 613.803 448.774 613.998C448.366 614.193 447.906 614.328 447.394 614.403ZM451.775 608.019L452.685 607.886L455.58 612.24L457.268 607.213L457.806 607.134L455.773 613.174L455.346 613.236L451.775 608.019ZM464.95 606.086C465.004 606.456 464.929 606.787 464.724 607.082C464.525 607.375 464.228 607.594 463.834 607.738L464.095 609.519C464.208 610.289 464.092 610.91 463.746 611.381C463.399 611.847 462.767 612.147 461.849 612.282C460.93 612.417 460.236 612.311 459.765 611.965C459.298 611.613 459.008 611.052 458.895 610.282L458.42 607.044L459.243 606.924L459.745 610.343C459.832 610.934 460.038 611.365 460.363 611.635C460.688 611.905 461.165 611.994 461.793 611.902C462.41 611.812 462.836 611.593 463.071 611.246C463.311 610.898 463.387 610.423 463.299 609.822L462.797 606.402L463.62 606.281L463.792 607.453C463.995 607.326 464.141 607.146 464.23 606.912C464.325 606.677 464.354 606.432 464.317 606.179L464.95 606.086ZM471.433 605.046C471.483 605.384 471.423 605.692 471.253 605.97C471.088 606.242 470.84 606.459 470.508 606.621C470.767 606.993 470.937 607.453 471.018 608.002C471.106 608.603 471.063 609.138 470.889 609.605C470.715 610.068 470.42 610.445 470.004 610.738C469.594 611.03 469.078 611.221 468.455 611.313C467.833 611.404 467.28 611.369 466.799 611.208C466.317 611.047 465.926 610.77 465.626 610.378C465.325 609.98 465.13 609.48 465.042 608.879C464.955 608.288 465 607.764 465.175 607.307C465.35 606.844 465.645 606.469 466.061 606.182C466.477 605.895 466.997 605.705 467.619 605.614C468.2 605.529 468.718 605.552 469.174 605.685C469.635 605.817 470.017 606.052 470.32 606.39C470.511 606.254 470.646 606.073 470.726 605.845C470.811 605.617 470.836 605.382 470.8 605.139L471.433 605.046ZM468.4 610.933C469.086 610.832 469.584 610.538 469.895 610.05C470.207 609.563 470.304 608.92 470.187 608.124C470.072 607.343 469.797 606.769 469.36 606.401C468.928 606.028 468.366 605.892 467.675 605.994C466.984 606.095 466.482 606.384 466.169 606.862C465.856 607.339 465.758 607.97 465.873 608.757C465.99 609.553 466.267 610.141 466.706 610.518C467.144 610.896 467.708 611.034 468.4 610.933ZM471.638 605.105L472.469 604.983L476.471 608.786L475.841 604.488L476.537 604.386L477.35 609.927L476.939 609.987L472.44 605.723L473.147 610.543L472.451 610.646L471.638 605.105ZM481.451 609.406C480.807 609.5 480.239 609.47 479.748 609.316C479.255 609.157 478.857 608.881 478.551 608.489C478.246 608.097 478.05 607.606 477.963 607.015C477.876 606.424 477.92 605.897 478.095 605.435C478.27 604.973 478.565 604.595 478.98 604.303C479.394 604.005 479.91 603.81 480.528 603.72C481.277 603.61 481.916 603.683 482.444 603.94C482.977 604.191 483.335 604.593 483.519 605.149L482.806 605.253C482.643 604.803 482.372 604.479 481.993 604.281C481.612 604.078 481.151 604.016 480.607 604.096C479.926 604.196 479.426 604.493 479.105 604.988C478.783 605.477 478.679 606.109 478.793 606.885C478.908 607.671 479.193 608.252 479.647 608.628C480.105 608.997 480.691 609.129 481.403 609.025C481.736 608.976 482.034 608.897 482.298 608.788C482.562 608.674 482.806 608.522 483.032 608.333L482.768 606.536L480.829 606.821L480.777 606.465L483.539 606.059L483.863 608.268C483.588 608.561 483.244 608.806 482.831 609.001C482.423 609.196 481.963 609.331 481.451 609.406Z" fill="#4A3021"/>
<path d="M630.559 673.499C630.559 673.499 578.079 586.579 564.349 557.159C550.619 527.739 517.189 451.729 511.839 429.159C506.489 406.589 475.619 375.099 469.979 367.889C464.339 360.679 429.239 292.669 423.369 289.729C417.499 286.789 403.369 292.369 408.369 282.109C413.369 271.849 409.789 246.029 407.369 233.109C404.949 220.189 392.289 183.539 381.729 161.539C371.169 139.539 363.839 130.739 355.039 125.749C346.239 120.759 342.719 117.249 330.979 120.179C319.239 123.109 317.199 111.379 311.919 109.919C306.639 108.459 252.669 106.099 243.569 106.979C234.469 107.859 190.259 109.299 182.239 103.279C174.219 97.2593 164.369 98.9093 155.619 105.649C146.869 112.389 147.959 112.759 139.619 110.389C131.279 108.019 119.019 112.789 111.169 101.009C103.319 89.2293 94.9492 90.8793 86.1692 90.6993C77.3892 90.5193 60.6392 93.2493 54.0792 85.0493C47.5192 76.8493 -2.05078 39.2793 -2.05078 39.2793" stroke="#4A3021" stroke-width="3" stroke-miterlimit="10"/>
<path d="M176.422 672.86C176.422 672.86 210.612 664.27 218.522 656.76C226.432 649.25 233.942 650.33 243.732 647.65C253.522 644.97 273.502 637.32 278.862 627.65C284.222 617.98 297.772 603.91 309.032 602.17C320.292 600.43 341.882 599.76 350.462 587.56C359.042 575.36 375.672 577.24 383.722 574.82C391.772 572.4 408.262 564.9 412.012 557.82C415.762 550.74 432.792 541.82 438.162 537.04C443.532 532.26 453.162 495.26 446.392 466.68" stroke="#4A3021" stroke-width="3" stroke-miterlimit="10"/>
<path d="M438.158 537.029C438.158 537.029 436.868 558.219 428.928 564.739C420.988 571.259 404.528 597.469 415.758 597.509C426.988 597.549 453.098 588.729 462.758 589.089C472.418 589.449 493.038 585.639 493.418 590.979" stroke="#4A3021" stroke-width="3" stroke-miterlimit="10"/>
<path d="M493.16 589.139C493.16 589.139 512.87 615.439 525.84 607.979C538.81 600.519 577.74 589.149 578.01 583.279" stroke="#4A3021" stroke-width="3" stroke-miterlimit="10"/>
<path d="M580.821 588.339C580.821 588.339 625.641 598.999 630.561 590.339C635.481 581.679 639.781 574.619 629.131 572.339C618.481 570.059 601.741 560.169 596.131 547.999C596.131 547.999 583.711 522.129 587.001 500.829C590.291 479.529 594.361 448.589 593.091 444.029C591.821 439.469 569.881 397.669 567.191 385.339C564.501 373.009 552.951 358.579 561.611 348.579C570.271 338.579 582.191 319.579 576.231 312.219C570.271 304.859 567.231 303.119 564.301 302.669C561.371 302.219 554.111 302.799 552.191 299.139C550.271 295.479 547.971 291.859 535.941 300.789" stroke="#4A3021" stroke-width="3" stroke-miterlimit="10"/>
<path d="M469 368.001C479.667 365.167 501.7 361.201 504.5 368.001C508 376.501 524 427.5 526.5 427" stroke="black" stroke-width="0.5"/>
<path d="M512.5 391C527.5 389.167 558.5 386 561 385.5" stroke="#4A3021" stroke-width="0.5"/>
<path d="M508 377.5C523 375.667 555.5 372 558 372" stroke="#4A3021" stroke-width="0.5"/>
<path d="M504 367.5C519 365.667 554 360.5 556.5 360.5" stroke="#4A3021" stroke-width="0.5"/>
</svg>
