<svg width="382" height="570" viewBox="0 0 382 570" fill="none" xmlns="http://www.w3.org/2000/svg">
<g clip-path="url(#clip0_5632_13931)">
<rect width="382" height="570" fill="#DBDBDB"/>
<path d="M-138.629 542.634V-1.59766H587.161V63.9731C587.161 63.9731 558.259 136.598 559.729 145.678C556.299 147.878 547.22 159.907 539.86 156.227C532.5 152.547 531.178 148.516 525.871 146.658C525.871 146.658 516.709 144.272 511.272 148.294C505.836 152.316 492.892 171.797 490.062 171.575C487.233 171.353 489.082 165.704 484.728 164.936C480.373 164.169 470.471 164.335 465.959 166.064C461.447 167.793 459.829 167.803 457.638 166.064C455.446 164.326 448.503 161.553 443.769 164.678C439.035 167.803 438.795 171.852 434.403 173.119C430.011 174.386 425.028 177.52 422.948 180.515C420.867 183.511 408.608 207.125 407.563 212.099C406.518 217.073 399.88 252.253 400.675 255.877C401.47 259.502 398.409 265.835 393.768 264.254C389.127 262.673 385.965 257.237 385.17 255.082C384.375 252.928 378.494 250.783 372.725 253.233C366.956 255.683 357.22 264.67 354.391 271.003C351.561 277.337 346.245 300.423 347.373 304.491C348.298 306.646 348.843 308.791 346.014 308.68C343.185 308.569 331.304 307.321 331.082 304.982C330.86 302.642 331.692 301.82 333.19 301.283C334.688 300.747 333.8 279.944 330.611 278.049C327.421 276.153 316.585 269.728 303.437 266.427C290.29 263.126 273.296 254.851 258.383 260.879C243.47 266.908 226.43 279.26 222.972 280.989C219.514 282.718 215.242 282.45 212.311 282.191C209.38 281.932 204.194 281.118 200.726 284.04C197.259 286.962 196.474 288.737 189.817 289.181C183.16 289.624 169.309 287.239 163.05 287.507C156.791 287.775 150.402 287.1 144.272 290.429C138.142 293.757 130.958 300.285 128.296 302.818C125.633 305.351 124.597 307.441 122.97 306.276C121.343 305.111 125.494 299.619 123.367 300.285C121.241 300.95 116.442 304.149 113.114 303.983C109.785 303.817 97.6736 306.378 90.7485 316.927C83.8235 327.476 77.0278 338.238 74.5037 342.501C71.9796 346.763 60.3763 365.254 56.5671 375.554C52.7579 385.854 41.774 407.785 39.5088 415.81C37.2436 423.835 27.9238 456.334 26.3151 466.948C24.7063 477.562 19.612 495.508 18.3084 504.782C17.0047 514.055 17.7535 523.514 15.1554 523.698C12.5574 523.883 7.55554 524.808 7.18571 530.374C6.81589 535.94 5.14244 550.03 1.43491 556.151C-2.27264 562.272 -8.39348 571.175 -10.067 569.872C-11.7404 568.568 -16.7422 559.701 -23.7875 559.859C-30.8327 560.016 -32.6081 557.778 -37.5823 559.859C-42.5565 561.939 -42.7599 566.284 -44.7292 565.351C-46.6985 564.417 -47.1145 559.553 -52.9115 557.584C-58.7086 555.615 -63.1744 557.371 -68.9715 554.478C-74.7686 551.584 -75.6006 547.737 -86.8989 545.565C-98.1971 543.392 -98.5023 542.356 -108.238 541.626C-117.974 540.896 -138.629 542.634 -138.629 542.634Z" fill="white"/>
<path d="M234.586 -2.68945C218.869 32.9066 166.63 108.259 101.299 148.838L11.3019 208.113C-14.1239 223.831 -77.827 277.918 -140.328 307.505" stroke="#4A3021" stroke-width="3" stroke-miterlimit="10"/>
<path d="M-140.328 385.169L-101.729 376.585C-101.553 376.545 -101.392 376.456 -101.266 376.326L-50.9041 324.419C-50.8362 324.35 -50.7577 324.291 -50.6715 324.245L-11.0062 303.348C-10.9096 303.297 -10.8047 303.263 -10.6965 303.249L44.9394 295.89C45.0182 295.879 45.0866 295.878 45.1654 295.888C46.6085 296.07 62.1687 298.028 65.5095 298.213C69.0136 298.407 85.1936 292.804 92.9878 286.064C100.782 279.324 102.372 271.909 116.555 266.26C161.116 252.517 180.555 223.092 184.732 210.033C184.746 209.991 184.755 209.95 184.763 209.906L194.922 147.822L223.371 98.1356L253.431 49.2967C253.479 49.219 253.538 49.1487 253.606 49.0883L288.339 18.4116C288.49 18.2784 288.681 18.198 288.881 18.1827L298.566 17.4457C298.782 17.4293 298.985 17.3381 299.14 17.1877L319.647 -2.68945" stroke="#4A3021" stroke-width="3" stroke-miterlimit="10"/>
<path d="M182.347 -5C178.187 -2.68857 155.997 93.0059 155.997 93.0059L148.639 148.545L147.058 183.586L126.347 250.701L120.863 265.438" stroke="#4A3021" stroke-width="3" stroke-miterlimit="10"/>
<path d="M194.93 158.355C194.93 158.355 239.596 167.601 243.932 166.232C248.268 164.864 265.576 167.61 270.495 167.998C275.414 168.387 317.334 176.264 323.039 173.703C328.743 171.142 344.877 166.029 348.002 158.355C351.127 150.681 353.55 128.057 357.84 129.037C362.13 130.017 371.024 132.384 372.402 138.68C373.779 144.976 375.351 146.548 382.831 145.762C390.311 144.976 412.741 148.129 422.772 149.461C432.804 150.792 438.712 150.108 440.09 154.305C441.467 158.503 441.717 168.109 441.717 168.109" stroke="#4A3021" stroke-width="0.5" stroke-miterlimit="10"/>
<path d="M-93.332 368.158C-93.332 368.158 -77.0965 378.698 -78.5389 385.993C-79.9812 393.288 -81.2017 404.133 -76.7545 410.883C-72.3073 417.632 -61.8226 432.582 -57.5511 436.318C-53.2796 440.053 -42.083 451.962 -37.6358 455.521C-33.1886 459.081 -15.9453 479.347 -10.4256 480.42C-4.90594 481.492 23.6265 481.816 23.6265 481.816" stroke="#4A3021" stroke-width="0.462287" stroke-miterlimit="10"/>
<path d="M76.9102 296.604C76.9102 296.604 83.6504 302.308 89.0407 303.501C94.4309 304.694 105.045 303.899 112.608 299.387C120.171 294.875 120.707 300.847 124.026 299.257C127.346 297.667 142.074 290.76 147.141 287.044C152.207 283.327 161.74 277.89 168.249 280.008C174.758 282.125 181.119 283.059 189.218 280.146L220.404 265.547L239.209 258.04L260.936 248.332C265.716 244.883 273.752 248.332 281.712 249.756C289.673 251.179 293.39 257.716 299.63 257.152C305.871 256.588 311.974 254.378 315.025 257.559C318.076 260.74 322.061 260.212 324.844 261.008C327.627 261.803 336.521 266.712 336.521 269.763C336.521 272.814 337.982 275.311 341.033 275.209C344.084 275.107 346.876 274.543 348.596 272.149C350.316 269.754 358.156 264.188 359.746 262.598C361.337 261.008 369.833 250.652 376.074 251.845C382.315 253.038 382.972 252.77 386.688 254.101C390.405 255.432 397.441 255.432 397.302 252.64C397.164 249.848 402.351 231.014 401.685 228.222C401.019 225.43 407.907 212.828 407.907 212.828" stroke="#4A3021" stroke-width="0.5" stroke-miterlimit="10"/>
<path d="M218.998 195.339H215.758V194.706H223.869V195.339H220.629V202.473H218.998V195.339ZM224.757 194.706H226.4V197.99H230.804V194.706H232.446V202.473H230.804V198.623H226.4V202.473H224.757V194.706ZM239.601 200.487H235.474L234.509 202.473H233.377L237.416 194.595H238.414L242.22 202.473H240.533L239.601 200.487ZM239.302 199.854L237.582 196.182L235.785 199.854H239.302ZM235.873 192.731C235.57 192.532 235.418 192.347 235.418 192.177C235.418 192.073 235.459 191.992 235.54 191.933C235.622 191.873 235.729 191.844 235.862 191.844C236.01 191.844 236.143 191.87 236.262 191.921C236.38 191.973 236.491 192.058 236.594 192.177L238.114 193.93H237.582L235.873 192.731ZM243.166 194.706H244.786L249.013 200.209V194.706H250.522V202.473H249.479L244.675 196.149V202.473H243.166V194.706ZM252.126 194.706H253.768V197.99H258.173V194.706H259.815V202.473H258.173V198.623H253.768V202.473H252.126V194.706ZM264.543 194.706H267.694C268.825 194.706 269.698 194.895 270.312 195.272C270.933 195.642 271.244 196.252 271.244 197.103C271.244 197.946 270.941 198.556 270.334 198.933C269.728 199.311 268.848 199.499 267.694 199.499H266.185V202.473H264.543V194.706ZM267.716 198.856C268.345 198.856 268.818 198.726 269.136 198.467C269.454 198.209 269.613 197.754 269.613 197.103C269.613 196.467 269.454 196.015 269.136 195.749C268.825 195.475 268.352 195.339 267.716 195.339H266.185V198.856H267.716ZM272.29 194.706H273.932V197.99H278.337V194.706H279.979V202.473H278.337V198.623H273.932V202.473H272.29V194.706ZM285.769 202.584C284.859 202.584 284.071 202.425 283.406 202.107C282.747 201.788 282.245 201.33 281.897 200.731C281.549 200.124 281.375 199.399 281.375 198.556C281.375 197.728 281.549 197.018 281.897 196.426C282.252 195.834 282.759 195.383 283.417 195.072C284.075 194.754 284.859 194.595 285.769 194.595C286.671 194.595 287.448 194.754 288.099 195.072C288.757 195.383 289.26 195.834 289.608 196.426C289.963 197.018 290.14 197.728 290.14 198.556C290.14 199.399 289.967 200.124 289.619 200.731C289.271 201.33 288.768 201.788 288.11 202.107C287.452 202.425 286.671 202.584 285.769 202.584ZM285.769 201.951C286.642 201.951 287.311 201.663 287.777 201.086C288.243 200.501 288.476 199.658 288.476 198.556C288.476 197.476 288.243 196.652 287.777 196.082C287.311 195.512 286.642 195.228 285.769 195.228C284.889 195.228 284.212 195.516 283.739 196.093C283.273 196.663 283.04 197.484 283.04 198.556C283.04 199.658 283.273 200.501 283.739 201.086C284.205 201.663 284.881 201.951 285.769 201.951ZM287.866 191.234C288.006 191.056 288.177 190.967 288.376 190.967C288.495 190.967 288.587 190.993 288.654 191.045C288.728 191.097 288.765 191.167 288.765 191.256C288.765 191.33 288.717 191.418 288.62 191.522C288.532 191.618 288.38 191.751 288.165 191.921L287.389 192.521H286.89L287.866 191.234ZM285.292 192.143H286.246L287.722 193.93H286.934L285.769 192.831L284.604 193.93H283.816L285.292 192.143ZM215.889 208.706H219.04C220.172 208.706 221.044 208.895 221.658 209.272C222.28 209.642 222.59 210.252 222.59 211.103C222.59 211.946 222.287 212.556 221.68 212.933C221.074 213.311 220.194 213.499 219.04 213.499H217.531V216.473H215.889V208.706ZM219.062 212.856C219.691 212.856 220.164 212.726 220.482 212.467C220.8 212.209 220.959 211.754 220.959 211.103C220.959 210.467 220.8 210.015 220.482 209.749C220.172 209.475 219.698 209.339 219.062 209.339H217.531V212.856H219.062ZM223.636 208.706H225.278V211.99H229.683V208.706H231.325V216.473H229.683V212.623H225.278V216.473H223.636V208.706ZM238.48 214.487H234.353L233.387 216.473H232.256L236.294 208.595H237.293L241.098 216.473H239.412L238.48 214.487ZM238.18 213.854L236.461 210.182L234.663 213.854H238.18ZM242.044 208.706H243.664L247.891 214.209V208.706H249.4V216.473H248.357L243.553 210.149V216.473H242.044V208.706ZM256.655 209.339H253.415V208.706H261.525V209.339H258.286V216.473H256.655V209.339ZM262.414 208.706H264.056V211.99H268.461V208.706H270.103V216.473H268.461V212.623H264.056V216.473H262.414V208.706ZM272.121 208.706H273.763V216.473H272.121V208.706ZM275.784 208.706H282.763V209.339H277.426V211.99H282.142V212.623H277.426V215.84H282.763V216.473H275.784V208.706ZM281.487 205.234C281.627 205.056 281.798 204.967 281.997 204.967C282.116 204.967 282.208 204.993 282.275 205.045C282.349 205.097 282.386 205.167 282.386 205.256C282.386 205.33 282.338 205.418 282.241 205.522C282.153 205.618 282.001 205.751 281.786 205.921L281.01 206.521H280.511L281.487 205.234ZM278.913 206.143H279.867L281.343 207.93H280.555L279.39 206.831L278.225 207.93H277.437L278.913 206.143ZM286.375 209.339H283.135V208.706H291.245V209.339H288.006V216.473H286.375V209.339Z" fill="#4A3021"/>
<path d="M-36.9454 407.485L-38.6455 408.865L-38.8692 408.589L-34.8773 405.35L-34.6536 405.626L-36.348 407.001L-33.3094 410.746L-33.9068 411.23L-36.9454 407.485ZM-29.6932 406.078L-32.0079 407.956L-31.6824 409.425L-32.0844 409.752L-33.3026 403.977L-32.9925 403.726L-27.7135 406.205L-28.3568 406.727L-29.6932 406.078ZM-30.049 405.909L-32.7519 404.597L-32.0937 407.568L-30.049 405.909ZM-34.3757 402.819L-33.9736 402.493L-32.5484 402.794L-32.8298 403.022L-33.9556 402.926L-34.0934 404.047L-34.3749 404.276L-34.3757 402.819ZM-30.4973 401.796L-29.8942 401.307L-24.9168 402.44L-27.4474 399.322L-26.942 398.911L-23.6797 402.932L-23.9784 403.174L-29.5678 401.909L-26.7296 405.407L-27.235 405.817L-30.4973 401.796ZM-23.0181 396.185L-24.7182 397.564L-24.9419 397.289L-20.95 394.05L-20.7263 394.325L-22.4207 395.7L-19.3821 399.445L-19.9795 399.93L-23.0181 396.185ZM-20.4739 393.663L-19.8766 393.179L-18.4738 394.907L-15.8949 392.815L-17.2977 391.086L-16.7003 390.601L-13.438 394.622L-14.0354 395.107L-15.6758 393.085L-18.2548 395.177L-16.6143 397.199L-17.2116 397.684L-20.4739 393.663ZM-10.6535 392.458C-11.3198 392.998 -11.9218 393.242 -12.4597 393.19C-12.9969 393.131 -13.4923 392.821 -13.9459 392.262L-15.8521 389.913L-15.2547 389.428L-13.2414 391.91C-12.8934 392.339 -12.5263 392.584 -12.1401 392.645C-11.7538 392.706 -11.3329 392.552 -10.8772 392.182C-10.4292 391.819 -10.1938 391.443 -10.1711 391.057C-10.1445 390.667 -10.3083 390.254 -10.6625 389.817L-12.6758 387.336L-12.0785 386.851L-10.1723 389.2C-9.71873 389.759 -9.51818 390.308 -9.57068 390.846C-9.62628 391.38 -9.98722 391.917 -10.6535 392.458ZM-6.29215 387.09L-8.60685 388.968L-8.28133 390.438L-8.68339 390.764L-9.90159 384.99L-9.59143 384.738L-4.31244 387.217L-4.95573 387.739L-6.29215 387.09ZM-6.64795 386.922L-9.3509 385.61L-8.6927 388.581L-6.64795 386.922ZM-5.80996 389.833C-5.89803 389.904 -5.99408 389.934 -6.09813 389.924C-6.19523 389.914 -6.27796 389.866 -6.34631 389.782C-6.41467 389.698 -6.44379 389.607 -6.43368 389.51C-6.41974 389.41 -6.36873 389.324 -6.28066 389.253C-6.19259 389.181 -6.10001 389.15 -6.0029 389.161C-5.90197 389.168 -5.81732 389.213 -5.74897 389.297C-5.68062 389.382 -5.65341 389.474 -5.66735 389.574C-5.67435 389.675 -5.72189 389.761 -5.80996 389.833ZM-10.9747 383.831L-10.5726 383.505L-9.14735 383.806L-9.42879 384.034L-10.5546 383.938L-10.6924 385.06L-10.9738 385.288L-10.9747 383.831ZM-7.09631 382.809L-6.49322 382.319L-1.5158 383.453L-4.04642 380.334L-3.54097 379.924L-0.278673 383.944L-0.577345 384.187L-6.16677 382.921L-3.32857 386.419L-3.83401 386.829L-7.09631 382.809Z" fill="#4A3021"/>
<path d="M304.824 287.4V293H303.992V288.296L301.816 293H301.424L299.088 288.232V293H298.592V287.4H299.544L301.776 292.008L303.912 287.4H304.824ZM308.646 293.08C307.718 293.08 307.046 292.875 306.63 292.464C306.219 292.048 306.014 291.451 306.014 290.672V287.4H306.846V290.856C306.846 291.453 306.987 291.909 307.27 292.224C307.553 292.539 308.011 292.696 308.646 292.696C309.27 292.696 309.723 292.541 310.006 292.232C310.294 291.923 310.438 291.464 310.438 290.856V287.4H311.27V290.672C311.27 291.451 311.065 292.048 310.654 292.464C310.243 292.875 309.574 293.08 308.646 293.08ZM307.254 286.84C307.254 286.573 307.329 286.357 307.478 286.192C307.633 286.027 307.833 285.944 308.078 285.944C308.227 285.944 308.358 285.973 308.47 286.032C308.587 286.085 308.71 286.163 308.838 286.264C308.929 286.339 309.011 286.397 309.086 286.44C309.161 286.483 309.235 286.504 309.31 286.504C309.449 286.504 309.566 286.453 309.662 286.352C309.763 286.245 309.819 286.109 309.83 285.944H310.038C310.038 286.205 309.961 286.421 309.806 286.592C309.657 286.757 309.462 286.84 309.222 286.84C309.067 286.84 308.937 286.816 308.83 286.768C308.729 286.715 308.617 286.64 308.494 286.544C308.409 286.475 308.334 286.424 308.27 286.392C308.206 286.355 308.131 286.336 308.046 286.336C307.881 286.336 307.745 286.384 307.638 286.48C307.531 286.571 307.475 286.691 307.47 286.84H307.254ZM312.779 287.4H313.611V293H312.779V287.4ZM317.248 287.4H318.088L321.496 291.744V287.4H322.2V293H321.784L317.952 288.128V293H317.248V287.4ZM323.381 287.4H328.125V287.784H324.213V289.808H327.669V290.184H324.213V292.616H328.125V293H323.381V287.4ZM326.821 285.608C326.944 285.469 327.085 285.4 327.245 285.4C327.325 285.4 327.386 285.421 327.429 285.464C327.477 285.501 327.501 285.549 327.501 285.608C327.501 285.72 327.4 285.845 327.197 285.984L325.973 286.84H325.693L326.821 285.608Z" fill="#4A3021"/>
<path d="M138.001 356.597H138.921L141.153 361.325L143.553 356.597H144.097L141.209 362.277H140.777L138.001 356.597ZM145.045 356.597H145.877V362.197H145.045V356.597ZM145.461 363.373C145.338 363.373 145.237 363.333 145.157 363.253C145.082 363.179 145.045 363.083 145.045 362.965C145.045 362.848 145.082 362.752 145.157 362.677C145.237 362.603 145.338 362.565 145.461 362.565C145.584 362.565 145.682 362.603 145.757 362.677C145.837 362.752 145.877 362.848 145.877 362.965C145.877 363.083 145.837 363.179 145.757 363.253C145.682 363.333 145.584 363.373 145.461 363.373ZM147.389 356.597H148.229L151.637 360.941V356.597H152.341V362.197H151.925L148.093 357.325V362.197H147.389V356.597ZM153.522 356.597H154.354V359.005H157.946V356.597H158.778V362.197H157.946V359.381H154.354V362.197H153.522V356.597ZM162.084 356.597H164.204C164.972 356.597 165.567 356.739 165.988 357.021C166.41 357.304 166.62 357.736 166.62 358.317C166.62 358.893 166.412 359.323 165.996 359.605C165.58 359.888 164.983 360.029 164.204 360.029H162.916V362.197H162.084V356.597ZM164.22 359.645C165.266 359.645 165.788 359.203 165.788 358.317C165.788 357.427 165.266 356.981 164.22 356.981H162.916V359.645H164.22ZM167.397 356.597H168.229V359.005H171.821V356.597H172.653V362.197H171.821V359.381H168.229V362.197H167.397V356.597ZM177.826 360.741H174.602L173.874 362.197H173.314L176.226 356.517H176.658L179.402 362.197H178.506L177.826 360.741ZM177.642 360.357L176.266 357.413L174.794 360.357H177.642ZM180.069 356.597H180.909L184.317 360.941V356.597H185.021V362.197H184.605L180.773 357.325V362.197H180.069V356.597ZM190.174 356.981H187.806V356.597H193.366V356.981H191.006V362.197H190.174V356.981ZM194.03 356.597H194.862V359.005H198.454V356.597H199.286V362.197H198.454V359.381H194.862V362.197H194.03V356.597ZM200.795 356.597H201.627V362.197H200.795V356.597ZM203.139 356.597H207.883V356.981H203.971V359.005H207.427V359.381H203.971V361.813H207.883V362.197H203.139V356.597ZM207.131 354.181C207.243 354.053 207.35 353.989 207.451 353.989C207.52 353.989 207.576 354.008 207.619 354.045C207.662 354.077 207.683 354.123 207.683 354.181C207.683 354.235 207.656 354.288 207.603 354.341C207.55 354.395 207.454 354.475 207.315 354.581L206.611 355.093H206.347L207.131 354.181ZM205.299 354.813H205.859L206.851 356.037H206.459L205.579 355.189L204.699 356.037H204.307L205.299 354.813ZM210.549 356.981H208.181V356.597H213.741V356.981H211.381V362.197H210.549V356.981Z" fill="#4A3021"/>
<path d="M284.479 484.187H287.087C287.759 484.187 288.292 484.304 288.687 484.539C289.081 484.774 289.279 485.094 289.279 485.499C289.279 485.846 289.137 486.144 288.855 486.395C288.572 486.64 288.201 486.798 287.743 486.867C288.351 486.926 288.815 487.067 289.135 487.291C289.455 487.51 289.615 487.84 289.615 488.283C289.615 488.768 289.415 489.142 289.015 489.403C288.615 489.659 288.036 489.787 287.279 489.787H284.479V484.187ZM286.783 486.691C287.321 486.691 287.735 486.595 288.023 486.403C288.311 486.206 288.455 485.92 288.455 485.547C288.455 485.216 288.319 484.971 288.047 484.811C287.775 484.651 287.361 484.571 286.807 484.571H285.311V486.691H286.783ZM287.359 489.403C287.807 489.403 288.156 489.302 288.407 489.099C288.657 488.896 288.783 488.611 288.783 488.243C288.783 487.854 288.609 487.563 288.263 487.371C287.921 487.174 287.412 487.075 286.735 487.075H285.311V489.403H287.359ZM290.807 484.187H291.639V489.787H290.807V484.187ZM293.151 484.187H297.895V484.571H293.983V486.595H297.439V486.971H293.983V489.403H297.895V489.787H293.151V484.187ZM296.359 482.467C296.348 482.424 296.343 482.39 296.343 482.363C296.343 482.283 296.361 482.219 296.399 482.171C296.441 482.123 296.505 482.07 296.591 482.011C296.671 481.958 296.732 481.904 296.775 481.851C296.817 481.798 296.839 481.734 296.839 481.659C296.839 481.595 296.817 481.542 296.775 481.499C296.732 481.456 296.665 481.435 296.575 481.435C296.479 481.435 296.407 481.459 296.359 481.507C296.316 481.555 296.292 481.611 296.287 481.675H295.975C295.975 481.536 296.033 481.427 296.151 481.347C296.268 481.267 296.417 481.227 296.599 481.227C296.78 481.227 296.924 481.267 297.031 481.347C297.137 481.427 297.191 481.536 297.191 481.675C297.191 481.776 297.167 481.856 297.119 481.915C297.071 481.968 296.999 482.03 296.903 482.099C296.833 482.142 296.78 482.184 296.743 482.227C296.711 482.264 296.695 482.31 296.695 482.363C296.695 482.4 296.703 482.435 296.719 482.467H296.359ZM295.311 482.403H295.871L296.863 483.627H296.471L295.591 482.779L294.711 483.627H294.319L295.311 482.403ZM298.713 484.187H299.553L302.961 488.531V484.187H303.665V489.787H303.249L299.417 484.915V489.787H298.713V484.187ZM309.155 484.187C310.2 484.187 310.995 484.416 311.539 484.875C312.083 485.334 312.355 486.006 312.355 486.891C312.355 487.814 312.08 488.528 311.531 489.035C310.987 489.536 310.211 489.787 309.203 489.787H306.979V487.003H306.363V486.651H306.979V484.187H309.155ZM309.315 489.403C310.024 489.403 310.568 489.187 310.947 488.755C311.331 488.323 311.523 487.702 311.523 486.891C311.523 486.128 311.336 485.552 310.963 485.163C310.59 484.768 310.04 484.571 309.315 484.571H307.811V486.651H309.507V487.003H307.811V489.403H309.315ZM316.265 489.867C315.635 489.867 315.094 489.752 314.641 489.523C314.187 489.294 313.841 488.963 313.601 488.531C313.361 488.094 313.241 487.571 313.241 486.963C313.241 486.366 313.361 485.854 313.601 485.427C313.841 484.995 314.187 484.667 314.641 484.443C315.094 484.219 315.635 484.107 316.265 484.107C316.894 484.107 317.433 484.219 317.881 484.443C318.334 484.667 318.681 484.995 318.921 485.427C319.161 485.854 319.281 486.366 319.281 486.963C319.281 487.571 319.161 488.094 318.921 488.531C318.681 488.963 318.334 489.294 317.881 489.523C317.433 489.752 316.894 489.867 316.265 489.867ZM316.265 489.483C316.958 489.483 317.494 489.264 317.873 488.827C318.251 488.39 318.441 487.768 318.441 486.963C318.441 486.174 318.251 485.566 317.873 485.139C317.499 484.707 316.963 484.491 316.265 484.491C315.566 484.491 315.027 484.704 314.649 485.131C314.27 485.558 314.081 486.168 314.081 486.963C314.081 487.768 314.27 488.39 314.649 488.827C315.027 489.264 315.566 489.483 316.265 489.483ZM315.985 482.403H316.545L317.537 483.627H317.145L316.265 482.779L315.385 483.627H314.993L315.985 482.403ZM320.315 484.187H321.155L324.563 488.531V484.187H325.267V489.787H324.851L321.019 484.915V489.787H320.315V484.187ZM329.399 489.867C328.749 489.867 328.191 489.755 327.727 489.531C327.263 489.302 326.909 488.971 326.663 488.539C326.418 488.107 326.295 487.592 326.295 486.995C326.295 486.398 326.415 485.883 326.655 485.451C326.895 485.019 327.242 484.688 327.695 484.459C328.149 484.224 328.687 484.107 329.311 484.107C330.069 484.107 330.69 484.272 331.175 484.603C331.666 484.928 331.962 485.379 332.063 485.955H331.343C331.247 485.486 331.026 485.126 330.679 484.875C330.333 484.619 329.885 484.491 329.335 484.491C328.647 484.491 328.109 484.712 327.719 485.155C327.33 485.592 327.135 486.203 327.135 486.987C327.135 487.782 327.333 488.398 327.727 488.835C328.127 489.267 328.687 489.483 329.407 489.483C329.743 489.483 330.05 489.448 330.327 489.379C330.605 489.304 330.869 489.19 331.119 489.035V487.219H329.159V486.859H331.951V489.091C331.637 489.342 331.261 489.534 330.823 489.667C330.391 489.8 329.917 489.867 329.399 489.867Z" fill="#4A3021"/>
<path d="M260.165 63.5509C260.455 63.7415 260.784 63.7981 261.154 63.7207C261.527 63.6471 261.886 63.454 262.228 63.1412C262.299 63.0765 262.365 63.0059 262.425 62.9294L262.533 63.1552C262.413 63.3082 262.288 63.4441 262.158 63.5627C261.902 63.7964 261.618 63.9759 261.307 64.1014C261.003 64.2272 260.698 64.2849 260.393 64.2748C260.091 64.2685 259.819 64.1957 259.576 64.0562C258.932 64.5137 258.283 64.7049 257.63 64.6297C256.973 64.5506 256.368 64.2077 255.814 63.601C255.411 63.1598 255.155 62.7007 255.045 62.2237C254.931 61.7429 254.966 61.2669 255.149 60.7959C255.333 60.3248 255.658 59.8772 256.123 59.453C256.587 59.0288 257.061 58.7484 257.543 58.6119C258.029 58.4718 258.506 58.4804 258.974 58.6377C259.439 58.7911 259.873 59.0884 260.276 59.5297C260.869 60.1797 261.155 60.8572 261.134 61.5622C261.109 62.2633 260.787 62.9262 260.165 63.5509ZM256.434 63.0348C256.977 63.6297 257.536 63.961 258.11 64.0288C258.685 64.0966 259.23 63.895 259.746 63.4241C260.259 62.9567 260.507 62.4339 260.492 61.8556C260.477 61.2773 260.198 60.6908 259.655 60.0959C259.123 59.5128 258.573 59.1913 258.006 59.1314C257.439 59.064 256.898 59.2657 256.381 59.7366C255.865 60.2076 255.611 60.7283 255.619 61.2987C255.627 61.8691 255.899 62.4478 256.434 63.0348ZM264.941 59.2037C264.255 59.8293 263.621 60.1306 263.037 60.1076C262.453 60.0772 261.898 59.7743 261.374 59.1992L259.168 56.7822L259.783 56.2214L262.112 58.7742C262.515 59.2155 262.927 59.4571 263.348 59.499C263.768 59.5409 264.213 59.3479 264.682 58.9201C265.143 58.4995 265.374 58.0797 265.374 57.6606C265.378 57.238 265.175 56.8021 264.766 56.353L262.436 53.8002L263.051 53.2393L265.256 55.6563C265.781 56.2315 266.032 56.8111 266.009 57.3952C265.982 57.9754 265.626 58.5782 264.941 59.2037ZM269.873 54.7027C269.409 55.1269 268.931 55.4071 268.442 55.5433C267.952 55.6794 267.474 55.6689 267.005 55.5115C266.533 55.3503 266.092 55.0451 265.682 54.5959C265.28 54.1547 265.023 53.6956 264.913 53.2187C264.799 52.7378 264.834 52.2618 265.018 51.7908C265.202 51.3198 265.526 50.8721 265.991 50.4479C266.456 50.0237 266.929 49.7434 267.411 49.6068C267.897 49.4667 268.374 49.4753 268.842 49.6327C269.307 49.7861 269.741 50.0834 270.144 50.5246C270.554 50.9737 270.817 51.4407 270.935 51.9255C271.049 52.4064 271.016 52.8843 270.835 53.3593C270.659 53.8307 270.338 54.2785 269.873 54.7027ZM269.615 54.419C270.127 53.9517 270.375 53.4289 270.36 52.8506C270.345 52.2723 270.066 51.6857 269.523 51.0908C268.991 50.5078 268.442 50.1863 267.874 50.1263C267.307 50.0589 266.766 50.2606 266.25 50.7316C265.734 51.2025 265.479 51.7232 265.487 52.2936C265.495 52.864 265.767 53.4427 266.303 54.0297C266.846 54.6246 267.404 54.956 267.979 55.0238C268.553 55.0916 269.098 54.89 269.615 54.419ZM265.563 47.6762C265.559 47.5062 265.595 47.387 265.67 47.3187C265.721 47.272 265.775 47.248 265.831 47.2468C265.885 47.2417 265.931 47.2608 265.97 47.3042C266.006 47.3436 266.023 47.4009 266.019 47.4763C266.016 47.5516 265.999 47.6754 265.968 47.8477L265.793 48.7004L265.598 48.8784L265.563 47.6762ZM264.635 49.378L265.049 49.0005L266.607 49.236L266.317 49.5002L265.096 49.467L265.017 50.6865L264.728 50.9508L264.635 49.378ZM274.945 50.0747C274.24 50.7182 273.529 51.0273 272.813 51.0021C272.097 50.9769 271.424 50.6196 270.795 49.9302C270.18 49.2565 269.893 48.5657 269.933 47.8578C269.977 47.1463 270.349 46.4706 271.051 45.8307C271.622 45.3094 272.196 45.0054 272.774 44.9185C273.352 44.8317 273.87 44.9724 274.329 45.3407L273.797 45.8261C273.421 45.5484 273.017 45.4336 272.584 45.4818C272.148 45.526 271.733 45.7279 271.339 46.0874C270.827 46.5547 270.577 47.0718 270.589 47.6386C270.604 48.2018 270.88 48.777 271.416 49.364C271.962 49.9628 272.521 50.2979 273.091 50.3693C273.658 50.4367 274.2 50.235 274.716 49.764C275.11 49.4045 275.348 49.0134 275.432 48.5906C275.515 48.1679 275.434 47.7545 275.189 47.3507L275.72 46.8654C276.045 47.3559 276.138 47.8849 275.999 48.4523C275.86 49.0198 275.508 49.5606 274.945 50.0747ZM275.373 41.995L275.987 41.4341L279.503 45.2871L282.103 42.9144L282.362 43.198L279.147 46.1315L275.373 41.995ZM284.901 40.9897C284.436 41.4139 283.959 41.6941 283.469 41.8303C282.98 41.9665 282.501 41.9559 282.032 41.7986C281.56 41.6373 281.119 41.3321 280.71 40.883C280.307 40.4418 280.05 39.9827 279.94 39.5057C279.826 39.0248 279.861 38.5489 280.045 38.0778C280.229 37.6068 280.553 37.1592 281.018 36.735C281.483 36.3108 281.956 36.0304 282.438 35.8939C282.924 35.7538 283.401 35.7624 283.87 35.9197C284.335 36.0731 284.769 36.3704 285.171 36.8116C285.581 37.2608 285.845 37.7277 285.962 38.2125C286.076 38.6934 286.043 39.1714 285.863 39.6463C285.686 40.1177 285.366 40.5655 284.901 40.9897ZM284.642 40.7061C285.154 40.2387 285.403 39.7159 285.388 39.1376C285.372 38.5593 285.094 37.9727 284.551 37.3779C284.019 36.7948 283.469 36.4733 282.902 36.4134C282.335 36.3459 281.793 36.5477 281.277 37.0186C280.761 37.4896 280.507 38.0102 280.515 38.5807C280.523 39.1511 280.794 39.7298 281.33 40.3168C281.873 40.9117 282.432 41.243 283.006 41.3108C283.581 41.3786 284.126 41.177 284.642 40.7061ZM285.64 41.7993C285.549 41.882 285.447 41.9208 285.334 41.9156C285.229 41.9108 285.136 41.865 285.057 41.7783C284.978 41.6917 284.941 41.5956 284.946 41.4901C284.955 41.381 285.004 41.2852 285.095 41.2025C285.186 41.1198 285.284 41.0809 285.389 41.0857C285.499 41.0869 285.593 41.1309 285.672 41.2175C285.751 41.3042 285.786 41.4021 285.777 41.5112C285.776 41.6206 285.73 41.7166 285.64 41.7993ZM279.663 35.665L280.076 35.2875L281.634 35.523L281.345 35.7872L280.123 35.754L280.045 36.9736L279.755 37.2378L279.663 35.665ZM288.018 32.1236L286.942 33.1051L286.732 32.8746C287.016 32.6007 287.211 32.3113 287.315 32.0066C287.416 31.6978 287.417 31.394 287.318 31.0949L287.79 30.6635L291.565 34.8001L290.962 35.3502L288.018 32.1236ZM295.49 29.2473L293.109 31.4205L293.552 32.9867L293.139 33.3642L291.461 27.2056L291.78 26.9144L297.636 29.2605L296.974 29.8644L295.49 29.2473ZM295.095 29.0876L292.094 27.8405L292.992 31.0074L295.095 29.0876Z" fill="#4A3021"/>
<path d="M160.464 166.076C160.807 166.022 161.089 165.843 161.311 165.537C161.538 165.231 161.673 164.848 161.716 164.386C161.725 164.29 161.726 164.194 161.72 164.097L161.952 164.191C161.966 164.385 161.964 164.57 161.948 164.745C161.915 165.09 161.826 165.414 161.679 165.716C161.539 166.014 161.352 166.261 161.119 166.459C160.892 166.657 160.641 166.786 160.368 166.846C160.199 167.618 159.847 168.195 159.313 168.579C158.773 168.962 158.094 169.115 157.276 169.038C156.682 168.982 156.183 168.814 155.781 168.535C155.373 168.256 155.079 167.88 154.899 167.407C154.718 166.935 154.658 166.386 154.717 165.759C154.776 165.133 154.938 164.607 155.203 164.182C155.468 163.751 155.827 163.437 156.28 163.239C156.727 163.04 157.248 162.968 157.843 163.024C158.719 163.107 159.386 163.416 159.845 163.952C160.298 164.488 160.504 165.196 160.464 166.076ZM157.355 168.201C158.157 168.277 158.793 168.147 159.264 167.811C159.735 167.475 160.003 166.959 160.069 166.263C160.134 165.573 159.967 165.019 159.567 164.601C159.167 164.183 158.566 163.936 157.764 163.861C156.978 163.787 156.355 163.918 155.895 164.255C155.43 164.586 155.165 165.1 155.099 165.795C155.034 166.491 155.195 167.047 155.585 167.464C155.974 167.881 156.564 168.127 157.355 168.201ZM161.078 159.647C160.991 160.571 160.724 161.221 160.276 161.596C159.823 161.966 159.209 162.115 158.434 162.042L155.176 161.735L155.254 160.906L158.695 161.23C159.29 161.287 159.757 161.189 160.097 160.937C160.437 160.685 160.636 160.243 160.696 159.611C160.754 158.99 160.643 158.524 160.361 158.213C160.08 157.898 159.637 157.711 159.032 157.654L155.591 157.33L155.669 156.502L158.927 156.809C159.702 156.882 160.278 157.142 160.653 157.59C161.024 158.037 161.165 158.723 161.078 159.647ZM161.705 152.999C161.645 153.626 161.481 154.154 161.21 154.584C160.939 155.013 160.577 155.327 160.125 155.526C159.667 155.724 159.135 155.794 158.53 155.737C157.935 155.681 157.436 155.514 157.034 155.235C156.627 154.955 156.333 154.579 156.152 154.107C155.972 153.635 155.911 153.085 155.97 152.459C156.029 151.832 156.191 151.306 156.456 150.881C156.722 150.451 157.081 150.137 157.533 149.938C157.981 149.739 158.502 149.668 159.096 149.724C159.702 149.781 160.211 149.949 160.624 150.229C161.031 150.509 161.328 150.885 161.514 151.358C161.7 151.825 161.764 152.372 161.705 152.999ZM161.322 152.963C161.387 152.273 161.22 151.719 160.82 151.301C160.42 150.882 159.819 150.636 159.017 150.56C158.232 150.486 157.609 150.618 157.148 150.955C156.683 151.286 156.418 151.799 156.352 152.495C156.287 153.19 156.449 153.747 156.838 154.164C157.227 154.581 157.817 154.826 158.608 154.901C159.41 154.976 160.047 154.846 160.518 154.51C160.988 154.174 161.257 153.659 161.322 152.963ZM153.79 150.694C153.673 150.571 153.619 150.459 153.629 150.358C153.635 150.289 153.659 150.235 153.7 150.196C153.736 150.156 153.783 150.139 153.842 150.145C153.895 150.15 153.945 150.181 153.993 150.239C154.041 150.298 154.112 150.401 154.205 150.549L154.649 151.298L154.624 151.56L153.79 150.694ZM154.247 152.578L154.3 152.02L155.611 151.147L155.575 151.538L154.648 152.334L155.409 153.29L155.373 153.68L154.247 152.578ZM162.349 146.163C162.259 147.114 161.941 147.82 161.394 148.283C160.846 148.746 160.108 148.933 159.179 148.846C158.271 148.76 157.594 148.442 157.148 147.891C156.702 147.335 156.523 146.584 156.612 145.639C156.685 144.869 156.906 144.258 157.275 143.805C157.645 143.352 158.123 143.108 158.71 143.072L158.643 143.789C158.178 143.837 157.801 144.023 157.513 144.35C157.22 144.676 157.049 145.104 156.999 145.635C156.933 146.325 157.096 146.876 157.486 147.288C157.876 147.695 158.467 147.935 159.258 148.01C160.065 148.086 160.704 147.958 161.174 147.628C161.639 147.297 161.904 146.783 161.97 146.088C162.02 145.557 161.934 145.106 161.712 144.737C161.489 144.368 161.151 144.117 160.698 143.983L160.765 143.266C161.336 143.411 161.76 143.74 162.038 144.254C162.317 144.768 162.42 145.404 162.349 146.163ZM157.234 139.894L157.312 139.066L162.505 139.555L162.835 136.05L163.218 136.086L162.809 140.419L157.234 139.894ZM163.613 132.745C163.554 133.371 163.389 133.9 163.118 134.33C162.847 134.759 162.485 135.073 162.033 135.272C161.575 135.47 161.043 135.54 160.438 135.483C159.843 135.427 159.345 135.26 158.943 134.981C158.535 134.701 158.241 134.325 158.06 133.853C157.88 133.381 157.819 132.831 157.878 132.205C157.937 131.578 158.099 131.052 158.364 130.627C158.63 130.197 158.989 129.883 159.442 129.684C159.889 129.485 160.41 129.414 161.005 129.47C161.61 129.527 162.119 129.695 162.532 129.975C162.939 130.255 163.236 130.631 163.422 131.104C163.608 131.571 163.672 132.118 163.613 132.745ZM163.231 132.709C163.296 132.019 163.128 131.464 162.728 131.046C162.328 130.628 161.728 130.382 160.926 130.306C160.14 130.232 159.517 130.364 159.057 130.701C158.591 131.032 158.326 131.545 158.261 132.241C158.195 132.936 158.357 133.493 158.746 133.91C159.135 134.327 159.726 134.572 160.517 134.647C161.319 134.722 161.955 134.592 162.426 134.256C162.897 133.92 163.165 133.405 163.231 132.709ZM164.704 132.848C164.693 132.97 164.643 133.067 164.556 133.139C164.475 133.206 164.376 133.235 164.259 133.224C164.142 133.213 164.05 133.166 163.983 133.085C163.916 132.998 163.888 132.894 163.9 132.772C163.911 132.65 163.958 132.555 164.039 132.488C164.121 132.415 164.22 132.384 164.337 132.395C164.454 132.406 164.545 132.455 164.612 132.542C164.685 132.624 164.716 132.726 164.704 132.848ZM156.156 132.324L156.208 131.766L157.52 130.893L157.483 131.283L156.556 132.08L157.318 133.036L157.281 133.426L156.156 132.324ZM164.095 126.773C163.706 126.693 163.36 126.473 163.057 126.113C162.753 125.752 162.454 125.207 162.158 124.477C161.975 124.037 161.801 123.688 161.638 123.432C161.474 123.175 161.302 122.985 161.121 122.861C160.935 122.736 160.719 122.662 160.475 122.639C160.05 122.599 159.714 122.696 159.467 122.93C159.215 123.163 159.066 123.519 159.021 123.997C158.975 124.491 159.063 124.893 159.285 125.203C159.503 125.507 159.826 125.685 160.256 125.736L160.188 126.453C159.652 126.338 159.248 126.054 158.975 125.599C158.701 125.145 158.596 124.586 158.659 123.922C158.701 123.471 158.807 123.082 158.978 122.755C159.148 122.423 159.37 122.173 159.643 122.006C159.916 121.839 160.217 121.771 160.546 121.802C160.817 121.828 161.06 121.918 161.276 122.072C161.486 122.226 161.691 122.467 161.89 122.797C162.09 123.121 162.308 123.567 162.544 124.136C162.706 124.521 162.849 124.823 162.972 125.044C163.097 125.259 163.226 125.424 163.36 125.539C163.489 125.647 163.642 125.726 163.82 125.775L164.172 122.031L164.539 122.066L164.095 126.773ZM161.789 117.819C162.066 117.207 162.343 116.77 162.62 116.507C162.897 116.238 163.205 116.12 163.545 116.152C163.869 116.183 164.143 116.318 164.367 116.559C164.591 116.794 164.751 117.115 164.846 117.52C164.942 117.926 164.965 118.394 164.915 118.925C164.866 119.44 164.76 119.883 164.597 120.253C164.434 120.618 164.226 120.893 163.973 121.078C163.72 121.258 163.435 121.333 163.116 121.303C162.744 121.267 162.436 121.097 162.192 120.79C161.942 120.482 161.785 120.076 161.72 119.572C161.504 119.986 161.286 120.284 161.065 120.466C160.839 120.649 160.599 120.728 160.344 120.704C159.924 120.664 159.612 120.429 159.406 119.997C159.195 119.564 159.123 118.998 159.189 118.297C159.229 117.867 159.318 117.492 159.455 117.173C159.592 116.854 159.768 116.613 159.981 116.451C160.189 116.289 160.421 116.219 160.676 116.243C160.952 116.269 161.189 116.423 161.388 116.704C161.581 116.985 161.715 117.356 161.789 117.819ZM160.279 119.854C160.518 119.877 160.734 119.774 160.927 119.545C161.121 119.312 161.336 118.904 161.573 118.321C161.474 117.947 161.333 117.653 161.15 117.437C160.967 117.216 160.764 117.095 160.541 117.074C160.281 117.05 160.056 117.16 159.867 117.405C159.678 117.649 159.564 117.979 159.525 118.393C159.486 118.807 159.537 119.149 159.677 119.42C159.813 119.684 160.014 119.829 160.279 119.854ZM164.578 118.837C164.627 118.316 164.557 117.889 164.369 117.556C164.181 117.222 163.904 117.038 163.537 117.003C163.351 116.986 163.184 117.031 163.034 117.14C162.88 117.244 162.729 117.422 162.582 117.676C162.435 117.93 162.273 118.282 162.097 118.732L161.973 119.025C162.033 119.459 162.162 119.801 162.358 120.05C162.55 120.293 162.799 120.429 163.107 120.458C163.5 120.495 163.831 120.365 164.1 120.069C164.369 119.773 164.528 119.362 164.578 118.837Z" fill="#4A3021"/>
<path d="M55.3579 197.101C54.568 197.637 53.8205 197.842 53.1153 197.715C52.4101 197.587 51.7954 197.138 51.2712 196.365C50.759 195.611 50.5732 194.886 50.7138 194.191C50.8588 193.493 51.324 192.878 52.1095 192.344C52.7493 191.91 53.3614 191.691 53.9456 191.688C54.5299 191.684 55.0228 191.898 55.4243 192.328L54.8286 192.732C54.496 192.404 54.1122 192.232 53.6772 192.218C53.2392 192.2 52.7995 192.34 52.3583 192.64C51.7846 193.029 51.4632 193.505 51.3939 194.068C51.3291 194.628 51.5199 195.236 51.9662 195.894C52.4215 196.564 52.9264 196.976 53.481 197.128C54.0325 197.276 54.5973 197.153 55.1753 196.761C55.6166 196.461 55.9087 196.108 56.0518 195.702C56.1948 195.295 56.1735 194.875 55.9879 194.44L56.5836 194.035C56.8351 194.567 56.8515 195.104 56.6326 195.646C56.4138 196.188 55.9889 196.673 55.3579 197.101ZM60.8073 191.545L58.1398 193.356L58.3553 194.97L57.892 195.284L57.111 188.949L57.4684 188.706L62.929 191.865L62.1877 192.368L60.8073 191.545ZM60.4394 191.331L57.6474 189.668L58.083 192.93L60.4394 191.331ZM65.5718 190.167C65.0511 190.521 64.5388 190.73 64.0349 190.795C63.531 190.86 63.0585 190.781 62.6173 190.558C62.1731 190.331 61.7803 189.966 61.4388 189.463C61.1033 188.969 60.915 188.478 60.8739 187.99C60.8298 187.498 60.9324 187.032 61.1817 186.592C61.4309 186.152 61.8159 185.755 62.3366 185.402C62.8573 185.048 63.3659 184.838 63.8623 184.772C64.3632 184.703 64.8343 184.779 65.2755 185.002C65.7137 185.22 66.1005 185.576 66.436 186.071C66.7775 186.574 66.9718 187.073 67.0189 187.57C67.063 188.062 66.9619 188.531 66.7156 188.975C66.4737 189.416 66.0925 189.814 65.5718 190.167ZM65.3561 189.85C65.9297 189.46 66.2504 188.978 66.3181 188.404C66.3857 187.829 66.1934 187.209 65.7411 186.542C65.2977 185.889 64.7996 185.493 64.2466 185.352C63.6951 185.205 63.1303 185.327 62.5523 185.719C61.9742 186.112 61.6484 186.591 61.5747 187.157C61.5011 187.722 61.6874 188.334 62.1337 188.991C62.5861 189.658 63.0917 190.065 63.6506 190.214C64.2096 190.364 64.7781 190.242 65.3561 189.85ZM69.2351 181.279L67.2759 182.609L67.0602 182.292L71.6603 179.169L71.876 179.487L69.9234 180.812L72.8531 185.128L72.1647 185.595L69.2351 181.279ZM77.7754 181.883C77.2547 182.236 76.7425 182.445 76.2386 182.51C75.7347 182.575 75.2621 182.496 74.8209 182.274C74.3767 182.047 73.9839 181.682 73.6424 181.179C73.3069 180.684 73.1186 180.193 73.0775 179.705C73.0335 179.213 73.1361 178.747 73.3853 178.307C73.6346 177.867 74.0196 177.471 74.5402 177.117C75.0609 176.764 75.5695 176.554 76.066 176.487C76.5669 176.418 77.0379 176.495 77.4791 176.717C77.9173 176.936 78.3042 177.292 78.6397 177.786C78.9812 178.289 79.1755 178.789 79.2225 179.286C79.2666 179.778 79.1655 180.246 78.9192 180.69C78.6774 181.132 78.2961 181.529 77.7754 181.883ZM77.5597 181.565C78.1334 181.176 78.454 180.694 78.5217 180.119C78.5894 179.545 78.397 178.924 77.9447 178.258C77.5014 177.605 77.0032 177.208 76.4503 177.068C75.8988 176.92 75.334 177.042 74.7559 177.435C74.1779 177.827 73.852 178.306 73.7784 178.872C73.7047 179.438 73.8911 180.049 74.3374 180.707C74.7897 181.373 75.2953 181.781 75.8543 181.93C76.4132 182.079 76.9817 181.957 77.5597 181.565ZM74.5123 174.313C74.533 174.144 74.5853 174.031 74.6692 173.974C74.7265 173.935 74.7834 173.919 74.8396 173.926C74.8929 173.929 74.936 173.954 74.969 174.003C74.9989 174.047 75.0068 174.106 74.9926 174.18C74.9785 174.254 74.944 174.374 74.8892 174.54L74.5943 175.359L74.3758 175.508L74.5123 174.313ZM73.3515 175.865L73.8148 175.55L75.3231 176.006L74.9987 176.226L73.7944 176.018L73.5426 177.214L73.2182 177.434L73.3515 175.865ZM83.456 178.026C82.6662 178.563 81.9186 178.767 81.2134 178.64C80.5082 178.513 79.8935 178.063 79.3693 177.291C78.8571 176.536 78.6713 175.811 78.8119 175.116C78.9569 174.419 79.4221 173.803 80.2076 173.27C80.8474 172.835 81.4595 172.617 82.0437 172.613C82.628 172.61 83.1209 172.823 83.5225 173.253L82.9268 173.657C82.5941 173.329 82.2103 173.158 81.7753 173.143C81.3373 173.125 80.8976 173.265 80.4564 173.565C79.8827 173.954 79.5613 174.43 79.492 174.993C79.4272 175.553 79.618 176.161 80.0643 176.819C80.5196 177.49 81.0245 177.901 81.5791 178.053C82.1306 178.201 82.6954 178.079 83.2734 177.686C83.7147 177.387 84.0068 177.034 84.1499 176.627C84.2929 176.221 84.2716 175.8 84.086 175.365L84.6817 174.961C84.9332 175.493 84.9496 176.029 84.7307 176.571C84.5119 177.113 84.087 177.598 83.456 178.026ZM90.037 173.559C89.3486 174.026 88.6776 174.182 88.0239 174.026C87.3717 173.863 86.7865 173.4 86.2682 172.636C85.75 171.873 85.5369 171.16 85.629 170.498C85.7225 169.829 86.1134 169.261 86.8018 168.793C87.4858 168.329 88.1538 168.178 88.8061 168.342C89.4597 168.497 90.0457 168.957 90.5639 169.72C91.0821 170.484 91.2967 171.198 91.2076 171.865C91.1156 172.527 90.7253 173.092 90.037 173.559ZM89.8483 173.281C90.3072 172.969 90.5381 172.545 90.541 172.008C90.5483 171.468 90.3243 170.863 89.8689 170.192C89.4136 169.521 88.9337 169.09 88.4291 168.897C87.929 168.702 87.4494 168.76 86.9905 169.071C86.5316 169.383 86.2985 169.809 86.2912 170.349C86.2883 170.886 86.5145 171.489 86.9698 172.16C87.4252 172.831 87.9029 173.264 88.4031 173.459C88.9076 173.652 89.3893 173.592 89.8483 173.281ZM92.0681 166.804L90.8635 167.622L90.6882 167.364C91.0088 167.133 91.2425 166.874 91.3895 166.588C91.5335 166.297 91.5776 165.996 91.5218 165.686L92.0513 165.326L95.1966 169.96L94.5215 170.418L92.0681 166.804Z" fill="#4A3021"/>
<path d="M269.592 116.4H270.424V118.808H274.016V116.4H274.848V122H274.016V119.184H270.424V122H269.592V116.4ZM278.902 122.08C278.272 122.08 277.731 121.965 277.278 121.736C276.824 121.507 276.478 121.176 276.238 120.744C275.998 120.307 275.878 119.784 275.878 119.176C275.878 118.579 275.998 118.067 276.238 117.64C276.478 117.208 276.824 116.88 277.278 116.656C277.731 116.432 278.272 116.32 278.902 116.32C279.531 116.32 280.07 116.432 280.518 116.656C280.971 116.88 281.318 117.208 281.558 117.64C281.798 118.067 281.918 118.579 281.918 119.176C281.918 119.784 281.798 120.307 281.558 120.744C281.318 121.176 280.971 121.507 280.518 121.736C280.07 121.965 279.531 122.08 278.902 122.08ZM278.902 121.696C279.595 121.696 280.131 121.477 280.51 121.04C280.888 120.603 281.078 119.981 281.078 119.176C281.078 118.387 280.888 117.779 280.51 117.352C280.136 116.92 279.6 116.704 278.902 116.704C278.203 116.704 277.664 116.917 277.286 117.344C276.907 117.771 276.718 118.381 276.718 119.176C276.718 119.981 276.907 120.603 277.286 121.04C277.664 121.477 278.203 121.696 278.902 121.696ZM279.574 114.384C279.44 114.283 279.344 114.205 279.286 114.152C279.232 114.093 279.206 114.037 279.206 113.984C279.206 113.925 279.227 113.88 279.27 113.848C279.312 113.811 279.368 113.792 279.438 113.792C279.544 113.792 279.648 113.856 279.75 113.984L280.542 114.896H280.27L279.574 114.384ZM278.622 114.616H279.182L280.174 115.84H279.782L278.902 114.992L278.022 115.84H277.63L278.622 114.616ZM282.951 116.4H283.791L287.199 120.744V116.4H287.903V122H287.487L283.655 117.128V122H282.951V116.4ZM292.036 122.08C291.386 122.08 290.828 121.968 290.364 121.744C289.9 121.515 289.546 121.184 289.3 120.752C289.055 120.32 288.932 119.805 288.932 119.208C288.932 118.611 289.052 118.096 289.292 117.664C289.532 117.232 289.879 116.901 290.332 116.672C290.786 116.437 291.324 116.32 291.948 116.32C292.706 116.32 293.327 116.485 293.812 116.816C294.303 117.141 294.599 117.592 294.7 118.168H293.98C293.884 117.699 293.663 117.339 293.316 117.088C292.97 116.832 292.522 116.704 291.972 116.704C291.284 116.704 290.746 116.925 290.356 117.368C289.967 117.805 289.772 118.416 289.772 119.2C289.772 119.995 289.97 120.611 290.364 121.048C290.764 121.48 291.324 121.696 292.044 121.696C292.38 121.696 292.687 121.661 292.964 121.592C293.242 121.517 293.506 121.403 293.756 121.248V119.432H291.796V119.072H294.588V121.304C294.274 121.555 293.898 121.747 293.46 121.88C293.028 122.013 292.554 122.08 292.036 122.08ZM297.858 116.4H299.978C300.746 116.4 301.34 116.541 301.762 116.824C302.183 117.107 302.394 117.539 302.394 118.12C302.394 118.696 302.186 119.125 301.77 119.408C301.354 119.691 300.756 119.832 299.978 119.832H298.69V122H297.858V116.4ZM299.994 119.448C301.039 119.448 301.562 119.005 301.562 118.12C301.562 117.229 301.039 116.784 299.994 116.784H298.69V119.448H299.994ZM303.17 116.4H304.002V118.808H307.594V116.4H308.426V122H307.594V119.184H304.002V122H303.17V116.4ZM312.48 122.08C311.85 122.08 311.309 121.965 310.856 121.736C310.402 121.507 310.056 121.176 309.816 120.744C309.576 120.307 309.456 119.784 309.456 119.176C309.456 118.579 309.576 118.067 309.816 117.64C310.056 117.208 310.402 116.88 310.856 116.656C311.309 116.432 311.85 116.32 312.48 116.32C313.109 116.32 313.648 116.432 314.096 116.656C314.549 116.88 314.896 117.208 315.136 117.64C315.376 118.067 315.496 118.579 315.496 119.176C315.496 119.784 315.376 120.307 315.136 120.744C314.896 121.176 314.549 121.507 314.096 121.736C313.648 121.965 313.109 122.08 312.48 122.08ZM312.48 121.696C313.173 121.696 313.709 121.477 314.088 121.04C314.466 120.603 314.656 119.981 314.656 119.176C314.656 118.387 314.466 117.779 314.088 117.352C313.714 116.92 313.178 116.704 312.48 116.704C311.781 116.704 311.242 116.917 310.864 117.344C310.485 117.771 310.296 118.381 310.296 119.176C310.296 119.981 310.485 120.603 310.864 121.04C311.242 121.477 311.781 121.696 312.48 121.696ZM316.53 116.4H317.37L320.778 120.744V116.4H321.482V122H321.066L317.234 117.128V122H316.53V116.4ZM325.614 122.08C324.964 122.08 324.406 121.968 323.942 121.744C323.478 121.515 323.124 121.184 322.878 120.752C322.633 120.32 322.51 119.805 322.51 119.208C322.51 118.611 322.63 118.096 322.87 117.664C323.11 117.232 323.457 116.901 323.91 116.672C324.364 116.437 324.902 116.32 325.526 116.32C326.284 116.32 326.905 116.485 327.39 116.816C327.881 117.141 328.177 117.592 328.278 118.168H327.558C327.462 117.699 327.241 117.339 326.894 117.088C326.548 116.832 326.1 116.704 325.55 116.704C324.862 116.704 324.324 116.925 323.934 117.368C323.545 117.805 323.35 118.416 323.35 119.2C323.35 119.995 323.548 120.611 323.942 121.048C324.342 121.48 324.902 121.696 325.622 121.696C325.958 121.696 326.265 121.661 326.542 121.592C326.82 121.517 327.084 121.403 327.334 121.248V119.432H325.374V119.072H328.166V121.304C327.852 121.555 327.476 121.747 327.038 121.88C326.606 122.013 326.132 122.08 325.614 122.08Z" fill="#4A3021"/>
<g clip-path="url(#clip1_5632_13931)">
<path d="M318.247 174.184C318.247 174.184 323.175 180.702 323.175 184.539C323.175 188.376 324.969 200.34 323.175 203.132C321.381 205.924 318.7 210.26 318.247 215.346C317.794 220.431 315.575 233.976 313.671 237.471C311.766 240.965 315.973 258.736 315.973 258.736" stroke="#4A3021" stroke-width="0.5" stroke-miterlimit="10"/>
</g>
</g>
<defs>
<clipPath id="clip0_5632_13931">
<rect width="382" height="570" fill="white"/>
</clipPath>
<clipPath id="clip1_5632_13931">
<rect width="11.7236" height="84.959" fill="white" transform="translate(312.711 173.904)"/>
</clipPath>
</defs>
</svg>
