<svg width="721" height="675" viewBox="0 0 721 675" fill="none" xmlns="http://www.w3.org/2000/svg">
<path d="M369.95 0.980469H-1.5V676.98H404.21C404.21 676.98 403.78 652.581 389.83 642.56C375.88 632.54 350.18 615.56 359.33 606.83C368.48 598.1 377.63 581.99 388.96 584.61C400.29 587.23 397.24 596.37 404.21 598.55C411.18 600.73 413.36 608.14 406.83 611.62C400.3 615.1 402.47 646.91 406.39 659.11C410.31 671.31 410.74 676.98 410.74 676.98H451.27C451.27 676.98 433.03 637.98 437.89 600.82C439.66 585.82 440.3 585.94 446.52 586.5C452.74 587.06 459.34 587.26 460.84 585.37C462.34 583.48 468.76 582.37 468.95 577.08C469.14 571.79 470.75 541.95 480.44 541.79C490.13 541.63 494.37 544.61 492.44 532.56C490.51 520.51 494.44 513.17 480.86 508.94C467.28 504.71 452.91 500.62 448.86 492.77C444.81 484.92 445.51 472.77 451.37 476.67C457.23 480.57 455.14 480.01 457.75 476.25C460.36 472.49 466.12 460.14 464.86 455.02C463.6 449.9 465.77 451.74 456.1 441.21C446.43 430.68 437.41 425.1 437.19 421.66C436.97 418.22 439.34 412.85 434.19 412.42C429.04 411.99 420.65 412.42 413.99 414.78C407.33 417.14 400.45 423.38 398.3 421.01C396.15 418.64 386.05 411.56 384.55 409.62C383.05 407.68 388.09 404.9 392.98 410.91C397.87 416.92 405.49 418.18 407.79 414.6C410.09 411.02 404.79 414.49 401.33 411.84C397.87 409.19 393.26 399.961 396.61 400.07C399.96 400.18 402.19 396.73 402.78 399.37C403.37 402.01 404.66 407.31 409.18 406.451C413.7 405.591 416.77 403.57 423.34 405.81C429.91 408.05 441.26 410.44 444.09 411.18C446.92 411.92 447.38 421.18 452 424.77C456.62 428.36 460.66 434.92 465.59 434.62C470.52 434.32 476.78 433.62 477.38 429.1C477.98 424.58 475.74 402.68 479.92 401.18C476.78 399.39 463.35 391.18 456.03 378.79C448.71 366.4 442.03 347.74 441.7 340.28C441.37 332.82 442.6 296.69 448.27 293.56C453.94 290.43 460.36 290.56 460.51 284.75C460.66 278.94 458.72 278.75 455.29 276.24C451.86 273.73 453.2 259.68 455.88 252.24C458.56 244.8 460.81 241.24 467.53 239.55C474.25 237.86 482.9 233.88 483.65 231.49C484.4 229.1 494.65 235.97 503.35 234.93C512.05 233.89 514.25 234.48 517.23 232.39C515.44 230.3 514.23 225.22 519.77 222.24C525.31 219.26 529.32 216.57 528.13 214.03C526.94 211.49 526.04 210.3 519.03 206.71C512.02 203.12 506.03 198.8 502.16 194.47C498.29 190.14 485.74 180.89 484.39 177.76C483.04 174.63 475.14 175.22 472.9 174.32C470.66 173.42 467.83 170.74 467.23 164.92C466.63 159.1 466.93 159.84 460.36 155.81C453.79 151.78 447.82 151.48 448.87 144.92C449.92 138.36 456.18 137.3 454.09 134.92C452 132.54 443.64 131.03 444.54 122.92C445.44 114.81 448.42 109.19 443.64 104.41C438.86 99.6305 439.31 95.6105 441.85 93.2205C444.39 90.8305 443.65 86.0005 442.41 77.6605C441.17 69.3205 441.64 59.7305 444.61 54.6605C447.58 49.5905 451.51 45.6605 448.25 42.4805C444.99 39.3005 447.58 35.6704 447.49 34.1404C447.4 32.6104 447.39 30.6904 440.3 28.5804C433.21 26.4704 434.46 27.5804 429.41 23.0204C424.36 18.4604 420.53 12.0204 415.98 12.4304C411.43 12.8404 409.16 16.1504 405.75 15.4304C402.34 14.7104 398.31 7.88042 395.75 6.74042C393.19 5.60042 393.99 15.0104 391.51 15.7404C389.03 16.4704 388 18.0104 382.93 15.4304C377.86 12.8504 369.95 0.980469 369.95 0.980469Z" fill="white"/>
<path d="M487.719 45.2103C487.719 45.2103 491.389 53.0503 494.719 53.5003C498.049 53.9503 511.829 56.1603 513.019 58.6803C514.209 61.2003 517.309 56.3103 520.709 52.9103C524.109 49.5103 523.079 46.1003 521.899 41.5103C520.719 36.9203 522.489 31.4403 517.459 30.5103C512.669 29.5765 508.158 27.5507 504.279 24.5903C501.279 22.2203 499.099 30.2203 497.179 34.5103C495.253 38.9984 491.937 42.7494 487.719 45.2103Z" fill="white"/>
<path d="M518.809 0.980469C518.809 0.980469 521.179 10.8805 520.809 11.9805C520.439 13.0805 526.039 6.36042 529.379 12.4304C532.719 18.5004 534.919 21.0004 535.299 26.0104C535.679 31.0204 542.299 39.5604 547.899 45.0104C553.499 50.4604 559.329 54.7804 559.329 57.5704C559.329 60.3604 561.149 60.9205 563.239 62.7305C565.329 64.5405 572.449 68.0304 571.329 72.0804C570.209 76.1304 571.389 78.1605 567.869 78.1605C564.349 78.1605 563.779 83.9604 564.159 88.2404C564.539 92.5204 563.159 96.7104 566.059 97.7604C568.959 98.8104 569.989 97.1904 571.449 99.5704C572.909 101.95 573.619 104.39 576.619 105.39C579.619 106.39 582.709 103.29 584.519 105.39C586.329 107.49 585.759 108.62 588.039 107.58C590.319 106.54 591.749 103.58 594.509 105.2C597.269 106.82 598.699 106.81 598.989 111.48C599.279 116.15 598.219 117.48 602.889 120.99C607.559 124.5 610.779 126.42 613.729 127.56C616.679 128.7 618.109 129.94 622.579 129.27C627.049 128.6 628.479 129.94 629.439 124.99C630.399 120.04 633.439 115.85 635.719 116.04C637.999 116.23 639.329 115.19 638.719 110.62C638.109 106.05 636.909 96.3504 638.149 93.1104C639.389 89.8704 641.479 89.6904 641.959 87.5004C642.439 85.3104 643.189 72.3705 643.189 68.8505C643.189 65.3305 642.999 58.3804 645.859 56.5704C648.719 54.7604 652.329 53.0505 653.279 50.2905C654.229 47.5305 654.279 42.3904 657.939 42.6804C661.599 42.9704 666.319 43.6804 667.649 47.6304C668.979 51.5804 671.459 50.6305 672.979 51.3405C674.499 52.0505 676.689 57.2404 676.879 61.1404C677.069 65.0404 677.069 67.0404 680.399 68.9404C683.394 70.7973 686.511 72.451 689.729 73.8904C693.529 75.5104 694.669 77.0304 695.429 72.7504C696.189 68.4704 700.569 68.4904 697.719 65.2004C694.869 61.9104 689.149 60.5704 689.439 55.6204C689.729 50.6704 691.249 46.0104 695.049 46.0104C698.849 46.0104 705.809 46.2005 707.419 45.3405C709.029 44.4805 713.319 45.0604 713.509 41.2504C713.699 37.4404 715.039 31.8305 717.229 30.5905C719.419 29.3505 722.079 26.7905 720.559 22.2205C719.039 17.6505 717.559 13.8504 715.039 10.7104C712.519 7.57045 712.179 2.71045 709.139 4.71045C706.099 6.71045 705.899 10.8005 702.139 9.28046C698.379 7.76046 696.049 6.71046 693.579 4.28046C692.449 3.10209 691.239 2.00279 689.959 0.990417L518.809 0.980469Z" fill="white"/>
<path d="M483.449 442.89C483.449 442.89 490.689 443 491.279 447.28C491.869 451.56 492.019 455.7 494.739 456.89C497.459 458.08 493.659 450.72 498.049 447.51C502.439 444.3 513.949 437.43 512.289 434.34C510.629 431.25 510.509 428.76 506.589 431.02C502.669 433.28 499.749 434.58 497.949 432.2C496.149 429.82 490.569 423.42 490.449 428.29C490.329 433.16 486.299 439.21 484.449 440.04C482.599 440.87 483.449 442.89 483.449 442.89Z" fill="white"/>
<path d="M512.969 467.39C512.969 467.39 521.279 468.39 523.259 471.58C525.239 474.77 529.179 476.44 533.789 476.02C538.399 475.6 541.789 479.81 542.999 482.11C544.209 484.41 546.459 483.76 546.209 481.7C545.959 479.64 541.209 474.05 540.949 471.83C540.689 469.61 541.519 468.04 539.709 466.4C537.899 464.76 537.329 459.98 533.789 461.13C530.249 462.28 529.429 464.26 526.219 463.93C523.009 463.6 515.849 462.78 514.949 464.34C514.049 465.9 512.969 467.39 512.969 467.39Z" fill="white"/>
<path d="M583.159 471.32C583.159 471.32 588.349 477.58 592.019 475.32C595.689 473.06 597.099 473.27 596.659 469.49C596.219 465.71 598.719 460.93 595.799 460.99C592.879 461.05 589.099 459.99 587.699 460.99C586.299 461.99 581.619 461.59 583.159 471.32Z" fill="white"/>
<path d="M640.261 478.599C640.701 478.749 648.861 476.729 654.791 483.599C657.611 483.599 661.611 483.5 663.101 487.2C664.591 490.9 671.841 492.539 672.881 492.389C673.921 492.239 671.251 500.849 666.951 498.469C662.651 496.089 661.611 488.98 657.611 490.32C653.611 491.66 655.681 495.06 649.011 494.92C642.341 494.78 640.551 498.619 636.551 493.139C632.551 487.659 630.921 483.939 634.331 481.719C636.189 480.468 638.177 479.422 640.261 478.599Z" fill="white"/>
<path d="M621.339 446.39C621.339 446.39 629.259 447.04 629.259 452.6C629.259 458.16 627.759 461.22 622.839 460.97C617.919 460.72 606.149 459.45 602.299 457.97C598.449 456.49 591.919 451.97 590.049 448.13C588.179 444.29 588.819 435.5 584.329 431.65C579.839 427.8 581.329 426.1 575.329 426.52C569.329 426.94 569.989 423.98 563.979 423.74C557.969 423.5 554.049 418.96 552.459 416.87C550.869 414.78 545.589 407.06 542.649 405.96C539.709 404.86 534.189 403.96 531.239 403.63C531.239 401.79 522.169 394.55 523.239 388.42C524.309 382.29 526.979 376.53 523.149 374.93C519.319 373.33 514.089 372.74 509.329 372.93C504.569 373.12 503.789 368.93 506.439 365.82C509.089 362.71 510.439 358.41 513.719 358.05C516.999 357.69 517.279 357.05 520.889 358.84C524.499 360.63 526.009 363.96 528.659 362.33C531.309 360.7 532.029 359.92 532.209 364.14C532.389 368.36 530.709 370.28 533.419 373.23C536.129 376.18 538.779 379.55 540.649 376.54C542.519 373.53 541.649 369.38 544.259 370.54C546.869 371.7 547.449 373.79 549.439 371.54C551.429 369.29 559.119 364.08 562.959 365.79C563.591 366.094 564.288 366.238 564.989 366.211C565.69 366.183 566.373 365.983 566.979 365.63C567.585 365.277 568.095 364.78 568.465 364.184C568.834 363.588 569.052 362.91 569.099 362.21C568.929 360.58 573.459 356.32 572.099 353.21C570.739 350.1 573.719 348.21 576.629 351.76C579.539 355.31 581.409 357.57 584.629 358.16C587.849 358.75 589.629 360.98 590.949 363.71C592.269 366.44 592.949 366.87 598.199 367.13C603.449 367.39 609.299 368.41 611.689 365.33C614.079 362.25 616.299 362.09 620.479 363.03C624.659 363.97 624.239 362.86 627.399 361.83C630.559 360.8 633.629 359.7 635.079 362.94C636.529 366.18 634.739 369.52 636.359 373.94C637.979 378.36 637.719 380.52 641.139 379.75C644.559 378.98 644.809 377.1 645.579 381.12C646.349 385.14 645.919 389.82 648.579 392.55C651.239 395.28 654.729 398.78 658.229 396.31C661.729 393.84 663.009 388.88 663.439 386.66C663.869 384.44 668.439 380.26 668.219 376.16C667.999 372.06 668.389 364.81 672.659 368.23C676.929 371.65 678.379 371.81 679.309 375.14C680.239 378.47 680.309 381.88 685.119 381.46C689.929 381.04 691.179 377.7 693.309 379.58C695.439 381.46 698.309 381.37 698.859 386.58C699.409 391.79 701.079 400.24 698.349 401.43C695.619 402.62 692.349 402.63 693.139 406.55C693.929 410.47 691.349 417.14 693.909 419.36C696.469 421.58 698.689 419.1 701.169 422.43C703.649 425.76 705.349 426.19 706.459 429.77C707.569 433.35 709.189 436.43 705.949 436.69C702.709 436.95 700.829 439.16 698.949 440.01C697.069 440.86 698.009 440.01 694.079 440.44C690.149 440.87 689.559 441.81 689.559 445.22C689.559 448.63 692.629 449.22 688.279 451.37C683.929 453.52 681.019 452.99 677.689 452.56C674.359 452.13 667.449 449.92 670.689 447.44C673.929 444.96 675.299 441.12 678.689 440.36C682.079 439.6 685.089 440.44 685.429 439.08C685.769 437.72 687.479 432.84 683.889 433.36C680.299 433.88 677.749 433.95 673.389 436.51C669.029 439.07 669.129 441.29 663.389 441.51C659.592 441.75 655.82 440.761 652.629 438.69C651.179 437.69 647.079 436.69 641.529 437.15C635.979 437.61 632.319 435.87 634.279 431.52C636.239 427.17 639.279 422.52 641.359 422.3C643.439 422.08 646.909 419.48 646.359 418.12C645.809 416.76 646.789 412.48 643.889 412.65C640.989 412.82 637.399 414.28 636.709 416.58C636.154 418.313 635.234 419.907 634.011 421.254C632.788 422.601 631.29 423.671 629.619 424.39C625.439 426.01 621.259 426.53 620.149 430.45C619.039 434.37 618.019 439.76 618.609 441.64C619.199 443.52 618.739 445.07 621.339 446.39Z" fill="white"/>
<path d="M475.559 97.1103C475.559 97.1103 481.669 95.1104 481.139 99.8504C480.609 104.59 482.199 107.23 477.559 106.39C472.919 105.55 464.489 102.86 467.329 101.62C470.169 100.38 475.559 97.1103 475.559 97.1103Z" fill="white"/>
<path d="M283.998 678C268.999 667.984 196.498 593 182.498 507.5C176.998 488.5 165.146 456.201 161.609 444.191L140.859 406.371L126.759 376.871L106.999 327.5C106.999 327.5 101.846 317.859 111.997 311.5" stroke="#4A3021" stroke-width="3" stroke-miterlimit="10"/>
<path d="M364.621 676.981C364.621 676.981 365.411 629.981 337.671 615.111C309.931 600.241 271.141 581.841 271.141 581.841C271.141 581.841 258 575 255 571C253.349 569.349 248.761 558.251 246.711 555.801C244.661 553.351 231.95 541.86 228 536C224.05 530.14 210.331 510.841 208.831 499.941C207.331 489.041 199.511 455.131 198.341 442.031C197.171 428.931 196.471 408.351 206.061 397.351C215.651 386.351 237.401 357.591 239.971 351.981C242.541 346.371 267.841 307.131 267.841 307.131C298 265 373 200.5 423 194.5" stroke="#4A3021" stroke-width="3" stroke-miterlimit="10"/>
<path d="M-1.37891 105.061C-1.37891 105.061 19.1411 107.791 18.3411 116.771C17.5411 125.751 21.3412 128.771 22.1812 131.201C23.0212 133.631 18.661 147.391 17.051 150.121C15.441 152.851 17.211 155.891 18.501 161.341C19.791 166.791 24.1112 188.761 22.9912 191.001C21.8712 193.241 31.4812 196.611 31.4812 196.611C31.4812 196.611 54.251 201.611 58.261 205.751C62.271 209.891 68.8411 213.931 71.4011 220.341C73.9611 226.751 78.3012 233.341 78.4612 239.101C78.6212 244.861 84.7111 251.761 85.6711 252.731C86.6311 253.701 85.0312 257.731 86.4812 261.221C87.9312 264.711 90.161 272.611 98.821 273.891C107.481 275.171 111.971 274.051 117.901 278.381C123.831 282.711 132.491 286.381 137.461 287.201C142.431 288.021 151.411 288.321 156.861 291.691C162.311 295.061 166.321 293.291 163.591 302.751C160.861 312.211 160 322.5 160 322.5" stroke="#4A3021" stroke-miterlimit="10"/>
<path d="M414.73 323.229C414.73 323.229 425.18 324.799 425.48 316.489C425.78 308.179 424.56 300.489 432.1 299.409C439.64 298.329 438.1 295.719 438.71 292.029C439.32 288.339 434.41 257.109 431.48 251.879C428.55 246.649 415.48 229.879 420.71 223.109C425.94 216.339 423.64 198.029 422.1 191.729C420.56 185.429 434.71 160.189 434.71 160.189C434.71 160.189 441.33 133.579 442.1 123.419C442.87 113.259 439.27 102.209 435.03 96.6893C430.79 91.1693 439.55 71.3893 438.14 66.5793C436.73 61.7693 439.55 47.7993 424.01 41.7893C408.47 35.7793 402.81 23.0593 391.79 21.6493C380.77 20.2393 367.79 20.2293 364.94 12.6493C363.502 8.47005 361.406 4.54733 358.73 1.0293" stroke="#4A3021" stroke-width="3" stroke-miterlimit="10"/>
<path d="M293 348.284H289.496V347.6H298.268V348.284H294.764V356H293V348.284ZM299.23 347.6H301.006V351.152H305.77V347.6H307.546V356H305.77V351.836H301.006V356H299.23V347.6ZM315.284 353.852H310.82L309.776 356H308.552L312.92 347.48H314L318.116 356H316.292L315.284 353.852ZM314.96 353.168L313.1 349.196L311.156 353.168H314.96ZM311.252 345.464C310.924 345.248 310.76 345.048 310.76 344.864C310.76 344.752 310.804 344.664 310.892 344.6C310.98 344.536 311.096 344.504 311.24 344.504C311.4 344.504 311.544 344.532 311.672 344.588C311.8 344.644 311.92 344.736 312.032 344.864L313.676 346.76H313.1L311.252 345.464ZM319.14 347.6H320.892L325.464 353.552V347.6H327.096V356H325.968L320.772 349.16V356H319.14V347.6ZM328.831 347.6H330.607V351.152H335.371V347.6H337.147V356H335.371V351.836H330.607V356H328.831V347.6ZM342.26 347.6H345.668C346.892 347.6 347.836 347.804 348.5 348.212C349.172 348.612 349.508 349.272 349.508 350.192C349.508 351.104 349.18 351.764 348.524 352.172C347.868 352.58 346.916 352.784 345.668 352.784H344.036V356H342.26V347.6ZM345.692 352.088C346.372 352.088 346.884 351.948 347.228 351.668C347.572 351.388 347.744 350.896 347.744 350.192C347.744 349.504 347.572 349.016 347.228 348.728C346.892 348.432 346.38 348.284 345.692 348.284H344.036V352.088H345.692ZM350.64 347.6H352.416V351.152H357.18V347.6H358.956V356H357.18V351.836H352.416V356H350.64V347.6ZM365.218 356.12C364.234 356.12 363.382 355.948 362.662 355.604C361.95 355.26 361.406 354.764 361.03 354.116C360.654 353.46 360.466 352.676 360.466 351.764C360.466 350.868 360.654 350.1 361.03 349.46C361.414 348.82 361.962 348.332 362.674 347.996C363.386 347.652 364.234 347.48 365.218 347.48C366.194 347.48 367.034 347.652 367.738 347.996C368.45 348.332 368.994 348.82 369.37 349.46C369.754 350.1 369.946 350.868 369.946 351.764C369.946 352.676 369.758 353.46 369.382 354.116C369.006 354.764 368.462 355.26 367.75 355.604C367.038 355.948 366.194 356.12 365.218 356.12ZM365.218 355.436C366.162 355.436 366.886 355.124 367.39 354.5C367.894 353.868 368.146 352.956 368.146 351.764C368.146 350.596 367.894 349.704 367.39 349.088C366.886 348.472 366.162 348.164 365.218 348.164C364.266 348.164 363.534 348.476 363.022 349.1C362.518 349.716 362.266 350.604 362.266 351.764C362.266 352.956 362.518 353.868 363.022 354.5C363.526 355.124 364.258 355.436 365.218 355.436ZM367.486 343.844C367.638 343.652 367.822 343.556 368.038 343.556C368.166 343.556 368.266 343.584 368.338 343.64C368.418 343.696 368.458 343.772 368.458 343.868C368.458 343.948 368.406 344.044 368.302 344.156C368.206 344.26 368.042 344.404 367.81 344.588L366.97 345.236H366.43L367.486 343.844ZM364.702 344.828H365.734L367.33 346.76H366.478L365.218 345.572L363.958 346.76H363.106L364.702 344.828ZM290.54 363.6H292.292L296.864 369.552V363.6H298.496V372H297.368L292.172 365.16V372H290.54V363.6ZM300.231 363.6H302.007V367.152H306.771V363.6H308.547V372H306.771V367.836H302.007V372H300.231V363.6ZM316.286 369.852H311.822L310.778 372H309.554L313.922 363.48H315.002L319.118 372H317.294L316.286 369.852ZM315.962 369.168L314.102 365.196L312.158 369.168H315.962ZM326.252 364.284H322.748V363.6H331.52V364.284H328.016V372H326.252V364.284ZM339.321 370.176C339.521 370.68 339.697 371.08 339.849 371.376C340.009 371.672 340.157 371.832 340.293 371.856V372H338.529C338.385 371.848 338.253 371.652 338.133 371.412C338.013 371.172 337.881 370.86 337.737 370.476C337.537 369.94 337.337 369.516 337.137 369.204C336.945 368.892 336.701 368.684 336.405 368.58H336.165H334.245V372H332.481V363.6H336.165C337.389 363.6 338.333 363.792 338.997 364.176C339.661 364.56 339.993 365.192 339.993 366.072C339.993 367.288 339.321 368.064 337.977 368.4C338.265 368.56 338.513 368.784 338.721 369.072C338.937 369.352 339.137 369.72 339.321 370.176ZM334.245 367.896H336.189C336.837 367.896 337.341 367.764 337.701 367.5C338.061 367.228 338.241 366.752 338.241 366.072C338.241 365.408 338.061 364.944 337.701 364.68C337.341 364.416 336.837 364.284 336.189 364.284H334.245V367.896ZM347.294 369.852H342.83L341.786 372H340.562L344.93 363.48H346.01L350.126 372H348.302L347.294 369.852ZM346.97 369.168L345.11 365.196L343.166 369.168H346.97ZM351.149 363.6H352.901L357.473 369.552V363.6H359.105V372H357.977L352.781 365.16V372H351.149V363.6ZM365.485 372.12C364.485 372.12 363.617 371.948 362.881 371.604C362.153 371.26 361.593 370.764 361.201 370.116C360.809 369.468 360.613 368.7 360.613 367.812C360.613 366.932 360.809 366.168 361.201 365.52C361.593 364.864 362.153 364.364 362.881 364.02C363.609 363.668 364.469 363.492 365.461 363.492C366.645 363.492 367.613 363.744 368.365 364.248C369.117 364.752 369.561 365.444 369.697 366.324H368.281C368.137 365.636 367.825 365.108 367.345 364.74C366.865 364.364 366.249 364.176 365.497 364.176C364.529 364.176 363.773 364.496 363.229 365.136C362.685 365.768 362.413 366.656 362.413 367.8C362.413 368.944 362.681 369.836 363.217 370.476C363.761 371.116 364.521 371.436 365.497 371.436C365.929 371.436 366.321 371.392 366.673 371.304C367.025 371.208 367.385 371.052 367.753 370.836V368.208H364.861V367.572H369.529V370.872C369.089 371.264 368.509 371.572 367.789 371.796C367.069 372.012 366.301 372.12 365.485 372.12Z" fill="#4A3021"/>
<path d="M127.291 404.664C126.863 403.811 126.758 403.043 126.976 402.36C127.195 401.678 127.721 401.127 128.555 400.709C129.371 400.3 130.113 400.21 130.784 400.441C131.457 400.676 132.006 401.218 132.432 402.066C132.779 402.758 132.916 403.393 132.843 403.973C132.77 404.552 132.494 405.013 132.015 405.355L131.692 404.711C132.061 404.425 132.281 404.067 132.352 403.637C132.428 403.205 132.346 402.751 132.107 402.274C131.796 401.655 131.366 401.274 130.817 401.131C130.271 400.994 129.642 401.103 128.932 401.46C128.208 401.823 127.734 402.27 127.51 402.8C127.291 403.327 127.339 403.903 127.652 404.527C127.891 405.004 128.203 405.34 128.587 405.535C128.972 405.73 129.392 405.764 129.847 405.637L130.17 406.281C129.61 406.46 129.075 406.406 128.567 406.118C128.058 405.83 127.633 405.346 127.291 404.664ZM132.085 410.794L130.64 407.912L129.012 407.915L128.761 407.414L135.143 407.469L135.337 407.856L131.491 412.856L131.089 412.055L132.085 410.794ZM132.346 410.457L134.36 407.907L131.069 407.912L132.346 410.457ZM132.828 415.698C132.545 415.135 132.405 414.6 132.407 414.092C132.408 413.584 132.548 413.126 132.827 412.718C133.11 412.307 133.524 411.965 134.067 411.693C134.601 411.425 135.112 411.302 135.601 411.325C136.095 411.346 136.544 411.509 136.947 411.814C137.351 412.118 137.694 412.552 137.976 413.115C138.258 413.677 138.4 414.209 138.4 414.71C138.403 415.215 138.266 415.672 137.987 416.08C137.714 416.486 137.31 416.823 136.776 417.091C136.232 417.364 135.711 417.491 135.213 417.473C134.719 417.452 134.268 417.29 133.86 416.988C133.454 416.69 133.11 416.26 132.828 415.698ZM133.171 415.526C133.482 416.145 133.918 416.526 134.478 416.669C135.039 416.811 135.679 416.701 136.399 416.34C137.105 415.986 137.563 415.544 137.775 415.015C137.993 414.487 137.946 413.911 137.633 413.287C137.319 412.662 136.887 412.277 136.336 412.129C135.785 411.982 135.154 412.087 134.444 412.443C133.724 412.805 133.253 413.252 133.032 413.787C132.811 414.322 132.857 414.901 133.171 415.526ZM141.159 420.493L140.097 418.377L140.44 418.205L142.934 423.174L142.591 423.346L141.532 421.237L136.87 423.576L136.497 422.833L141.159 420.493ZM139.443 428.881C139.161 428.319 139.02 427.783 139.022 427.275C139.024 426.767 139.164 426.309 139.442 425.901C139.725 425.49 140.139 425.149 140.682 424.876C141.216 424.608 141.727 424.486 142.216 424.509C142.71 424.53 143.159 424.692 143.562 424.997C143.966 425.302 144.309 425.735 144.591 426.298C144.873 426.86 145.015 427.392 145.015 427.893C145.019 428.399 144.881 428.856 144.602 429.264C144.329 429.67 143.925 430.007 143.391 430.274C142.848 430.547 142.327 430.674 141.828 430.656C141.334 430.635 140.883 430.474 140.475 430.171C140.069 429.874 139.725 429.444 139.443 428.881ZM139.786 428.709C140.097 429.329 140.533 429.71 141.094 429.852C141.654 429.994 142.295 429.885 143.014 429.524C143.72 429.17 144.178 428.728 144.39 428.198C144.609 427.671 144.561 427.095 144.248 426.47C143.934 425.846 143.502 425.46 142.951 425.313C142.4 425.166 141.769 425.27 141.059 425.627C140.339 425.988 139.869 426.436 139.648 426.97C139.427 427.505 139.473 428.085 139.786 428.709ZM147.375 426.637C147.54 426.68 147.645 426.747 147.69 426.837C147.721 426.899 147.73 426.958 147.715 427.013C147.706 427.065 147.675 427.104 147.623 427.131C147.575 427.155 147.515 427.155 147.444 427.131C147.372 427.107 147.258 427.057 147.1 426.981L146.327 426.582L146.208 426.346L147.375 426.637ZM145.988 425.283L146.24 425.784L145.591 427.22L145.415 426.869L145.778 425.702L144.625 425.296L144.45 424.946L145.988 425.283ZM142.522 435.018C142.094 434.165 141.989 433.397 142.208 432.714C142.426 432.032 142.952 431.481 143.787 431.063C144.602 430.654 145.345 430.564 146.015 430.795C146.688 431.03 147.237 431.572 147.663 432.42C148.01 433.111 148.147 433.747 148.074 434.327C148.001 434.906 147.725 435.367 147.246 435.709L146.923 435.065C147.292 434.779 147.512 434.42 147.583 433.991C147.659 433.559 147.577 433.105 147.338 432.628C147.027 432.009 146.597 431.628 146.048 431.485C145.502 431.348 144.874 431.457 144.163 431.813C143.439 432.177 142.965 432.624 142.741 433.154C142.523 433.681 142.57 434.257 142.883 434.881C143.122 435.358 143.434 435.694 143.818 435.889C144.203 436.084 144.623 436.118 145.078 435.991L145.401 436.634C144.841 436.814 144.306 436.76 143.798 436.472C143.289 436.184 142.864 435.7 142.522 435.018ZM146.089 442.127C145.716 441.384 145.65 440.698 145.89 440.07C146.137 439.445 146.673 438.925 147.497 438.512C148.322 438.098 149.057 437.98 149.701 438.158C150.352 438.338 150.865 438.8 151.238 439.544C151.608 440.283 151.67 440.965 151.423 441.59C151.183 442.218 150.651 442.738 149.826 443.152C149.001 443.566 148.265 443.685 147.615 443.51C146.971 443.332 146.463 442.871 146.089 442.127ZM146.39 441.976C146.638 442.472 147.029 442.757 147.561 442.83C148.095 442.908 148.725 442.765 149.449 442.401C150.174 442.038 150.665 441.619 150.922 441.144C151.181 440.673 151.186 440.19 150.937 439.695C150.689 439.199 150.297 438.912 149.763 438.834C149.231 438.761 148.602 438.906 147.878 439.27C147.153 439.633 146.661 440.05 146.402 440.52C146.145 440.995 146.141 441.481 146.39 441.976ZM152.52 445.025L151.867 443.724L152.146 443.584C152.333 443.932 152.558 444.198 152.823 444.381C153.093 444.562 153.386 444.645 153.7 444.63L153.987 445.202L148.982 447.714L148.616 446.984L152.52 445.025Z" fill="#4A3021"/>
<path d="M218.701 509.666C218.475 509.929 218.378 510.249 218.409 510.626C218.435 511.006 218.582 511.385 218.849 511.764C218.904 511.843 218.966 511.916 219.035 511.986L218.797 512.065C218.66 511.927 218.541 511.786 218.44 511.642C218.24 511.358 218.097 511.054 218.012 510.73C217.925 510.412 217.906 510.103 217.954 509.801C217.998 509.503 218.104 509.242 218.273 509.018C217.9 508.322 217.791 507.655 217.948 507.016C218.108 506.374 218.524 505.816 219.196 505.343C219.684 504.998 220.171 504.801 220.658 504.752C221.15 504.699 221.617 504.793 222.062 505.034C222.506 505.276 222.91 505.654 223.272 506.168C223.635 506.682 223.854 507.187 223.929 507.682C224.007 508.182 223.939 508.654 223.724 509.099C223.514 509.541 223.165 509.934 222.677 510.279C221.957 510.786 221.25 510.985 220.553 510.876C219.86 510.764 219.243 510.361 218.701 509.666ZM219.68 506.029C219.022 506.493 218.623 507.006 218.484 507.568C218.345 508.129 218.476 508.695 218.879 509.266C219.279 509.833 219.766 510.145 220.342 510.202C220.918 510.26 221.534 510.056 222.193 509.592C222.838 509.137 223.225 508.632 223.356 508.077C223.494 507.523 223.361 506.96 222.959 506.389C222.556 505.818 222.071 505.501 221.504 505.437C220.937 505.374 220.329 505.571 219.68 506.029ZM222.416 514.948C221.881 514.19 221.662 513.522 221.758 512.946C221.861 512.37 222.231 511.858 222.867 511.409L225.541 509.524L226.021 510.204L223.196 512.195C222.708 512.54 222.417 512.918 222.323 513.33C222.228 513.743 222.364 514.208 222.73 514.727C223.09 515.237 223.477 515.518 223.893 515.571C224.312 515.628 224.77 515.481 225.267 515.131L228.091 513.139L228.57 513.819L225.896 515.705C225.26 516.153 224.654 516.33 224.077 516.234C223.505 516.135 222.951 515.707 222.416 514.948ZM226.265 520.405C225.902 519.891 225.684 519.382 225.61 518.88C225.536 518.377 225.606 517.903 225.821 517.458C226.04 517.01 226.398 516.611 226.895 516.26C227.383 515.916 227.871 515.719 228.358 515.669C228.849 515.616 229.317 515.71 229.761 515.952C230.206 516.193 230.609 516.571 230.972 517.085C231.335 517.6 231.554 518.104 231.629 518.6C231.707 519.099 231.639 519.572 231.424 520.017C231.214 520.459 230.864 520.852 230.376 521.196C229.879 521.547 229.383 521.75 228.887 521.806C228.396 521.858 227.926 521.766 227.477 521.527C227.032 521.293 226.627 520.919 226.265 520.405ZM226.579 520.184C226.978 520.75 227.466 521.062 228.041 521.12C228.617 521.177 229.234 520.974 229.892 520.51C230.537 520.055 230.925 519.55 231.055 518.994C231.193 518.44 231.061 517.878 230.658 517.307C230.255 516.736 229.771 516.418 229.204 516.355C228.637 516.291 228.029 516.489 227.379 516.947C226.721 517.411 226.322 517.924 226.183 518.485C226.044 519.047 226.176 519.613 226.579 520.184ZM233.775 517.007C233.945 517.025 234.058 517.075 234.117 517.158C234.157 517.215 234.174 517.271 234.168 517.328C234.166 517.381 234.141 517.425 234.093 517.458C234.05 517.489 233.991 517.498 233.917 517.485C233.842 517.472 233.722 517.44 233.555 517.388L232.73 517.108L232.578 516.892L233.775 517.007ZM232.203 515.874L232.526 516.332L232.097 517.848L231.871 517.528L232.057 516.32L230.857 516.09L230.631 515.769L232.203 515.874ZM230.222 526.016C229.672 525.236 229.454 524.492 229.568 523.785C229.683 523.077 230.122 522.455 230.884 521.917C231.63 521.391 232.351 521.192 233.048 521.321C233.749 521.453 234.373 521.907 234.92 522.683C235.365 523.315 235.595 523.923 235.609 524.507C235.623 525.091 235.418 525.588 234.996 525.997L234.581 525.409C234.903 525.07 235.068 524.684 235.074 524.248C235.085 523.81 234.936 523.373 234.629 522.937C234.229 522.371 233.748 522.058 233.184 521.998C232.623 521.944 232.018 522.145 231.369 522.603C230.706 523.07 230.304 523.583 230.161 524.14C230.024 524.694 230.156 525.256 230.559 525.827C230.866 526.263 231.224 526.549 231.633 526.685C232.042 526.82 232.462 526.792 232.894 526.598L233.309 527.187C232.782 527.448 232.245 527.474 231.699 527.265C231.154 527.055 230.661 526.639 230.222 526.016ZM238.184 527.451L238.664 528.131L234.401 531.137L236.43 534.014L236.116 534.235L233.608 530.679L238.184 527.451ZM237.99 537.03C237.627 536.516 237.409 536.007 237.335 535.505C237.261 535.002 237.331 534.528 237.546 534.083C237.765 533.635 238.123 533.236 238.62 532.885C239.108 532.541 239.596 532.344 240.083 532.294C240.574 532.241 241.042 532.336 241.486 532.577C241.93 532.818 242.334 533.196 242.697 533.711C243.059 534.225 243.278 534.73 243.353 535.225C243.432 535.724 243.363 536.197 243.149 536.642C242.938 537.084 242.589 537.477 242.101 537.821C241.604 538.172 241.108 538.375 240.612 538.431C240.121 538.484 239.651 538.391 239.202 538.153C238.756 537.919 238.352 537.545 237.99 537.03ZM238.303 536.809C238.703 537.376 239.191 537.688 239.766 537.745C240.342 537.802 240.959 537.599 241.617 537.135C242.262 536.68 242.65 536.175 242.78 535.619C242.918 535.065 242.786 534.503 242.383 533.932C241.98 533.361 241.495 533.044 240.929 532.98C240.362 532.917 239.753 533.114 239.104 533.572C238.446 534.036 238.047 534.549 237.908 535.11C237.769 535.672 237.901 536.238 238.303 536.809ZM237.094 537.662C237.023 537.562 236.997 537.456 237.017 537.344C237.035 537.24 237.092 537.154 237.188 537.087C237.283 537.019 237.383 536.994 237.487 537.012C237.595 537.035 237.684 537.096 237.754 537.196C237.825 537.296 237.851 537.399 237.833 537.503C237.818 537.611 237.763 537.699 237.667 537.767C237.571 537.834 237.47 537.857 237.363 537.835C237.254 537.82 237.165 537.762 237.094 537.662ZM243.928 532.5L244.251 532.957L243.822 534.473L243.596 534.153L243.782 532.945L242.582 532.715L242.356 532.394L243.928 532.5ZM246.396 541.232L245.557 540.042L245.812 539.863C246.048 540.179 246.311 540.408 246.6 540.55C246.894 540.689 247.195 540.727 247.504 540.666L247.873 541.189L243.297 544.417L242.826 543.75L246.396 541.232ZM248.315 549.006L246.457 546.371L244.847 546.615L244.524 546.157L250.844 545.264L251.093 545.617L248.033 551.133L247.517 550.4L248.315 549.006ZM248.522 548.634L250.135 545.813L246.881 546.307L248.522 548.634Z" fill="#4A3021"/>
<path d="M273.114 454.602L275.214 454.033C276.223 453.759 277.05 453.772 277.695 454.072C278.34 454.373 278.778 454.95 279.01 455.804C279.252 456.695 279.174 457.457 278.776 458.089C278.383 458.716 277.699 459.161 276.727 459.425L274.58 460.007L273.114 454.602ZM276.734 459.025C277.419 458.839 277.887 458.488 278.139 457.972C278.397 457.455 278.42 456.805 278.207 456.022C278.008 455.286 277.677 454.779 277.214 454.501C276.751 454.218 276.169 454.171 275.469 454.361L274.017 454.755L275.283 459.419L276.734 459.025ZM281.188 452.81L278.903 453.43L278.802 453.059L284.168 451.603L284.269 451.974L281.991 452.592L283.357 457.626L282.554 457.844L281.188 452.81ZM288.442 456.329C287.731 456.522 287.129 456.541 286.634 456.388C286.145 456.234 285.825 455.923 285.676 455.455L286.363 455.268C286.486 455.638 286.719 455.887 287.063 456.015C287.408 456.143 287.832 456.138 288.336 456.001C288.841 455.864 289.197 455.651 289.406 455.363C289.614 455.069 289.662 454.716 289.55 454.304C289.441 453.903 289.227 453.643 288.908 453.525C288.594 453.406 288.159 453.422 287.603 453.572C287.242 453.67 286.921 453.788 286.637 453.926L286.518 453.485C286.707 453.467 286.955 453.417 287.264 453.333C287.753 453.2 288.12 452.993 288.364 452.711C288.606 452.424 288.682 452.114 288.591 451.779C288.505 451.46 288.314 451.244 288.018 451.131C287.72 451.012 287.355 451.012 286.923 451.129C286.455 451.256 286.103 451.468 285.868 451.763C285.637 452.053 285.561 452.38 285.638 452.746L284.943 452.935C284.872 452.633 284.904 452.343 285.038 452.063C285.176 451.777 285.398 451.526 285.704 451.311C286.014 451.088 286.39 450.917 286.833 450.797C287.26 450.681 287.657 450.637 288.024 450.665C288.389 450.687 288.693 450.779 288.936 450.94C289.177 451.095 289.333 451.304 289.404 451.567C289.481 451.85 289.439 452.132 289.278 452.413C289.12 452.688 288.863 452.924 288.508 453.12C289.535 452.996 290.152 453.315 290.359 454.076C290.496 454.581 290.395 455.034 290.056 455.435C289.716 455.831 289.178 456.129 288.442 456.329Z" fill="#4A3021"/>
<path d="M53.1252 288.412C53.1131 288.759 53.2364 289.07 53.495 289.345C53.7521 289.626 54.1033 289.831 54.5488 289.961C54.641 289.988 54.7354 290.007 54.832 290.018L54.6957 290.229C54.5024 290.206 54.3213 290.169 54.1523 290.12C53.8195 290.023 53.5185 289.874 53.2492 289.674C52.9836 289.479 52.7757 289.249 52.6255 288.983C52.4738 288.723 52.3943 288.452 52.387 288.172C51.6612 287.861 51.1603 287.406 50.8844 286.809C50.61 286.207 50.5877 285.512 50.8175 284.723C50.9847 284.15 51.2432 283.692 51.593 283.349C51.9444 283.002 52.369 282.784 52.8669 282.696C53.3648 282.608 53.9158 282.651 54.52 282.828C55.1242 283.004 55.61 283.262 55.9774 283.602C56.3499 283.944 56.5909 284.356 56.7004 284.838C56.8114 285.315 56.7834 285.84 56.6162 286.414C56.3699 287.258 55.9403 287.855 55.3275 288.204C54.7161 288.548 53.982 288.618 53.1252 288.412ZM51.624 284.958C51.3986 285.731 51.4065 286.381 51.6476 286.907C51.8887 287.433 52.3447 287.793 53.0154 287.989C53.681 288.183 54.2568 288.123 54.7428 287.809C55.2287 287.495 55.5844 286.952 55.8097 286.178C56.0307 285.421 56.019 284.784 55.7749 284.268C55.5374 283.749 55.0833 283.392 54.4125 283.196C53.7418 283.001 53.165 283.055 52.682 283.358C52.1991 283.662 51.8464 284.195 51.624 284.958ZM59.3228 290.228C58.4319 289.968 57.8442 289.583 57.5598 289.072C57.2819 288.558 57.252 287.927 57.4699 287.179L58.3857 284.038L59.1844 284.271L58.2172 287.589C58.05 288.162 58.0581 288.639 58.2414 289.021C58.4247 289.402 58.821 289.681 59.4303 289.859C60.0293 290.033 60.5078 290.012 60.8658 289.794C61.2288 289.578 61.4955 289.178 61.6656 288.594L62.6329 285.276L63.4316 285.509L62.5159 288.65C62.2979 289.398 61.9336 289.914 61.423 290.198C60.9138 290.477 60.2137 290.487 59.3228 290.228ZM65.7335 292.096C65.1293 291.92 64.6417 291.659 64.2706 291.312C63.8996 290.965 63.6593 290.55 63.5498 290.068C63.4418 289.581 63.4729 289.046 63.643 288.462C63.8102 287.889 64.0687 287.431 64.4185 287.088C64.7699 286.741 65.1945 286.523 65.6924 286.435C66.1903 286.346 66.7413 286.39 67.3455 286.567C67.9497 286.743 68.4355 287.001 68.8029 287.341C69.1754 287.683 69.4164 288.095 69.5259 288.577C69.6369 289.054 69.6088 289.579 69.4417 290.153C69.2715 290.736 69.01 291.204 68.6572 291.557C68.3059 291.905 67.8805 292.125 67.3811 292.218C66.8869 292.313 66.3376 292.272 65.7335 292.096ZM65.8409 291.728C66.5065 291.922 67.0823 291.862 67.5683 291.548C68.0542 291.234 68.4098 290.691 68.6352 289.917C68.8562 289.16 68.8445 288.523 68.6004 288.007C68.3629 287.488 67.9088 287.131 67.238 286.935C66.5673 286.74 65.9905 286.794 65.5075 287.097C65.0246 287.401 64.6719 287.934 64.4495 288.697C64.2241 289.47 64.232 290.12 64.4731 290.646C64.7142 291.171 65.1702 291.532 65.8409 291.728ZM69.4893 284.758C69.6326 284.667 69.7529 284.635 69.8502 284.663C69.9168 284.683 69.9653 284.716 69.9958 284.764C70.0278 284.807 70.0356 284.856 70.0192 284.913C70.0043 284.964 69.9638 285.008 69.8976 285.044C69.8315 285.08 69.7169 285.13 69.554 285.194L68.7348 285.488L68.4814 285.414L69.4893 284.758ZM67.5536 284.852L68.0912 285.009L68.701 286.462L68.3247 286.352L67.7172 285.292L66.635 285.859L66.2587 285.75L67.5536 284.852ZM72.3249 294.018C71.4084 293.751 70.7746 293.305 70.4233 292.68C70.0721 292.056 70.0271 291.295 70.2883 290.399C70.5435 289.524 70.9838 288.919 71.609 288.584C72.2394 288.252 73.0103 288.218 73.9216 288.484C74.6641 288.7 75.2227 289.032 75.5976 289.481C75.9725 289.929 76.1221 290.445 76.0465 291.028L75.3552 290.826C75.3966 290.361 75.2841 289.956 75.0178 289.611C74.753 289.262 74.3646 289.013 73.8526 288.863C73.187 288.669 72.6152 288.725 72.1374 289.03C71.6647 289.337 71.3171 289.871 71.0947 290.634C70.8679 291.413 70.8724 292.064 71.1084 292.588C71.3459 293.108 71.8001 293.465 72.4708 293.66C72.9828 293.81 73.4411 293.81 73.8455 293.661C74.25 293.512 74.5607 293.228 74.7776 292.808L75.4688 293.01C75.2191 293.542 74.8157 293.897 74.2587 294.073C73.7017 294.25 73.0571 294.231 72.3249 294.018ZM79.4465 290.178L80.2452 290.41L78.7854 295.418L82.1647 296.403L82.0573 296.772L77.8792 295.554L79.4465 290.178ZM85.2642 297.79C84.66 297.614 84.1724 297.352 83.8014 297.005C83.4304 296.658 83.1901 296.244 83.0806 295.762C82.9726 295.275 83.0036 294.739 83.1738 294.156C83.341 293.582 83.5995 293.124 83.9493 292.782C84.3006 292.434 84.7252 292.216 85.2231 292.128C85.721 292.04 86.2721 292.084 86.8763 292.26C87.4805 292.436 87.9663 292.695 88.3337 293.035C88.7062 293.377 88.9472 293.789 89.0567 294.271C89.1677 294.748 89.1396 295.273 88.9724 295.846C88.8023 296.43 88.5408 296.898 88.188 297.251C87.8367 297.598 87.4113 297.819 86.9119 297.912C86.4176 298.007 85.8684 297.966 85.2642 297.79ZM85.3717 297.421C86.0373 297.615 86.6131 297.555 87.099 297.242C87.5849 296.928 87.9406 296.384 88.166 295.611C88.3869 294.853 88.3753 294.217 88.1312 293.701C87.8937 293.182 87.4395 292.824 86.7688 292.629C86.0981 292.433 85.5212 292.487 85.0383 292.791C84.5553 293.095 84.2026 293.628 83.9802 294.391C83.7548 295.164 83.7627 295.813 84.0039 296.339C84.245 296.865 84.7009 297.226 85.3717 297.421ZM84.9575 298.842C84.8397 298.808 84.7536 298.741 84.6992 298.642C84.6484 298.549 84.6394 298.447 84.6723 298.334C84.7051 298.221 84.7678 298.14 84.8604 298.089C84.9581 298.04 85.0658 298.032 85.1836 298.066C85.3014 298.101 85.3856 298.164 85.4364 298.257C85.4923 298.351 85.5039 298.454 85.471 298.567C85.4382 298.68 85.3729 298.761 85.2752 298.81C85.1812 298.866 85.0752 298.877 84.9575 298.842ZM87.0844 290.546L87.622 290.703L88.2318 292.155L87.8554 292.046L87.2479 290.985L86.1658 291.553L85.7894 291.443L87.0844 290.546ZM91.0381 299.39C91.1895 299.023 91.4709 298.724 91.8824 298.494C92.2939 298.264 92.8858 298.073 93.658 297.92C94.1252 297.823 94.5001 297.719 94.7828 297.607C95.0654 297.495 95.2848 297.361 95.441 297.207C95.5986 297.047 95.7118 296.85 95.7804 296.614C95.8998 296.205 95.868 295.856 95.6849 295.57C95.5033 295.278 95.1821 295.065 94.7213 294.931C94.2451 294.792 93.8337 294.802 93.4871 294.962C93.147 295.119 92.9115 295.403 92.7803 295.815L92.0891 295.613C92.3028 295.109 92.6585 294.765 93.1561 294.583C93.6538 294.4 94.2227 294.402 94.8627 294.588C95.2979 294.715 95.66 294.893 95.9489 295.122C96.2429 295.352 96.4462 295.617 96.5589 295.916C96.6716 296.216 96.6816 296.524 96.5891 296.842C96.513 297.103 96.3788 297.325 96.1866 297.508C95.9959 297.685 95.72 297.841 95.3588 297.975C95.0028 298.11 94.5233 298.239 93.9205 298.364C93.512 298.45 93.1877 298.533 92.9477 298.613C92.7128 298.695 92.5266 298.791 92.389 298.9C92.2581 299.007 92.1518 299.142 92.0704 299.308L95.6801 300.36L95.5771 300.713L91.0381 299.39ZM97.4382 301.256C97.5561 300.851 97.7251 300.481 97.9452 300.145C98.1719 299.806 98.473 299.469 98.8484 299.134C99.229 298.8 99.7155 298.436 100.308 298.042C100.7 297.784 100.98 297.577 101.148 297.421C101.321 297.265 101.431 297.117 101.478 296.975L97.8294 295.912L97.9302 295.566L102.469 296.889C102.41 297.094 102.277 297.291 102.072 297.482C101.871 297.673 101.513 297.938 100.998 298.277C100.178 298.821 99.5598 299.333 99.1426 299.811C98.7305 300.291 98.4312 300.851 98.2446 301.491L97.4382 301.256ZM104.576 303.42C103.66 303.153 103.026 302.707 102.675 302.082C102.323 301.458 102.278 300.697 102.54 299.801C102.795 298.926 103.235 298.321 103.86 297.986C104.491 297.653 105.262 297.62 106.173 297.886C106.915 298.102 107.474 298.434 107.849 298.882C108.224 299.331 108.373 299.846 108.298 300.43L107.606 300.228C107.648 299.763 107.535 299.358 107.269 299.013C107.004 298.664 106.616 298.415 106.104 298.265C105.438 298.071 104.866 298.127 104.389 298.432C103.916 298.739 103.568 299.273 103.346 300.036C103.119 300.815 103.124 301.466 103.36 301.99C103.597 302.51 104.051 302.867 104.722 303.062C105.234 303.212 105.692 303.212 106.097 303.063C106.501 302.914 106.812 302.63 107.029 302.21L107.72 302.411C107.47 302.944 107.067 303.299 106.51 303.475C105.953 303.652 105.308 303.633 104.576 303.42Z" fill="#4A3021"/>
<path d="M341.627 303.454C340.681 303.33 339.986 302.986 339.543 302.423C339.101 301.859 338.94 301.115 339.061 300.189C339.18 299.285 339.522 298.62 340.089 298.194C340.661 297.769 341.418 297.617 342.359 297.741C343.126 297.841 343.729 298.084 344.168 298.47C344.607 298.855 344.833 299.342 344.848 299.93L344.134 299.837C344.104 299.37 343.93 298.987 343.615 298.688C343.3 298.383 342.878 298.196 342.349 298.127C341.661 298.037 341.105 298.179 340.679 298.554C340.259 298.929 339.997 299.51 339.894 300.298C339.789 301.102 339.893 301.745 340.206 302.227C340.52 302.704 341.024 302.988 341.717 303.078C342.245 303.148 342.698 303.078 343.075 302.869C343.452 302.66 343.716 302.332 343.866 301.883L344.58 301.977C344.415 302.541 344.07 302.954 343.547 303.213C343.023 303.473 342.383 303.553 341.627 303.454ZM349.391 302.921L346.194 302.503L345.284 303.852L344.728 303.779L348.353 298.525L348.781 298.582L350.765 304.57L349.876 304.453L349.391 302.921ZM349.258 302.517L348.276 299.419L346.435 302.147L349.258 302.517ZM353.868 305.057C353.244 304.975 352.722 304.791 352.302 304.505C351.882 304.218 351.582 303.846 351.4 303.386C351.219 302.921 351.167 302.387 351.246 301.785C351.324 301.192 351.509 300.7 351.803 300.308C352.097 299.911 352.483 299.631 352.962 299.468C353.44 299.304 353.991 299.264 354.615 299.345C355.239 299.427 355.759 299.608 356.174 299.888C356.595 300.169 356.896 300.539 357.078 300.999C357.26 301.453 357.313 301.976 357.235 302.569C357.156 303.172 356.969 303.674 356.675 304.077C356.381 304.474 355.994 304.757 355.515 304.925C355.041 305.095 354.492 305.138 353.868 305.057ZM353.918 304.676C354.605 304.766 355.165 304.619 355.597 304.234C356.029 303.85 356.298 303.258 356.402 302.46C356.505 301.677 356.396 301.05 356.076 300.577C355.762 300.101 355.258 299.817 354.566 299.726C353.873 299.635 353.311 299.777 352.88 300.151C352.449 300.525 352.182 301.106 352.079 301.894C351.975 302.692 352.082 303.333 352.4 303.816C352.719 304.298 353.225 304.585 353.918 304.676ZM362.51 300.847L360.162 300.54L360.212 300.159L365.725 300.881L365.675 301.261L363.335 300.955L362.658 306.127L361.833 306.019L362.51 300.847ZM368.493 306.971C367.869 306.89 367.347 306.706 366.927 306.42C366.508 306.133 366.207 305.76 366.025 305.301C365.844 304.836 365.793 304.302 365.871 303.699C365.949 303.107 366.134 302.615 366.428 302.223C366.722 301.826 367.108 301.546 367.587 301.382C368.065 301.219 368.617 301.178 369.241 301.26C369.865 301.342 370.384 301.523 370.799 301.803C371.22 302.084 371.521 302.454 371.703 302.914C371.885 303.368 371.938 303.891 371.86 304.484C371.781 305.086 371.595 305.589 371.3 305.992C371.006 306.389 370.619 306.672 370.14 306.84C369.666 307.009 369.117 307.053 368.493 306.971ZM368.543 306.591C369.23 306.681 369.79 306.533 370.222 306.149C370.655 305.764 370.923 305.173 371.027 304.374C371.13 303.592 371.021 302.964 370.701 302.492C370.387 302.015 369.884 301.732 369.191 301.641C368.498 301.55 367.936 301.692 367.505 302.066C367.075 302.44 366.808 303.021 366.704 303.808C366.6 304.607 366.707 305.248 367.026 305.73C367.344 306.213 367.85 306.5 368.543 306.591ZM371.083 299.145C371.21 299.033 371.325 298.983 371.425 298.997C371.494 299.006 371.547 299.031 371.584 299.074C371.622 299.111 371.638 299.159 371.63 299.217C371.623 299.27 371.59 299.319 371.53 299.365C371.47 299.411 371.365 299.478 371.213 299.566L370.449 299.982L370.187 299.948L371.083 299.145ZM369.184 299.534L369.739 299.607L370.564 300.949L370.176 300.898L369.413 299.943L368.43 300.67L368.042 300.619L369.184 299.534ZM375.301 307.863C374.354 307.739 373.66 307.395 373.217 306.831C372.774 306.268 372.614 305.523 372.735 304.598C372.853 303.694 373.196 303.029 373.763 302.603C374.335 302.177 375.091 302.026 376.033 302.149C376.799 302.25 377.402 302.493 377.841 302.878C378.28 303.264 378.507 303.751 378.521 304.339L377.807 304.246C377.777 303.779 377.604 303.396 377.288 303.096C376.973 302.792 376.551 302.605 376.022 302.535C375.335 302.445 374.778 302.588 374.353 302.962C373.933 303.337 373.671 303.919 373.568 304.707C373.462 305.511 373.567 306.154 373.88 306.636C374.194 307.113 374.697 307.396 375.39 307.487C375.919 307.556 376.372 307.487 376.749 307.278C377.126 307.069 377.389 306.74 377.54 306.292L378.253 306.386C378.088 306.95 377.744 307.362 377.22 307.622C376.697 307.881 376.057 307.962 375.301 307.863ZM383.188 308.895C382.363 308.787 381.758 308.458 381.372 307.907C380.993 307.352 380.864 306.617 380.983 305.702C381.103 304.787 381.417 304.113 381.926 303.679C382.441 303.241 383.11 303.076 383.935 303.184C384.755 303.291 385.354 303.623 385.733 304.178C386.119 304.729 386.251 305.461 386.131 306.376C386.012 307.291 385.697 307.968 385.188 308.407C384.679 308.84 384.012 309.003 383.188 308.895ZM383.231 308.562C383.781 308.634 384.236 308.47 384.594 308.071C384.959 307.672 385.193 307.071 385.299 306.267C385.404 305.463 385.332 304.822 385.083 304.343C384.839 303.864 384.442 303.589 383.892 303.517C383.342 303.445 382.885 303.609 382.52 304.007C382.162 304.407 381.929 305.008 381.824 305.812C381.719 306.616 381.788 307.257 382.032 307.736C382.282 308.215 382.681 308.49 383.231 308.562ZM389.193 305.196L387.749 305.007L387.79 304.697C388.183 304.738 388.529 304.7 388.83 304.583C389.131 304.461 389.363 304.266 389.528 303.997L390.162 304.08L389.435 309.633L388.626 309.527L389.193 305.196Z" fill="#4A3021"/>
<path d="M420.741 174.573C420.442 175.479 419.974 176.097 419.337 176.426C418.7 176.755 417.939 176.773 417.053 176.48C416.187 176.194 415.598 175.732 415.286 175.095C414.976 174.454 414.969 173.682 415.267 172.781C415.51 172.046 415.862 171.5 416.323 171.141C416.784 170.782 417.305 170.651 417.885 170.748L417.659 171.431C417.196 171.373 416.787 171.471 416.433 171.725C416.075 171.978 415.812 172.357 415.644 172.863C415.427 173.522 415.462 174.095 415.75 174.583C416.04 175.067 416.562 175.433 417.316 175.682C418.086 175.937 418.737 175.955 419.269 175.738C419.797 175.519 420.17 175.078 420.389 174.414C420.557 173.908 420.573 173.45 420.439 173.041C420.305 172.631 420.031 172.311 419.619 172.079L419.845 171.395C420.369 171.664 420.709 172.079 420.865 172.642C421.022 173.205 420.981 173.849 420.741 174.573ZM421.677 166.847L420.665 169.908L421.819 171.056L421.643 171.588L417.164 167.041L417.3 166.631L423.554 165.808L423.273 166.658L421.677 166.847ZM421.254 166.901L418.027 167.284L420.361 169.606L421.254 166.901ZM424.615 162.851C424.418 163.449 424.139 163.927 423.779 164.285C423.419 164.644 422.996 164.869 422.511 164.962C422.02 165.052 421.486 165.002 420.909 164.811C420.342 164.624 419.893 164.349 419.563 163.988C419.228 163.624 419.026 163.192 418.955 162.691C418.885 162.191 418.948 161.642 419.146 161.044C419.343 160.446 419.619 159.97 419.972 159.615C420.327 159.255 420.747 159.029 421.233 158.936C421.713 158.842 422.237 158.889 422.804 159.076C423.381 159.267 423.84 159.545 424.18 159.91C424.515 160.274 424.72 160.707 424.795 161.209C424.873 161.706 424.812 162.254 424.615 162.851ZM424.25 162.731C424.468 162.073 424.429 161.495 424.132 160.998C423.836 160.502 423.305 160.127 422.54 159.874C421.791 159.626 421.154 159.615 420.63 159.841C420.103 160.06 419.73 160.501 419.511 161.164C419.291 161.828 419.325 162.406 419.611 162.9C419.897 163.393 420.418 163.765 421.172 164.014C421.937 164.267 422.586 164.282 423.12 164.059C423.655 163.837 424.031 163.394 424.25 162.731ZM422.104 153.572L421.361 155.82L420.996 155.7L422.741 150.421L423.106 150.541L422.365 152.782L427.318 154.419L427.057 155.209L422.104 153.572ZM429.243 148.846C429.046 149.444 428.767 149.922 428.407 150.28C428.047 150.639 427.624 150.864 427.139 150.957C426.648 151.047 426.114 150.997 425.537 150.806C424.97 150.619 424.521 150.344 424.192 149.983C423.857 149.619 423.654 149.187 423.584 148.686C423.513 148.186 423.577 147.637 423.774 147.039C423.972 146.441 424.247 145.965 424.6 145.61C424.955 145.25 425.376 145.024 425.861 144.931C426.341 144.837 426.865 144.884 427.432 145.071C428.01 145.262 428.468 145.54 428.808 145.905C429.143 146.269 429.348 146.702 429.424 147.204C429.501 147.701 429.441 148.249 429.243 148.846ZM428.879 148.726C429.096 148.068 429.057 147.49 428.76 146.993C428.464 146.496 427.933 146.122 427.169 145.869C426.419 145.621 425.783 145.61 425.259 145.836C424.731 146.055 424.358 146.496 424.139 147.159C423.92 147.823 423.953 148.401 424.239 148.895C424.526 149.388 425.046 149.759 425.801 150.009C426.565 150.262 427.215 150.277 427.749 150.054C428.283 149.832 428.66 149.389 428.879 148.726ZM422.043 144.832C421.957 144.686 421.93 144.564 421.961 144.468C421.983 144.402 422.018 144.355 422.067 144.326C422.111 144.296 422.161 144.29 422.216 144.308C422.267 144.325 422.309 144.367 422.343 144.434C422.377 144.502 422.423 144.618 422.481 144.783L422.746 145.612L422.663 145.863L422.043 144.832ZM422.068 146.77L422.244 146.238L423.718 145.681L423.595 146.053L422.513 146.622L423.042 147.724L422.919 148.096L422.068 146.77ZM431.398 142.327C431.098 143.234 430.63 143.851 429.993 144.18C429.357 144.509 428.595 144.527 427.709 144.234C426.843 143.948 426.254 143.487 425.942 142.85C425.632 142.208 425.626 141.436 425.924 140.535C426.166 139.801 426.518 139.254 426.979 138.896C427.441 138.537 427.961 138.406 428.542 138.502L428.316 139.186C427.852 139.128 427.443 139.226 427.09 139.48C426.731 139.732 426.468 140.111 426.301 140.618C426.083 141.276 426.118 141.849 426.406 142.338C426.696 142.821 427.218 143.187 427.973 143.437C428.742 143.691 429.394 143.71 429.926 143.492C430.453 143.273 430.827 142.832 431.046 142.169C431.213 141.662 431.23 141.204 431.095 140.795C430.961 140.385 430.688 140.065 430.276 139.833L430.502 139.15C431.025 139.418 431.365 139.834 431.522 140.397C431.678 140.96 431.637 141.603 431.398 142.327ZM433.894 134.775C433.633 135.565 433.195 136.097 432.582 136.372C431.966 136.64 431.219 136.629 430.343 136.34C429.467 136.05 428.864 135.615 428.534 135.034C428.2 134.446 428.164 133.757 428.425 132.967C428.684 132.183 429.122 131.656 429.739 131.388C430.352 131.113 431.096 131.121 431.972 131.41C432.849 131.7 433.454 132.136 433.79 132.718C434.12 133.299 434.155 133.985 433.894 134.775ZM433.575 134.669C433.749 134.143 433.673 133.666 433.348 133.238C433.025 132.806 432.479 132.462 431.709 132.208C430.939 131.953 430.296 131.904 429.778 132.058C429.263 132.208 428.918 132.546 428.744 133.073C428.57 133.6 428.644 134.079 428.967 134.512C429.292 134.939 429.84 135.28 430.609 135.535C431.379 135.789 432.022 135.841 432.538 135.692C433.055 135.537 433.401 135.196 433.575 134.669ZM431.388 128.181L430.931 129.564L430.635 129.466C430.749 129.088 430.777 128.74 430.718 128.423C430.655 128.105 430.507 127.839 430.274 127.627L430.474 127.02L435.792 128.777L435.536 129.552L431.388 128.181Z" fill="#4A3021"/>
<path d="M32.5508 186.473L34.6524 187.038C35.662 187.309 36.37 187.736 36.7764 188.32C37.1829 188.905 37.2713 189.624 37.0417 190.479C36.8024 191.37 36.3518 191.989 35.6899 192.336C35.0345 192.679 34.2201 192.72 33.2465 192.459L31.0986 191.882L32.5508 186.473ZM33.4543 192.117C34.1394 192.301 34.7208 192.233 35.1985 191.914C35.6814 191.597 36.028 191.046 36.2382 190.263C36.436 189.527 36.405 188.922 36.1455 188.449C35.8872 187.971 35.4079 187.638 34.7073 187.45L33.2548 187.06L32.0017 191.727L33.4543 192.117ZM40.4305 188.987L38.1435 188.373L38.2431 188.002L43.6129 189.444L43.5133 189.815L41.234 189.203L39.8814 194.24L39.0779 194.024L40.4305 188.987ZM46.4654 192.761C47.0216 193.137 47.4063 193.483 47.6194 193.8C47.8377 194.118 47.9026 194.442 47.8141 194.772C47.7297 195.086 47.5502 195.333 47.2754 195.513C47.0057 195.695 46.663 195.799 46.2473 195.825C45.8315 195.852 45.3661 195.796 44.851 195.657C44.3514 195.523 43.9327 195.345 43.5951 195.121C43.2625 194.9 43.0263 194.648 42.8862 194.368C42.7514 194.089 42.7254 193.794 42.8084 193.485C42.9052 193.125 43.1254 192.85 43.4689 192.66C43.8138 192.466 44.2403 192.379 44.7484 192.399C44.3768 192.117 44.1194 191.852 43.9763 191.604C43.8345 191.35 43.7968 191.1 43.8632 190.853C43.9724 190.446 44.2572 190.177 44.7174 190.047C45.179 189.911 45.7498 189.935 46.4297 190.117C46.8469 190.229 47.2014 190.38 47.4931 190.568C47.7848 190.757 47.9926 190.97 48.1166 191.208C48.2419 191.44 48.2714 191.68 48.205 191.928C48.1331 192.195 47.9419 192.404 47.6314 192.552C47.3223 192.696 46.9336 192.765 46.4654 192.761ZM44.7118 190.932C44.6495 191.163 44.7147 191.394 44.9074 191.622C45.1053 191.852 45.4717 192.132 46.0067 192.464C46.3916 192.429 46.7055 192.339 46.9487 192.195C47.197 192.052 47.3502 191.872 47.4082 191.656C47.476 191.403 47.4051 191.163 47.1956 190.936C46.9861 190.708 46.6805 190.541 46.2787 190.433C45.8769 190.325 45.531 190.318 45.2409 190.411C44.9573 190.501 44.7809 190.674 44.7118 190.932ZM44.9943 195.34C45.4991 195.475 45.9318 195.478 46.2924 195.349C46.653 195.219 46.881 194.977 46.9765 194.621C47.0249 194.441 47.0078 194.268 46.9253 194.102C46.8493 193.933 46.6985 193.754 46.4727 193.566C46.247 193.379 45.9274 193.16 45.5138 192.911L45.2451 192.74C44.8068 192.727 44.4485 192.796 44.1703 192.948C43.8986 193.096 43.7227 193.319 43.6425 193.618C43.5401 193.999 43.6124 194.347 43.8592 194.662C44.106 194.977 44.4844 195.203 44.9943 195.34Z" fill="#4A3021"/>
<path d="M201.719 462.91C201.719 462.91 211.959 478.7 220.969 476.73C229.978 474.76 243.499 458.001 252.968 455.93C252.968 455.93 252.968 455.93 252.969 455.93C252.988 455.926 305.119 444.429 308.099 438.48C311.079 432.53 336.649 395.48 342.599 402.58C348.549 409.68 360.059 409.13 360.059 409.13C360.059 409.13 370.569 409.72 373.139 414.29C375.709 418.86 377.709 429.95 376.139 433.92C374.569 437.89 388.829 447.01 390.619 444.83C392.409 442.65 389.969 433.83 400.309 426.51C407.272 421.756 414.7 417.724 422.48 414.476C422.854 414.32 423.099 413.955 423.099 413.55V412.73L426.054 400.428C426.132 400.104 426.365 399.841 426.672 399.712C428.3 399.033 433.349 396.69 432.449 394.1C431.379 391.02 420.279 380.99 417.449 374.17C414.619 367.35 410.089 359.05 411.159 352.09C412.229 345.13 415.5 324 415.5 324" stroke="#4A3021" stroke-width="0.5" stroke-miterlimit="10"/>
<path d="M455.561 499.26C448.526 498.105 441.999 494.869 436.821 489.97C428.701 481.97 430.941 479.49 421.881 478.32C412.821 477.15 406.701 478.9 401.991 473.14C397.281 467.38 396.811 462.31 394.111 458.67C391.411 455.03 389.741 447.92 390.611 444.83" stroke="#4A3021" stroke-width="0.5" stroke-miterlimit="10"/>
<path d="M75.136 574.08C74.3307 574.08 73.696 573.923 73.232 573.608C72.768 573.293 72.512 572.845 72.464 572.264H73.184C73.2213 572.755 73.3973 573.117 73.712 573.352C74.032 573.581 74.5013 573.696 75.12 573.696C75.6693 573.696 76.088 573.6 76.376 573.408C76.6693 573.216 76.816 572.941 76.816 572.584C76.816 572.371 76.76 572.192 76.648 572.048C76.536 571.904 76.344 571.776 76.072 571.664C75.8053 571.552 75.4293 571.448 74.944 571.352C74.1707 571.203 73.5867 571.011 73.192 570.776C72.8027 570.536 72.608 570.2 72.608 569.768C72.608 569.288 72.832 568.928 73.28 568.688C73.728 568.443 74.3173 568.32 75.048 568.32C75.7893 568.32 76.3653 568.453 76.776 568.72C77.192 568.981 77.432 569.347 77.496 569.816H76.784C76.704 569.427 76.5147 569.144 76.216 568.968C75.9227 568.792 75.5147 568.704 74.992 568.704C74.4853 568.704 74.0987 568.787 73.832 568.952C73.5707 569.117 73.44 569.347 73.44 569.64C73.44 569.816 73.4907 569.965 73.592 570.088C73.6933 570.211 73.8693 570.323 74.12 570.424C74.376 570.525 74.7387 570.624 75.208 570.72C75.784 570.837 76.2453 570.965 76.592 571.104C76.944 571.243 77.208 571.424 77.384 571.648C77.56 571.867 77.648 572.147 77.648 572.488C77.648 572.989 77.4213 573.381 76.968 573.664C76.52 573.941 75.9093 574.08 75.136 574.08ZM81.3334 574.08C80.4054 574.08 79.7334 573.875 79.3174 573.464C78.9067 573.048 78.7014 572.451 78.7014 571.672V568.4H79.5334V571.856C79.5334 572.453 79.6747 572.909 79.9574 573.224C80.24 573.539 80.6987 573.696 81.3334 573.696C81.9574 573.696 82.4107 573.541 82.6934 573.232C82.9814 572.923 83.1254 572.464 83.1254 571.856V568.4H83.9574V571.672C83.9574 572.451 83.752 573.048 83.3414 573.464C82.9307 573.875 82.2614 574.08 81.3334 574.08ZM88.0109 574.08C87.3815 574.08 86.8402 573.965 86.3869 573.736C85.9335 573.507 85.5869 573.176 85.3469 572.744C85.1069 572.307 84.9869 571.784 84.9869 571.176C84.9869 570.579 85.1069 570.067 85.3469 569.64C85.5869 569.208 85.9335 568.88 86.3869 568.656C86.8402 568.432 87.3815 568.32 88.0109 568.32C88.6402 568.32 89.1789 568.432 89.6269 568.656C90.0802 568.88 90.4269 569.208 90.6669 569.64C90.9069 570.067 91.0269 570.579 91.0269 571.176C91.0269 571.784 90.9069 572.307 90.6669 572.744C90.4269 573.176 90.0802 573.507 89.6269 573.736C89.1789 573.965 88.6402 574.08 88.0109 574.08ZM88.0109 573.696C88.7042 573.696 89.2402 573.477 89.6189 573.04C89.9975 572.603 90.1869 571.981 90.1869 571.176C90.1869 570.387 89.9975 569.779 89.6189 569.352C89.2455 568.92 88.7095 568.704 88.0109 568.704C87.3122 568.704 86.7735 568.917 86.3949 569.344C86.0162 569.771 85.8269 570.381 85.8269 571.176C85.8269 571.981 86.0162 572.603 86.3949 573.04C86.7735 573.477 87.3122 573.696 88.0109 573.696ZM89.5629 565.984C89.6749 565.856 89.7815 565.792 89.8829 565.792C89.9522 565.792 90.0082 565.811 90.0509 565.848C90.0935 565.88 90.1149 565.925 90.1149 565.984C90.1149 566.037 90.0882 566.091 90.0349 566.144C89.9815 566.197 89.8855 566.277 89.7469 566.384L89.0429 566.896H88.7789L89.5629 565.984ZM87.7309 566.616H88.2909L89.2829 567.84H88.8909L88.0109 566.992L87.1309 567.84H86.7389L87.7309 566.616ZM92.3888 568.4H93.2208V574H92.3888V568.4ZM98.7056 568.784H96.3376V568.4H101.898V568.784H99.5376V574H98.7056V568.784ZM105.756 572.544H102.532L101.804 574H101.244L104.156 568.32H104.588L107.332 574H106.436L105.756 572.544ZM105.572 572.16L104.196 569.216L102.724 572.16H105.572ZM104.044 566.616H104.604L105.596 567.84H105.204L104.324 566.992L103.444 567.84H103.052L104.044 566.616ZM107.998 568.4H108.838L112.246 572.744V568.4H112.95V574H112.534L108.702 569.128V574H107.998V568.4Z" fill="#4A3021"/>
<path d="M332.408 535.08C331.453 535.08 330.72 534.829 330.208 534.328C329.696 533.827 329.44 533.109 329.44 532.176C329.44 531.264 329.693 530.56 330.2 530.064C330.712 529.568 331.443 529.32 332.392 529.32C333.165 529.32 333.795 529.483 334.28 529.808C334.765 530.133 335.053 530.587 335.144 531.168H334.424C334.333 530.709 334.112 530.352 333.76 530.096C333.408 529.835 332.965 529.704 332.432 529.704C331.739 529.704 331.205 529.917 330.832 530.344C330.464 530.771 330.28 531.381 330.28 532.176C330.28 532.987 330.467 533.611 330.84 534.048C331.213 534.48 331.749 534.696 332.448 534.696C332.981 534.696 333.421 534.568 333.768 534.312C334.115 534.056 334.333 533.696 334.424 533.232H335.144C335.053 533.813 334.765 534.267 334.28 534.592C333.795 534.917 333.171 535.08 332.408 535.08ZM340.037 533.544H336.813L336.085 535H335.525L338.437 529.32H338.869L341.613 535H340.717L340.037 533.544ZM339.853 533.16L338.477 530.216L337.005 533.16H339.853ZM348.512 529.4V535H347.68V530.296L345.504 535H345.112L342.776 530.232V535H342.28V529.4H343.232L345.464 534.008L347.6 529.4H348.512ZM351.826 529.4H352.658V531.808H356.25V529.4H357.082V535H356.25V532.184H352.658V535H351.826V529.4ZM361.136 535.08C360.507 535.08 359.965 534.965 359.512 534.736C359.059 534.507 358.712 534.176 358.472 533.744C358.232 533.307 358.112 532.784 358.112 532.176C358.112 531.579 358.232 531.067 358.472 530.64C358.712 530.208 359.059 529.88 359.512 529.656C359.965 529.432 360.507 529.32 361.136 529.32C361.765 529.32 362.304 529.432 362.752 529.656C363.205 529.88 363.552 530.208 363.792 530.64C364.032 531.067 364.152 531.579 364.152 532.176C364.152 532.784 364.032 533.307 363.792 533.744C363.552 534.176 363.205 534.507 362.752 534.736C362.304 534.965 361.765 535.08 361.136 535.08ZM361.136 534.696C361.829 534.696 362.365 534.477 362.744 534.04C363.123 533.603 363.312 532.981 363.312 532.176C363.312 531.387 363.123 530.779 362.744 530.352C362.371 529.92 361.835 529.704 361.136 529.704C360.437 529.704 359.899 529.917 359.52 530.344C359.141 530.771 358.952 531.381 358.952 532.176C358.952 532.981 359.141 533.603 359.52 534.04C359.899 534.477 360.437 534.696 361.136 534.696ZM368.779 533.544H365.555L364.827 535H364.267L367.179 529.32H367.611L370.355 535H369.459L368.779 533.544ZM368.595 533.16L367.219 530.216L365.747 533.16H368.595ZM365.971 527.984C365.769 527.845 365.667 527.72 365.667 527.608C365.667 527.549 365.689 527.501 365.731 527.464C365.779 527.421 365.843 527.4 365.923 527.4C366.083 527.4 366.225 527.469 366.347 527.608L367.475 528.84H367.195L365.971 527.984Z" fill="#4A3021"/>
<path d="M576.592 397.4H577.424V399.808H581.016V397.4H581.848V403H581.016V400.184H577.424V403H576.592V397.4ZM585.902 403.08C585.272 403.08 584.731 402.965 584.278 402.736C583.824 402.507 583.478 402.176 583.238 401.744C582.998 401.307 582.878 400.784 582.878 400.176C582.878 399.579 582.998 399.067 583.238 398.64C583.478 398.208 583.824 397.88 584.278 397.656C584.731 397.432 585.272 397.32 585.902 397.32C586.531 397.32 587.07 397.432 587.518 397.656C587.971 397.88 588.318 398.208 588.558 398.64C588.798 399.067 588.918 399.579 588.918 400.176C588.918 400.784 588.798 401.307 588.558 401.744C588.318 402.176 587.971 402.507 587.518 402.736C587.07 402.965 586.531 403.08 585.902 403.08ZM585.902 402.696C586.595 402.696 587.131 402.477 587.51 402.04C587.888 401.603 588.078 400.981 588.078 400.176C588.078 399.387 587.888 398.779 587.51 398.352C587.136 397.92 586.6 397.704 585.902 397.704C585.203 397.704 584.664 397.917 584.286 398.344C583.907 398.771 583.718 399.381 583.718 400.176C583.718 400.981 583.907 401.603 584.286 402.04C584.664 402.477 585.203 402.696 585.902 402.696ZM584.526 395.984C584.323 395.845 584.222 395.72 584.222 395.608C584.222 395.549 584.243 395.501 584.286 395.464C584.334 395.421 584.398 395.4 584.478 395.4C584.638 395.4 584.779 395.469 584.902 395.608L586.03 396.84H585.75L584.526 395.984ZM589.951 397.4H590.791L594.199 401.744V397.4H594.903V403H594.487L590.655 398.128V403H589.951V397.4ZM600.057 397.784H597.689V397.4H603.249V397.784H600.889V403H600.057V397.784ZM608.184 401.824C608.307 402.133 608.419 402.381 608.52 402.568C608.627 402.749 608.731 402.872 608.832 402.936V403H607.96C607.87 402.899 607.784 402.771 607.704 402.616C607.63 402.461 607.547 402.264 607.456 402.024C607.307 401.629 607.155 401.325 607 401.112C606.846 400.893 606.656 400.749 606.432 400.68H606.224H604.744V403H603.912V397.4H606.224C606.992 397.4 607.584 397.536 608 397.808C608.422 398.075 608.632 398.485 608.632 399.04C608.632 399.867 608.166 400.381 607.232 400.584C607.435 400.685 607.611 400.835 607.76 401.032C607.91 401.224 608.051 401.488 608.184 401.824ZM606.24 400.304C607.286 400.304 607.808 399.883 607.808 399.04C607.808 398.203 607.286 397.784 606.24 397.784H604.744V400.304H606.24ZM609.522 397.4H614.266V397.784H610.354V399.808H613.81V400.184H610.354V402.616H614.266V403H609.522V397.4Z" fill="#4A3021"/>
<path d="M181.6 156.4H183.776C184.821 156.4 185.616 156.629 186.16 157.088C186.704 157.547 186.976 158.219 186.976 159.104C186.976 160.027 186.701 160.741 186.152 161.248C185.608 161.749 184.832 162 183.824 162H181.6V156.4ZM183.936 161.616C184.645 161.616 185.189 161.4 185.568 160.968C185.952 160.536 186.144 159.915 186.144 159.104C186.144 158.341 185.957 157.765 185.584 157.376C185.211 156.981 184.661 156.784 183.936 156.784H182.432V161.616H183.936ZM188.342 156.4H189.174V162H188.342V156.4ZM190.686 156.4H195.43V156.784H191.518V158.808H194.974V159.184H191.518V161.616H195.43V162H190.686V156.4ZM192.846 154.616H193.406L194.398 155.84H194.006L193.126 154.992L192.246 155.84H191.854L192.846 154.616ZM196.248 156.4H197.088L200.496 160.744V156.4H201.2V162H200.784L196.952 157.128V162H196.248V156.4ZM204.506 156.4H205.338V161.616H208.858V162H204.506V156.4ZM213.584 160.544H210.36L209.632 162H209.072L211.984 156.32H212.416L215.16 162H214.264L213.584 160.544ZM213.4 160.16L212.024 157.216L210.552 160.16H213.4ZM211.872 154.616H212.432L213.424 155.84H213.032L212.152 154.992L211.272 155.84H210.88L211.872 154.616ZM222.058 156.4V162H221.226V157.296L219.05 162H218.658L216.322 157.232V162H215.826V156.4H216.778L219.01 161.008L221.146 156.4H222.058Z" fill="#4A3021"/>
<path d="M-2.5 277C46.8333 294.167 166.2 330.8 239 334" stroke="#4A3021" stroke-width="3"/>
<path d="M233.5 361.999C233.833 343.999 241 307.999 267 307.999C299.5 307.999 420 303.999 441.5 342.499" stroke="#4A3021" stroke-width="3"/>
</svg>
