<svg width="382" height="570" viewBox="0 0 382 570" fill="none" xmlns="http://www.w3.org/2000/svg">
<g clip-path="url(#clip0_5632_14133)">
<rect width="382" height="570" fill="#DBDBDB"/>
<g clip-path="url(#clip1_5632_14133)">
<path d="M-225.238 -2.125V571.724H436.046C436.046 571.724 423.933 531.571 430.18 522.268C426.725 522.132 422.871 519.475 420.843 518.677C418.814 517.879 416.717 509.492 410.07 503.906C403.423 498.32 385.919 487.353 381.369 484.441C376.819 481.53 353.212 467.905 344.808 458.813C336.404 449.722 322.524 436.742 308.662 411.759C294.8 386.777 275.929 359.332 271.158 334.061C266.387 308.789 264.562 302.652 267.975 293.102C271.387 283.552 273.425 272.414 279.341 272.414C285.258 272.414 286.616 280.105 289.019 279.401C291.421 278.696 292.27 275.012 295.105 275.581C297.94 276.149 299.205 278.127 301.463 276.998C303.721 275.869 307.117 269.078 311.65 268.798C316.183 268.518 321.268 269.078 322.966 272.049C324.663 275.02 324.944 280.105 328.059 278.552C331.174 276.998 332.439 275.581 331.735 271.2C331.03 266.82 329.468 263.136 333.857 261.862C338.246 260.589 341.064 259.256 342.193 256.956C343.322 254.655 350.682 257.805 352.804 256.209C354.926 254.613 357.184 255.929 359.595 254.087C362.006 252.245 361.718 251.404 356.344 247.864C350.971 244.324 349.128 236.133 347.999 232.737C346.87 229.342 342.49 225.946 339.375 227.084C336.259 228.221 331.455 231.608 332.168 235.844C332.881 240.08 334.85 246.311 331.743 247.864C328.636 249.418 325.801 251.116 322.27 247.44C318.738 243.764 320.147 241.217 315.343 238.391C310.538 235.564 307.423 232.737 301.625 235.564C295.827 238.391 294.698 238.959 291.727 234.155C288.756 229.35 285.649 221.005 280.98 218.17C276.311 215.335 271.362 213.221 269.239 214.214C267.117 215.208 263.442 219.163 261.888 220.437C260.335 221.71 255.666 220.861 254.248 221.71C252.831 222.559 251.277 226.37 250.997 228.357C250.717 230.343 249.579 235.564 246.752 236.846C243.926 238.128 240.106 243.348 240.386 245.615C240.666 247.881 235.581 246.464 234.172 247.737C232.763 249.01 229.359 254.239 231.481 255.377C232.412 255.897 233.479 256.122 234.541 256.02C235.602 255.919 236.608 255.496 237.423 254.808C238.696 253.543 243.646 253.679 244.35 256.082C245.055 258.484 249.443 259.053 253.399 259.621C257.355 260.19 262.737 262.593 261.744 267.966C260.751 273.339 260.895 282.397 258.204 281.395C255.513 280.394 254.248 272.771 254.248 271.073C254.248 269.375 250.997 269.655 249.011 273.051C247.033 269.655 249.579 265.275 246.897 265.131C244.214 264.986 243.077 268.671 243.221 272.066C243.365 275.462 237.559 280.402 237.135 280.402C236.71 280.402 234.877 276.591 234.172 278.704C233.467 280.818 236.43 282.669 232.754 283.093C229.079 283.518 225.114 283.518 225.403 285.776C225.692 288.034 227.101 294.825 224.834 297.236C222.568 299.647 218.043 304.163 209.282 302.601C200.522 301.039 182.271 294.545 170.395 284.078C158.519 273.611 151.312 264.146 145.938 253.255C140.565 242.363 140.141 236.999 140.141 233.603C140.141 230.207 144.241 228.23 147.916 230.207C151.592 232.185 153.859 231.905 155.412 228.798C156.965 225.691 156.541 223.425 154.988 220.598C153.434 217.771 150.174 212.109 154.699 208.578C159.224 205.046 159.937 204.053 164.461 207.16C168.986 210.267 170.684 210.411 171.388 208.714C171.8 207.583 171.83 206.349 171.473 205.201C171.115 204.052 170.391 203.052 169.41 202.355C167.008 200.658 170.964 202.635 170.964 197.542C170.964 192.449 169.266 177.89 175.344 177.042C175.344 177.042 180.293 178.315 181.142 175.064C181.991 171.812 187.143 176.626 189.138 174.902C191.133 173.179 193.502 171.719 195.081 169.452C196.66 167.186 205.072 166.456 209.342 167.364C213.612 168.273 215.878 160.573 213.697 157.559C211.515 154.546 210.607 157.288 202.712 151.023C201.71 150.658 198.985 150.565 199.894 153.926C197.721 154.291 195.539 153.196 193.357 154.563C191.176 155.93 191.728 158.918 188.264 158.196C184.801 157.475 181.473 155.743 178.009 151.473C177.466 150.565 175.921 154.291 172.746 150.93C169.572 147.568 168.841 144.487 166.566 145.123C164.291 145.76 159.665 146.753 160.853 151.201C161.482 152.475 161.397 154.02 157.67 153.29C153.943 152.56 153.044 152.441 151.592 149.478C149.317 148.935 150.955 149.928 145.14 150.021C139.326 150.115 141.507 150.87 139.512 152.11C137.517 153.349 134.971 156.286 130.344 151.023C129.258 149.75 128.893 148.748 125.081 147.296C121.27 145.845 122.356 148.026 115.998 142.033C109.64 136.04 111.007 135.446 107.679 136.473C104.351 137.5 72.4076 84.7418 72.4076 84.7418L51.5845 51.4229C51.5845 51.4229 48.1889 46.9408 54.929 46.1259C56.856 46.3296 53.4181 32.0598 48.6218 26.5335C47.0259 25.4299 50.2007 25.014 49.3773 23.7407C48.5538 22.4673 48.3332 21.8731 46.5335 22.1787C44.7339 22.4843 42.5013 22.3994 39.7424 17.5437C36.9835 12.6881 36.9751 12.1618 35.5574 12.9088C34.1398 13.6559 29.6152 15.1499 30.3283 19.4877C31.0413 23.8256 32.7137 30.6931 31.9667 32.637C31.2196 34.581 35.2602 33.6132 35.2602 33.6132C35.2602 33.6132 38.2483 38.5453 33.9869 40.6335C29.7255 42.7218 21.6526 48.6301 8.90231 45.4722C-3.84801 42.3143 -11.853 38.4689 -10.7155 46.822C-10.7749 47.7557 -5.15528 53.1207 -10.7155 56.8303C-16.2757 60.54 -14.96 61.4144 -19.4421 61.669C-23.9242 61.9237 -24.1704 65.6758 -26.1059 65.7776C-27.5879 65.9042 -29.0765 65.9354 -30.5625 65.871C-32.6932 65.7776 -30.5625 63.0612 -25.9106 61.4143C-21.2587 59.7675 -19.1195 59.6741 -18.0754 57.2548C-17.0313 54.8355 -13.9074 52.7047 -14.5865 51.2531C-15.2656 49.8015 -17.201 51.3465 -18.364 52.5095C-19.527 53.6725 -20.9107 57.45 -22.7188 55.905C-24.5269 54.3601 -22.2349 51.8389 -18.6526 49.3261C-15.0703 46.8134 -11.5899 44.9714 -11.488 41.7796C-11.3862 38.5877 -12.8462 38.1972 -16.4285 36.839C-20.0108 35.4808 -32.3027 23.868 -32.5574 19.2161C-32.8121 14.5642 -31.3011 14.7679 -34.4929 13.9954C-37.6847 13.2229 -38.2705 13.6049 -41.0803 10.2178C-43.8901 6.83076 -44.1787 12.1533 -44.0769 13.1211C-43.975 14.0888 -45.7237 16.0242 -51.9206 11.2789C-58.1175 6.53365 -59.5606 6.05827 -62.1073 3.0532C-64.6539 0.048135 -68.2107 0.506552 -69.2718 1.79686C-70.333 3.08717 -68.8898 5.19245 -71.5978 5.3792C-73.6343 5.46977 -75.6748 5.37028 -77.6929 5.08206C-78.9577 4.98868 -79.051 1.21115 -74.8915 0.438661C-70.7319 -0.333828 -73.2447 -2.10801 -73.2447 -2.10801L-225.238 -2.125Z" fill="white"/>
<path d="M217.424 151.33C217.424 151.33 226.686 162.611 227.356 157.221C228.027 151.831 233.299 148.842 228.035 143.596C222.772 138.35 221.465 137.849 220.455 141.899C219.445 145.948 215.489 149.089 217.424 151.33Z" fill="white"/>
<path d="M-82.3121 570.135C-82.3121 570.135 -53.0764 554.431 -49.4941 549.923C-45.9117 545.416 -33.6368 539.66 -25.7252 538.412C-17.8135 537.165 -10.1735 535.305 -6.13274 531.732C-2.09203 528.158 4.44436 530.951 5.37813 532.971C6.31191 534.991 13.0181 539.041 16.7278 540.28C20.4374 541.519 27.1436 543.676 32.1181 541.214C37.0926 538.752 42.6953 530.798 46.736 531.57C50.7767 532.343 57.7716 534.686 61.3539 534.372C64.9362 534.058 72.5508 532.351 75.3521 526.91C78.1534 521.469 81.6678 513.226 85.3859 512.903C89.104 512.581 93.7814 511.63 95.5726 514.075C97.3637 516.52 104.146 523.803 105.369 530.823C106.591 537.844 119.978 514.499 122.262 513.362C124.545 512.224 126.829 509.279 127.975 505.526C129.121 501.774 127.813 494.431 131.37 496.392C134.927 498.353 141.328 501.29 143.611 498.353C145.895 495.416 149.324 491.825 151.769 493.455C154.214 495.085 155.36 491.333 155.521 490.187C155.682 489.041 160.547 489.814 162.083 491.197C163.619 492.581 163.934 489.245 165.928 487.988C167.923 486.732 169.927 481.664 176.964 479.669C184.001 477.674 191.871 467.369 192.023 466.146C192.176 464.924 194.791 465.832 197.405 463.99C200.02 462.148 203.704 458.608 200.173 451.384C196.641 444.16 202.94 442.777 204.171 442.777C205.402 442.777 209.086 443.396 209.392 444.474C209.697 445.552 213.543 443.863 214.485 440.79C215.427 437.717 221.556 433.413 222.634 433.261C223.712 433.108 221.403 428.643 221.862 425.264C222.32 421.885 222.787 422.497 220.937 419.271C219.086 416.045 226.03 411.631 226.03 411.631L227.108 413.779C227.108 413.779 221.879 415.476 222.337 417.004C222.796 418.532 224.646 422.539 224.035 425.493C223.424 428.447 226.344 430.417 224.807 432.87C223.271 435.323 219.578 436.715 218.509 437.794C217.439 438.872 215.436 443.634 213.127 445.434C210.818 447.233 208.033 448.354 207.286 446.665C206.539 444.975 206.353 443.608 204.307 444.466C202.261 445.323 200.215 445.858 200.351 447.378C200.487 448.897 201.404 450.476 201.998 451.8C202.592 453.125 202.991 453.252 202.847 456.613C202.702 459.975 202.193 461.707 200.801 463.218C199.409 464.729 193.28 467.776 192.151 468.897C190.25 470.934 188.486 473.095 186.871 475.365C185.088 477.912 184.697 478.54 182.915 479.067C180.907 479.549 178.94 480.187 177.032 480.977C174.485 482.097 173.535 485.73 171.226 486.791C168.917 487.853 165.742 489.134 165.742 490.9C165.742 492.666 165.215 494.117 163.637 493.718C162.058 493.319 161.786 491.605 160.071 491.605C158.356 491.605 158.017 493.362 156.438 495.195C154.859 497.029 154.74 495.611 152.737 495.195C150.733 494.779 146.463 497.878 145.216 499.33C143.968 500.781 142.966 501.316 138.739 500.849C134.511 500.382 132.27 497.751 131.608 498.676C130.946 499.601 131.014 503.769 130.428 505.272C129.842 506.774 127.779 509.898 127.032 511.418C126.285 512.937 123.467 515.042 122.143 516.299C120.819 517.555 117.898 522.114 116.336 524.219C114.774 526.324 110.394 533.073 107.686 533.998C104.978 534.924 103.994 534.915 103.068 530.891C102.143 526.868 101.082 524.754 97.4571 520.857C93.8323 516.961 96.727 515.577 92.8986 515.11C89.0701 514.644 87.3554 513.133 84.7747 516.494C82.1941 519.856 79.6304 525.942 76.3282 528.973C73.026 532.003 73.4251 533.794 69.0618 534.652C64.6985 535.509 60.5729 538.217 55.9295 536.435C51.2861 534.652 49.9194 532.937 47.4406 534.389C44.9619 535.84 37.8736 539.541 34.3677 542.029C30.8618 544.516 28.1028 546.579 22.9501 546.273C17.7973 545.968 12.9842 545.348 10.4036 542.114C7.82297 538.879 5.45458 535.84 2.88245 535.509C0.310318 535.178 -0.886677 532.963 -4.71517 535.772C-8.54365 538.582 -9.92729 539.278 -16.8627 541.061C-23.7981 542.844 -29.7319 540.263 -33.5689 542.844C-37.4059 545.424 -39.9695 545.221 -44.9864 550.433C-50.0033 555.645 -55.5466 559.482 -59.5789 561.265C-63.6111 563.047 -66.9727 563.905 -69.8759 566.018C-72.7791 568.132 -78.1271 571.358 -78.1271 571.358L-83.543 571.782L-82.3121 570.135Z" fill="#DBDBDB"/>
<path d="M237.17 280.386C237.17 280.386 237.034 282.219 238.936 284.8C240.838 287.381 244.708 291.71 244.437 295.683C244.165 299.655 244.649 312.295 244.437 317.355C244.225 322.414 242.289 335.054 244.488 334.061C246.686 333.068 250.116 329.817 251.916 335.759C253.715 341.701 255.557 345.249 251.916 347.414C248.274 349.579 247.671 350.453 244.343 351.854C241.016 353.254 240.753 357.643 237.153 359.697C233.554 361.752 233.427 366.064 228.86 368.602C224.293 371.14 217.06 377.482 213.758 379.264C210.456 381.047 210.507 381.752 211.95 381.879C213.393 382.006 217.697 380.971 218.087 382.533C218.478 384.094 220.702 384.493 220.838 382.533C220.974 380.572 218.614 377.83 222.4 375.996C226.186 374.163 231.814 369.723 234.165 368.814C236.517 367.906 236.907 360.19 239.259 360.326C241.61 360.461 242.264 357.838 243.961 356.013C245.659 354.188 250.464 351.047 254.004 354.052C257.544 357.057 259.386 357.448 256.508 361.633C253.63 365.818 252.459 369.604 251.279 373.789C250.099 377.974 248.401 376.531 248.138 379.672C247.875 382.813 249.055 385.028 245.922 388.814C242.79 392.6 240.557 391.166 239.776 393.78C238.995 396.395 241.347 399.536 240.43 402.014C239.513 404.493 236.899 407.77 235.591 410.648C235.043 412.04 234.887 413.556 235.142 415.031C235.396 416.505 236.051 417.882 237.034 419.009C238.732 420.707 243.571 421.624 243.571 423.848C243.571 426.072 239.904 435.478 241.084 436.785C242.264 438.092 250.073 434.917 253.316 437.99C256.559 441.063 260.718 443.576 262.162 444.841C263.605 446.106 264.708 451.7 264.87 453.686C265.031 455.673 265.948 471.904 266.313 475.511C266.678 479.119 265.948 483.457 267.391 484.178C268.834 484.9 268.01 476.836 268.01 473.814C268.01 470.792 267.841 461.81 267.764 458.135C267.688 454.459 266.372 447.838 264.25 444.815C262.128 441.793 257.552 440.571 256.61 438.771C255.668 436.972 248.817 434.221 244.929 435.503C241.041 436.785 242.807 431.335 243.868 429.561C244.929 427.787 246.805 423.619 243.214 420.817C239.624 418.016 235.125 416.047 237.578 411.573C240.031 407.099 241.907 406.93 242.968 403.585C244.029 400.24 240.761 397.456 243.299 396.641C245.837 395.826 251.219 393.127 251.135 390.758C251.05 388.39 251.873 384.247 251.135 382.32C250.396 380.393 250.888 379.078 252.281 376.378C253.673 373.679 253.749 367.482 256.364 365.767C258.978 364.052 259.224 363.22 260.37 364.375C261.516 365.529 266.083 366.828 267.722 370.58C269.36 374.332 270.413 383.899 273.766 384.468C277.119 385.037 276.949 387.083 277.111 385.037C277.272 382.991 274.173 384.875 272.943 378.755C271.712 372.635 268.375 369.85 269.267 366.658C270.158 363.467 268.944 362.329 266.491 361.022C264.038 359.714 261.262 359.069 260.124 355.631C258.987 352.193 257.917 350.894 257.832 345.445C257.717 340.789 256.777 336.19 255.056 331.862C253.91 329.171 250.651 325.572 250.235 318.959C249.819 312.346 249.258 313.323 249.012 306.947C248.766 300.572 248.69 289.308 247.136 287.262C245.583 285.216 243.885 285.632 244.038 282.525C244.191 279.418 245.031 278.934 244.038 276.812C243.183 275.13 242.198 273.518 241.092 271.99L237.17 280.386Z" fill="#DBDBDB"/>
<path d="M-225.238 232.704C-225.238 232.704 -159.246 222.033 -123.236 236.04C-87.2259 250.047 -59.5691 251.711 -45.2228 249.037C-30.8766 246.363 22.459 254.707 38.4691 246.702C54.4791 238.697 69.1394 255.709 83.1461 263.68C97.1528 271.651 104.818 275.675 101.822 289.35C98.8251 303.026 145.31 362.779 164.563 378.068C183.816 393.356 198.646 488.805 195.437 501.64C192.228 514.476 209.868 571.691 214.69 571.691" stroke="#4A3021" stroke-width="3.01579" stroke-miterlimit="10"/>
<path d="M263.27 342.346C257.447 343.093 243.559 346.972 240.868 351.454C238.177 355.936 215.783 366.683 211.946 367.719C208.109 368.755 200.699 369.417 184.875 368.924C169.052 368.432 164.553 378.101 164.553 378.101C160.249 399.323 151.888 396.904 145.759 400.265C139.63 403.627 127.711 403.041 101.718 401.963C75.7253 400.885 63.1024 408.466 61.6593 414.96C60.2162 421.454 31.702 418.211 27.7037 419.289C0.632647 429.034 -82.0152 424.382 -112.363 414.96C-142.711 405.537 -175.885 418.932 -187.439 429.034C-198.992 439.136 -224.977 414.96 -224.977 414.96" stroke="#4A3021" stroke-width="3.01579" stroke-miterlimit="10"/>
<path d="M30.8961 336.21H27.9216V335.629H35.3681V336.21H32.3936V342.76H30.8961V336.21ZM36.184 335.629H37.6916V338.644H41.7357V335.629H43.2433V342.76H41.7357V339.225H37.6916V342.76H36.184V335.629ZM49.8126 340.936H46.0232L45.1369 342.76H44.0979L47.8058 335.527H48.7226L52.2167 342.76H50.6683L49.8126 340.936ZM49.5376 340.356L47.9586 336.984L46.3084 340.356H49.5376ZM46.3899 333.816C46.1115 333.633 45.9722 333.463 45.9722 333.307C45.9722 333.211 46.0096 333.137 46.0843 333.082C46.159 333.028 46.2575 333.001 46.3797 333.001C46.5155 333.001 46.6378 333.025 46.7464 333.072C46.8551 333.12 46.9569 333.198 47.052 333.307L48.4476 334.916H47.9586L46.3899 333.816ZM53.0855 335.629H54.5727L58.4538 340.682V335.629H59.8392V342.76H58.8817L54.4709 336.953V342.76H53.0855V335.629ZM61.3124 335.629H62.82V338.644H66.8641V335.629H68.3718V342.76H66.8641V339.225H62.82V342.76H61.3124V335.629ZM72.7125 335.629H75.6055C76.6445 335.629 77.4459 335.802 78.0095 336.149C78.58 336.488 78.8652 337.048 78.8652 337.829C78.8652 338.604 78.5868 339.164 78.0299 339.51C77.473 339.857 76.6649 340.03 75.6055 340.03H74.2201V342.76H72.7125V335.629ZM75.6259 339.439C76.2031 339.439 76.6377 339.32 76.9298 339.082C77.2218 338.845 77.3678 338.427 77.3678 337.829C77.3678 337.245 77.2218 336.831 76.9298 336.587C76.6445 336.335 76.2099 336.21 75.6259 336.21H74.2201V339.439H75.6259ZM79.8255 335.629H81.3331V338.644H85.3772V335.629H86.8848V342.76H85.3772V339.225H81.3331V342.76H79.8255V335.629ZM92.2012 342.862C91.3659 342.862 90.6426 342.716 90.0314 342.424C89.427 342.132 88.9652 341.711 88.646 341.16C88.3268 340.604 88.1672 339.938 88.1672 339.164C88.1672 338.403 88.3268 337.751 88.646 337.208C88.972 336.665 89.4372 336.25 90.0416 335.965C90.646 335.673 91.3659 335.527 92.2012 335.527C93.0297 335.527 93.7427 335.673 94.3404 335.965C94.9448 336.25 95.4066 336.665 95.7258 337.208C96.0517 337.751 96.2147 338.403 96.2147 339.164C96.2147 339.938 96.0551 340.604 95.7359 341.16C95.4168 341.711 94.955 342.132 94.3506 342.424C93.7461 342.716 93.0297 342.862 92.2012 342.862ZM92.2012 342.281C93.0025 342.281 93.6171 342.016 94.045 341.486C94.4728 340.95 94.6867 340.176 94.6867 339.164C94.6867 338.172 94.4728 337.415 94.045 336.892C93.6171 336.369 93.0025 336.108 92.2012 336.108C91.393 336.108 90.7716 336.373 90.337 336.902C89.9092 337.425 89.6952 338.179 89.6952 339.164C89.6952 340.176 89.9092 340.95 90.337 341.486C90.7648 342.016 91.3862 342.281 92.2012 342.281ZM94.1264 332.441C94.2555 332.278 94.4117 332.196 94.595 332.196C94.7037 332.196 94.7886 332.22 94.8497 332.267C94.9176 332.315 94.9516 332.38 94.9516 332.461C94.9516 332.529 94.9074 332.61 94.8191 332.706C94.7376 332.794 94.5984 332.916 94.4015 333.072L93.6884 333.622H93.23L94.1264 332.441ZM91.7631 333.276H92.6392L93.994 334.916H93.2708L92.2012 333.908L91.1316 334.916H90.4083L91.7631 333.276ZM39.5263 348.629C40.9049 348.629 41.9575 348.925 42.6842 349.515C43.4176 350.099 43.7843 350.952 43.7843 352.072C43.7843 353.267 43.4244 354.181 42.7045 354.812C41.9847 355.444 40.9456 355.76 39.5874 355.76H36.5722V352.327H35.798V351.767H36.5722V348.629H39.5263ZM39.73 355.179C40.5586 355.179 41.1867 354.918 41.6146 354.395C42.0424 353.865 42.2563 353.091 42.2563 352.072C42.2563 351.135 42.0424 350.425 41.6146 349.943C41.1867 349.454 40.5586 349.21 39.73 349.21H38.0798V351.767H39.8828V352.327H38.0798V355.179H39.73ZM49.7629 353.936H45.9734L45.0872 355.76H44.0482L47.7561 348.527H48.6729L52.1669 355.76H50.6186L49.7629 353.936ZM49.4878 353.356L47.9089 349.984L46.2587 353.356H49.4878ZM46.3402 346.816C46.0617 346.633 45.9225 346.463 45.9225 346.307C45.9225 346.211 45.9598 346.137 46.0346 346.082C46.1093 346.028 46.2077 346.001 46.33 346.001C46.4658 346.001 46.588 346.025 46.6967 346.072C46.8053 346.12 46.9072 346.198 47.0023 346.307L48.3979 347.916H47.9089L46.3402 346.816ZM55.9107 348.629H57.3979L61.2791 353.682V348.629H62.6644V355.76H61.7069L57.2961 349.953V355.76H55.9107V348.629ZM69.2309 353.936H65.4415L64.5553 355.76H63.5162L67.2242 348.527H68.141L71.635 355.76H70.0866L69.2309 353.936ZM68.9559 353.356L67.377 349.984L65.7267 353.356H68.9559ZM66.0018 345.94C66.0289 345.661 66.124 345.444 66.287 345.288C66.4568 345.132 66.6605 345.054 66.8982 345.054C67.0204 345.054 67.1461 345.077 67.2751 345.125C67.4041 345.172 67.5671 345.24 67.7641 345.329C67.8863 345.383 68.0085 345.434 68.1308 345.481C68.253 345.529 68.3583 345.553 68.4466 345.553C68.5824 345.553 68.7046 345.512 68.8133 345.43C68.9287 345.349 69.0102 345.234 69.0578 345.084L69.2921 345.196C69.1766 345.814 68.8744 346.123 68.3854 346.123C68.27 346.123 68.1512 346.103 68.0289 346.062C67.9135 346.015 67.7539 345.943 67.5501 345.848C67.3804 345.767 67.2411 345.706 67.1325 345.665C67.0238 345.624 66.9254 345.604 66.8371 345.604C66.6945 345.604 66.5688 345.644 66.4602 345.726C66.3515 345.801 66.2768 345.909 66.2361 346.052L66.0018 345.94ZM67.6622 347.998C67.1325 347.998 66.708 347.858 66.3889 347.58C66.0697 347.301 65.8999 346.935 65.8795 346.48H66.3074C66.3413 346.758 66.4805 346.989 66.725 347.172C66.9695 347.349 67.2819 347.437 67.6622 347.437C68.0425 347.437 68.3549 347.349 68.5994 347.172C68.8438 346.989 68.9831 346.758 69.017 346.48H69.4449C69.4245 346.935 69.2547 347.301 68.9355 347.58C68.6163 347.858 68.1919 347.998 67.6622 347.998ZM72.5038 348.629H73.9911L77.8722 353.682V348.629H79.2576V355.76H78.3L73.8892 349.953V355.76H72.5038V348.629ZM84.673 355.862C83.8241 355.862 83.0873 355.716 82.4625 355.424C81.8445 355.132 81.3691 354.711 81.0363 354.16C80.7036 353.61 80.5372 352.958 80.5372 352.205C80.5372 351.458 80.7036 350.809 81.0363 350.259C81.3691 349.702 81.8445 349.278 82.4625 348.986C83.0805 348.687 83.8105 348.537 84.6526 348.537C85.6577 348.537 86.4794 348.751 87.1178 349.179C87.7561 349.607 88.1331 350.194 88.2485 350.941H87.0465C86.9242 350.357 86.6594 349.909 86.2519 349.597C85.8444 349.278 85.3215 349.118 84.6832 349.118C83.8614 349.118 83.2197 349.39 82.7579 349.933C82.2961 350.469 82.0652 351.223 82.0652 352.194C82.0652 353.166 82.2927 353.923 82.7477 354.466C83.2095 355.009 83.8547 355.281 84.6832 355.281C85.0499 355.281 85.3827 355.244 85.6815 355.169C85.9803 355.087 86.2859 354.955 86.5983 354.772V352.541H84.1433V352.001H88.1059V354.802C87.7324 355.135 87.24 355.396 86.6288 355.587C86.0176 355.77 85.3657 355.862 84.673 355.862Z" fill="#4A3021"/>
<path d="M181.956 361.394H178.715L177.983 362.857H177.42L180.347 357.148H180.782L183.54 362.857H182.639L181.956 361.394ZM181.771 361.008L180.388 358.048L178.908 361.008H181.771ZM184.21 357.228H185.046V359.649H188.657V357.228H189.494V362.857H188.657V360.027H185.046V362.857H184.21V357.228ZM192.796 358.466H191.333V358.153C191.729 358.142 192.07 358.059 192.354 357.903C192.638 357.743 192.845 357.517 192.973 357.228H193.617V362.857H192.796V358.466ZM197.206 362.857C197.206 362.434 197.265 362.029 197.383 361.643C197.506 361.252 197.702 360.842 197.97 360.413C198.243 359.984 198.61 359.496 199.072 358.949C199.377 358.59 199.589 358.311 199.707 358.113C199.83 357.914 199.895 357.74 199.9 357.59H196.08V357.228H200.833C200.833 357.442 200.76 357.67 200.616 357.912C200.476 358.153 200.206 358.509 199.803 358.981C199.165 359.737 198.712 360.405 198.444 360.984C198.182 361.563 198.05 362.187 198.05 362.857H197.206Z" fill="#4A3021"/>
<path d="M62.6755 240.898C61.8559 240.399 61.3574 239.8 61.18 239.102C61.0026 238.404 61.1579 237.654 61.646 236.853C62.1229 236.07 62.7086 235.598 63.403 235.437C64.1019 235.279 64.8589 235.448 65.6739 235.945C66.3379 236.349 66.7931 236.818 67.0396 237.351C67.2862 237.884 67.2964 238.424 67.0702 238.97L66.4521 238.594C66.6141 238.153 66.6109 237.73 66.4426 237.326C66.2771 236.918 65.9653 236.574 65.5075 236.295C64.9122 235.933 64.3428 235.837 63.7991 236.008C63.2601 236.182 62.7827 236.61 62.3672 237.292C61.9432 237.988 61.7772 238.621 61.869 239.192C61.9636 239.758 62.3108 240.224 62.9106 240.589C63.3685 240.868 63.8132 240.988 64.2447 240.95C64.6762 240.911 65.0522 240.717 65.3727 240.366L65.9908 240.742C65.609 241.194 65.1247 241.433 64.5379 241.458C63.9511 241.484 63.3303 241.297 62.6755 240.898ZM70.0286 243.569L67.2607 241.883L65.8743 242.752L65.3935 242.459L70.8639 239.106L71.2348 239.332L70.6202 245.643L69.851 245.175L70.0286 243.569ZM70.0714 243.143L70.4297 239.896L67.6263 241.654L70.0714 243.143ZM73.2741 247.354C72.7338 247.025 72.329 246.643 72.0598 246.209C71.7905 245.775 71.6658 245.31 71.6857 244.814C71.7083 244.313 71.8786 243.801 72.1966 243.279C72.5089 242.766 72.8797 242.39 73.3089 242.149C73.7409 241.903 74.21 241.803 74.7163 241.848C75.2227 241.893 75.746 242.08 76.2863 242.409C76.8266 242.738 77.2305 243.116 77.498 243.542C77.7701 243.972 77.8962 244.435 77.8763 244.931C77.8592 245.423 77.6945 245.925 77.3821 246.438C77.0642 246.96 76.6878 247.346 76.2531 247.596C75.8211 247.841 75.3506 247.944 74.8414 247.904C74.3369 247.866 73.8144 247.683 73.2741 247.354ZM73.4749 247.024C74.0702 247.387 74.6447 247.479 75.1985 247.302C75.7523 247.124 76.2398 246.69 76.6609 245.999C77.0737 245.321 77.2291 244.7 77.1272 244.136C77.0326 243.569 76.6853 243.104 76.0855 242.738C75.4857 242.373 74.9117 242.274 74.3634 242.443C73.8152 242.611 73.3333 243.036 72.9177 243.719C72.4966 244.41 72.3342 245.042 72.4306 245.616C72.527 246.189 72.8751 246.659 73.4749 247.024ZM82.9316 247.003L80.8986 245.764L81.0994 245.435L85.8728 248.342L85.672 248.672L83.6459 247.438L80.9182 251.916L80.2039 251.481L82.9316 247.003ZM85.9375 255.067C85.3972 254.738 84.9924 254.357 84.7231 253.923C84.4539 253.489 84.3292 253.024 84.349 252.527C84.3717 252.026 84.542 251.515 84.8599 250.993C85.1723 250.48 85.5431 250.103 85.9723 249.862C86.4042 249.617 86.8734 249.517 87.3797 249.561C87.8861 249.606 88.4094 249.793 88.9497 250.122C89.49 250.451 89.8939 250.829 90.1614 251.256C90.4334 251.685 90.5595 252.148 90.5397 252.644C90.5226 253.136 90.3579 253.639 90.0455 254.151C89.7275 254.673 89.3512 255.059 88.9164 255.309C88.4845 255.555 88.0139 255.657 87.5048 255.617C87.0002 255.58 86.4778 255.396 85.9375 255.067ZM86.1383 254.738C86.7336 255.1 87.3081 255.193 87.8619 255.015C88.4157 254.838 88.9032 254.404 89.3243 253.712C89.7371 253.034 89.8925 252.413 89.7905 251.849C89.6959 251.283 89.3487 250.817 88.7489 250.452C88.149 250.087 87.575 249.988 87.0268 250.156C86.4786 250.325 85.9967 250.75 85.5811 251.432C85.16 252.123 84.9976 252.756 85.094 253.329C85.1904 253.903 85.5385 254.372 86.1383 254.738ZM91.5037 248.928C91.6668 248.877 91.7919 248.878 91.8789 248.931C91.9384 248.967 91.9767 249.012 91.9938 249.067C92.0137 249.117 92.0083 249.167 91.9776 249.217C91.9498 249.263 91.899 249.295 91.8253 249.312C91.7516 249.33 91.6274 249.349 91.4525 249.368L90.5804 249.439L90.3537 249.301L91.5037 248.928ZM89.6004 248.513L90.0812 248.806L90.2928 250.375L89.9562 250.17L89.6442 248.982L88.4452 249.25L88.1086 249.045L89.6004 248.513ZM91.8321 258.658C91.0125 258.159 90.514 257.56 90.3366 256.862C90.1592 256.164 90.3145 255.414 90.8026 254.613C91.2795 253.83 91.8652 253.358 92.5595 253.197C93.2585 253.039 94.0155 253.208 94.8305 253.704C95.4945 254.109 95.9497 254.577 96.1962 255.111C96.4428 255.644 96.453 256.184 96.2268 256.73L95.6087 256.354C95.7707 255.912 95.7675 255.49 95.5992 255.086C95.4337 254.677 95.1219 254.334 94.6641 254.055C94.0688 253.692 93.4994 253.597 92.9557 253.768C92.4167 253.942 91.9393 254.37 91.5238 255.052C91.0998 255.748 90.9338 256.381 91.0256 256.952C91.1202 257.518 91.4674 257.984 92.0672 258.349C92.5251 258.628 92.9698 258.748 93.4013 258.71C93.8328 258.671 94.2088 258.476 94.5293 258.126L95.1474 258.502C94.7656 258.954 94.2813 259.192 93.6945 259.218C93.1076 259.243 92.4869 259.057 91.8321 258.658ZM98.661 262.817C97.9467 262.382 97.5246 261.833 97.3948 261.17C97.2723 260.506 97.4524 259.777 97.9349 258.985C98.4174 258.193 98.9806 257.701 99.6246 257.51C100.276 257.316 100.959 257.437 101.673 257.872C102.383 258.305 102.799 258.853 102.921 259.518C103.051 260.181 102.875 260.908 102.392 261.7C101.91 262.492 101.345 262.987 100.698 263.183C100.054 263.374 99.3753 263.253 98.661 262.817ZM98.8367 262.529C99.3129 262.819 99.7972 262.854 100.29 262.632C100.787 262.414 101.247 261.957 101.671 261.261C102.095 260.565 102.29 259.946 102.256 259.404C102.226 258.865 101.974 258.451 101.497 258.161C101.021 257.871 100.535 257.835 100.038 258.053C99.5451 258.274 99.0868 258.733 98.6629 259.429C98.239 260.125 98.0417 260.742 98.0713 261.281C98.1053 261.823 98.3605 262.239 98.8367 262.529ZM105.687 261.862L104.437 261.1L104.6 260.832C104.945 261.03 105.279 261.136 105.602 261.151C105.929 261.161 106.222 261.076 106.482 260.896L107.032 261.231L104.103 266.038L103.403 265.612L105.687 261.862Z" fill="#4A3021"/>
<path d="M164.154 415.905C164.342 414.964 164.734 414.29 165.33 413.885C165.925 413.479 166.683 413.369 167.603 413.553C168.502 413.734 169.145 414.123 169.534 414.72C169.922 415.323 170.022 416.092 169.834 417.028C169.681 417.79 169.396 418.378 168.98 418.792C168.563 419.206 168.059 419.4 167.468 419.375L167.611 418.665C168.081 418.666 168.477 418.519 168.799 418.223C169.126 417.927 169.342 417.517 169.448 416.991C169.585 416.308 169.48 415.74 169.133 415.288C168.785 414.84 168.22 414.538 167.437 414.381C166.638 414.221 165.986 414.282 165.481 414.563C164.981 414.846 164.662 415.331 164.524 416.02C164.419 416.546 164.458 417.005 164.642 417.397C164.825 417.789 165.137 418.076 165.576 418.257L165.434 418.967C164.879 418.762 164.489 418.389 164.264 417.846C164.04 417.303 164.003 416.656 164.154 415.905ZM164.159 423.728L164.797 420.55L163.505 419.545L163.616 418.993L168.639 422.986L168.553 423.412L162.412 424.993L162.59 424.11L164.159 423.728ZM164.574 423.622L167.748 422.848L165.137 420.815L164.574 423.622ZM161.713 428.072C161.837 427.452 162.057 426.941 162.373 426.54C162.689 426.138 163.083 425.862 163.556 425.711C164.035 425.561 164.574 425.546 165.173 425.666C165.762 425.784 166.243 426.003 166.616 426.324C166.994 426.646 167.249 427.053 167.38 427.544C167.511 428.035 167.514 428.591 167.39 429.211C167.266 429.831 167.049 430.34 166.739 430.737C166.429 431.14 166.037 431.417 165.564 431.568C165.096 431.72 164.567 431.737 163.979 431.619C163.379 431.499 162.888 431.277 162.504 430.954C162.126 430.632 161.869 430.225 161.732 429.733C161.595 429.246 161.588 428.692 161.713 428.072ZM162.091 428.148C161.954 428.831 162.064 429.403 162.42 429.863C162.776 430.322 163.351 430.632 164.145 430.791C164.923 430.947 165.559 430.881 166.055 430.592C166.555 430.309 166.873 429.824 167.012 429.135C167.15 428.446 167.046 427.873 166.7 427.416C166.355 426.958 165.79 426.651 165.007 426.494C164.213 426.334 163.563 426.398 163.057 426.685C162.551 426.972 162.229 427.459 162.091 428.148ZM165.346 437.027L165.815 434.693L166.193 434.769L165.094 440.249L164.715 440.173L165.182 437.847L160.041 436.816L160.205 435.996L165.346 437.027ZM158.796 442.61C158.921 441.99 159.141 441.479 159.457 441.078C159.772 440.676 160.167 440.4 160.64 440.249C161.118 440.099 161.657 440.084 162.257 440.204C162.845 440.322 163.326 440.541 163.699 440.862C164.078 441.184 164.332 441.591 164.464 442.082C164.595 442.573 164.598 443.129 164.474 443.749C164.349 444.369 164.132 444.878 163.823 445.275C163.513 445.678 163.121 445.955 162.648 446.106C162.18 446.258 161.651 446.275 161.062 446.157C160.463 446.037 159.972 445.815 159.588 445.492C159.21 445.17 158.952 444.763 158.816 444.271C158.679 443.784 158.672 443.23 158.796 442.61ZM159.175 442.686C159.038 443.369 159.147 443.941 159.504 444.401C159.86 444.86 160.435 445.17 161.228 445.329C162.006 445.485 162.643 445.419 163.139 445.13C163.638 444.847 163.957 444.362 164.095 443.673C164.233 442.984 164.13 442.411 163.784 441.954C163.438 441.496 162.874 441.189 162.091 441.032C161.297 440.872 160.647 440.936 160.141 441.223C159.635 441.51 159.313 441.997 159.175 442.686ZM166.469 445.741C166.573 445.876 166.615 445.994 166.595 446.094C166.582 446.162 166.552 446.214 166.507 446.248C166.467 446.284 166.418 446.296 166.36 446.285C166.308 446.274 166.26 446.237 166.218 446.174C166.176 446.111 166.116 446.001 166.039 445.843L165.673 445.048L165.725 444.788L166.469 445.741ZM166.209 443.81L166.098 444.362L164.695 445.098L164.773 444.711L165.783 444.012L165.121 442.977L165.198 442.59L166.209 443.81ZM157.439 449.377C157.628 448.436 158.02 447.763 158.615 447.358C159.21 446.952 159.968 446.842 160.888 447.026C161.787 447.207 162.431 447.595 162.819 448.193C163.207 448.796 163.307 449.565 163.119 450.5C162.966 451.263 162.682 451.851 162.265 452.265C161.848 452.679 161.345 452.873 160.754 452.848L160.896 452.138C161.366 452.139 161.762 451.992 162.084 451.695C162.411 451.4 162.628 450.99 162.733 450.464C162.87 449.781 162.765 449.213 162.419 448.76C162.071 448.313 161.505 448.011 160.722 447.854C159.923 447.694 159.271 447.754 158.766 448.036C158.267 448.318 157.948 448.804 157.81 449.493C157.704 450.018 157.743 450.477 157.927 450.87C158.111 451.262 158.422 451.549 158.862 451.73L158.719 452.439C158.164 452.235 157.775 451.862 157.55 451.319C157.325 450.776 157.288 450.129 157.439 449.377ZM155.866 457.217C156.031 456.397 156.402 455.813 156.981 455.464C157.564 455.122 158.31 455.042 159.219 455.224C160.128 455.406 160.783 455.767 161.184 456.307C161.588 456.853 161.708 457.536 161.544 458.356C161.38 459.171 161.007 459.749 160.424 460.092C159.846 460.441 159.102 460.524 158.192 460.341C157.283 460.159 156.626 459.797 156.22 459.257C155.82 458.717 155.702 458.037 155.866 457.217ZM156.197 457.284C156.088 457.83 156.221 458.297 156.597 458.684C156.972 459.077 157.56 459.353 158.359 459.513C159.158 459.674 159.806 459.645 160.303 459.428C160.8 459.216 161.103 458.836 161.212 458.29C161.322 457.743 161.189 457.273 160.814 456.881C160.438 456.494 159.85 456.22 159.051 456.06C158.252 455.899 157.605 455.925 157.108 456.138C156.611 456.355 156.307 456.737 156.197 457.284ZM155.315 460.374C155.696 460.494 156.019 460.75 156.285 461.142C156.55 461.535 156.793 462.111 157.012 462.871C157.15 463.331 157.287 463.697 157.423 463.971C157.56 464.244 157.712 464.453 157.88 464.596C158.054 464.74 158.261 464.836 158.503 464.885C158.924 464.969 159.27 464.907 159.541 464.699C159.818 464.492 160.004 464.152 160.098 463.679C160.196 463.19 160.15 462.779 159.96 462.446C159.774 462.119 159.47 461.907 159.046 461.811L159.188 461.101C159.712 461.272 160.086 461.599 160.312 462.082C160.538 462.564 160.585 463.134 160.453 463.791C160.364 464.238 160.217 464.616 160.013 464.925C159.807 465.239 159.56 465.466 159.269 465.604C158.979 465.743 158.671 465.78 158.345 465.714C158.077 465.66 157.843 465.545 157.643 465.368C157.449 465.193 157.269 464.93 157.104 464.58C156.938 464.235 156.767 463.765 156.591 463.172C156.469 462.771 156.358 462.453 156.257 462.22C156.155 461.991 156.043 461.813 155.922 461.685C155.804 461.563 155.659 461.468 155.486 461.401L154.743 465.107L154.38 465.034L155.315 460.374Z" fill="#4A3021"/>
<path d="M229.083 499.828C230.054 499.426 230.88 499.333 231.562 499.55C232.243 499.767 232.754 500.287 233.095 501.109C233.45 501.966 233.469 502.735 233.154 503.417C232.841 504.092 232.217 504.623 231.281 505.011L229.215 505.866L228.145 503.28L227.572 503.517L227.437 503.19L228.009 502.953L227.062 500.665L229.083 499.828ZM231.237 504.611C231.896 504.338 232.318 503.928 232.504 503.382C232.694 502.833 232.634 502.182 232.322 501.429C232.029 500.72 231.634 500.257 231.137 500.039C230.639 499.816 230.053 499.844 229.379 500.123L227.982 500.701L228.782 502.633L230.357 501.981L230.493 502.308L228.917 502.96L229.84 505.189L231.237 504.611ZM234.883 497.844L232.684 498.755L232.536 498.398L237.7 496.26L237.848 496.617L235.656 497.524L237.662 502.369L236.889 502.689L234.883 497.844ZM241.26 496.745C241.686 496.569 242.087 496.487 242.463 496.499C242.845 496.509 243.178 496.612 243.462 496.808C243.749 496.997 243.965 497.267 244.111 497.619C244.261 497.98 244.3 498.341 244.228 498.702C244.155 499.057 243.98 499.385 243.704 499.685C243.426 499.98 243.064 500.219 242.618 500.404C241.85 500.722 241.161 500.746 240.55 500.477C239.938 500.202 239.462 499.656 239.124 498.839C238.888 498.269 238.785 497.734 238.816 497.234C238.845 496.729 239.002 496.287 239.286 495.908C239.57 495.53 239.97 495.234 240.485 495.02C240.832 494.877 241.171 494.8 241.504 494.79C241.836 494.78 242.137 494.835 242.408 494.955C242.681 495.069 242.9 495.242 243.066 495.475L242.405 495.748C242.163 495.472 241.887 495.302 241.576 495.239C241.269 495.169 240.944 495.204 240.602 495.346C240.255 495.49 239.989 495.707 239.802 495.999C239.62 496.289 239.526 496.63 239.52 497.021C239.514 497.413 239.602 497.829 239.785 498.27L239.837 498.396C239.876 498.043 240.022 497.722 240.273 497.432C240.525 497.142 240.853 496.913 241.26 496.745ZM242.486 500.085C242.936 499.898 243.241 499.618 243.4 499.245C243.557 498.866 243.542 498.452 243.355 498.001C243.169 497.55 242.886 497.247 242.508 497.09C242.128 496.928 241.712 496.941 241.261 497.127C240.815 497.312 240.514 497.593 240.357 497.971C240.206 498.348 240.224 498.764 240.413 499.219C240.601 499.675 240.881 499.98 241.253 500.134C241.624 500.288 242.035 500.271 242.486 500.085ZM247.71 498.296C246.937 498.616 246.245 498.633 245.633 498.346C245.024 498.053 244.542 497.478 244.188 496.621C243.833 495.764 243.768 495.019 243.993 494.386C244.222 493.746 244.722 493.266 245.495 492.946C246.263 492.628 246.951 492.616 247.56 492.909C248.172 493.196 248.655 493.767 249.01 494.624C249.365 495.481 249.431 496.229 249.207 496.867C248.982 497.5 248.483 497.976 247.71 498.296ZM247.581 497.984C248.096 497.771 248.41 497.4 248.522 496.872C248.639 496.342 248.542 495.7 248.23 494.947C247.918 494.194 247.533 493.672 247.076 493.38C246.623 493.085 246.139 493.045 245.624 493.258C245.109 493.471 244.793 493.843 244.676 494.373C244.564 494.901 244.664 495.542 244.975 496.295C245.287 497.048 245.669 497.571 246.122 497.865C246.579 498.158 247.066 498.197 247.581 497.984ZM250.572 490.844C251.34 490.526 252.03 490.504 252.643 490.779C253.254 491.048 253.728 491.592 254.067 492.409C254.302 492.979 254.406 493.516 254.377 494.021C254.346 494.521 254.189 494.961 253.905 495.34C253.62 495.718 253.221 496.014 252.706 496.228C252.364 496.369 252.024 496.446 251.687 496.458C251.354 496.468 251.052 496.416 250.778 496.303C250.508 496.183 250.29 496.006 250.124 495.773L250.785 495.5C251.025 495.771 251.299 495.942 251.607 496.012C251.919 496.08 252.246 496.044 252.588 495.902C252.935 495.758 253.202 495.541 253.388 495.249C253.575 494.957 253.669 494.616 253.67 494.227C253.676 493.835 253.588 493.419 253.406 492.978L253.378 492.912C253.328 493.24 253.174 493.547 252.916 493.834C252.655 494.116 252.327 494.339 251.931 494.503C251.505 494.679 251.101 494.762 250.719 494.752C250.343 494.74 250.011 494.639 249.724 494.45C249.44 494.255 249.225 493.981 249.08 493.629C248.93 493.268 248.892 492.909 248.965 492.554C249.036 492.194 249.211 491.866 249.489 491.571C249.766 491.271 250.127 491.029 250.572 490.844ZM251.929 494.121C252.38 493.934 252.681 493.653 252.833 493.277C252.985 492.9 252.966 492.484 252.778 492.029C252.589 491.573 252.309 491.268 251.938 491.114C251.566 490.96 251.155 490.977 250.705 491.163C250.254 491.35 249.95 491.633 249.793 492.011C249.635 492.384 249.648 492.796 249.835 493.247C250.022 493.698 250.305 494.004 250.685 494.166C251.069 494.32 251.483 494.305 251.929 494.121Z" fill="#4A3021"/>
<path d="M287.036 438.622C287.33 439.631 287.333 440.462 287.043 441.116C286.754 441.77 286.181 442.222 285.327 442.471C284.437 442.73 283.67 442.666 283.026 442.279C282.389 441.895 281.929 441.216 281.645 440.244L281.02 438.097L283.707 437.314L283.533 436.719L283.873 436.62L284.046 437.215L286.424 436.522L287.036 438.622ZM282.047 440.244C282.247 440.928 282.609 441.392 283.132 441.636C283.657 441.885 284.311 441.896 285.093 441.668C285.829 441.453 286.332 441.111 286.603 440.641C286.879 440.17 286.915 439.584 286.711 438.884L286.288 437.433L284.28 438.018L284.757 439.655L284.418 439.754L283.941 438.117L281.624 438.792L282.047 440.244ZM288.378 444.603L287.712 442.318L288.082 442.21L289.647 447.576L289.276 447.684L288.612 445.406L283.578 446.874L283.344 446.071L288.378 444.603ZM288.778 451.062C288.907 451.504 288.945 451.912 288.892 452.285C288.84 452.663 288.701 452.983 288.476 453.244C288.257 453.509 287.965 453.694 287.599 453.801C287.224 453.91 286.861 453.91 286.51 453.8C286.165 453.689 285.858 453.479 285.59 453.172C285.327 452.863 285.128 452.477 284.993 452.014C284.76 451.216 284.811 450.529 285.145 449.951C285.485 449.372 286.079 448.958 286.928 448.711C287.52 448.538 288.063 448.494 288.557 448.579C289.056 448.663 289.478 448.867 289.824 449.19C290.17 449.514 290.42 449.943 290.577 450.479C290.682 450.839 290.721 451.185 290.695 451.516C290.669 451.848 290.581 452.142 290.432 452.397C290.29 452.656 290.094 452.856 289.844 452.996L289.644 452.309C289.946 452.098 290.144 451.842 290.241 451.54C290.344 451.242 290.344 450.915 290.24 450.56C290.135 450.2 289.947 449.911 289.678 449.694C289.409 449.481 289.081 449.351 288.692 449.302C288.304 449.254 287.881 449.296 287.423 449.429L287.291 449.468C287.638 449.545 287.941 449.725 288.202 450.006C288.463 450.288 288.655 450.64 288.778 451.062ZM285.325 451.917C285.461 452.386 285.707 452.719 286.06 452.918C286.419 453.115 286.833 453.145 287.301 453.008C287.77 452.872 288.102 452.624 288.299 452.265C288.501 451.904 288.534 451.49 288.398 451.022C288.263 450.558 288.016 450.228 287.657 450.031C287.299 449.84 286.884 449.813 286.41 449.951C285.937 450.089 285.603 450.334 285.41 450.686C285.217 451.039 285.188 451.449 285.325 451.917ZM286.535 457.305C286.301 456.502 286.36 455.812 286.711 455.235C287.069 454.662 287.693 454.245 288.583 453.986C289.474 453.726 290.221 453.743 290.826 454.036C291.437 454.332 291.86 454.882 292.094 455.685C292.327 456.482 292.264 457.168 291.906 457.741C291.555 458.319 290.934 458.737 290.044 458.996C289.153 459.256 288.403 459.24 287.793 458.949C287.189 458.656 286.769 458.108 286.535 457.305ZM286.859 457.211C287.015 457.746 287.35 458.098 287.863 458.267C288.377 458.441 289.025 458.414 289.808 458.186C290.59 457.958 291.151 457.632 291.491 457.209C291.833 456.791 291.926 456.315 291.77 455.779C291.614 455.244 291.279 454.889 290.764 454.715C290.252 454.546 289.604 454.576 288.822 454.804C288.039 455.032 287.477 455.355 287.136 455.773C286.795 456.196 286.703 456.675 286.859 457.211ZM287.819 461.423C288.226 461.305 288.631 461.248 289.035 461.253C289.445 461.262 289.894 461.335 290.38 461.473C290.869 461.615 291.44 461.831 292.094 462.121C292.524 462.314 292.851 462.439 293.075 462.497C293.3 462.56 293.485 462.573 293.63 462.536L292.561 458.868L292.909 458.767L294.239 463.33C294.033 463.39 293.794 463.384 293.522 463.313C293.251 463.247 292.833 463.086 292.268 462.832C291.363 462.431 290.596 462.183 289.965 462.088C289.336 461.998 288.699 462.046 288.056 462.234L287.819 461.423Z" fill="#4A3021"/>
<path d="M181.607 238.612L182.532 238.612L184.774 243.366L187.189 238.615L187.736 238.615L184.829 244.323L184.395 244.323L181.607 238.612ZM188.689 238.615L189.525 238.616L189.522 244.245L188.686 244.245L188.689 238.615ZM189.103 245.427C188.98 245.427 188.878 245.387 188.798 245.307C188.723 245.231 188.685 245.135 188.685 245.017C188.685 244.899 188.723 244.802 188.798 244.727C188.879 244.652 188.98 244.615 189.104 244.615C189.227 244.615 189.326 244.653 189.401 244.728C189.482 244.803 189.522 244.899 189.522 245.017C189.522 245.135 189.481 245.232 189.401 245.307C189.326 245.387 189.227 245.427 189.103 245.427ZM191.045 238.617L191.889 238.617L195.313 242.986L195.315 238.619L196.023 238.619L196.02 244.249L195.602 244.249L191.752 239.349L191.75 244.246L191.042 244.246L191.045 238.617ZM197.21 238.62L198.046 238.62L198.045 241.041L201.656 241.043L201.657 238.622L202.494 238.623L202.491 244.252L201.654 244.252L201.656 241.421L198.045 241.419L198.043 244.25L197.207 244.249L197.21 238.62ZM175.207 248.608C176.258 248.609 177.057 248.84 177.603 249.301C178.15 249.763 178.423 250.438 178.423 251.328C178.422 252.256 178.146 252.974 177.593 253.483C177.046 253.987 176.266 254.238 175.253 254.238L173.017 254.237L173.018 251.438L172.399 251.438L172.399 251.084L173.018 251.084L173.02 248.607L175.207 248.608ZM175.365 253.852C176.078 253.852 176.625 253.635 177.006 253.201C177.393 252.767 177.586 252.143 177.586 251.328C177.587 250.561 177.399 249.982 177.024 249.59C176.649 249.194 176.097 248.995 175.368 248.994L173.856 248.994L173.855 251.085L175.56 251.086L175.56 251.439L173.855 251.438L173.853 253.851L175.365 253.852ZM183.156 252.778L179.915 252.777L179.183 254.24L178.62 254.24L181.55 248.531L181.984 248.531L184.74 254.243L183.839 254.242L183.156 252.778ZM182.971 252.392L181.59 249.432L180.108 252.391L182.971 252.392ZM180.336 247.188C180.133 247.048 180.031 246.922 180.031 246.809C180.031 246.75 180.052 246.702 180.095 246.665C180.144 246.622 180.208 246.6 180.288 246.6C180.449 246.601 180.591 246.67 180.715 246.81L181.848 248.049L181.566 248.049L180.336 247.188ZM187.549 248.615L188.393 248.615L191.817 252.984L191.819 248.617L192.527 248.617L192.524 254.247L192.106 254.247L188.256 249.347L188.254 254.245L187.546 254.244L187.549 248.615ZM197.725 252.786L194.484 252.784L193.751 254.248L193.188 254.247L196.119 248.539L196.553 248.539L199.308 254.25L198.408 254.25L197.725 252.786ZM197.54 252.4L196.158 249.44L194.677 252.398L197.54 252.4ZM195.082 246.544C195.109 246.351 195.181 246.201 195.299 246.094C195.423 245.986 195.57 245.933 195.742 245.933C195.833 245.933 195.921 245.949 196.007 245.981C196.093 246.014 196.208 246.065 196.353 246.134C196.466 246.188 196.559 246.231 196.634 246.263C196.709 246.29 196.782 246.304 196.852 246.304C196.953 246.304 197.042 246.269 197.117 246.199C197.197 246.13 197.259 246.033 197.302 245.91L197.471 245.99C197.423 246.205 197.342 246.368 197.229 246.481C197.117 246.593 196.975 246.649 196.803 246.649C196.717 246.649 196.632 246.633 196.546 246.601C196.46 246.569 196.35 246.518 196.216 246.448C196.098 246.389 195.999 246.343 195.919 246.311C195.838 246.279 195.763 246.263 195.693 246.263C195.592 246.263 195.5 246.295 195.42 246.359C195.34 246.423 195.283 246.512 195.251 246.624L195.082 246.544ZM196.288 248.089C195.896 248.088 195.585 247.989 195.355 247.791C195.13 247.587 195.009 247.311 194.993 246.962L195.275 246.962C195.302 247.198 195.403 247.386 195.58 247.525C195.762 247.665 195.998 247.735 196.288 247.735C196.577 247.735 196.811 247.665 196.988 247.526C197.17 247.387 197.275 247.199 197.302 246.963L197.583 246.963C197.567 247.312 197.443 247.588 197.213 247.792C196.987 247.99 196.679 248.089 196.288 248.089ZM199.981 248.621L200.825 248.622L204.249 252.99L204.251 248.624L204.959 248.624L204.956 254.253L204.538 254.253L200.688 249.354L200.686 254.251L199.978 254.251L199.981 248.621ZM209.111 254.336C208.457 254.336 207.896 254.223 207.43 253.997C206.964 253.767 206.607 253.434 206.361 253C206.115 252.565 205.992 252.048 205.992 251.447C205.992 250.847 206.113 250.329 206.355 249.895C206.596 249.461 206.945 249.129 207.401 248.899C207.856 248.663 208.398 248.545 209.025 248.546C209.787 248.546 210.411 248.713 210.899 249.045C211.392 249.373 211.689 249.826 211.791 250.405L211.067 250.404C210.971 249.933 210.748 249.571 210.4 249.318C210.052 249.061 209.601 248.932 209.049 248.932C208.358 248.931 207.816 249.154 207.424 249.598C207.033 250.038 206.837 250.652 206.836 251.44C206.836 252.239 207.034 252.858 207.43 253.298C207.832 253.732 208.395 253.95 209.119 253.95C209.457 253.95 209.765 253.915 210.044 253.846C210.323 253.771 210.588 253.656 210.84 253.501L210.841 251.675L208.871 251.674L208.871 251.312L211.678 251.314L211.677 253.557C211.36 253.809 210.982 254.002 210.542 254.136C210.108 254.27 209.631 254.336 209.111 254.336Z" fill="#4A3021"/>
<path d="M203.094 54.2849L205.716 54.2863C206.391 54.2866 206.927 54.4049 207.324 54.641C207.72 54.8771 207.919 55.1989 207.918 55.6063C207.918 55.9548 207.776 56.255 207.492 56.5068C207.207 56.7533 206.835 56.9113 206.374 56.9807C206.985 57.04 207.451 57.1823 207.773 57.4077C208.094 57.6277 208.255 57.9602 208.255 58.4052C208.254 58.893 208.053 59.2682 207.651 59.5307C207.249 59.7879 206.667 59.9162 205.906 59.9158L203.091 59.9144L203.094 54.2849ZM205.409 56.8033C205.95 56.8036 206.366 56.7073 206.655 56.5144C206.945 56.3162 207.09 56.0294 207.09 55.6542C207.09 55.3217 206.954 55.075 206.68 54.9141C206.407 54.7531 205.992 54.6724 205.434 54.6721L203.93 54.6714L203.929 56.8025L205.409 56.8033ZM205.986 59.5299C206.437 59.5301 206.788 59.4284 207.04 59.2248C207.292 59.0212 207.418 58.7344 207.418 58.3645C207.419 57.9731 207.245 57.6808 206.896 57.4876C206.553 57.2891 206.041 57.1896 205.36 57.1893L203.929 57.1885L203.928 59.5288L205.986 59.5299ZM209.455 54.2882L210.292 54.2887L210.289 59.9181L209.452 59.9177L209.455 54.2882ZM211.811 54.2895L216.58 54.292L216.58 54.678L212.648 54.6759L212.647 56.7106L216.121 56.7124L216.12 57.0904L212.646 57.0886L212.645 59.5334L216.578 59.5354L216.577 59.9214L211.808 59.9189L211.811 54.2895ZM213.075 52.167C213.097 51.974 213.166 51.8239 213.284 51.7168C213.408 51.6096 213.555 51.5561 213.727 51.5562C213.818 51.5562 213.909 51.5723 214 51.6045C214.091 51.6368 214.207 51.6878 214.346 51.7575C214.459 51.8112 214.552 51.8541 214.627 51.8863C214.702 51.9132 214.772 51.9266 214.836 51.9267C214.938 51.9267 215.029 51.8919 215.11 51.8223C215.19 51.7526 215.252 51.6561 215.295 51.5328L215.456 51.6134C215.359 52.0529 215.137 52.2726 214.788 52.2725C214.702 52.2724 214.616 52.2563 214.531 52.2241C214.445 52.1919 214.335 52.1409 214.201 52.0711C214.078 52.0067 213.979 51.9611 213.904 51.9342C213.829 51.902 213.756 51.8859 213.686 51.8859C213.579 51.8858 213.485 51.9179 213.405 51.9822C213.324 52.0465 213.268 52.1349 213.236 52.2475L213.075 52.167ZM213.984 52.4972L214.547 52.4975L215.543 53.7285L215.149 53.7283L214.265 52.8753L213.38 53.7273L212.986 53.7271L213.984 52.4972ZM217.403 54.2924L218.248 54.2928L221.671 58.6615L221.674 54.2946L222.381 54.295L222.378 59.9245L221.96 59.9243L218.11 55.0246L218.108 59.9222L217.4 59.9219L217.403 54.2924ZM227.9 54.2979C228.951 54.2984 229.749 54.5294 230.296 54.9908C230.843 55.4521 231.116 56.1278 231.115 57.0178C231.115 57.9453 230.838 58.6636 230.286 59.1727C229.739 59.6763 228.959 59.9279 227.945 59.9274L225.71 59.9262L225.711 57.1276L225.092 57.1272L225.092 56.7734L225.711 56.7737L225.712 54.2967L227.9 54.2979ZM228.058 59.5414C228.771 59.5418 229.318 59.3249 229.699 58.8909C230.085 58.4568 230.279 57.8323 230.279 57.0174C230.279 56.2507 230.092 55.6716 229.717 55.28C229.342 54.883 228.79 54.6844 228.061 54.684L226.549 54.6832L226.548 56.7741L228.252 56.775L228.252 57.1289L226.547 57.128L226.546 59.5406L228.058 59.5414ZM235.044 60.0115C234.412 60.0112 233.867 59.8956 233.412 59.6649C232.956 59.4341 232.608 59.1015 232.367 58.6671C232.126 58.2273 232.006 57.7018 232.006 57.0906C232.006 56.4902 232.127 55.9755 232.369 55.5468C232.61 55.1126 232.959 54.7831 233.415 54.5581C233.87 54.3332 234.415 54.2209 235.047 54.2212C235.68 54.2215 236.221 54.3344 236.672 54.5598C237.127 54.7852 237.476 55.1152 237.717 55.5496C237.958 55.9786 238.078 56.4934 238.078 57.0938C238.077 57.705 237.956 58.2304 237.715 58.6699C237.473 59.104 237.125 59.4363 236.669 59.6666C236.218 59.8969 235.677 60.0119 235.044 60.0115ZM235.044 59.6255C235.741 59.6259 236.28 59.4063 236.661 58.9669C237.042 58.5275 237.233 57.903 237.233 57.0934C237.234 56.2999 237.044 55.6886 236.663 55.2595C236.288 54.825 235.749 54.6076 235.047 54.6072C234.345 54.6069 233.803 54.821 233.422 55.2497C233.041 55.6785 232.851 56.2922 232.85 57.0911C232.85 57.9007 233.04 58.5254 233.42 58.9652C233.801 59.405 234.342 59.6251 235.044 59.6255ZM234.767 52.5081L235.33 52.5084L236.326 53.7394L235.932 53.7391L235.048 52.8862L234.163 53.7382L233.769 53.738L234.767 52.5081ZM239.118 54.3038L239.963 54.3042L243.386 58.6729L243.389 54.306L244.096 54.3064L244.094 59.9358L243.675 59.9356L239.826 55.036L239.823 59.9336L239.115 59.9332L239.118 54.3038ZM248.248 60.0184C247.594 60.0181 247.034 59.9052 246.567 59.6798C246.101 59.449 245.745 59.1164 245.498 58.682C245.252 58.2476 245.129 57.7302 245.129 57.1297C245.13 56.5292 245.25 56.0119 245.492 55.5778C245.733 55.1436 246.082 54.8114 246.538 54.5811C246.994 54.3454 247.535 54.2277 248.163 54.2281C248.924 54.2285 249.548 54.395 250.036 54.7277C250.529 55.055 250.827 55.5082 250.928 56.0873L250.204 56.0869C250.108 55.615 249.886 55.253 249.537 55.0008C249.189 54.7433 248.739 54.6144 248.187 54.6141C247.495 54.6137 246.953 54.836 246.562 55.2808C246.17 55.7202 245.974 56.334 245.974 57.1221C245.973 57.9209 246.171 58.5403 246.568 58.9801C246.97 59.4146 247.533 59.632 248.256 59.6324C248.594 59.6326 248.902 59.5979 249.181 59.5284C249.46 59.4534 249.725 59.3383 249.978 59.183L249.978 57.3574L248.008 57.3564L248.008 56.9945L250.815 56.996L250.814 59.2397C250.497 59.4915 250.119 59.6843 249.68 59.8181C249.245 59.9519 248.768 60.0187 248.248 60.0184Z" fill="#4A3021"/>
<path d="M142.163 511.422C143.202 511.269 144.026 511.381 144.634 511.758C145.242 512.135 145.611 512.764 145.74 513.644C145.875 514.562 145.706 515.313 145.233 515.897C144.766 516.475 144.03 516.837 143.028 516.985L140.816 517.309L140.409 514.54L139.797 514.63L139.745 514.28L140.358 514.19L139.998 511.739L142.163 511.422ZM143.083 516.586C143.789 516.483 144.298 516.189 144.612 515.704C144.931 515.218 145.031 514.572 144.913 513.766C144.801 513.007 144.532 512.461 144.103 512.129C143.675 511.791 143.099 511.674 142.378 511.78L140.882 512L141.186 514.069L142.872 513.821L142.924 514.171L141.237 514.419L141.587 516.806L143.083 516.586ZM152.942 509.84C152.997 510.211 152.921 510.545 152.715 510.841C152.515 511.136 152.216 511.355 151.82 511.5L152.083 513.291C152.197 514.065 152.08 514.689 151.732 515.163C151.383 515.631 150.748 515.933 149.825 516.069C148.902 516.204 148.203 516.098 147.729 515.75C147.26 515.396 146.969 514.832 146.855 514.058L146.378 510.803L147.205 510.682L147.71 514.119C147.797 514.713 148.004 515.146 148.331 515.418C148.658 515.69 149.137 515.779 149.768 515.687C150.389 515.596 150.817 515.376 151.053 515.027C151.295 514.677 151.371 514.2 151.282 513.595L150.778 510.158L151.605 510.036L151.778 511.214C151.982 511.086 152.129 510.905 152.219 510.67C152.314 510.434 152.343 510.188 152.306 509.933L152.942 509.84ZM159.46 508.794C159.509 509.134 159.449 509.443 159.279 509.723C159.113 509.997 158.863 510.215 158.53 510.378C158.79 510.751 158.961 511.214 159.042 511.766C159.131 512.37 159.088 512.908 158.913 513.378C158.737 513.842 158.441 514.222 158.023 514.516C157.611 514.81 157.092 515.002 156.466 515.094C155.84 515.186 155.285 515.151 154.801 514.989C154.316 514.827 153.923 514.549 153.621 514.154C153.319 513.754 153.123 513.252 153.035 512.647C152.947 512.053 152.992 511.526 153.168 511.067C153.344 510.602 153.641 510.225 154.059 509.936C154.477 509.647 155 509.457 155.625 509.365C156.209 509.279 156.73 509.303 157.188 509.437C157.652 509.569 158.036 509.805 158.341 510.145C158.532 510.009 158.668 509.826 158.748 509.598C158.834 509.368 158.859 509.132 158.823 508.888L159.46 508.794ZM156.41 514.712C157.1 514.611 157.601 514.315 157.914 513.825C158.226 513.335 158.324 512.689 158.207 511.888C158.091 511.103 157.814 510.526 157.375 510.157C156.941 509.782 156.376 509.645 155.682 509.747C154.987 509.849 154.482 510.14 154.168 510.619C153.853 511.099 153.754 511.734 153.87 512.524C153.988 513.325 154.267 513.916 154.707 514.296C155.147 514.675 155.715 514.814 156.41 514.712ZM154.046 508.239C153.824 508.131 153.705 508.021 153.689 507.91C153.68 507.851 153.694 507.801 153.731 507.757C153.773 507.708 153.833 507.677 153.913 507.666C154.072 507.642 154.223 507.691 154.365 507.811L155.667 508.871L155.388 508.912L154.046 508.239ZM159.665 508.854L160.501 508.731L164.524 512.554L163.89 508.234L164.591 508.131L165.408 513.701L164.994 513.762L160.472 509.475L161.183 514.321L160.482 514.423L159.665 508.854ZM169.53 513.177C168.883 513.272 168.312 513.242 167.818 513.087C167.323 512.927 166.922 512.65 166.615 512.256C166.308 511.862 166.111 511.368 166.024 510.774C165.936 510.18 165.981 509.65 166.156 509.185C166.332 508.721 166.629 508.341 167.046 508.047C167.463 507.747 167.981 507.552 168.602 507.461C169.355 507.351 169.997 507.424 170.528 507.682C171.064 507.934 171.424 508.339 171.609 508.898L170.893 509.003C170.729 508.55 170.456 508.224 170.075 508.025C169.692 507.821 169.228 507.759 168.682 507.84C167.997 507.94 167.494 508.239 167.171 508.736C166.848 509.228 166.743 509.863 166.858 510.643C166.974 511.434 167.26 512.017 167.716 512.395C168.177 512.766 168.766 512.899 169.482 512.794C169.816 512.745 170.116 512.666 170.382 512.556C170.647 512.442 170.893 512.289 171.119 512.099L170.854 510.292L168.905 510.579L168.852 510.22L171.629 509.813L171.955 512.033C171.679 512.328 171.333 512.574 170.917 512.77C170.507 512.966 170.045 513.102 169.53 513.177ZM127.759 523.642L128.586 523.521L128.937 525.916L132.51 525.392L132.159 522.997L132.986 522.875L133.803 528.445L132.976 528.567L132.565 525.766L128.992 526.29L129.403 529.091L128.576 529.212L127.759 523.642ZM137.608 527.968C136.685 528.104 135.987 527.997 135.513 527.65C135.044 527.296 134.753 526.732 134.639 525.957L134.161 522.703L134.989 522.581L135.493 526.019C135.58 526.613 135.788 527.046 136.115 527.318C136.442 527.589 136.921 527.679 137.552 527.586C138.173 527.495 138.601 527.275 138.837 526.926C139.078 526.577 139.155 526.099 139.066 525.495L138.562 522.057L139.389 521.936L139.867 525.19C139.98 525.965 139.863 526.589 139.515 527.062C139.167 527.531 138.531 527.833 137.608 527.968ZM135.204 521.111C134.982 521.003 134.863 520.893 134.847 520.782C134.838 520.723 134.852 520.672 134.889 520.629C134.931 520.58 134.991 520.549 135.071 520.537C135.23 520.514 135.381 520.562 135.523 520.682L136.825 521.743L136.546 521.784L135.204 521.111ZM140.564 521.763L141.4 521.641L145.423 525.464L144.789 521.143L145.49 521.041L146.307 526.611L145.893 526.671L141.371 522.385L142.082 527.23L141.381 527.333L140.564 521.763ZM150.429 526.087C149.782 526.182 149.211 526.152 148.717 525.997C148.222 525.836 147.821 525.559 147.514 525.165C147.207 524.772 147.01 524.278 146.923 523.683C146.835 523.089 146.88 522.56 147.055 522.095C147.231 521.631 147.528 521.251 147.945 520.957C148.362 520.657 148.88 520.462 149.501 520.371C150.254 520.26 150.896 520.334 151.427 520.592C151.963 520.844 152.323 521.249 152.508 521.807L151.792 521.912C151.628 521.46 151.355 521.134 150.974 520.935C150.591 520.731 150.127 520.669 149.581 520.749C148.896 520.85 148.393 521.148 148.07 521.646C147.747 522.137 147.642 522.773 147.757 523.553C147.873 524.343 148.159 524.927 148.615 525.305C149.076 525.676 149.665 525.809 150.381 525.704C150.715 525.655 151.015 525.576 151.281 525.466C151.546 525.351 151.792 525.199 152.018 525.008L151.753 523.202L149.804 523.488L149.751 523.13L152.528 522.723L152.854 524.943C152.578 525.238 152.232 525.484 151.816 525.68C151.406 525.876 150.944 526.011 150.429 526.087ZM154.833 519.67L155.748 519.535L158.658 523.912L160.355 518.859L160.896 518.78L158.853 524.851L158.423 524.914L154.833 519.67ZM168.078 517.726C168.132 518.098 168.056 518.431 167.851 518.727C167.65 519.022 167.352 519.242 166.956 519.387L167.218 521.177C167.332 521.951 167.215 522.575 166.867 523.049C166.519 523.518 165.883 523.819 164.96 523.955C164.037 524.09 163.339 523.984 162.865 523.636C162.396 523.283 162.104 522.718 161.991 521.944L161.513 518.69L162.341 518.568L162.845 522.006C162.932 522.6 163.139 523.033 163.466 523.304C163.794 523.576 164.273 523.666 164.904 523.573C165.525 523.482 165.953 523.262 166.189 522.913C166.43 522.563 166.506 522.086 166.418 521.481L165.913 518.044L166.741 517.923L166.914 519.1C167.117 518.973 167.264 518.791 167.354 518.556C167.449 518.32 167.478 518.074 167.441 517.82L168.078 517.726ZM174.595 516.681C174.645 517.02 174.585 517.33 174.414 517.609C174.248 517.883 173.999 518.101 173.665 518.264C173.926 518.638 174.097 519.1 174.177 519.652C174.266 520.257 174.223 520.794 174.048 521.264C173.873 521.729 173.576 522.108 173.159 522.402C172.746 522.696 172.227 522.889 171.602 522.98C170.976 523.072 170.42 523.037 169.936 522.875C169.452 522.713 169.059 522.435 168.757 522.04C168.454 521.64 168.259 521.138 168.17 520.533C168.083 519.939 168.127 519.412 168.304 518.953C168.48 518.488 168.776 518.112 169.195 517.823C169.613 517.534 170.135 517.343 170.761 517.251C171.344 517.166 171.865 517.19 172.324 517.323C172.788 517.455 173.172 517.691 173.476 518.032C173.668 517.895 173.804 517.713 173.884 517.484C173.969 517.255 173.994 517.018 173.958 516.774L174.595 516.681ZM171.545 522.598C172.235 522.497 172.736 522.202 173.049 521.711C173.362 521.221 173.46 520.575 173.342 519.774C173.227 518.989 172.95 518.412 172.511 518.043C172.076 517.668 171.512 517.531 170.817 517.633C170.122 517.735 169.617 518.026 169.303 518.506C168.989 518.985 168.889 519.62 169.005 520.411C169.123 521.212 169.402 521.802 169.842 522.182C170.283 522.562 170.851 522.7 171.545 522.598ZM174.801 516.74L175.636 516.617L179.66 520.441L179.026 516.12L179.726 516.017L180.543 521.587L180.129 521.648L175.607 517.361L176.318 522.207L175.618 522.31L174.801 516.74ZM184.665 521.064C184.018 521.158 183.448 521.128 182.953 520.973C182.458 520.813 182.057 520.536 181.75 520.142C181.443 519.748 181.246 519.254 181.159 518.66C181.072 518.066 181.116 517.536 181.292 517.072C181.467 516.607 181.764 516.228 182.181 515.933C182.598 515.634 183.117 515.438 183.737 515.347C184.491 515.237 185.133 515.311 185.664 515.569C186.199 515.821 186.559 516.226 186.744 516.784L186.028 516.889C185.864 516.436 185.591 516.11 185.21 515.912C184.828 515.708 184.364 515.646 183.817 515.726C183.133 515.826 182.629 516.125 182.307 516.622C181.983 517.114 181.879 517.75 181.993 518.529C182.109 519.32 182.395 519.904 182.852 520.281C183.313 520.652 183.901 520.785 184.617 520.68C184.952 520.631 185.252 520.552 185.517 520.443C185.782 520.328 186.028 520.175 186.255 519.985L185.99 518.179L184.04 518.465L183.988 518.107L186.765 517.699L187.09 519.919C186.814 520.214 186.468 520.46 186.053 520.657C185.642 520.852 185.18 520.988 184.665 521.064Z" fill="#4A3021"/>
<path d="M311.809 571.722C311.809 571.722 267.259 497.937 255.604 472.962C243.948 447.988 215.57 383.464 211.028 364.305C206.487 345.145 180.282 318.414 175.494 312.293C170.706 306.173 140.91 248.44 135.927 245.944C130.944 243.448 118.95 248.185 123.194 239.475C127.438 230.766 124.399 208.848 122.345 197.88C120.291 186.912 109.544 155.801 100.58 137.125C91.6153 118.449 85.3929 110.979 77.9227 106.743C70.4524 102.507 67.4644 99.5277 57.4985 102.015C47.5325 104.502 45.8007 94.5447 41.3186 93.3053C36.8365 92.0659 -8.97806 90.0626 -16.703 90.8096C-24.4278 91.5566 -61.9572 92.779 -68.7653 87.6687C-75.5734 82.5584 -83.9349 83.9591 -91.3627 89.6806C-98.7905 95.4021 -97.8652 95.7162 -104.945 93.7043C-112.025 91.6925 -122.432 95.7416 -129.096 85.7417C-135.76 75.7418 -142.865 77.1425 -150.318 76.9897C-157.771 76.8369 -171.99 79.1543 -177.559 72.1935C-183.128 65.2326 -225.207 33.3398 -225.207 33.3398" stroke="#4A3021" stroke-width="3.01579" stroke-miterlimit="10"/>
<path d="M-73.7031 571.18C-73.7031 571.18 -44.6795 563.888 -37.9648 557.513C-31.2501 551.138 -24.875 552.055 -16.5644 549.78C-8.25374 547.505 8.70706 541.011 13.2571 532.802C17.8071 524.593 29.3095 512.649 38.868 511.172C48.4265 509.695 66.7541 509.126 74.0375 498.77C81.321 488.413 95.438 490.009 102.272 487.955C109.105 485.901 123.103 479.534 126.287 473.524C129.47 467.514 143.927 459.942 148.485 455.884C153.044 451.826 161.218 420.417 155.471 396.156" stroke="#4A3021" stroke-width="3.01579" stroke-miterlimit="10"/>
<path d="M148.48 455.873C148.48 455.873 147.385 473.861 140.645 479.396C133.905 484.93 119.932 507.18 129.465 507.214C138.998 507.248 161.163 499.761 169.363 500.066C177.563 500.372 195.067 497.137 195.39 501.671" stroke="#4A3021" stroke-width="3.01579" stroke-miterlimit="10"/>
<path d="M195.176 500.111C195.176 500.111 211.907 522.437 222.918 516.104C233.928 509.772 266.975 500.12 267.204 495.137" stroke="#4A3021" stroke-width="2.54667" stroke-miterlimit="10"/>
<path d="M269.586 499.432C269.586 499.432 307.634 508.481 311.81 501.129C315.987 493.778 319.637 487.785 310.596 485.849C301.556 483.914 287.345 475.518 282.583 465.187C282.583 465.187 272.04 443.227 274.833 425.145C277.625 407.064 281.08 380.799 280.002 376.928C278.924 373.058 260.3 337.574 258.016 327.107C255.733 316.64 245.928 304.391 253.279 295.902C260.631 287.413 270.749 271.284 265.69 265.036C260.631 258.789 258.05 257.312 255.563 256.93C253.076 256.548 246.913 257.04 245.283 253.933C243.653 250.826 241.7 247.753 231.488 255.334" stroke="#4A3021" stroke-width="3.01579" stroke-miterlimit="10"/>
<path d="M174.664 312.386C183.719 309.981 202.423 306.614 204.8 312.386C207.771 319.602 221.353 362.895 223.475 362.47" stroke="#4A3021" stroke-width="0.502632"/>
<path d="M211.59 331.913C224.323 330.357 254.638 327.669 256.76 327.244" stroke="#4A3021" stroke-width="0.502632"/>
<path d="M207.77 320.454C220.503 318.898 251.12 315.785 253.242 315.785" stroke="#4A3021" stroke-width="0.502632"/>
<path d="M204.375 311.964C217.108 310.407 248.106 306.021 250.228 306.021" stroke="#4A3021" stroke-width="0.502632"/>
</g>
</g>
<defs>
<clipPath id="clip0_5632_14133">
<rect width="382" height="570" fill="white"/>
</clipPath>
<clipPath id="clip1_5632_14133">
<rect width="668.924" height="573" fill="white" transform="translate(-223.461)"/>
</clipPath>
</defs>
</svg>
