<svg width="566" height="598" viewBox="0 0 566 598" fill="none" xmlns="http://www.w3.org/2000/svg">
<path d="M281.598 596.589C281.598 596.589 169.447 600.309 150.85 592.339C132.252 584.368 89.5391 566.604 81.4118 554.033C73.2846 541.462 43.3478 495.633 37.4305 495.633C31.5131 495.633 29.4964 496.285 27.9024 492.01C26.3083 487.735 25.8615 479.934 19.4491 473.364C13.0366 466.795 7.62651 464.488 7.37291 453.113C7.11931 441.737 9.41378 428.091 13.737 418.768C18.0603 409.445 30.692 393.009 35.6432 389.592C36.09 385.269 24.038 333.861 21.9851 327.038C22.2145 324.538 28.1318 315.891 28.1318 309.515C28.1318 303.139 21.9851 299.733 31.9962 296.787C42.0073 293.84 66.7997 283.817 69.9878 281.993C73.1759 280.17 74.0816 277.163 67.0291 274.265C59.9766 271.366 48.8303 268.577 47.7073 258.107C46.5842 247.637 41.7899 207.145 41.7899 206.469C41.7899 205.793 41.7899 146.644 36.7904 142.321C31.7909 137.997 13.3506 120.994 9.24471 112.058C5.13882 103.121 -3.48355 91.5887 1.51597 84.2826C6.5155 76.9766 23.3497 33.3213 31.7667 32.4156C40.1838 31.5099 100.021 16.4872 105.25 28.3218C110.479 40.1564 111.397 51.0733 121.625 48.1146C131.854 45.156 145.065 54.4788 146.2 51.7375C147.336 48.9962 140.971 12.1519 138.955 7.84068C143.278 5.09939 149.642 5.32875 159.424 6.69336C169.205 8.05796 185.363 0.0998237 190.592 0.0998237C195.821 0.0998237 217.438 -1.49427 219.491 8.05797C221.543 17.6102 223.113 20.3515 220.855 26.0394C218.597 31.7272 214.938 40.1322 219.032 45.1438C223.125 50.1554 223.355 62.6543 221.99 66.5308C220.626 70.4072 236.095 77.9064 234.96 82.0002C233.825 86.0941 226.507 85.4058 227.908 92.6878C229.308 99.9697 235.153 104.969 241.554 108.616C247.954 112.263 247.918 123.627 252.929 128.409C257.941 133.191 274.993 130.22 279.086 138.637C283.18 147.055 289.955 152.742 295.462 156.836C300.968 160.93 306.837 171.4 314.783 173.9C322.73 176.4 334.347 178.223 329.275 185.046C324.203 191.869 313.576 202.569 316.088 205.576C318.6 208.583 320.858 214.669 304.483 211.71C288.107 208.752 271.72 204.211 263.991 211.034C256.262 217.857 248.522 216.492 245.334 216.939C242.145 217.386 231.229 237.469 233.511 248.337C235.793 259.206 232.146 259.942 238.969 263.348C245.792 266.753 247.157 278.141 238.281 280.641C229.405 283.141 226.205 286.099 223.5 296.111C220.795 306.122 215.988 332.049 217.583 342.978C219.177 353.907 220.988 370.27 228.958 383.24C236.929 396.21 242.145 403.709 246.698 408.95C251.251 414.191 260.574 423.441 269.22 423.961C267.397 428.054 262.168 435.107 263.762 444.2C265.356 453.294 262.168 466.046 256.021 466.275C249.874 466.505 239.646 475.828 244.428 484.016C249.21 492.203 250.562 507.226 246.698 511.791C242.834 516.356 237.375 521.802 238.51 525.666C233.511 522.937 226.676 515.208 227.364 521.343C228.053 527.478 227.135 535.001 223.041 536.812C223.5 539.095 228.958 539.771 230.552 540.23C228.499 542.053 229.405 545.688 238.281 550.47C247.157 555.253 246.239 553.647 253.751 557.294C261.262 560.941 278.772 561.387 281.055 573.439C282.418 581.083 282.601 588.89 281.598 596.589Z" fill="white"/>
<path d="M290.332 494.91C290.574 491.287 292.059 481.529 301.201 476.518C304.534 471.844 315.692 470.021 312.311 465.178C308.096 461.628 304.317 465.806 298.532 465.178C292.748 464.55 290.526 464.538 283.413 458.319C275.153 453.356 284.306 466.978 279.198 468.535C274.09 470.093 269.187 478.1 274.754 479.658C280.321 481.215 281.867 479.211 283.207 486.094C284.415 492.06 285.514 495.369 288.69 496.141C288.881 496.186 289.079 496.188 289.27 496.148C289.461 496.107 289.642 496.026 289.798 495.908C289.955 495.791 290.084 495.641 290.176 495.468C290.268 495.296 290.322 495.105 290.332 494.91Z" fill="white"/>
<path d="M312.306 508.638C312.306 508.638 315.784 514.23 321.966 512.901C326.652 511.694 328.886 522.743 340.588 521.681C343.788 521.801 348.57 527.803 353.872 529.397C356.287 527.803 349.041 520.087 349.041 514.495C349.041 508.904 346.119 508.904 342.931 506.779C339.743 504.653 342.013 499.859 335.419 501.719C328.826 503.579 324.829 504.919 320.578 505.45C316.327 505.982 310.204 505.462 312.306 508.638Z" fill="white"/>
<path d="M406.055 498.979C406.055 498.979 400.271 511.924 406.055 515.354C411.84 518.784 413.241 521.948 419.725 513.53C421.428 510.608 420.607 498.628 417.974 498.979C415.342 499.329 414.484 506.091 412.552 504.34C410.62 502.589 407.359 495.356 406.055 498.979Z" fill="white"/>
<path d="M477.775 524.339C477.775 524.339 464.491 526.355 469.672 537.236C471.882 540.001 476.676 547.742 487.001 544.059C497.326 540.376 501.19 536.318 505.236 541.837C509.282 547.356 510.066 550.689 512.059 547.742C514.052 544.795 515.199 541.1 512.059 539.289C508.919 537.477 507.639 537.997 506.721 530.256C503.763 529.7 500.261 532.671 497.688 531.174C495.116 529.676 491.047 524.544 486.446 524.363C481.844 524.182 477.775 524.339 477.775 524.339Z" fill="white"/>
<path d="M335.424 427.139C339.303 426.836 343.198 427.479 346.773 429.012C350.349 430.546 353.499 432.924 355.954 435.943C364.48 446.34 362.62 451.642 373.549 453.26C384.478 454.878 385.806 457.451 390.069 458.296C394.332 459.141 399.138 455.132 402.338 460.458C405.538 465.783 403.932 477.521 410.333 483.125C416.733 488.728 427.928 502.881 438.047 501.239C448.167 499.596 455.497 505.526 456.162 501.371C456.162 498.425 453.746 495.623 456.162 495.189C458.577 494.754 459.591 499.633 462.948 498.425C464.857 497.809 467.042 491.385 459.591 486.131C452.14 480.878 448.203 482.509 449.23 473.729C450.256 464.95 452.007 463.211 459.893 456.207C467.779 449.203 473.322 445.845 475.653 442.633C477.983 439.421 481.497 433.878 482.367 432.851C483.236 431.825 481.932 441.462 485.144 444.529C487.185 446.86 484.118 450.374 480.471 452.85C476.824 455.325 465.98 462.341 470.399 466.568C474.819 470.795 475.23 469.49 482.947 469.78C490.663 470.07 488.985 468.573 496.532 473.138C499.745 474.889 501.785 478.39 508.355 475.625C514.924 472.86 522.653 468.379 525.865 467.739C529.077 467.099 538.714 464.382 537.941 469.345C537.169 474.309 537.495 474.454 532.978 474.743C528.462 475.033 526.264 479.127 520.902 480.299C515.54 481.47 515.359 485.407 521.928 487.013C528.498 488.619 539.741 493.582 540.465 488.027C541.19 482.472 537.543 477.666 541.202 475.951C544.861 474.236 550.247 476.386 554.631 472.328C559.014 468.271 564.557 470.287 565.717 467.945C566.876 465.602 564.509 454.661 558.278 452.91C552.046 451.159 543.678 453.634 545.863 446.63C548.049 439.626 548.061 437.138 546.455 432.139C544.849 427.139 550.682 425.859 552.88 422.357C555.077 418.855 556.382 405.559 553.749 401.332C551.116 397.106 547.325 394.027 544.257 395.79C541.19 397.553 542.361 403.663 538.28 400.62C534.198 397.577 532.58 399.75 530.973 397.42C529.367 395.089 528.788 385.44 523.969 383.544C519.151 381.648 517.11 383.834 516.385 386.757C515.661 389.679 515.069 394.932 512.763 397.625C510.456 400.318 506.35 407.286 507.509 409.001C508.669 410.716 511.313 412.805 504.889 416.017C498.464 419.23 494.226 419.23 490.869 418.203C487.511 417.177 486.497 405.801 486.497 401.417C486.497 397.033 484.154 400.21 478.756 397.034C473.358 393.858 470.001 392.203 471.16 385.356C472.32 378.509 473.503 375.864 468.685 375.429C463.866 374.994 463.432 373.533 458.468 375.429C453.505 377.325 450.293 375.284 446.489 375.574C442.685 375.864 443.433 381.999 432.77 380.827C422.107 379.656 416.564 383.17 413.207 377.325C409.85 371.48 408.376 371.058 404.162 368.872C399.947 366.686 397.882 366.686 395.105 362.157C392.327 357.629 388.245 359.537 388.692 362.894C389.139 366.251 389.272 368.727 385.48 372.084C381.688 375.441 385.48 381.141 380.215 379.535C374.95 377.929 364.31 379.245 360.953 382.602C357.596 385.959 355.398 386.829 352.923 385.658C350.447 384.486 353.647 395.584 347.078 393.543C340.508 391.503 340.219 392.674 337.308 385.513C334.398 378.352 338.902 373.437 336.427 373.545C333.951 373.654 335.75 378.376 330.618 374.862C325.486 371.347 319.641 364.5 315.112 367.555C310.584 370.611 302.71 375.152 302.71 378.654C302.71 382.156 299.932 386.974 306.647 387.409C313.361 387.844 322.853 383.617 324.894 390.621C326.935 397.625 323.288 408.433 326.355 412.962C329.422 417.491 329.519 428.419 335.424 427.139Z" fill="white"/>
</svg>
