<svg width="526" height="376" viewBox="0 0 526 376" fill="none" xmlns="http://www.w3.org/2000/svg">
<path d="M43.9032 372.403C43.9032 372.403 89.2932 193.113 136.193 162.853C142.193 158.943 149.993 153.683 166.823 152.473C166.823 157.103 164.723 160.133 163.243 162.823C162.763 163.683 163.953 165.453 164.463 164.603C166.023 161.983 173.463 150.603 179.643 148.073C186.453 145.263 196.473 133.643 234.143 138.453C250.143 141.653 256.583 136.043 266.143 132.453C275.703 128.863 281.993 131.073 286.833 129.383C291.673 127.693 321.833 95.0332 356.183 103.253C390.533 111.473 422.183 117.373 422.583 132.763C422.983 148.153 426.803 150.673 424.063 153.203C421.323 155.733 421.533 159.113 429.333 161.003C437.133 162.893 444.723 165.003 443.243 160.793C441.763 156.583 445.133 105.273 466.313 96.3532C477.743 93.2832 486.943 94.9632 490.313 100.253C493.683 105.543 497.843 111.683 502.583 107.503C507.323 103.323 508.433 98.5832 507.323 93.0132C506.253 87.6932 517.323 33.7732 525.663 19.0132C525.769 18.8261 525.82 18.6122 525.807 18.3973C525.795 18.1824 525.722 17.9755 525.595 17.8014C525.468 17.6274 525.294 17.4934 525.094 17.4157C524.893 17.338 524.674 17.3198 524.463 17.3632C514.823 19.5632 484.463 35.0932 479.723 33.3632C474.423 31.4132 425.363 -2.86683 416.163 0.193165C406.963 3.25317 323.883 29.4233 320.723 34.5633C317.563 39.7033 306.483 78.0733 296.193 84.7933C285.903 91.5133 240.033 125.923 232.123 120.793C224.213 115.663 219.473 110.903 208.003 109.323C196.533 107.743 188.763 91.6232 166.873 86.3832C154.873 83.3832 116.523 88.5833 113.873 105.933C113.723 110.153 113.253 119.223 107.933 126.413C102.613 133.603 101.213 156.583 96.8432 160.953C92.4732 165.323 9.46321 226.293 12.5832 235.363C15.7032 244.433 23.9932 253.183 21.3432 263.023C18.6932 272.863 -5.37683 326.503 1.10317 336.023C7.58317 345.543 22.7632 367.303 25.6132 370.473C31.5032 376.943 42.9732 375.953 43.9032 372.403Z" fill="white"/>
</svg>
