<svg width="382" height="570" viewBox="0 0 382 570" fill="none" xmlns="http://www.w3.org/2000/svg">
<g clip-path="url(#clip0_5632_14133)">
<rect width="382" height="570" fill="#DBDBDB"/>
<g clip-path="url(#clip1_5632_14133)">
<path d="M-223.477 -2.11328V568.731H434.346C434.346 568.731 422.295 528.789 428.511 519.534C425.074 519.399 421.24 516.756 419.222 515.962C417.203 515.168 415.118 506.825 408.506 501.269C401.894 495.712 384.481 484.802 379.955 481.905C375.429 479.009 351.945 465.456 343.585 456.412C335.225 447.368 321.418 434.456 307.628 409.604C293.839 384.752 275.067 357.451 270.321 332.312C265.575 307.173 263.759 301.068 267.154 291.568C270.549 282.068 272.575 270.989 278.461 270.989C284.347 270.989 285.698 278.639 288.088 277.938C290.478 277.237 291.322 273.573 294.143 274.138C296.963 274.704 298.221 276.672 300.468 275.549C302.714 274.425 306.091 267.67 310.601 267.391C315.11 267.113 320.168 267.67 321.857 270.625C323.546 273.581 323.825 278.639 326.924 277.094C330.023 275.549 331.281 274.138 330.58 269.781C329.879 265.424 328.326 261.759 332.691 260.492C337.057 259.225 339.861 257.9 340.984 255.611C342.107 253.323 349.428 256.456 351.539 254.868C353.651 253.28 355.897 254.589 358.295 252.757C360.693 250.924 360.406 250.089 355.061 246.567C349.716 243.046 347.883 234.897 346.76 231.519C345.637 228.141 341.279 224.764 338.18 225.895C335.081 227.027 330.302 230.396 331.011 234.61C331.72 238.824 333.679 245.022 330.589 246.567C327.498 248.113 324.678 249.801 321.165 246.145C317.652 242.489 319.054 239.955 314.274 237.143C309.495 234.331 306.395 231.519 300.628 234.331C294.86 237.143 293.737 237.709 290.782 232.929C287.826 228.15 284.736 219.849 280.091 217.029C275.447 214.208 270.523 212.105 268.412 213.093C266.301 214.081 262.645 218.017 261.1 219.283C259.554 220.55 254.91 219.705 253.5 220.55C252.089 221.394 250.544 225.186 250.265 227.162C249.987 229.138 248.855 234.331 246.043 235.606C243.231 236.881 239.431 242.075 239.71 244.329C239.988 246.584 234.93 245.174 233.528 246.44C232.127 247.707 228.74 252.909 230.851 254.04C231.777 254.558 232.839 254.781 233.895 254.68C234.951 254.579 235.952 254.159 236.763 253.475C238.029 252.217 242.952 252.352 243.653 254.741C244.354 257.131 248.72 257.697 252.655 258.263C256.59 258.828 261.944 261.218 260.956 266.564C259.968 271.909 260.111 280.919 257.435 279.923C254.758 278.926 253.5 271.343 253.5 269.654C253.5 267.965 250.265 268.244 248.289 271.622C246.322 268.244 248.855 263.887 246.187 263.743C243.518 263.6 242.387 267.265 242.53 270.642C242.674 274.02 236.898 278.935 236.475 278.935C236.053 278.935 234.229 275.143 233.528 277.246C232.827 279.348 235.775 281.189 232.118 281.612C228.462 282.034 224.518 282.034 224.805 284.28C225.092 286.526 226.494 293.282 224.24 295.68C221.985 298.078 217.484 302.571 208.769 301.017C200.055 299.463 181.899 293.003 170.085 282.591C158.271 272.179 151.102 262.764 145.757 251.929C140.411 241.095 139.989 235.758 139.989 232.381C139.989 229.003 144.068 227.035 147.724 229.003C151.381 230.97 153.635 230.692 155.181 227.601C156.726 224.51 156.304 222.256 154.759 219.444C153.213 216.632 149.971 210.999 154.471 207.486C158.972 203.973 159.682 202.985 164.183 206.076C168.684 209.167 170.372 209.31 171.073 207.621C171.483 206.497 171.513 205.269 171.157 204.127C170.802 202.984 170.081 201.99 169.106 201.297C166.716 199.608 170.651 201.575 170.651 196.508C170.651 191.442 168.962 176.96 175.008 176.115C175.008 176.115 179.932 177.382 180.776 174.148C181.62 170.913 186.746 175.701 188.731 173.987C190.715 172.273 193.071 170.821 194.642 168.566C196.212 166.311 204.581 165.585 208.828 166.489C213.076 167.392 215.331 159.733 213.16 156.735C210.99 153.737 210.087 156.465 202.233 150.233C201.237 149.87 198.526 149.777 199.43 153.121C197.268 153.484 195.098 152.395 192.928 153.754C190.757 155.114 191.306 158.086 187.861 157.368C184.416 156.651 181.105 154.928 177.66 150.681C177.119 149.777 175.583 153.484 172.424 150.14C169.266 146.796 168.54 143.731 166.277 144.364C164.014 144.997 159.411 145.985 160.594 150.41C161.219 151.677 161.134 153.214 157.427 152.488C153.72 151.761 152.825 151.643 151.381 148.696C149.118 148.156 150.747 149.144 144.963 149.236C139.179 149.329 141.349 150.081 139.364 151.314C137.38 152.547 134.847 155.469 130.244 150.233C129.163 148.966 128.8 147.97 125.009 146.526C121.217 145.082 122.298 147.252 115.973 141.29C109.648 135.329 111.008 134.737 107.698 135.759C104.387 136.781 72.611 84.2987 72.611 84.2987L51.8969 51.1543C51.8969 51.1543 48.519 46.6956 55.2239 45.885C57.1408 46.0876 53.7209 31.8925 48.9498 26.3952C47.3622 25.2974 50.5203 24.8836 49.7012 23.617C48.8821 22.3503 48.6626 21.7592 46.8723 22.0632C45.0821 22.3672 42.8612 22.2827 40.1168 17.4525C37.3723 12.6223 37.364 12.0987 35.9537 12.8418C34.5435 13.585 30.0426 15.0712 30.7519 19.3863C31.4613 23.7014 33.1249 30.533 32.3818 32.4667C31.6386 34.4005 35.6581 33.4378 35.6581 33.4378C35.6581 33.4378 38.6306 38.3441 34.3914 40.4214C30.1523 42.4987 22.1217 48.3761 9.43817 45.2347C-3.24539 42.0934 -11.2085 38.2681 -10.0769 46.5774C-10.136 47.5063 -4.54582 52.8432 -10.0769 56.5334C-15.608 60.2236 -14.2992 61.0934 -18.7578 61.3467C-23.2165 61.6001 -23.4614 65.3325 -25.3867 65.4338C-26.861 65.5597 -28.3418 65.5908 -29.8201 65.5267C-31.9396 65.4338 -29.8201 62.7316 -25.1925 61.0934C-20.565 59.4551 -18.437 59.3623 -17.3983 56.9556C-16.3596 54.549 -13.2521 52.4294 -13.9277 50.9854C-14.6032 49.5414 -16.5285 51.0783 -17.6854 52.2352C-18.8423 53.392 -20.2187 57.1498 -22.0174 55.6129C-23.8161 54.076 -21.536 51.568 -17.9725 49.0685C-14.4089 46.5689 -10.9467 44.7365 -10.8454 41.5614C-10.7441 38.3863 -12.1965 37.9979 -15.76 36.6467C-19.3236 35.2956 -31.5511 23.7436 -31.8045 19.1161C-32.0578 14.4885 -30.5547 14.6912 -33.7298 13.9227C-36.9049 13.1543 -37.4876 13.5343 -40.2827 10.1649C-43.0778 6.79559 -43.365 12.0903 -43.2636 13.053C-43.1623 14.0156 -44.9019 15.9409 -51.0663 11.2205C-57.2307 6.50003 -58.6663 6.02714 -61.1996 3.03781C-63.733 0.0484762 -67.2711 0.504493 -68.3267 1.78805C-69.3822 3.0716 -67.9467 5.16585 -70.6405 5.35163C-72.6663 5.44173 -74.6962 5.34275 -76.7036 5.05604C-77.9618 4.96316 -78.0547 1.2054 -73.9169 0.436958C-69.7791 -0.331487 -72.2787 -2.09638 -72.2787 -2.09638L-223.477 -2.11328Z" fill="white"/>
<path d="M216.867 150.538C216.867 150.538 226.08 161.76 226.747 156.398C227.414 151.036 232.658 148.064 227.422 142.845C222.187 137.626 220.886 137.128 219.881 141.156C218.877 145.184 214.942 148.308 216.867 150.538Z" fill="white"/>
<path d="M-81.299 567.151C-81.299 567.151 -52.2163 551.529 -48.6528 547.045C-45.0892 542.561 -32.8786 536.836 -25.0083 535.594C-17.1381 534.353 -9.53806 532.504 -5.5185 528.949C-1.49895 525.393 5.00323 528.172 5.93211 530.181C6.861 532.191 13.5321 536.219 17.2223 537.452C20.9126 538.685 27.5837 540.83 32.5321 538.381C37.4806 535.932 43.0539 528.02 47.0734 528.788C51.093 529.556 58.0513 531.887 61.6148 531.575C65.1784 531.262 72.753 529.565 75.5397 524.152C78.3264 518.739 81.8223 510.54 85.521 510.219C89.2197 509.898 93.8726 508.952 95.6543 511.384C97.4361 513.816 104.183 521.061 105.399 528.045C106.615 535.028 119.932 511.806 122.204 510.675C124.475 509.543 126.747 506.613 127.887 502.881C129.027 499.148 127.726 491.844 131.265 493.794C134.803 495.745 141.17 498.667 143.441 495.745C145.713 492.823 149.125 489.251 151.557 490.873C153.989 492.494 155.129 488.761 155.289 487.621C155.449 486.481 160.288 487.25 161.817 488.626C163.345 490.003 163.657 486.684 165.642 485.434C167.626 484.185 169.619 479.143 176.62 477.159C183.62 475.174 191.448 464.923 191.6 463.707C191.752 462.491 194.353 463.394 196.954 461.562C199.555 459.729 203.22 456.208 199.707 449.022C196.194 441.836 202.46 440.459 203.684 440.459C204.909 440.459 208.573 441.076 208.877 442.148C209.181 443.221 213.007 441.54 213.944 438.483C214.881 435.426 220.978 431.145 222.051 430.993C223.123 430.841 220.826 426.399 221.282 423.038C221.738 419.677 222.203 420.285 220.362 417.077C218.521 413.868 225.429 409.477 225.429 409.477L226.501 411.613C226.501 411.613 221.299 413.302 221.755 414.822C222.211 416.342 224.052 420.328 223.444 423.266C222.836 426.205 225.741 428.164 224.213 430.605C222.684 433.045 219.011 434.43 217.947 435.502C216.883 436.575 214.89 441.312 212.593 443.102C210.296 444.893 207.526 446.007 206.783 444.327C206.04 442.646 205.854 441.287 203.819 442.14C201.784 442.993 199.749 443.525 199.884 445.036C200.019 446.548 200.931 448.118 201.522 449.436C202.113 450.753 202.51 450.88 202.367 454.224C202.223 457.568 201.717 459.29 200.332 460.793C198.947 462.297 192.85 465.328 191.727 466.443C189.836 468.469 188.081 470.619 186.474 472.877C184.701 475.411 184.313 476.036 182.539 476.559C180.542 477.039 178.585 477.674 176.687 478.459C174.154 479.574 173.208 483.188 170.911 484.244C168.614 485.299 165.456 486.574 165.456 488.331C165.456 490.087 164.933 491.531 163.362 491.134C161.791 490.737 161.521 489.032 159.815 489.032C158.109 489.032 157.772 490.78 156.201 492.604C154.63 494.428 154.512 493.017 152.519 492.604C150.526 492.19 146.279 495.272 145.037 496.716C143.796 498.16 142.8 498.692 138.594 498.228C134.389 497.763 132.16 495.145 131.501 496.066C130.842 496.986 130.91 501.133 130.327 502.627C129.745 504.122 127.693 507.229 126.949 508.741C126.206 510.253 123.403 512.347 122.085 513.597C120.768 514.846 117.863 519.381 116.309 521.475C114.756 523.569 110.398 530.283 107.705 531.203C105.011 532.124 104.031 532.115 103.111 528.113C102.19 524.11 101.135 522.007 97.529 518.131C93.9232 514.255 96.8027 512.879 92.9943 512.414C89.1859 511.95 87.4801 510.447 84.913 513.791C82.3459 517.135 79.7956 523.189 76.5107 526.204C73.2258 529.219 73.6228 531 69.2823 531.853C64.9419 532.706 60.8379 535.4 56.2188 533.627C51.5997 531.853 50.2402 530.148 47.7744 531.592C45.3086 533.036 38.2575 536.717 34.7699 539.192C31.2824 541.666 28.5378 543.718 23.4121 543.414C18.2863 543.11 13.4984 542.493 10.9313 539.276C8.36415 536.059 6.00816 533.036 3.44949 532.706C0.890831 532.377 -0.299896 530.173 -4.10835 532.968C-7.91679 535.763 -9.29317 536.456 -16.1923 538.229C-23.0914 540.002 -28.9941 537.435 -32.811 540.002C-36.6279 542.569 -39.1781 542.367 -44.1687 547.552C-49.1594 552.737 -54.6737 556.553 -58.6848 558.327C-62.6959 560.1 -66.0399 560.953 -68.9279 563.056C-71.8159 565.158 -77.1359 568.367 -77.1359 568.367L-82.5234 568.789L-81.299 567.151Z" fill="#DBDBDB"/>
<path d="M236.51 278.918C236.51 278.918 236.375 280.742 238.266 283.309C240.158 285.876 244.009 290.183 243.738 294.135C243.468 298.087 243.949 310.661 243.738 315.693C243.527 320.726 241.602 333.3 243.789 332.312C245.976 331.324 249.388 328.09 251.178 334.001C252.968 339.912 254.801 343.442 251.178 345.595C247.555 347.749 246.956 348.618 243.645 350.012C240.335 351.405 240.073 355.771 236.493 357.814C232.913 359.858 232.786 364.148 228.243 366.673C223.7 369.197 216.505 375.506 213.22 377.279C209.935 379.052 209.986 379.753 211.421 379.88C212.857 380.006 217.138 378.976 217.527 380.53C217.915 382.084 220.128 382.481 220.263 380.53C220.398 378.579 218.05 375.852 221.817 374.028C225.583 372.204 231.181 367.787 233.521 366.884C235.86 365.98 236.248 358.304 238.587 358.439C240.926 358.574 241.577 355.965 243.266 354.149C244.954 352.334 249.734 349.209 253.255 352.199C256.777 355.188 258.609 355.577 255.746 359.74C252.884 363.903 251.718 367.669 250.545 371.832C249.371 375.995 247.682 374.56 247.42 377.684C247.158 380.809 248.332 383.013 245.216 386.779C242.1 390.545 239.879 389.118 239.102 391.719C238.325 394.32 240.665 397.444 239.753 399.91C238.841 402.376 236.24 405.635 234.939 408.498C234.394 409.883 234.239 411.391 234.492 412.858C234.745 414.325 235.396 415.694 236.375 416.816C238.064 418.505 242.877 419.417 242.877 421.629C242.877 423.842 239.229 433.198 240.403 434.498C241.577 435.799 249.346 432.641 252.571 435.697C255.797 438.754 259.935 441.254 261.37 442.512C262.806 443.77 263.904 449.335 264.064 451.311C264.225 453.287 265.137 469.433 265.5 473.022C265.863 476.611 265.137 480.926 266.572 481.644C268.008 482.361 267.189 474.339 267.189 471.333C267.189 468.327 267.02 459.393 266.944 455.736C266.868 452.08 265.559 445.493 263.448 442.487C261.337 439.481 256.785 438.265 255.848 436.474C254.91 434.684 248.096 431.948 244.228 433.223C240.361 434.498 242.117 429.077 243.173 427.312C244.228 425.547 246.094 421.401 242.522 418.614C238.95 415.828 234.475 413.869 236.915 409.418C239.356 404.968 241.222 404.799 242.277 401.472C243.333 398.145 240.082 395.375 242.607 394.565C245.132 393.754 250.485 391.069 250.401 388.713C250.317 386.357 251.136 382.236 250.401 380.319C249.666 378.402 250.156 377.093 251.541 374.408C252.926 371.722 253.002 365.558 255.603 363.852C258.204 362.146 258.449 361.319 259.589 362.467C260.729 363.616 265.272 364.908 266.902 368.64C268.531 372.373 269.578 381.89 272.914 382.455C276.249 383.021 276.081 385.056 276.241 383.021C276.401 380.986 273.319 382.861 272.095 376.772C270.87 370.684 267.552 367.914 268.438 364.739C269.325 361.564 268.117 360.432 265.677 359.132C263.237 357.831 260.475 357.19 259.344 353.77C258.212 350.35 257.148 349.058 257.064 343.636C256.949 339.005 256.014 334.43 254.302 330.125C253.162 327.448 249.92 323.868 249.506 317.289C249.092 310.711 248.535 311.682 248.29 305.341C248.045 298.999 247.969 287.793 246.424 285.758C244.878 283.723 243.189 284.137 243.341 281.046C243.493 277.955 244.329 277.474 243.341 275.363C242.491 273.69 241.511 272.087 240.411 270.566L236.51 278.918Z" fill="#DBDBDB"/>
<path d="M-223.477 231.486C-223.477 231.486 -157.829 220.872 -122.008 234.805C-86.1868 248.738 -58.6747 250.393 -44.4036 247.733C-30.1325 245.073 22.9239 253.374 38.8501 245.411C54.7764 237.448 69.3599 254.371 83.2932 262.3C97.2266 270.229 104.852 274.232 101.871 287.836C98.8901 301.44 145.132 360.881 164.284 376.089C183.436 391.297 198.188 486.247 194.996 499.015C191.804 511.783 209.352 568.698 214.148 568.698" stroke="#4A3021" stroke-width="3" stroke-miterlimit="10"/>
<path d="M262.476 340.553C256.683 341.296 242.868 345.155 240.191 349.614C237.514 354.072 215.238 364.763 211.421 365.793C207.604 366.823 200.232 367.482 184.491 366.992C168.751 366.502 164.275 376.121 164.275 376.121C159.994 397.232 151.676 394.825 145.579 398.169C139.482 401.513 127.626 400.93 101.77 399.858C75.9127 398.786 63.3558 406.326 61.9203 412.786C60.4847 419.246 32.1198 416.021 28.1425 417.093C1.21317 426.787 -81.0019 422.16 -111.191 412.786C-141.38 403.413 -174.381 416.739 -185.874 426.787C-197.366 436.836 -223.215 412.786 -223.215 412.786" stroke="#4A3021" stroke-width="3" stroke-miterlimit="10"/>
<path d="M31.4981 334.504H28.5391V333.926H35.9466V334.504H32.9877V341.02H31.4981V334.504ZM36.7582 333.926H38.258V336.926H42.2809V333.926H43.7806V341.02H42.2809V337.503H38.258V341.02H36.7582V333.926ZM50.3155 339.206H46.5459L45.6643 341.02H44.6307L48.3192 333.825H49.2312L52.707 341.02H51.1667L50.3155 339.206ZM50.0419 338.628L48.4712 335.274L46.8296 338.628H50.0419ZM46.9107 332.122C46.6337 331.94 46.4952 331.771 46.4952 331.616C46.4952 331.521 46.5324 331.447 46.6067 331.393C46.681 331.339 46.779 331.312 46.9006 331.312C47.0357 331.312 47.1573 331.335 47.2654 331.383C47.3735 331.43 47.4748 331.508 47.5694 331.616L48.9576 333.217H48.4712L46.9107 332.122ZM53.5712 333.926H55.0507L58.9115 338.952V333.926H60.2896V341.02H59.3371L54.9494 335.244V341.02H53.5712V333.926ZM61.7551 333.926H63.2548V336.926H67.2778V333.926H68.7775V341.02H67.2778V337.503H63.2548V341.02H61.7551V333.926ZM73.0955 333.926H75.9733C77.0069 333.926 77.8041 334.098 78.3648 334.443C78.9323 334.781 79.216 335.338 79.216 336.115C79.216 336.885 78.939 337.442 78.3851 337.787C77.8311 338.132 77.0272 338.304 75.9733 338.304H74.5952V341.02H73.0955V333.926ZM75.9936 337.716C76.5678 337.716 77.0002 337.598 77.2907 337.361C77.5812 337.125 77.7264 336.709 77.7264 336.115C77.7264 335.534 77.5812 335.122 77.2907 334.879C77.007 334.629 76.5746 334.504 75.9936 334.504H74.5952V337.716H75.9936ZM80.1712 333.926H81.671V336.926H85.6939V333.926H87.1936V341.02H85.6939V337.503H81.671V341.02H80.1712V333.926ZM92.4821 341.121C91.6512 341.121 90.9317 340.976 90.3237 340.685C89.7225 340.395 89.2631 339.976 88.9456 339.429C88.6281 338.875 88.4693 338.213 88.4693 337.442C88.4693 336.686 88.6281 336.037 88.9456 335.497C89.2699 334.956 89.7326 334.544 90.3339 334.261C90.9351 333.97 91.6512 333.825 92.4821 333.825C93.3063 333.825 94.0156 333.97 94.6101 334.261C95.2114 334.544 95.6708 334.956 95.9883 335.497C96.3125 336.037 96.4747 336.686 96.4747 337.442C96.4747 338.213 96.3159 338.875 95.9984 339.429C95.6809 339.976 95.2215 340.395 94.6203 340.685C94.019 340.976 93.3063 341.121 92.4821 341.121ZM92.4821 340.543C93.2793 340.543 93.8907 340.28 94.3163 339.753C94.7419 339.219 94.9547 338.449 94.9547 337.442C94.9547 336.456 94.7419 335.703 94.3163 335.183C93.8907 334.663 93.2793 334.402 92.4821 334.402C91.6782 334.402 91.0601 334.666 90.6277 335.193C90.2021 335.713 89.9893 336.463 89.9893 337.442C89.9893 338.449 90.2021 339.219 90.6277 339.753C91.0533 340.28 91.6715 340.543 92.4821 340.543ZM94.3973 330.754C94.5257 330.592 94.6811 330.511 94.8635 330.511C94.9716 330.511 95.056 330.535 95.1168 330.582C95.1844 330.629 95.2181 330.694 95.2181 330.775C95.2181 330.842 95.1742 330.923 95.0864 331.018C95.0053 331.106 94.8668 331.227 94.6709 331.383L93.9616 331.93H93.5056L94.3973 330.754ZM92.0464 331.585H92.9179L94.2656 333.217H93.5461L92.4821 332.214L91.4181 333.217H90.6987L92.0464 331.585ZM40.0831 346.926C41.4544 346.926 42.5016 347.22 43.2244 347.808C43.954 348.389 44.3188 349.237 44.3188 350.351C44.3188 351.54 43.9608 352.449 43.2447 353.077C42.5286 353.705 41.495 354.02 40.1439 354.02H37.1444V350.605H36.3743V350.047H37.1444V346.926H40.0831ZM40.2857 353.442C41.1099 353.442 41.7348 353.182 42.1604 352.662C42.586 352.135 42.7988 351.365 42.7988 350.351C42.7988 349.419 42.586 348.713 42.1604 348.233C41.7348 347.747 41.1099 347.504 40.2857 347.504H38.6441V350.047H40.4377V350.605H38.6441V353.442H40.2857ZM50.266 352.206H46.4964L45.6148 354.02H44.5812L48.2698 346.825H49.1818L52.6575 354.02H51.1172L50.266 352.206ZM49.9924 351.628L48.4218 348.274L46.7802 351.628H49.9924ZM46.8612 345.122C46.5843 344.94 46.4458 344.771 46.4458 344.616C46.4458 344.521 46.4829 344.447 46.5572 344.393C46.6315 344.339 46.7295 344.312 46.8511 344.312C46.9862 344.312 47.1078 344.335 47.2159 344.383C47.324 344.43 47.4253 344.508 47.5199 344.616L48.9082 346.217H48.4218L46.8612 345.122ZM56.3817 346.926H57.8611L61.7219 351.952V346.926H63.1001V354.02H62.1475L57.7598 348.244V354.02H56.3817V346.926ZM69.6322 352.206H65.8626L64.981 354.02H63.9474L67.6359 346.825H68.5479L72.0237 354.02H70.4834L69.6322 352.206ZM69.3586 351.628L67.7879 348.274L66.1463 351.628H69.3586ZM66.4199 344.251C66.4469 343.974 66.5415 343.758 66.7036 343.602C66.8725 343.447 67.0752 343.369 67.3116 343.369C67.4332 343.369 67.5582 343.393 67.6866 343.44C67.8149 343.488 67.9771 343.555 68.173 343.643C68.2946 343.697 68.4162 343.748 68.5378 343.795C68.6594 343.842 68.7641 343.866 68.8519 343.866C68.987 343.866 69.1086 343.825 69.2167 343.744C69.3316 343.663 69.4126 343.548 69.4599 343.4L69.693 343.511C69.5781 344.126 69.2775 344.433 68.7911 344.433C68.6763 344.433 68.5581 344.413 68.4364 344.373C68.3216 344.325 68.1629 344.254 67.9602 344.16C67.7913 344.079 67.6528 344.018 67.5447 343.977C67.4366 343.937 67.3387 343.917 67.2509 343.917C67.109 343.917 66.984 343.957 66.8759 344.038C66.7678 344.113 66.6935 344.221 66.653 344.362L66.4199 344.251ZM68.0717 346.298C67.5447 346.298 67.1225 346.159 66.805 345.882C66.4875 345.605 66.3186 345.241 66.2983 344.788H66.7239C66.7577 345.065 66.8962 345.295 67.1394 345.477C67.3826 345.653 67.6933 345.741 68.0717 345.741C68.45 345.741 68.7607 345.653 69.0039 345.477C69.2471 345.295 69.3856 345.065 69.4194 344.788H69.845C69.8247 345.241 69.6558 345.605 69.3383 345.882C69.0208 346.159 68.5986 346.298 68.0717 346.298ZM72.8879 346.926H74.3674L78.2282 351.952V346.926H79.6063V354.02H78.6538L74.266 348.244V354.02H72.8879V346.926ZM84.9934 354.121C84.1489 354.121 83.4159 353.976 82.7944 353.685C82.1797 353.395 81.7068 352.976 81.3758 352.429C81.0447 351.881 80.8792 351.233 80.8792 350.483C80.8792 349.74 81.0447 349.095 81.3758 348.548C81.7068 347.994 82.1797 347.571 82.7944 347.281C83.4092 346.984 84.1354 346.835 84.9731 346.835C85.9729 346.835 86.7903 347.048 87.4254 347.473C88.0604 347.899 88.4353 348.483 88.5502 349.226H87.3544C87.2328 348.645 86.9694 348.2 86.564 347.889C86.1587 347.571 85.6385 347.413 85.0035 347.413C84.1861 347.413 83.5477 347.683 83.0883 348.223C82.6289 348.757 82.3992 349.507 82.3992 350.473C82.3992 351.439 82.6255 352.192 83.0782 352.733C83.5375 353.273 84.1793 353.543 85.0035 353.543C85.3683 353.543 85.6993 353.506 85.9966 353.432C86.2938 353.351 86.5978 353.219 86.9086 353.037V350.817H84.4664V350.28H88.4083V353.067C88.0367 353.398 87.547 353.658 86.939 353.847C86.331 354.03 85.6824 354.121 84.9934 354.121Z" fill="#4A3021"/>
<path d="M181.584 359.544H178.36L177.632 361H177.072L179.984 355.32H180.416L183.16 361H182.264L181.584 359.544ZM181.4 359.16L180.024 356.216L178.552 359.16H181.4ZM183.826 355.4H184.658V357.808H188.25V355.4H189.082V361H188.25V358.184H184.658V361H183.826V355.4ZM192.368 356.632H190.912V356.32C191.307 356.309 191.645 356.227 191.928 356.072C192.211 355.912 192.416 355.688 192.544 355.4H193.184V361H192.368V356.632ZM196.754 361C196.754 360.579 196.813 360.176 196.93 359.792C197.053 359.403 197.248 358.995 197.514 358.568C197.786 358.141 198.152 357.656 198.61 357.112C198.914 356.755 199.125 356.477 199.242 356.28C199.365 356.083 199.429 355.909 199.434 355.76H195.634V355.4H200.362C200.362 355.613 200.29 355.84 200.146 356.08C200.008 356.32 199.738 356.675 199.338 357.144C198.704 357.896 198.253 358.56 197.986 359.136C197.725 359.712 197.594 360.333 197.594 361H196.754Z" fill="#4A3021"/>
<path d="M201.819 517.588C201.545 516.673 201.574 515.899 201.907 515.264C202.24 514.63 202.853 514.178 203.747 513.91C204.621 513.648 205.368 513.688 205.989 514.03C206.611 514.378 207.059 515.007 207.332 515.916C207.554 516.657 207.579 517.306 207.407 517.864C207.235 518.423 206.884 518.829 206.353 519.083L206.146 518.393C206.559 518.175 206.838 517.86 206.982 517.449C207.131 517.037 207.129 516.575 206.975 516.065C206.776 515.401 206.418 514.951 205.902 514.716C205.388 514.486 204.75 514.486 203.989 514.714C203.212 514.948 202.668 515.306 202.357 515.789C202.051 516.271 201.998 516.846 202.199 517.516C202.352 518.026 202.601 518.411 202.946 518.669C203.291 518.928 203.699 519.034 204.169 518.987L204.376 519.677C203.793 519.757 203.276 519.611 202.825 519.24C202.374 518.869 202.039 518.318 201.819 517.588ZM205.485 524.453L204.557 521.365L202.954 521.086L202.792 520.55L209.07 521.706L209.194 522.119L204.543 526.381L204.286 525.523L205.485 524.453ZM205.799 524.166L208.223 522.002L204.98 521.438L205.799 524.166ZM205.37 529.411C205.189 528.808 205.143 528.257 205.232 527.757C205.321 527.257 205.538 526.83 205.883 526.476C206.233 526.12 206.699 525.855 207.281 525.68C207.853 525.508 208.378 525.476 208.856 525.583C209.339 525.689 209.753 525.926 210.097 526.296C210.442 526.666 210.705 527.152 210.886 527.755C211.067 528.358 211.115 528.906 211.029 529.399C210.945 529.898 210.731 530.324 210.386 530.678C210.046 531.031 209.59 531.293 209.018 531.465C208.436 531.64 207.901 531.675 207.413 531.571C206.93 531.465 206.514 531.228 206.164 530.86C205.815 530.497 205.551 530.014 205.37 529.411ZM205.737 529.301C205.937 529.965 206.3 530.415 206.828 530.652C207.356 530.889 208.005 530.892 208.777 530.66C209.533 530.433 210.061 530.077 210.36 529.592C210.667 529.11 210.719 528.534 210.518 527.865C210.318 527.196 209.958 526.742 209.441 526.502C208.923 526.262 208.284 526.256 207.523 526.484C206.752 526.716 206.211 527.076 205.901 527.564C205.591 528.053 205.536 528.632 205.737 529.301ZM212.749 535.572L212.068 533.304L212.436 533.194L214.035 538.519L213.667 538.629L212.988 536.369L207.993 537.869L207.753 537.072L212.749 535.572ZM209.611 543.538C209.43 542.935 209.384 542.384 209.474 541.884C209.563 541.384 209.78 540.957 210.125 540.602C210.475 540.247 210.941 539.982 211.523 539.807C212.095 539.635 212.62 539.603 213.098 539.71C213.58 539.816 213.994 540.053 214.339 540.423C214.684 540.793 214.947 541.279 215.128 541.882C215.309 542.484 215.357 543.033 215.271 543.526C215.187 544.025 214.972 544.451 214.628 544.805C214.288 545.158 213.832 545.42 213.26 545.592C212.678 545.766 212.143 545.802 211.655 545.698C211.172 545.592 210.755 545.355 210.405 544.987C210.057 544.624 209.792 544.141 209.611 543.538ZM209.979 543.428C210.178 544.092 210.542 544.542 211.07 544.779C211.598 545.016 212.247 545.019 213.018 544.787C213.774 544.56 214.302 544.204 214.602 543.719C214.908 543.237 214.961 542.661 214.76 541.992C214.559 541.323 214.2 540.868 213.682 540.628C213.165 540.389 212.526 540.383 211.765 540.611C210.993 540.843 210.453 541.203 210.143 541.691C209.833 542.18 209.778 542.759 209.979 543.428ZM217.812 542.696C217.966 542.767 218.058 542.851 218.088 542.948C218.107 543.014 218.106 543.073 218.082 543.125C218.064 543.175 218.027 543.208 217.97 543.225C217.919 543.24 217.861 543.23 217.794 543.194C217.728 543.159 217.623 543.09 217.481 542.988L216.789 542.461L216.713 542.208L217.812 542.696ZM216.679 541.124L216.841 541.66L215.953 542.962L215.841 542.587L216.4 541.5L215.335 540.901L215.222 540.525L216.679 541.124ZM211.586 550.114C211.311 549.2 211.34 548.425 211.673 547.791C212.006 547.156 212.62 546.705 213.514 546.436C214.387 546.174 215.134 546.214 215.755 546.557C216.377 546.905 216.825 547.533 217.098 548.442C217.32 549.183 217.345 549.832 217.173 550.391C217.001 550.949 216.65 551.355 216.119 551.609L215.912 550.92C216.325 550.701 216.604 550.386 216.748 549.976C216.897 549.563 216.895 549.102 216.742 548.591C216.542 547.927 216.184 547.478 215.668 547.243C215.154 547.013 214.516 547.012 213.755 547.241C212.979 547.474 212.435 547.832 212.123 548.315C211.817 548.797 211.764 549.373 211.965 550.042C212.118 550.553 212.367 550.937 212.712 551.196C213.057 551.454 213.465 551.56 213.935 551.513L214.142 552.203C213.56 552.283 213.043 552.138 212.591 551.767C212.14 551.395 211.805 550.844 211.586 550.114ZM213.873 557.732C213.634 556.935 213.687 556.248 214.031 555.672C214.383 555.098 215 554.679 215.884 554.414C216.767 554.148 217.511 554.159 218.115 554.445C218.726 554.735 219.151 555.279 219.39 556.076C219.628 556.867 219.571 557.55 219.219 558.123C218.875 558.7 218.261 559.121 217.377 559.386C216.493 559.652 215.747 559.642 215.138 559.357C214.534 559.071 214.112 558.529 213.873 557.732ZM214.195 557.636C214.354 558.167 214.69 558.514 215.201 558.678C215.714 558.847 216.359 558.815 217.135 558.582C217.912 558.349 218.467 558.02 218.802 557.597C219.139 557.178 219.227 556.704 219.068 556.172C218.908 555.641 218.572 555.291 218.059 555.122C217.548 554.958 216.904 554.993 216.128 555.226C215.351 555.459 214.795 555.785 214.458 556.203C214.123 556.627 214.035 557.104 214.195 557.636ZM219.708 561.696L219.289 560.302L219.588 560.212C219.711 560.587 219.888 560.888 220.117 561.114C220.352 561.339 220.625 561.471 220.938 561.511L221.122 562.124L215.759 563.734L215.524 562.952L219.708 561.696Z" fill="#4A3021"/>
<path d="M163.833 413.719C164.021 412.783 164.411 412.113 165.003 411.71C165.596 411.307 166.349 411.197 167.264 411.38C168.159 411.56 168.799 411.946 169.186 412.541C169.571 413.14 169.671 413.905 169.484 414.836C169.332 415.594 169.049 416.18 168.634 416.591C168.22 417.003 167.719 417.196 167.131 417.171L167.272 416.465C167.74 416.466 168.134 416.32 168.454 416.025C168.78 415.731 168.995 415.323 169.1 414.8C169.236 414.12 169.132 413.555 168.787 413.105C168.441 412.661 167.878 412.36 167.099 412.204C166.304 412.044 165.656 412.105 165.154 412.385C164.657 412.666 164.339 413.149 164.202 413.834C164.097 414.357 164.136 414.813 164.319 415.204C164.502 415.594 164.812 415.879 165.249 416.059L165.107 416.765C164.555 416.562 164.167 416.19 163.944 415.65C163.72 415.111 163.683 414.467 163.833 413.719ZM163.839 421.501L164.473 418.34L163.189 417.34L163.299 416.791L168.295 420.763L168.21 421.187L162.101 422.76L162.278 421.882L163.839 421.501ZM164.251 421.396L167.409 420.626L164.812 418.604L164.251 421.396ZM161.405 425.823C161.529 425.206 161.748 424.698 162.062 424.298C162.376 423.899 162.768 423.624 163.239 423.474C163.715 423.324 164.251 423.31 164.847 423.429C165.433 423.547 165.911 423.765 166.283 424.084C166.659 424.405 166.912 424.809 167.043 425.297C167.173 425.786 167.177 426.339 167.053 426.956C166.929 427.573 166.713 428.079 166.405 428.474C166.097 428.875 165.707 429.15 165.236 429.3C164.771 429.452 164.245 429.469 163.659 429.351C163.063 429.232 162.574 429.011 162.193 428.69C161.816 428.37 161.56 427.965 161.425 427.475C161.288 426.991 161.281 426.44 161.405 425.823ZM161.782 425.899C161.645 426.578 161.754 427.147 162.109 427.604C162.463 428.061 163.035 428.369 163.825 428.528C164.598 428.683 165.232 428.617 165.725 428.329C166.222 428.048 166.539 427.565 166.676 426.88C166.814 426.195 166.71 425.625 166.367 425.17C166.023 424.715 165.461 424.409 164.682 424.253C163.893 424.094 163.246 424.158 162.743 424.443C162.24 424.728 161.919 425.213 161.782 425.899ZM165.02 434.731L165.486 432.409L165.862 432.485L164.769 437.936L164.392 437.86L164.856 435.547L159.742 434.521L159.906 433.705L165.02 434.731ZM158.504 440.285C158.628 439.668 158.847 439.16 159.161 438.76C159.475 438.361 159.867 438.086 160.338 437.936C160.814 437.786 161.35 437.772 161.946 437.891C162.532 438.009 163.01 438.227 163.381 438.546C163.758 438.866 164.011 439.271 164.142 439.759C164.272 440.248 164.276 440.801 164.152 441.418C164.028 442.035 163.812 442.541 163.504 442.936C163.196 443.337 162.806 443.612 162.335 443.762C161.87 443.914 161.344 443.931 160.758 443.813C160.162 443.694 159.673 443.473 159.292 443.152C158.915 442.831 158.659 442.427 158.524 441.937C158.387 441.453 158.38 440.902 158.504 440.285ZM158.881 440.36C158.744 441.04 158.853 441.609 159.208 442.066C159.562 442.523 160.134 442.831 160.924 442.99C161.697 443.145 162.331 443.079 162.824 442.791C163.321 442.51 163.638 442.027 163.775 441.342C163.913 440.657 163.809 440.087 163.466 439.632C163.122 439.177 162.56 438.871 161.781 438.715C160.991 438.556 160.345 438.62 159.842 438.905C159.338 439.19 159.018 439.675 158.881 440.36ZM166.137 443.399C166.24 443.534 166.282 443.651 166.262 443.75C166.249 443.818 166.219 443.87 166.174 443.904C166.134 443.94 166.086 443.952 166.028 443.94C165.976 443.93 165.929 443.893 165.887 443.83C165.845 443.767 165.786 443.658 165.708 443.501L165.345 442.71L165.397 442.451L166.137 443.399ZM165.878 441.478L165.767 442.027L164.372 442.759L164.449 442.375L165.454 441.679L164.795 440.649L164.873 440.265L165.878 441.478ZM157.154 447.017C157.342 446.081 157.732 445.411 158.324 445.008C158.916 444.604 159.67 444.494 160.585 444.678C161.479 444.857 162.119 445.244 162.506 445.838C162.892 446.438 162.991 447.203 162.804 448.134C162.652 448.892 162.369 449.477 161.955 449.889C161.54 450.301 161.039 450.494 160.451 450.469L160.593 449.763C161.06 449.764 161.454 449.617 161.775 449.322C162.1 449.029 162.315 448.62 162.42 448.098C162.556 447.418 162.452 446.853 162.107 446.403C161.761 445.958 161.199 445.658 160.42 445.501C159.625 445.342 158.976 445.402 158.474 445.682C157.977 445.963 157.66 446.446 157.522 447.131C157.418 447.654 157.457 448.111 157.639 448.501C157.822 448.891 158.132 449.177 158.569 449.357L158.428 450.063C157.875 449.859 157.488 449.488 157.264 448.948C157.041 448.408 157.004 447.764 157.154 447.017ZM155.589 454.815C155.753 454 156.123 453.418 156.698 453.071C157.278 452.731 158.02 452.651 158.925 452.833C159.829 453.014 160.481 453.373 160.879 453.91C161.281 454.453 161.401 455.133 161.237 455.948C161.074 456.759 160.703 457.334 160.124 457.675C159.548 458.022 158.808 458.105 157.903 457.923C156.999 457.742 156.345 457.382 155.941 456.844C155.543 456.307 155.426 455.631 155.589 454.815ZM155.919 454.881C155.81 455.425 155.942 455.89 156.317 456.275C156.69 456.665 157.274 456.94 158.069 457.1C158.863 457.259 159.508 457.231 160.003 457.014C160.497 456.803 160.798 456.426 160.907 455.882C161.017 455.338 160.885 454.871 160.511 454.481C160.137 454.096 159.553 453.824 158.758 453.664C157.963 453.505 157.319 453.53 156.825 453.741C156.33 453.958 156.028 454.338 155.919 454.881ZM155.041 457.955C155.42 458.075 155.741 458.33 156.006 458.72C156.27 459.11 156.511 459.684 156.729 460.44C156.866 460.897 157.002 461.262 157.138 461.534C157.274 461.806 157.426 462.013 157.593 462.155C157.765 462.299 157.972 462.395 158.212 462.443C158.631 462.527 158.975 462.465 159.245 462.258C159.52 462.052 159.705 461.714 159.799 461.243C159.897 460.757 159.851 460.348 159.662 460.016C159.477 459.691 159.174 459.481 158.752 459.385L158.894 458.679C159.415 458.849 159.787 459.174 160.012 459.654C160.237 460.134 160.283 460.701 160.152 461.355C160.063 461.8 159.917 462.175 159.714 462.483C159.51 462.796 159.263 463.021 158.975 463.159C158.686 463.297 158.379 463.333 158.055 463.268C157.788 463.214 157.556 463.1 157.357 462.924C157.164 462.749 156.985 462.488 156.821 462.139C156.656 461.796 156.486 461.329 156.31 460.739C156.189 460.34 156.079 460.024 155.978 459.792C155.877 459.565 155.766 459.387 155.644 459.26C155.527 459.138 155.383 459.044 155.212 458.977L154.472 462.663L154.111 462.591L155.041 457.955Z" fill="#4A3021"/>
<path d="M228.483 497.249C229.449 496.849 230.271 496.757 230.949 496.973C231.627 497.189 232.135 497.706 232.474 498.524C232.827 499.376 232.846 500.141 232.533 500.82C232.222 501.491 231.601 502.019 230.669 502.405L228.615 503.256L227.55 500.684L226.98 500.919L226.846 500.594L227.415 500.358L226.472 498.082L228.483 497.249ZM230.626 502.007C231.281 501.736 231.701 501.328 231.886 500.784C232.076 500.238 232.015 499.591 231.705 498.842C231.413 498.137 231.021 497.676 230.527 497.46C230.031 497.238 229.448 497.265 228.778 497.543L227.388 498.118L228.184 500.04L229.751 499.391L229.885 499.717L228.318 500.365L229.236 502.583L230.626 502.007ZM234.253 495.276L232.065 496.182L231.918 495.827L237.055 493.7L237.202 494.055L235.022 494.958L237.017 499.777L236.248 500.095L234.253 495.276ZM240.596 494.183C241.02 494.007 241.419 493.926 241.794 493.938C242.173 493.948 242.504 494.051 242.787 494.245C243.072 494.433 243.287 494.702 243.432 495.052C243.581 495.411 243.62 495.771 243.549 496.129C243.476 496.482 243.302 496.808 243.028 497.107C242.751 497.4 242.391 497.639 241.947 497.823C241.183 498.139 240.498 498.163 239.89 497.895C239.281 497.622 238.808 497.079 238.471 496.266C238.237 495.699 238.135 495.167 238.165 494.669C238.194 494.167 238.35 493.727 238.632 493.35C238.915 492.974 239.313 492.679 239.825 492.467C240.17 492.324 240.508 492.248 240.839 492.238C241.169 492.228 241.469 492.283 241.738 492.402C242.01 492.515 242.228 492.687 242.393 492.919L241.736 493.191C241.495 492.916 241.22 492.747 240.911 492.684C240.605 492.615 240.282 492.65 239.942 492.791C239.597 492.934 239.332 493.15 239.146 493.441C238.965 493.729 238.872 494.068 238.866 494.457C238.859 494.847 238.947 495.261 239.129 495.699L239.181 495.825C239.22 495.474 239.365 495.154 239.615 494.866C239.865 494.578 240.192 494.35 240.596 494.183ZM241.816 497.505C242.264 497.319 242.567 497.041 242.725 496.669C242.881 496.293 242.866 495.881 242.681 495.432C242.495 494.984 242.214 494.682 241.838 494.526C241.459 494.365 241.046 494.377 240.598 494.563C240.154 494.746 239.854 495.026 239.699 495.403C239.548 495.777 239.566 496.191 239.754 496.644C239.941 497.097 240.22 497.401 240.589 497.554C240.958 497.707 241.367 497.69 241.816 497.505ZM247.013 495.725C246.244 496.044 245.555 496.06 244.947 495.776C244.341 495.484 243.862 494.912 243.509 494.059C243.156 493.207 243.091 492.465 243.316 491.836C243.543 491.199 244.041 490.722 244.809 490.404C245.573 490.087 246.258 490.075 246.863 490.367C247.472 490.652 247.953 491.22 248.306 492.073C248.659 492.925 248.724 493.669 248.502 494.304C248.278 494.933 247.781 495.407 247.013 495.725ZM246.884 495.415C247.397 495.203 247.709 494.834 247.82 494.309C247.937 493.781 247.84 493.143 247.53 492.394C247.22 491.645 246.837 491.125 246.382 490.835C245.932 490.542 245.45 490.502 244.938 490.714C244.425 490.926 244.111 491.296 243.994 491.823C243.883 492.348 243.982 492.986 244.292 493.735C244.602 494.484 244.982 495.005 245.433 495.297C245.888 495.588 246.372 495.627 246.884 495.415ZM249.86 488.312C250.624 487.996 251.31 487.975 251.92 488.248C252.527 488.516 252.999 489.056 253.336 489.869C253.57 490.436 253.673 490.971 253.645 491.473C253.614 491.971 253.457 492.408 253.175 492.785C252.892 493.161 252.494 493.456 251.982 493.668C251.642 493.809 251.304 493.885 250.969 493.897C250.638 493.907 250.337 493.856 250.065 493.743C249.796 493.624 249.579 493.448 249.414 493.216L250.072 492.944C250.311 493.214 250.583 493.384 250.889 493.454C251.2 493.521 251.525 493.485 251.865 493.344C252.21 493.201 252.475 492.985 252.661 492.694C252.847 492.404 252.94 492.065 252.942 491.678C252.948 491.288 252.86 490.874 252.679 490.436L252.651 490.369C252.601 490.696 252.448 491.002 252.191 491.287C251.932 491.567 251.605 491.789 251.211 491.952C250.787 492.128 250.386 492.21 250.006 492.2C249.632 492.188 249.302 492.088 249.016 491.9C248.734 491.705 248.52 491.433 248.375 491.083C248.226 490.724 248.188 490.367 248.261 490.013C248.332 489.655 248.506 489.329 248.783 489.036C249.057 488.737 249.416 488.496 249.86 488.312ZM251.21 491.572C251.658 491.386 251.958 491.107 252.109 490.732C252.26 490.358 252.241 489.944 252.054 489.491C251.866 489.038 251.587 488.734 251.218 488.581C250.849 488.428 250.44 488.445 249.992 488.63C249.543 488.816 249.241 489.097 249.085 489.473C248.927 489.845 248.941 490.254 249.127 490.703C249.312 491.151 249.594 491.456 249.973 491.617C250.354 491.771 250.766 491.756 251.21 491.572Z" fill="#4A3021"/>
<path d="M286.074 436.337C286.367 437.34 286.369 438.167 286.081 438.818C285.793 439.469 285.224 439.918 284.374 440.166C283.488 440.424 282.725 440.36 282.085 439.975C281.451 439.593 280.994 438.918 280.712 437.95L280.089 435.815L282.762 435.036L282.59 434.444L282.927 434.346L283.1 434.937L285.465 434.248L286.074 436.337ZM281.112 437.95C281.31 438.631 281.67 439.093 282.19 439.336C282.713 439.583 283.363 439.594 284.141 439.367C284.873 439.153 285.374 438.813 285.643 438.346C285.918 437.877 285.953 437.294 285.75 436.598L285.33 435.154L283.333 435.736L283.807 437.364L283.469 437.463L282.995 435.835L280.691 436.506L281.112 437.95ZM287.409 442.287L286.746 440.014L287.115 439.906L288.671 445.244L288.302 445.351L287.642 443.086L282.634 444.545L282.401 443.747L287.409 442.287ZM287.807 448.711C287.935 449.152 287.973 449.557 287.92 449.928C287.868 450.304 287.73 450.622 287.506 450.882C287.289 451.146 286.998 451.33 286.634 451.436C286.261 451.545 285.899 451.545 285.551 451.436C285.207 451.325 284.902 451.116 284.636 450.811C284.374 450.504 284.176 450.12 284.041 449.659C283.81 448.865 283.861 448.181 284.193 447.607C284.531 447.03 285.122 446.619 285.967 446.373C286.556 446.201 287.096 446.158 287.587 446.242C288.083 446.325 288.503 446.528 288.847 446.85C289.191 447.172 289.441 447.599 289.596 448.131C289.7 448.49 289.74 448.834 289.714 449.164C289.687 449.494 289.6 449.786 289.452 450.04C289.311 450.298 289.116 450.496 288.868 450.635L288.668 449.952C288.968 449.742 289.166 449.487 289.262 449.187C289.364 448.891 289.364 448.566 289.261 448.212C289.157 447.854 288.97 447.567 288.702 447.351C288.435 447.14 288.108 447.01 287.722 446.961C287.335 446.913 286.914 446.955 286.458 447.088L286.328 447.126C286.673 447.203 286.975 447.382 287.234 447.662C287.493 447.942 287.684 448.292 287.807 448.711ZM284.372 449.563C284.508 450.029 284.751 450.36 285.103 450.558C285.46 450.754 285.872 450.784 286.338 450.648C286.804 450.512 287.135 450.266 287.331 449.908C287.532 449.55 287.564 449.138 287.428 448.672C287.294 448.211 287.048 447.882 286.691 447.687C286.336 447.496 285.922 447.469 285.451 447.606C284.98 447.744 284.649 447.988 284.456 448.338C284.264 448.689 284.236 449.097 284.372 449.563ZM285.576 454.922C285.343 454.123 285.401 453.437 285.75 452.863C286.106 452.293 286.727 451.878 287.613 451.62C288.499 451.362 289.242 451.378 289.844 451.67C290.452 451.965 290.873 452.512 291.106 453.31C291.337 454.104 291.275 454.786 290.919 455.356C290.569 455.93 289.952 456.346 289.066 456.605C288.18 456.863 287.434 456.847 286.827 456.557C286.226 456.266 285.809 455.721 285.576 454.922ZM285.898 454.828C286.053 455.361 286.386 455.711 286.896 455.879C287.408 456.052 288.053 456.025 288.831 455.798C289.609 455.571 290.168 455.248 290.506 454.827C290.846 454.411 290.938 453.937 290.783 453.404C290.628 452.872 290.294 452.519 289.783 452.346C289.273 452.178 288.629 452.207 287.85 452.434C287.072 452.661 286.513 452.982 286.173 453.398C285.835 453.819 285.743 454.296 285.898 454.828ZM286.853 459.019C287.258 458.901 287.661 458.845 288.062 458.85C288.47 458.859 288.916 458.931 289.401 459.068C289.886 459.21 290.455 459.425 291.105 459.713C291.533 459.905 291.859 460.029 292.081 460.087C292.305 460.149 292.489 460.162 292.634 460.125L291.57 456.477L291.916 456.376L293.239 460.916C293.034 460.975 292.797 460.97 292.526 460.898C292.257 460.833 291.841 460.673 291.278 460.421C290.379 460.022 289.615 459.775 288.988 459.68C288.361 459.59 287.728 459.639 287.088 459.825L286.853 459.019Z" fill="#4A3021"/>
<path d="M157.035 246.4L157.955 246.4L160.184 251.13L162.587 246.403L163.131 246.403L160.24 252.082L159.808 252.081L157.035 246.4ZM164.079 246.404L164.911 246.404L164.908 252.004L164.076 252.004L164.079 246.404ZM164.491 253.18C164.369 253.18 164.267 253.14 164.187 253.06C164.113 252.985 164.076 252.889 164.076 252.772C164.076 252.654 164.113 252.558 164.188 252.484C164.268 252.409 164.369 252.372 164.492 252.372C164.614 252.372 164.713 252.409 164.788 252.484C164.868 252.559 164.908 252.655 164.908 252.772C164.908 252.889 164.867 252.985 164.787 253.06C164.713 253.14 164.614 253.18 164.491 253.18ZM166.423 246.405L167.263 246.405L170.668 250.751L170.671 246.407L171.375 246.408L171.372 252.008L170.956 252.007L167.126 247.133L167.124 252.005L166.42 252.005L166.423 246.405ZM172.556 246.408L173.388 246.409L173.386 248.817L176.978 248.818L176.98 246.41L177.812 246.411L177.809 252.011L176.977 252.01L176.978 249.194L173.386 249.193L173.385 252.009L172.553 252.008L172.556 246.408ZM183.302 246.414C184.347 246.414 185.142 246.644 185.686 247.103C186.229 247.562 186.501 248.234 186.501 249.119C186.5 250.042 186.225 250.757 185.676 251.263C185.131 251.764 184.355 252.014 183.347 252.014L181.123 252.013L181.125 249.229L180.509 249.228L180.509 248.876L181.125 248.877L181.126 246.413L183.302 246.414ZM183.459 251.63C184.169 251.63 184.713 251.415 185.092 250.983C185.476 250.551 185.668 249.93 185.669 249.119C185.669 248.356 185.483 247.78 185.11 247.391C184.736 246.996 184.187 246.798 183.462 246.798L181.958 246.797L181.957 248.877L183.653 248.878L183.653 249.23L181.957 249.229L181.955 251.629L183.459 251.63ZM191.209 250.562L187.985 250.56L187.257 252.016L186.697 252.016L189.612 246.337L190.044 246.337L192.785 252.019L191.889 252.018L191.209 250.562ZM191.026 250.178L189.651 247.233L188.178 250.176L191.026 250.178ZM188.404 245C188.202 244.862 188.101 244.736 188.101 244.624C188.101 244.566 188.122 244.518 188.165 244.48C188.213 244.438 188.277 244.416 188.357 244.416C188.517 244.416 188.658 244.486 188.781 244.625L189.908 245.857L189.628 245.857L188.404 245ZM195.579 246.42L196.419 246.421L199.825 250.766L199.827 246.422L200.531 246.423L200.528 252.023L200.112 252.023L196.283 247.149L196.28 252.021L195.576 252.02L195.579 246.42ZM205.702 250.569L202.478 250.568L201.749 252.023L201.189 252.023L204.104 246.345L204.536 246.345L207.277 252.026L206.381 252.026L205.702 250.569ZM205.518 250.185L204.143 247.241L202.67 250.184L205.518 250.185ZM203.073 244.36C203.1 244.168 203.172 244.019 203.289 243.912C203.412 243.806 203.559 243.752 203.729 243.752C203.82 243.753 203.908 243.769 203.993 243.801C204.079 243.833 204.193 243.883 204.337 243.953C204.449 244.006 204.542 244.049 204.617 244.081C204.692 244.108 204.764 244.121 204.833 244.121C204.934 244.121 205.022 244.086 205.097 244.017C205.177 243.948 205.239 243.852 205.281 243.729L205.449 243.809C205.401 244.023 205.321 244.185 205.209 244.297C205.097 244.409 204.956 244.465 204.785 244.465C204.7 244.465 204.614 244.449 204.529 244.417C204.444 244.385 204.334 244.334 204.201 244.265C204.084 244.206 203.985 244.161 203.905 244.129C203.825 244.097 203.75 244.08 203.681 244.08C203.58 244.08 203.489 244.112 203.409 244.176C203.329 244.24 203.273 244.328 203.241 244.44L203.073 244.36ZM204.272 245.897C203.883 245.897 203.573 245.798 203.344 245.6C203.12 245.397 203.001 245.123 202.985 244.776L203.265 244.776C203.291 245.011 203.392 245.198 203.568 245.336C203.75 245.475 203.984 245.545 204.272 245.545C204.56 245.545 204.792 245.476 204.968 245.337C205.15 245.199 205.254 245.012 205.281 244.777L205.561 244.777C205.545 245.124 205.422 245.399 205.192 245.601C204.968 245.798 204.661 245.897 204.272 245.897ZM207.946 246.427L208.786 246.427L212.192 250.773L212.194 246.429L212.898 246.429L212.895 252.029L212.479 252.029L208.65 247.155L208.647 252.027L207.943 252.027L207.946 246.427ZM217.028 252.111C216.377 252.111 215.82 251.999 215.356 251.775C214.892 251.545 214.538 251.214 214.293 250.782C214.048 250.35 213.925 249.835 213.926 249.238C213.926 248.64 214.046 248.126 214.286 247.694C214.527 247.262 214.873 246.932 215.327 246.703C215.78 246.468 216.319 246.351 216.943 246.351C217.7 246.352 218.322 246.517 218.807 246.848C219.297 247.174 219.593 247.625 219.694 248.201L218.974 248.2C218.878 247.731 218.657 247.371 218.311 247.12C217.964 246.864 217.516 246.736 216.967 246.735C216.279 246.735 215.74 246.956 215.351 247.399C214.961 247.836 214.766 248.446 214.766 249.23C214.765 250.025 214.962 250.641 215.357 251.079C215.756 251.511 216.316 251.727 217.036 251.727C217.372 251.728 217.679 251.693 217.956 251.624C218.234 251.549 218.498 251.435 218.748 251.28L218.749 249.464L216.789 249.463L216.79 249.103L219.582 249.105L219.58 251.337C219.266 251.587 218.89 251.779 218.452 251.912C218.02 252.045 217.545 252.112 217.028 252.111Z" fill="#4A3021"/>
<path d="M290.614 54.0429L293.222 54.0443C293.894 54.0446 294.427 54.1622 294.822 54.3971C295.217 54.632 295.414 54.9521 295.413 55.3574C295.413 55.7041 295.272 56.0027 294.989 56.2532C294.706 56.4984 294.335 56.6555 293.877 56.7246C294.485 56.7836 294.949 56.9252 295.269 57.1493C295.588 57.3682 295.748 57.6989 295.748 58.1416C295.748 58.6269 295.548 59.0001 295.147 59.2613C294.747 59.5171 294.169 59.6447 293.411 59.6444L290.611 59.6429L290.614 54.0429ZM292.917 56.5481C293.456 56.5484 293.869 56.4526 294.157 56.2607C294.445 56.0636 294.589 55.7783 294.589 55.405C294.59 55.0743 294.454 54.8289 294.182 54.6688C293.91 54.5086 293.497 54.4284 292.942 54.4281L291.446 54.4273L291.445 56.5473L292.917 56.5481ZM293.491 59.2604C293.939 59.2606 294.289 59.1595 294.54 58.9569C294.79 58.7544 294.916 58.4691 294.916 58.1011C294.916 57.7118 294.743 57.4211 294.397 57.2289C294.055 57.0314 293.546 56.9324 292.869 56.9321L291.445 56.9313L291.443 59.2593L293.491 59.2604ZM296.942 54.0462L297.774 54.0466L297.771 59.6466L296.939 59.6462L296.942 54.0462ZM299.286 54.0474L304.03 54.0499L304.03 54.4339L300.118 54.4319L300.117 56.4559L303.573 56.4577L303.573 56.8337L300.117 56.8319L300.115 59.2639L304.027 59.2659L304.027 59.6499L299.283 59.6474L299.286 54.0474ZM300.543 51.9361C300.565 51.7441 300.634 51.5948 300.751 51.4882C300.874 51.3816 301.021 51.3283 301.191 51.3284C301.282 51.3285 301.373 51.3445 301.463 51.3766C301.554 51.4086 301.669 51.4593 301.807 51.5287C301.919 51.5821 302.013 51.6249 302.087 51.6569C302.162 51.6836 302.231 51.697 302.295 51.697C302.397 51.6971 302.487 51.6624 302.567 51.5931C302.647 51.5239 302.709 51.4279 302.751 51.3052L302.911 51.3853C302.815 51.8226 302.594 52.0412 302.247 52.041C302.162 52.0409 302.076 52.0249 301.991 51.9928C301.906 51.9608 301.797 51.9101 301.663 51.8407C301.541 51.7766 301.442 51.7312 301.367 51.7045C301.293 51.6725 301.221 51.6564 301.151 51.6564C301.045 51.6563 300.951 51.6883 300.871 51.7523C300.791 51.8162 300.735 51.9042 300.703 52.0162L300.543 51.9361ZM301.447 52.2646L302.007 52.2649L302.998 53.4894L302.606 53.4892L301.727 52.6407L300.846 53.4882L300.454 53.488L301.447 52.2646ZM304.849 54.0503L305.689 54.0508L309.094 58.3966L309.097 54.0526L309.801 54.0529L309.798 59.6529L309.382 59.6527L305.552 54.7787L305.55 59.6507L304.846 59.6503L304.849 54.0503ZM315.29 54.0558C316.336 54.0564 317.13 54.2861 317.674 54.7451C318.218 55.204 318.489 55.8762 318.489 56.7615C318.488 57.6841 318.213 58.3987 317.664 58.9051C317.12 59.4061 316.343 59.6564 315.335 59.6558L313.111 59.6547L313.113 56.8707L312.497 56.8703L312.497 56.5183L313.113 56.5187L313.114 54.0547L315.29 54.0558ZM315.448 59.2719C316.157 59.2723 316.701 59.0565 317.08 58.6247C317.464 58.1929 317.657 57.5717 317.657 56.761C317.657 55.9984 317.471 55.4223 317.098 55.0328C316.725 54.6379 316.175 54.4403 315.45 54.4399L313.946 54.4391L313.945 56.5191L315.641 56.52L315.641 56.872L313.945 56.8711L313.944 59.2711L315.448 59.2719ZM322.397 59.7395C321.768 59.7392 321.227 59.6243 320.773 59.3947C320.32 59.1651 319.974 58.8343 319.734 58.4021C319.494 57.9647 319.374 57.4419 319.375 56.8339C319.375 56.2366 319.495 55.7247 319.736 55.2981C319.976 54.8663 320.323 54.5384 320.776 54.3147C321.23 54.0909 321.771 53.9792 322.4 53.9795C323.03 53.9799 323.568 54.0921 324.016 54.3164C324.469 54.5406 324.816 54.8688 325.056 55.3009C325.295 55.7277 325.415 56.2398 325.415 56.8371C325.414 57.4451 325.294 57.9677 325.054 58.4049C324.814 58.8368 324.467 59.1673 324.013 59.3964C323.565 59.6255 323.027 59.7399 322.397 59.7395ZM322.397 59.3555C323.091 59.3559 323.627 59.1375 324.006 58.7004C324.385 58.2632 324.574 57.642 324.575 56.8367C324.575 56.0473 324.386 55.4392 324.008 55.0124C323.635 54.5802 323.099 54.3639 322.4 54.3635C321.701 54.3632 321.163 54.5762 320.784 55.0027C320.405 55.4292 320.215 56.0397 320.215 56.8344C320.214 57.6397 320.403 58.2612 320.782 58.6987C321.16 59.1362 321.699 59.3552 322.397 59.3555ZM322.121 52.2754L322.681 52.2757L323.673 53.5002L323.281 53.5L322.401 52.6515L321.521 53.4991L321.129 53.4989L322.121 52.2754ZM326.45 54.0617L327.29 54.0621L330.696 58.4079L330.698 54.0639L331.402 54.0642L331.399 59.6642L330.983 59.664L327.154 54.79L327.151 59.662L326.447 59.6617L326.45 54.0617ZM335.532 59.7464C334.881 59.7461 334.324 59.6338 333.86 59.4095C333.396 59.18 333.042 58.8491 332.797 58.417C332.552 57.9848 332.429 57.4701 332.429 56.8728C332.43 56.2754 332.55 55.7608 332.79 55.329C333.03 54.8971 333.377 54.5666 333.831 54.3375C334.284 54.1031 334.823 53.986 335.447 53.9864C336.204 53.9868 336.826 54.1524 337.311 54.4833C337.801 54.8089 338.097 55.2597 338.198 55.8358L337.478 55.8354C337.382 55.366 337.161 55.0059 336.815 54.7551C336.468 54.4989 336.02 54.3707 335.471 54.3704C334.783 54.37 334.244 54.5911 333.854 55.0335C333.465 55.4707 333.27 56.0812 333.269 56.8652C333.269 57.6599 333.466 58.276 333.86 58.7135C334.26 59.1457 334.82 59.362 335.54 59.3624C335.876 59.3626 336.183 59.3281 336.46 59.2589C336.738 59.1844 337.002 59.0698 337.252 58.9153L337.253 57.0993L335.293 57.0983L335.294 56.7383L338.086 56.7397L338.084 58.9717C337.77 59.2222 337.393 59.414 336.956 59.5472C336.524 59.6803 336.049 59.7467 335.532 59.7464Z" fill="#4A3021"/>
<path d="M142.163 508.763C143.197 508.611 144.017 508.723 144.622 509.097C145.227 509.472 145.593 510.098 145.722 510.974C145.856 511.887 145.688 512.634 145.218 513.215C144.752 513.79 144.021 514.15 143.024 514.297L140.823 514.619L140.419 511.865L139.81 511.954L139.758 511.606L140.368 511.517L140.01 509.079L142.163 508.763ZM143.079 513.9C143.78 513.797 144.287 513.505 144.599 513.022C144.917 512.539 145.016 511.897 144.899 511.094C144.788 510.34 144.52 509.797 144.094 509.466C143.667 509.13 143.095 509.014 142.377 509.12L140.889 509.338L141.191 511.396L142.869 511.15L142.92 511.498L141.242 511.744L141.591 514.119L143.079 513.9ZM152.886 507.189C152.94 507.559 152.865 507.891 152.66 508.185C152.461 508.478 152.164 508.697 151.77 508.841L152.031 510.622C152.144 511.392 152.028 512.013 151.682 512.484C151.335 512.95 150.703 513.251 149.785 513.385C148.867 513.52 148.172 513.414 147.701 513.069C147.234 512.717 146.944 512.155 146.831 511.385L146.356 508.148L147.179 508.027L147.681 511.446C147.768 512.037 147.974 512.468 148.299 512.738C148.624 513.008 149.101 513.098 149.729 513.005C150.346 512.915 150.773 512.696 151.007 512.349C151.247 512.001 151.323 511.526 151.235 510.925L150.733 507.505L151.556 507.385L151.728 508.556C151.931 508.429 152.077 508.249 152.166 508.015C152.261 507.78 152.29 507.536 152.253 507.282L152.886 507.189ZM159.369 506.149C159.419 506.487 159.359 506.795 159.19 507.073C159.025 507.345 158.776 507.562 158.444 507.724C158.704 508.096 158.874 508.556 158.954 509.105C159.042 509.706 158.999 510.241 158.825 510.709C158.651 511.171 158.356 511.548 157.941 511.841C157.531 512.133 157.014 512.325 156.392 512.416C155.769 512.507 155.217 512.472 154.735 512.311C154.253 512.15 153.862 511.873 153.562 511.481C153.261 511.083 153.066 510.583 152.978 509.982C152.891 509.391 152.936 508.867 153.111 508.41C153.286 507.947 153.581 507.573 153.997 507.285C154.413 506.998 154.933 506.808 155.555 506.717C156.136 506.632 156.654 506.655 157.11 506.788C157.572 506.92 157.954 507.155 158.257 507.493C158.447 507.357 158.582 507.176 158.662 506.948C158.747 506.72 158.772 506.485 158.736 506.242L159.369 506.149ZM156.336 512.036C157.022 511.935 157.52 511.641 157.832 511.154C158.143 510.666 158.24 510.024 158.123 509.227C158.008 508.446 157.733 507.872 157.296 507.505C156.864 507.131 156.302 506.995 155.611 507.097C154.92 507.198 154.418 507.488 154.105 507.965C153.792 508.442 153.694 509.074 153.809 509.86C153.926 510.657 154.204 511.244 154.642 511.622C155.08 511.999 155.645 512.137 156.336 512.036ZM153.984 505.597C153.764 505.489 153.645 505.38 153.629 505.269C153.62 505.211 153.634 505.161 153.671 505.118C153.713 505.068 153.773 505.038 153.852 505.026C154.01 505.003 154.16 505.051 154.302 505.171L155.596 506.226L155.319 506.266L153.984 505.597ZM159.574 506.208L160.405 506.086L164.408 509.889L163.777 505.591L164.473 505.489L165.286 511.03L164.875 511.09L160.376 506.826L161.083 511.647L160.387 511.749L159.574 506.208ZM169.387 510.509C168.743 510.604 168.176 510.574 167.684 510.419C167.192 510.26 166.793 509.984 166.487 509.592C166.182 509.201 165.986 508.709 165.899 508.118C165.812 507.527 165.856 507.001 166.031 506.538C166.206 506.076 166.501 505.699 166.916 505.406C167.331 505.108 167.846 504.914 168.464 504.823C169.213 504.713 169.852 504.786 170.38 505.043C170.913 505.294 171.271 505.697 171.455 506.252L170.743 506.356C170.579 505.906 170.308 505.582 169.929 505.384C169.549 505.181 169.087 505.12 168.543 505.199C167.863 505.299 167.362 505.596 167.041 506.091C166.719 506.58 166.615 507.213 166.729 507.988C166.844 508.775 167.129 509.355 167.583 509.731C168.041 510.1 168.627 510.233 169.339 510.128C169.672 510.079 169.97 510 170.234 509.892C170.498 509.777 170.743 509.626 170.968 509.436L170.704 507.64L168.765 507.924L168.713 507.568L171.475 507.163L171.799 509.371C171.524 509.665 171.18 509.909 170.767 510.105C170.359 510.299 169.899 510.434 169.387 510.509ZM127.842 520.971L128.665 520.85L129.015 523.233L132.569 522.711L132.219 520.329L133.042 520.208L133.855 525.749L133.032 525.87L132.623 523.084L129.069 523.605L129.478 526.391L128.655 526.512L127.842 520.971ZM137.64 525.274C136.722 525.409 136.027 525.304 135.556 524.958C135.089 524.606 134.799 524.044 134.686 523.274L134.211 520.037L135.034 519.916L135.536 523.335C135.623 523.926 135.829 524.357 136.154 524.627C136.48 524.898 136.956 524.987 137.584 524.894C138.202 524.804 138.628 524.585 138.862 524.238C139.102 523.89 139.178 523.415 139.09 522.814L138.588 519.394L139.412 519.274L139.887 522.511C140 523.281 139.883 523.902 139.537 524.373C139.191 524.839 138.558 525.14 137.64 525.274ZM135.248 518.453C135.028 518.346 134.909 518.236 134.893 518.125C134.884 518.067 134.899 518.017 134.935 517.974C134.977 517.925 135.037 517.894 135.116 517.883C135.274 517.859 135.424 517.907 135.566 518.027L136.861 519.082L136.584 519.123L135.248 518.453ZM140.581 519.102L141.412 518.98L145.414 522.783L144.784 518.485L145.48 518.383L146.293 523.924L145.881 523.984L141.383 519.72L142.09 524.541L141.394 524.643L140.581 519.102ZM150.394 523.403C149.75 523.498 149.182 523.468 148.691 523.313C148.198 523.154 147.799 522.878 147.494 522.486C147.188 522.095 146.992 521.603 146.906 521.012C146.819 520.421 146.863 519.894 147.038 519.432C147.212 518.97 147.507 518.592 147.923 518.3C148.337 518.002 148.853 517.807 149.47 517.717C150.22 517.607 150.858 517.68 151.387 517.937C151.919 518.188 152.278 518.591 152.462 519.146L151.749 519.25C151.586 518.8 151.315 518.476 150.935 518.278C150.555 518.075 150.093 518.014 149.55 518.093C148.869 518.193 148.368 518.49 148.047 518.985C147.726 519.474 147.622 520.107 147.736 520.882C147.851 521.669 148.136 522.249 148.59 522.625C149.048 522.994 149.633 523.127 150.346 523.022C150.678 522.973 150.977 522.894 151.241 522.786C151.505 522.671 151.749 522.52 151.975 522.33L151.711 520.533L149.772 520.818L149.72 520.462L152.482 520.056L152.806 522.265C152.531 522.559 152.187 522.803 151.774 522.998C151.366 523.193 150.906 523.328 150.394 523.403ZM154.775 517.019L155.685 516.886L158.58 521.24L160.268 516.213L160.806 516.134L158.773 522.174L158.346 522.236L154.775 517.019ZM167.95 515.086C168.004 515.456 167.929 515.787 167.724 516.082C167.525 516.375 167.228 516.594 166.834 516.738L167.095 518.519C167.208 519.289 167.092 519.91 166.746 520.381C166.399 520.847 165.767 521.147 164.849 521.282C163.93 521.417 163.236 521.311 162.765 520.965C162.298 520.613 162.008 520.052 161.895 519.282L161.42 516.044L162.243 515.924L162.745 519.343C162.832 519.934 163.038 520.365 163.363 520.635C163.688 520.905 164.165 520.994 164.793 520.902C165.41 520.812 165.836 520.593 166.071 520.246C166.311 519.898 166.387 519.423 166.299 518.822L165.797 515.402L166.62 515.281L166.792 516.453C166.995 516.326 167.141 516.146 167.23 515.912C167.325 515.677 167.354 515.432 167.317 515.179L167.95 515.086ZM174.433 514.046C174.483 514.384 174.423 514.692 174.253 514.97C174.088 515.242 173.84 515.459 173.508 515.621C173.767 515.993 173.937 516.453 174.018 517.002C174.106 517.603 174.063 518.138 173.889 518.605C173.715 519.068 173.42 519.445 173.004 519.738C172.594 520.03 172.078 520.221 171.455 520.313C170.833 520.404 170.28 520.369 169.799 520.208C169.317 520.047 168.926 519.77 168.626 519.378C168.325 518.98 168.13 518.48 168.042 517.879C167.955 517.288 168 516.764 168.175 516.307C168.35 515.844 168.645 515.469 169.061 515.182C169.477 514.895 169.997 514.705 170.619 514.614C171.2 514.529 171.718 514.552 172.174 514.685C172.635 514.817 173.017 515.052 173.32 515.39C173.511 515.254 173.646 515.073 173.726 514.845C173.811 514.617 173.836 514.382 173.8 514.139L174.433 514.046ZM171.4 519.933C172.086 519.832 172.584 519.538 172.895 519.05C173.207 518.563 173.304 517.92 173.187 517.124C173.072 516.343 172.797 515.769 172.36 515.401C171.928 515.028 171.366 514.892 170.675 514.994C169.984 515.095 169.482 515.384 169.169 515.862C168.856 516.339 168.758 516.97 168.873 517.757C168.99 518.553 169.267 519.141 169.706 519.518C170.144 519.896 170.708 520.034 171.4 519.933ZM174.638 514.105L175.469 513.983L179.471 517.786L178.841 513.488L179.537 513.386L180.35 518.927L179.939 518.987L175.44 514.723L176.147 519.543L175.451 519.646L174.638 514.105ZM184.451 518.406C183.807 518.5 183.239 518.47 182.748 518.316C182.255 518.157 181.857 517.881 181.551 517.489C181.246 517.097 181.05 516.606 180.963 516.015C180.876 515.424 180.92 514.897 181.095 514.435C181.27 513.973 181.565 513.595 181.98 513.303C182.394 513.005 182.91 512.81 183.528 512.72C184.277 512.61 184.916 512.683 185.444 512.94C185.977 513.191 186.335 513.593 186.519 514.149L185.806 514.253C185.643 513.803 185.372 513.479 184.993 513.281C184.612 513.078 184.151 513.016 183.607 513.096C182.926 513.196 182.426 513.493 182.105 513.988C181.783 514.477 181.679 515.109 181.793 515.885C181.908 516.671 182.193 517.252 182.647 517.628C183.105 517.997 183.691 518.129 184.403 518.025C184.736 517.976 185.034 517.897 185.298 517.788C185.562 517.674 185.806 517.522 186.032 517.333L185.768 515.536L183.829 515.821L183.777 515.465L186.539 515.059L186.863 517.268C186.588 517.561 186.244 517.806 185.831 518.001C185.423 518.196 184.963 518.331 184.451 518.406Z" fill="#4A3021"/>
<path d="M310.759 568.73C310.759 568.73 266.442 495.33 254.848 470.487C243.254 445.643 215.024 381.457 210.506 362.398C205.988 343.339 179.92 316.747 175.158 310.659C170.395 304.57 140.755 247.14 135.798 244.657C130.841 242.174 118.909 246.886 123.132 238.222C127.354 229.558 124.331 207.755 122.287 196.845C120.244 185.934 109.553 154.986 100.636 136.408C91.7183 117.83 85.5284 110.399 78.0973 106.185C70.6662 101.971 67.6938 99.0073 57.78 101.482C47.8663 103.956 46.1436 94.0504 41.6849 92.8175C37.2262 91.5846 -8.34843 89.5918 -16.0329 90.3349C-23.7173 91.078 -61.0502 92.294 -67.8226 87.2105C-74.5951 82.1269 -82.9128 83.5202 -90.3017 89.2118C-97.6906 94.9033 -96.7702 95.2158 -103.813 93.2144C-110.855 91.2131 -121.208 95.2411 -127.837 85.2936C-134.466 75.346 -141.534 76.7393 -148.948 76.5873C-156.363 76.4353 -170.507 78.7406 -176.047 71.8162C-181.586 64.8918 -223.445 33.166 -223.445 33.166" stroke="#4A3021" stroke-width="3" stroke-miterlimit="10"/>
<path d="M-72.7344 568.19C-72.7344 568.19 -43.8627 560.936 -37.1832 554.594C-30.5036 548.252 -24.1619 549.164 -15.8948 546.901C-7.62766 544.638 9.24435 538.178 13.7706 530.012C18.2968 521.846 29.7389 509.965 39.2474 508.496C48.7558 507.026 66.9874 506.461 74.2328 496.158C81.4781 485.856 95.5212 487.444 102.319 485.4C109.117 483.357 123.042 477.023 126.208 471.045C129.375 465.066 143.756 457.534 148.291 453.497C152.825 449.461 160.957 418.216 155.24 394.082" stroke="#4A3021" stroke-width="3" stroke-miterlimit="10"/>
<path d="M148.286 453.488C148.286 453.488 147.196 471.382 140.491 476.888C133.787 482.394 119.887 504.526 129.37 504.56C138.853 504.594 160.902 497.146 169.059 497.45C177.216 497.754 194.629 494.537 194.95 499.046" stroke="#4A3021" stroke-width="3" stroke-miterlimit="10"/>
<path d="M194.734 497.493C194.734 497.493 211.378 519.702 222.331 513.403C233.283 507.103 266.158 497.502 266.386 492.545" stroke="#4A3021" stroke-width="2.53333" stroke-miterlimit="10"/>
<path d="M268.758 496.816C268.758 496.816 306.606 505.818 310.761 498.505C314.915 491.192 318.547 485.231 309.553 483.305C300.56 481.38 286.424 473.028 281.687 462.751C281.687 462.751 271.199 440.906 273.977 422.919C276.755 404.932 280.192 378.805 279.119 374.955C278.047 371.104 259.52 335.806 257.248 325.394C254.977 314.982 245.223 302.797 252.536 294.352C259.849 285.908 269.915 269.863 264.882 263.648C259.849 257.433 257.282 255.964 254.808 255.584C252.334 255.204 246.203 255.694 244.582 252.603C242.96 249.512 241.018 246.455 230.859 253.996" stroke="#4A3021" stroke-width="3" stroke-miterlimit="10"/>
<path d="M174.332 310.753C183.339 308.36 201.945 305.01 204.31 310.753C207.265 317.93 220.776 360.996 222.888 360.574" stroke="#4A3021" stroke-width="0.5"/>
<path d="M211.066 330.176C223.733 328.628 249.911 325.953 252.022 325.531" stroke="#4A3021" stroke-width="0.5"/>
<path d="M207.266 318.777C219.932 317.229 247.377 314.133 249.488 314.133" stroke="#4A3021" stroke-width="0.5"/>
<path d="M203.887 310.331C216.553 308.783 246.109 304.42 248.22 304.42" stroke="#4A3021" stroke-width="0.5"/>
</g>
</g>
<defs>
<clipPath id="clip0_5632_14133">
<rect width="382" height="570" fill="white"/>
</clipPath>
<clipPath id="clip1_5632_14133">
<rect width="665.422" height="570" fill="white" transform="translate(-221.711)"/>
</clipPath>
</defs>
</svg>
