<svg width="788" height="675" viewBox="0 0 788 675" fill="none" xmlns="http://www.w3.org/2000/svg">
<g clip-path="url(#clip0_5617_11036)">
<path d="M369.98 -1.02539H-2.57031V676.977H404.342C404.342 676.977 403.911 652.505 389.919 642.456C375.928 632.406 350.152 615.375 359.329 606.62C368.506 597.864 377.683 581.706 389.047 584.334C400.41 586.962 397.351 596.129 404.342 598.315C411.333 600.502 413.519 607.933 406.97 611.424C400.42 614.914 402.597 646.818 406.528 659.054C410.46 671.291 410.891 676.977 410.891 676.977H451.541C451.541 676.977 433.247 637.862 438.122 600.592C439.897 585.547 440.539 585.668 446.777 586.229C453.016 586.791 459.635 586.992 461.14 585.096C462.644 583.2 469.083 582.087 469.274 576.781C469.464 571.476 471.079 541.547 480.798 541.387C490.516 541.226 494.769 544.215 492.833 532.13C490.898 520.044 494.839 512.682 481.219 508.44C467.599 504.197 453.186 500.095 449.124 492.222C445.062 484.348 445.764 472.162 451.642 476.074C457.519 479.986 455.423 479.424 458.04 475.653C460.658 471.882 466.435 459.495 465.172 454.36C463.908 449.225 466.084 451.07 456.386 440.509C446.687 429.948 437.64 424.351 437.42 420.901C437.199 417.451 439.576 412.065 434.411 411.634C429.245 411.202 420.831 411.634 414.151 414.001C407.471 416.368 400.571 422.626 398.414 420.249C396.258 417.872 386.128 410.771 384.624 408.825C383.119 406.88 388.174 404.091 393.079 410.119C397.983 416.147 405.626 417.411 407.932 413.82C410.239 410.229 404.924 413.71 401.453 411.052C397.983 408.394 393.359 399.137 396.719 399.247C400.079 399.357 402.316 395.897 402.908 398.545C403.499 401.193 404.793 406.509 409.327 405.646C413.86 404.783 416.939 402.757 423.529 405.004C430.118 407.251 441.502 409.648 444.34 410.39C447.178 411.132 447.64 420.42 452.273 424.02C456.907 427.621 460.959 434.2 465.904 433.899C470.848 433.598 477.127 432.896 477.729 428.363C478.33 423.83 476.084 401.865 480.276 400.36C477.127 398.565 463.657 390.331 456.315 377.904C448.974 365.477 442.274 346.762 441.943 339.28C441.612 331.798 442.845 295.561 448.532 292.421C454.219 289.282 460.658 289.413 460.809 283.585C460.959 277.758 459.013 277.568 455.573 275.05C452.133 272.533 453.477 258.441 456.165 250.979C458.853 243.517 461.109 239.946 467.849 238.251C474.589 236.556 483.265 232.565 484.017 230.168C484.769 227.77 495.05 234.661 503.776 233.618C512.501 232.575 514.708 233.166 517.697 231.07C515.902 228.974 514.688 223.879 520.244 220.89C525.801 217.901 529.823 215.203 528.629 212.656C527.435 210.108 526.533 208.915 519.502 205.314C512.471 201.713 506.464 197.381 502.582 193.038C498.701 188.695 486.113 179.418 484.759 176.278C483.405 173.139 475.482 173.731 473.235 172.828C470.989 171.925 468.15 169.238 467.549 163.4C466.947 157.563 467.248 158.305 460.658 154.263C454.069 150.221 448.081 149.921 449.134 143.341C450.187 136.762 456.466 135.699 454.37 133.311C452.273 130.924 443.889 129.41 444.791 121.276C445.694 113.142 448.683 107.505 443.889 102.711C439.095 97.9169 439.546 93.885 442.093 91.4879C444.641 89.0908 443.899 84.2465 442.655 75.8818C441.411 67.5171 441.883 57.8987 444.862 52.8136C447.84 47.7286 451.782 43.787 448.512 40.5976C445.243 37.4081 447.84 33.7674 447.75 32.2328C447.66 30.6983 447.65 28.7726 440.539 26.6564C433.428 24.5401 434.682 25.6534 429.617 21.0799C424.552 16.5064 420.71 10.0473 416.147 10.4585C411.583 10.8697 409.306 14.1895 405.886 13.4674C402.466 12.7452 398.424 5.895 395.857 4.75162C393.289 3.60825 394.091 13.0461 391.604 13.7783C389.117 14.5105 388.084 16.055 382.999 13.4674C377.914 10.8797 369.98 -1.02539 369.98 -1.02539Z" fill="white"/>
<path d="M488.098 43.3352C488.098 43.3352 491.779 51.1984 495.118 51.6497C498.458 52.101 512.279 54.3176 513.472 56.8451C514.666 59.3725 517.775 54.4681 521.185 51.058C524.595 47.6479 523.562 44.2278 522.379 39.6242C521.195 35.0206 522.971 29.5244 517.926 28.5916C513.122 27.655 508.598 25.6232 504.707 22.6541C501.698 20.2771 499.511 28.3008 497.586 32.6035C495.655 37.1049 492.328 40.8669 488.098 43.3352Z" fill="white"/>
<path d="M519.277 -1.02539C519.277 -1.02539 521.654 8.90394 521.283 10.0072C520.912 11.1105 526.529 4.3705 529.879 10.4585C533.229 16.5465 535.435 19.0539 535.816 24.0787C536.197 29.1036 542.837 37.6689 548.454 43.135C554.07 48.6012 559.917 52.934 559.917 55.7322C559.917 58.5305 561.743 59.0922 563.839 60.9076C565.935 62.7229 573.076 66.2232 571.953 70.2852C570.83 74.3472 572.013 76.3833 568.483 76.3833C564.952 76.3833 564.381 82.2004 564.762 86.4931C565.143 90.7858 563.759 94.9882 566.667 96.0413C569.576 97.0944 570.609 95.4696 572.073 97.8567C573.538 100.244 574.25 102.691 577.259 103.694C580.268 104.697 583.367 101.588 585.182 103.694C586.997 105.8 586.426 106.934 588.713 105.89C590.999 104.847 592.434 101.879 595.202 103.503C597.97 105.128 599.404 105.118 599.695 109.802C599.986 114.486 598.923 115.82 603.607 119.34C608.29 122.861 611.52 124.786 614.479 125.93C617.437 127.073 618.872 128.317 623.355 127.645C627.838 126.973 629.272 128.317 630.235 123.352C631.198 118.387 634.247 114.185 636.534 114.376C638.821 114.566 640.154 113.523 639.543 108.939C638.931 104.356 637.727 94.6271 638.971 91.3775C640.215 88.1279 642.311 87.9474 642.792 85.7509C643.274 83.5544 644.026 70.5761 644.026 67.0457C644.026 63.5153 643.835 56.5446 646.704 54.7293C649.572 52.9139 653.193 51.1989 654.146 48.4307C655.099 45.6625 655.149 40.5073 658.82 40.7981C662.49 41.089 667.224 41.8011 668.558 45.7628C669.892 49.7245 672.38 48.7717 673.904 49.4838C675.429 50.1959 677.625 55.4013 677.816 59.3128C678.006 63.2244 678.006 65.2303 681.346 67.1359C684.351 68.9983 687.477 70.6569 690.704 72.1006C694.515 73.7254 695.658 75.2499 696.421 70.9572C697.183 66.6645 701.576 66.6846 698.717 63.3849C695.859 60.0851 690.122 58.7411 690.413 53.7765C690.704 48.8118 692.228 44.138 696.04 44.138C699.851 44.138 706.831 44.3286 708.446 43.466C710.061 42.6035 714.364 43.1852 714.554 39.3639C714.745 35.5426 716.089 29.916 718.285 28.6723C720.482 27.4287 723.15 24.8611 721.625 20.2775C720.101 15.694 718.616 11.8827 716.089 8.73342C713.561 5.58411 713.22 0.709715 710.171 2.71564C707.122 4.72157 706.922 8.82369 703.151 7.29919C699.379 5.77469 697.042 4.72157 694.565 2.28437C693.432 1.10251 692.219 -4.35478e-05 690.934 -1.01541L519.277 -1.02539Z" fill="white"/>
<path d="M483.813 442.192C483.813 442.192 491.074 442.303 491.666 446.595C492.257 450.888 492.408 455.04 495.136 456.234C497.864 457.427 494.053 450.045 498.456 446.826C502.859 443.606 514.403 436.716 512.738 433.617C511.073 430.518 510.953 428.02 507.021 430.287C503.09 432.554 500.161 433.858 498.356 431.471C496.55 429.084 490.954 422.665 490.833 427.549C490.713 432.433 486.671 438.501 484.816 439.334C482.96 440.166 483.813 442.192 483.813 442.192Z" fill="white"/>
<path d="M513.422 466.766C513.422 466.766 521.756 467.769 523.742 470.969C525.728 474.168 529.68 475.843 534.304 475.422C538.927 475.001 542.327 479.223 543.541 481.53C544.754 483.837 547.011 483.185 546.76 481.119C546.509 479.053 541.745 473.446 541.485 471.219C541.224 468.993 542.056 467.418 540.241 465.773C538.426 464.128 537.854 459.334 534.304 460.488C530.753 461.641 529.931 463.627 526.711 463.296C523.491 462.965 516.31 462.143 515.408 463.707C514.505 465.272 513.422 466.766 513.422 466.766Z" fill="white"/>
<path d="M583.82 470.707C583.82 470.707 589.025 476.986 592.706 474.719C596.387 472.453 597.801 472.663 597.36 468.872C596.918 465.081 599.426 460.287 596.497 460.347C593.569 460.407 589.777 459.344 588.373 460.347C586.969 461.35 582.275 460.949 583.82 470.707Z" fill="white"/>
<path d="M641.093 478.008C641.534 478.159 649.718 476.133 655.666 483.023C658.494 483.023 662.506 482.923 664.001 486.634C665.495 490.345 672.767 491.989 673.81 491.839C674.853 491.689 672.175 500.324 667.862 497.937C663.549 495.55 662.506 488.419 658.494 489.763C654.482 491.107 656.559 494.517 649.869 494.377C643.179 494.236 641.384 498.088 637.372 492.591C633.36 487.095 631.725 483.364 635.145 481.137C637.009 479.882 639.003 478.833 641.093 478.008Z" fill="white"/>
<path d="M622.113 445.703C622.113 445.703 630.057 446.355 630.057 451.932C630.057 457.508 628.552 460.577 623.618 460.327C618.683 460.076 606.878 458.802 603.017 457.318C599.156 455.833 592.606 451.3 590.731 447.449C588.855 443.597 589.497 434.781 584.994 430.92C580.49 427.058 581.985 425.353 575.967 425.775C569.949 426.196 570.611 423.227 564.583 422.986C558.556 422.746 554.624 418.192 553.029 416.096C551.435 414 546.139 406.257 543.19 405.154C540.242 404.05 534.705 403.148 531.746 402.817C531.746 400.971 522.65 393.71 523.723 387.562C524.796 381.414 527.474 375.636 523.632 374.032C519.791 372.427 514.546 371.835 509.771 372.026C504.997 372.216 504.215 368.014 506.873 364.895C509.531 361.776 510.885 357.463 514.175 357.102C517.464 356.741 517.745 356.099 521.366 357.894C524.986 359.689 526.501 363.029 529.159 361.394C531.817 359.759 532.539 358.977 532.719 363.21C532.9 367.442 531.215 369.368 533.933 372.327C536.651 375.285 539.309 378.665 541.184 375.646C543.06 372.628 542.187 368.465 544.805 369.629C547.423 370.792 548.004 372.888 550 370.632C551.996 368.375 559.709 363.15 563.56 364.865C564.194 365.17 564.894 365.314 565.597 365.286C566.3 365.258 566.985 365.058 567.593 364.704C568.2 364.35 568.712 363.852 569.083 363.254C569.453 362.656 569.672 361.976 569.719 361.274C569.548 359.639 574.091 355.366 572.727 352.247C571.363 349.128 574.352 347.233 577.271 350.793C580.19 354.354 582.065 356.62 585.295 357.212C588.524 357.804 590.309 360.04 591.633 362.778C592.957 365.516 593.639 365.948 598.905 366.209C604.17 366.469 610.038 367.492 612.435 364.403C614.832 361.314 617.058 361.154 621.251 362.096C625.443 363.039 625.022 361.926 628.191 360.893C631.361 359.86 634.44 358.757 635.894 362.006C637.348 365.256 635.553 368.606 637.178 373.039C638.803 377.472 638.542 379.638 641.972 378.866C645.402 378.094 645.653 376.208 646.425 380.24C647.197 384.272 646.766 388.966 649.434 391.704C652.102 394.442 655.602 397.952 659.113 395.475C662.623 392.998 663.907 388.023 664.338 385.796C664.769 383.57 669.353 379.377 669.132 375.265C668.912 371.153 669.303 363.882 673.585 367.312C677.868 370.742 679.322 370.902 680.255 374.242C681.188 377.582 681.258 381.002 686.082 380.581C690.907 380.16 692.16 376.81 694.297 378.695C696.433 380.581 699.311 380.491 699.863 385.716C700.415 390.942 702.09 399.417 699.351 400.61C696.613 401.804 693.334 401.814 694.126 405.745C694.918 409.677 692.331 416.367 694.898 418.593C697.466 420.82 699.693 418.333 702.18 421.672C704.667 425.012 706.372 425.444 707.486 429.034C708.599 432.625 710.224 435.714 706.974 435.975C703.724 436.235 701.839 438.452 699.953 439.304C698.068 440.157 699.01 439.305 695.069 439.736C691.127 440.167 690.535 441.11 690.535 444.53C690.535 447.95 693.615 448.542 689.252 450.698C684.889 452.854 681.97 452.323 678.63 451.892C675.29 451.46 668.36 449.244 671.61 446.757C674.859 444.269 676.233 440.418 679.633 439.655C683.033 438.893 686.052 439.736 686.393 438.372C686.734 437.008 688.449 432.113 684.849 432.635C681.248 433.156 678.691 433.227 674.318 435.794C669.945 438.362 670.045 440.588 664.288 440.809C660.48 441.05 656.696 440.058 653.496 437.981C652.042 436.978 647.93 435.975 642.363 436.436C636.797 436.897 633.126 435.152 635.092 430.789C637.058 426.426 640.106 421.763 642.193 421.542C644.279 421.321 647.759 418.714 647.207 417.35C646.656 415.986 647.639 411.693 644.73 411.863C641.822 412.034 638.221 413.498 637.529 415.805C636.972 417.543 636.05 419.142 634.823 420.493C633.596 421.844 632.094 422.917 630.418 423.638C626.225 425.263 622.033 425.785 620.92 429.716C619.807 433.648 618.784 439.054 619.375 440.939C619.967 442.825 619.506 444.379 622.113 445.703Z" fill="white"/>
<path d="M475.902 95.3889C475.902 95.3889 482.03 93.383 481.498 98.1371C480.967 102.891 482.561 105.539 477.908 104.696C473.254 103.854 464.799 101.156 467.647 99.9123C470.496 98.6686 475.902 95.3889 475.902 95.3889Z" fill="white"/>
<path d="M283.772 678C268.729 667.955 196.013 592.748 181.971 506.995C176.455 487.938 164.568 455.544 161.021 443.498L140.21 405.566L126.068 375.978L106.249 326.461C106.249 326.461 101.081 316.792 111.262 310.414" stroke="#4A3021" stroke-width="3.00889" stroke-miterlimit="10"/>
<path d="M364.635 676.979C364.635 676.979 365.427 629.839 337.605 614.925C309.783 600.011 270.878 581.557 270.878 581.557C270.878 581.557 257.698 574.696 254.689 570.684C253.034 569.028 248.432 557.897 246.376 555.44C244.32 552.982 231.571 541.457 227.609 535.58C223.648 529.703 209.888 510.347 208.383 499.414C206.879 488.482 199.036 454.471 197.862 441.333C196.689 428.194 195.987 407.553 205.605 396.52C215.223 385.488 237.038 356.642 239.616 351.016C242.193 345.389 267.568 306.033 267.568 306.033C297.817 263.777 373.039 199.086 423.187 193.068" stroke="#4A3021" stroke-width="3.00889" stroke-miterlimit="10"/>
<path d="M-2.44922 103.363C-2.44922 103.363 18.1315 106.101 17.3292 115.108C16.5268 124.115 20.3382 127.144 21.1806 129.581C22.0231 132.018 17.6501 145.819 16.0353 148.557C14.4205 151.295 16.1957 154.344 17.4896 159.81C18.7834 165.276 23.1164 187.311 21.9931 189.558C20.8698 191.805 30.5082 195.185 30.5082 195.185C30.5082 195.185 53.3455 200.199 57.3674 204.352C61.3893 208.504 67.9789 212.556 70.5464 218.985C73.114 225.414 77.4669 232.023 77.6274 237.8C77.7879 243.577 83.8959 250.498 84.8587 251.471C85.8216 252.444 84.2169 256.486 85.6712 259.986C87.1255 263.486 89.3619 271.41 98.0476 272.694C106.733 273.977 111.237 272.854 117.184 277.197C123.132 281.54 131.818 285.221 136.802 286.043C141.787 286.865 150.793 287.166 156.26 290.546C161.726 293.926 165.748 292.151 163.01 301.639C160.271 311.127 159.408 321.447 159.408 321.447" stroke="#4A3021" stroke-width="1.00296" stroke-miterlimit="10"/>
<path d="M414.892 322.178C414.892 322.178 425.373 323.753 425.674 315.418C425.975 307.083 424.751 299.371 432.314 298.287C439.876 297.204 438.332 294.587 438.944 290.886C439.555 287.185 434.631 255.862 431.692 250.617C428.753 245.371 415.645 228.551 420.89 221.761C426.136 214.971 423.829 196.607 422.284 190.288C420.74 183.97 434.932 158.655 434.932 158.655C434.932 158.655 441.571 131.966 442.343 121.776C443.116 111.586 439.505 100.503 435.252 94.9668C431 89.4305 439.786 69.5919 438.372 64.7676C436.958 59.9434 439.786 45.932 424.2 39.9042C408.614 33.8764 402.937 21.1187 391.884 19.7045C380.832 18.2903 367.813 18.2803 364.955 10.6779C363.512 6.48624 361.41 2.55189 358.727 -0.976562" stroke="#4A3021" stroke-width="3.00889" stroke-miterlimit="10"/>
<path d="M292.68 347.271H289.165V346.585H297.963V347.271H294.449V355.01H292.68V347.271ZM298.927 346.585H300.709V350.147H305.487V346.585H307.268V355.01H305.487V350.833H300.709V355.01H298.927V346.585ZM315.03 352.855H310.552L309.505 355.01H308.278L312.659 346.465H313.742L317.87 355.01H316.041L315.03 352.855ZM314.705 352.169L312.839 348.186L310.889 352.169H314.705ZM310.986 344.443C310.657 344.226 310.492 344.025 310.492 343.841C310.492 343.728 310.536 343.64 310.625 343.576C310.713 343.512 310.829 343.48 310.974 343.48C311.134 343.48 311.279 343.508 311.407 343.564C311.535 343.62 311.656 343.712 311.768 343.841L313.417 345.742H312.839L310.986 344.443ZM318.897 346.585H320.654L325.239 352.555V346.585H326.876V355.01H325.745L320.533 348.149V355.01H318.897V346.585ZM328.617 346.585H330.398V350.147H335.176V346.585H336.957V355.01H335.176V350.833H330.398V355.01H328.617V346.585ZM342.086 346.585H345.504C346.732 346.585 347.678 346.789 348.344 347.199C349.018 347.6 349.355 348.262 349.355 349.185C349.355 350.099 349.026 350.761 348.368 351.17C347.71 351.58 346.756 351.784 345.504 351.784H343.867V355.01H342.086V346.585ZM345.528 351.086C346.21 351.086 346.724 350.946 347.069 350.665C347.414 350.384 347.586 349.891 347.586 349.185C347.586 348.495 347.414 348.005 347.069 347.716C346.732 347.419 346.218 347.271 345.528 347.271H343.867V351.086H345.528ZM350.49 346.585H352.271V350.147H357.049V346.585H358.831V355.01H357.049V350.833H352.271V355.01H350.49V346.585ZM365.112 355.13C364.125 355.13 363.27 354.958 362.548 354.613C361.834 354.268 361.288 353.77 360.911 353.12C360.534 352.462 360.346 351.676 360.346 350.761C360.346 349.863 360.534 349.092 360.911 348.45C361.296 347.808 361.846 347.319 362.56 346.982C363.274 346.637 364.125 346.465 365.112 346.465C366.091 346.465 366.933 346.637 367.639 346.982C368.353 347.319 368.899 347.808 369.276 348.45C369.661 349.092 369.854 349.863 369.854 350.761C369.854 351.676 369.665 352.462 369.288 353.12C368.911 353.77 368.365 354.268 367.651 354.613C366.937 354.958 366.091 355.13 365.112 355.13ZM365.112 354.444C366.059 354.444 366.785 354.131 367.29 353.505C367.796 352.871 368.048 351.957 368.048 350.761C368.048 349.59 367.796 348.695 367.29 348.077C366.785 347.459 366.059 347.151 365.112 347.151C364.157 347.151 363.423 347.463 362.909 348.089C362.404 348.707 362.151 349.598 362.151 350.761C362.151 351.957 362.404 352.871 362.909 353.505C363.415 354.131 364.149 354.444 365.112 354.444ZM367.386 342.818C367.539 342.625 367.723 342.529 367.94 342.529C368.069 342.529 368.169 342.557 368.241 342.613C368.321 342.669 368.361 342.746 368.361 342.842C368.361 342.922 368.309 343.018 368.205 343.131C368.109 343.235 367.944 343.379 367.711 343.564L366.869 344.214H366.327L367.386 342.818ZM364.594 343.805H365.629L367.23 345.742H366.376L365.112 344.551L363.848 345.742H362.994L364.594 343.805ZM290.212 362.585H291.969L296.555 368.555V362.585H298.192V371.01H297.06L291.849 364.149V371.01H290.212V362.585ZM299.932 362.585H301.714V366.147H306.492V362.585H308.273V371.01H306.492V366.833H301.714V371.01H299.932V362.585ZM316.035 368.855H311.557L310.51 371.01H309.283L313.664 362.465H314.747L318.875 371.01H317.046L316.035 368.855ZM315.71 368.169L313.844 364.186L311.894 368.169H315.71ZM326.03 363.271H322.516V362.585H331.314V363.271H327.8V371.01H326.03V363.271ZM339.138 369.18C339.339 369.686 339.515 370.087 339.668 370.384C339.828 370.681 339.977 370.841 340.113 370.865V371.01H338.344C338.199 370.857 338.067 370.661 337.947 370.42C337.826 370.179 337.694 369.866 337.549 369.481C337.349 368.944 337.148 368.518 336.948 368.205C336.755 367.893 336.51 367.684 336.214 367.58H335.973H334.047V371.01H332.278V362.585H335.973C337.2 362.585 338.147 362.777 338.813 363.163C339.479 363.548 339.812 364.182 339.812 365.064C339.812 366.284 339.138 367.062 337.79 367.399C338.079 367.56 338.328 367.784 338.536 368.073C338.753 368.354 338.954 368.723 339.138 369.18ZM334.047 366.894H335.997C336.647 366.894 337.152 366.761 337.513 366.496C337.874 366.224 338.055 365.746 338.055 365.064C338.055 364.398 337.874 363.933 337.513 363.668C337.152 363.403 336.647 363.271 335.997 363.271H334.047V366.894ZM347.134 368.855H342.657L341.61 371.01H340.382L344.763 362.465H345.846L349.975 371.01H348.145L347.134 368.855ZM346.809 368.169L344.944 364.186L342.994 368.169H346.809ZM351.001 362.585H352.758L357.344 368.555V362.585H358.981V371.01H357.849L352.638 364.149V371.01H351.001V362.585ZM365.379 371.13C364.376 371.13 363.506 370.958 362.767 370.613C362.037 370.268 361.476 369.77 361.082 369.12C360.689 368.47 360.493 367.7 360.493 366.809C360.493 365.927 360.689 365.16 361.082 364.511C361.476 363.853 362.037 363.351 362.767 363.006C363.497 362.653 364.36 362.477 365.355 362.477C366.542 362.477 367.513 362.729 368.268 363.235C369.022 363.74 369.467 364.434 369.604 365.317H368.183C368.039 364.627 367.726 364.097 367.245 363.728C366.763 363.351 366.145 363.163 365.391 363.163C364.42 363.163 363.662 363.484 363.116 364.125C362.571 364.759 362.298 365.65 362.298 366.797C362.298 367.945 362.567 368.839 363.104 369.481C363.65 370.123 364.412 370.444 365.391 370.444C365.824 370.444 366.218 370.4 366.571 370.312C366.924 370.215 367.285 370.059 367.654 369.842V367.207H364.753V366.569H369.435V369.878C368.994 370.272 368.412 370.58 367.69 370.805C366.968 371.022 366.197 371.13 365.379 371.13Z" fill="#4A3021"/>
<path d="M126.623 403.843C126.194 402.987 126.089 402.217 126.308 401.533C126.527 400.848 127.055 400.296 127.892 399.876C128.709 399.466 129.454 399.376 130.127 399.607C130.802 399.843 131.353 400.387 131.78 401.238C132.128 401.931 132.265 402.568 132.192 403.15C132.118 403.731 131.841 404.193 131.361 404.536L131.037 403.891C131.408 403.603 131.628 403.244 131.699 402.813C131.775 402.38 131.693 401.924 131.453 401.446C131.142 400.825 130.71 400.443 130.16 400.3C129.612 400.162 128.982 400.272 128.269 400.629C127.543 400.994 127.067 401.442 126.843 401.973C126.624 402.502 126.671 403.08 126.986 403.706C127.226 404.184 127.538 404.521 127.924 404.717C128.309 404.912 128.73 404.946 129.187 404.819L129.511 405.464C128.949 405.645 128.413 405.59 127.903 405.302C127.393 405.013 126.967 404.527 126.623 403.843ZM131.432 409.991L129.982 407.101L128.349 407.103L128.097 406.601L134.499 406.657L134.693 407.044L130.836 412.059L130.433 411.256L131.432 409.991ZM131.694 409.653L133.714 407.096L130.412 407.1L131.694 409.653ZM132.176 414.91C131.893 414.345 131.753 413.809 131.754 413.299C131.756 412.789 131.896 412.33 132.176 411.921C132.46 411.509 132.874 411.166 133.419 410.892C133.955 410.624 134.468 410.501 134.958 410.524C135.454 410.545 135.904 410.708 136.308 411.014C136.713 411.32 137.057 411.754 137.34 412.319C137.623 412.883 137.765 413.416 137.766 413.918C137.769 414.426 137.631 414.884 137.351 415.293C137.077 415.7 136.672 416.038 136.136 416.307C135.591 416.58 135.069 416.708 134.569 416.69C134.074 416.669 133.621 416.507 133.212 416.203C132.805 415.905 132.46 415.474 132.176 414.91ZM132.521 414.737C132.833 415.358 133.27 415.741 133.832 415.883C134.394 416.026 135.037 415.916 135.759 415.554C136.466 415.199 136.926 414.756 137.138 414.224C137.357 413.695 137.31 413.118 136.996 412.491C136.681 411.865 136.248 411.478 135.695 411.331C135.142 411.183 134.51 411.288 133.797 411.645C133.075 412.008 132.604 412.457 132.382 412.993C132.16 413.529 132.206 414.111 132.521 414.737ZM140.533 419.719L139.468 417.597L139.812 417.424L142.313 422.408L141.969 422.581L140.907 420.465L136.231 422.811L135.857 422.066L140.533 419.719ZM138.811 428.132C138.528 427.568 138.387 427.031 138.389 426.521C138.391 426.012 138.531 425.552 138.811 425.143C139.095 424.731 139.509 424.388 140.054 424.115C140.59 423.846 141.103 423.724 141.593 423.747C142.088 423.768 142.538 423.931 142.943 424.236C143.348 424.542 143.692 424.977 143.975 425.541C144.258 426.105 144.4 426.638 144.4 427.141C144.404 427.648 144.265 428.106 143.986 428.516C143.712 428.923 143.307 429.261 142.771 429.529C142.226 429.803 141.704 429.93 141.204 429.912C140.708 429.891 140.256 429.729 139.847 429.426C139.439 429.127 139.094 428.696 138.811 428.132ZM139.156 427.959C139.467 428.581 139.904 428.963 140.467 429.106C141.029 429.248 141.671 429.139 142.393 428.776C143.101 428.421 143.561 427.978 143.773 427.447C143.992 426.918 143.945 426.34 143.631 425.714C143.316 425.087 142.883 424.701 142.33 424.553C141.777 424.406 141.144 424.51 140.432 424.868C139.71 425.23 139.238 425.679 139.017 426.216C138.795 426.752 138.841 427.333 139.156 427.959ZM146.767 425.882C146.932 425.924 147.037 425.991 147.083 426.082C147.114 426.144 147.123 426.203 147.108 426.258C147.099 426.311 147.068 426.35 147.015 426.376C146.967 426.4 146.908 426.4 146.836 426.377C146.764 426.353 146.649 426.303 146.491 426.226L145.715 425.826L145.597 425.589L146.767 425.882ZM145.376 424.524L145.628 425.026L144.977 426.465L144.801 426.114L145.165 424.944L144.009 424.536L143.833 424.185L145.376 424.524ZM141.9 434.287C141.47 433.431 141.365 432.661 141.584 431.976C141.803 431.292 142.331 430.74 143.168 430.32C143.985 429.91 144.73 429.82 145.403 430.051C146.078 430.287 146.629 430.831 147.056 431.682C147.404 432.375 147.541 433.012 147.468 433.594C147.394 434.175 147.118 434.637 146.637 434.98L146.313 434.334C146.684 434.047 146.905 433.688 146.976 433.257C147.052 432.824 146.97 432.368 146.73 431.89C146.418 431.269 145.987 430.886 145.436 430.744C144.888 430.606 144.258 430.716 143.546 431.073C142.819 431.438 142.344 431.886 142.119 432.417C141.9 432.946 141.948 433.524 142.262 434.15C142.502 434.628 142.814 434.965 143.2 435.161C143.585 435.356 144.006 435.39 144.463 435.263L144.787 435.908C144.225 436.088 143.689 436.034 143.179 435.745C142.669 435.457 142.243 434.971 141.9 434.287ZM145.478 441.417C145.103 440.671 145.037 439.984 145.277 439.354C145.525 438.727 146.063 438.206 146.89 437.791C147.717 437.376 148.454 437.258 149.1 437.436C149.753 437.617 150.267 438.08 150.641 438.826C151.013 439.567 151.075 440.251 150.827 440.879C150.586 441.508 150.052 442.03 149.225 442.445C148.398 442.86 147.659 442.98 147.008 442.804C146.362 442.625 145.852 442.163 145.478 441.417ZM145.779 441.266C146.028 441.763 146.42 442.049 146.953 442.122C147.489 442.2 148.121 442.057 148.847 441.692C149.574 441.328 150.066 440.907 150.324 440.431C150.584 439.959 150.589 439.475 150.34 438.977C150.09 438.48 149.698 438.192 149.162 438.114C148.628 438.041 147.998 438.187 147.271 438.551C146.545 438.916 146.051 439.334 145.791 439.806C145.533 440.282 145.529 440.769 145.779 441.266ZM151.927 444.324L151.273 443.019L151.552 442.878C151.739 443.227 151.966 443.494 152.232 443.678C152.502 443.859 152.795 443.942 153.111 443.928L153.399 444.501L148.379 447.02L148.012 446.289L151.927 444.324Z" fill="#4A3021"/>
<path d="M218.301 509.154C218.075 509.418 217.977 509.739 218.008 510.116C218.034 510.497 218.181 510.878 218.449 511.258C218.505 511.337 218.567 511.411 218.636 511.48L218.397 511.56C218.26 511.421 218.141 511.279 218.039 511.135C217.838 510.851 217.695 510.546 217.61 510.22C217.523 509.902 217.503 509.592 217.552 509.289C217.596 508.99 217.703 508.728 217.872 508.504C217.497 507.806 217.389 507.136 217.545 506.495C217.707 505.852 218.124 505.292 218.797 504.817C219.287 504.472 219.776 504.275 220.264 504.225C220.757 504.172 221.226 504.266 221.672 504.508C222.117 504.75 222.522 505.129 222.886 505.645C223.25 506.161 223.469 506.667 223.545 507.164C223.623 507.665 223.555 508.139 223.339 508.585C223.128 509.028 222.778 509.423 222.288 509.768C221.567 510.277 220.857 510.476 220.158 510.367C219.463 510.255 218.844 509.85 218.301 509.154ZM219.282 505.506C218.622 505.971 218.223 506.486 218.083 507.049C217.943 507.612 218.076 508.18 218.479 508.753C218.88 509.321 219.369 509.634 219.947 509.691C220.524 509.749 221.143 509.545 221.803 509.08C222.45 508.623 222.839 508.117 222.969 507.56C223.108 507.004 222.975 506.44 222.571 505.867C222.167 505.294 221.681 504.976 221.112 504.913C220.544 504.849 219.934 505.047 219.282 505.506ZM222.027 514.451C221.491 513.691 221.271 513.021 221.367 512.443C221.47 511.866 221.841 511.352 222.479 510.902L225.161 509.011L225.642 509.693L222.81 511.69C222.32 512.036 222.028 512.415 221.933 512.829C221.839 513.242 221.975 513.709 222.342 514.229C222.703 514.741 223.091 515.023 223.508 515.076C223.928 515.133 224.388 514.986 224.886 514.635L227.718 512.637L228.199 513.319L225.518 515.21C224.879 515.66 224.271 515.837 223.693 515.741C223.119 515.642 222.564 515.212 222.027 514.451ZM225.887 519.924C225.523 519.409 225.304 518.899 225.23 518.395C225.156 517.89 225.227 517.415 225.442 516.969C225.662 516.519 226.021 516.119 226.519 515.767C227.009 515.422 227.498 515.224 227.986 515.174C228.479 515.121 228.948 515.216 229.394 515.458C229.84 515.7 230.244 516.079 230.608 516.595C230.972 517.111 231.191 517.617 231.267 518.114C231.345 518.615 231.277 519.088 231.061 519.535C230.85 519.978 230.5 520.373 230.011 520.718C229.512 521.069 229.015 521.273 228.517 521.329C228.025 521.382 227.553 521.289 227.103 521.05C226.656 520.816 226.251 520.44 225.887 519.924ZM226.202 519.702C226.603 520.271 227.092 520.584 227.669 520.641C228.246 520.699 228.865 520.495 229.525 520.029C230.172 519.573 230.561 519.066 230.692 518.509C230.83 517.954 230.697 517.39 230.293 516.817C229.889 516.244 229.403 515.926 228.835 515.862C228.266 515.799 227.656 515.996 227.005 516.456C226.345 516.921 225.945 517.436 225.805 517.999C225.666 518.562 225.798 519.13 226.202 519.702ZM233.42 516.517C233.59 516.534 233.704 516.585 233.762 516.668C233.802 516.725 233.819 516.781 233.813 516.838C233.812 516.892 233.787 516.935 233.739 516.969C233.695 517 233.636 517.009 233.562 516.996C233.487 516.983 233.366 516.951 233.198 516.899L232.372 516.618L232.219 516.401L233.42 516.517ZM231.843 515.38L232.167 515.839L231.737 517.36L231.51 517.039L231.697 515.827L230.493 515.596L230.266 515.275L231.843 515.38ZM229.856 525.552C229.304 524.769 229.086 524.024 229.2 523.314C229.315 522.605 229.755 521.98 230.52 521.441C231.268 520.913 231.991 520.714 232.691 520.843C233.393 520.976 234.019 521.431 234.568 522.209C235.015 522.843 235.245 523.453 235.259 524.039C235.273 524.625 235.068 525.123 234.644 525.533L234.228 524.943C234.551 524.604 234.716 524.216 234.722 523.779C234.733 523.34 234.584 522.901 234.276 522.464C233.875 521.896 233.392 521.582 232.827 521.523C232.264 521.468 231.657 521.67 231.006 522.129C230.341 522.598 229.938 523.111 229.795 523.67C229.657 524.226 229.79 524.79 230.194 525.363C230.502 525.8 230.861 526.087 231.271 526.223C231.682 526.359 232.103 526.33 232.536 526.136L232.952 526.726C232.423 526.988 231.885 527.014 231.338 526.804C230.791 526.594 230.297 526.177 229.856 525.552ZM237.842 526.991L238.323 527.673L234.048 530.689L236.083 533.574L235.768 533.796L233.252 530.229L237.842 526.991ZM237.647 536.599C237.283 536.083 237.064 535.573 236.99 535.069C236.916 534.565 236.986 534.09 237.202 533.643C237.421 533.194 237.78 532.793 238.279 532.442C238.768 532.096 239.257 531.899 239.746 531.849C240.239 531.796 240.708 531.89 241.154 532.132C241.599 532.375 242.004 532.754 242.368 533.269C242.731 533.785 242.951 534.291 243.026 534.788C243.105 535.289 243.036 535.763 242.821 536.209C242.61 536.653 242.26 537.047 241.77 537.392C241.272 537.744 240.774 537.947 240.277 538.004C239.784 538.057 239.313 537.964 238.863 537.725C238.416 537.49 238.01 537.115 237.647 536.599ZM237.961 536.377C238.362 536.945 238.851 537.258 239.429 537.316C240.006 537.373 240.625 537.169 241.285 536.704C241.932 536.247 242.32 535.741 242.451 535.184C242.59 534.628 242.457 534.064 242.053 533.491C241.649 532.919 241.163 532.6 240.594 532.537C240.026 532.473 239.416 532.671 238.764 533.13C238.104 533.596 237.704 534.11 237.565 534.673C237.425 535.236 237.557 535.804 237.961 536.377ZM236.748 537.232C236.677 537.132 236.652 537.026 236.671 536.914C236.689 536.81 236.746 536.723 236.842 536.656C236.938 536.588 237.039 536.563 237.143 536.581C237.25 536.603 237.34 536.665 237.411 536.765C237.481 536.866 237.508 536.968 237.49 537.073C237.475 537.181 237.419 537.27 237.323 537.338C237.227 537.405 237.125 537.428 237.018 537.406C236.909 537.391 236.819 537.333 236.748 537.232ZM243.602 532.055L243.926 532.514L243.496 534.034L243.27 533.713L243.456 532.502L242.252 532.271L242.026 531.949L243.602 532.055ZM246.078 540.813L245.236 539.62L245.492 539.44C245.729 539.757 245.992 539.987 246.283 540.129C246.577 540.268 246.879 540.307 247.189 540.245L247.559 540.77L242.969 544.007L242.498 543.338L246.078 540.813ZM248.002 548.61L246.139 545.967L244.525 546.212L244.201 545.753L250.54 544.857L250.789 545.211L247.72 550.743L247.202 550.009L248.002 548.61ZM248.211 548.237L249.828 545.407L246.564 545.903L248.211 548.237Z" fill="#4A3021"/>
<path d="M272.849 453.918L274.956 453.347C275.968 453.072 276.797 453.085 277.444 453.386C278.091 453.687 278.531 454.267 278.763 455.123C279.006 456.017 278.928 456.781 278.529 457.415C278.134 458.043 277.449 458.49 276.473 458.755L274.32 459.339L272.849 453.918ZM276.481 458.353C277.167 458.167 277.637 457.815 277.89 457.298C278.148 456.779 278.171 456.127 277.958 455.342C277.758 454.604 277.426 454.095 276.962 453.816C276.497 453.532 275.914 453.486 275.211 453.676L273.756 454.071L275.025 458.748L276.481 458.353ZM280.947 452.12L278.655 452.742L278.554 452.37L283.936 450.91L284.037 451.282L281.753 451.901L283.123 456.95L282.317 457.169L280.947 452.12ZM288.223 455.65C287.51 455.843 286.906 455.863 286.41 455.709C285.919 455.554 285.599 455.242 285.449 454.773L286.138 454.586C286.261 454.957 286.495 455.207 286.84 455.335C287.186 455.463 287.611 455.458 288.117 455.321C288.623 455.184 288.981 454.97 289.19 454.68C289.398 454.386 289.447 454.032 289.335 453.619C289.225 453.216 289.01 452.956 288.69 452.837C288.375 452.718 287.939 452.734 287.381 452.885C287.02 452.983 286.697 453.101 286.413 453.239L286.293 452.798C286.482 452.78 286.732 452.729 287.042 452.645C287.532 452.512 287.9 452.304 288.144 452.021C288.388 451.733 288.464 451.422 288.373 451.086C288.286 450.766 288.094 450.549 287.797 450.436C287.499 450.317 287.133 450.317 286.7 450.434C286.23 450.562 285.877 450.774 285.642 451.071C285.41 451.361 285.333 451.689 285.41 452.056L284.714 452.245C284.643 451.943 284.674 451.652 284.809 451.371C284.947 451.085 285.17 450.833 285.477 450.617C285.788 450.394 286.165 450.222 286.609 450.101C287.038 449.985 287.436 449.941 287.804 449.969C288.17 449.991 288.475 450.083 288.718 450.244C288.96 450.4 289.117 450.61 289.188 450.873C289.265 451.157 289.223 451.44 289.061 451.723C288.903 451.998 288.646 452.234 288.289 452.431C289.319 452.306 289.938 452.626 290.146 453.39C290.283 453.896 290.182 454.351 289.842 454.753C289.501 455.15 288.961 455.449 288.223 455.65Z" fill="#4A3021"/>
<path d="M52.2216 287.236C52.2095 287.584 52.3331 287.895 52.5924 288.172C52.8503 288.453 53.2026 288.659 53.6494 288.789C53.7418 288.816 53.8365 288.835 53.9334 288.847L53.7967 289.058C53.6029 289.034 53.4212 288.998 53.2518 288.949C52.918 288.851 52.616 288.702 52.346 288.501C52.0796 288.306 51.871 288.075 51.7204 287.809C51.5682 287.547 51.4885 287.276 51.4811 286.995C50.7532 286.683 50.2509 286.227 49.9741 285.628C49.6989 285.024 49.6765 284.327 49.9071 283.536C50.0748 282.961 50.334 282.501 50.6849 282.158C51.0372 281.809 51.4631 281.591 51.9625 281.502C52.4619 281.414 53.0145 281.458 53.6205 281.635C54.2265 281.811 54.7137 282.07 55.0822 282.412C55.4558 282.755 55.6976 283.168 55.8074 283.651C55.9187 284.129 55.8906 284.656 55.7229 285.231C55.4759 286.079 55.045 286.677 54.4303 287.027C53.8172 287.372 53.0809 287.442 52.2216 287.236ZM50.7159 283.772C50.4898 284.547 50.4977 285.198 50.7396 285.726C50.9814 286.253 51.4387 286.615 52.1115 286.811C52.7791 287.006 53.3565 286.946 53.8439 286.631C54.3313 286.316 54.688 285.771 54.9141 284.995C55.1356 284.235 55.124 283.597 54.8791 283.08C54.6409 282.559 54.1855 282.201 53.5127 282.004C52.84 281.808 52.2614 281.862 51.7771 282.167C51.2927 282.472 50.939 283.006 50.7159 283.772ZM58.4375 289.056C57.544 288.796 56.9546 288.41 56.6693 287.897C56.3906 287.382 56.3606 286.749 56.5792 285.999L57.4976 282.848L58.2987 283.082L57.3286 286.41C57.161 286.985 57.169 287.464 57.3529 287.846C57.5367 288.228 57.9342 288.509 58.5453 288.687C59.1462 288.862 59.6261 288.84 59.9851 288.622C60.3492 288.405 60.6166 288.003 60.7873 287.418L61.7574 284.09L62.5585 284.324L61.6401 287.474C61.4215 288.224 61.0561 288.742 60.5439 289.027C60.0332 289.307 59.3311 289.317 58.4375 289.056ZM64.8672 290.931C64.2612 290.754 63.7721 290.492 63.4 290.144C63.0279 289.796 62.7869 289.38 62.6771 288.897C62.5687 288.408 62.5999 287.871 62.7706 287.286C62.9382 286.711 63.1975 286.251 63.5484 285.908C63.9007 285.559 64.3266 285.341 64.826 285.252C65.3254 285.164 65.878 285.208 66.484 285.385C67.09 285.561 67.5772 285.82 67.9457 286.162C68.3193 286.505 68.5611 286.918 68.6709 287.401C68.7822 287.879 68.7541 288.406 68.5864 288.981C68.4157 289.567 68.1535 290.036 67.7996 290.39C67.4473 290.739 67.0206 290.96 66.5198 291.053C66.024 291.148 65.4731 291.108 64.8672 290.931ZM64.975 290.561C65.6426 290.756 66.22 290.696 66.7074 290.381C67.1948 290.066 67.5515 289.521 67.7776 288.745C67.9991 287.985 67.9875 287.347 67.7426 286.83C67.5044 286.309 67.049 285.951 66.3762 285.754C65.7035 285.558 65.1249 285.612 64.6406 285.917C64.1562 286.222 63.8025 286.756 63.5794 287.522C63.3533 288.297 63.3612 288.948 63.6031 289.476C63.8449 290.003 64.3022 290.365 64.975 290.561ZM68.6341 283.571C68.7779 283.479 68.8986 283.448 68.9961 283.476C69.0629 283.495 69.1116 283.529 69.1422 283.577C69.1743 283.62 69.1821 283.669 69.1656 283.726C69.1507 283.777 69.11 283.821 69.0437 283.858C68.9774 283.894 68.8625 283.944 68.699 284.008L67.8774 284.303L67.6232 284.229L68.6341 283.571ZM66.6927 283.665L67.2319 283.822L67.8435 285.28L67.4661 285.169L66.8568 284.106L65.7714 284.675L65.394 284.565L66.6927 283.665ZM71.4782 292.858C70.559 292.59 69.9232 292.143 69.5709 291.516C69.2187 290.89 69.1735 290.127 69.4355 289.229C69.6915 288.351 70.1331 287.744 70.7602 287.409C71.3924 287.075 72.1655 287.041 73.0796 287.307C73.8243 287.524 74.3846 287.858 74.7606 288.307C75.1366 288.757 75.2866 289.274 75.2107 289.859L74.5175 289.657C74.5589 289.19 74.4461 288.784 74.179 288.439C73.9135 288.088 73.5239 287.838 73.0104 287.688C72.3428 287.494 71.7693 287.549 71.2901 287.856C70.816 288.163 70.4674 288.699 70.2443 289.465C70.0168 290.245 70.0214 290.898 70.2581 291.424C70.4963 291.945 70.9518 292.303 71.6245 292.5C72.138 292.649 72.5976 292.65 73.0033 292.5C73.409 292.351 73.7206 292.066 73.9381 291.645L74.6314 291.847C74.3809 292.381 73.9763 292.737 73.4177 292.914C72.8591 293.091 72.2126 293.072 71.4782 292.858ZM78.6208 289.006L79.4219 289.24L77.9578 294.262L81.3472 295.25L81.2394 295.62L77.0489 294.399L78.6208 289.006ZM84.4558 296.641C83.8498 296.465 83.3608 296.202 82.9886 295.854C82.6165 295.506 82.3755 295.091 82.2657 294.607C82.1574 294.119 82.1885 293.582 82.3592 292.996C82.5269 292.421 82.7861 291.962 83.137 291.618C83.4894 291.27 83.9152 291.051 84.4146 290.963C84.914 290.874 85.4667 290.919 86.0726 291.095C86.6786 291.272 87.1658 291.531 87.5343 291.872C87.908 292.215 88.1497 292.628 88.2595 293.112C88.3709 293.59 88.3427 294.117 88.175 294.692C88.0043 295.277 87.7421 295.747 87.3882 296.1C87.0359 296.449 86.6093 296.67 86.1084 296.764C85.6126 296.859 85.0618 296.818 84.4558 296.641ZM84.5636 296.272C85.2312 296.466 85.8087 296.406 86.296 296.091C86.7834 295.777 87.1401 295.231 87.3662 294.456C87.5878 293.696 87.5761 293.057 87.3313 292.54C87.0931 292.019 86.6376 291.661 85.9649 291.465C85.2921 291.269 84.7136 291.323 84.2292 291.628C83.7448 291.932 83.3911 292.467 83.168 293.232C82.942 294.008 82.9499 294.659 83.1917 295.186C83.4336 295.714 83.8909 296.076 84.5636 296.272ZM84.1482 297.697C84.03 297.662 83.9437 297.595 83.8891 297.496C83.8382 297.403 83.8292 297.3 83.8621 297.187C83.8951 297.074 83.9579 296.992 84.0508 296.941C84.1488 296.892 84.2568 296.884 84.375 296.919C84.4931 296.953 84.5776 297.017 84.6285 297.11C84.6846 297.204 84.6962 297.308 84.6632 297.421C84.6303 297.534 84.5648 297.615 84.4668 297.664C84.3725 297.72 84.2663 297.731 84.1482 297.697ZM86.2813 289.376L86.8206 289.533L87.4322 290.99L87.0547 290.88L86.4454 289.816L85.36 290.386L84.9826 290.276L86.2813 289.376ZM90.2468 298.246C90.3986 297.878 90.6809 297.579 91.0936 297.348C91.5063 297.117 92.1 296.925 92.8745 296.772C93.3431 296.675 93.7191 296.57 94.0026 296.457C94.2861 296.345 94.5061 296.211 94.6627 296.057C94.8208 295.896 94.9343 295.698 95.0032 295.462C95.1229 295.051 95.091 294.702 94.9074 294.415C94.7253 294.122 94.4031 293.908 93.9409 293.773C93.4633 293.634 93.0507 293.645 92.703 293.805C92.362 293.962 92.1257 294.247 91.9942 294.66L91.3009 294.458C91.5152 293.952 91.872 293.608 92.3711 293.424C92.8703 293.241 93.4408 293.243 94.0827 293.43C94.5192 293.558 94.8824 293.736 95.1721 293.965C95.467 294.196 95.6709 294.462 95.7839 294.762C95.8969 295.062 95.907 295.372 95.8142 295.69C95.7379 295.952 95.6033 296.175 95.4106 296.358C95.2193 296.536 94.9426 296.693 94.5803 296.826C94.2232 296.962 93.7424 297.092 93.1377 297.217C92.728 297.303 92.4028 297.387 92.1621 297.467C91.9265 297.549 91.7397 297.645 91.6017 297.755C91.4704 297.862 91.3638 297.998 91.2821 298.163L94.9026 299.219L94.7993 299.573L90.2468 298.246ZM96.6658 300.117C96.7841 299.712 96.9536 299.34 97.1744 299.004C97.4018 298.663 97.7037 298.325 98.0803 297.989C98.4619 297.654 98.9499 297.29 99.5443 296.895C99.9373 296.636 100.218 296.428 100.386 296.271C100.56 296.115 100.67 295.966 100.717 295.824L97.0583 294.757L97.1593 294.411L101.712 295.738C101.652 295.943 101.519 296.141 101.313 296.332C101.112 296.524 100.753 296.79 100.236 297.13C99.4141 297.676 98.7938 298.189 98.3753 298.668C97.962 299.15 97.6618 299.711 97.4746 300.353L96.6658 300.117ZM103.825 302.288C102.906 302.02 102.27 301.573 101.918 300.946C101.565 300.32 101.52 299.557 101.782 298.659C102.038 297.78 102.48 297.174 103.107 296.838C103.739 296.504 104.512 296.471 105.426 296.737C106.171 296.954 106.731 297.288 107.107 297.737C107.483 298.187 107.633 298.704 107.558 299.289L106.864 299.087C106.906 298.62 106.793 298.214 106.526 297.868C106.26 297.518 105.871 297.268 105.357 297.118C104.69 296.924 104.116 296.979 103.637 297.285C103.163 297.593 102.814 298.129 102.591 298.894C102.364 299.675 102.368 300.328 102.605 300.854C102.843 301.375 103.299 301.733 103.971 301.929C104.485 302.079 104.944 302.079 105.35 301.93C105.756 301.781 106.067 301.496 106.285 301.074L106.978 301.277C106.728 301.811 106.323 302.166 105.765 302.344C105.206 302.521 104.559 302.502 103.825 302.288Z" fill="#4A3021"/>
<path d="M341.575 302.321C340.625 302.197 339.929 301.852 339.485 301.287C339.041 300.721 338.88 299.975 339.001 299.046C339.12 298.139 339.463 297.472 340.032 297.045C340.606 296.618 341.365 296.467 342.309 296.591C343.078 296.691 343.682 296.935 344.123 297.322C344.563 297.708 344.79 298.197 344.805 298.787L344.089 298.693C344.058 298.225 343.885 297.841 343.568 297.54C343.252 297.235 342.829 297.047 342.298 296.978C341.609 296.887 341.051 297.03 340.624 297.406C340.202 297.782 339.94 298.366 339.836 299.156C339.731 299.962 339.835 300.607 340.15 301.09C340.465 301.569 340.97 301.853 341.664 301.944C342.195 302.014 342.649 301.944 343.027 301.734C343.405 301.525 343.669 301.195 343.82 300.746L344.536 300.839C344.37 301.406 344.025 301.819 343.5 302.079C342.975 302.34 342.333 302.42 341.575 302.321ZM349.362 301.787L346.155 301.367L345.242 302.72L344.685 302.647L348.32 297.378L348.75 297.434L350.739 303.44L349.848 303.323L349.362 301.787ZM349.229 301.381L348.243 298.274L346.396 301.01L349.229 301.381ZM353.851 303.928C353.226 303.846 352.702 303.662 352.281 303.375C351.86 303.088 351.559 302.714 351.376 302.253C351.194 301.787 351.143 301.251 351.222 300.646C351.3 300.052 351.486 299.559 351.78 299.166C352.075 298.767 352.463 298.486 352.943 298.323C353.423 298.159 353.976 298.118 354.601 298.2C355.227 298.282 355.748 298.463 356.165 298.745C356.586 299.026 356.888 299.398 357.071 299.858C357.254 300.314 357.307 300.839 357.229 301.433C357.15 302.038 356.962 302.542 356.667 302.945C356.372 303.344 355.984 303.627 355.503 303.796C355.028 303.966 354.477 304.01 353.851 303.928ZM353.901 303.546C354.591 303.637 355.152 303.489 355.586 303.103C356.02 302.718 356.289 302.124 356.394 301.324C356.496 300.539 356.387 299.909 356.066 299.436C355.751 298.957 355.246 298.673 354.551 298.582C353.857 298.491 353.293 298.633 352.861 299.008C352.429 299.383 352.161 299.966 352.058 300.756C351.953 301.557 352.06 302.199 352.38 302.683C352.699 303.168 353.207 303.455 353.901 303.546ZM362.52 299.706L360.165 299.398L360.215 299.016L365.744 299.74L365.694 300.122L363.347 299.814L362.668 305.002L361.84 304.893L362.52 299.706ZM368.52 305.849C367.894 305.767 367.371 305.582 366.95 305.295C366.529 305.008 366.227 304.634 366.045 304.173C365.863 303.707 365.812 303.172 365.891 302.567C365.969 301.973 366.155 301.479 366.449 301.086C366.744 300.688 367.131 300.407 367.611 300.243C368.091 300.079 368.644 300.038 369.27 300.12C369.896 300.202 370.417 300.384 370.833 300.665C371.255 300.947 371.557 301.318 371.739 301.779C371.923 302.235 371.975 302.759 371.897 303.353C371.818 303.958 371.631 304.462 371.335 304.866C371.04 305.264 370.653 305.548 370.172 305.717C369.696 305.887 369.146 305.931 368.52 305.849ZM368.57 305.467C369.259 305.557 369.821 305.409 370.255 305.024C370.688 304.638 370.957 304.045 371.062 303.244C371.165 302.459 371.056 301.83 370.735 301.356C370.42 300.878 369.915 300.593 369.22 300.502C368.525 300.411 367.962 300.553 367.53 300.928C367.097 301.303 366.83 301.886 366.726 302.676C366.621 303.477 366.729 304.12 367.048 304.604C367.368 305.088 367.875 305.376 368.57 305.467ZM371.118 297.999C371.246 297.887 371.36 297.837 371.461 297.85C371.53 297.859 371.583 297.885 371.621 297.928C371.659 297.965 371.674 298.013 371.666 298.071C371.66 298.124 371.626 298.174 371.566 298.22C371.506 298.266 371.4 298.333 371.248 298.421L370.482 298.839L370.219 298.804L371.118 297.999ZM369.213 298.389L369.77 298.462L370.597 299.809L370.208 299.758L369.443 298.8L368.457 299.529L368.067 299.477L369.213 298.389ZM375.348 306.743C374.399 306.618 373.702 306.273 373.258 305.708C372.814 305.143 372.653 304.396 372.774 303.468C372.893 302.561 373.237 301.894 373.805 301.467C374.379 301.04 375.138 300.889 376.082 301.012C376.851 301.113 377.456 301.357 377.896 301.743C378.336 302.13 378.564 302.618 378.578 303.208L377.862 303.115C377.832 302.647 377.658 302.263 377.341 301.962C377.025 301.656 376.602 301.469 376.072 301.399C375.382 301.309 374.824 301.452 374.397 301.828C373.976 302.204 373.713 302.787 373.61 303.578C373.504 304.384 373.609 305.029 373.923 305.512C374.238 305.99 374.743 306.275 375.438 306.366C375.968 306.435 376.422 306.365 376.8 306.156C377.179 305.946 377.443 305.617 377.593 305.167L378.309 305.261C378.144 305.827 377.798 306.241 377.273 306.501C376.748 306.761 376.106 306.842 375.348 306.743ZM383.258 307.778C382.431 307.67 381.824 307.34 381.438 306.787C381.057 306.23 380.927 305.493 381.047 304.576C381.168 303.658 381.483 302.982 381.993 302.547C382.509 302.107 383.181 301.942 384.008 302.05C384.83 302.158 385.431 302.49 385.812 303.047C386.198 303.599 386.331 304.334 386.211 305.252C386.091 306.169 385.775 306.848 385.264 307.288C384.754 307.723 384.086 307.887 383.258 307.778ZM383.302 307.444C383.853 307.516 384.309 307.352 384.669 306.951C385.034 306.551 385.27 305.948 385.375 305.142C385.481 304.336 385.409 303.693 385.159 303.212C384.914 302.732 384.516 302.456 383.964 302.384C383.413 302.312 382.954 302.476 382.589 302.876C382.229 303.276 381.996 303.88 381.891 304.686C381.785 305.492 381.855 306.135 382.099 306.615C382.349 307.095 382.75 307.372 383.302 307.444ZM389.282 304.068L387.834 303.878L387.874 303.568C388.268 303.608 388.616 303.57 388.917 303.453C389.219 303.331 389.452 303.135 389.617 302.865L390.253 302.949L389.524 308.518L388.713 308.411L389.282 304.068Z" fill="#4A3021"/>
<path d="M420.897 173.073C420.597 173.982 420.127 174.602 419.489 174.932C418.85 175.261 418.086 175.279 417.197 174.986C416.329 174.699 415.738 174.236 415.425 173.597C415.114 172.954 415.108 172.18 415.407 171.276C415.65 170.539 416.003 169.991 416.466 169.631C416.928 169.272 417.451 169.14 418.033 169.237L417.806 169.922C417.341 169.864 416.931 169.963 416.576 170.217C416.217 170.47 415.953 170.851 415.785 171.358C415.567 172.019 415.602 172.594 415.891 173.084C416.181 173.568 416.705 173.936 417.462 174.186C418.234 174.441 418.887 174.46 419.421 174.242C419.95 174.022 420.324 173.58 420.544 172.914C420.712 172.406 420.728 171.947 420.594 171.536C420.459 171.126 420.185 170.804 419.772 170.572L419.998 169.886C420.523 170.155 420.864 170.572 421.021 171.137C421.179 171.701 421.137 172.347 420.897 173.073ZM421.835 165.325L420.821 168.395L421.978 169.546L421.802 170.08L417.309 165.519L417.445 165.107L423.718 164.282L423.436 165.135L421.835 165.325ZM421.412 165.379L418.175 165.763L420.515 168.091L421.412 165.379ZM424.782 161.317C424.584 161.916 424.305 162.396 423.944 162.755C423.582 163.115 423.158 163.341 422.672 163.433C422.18 163.524 421.644 163.474 421.065 163.283C420.496 163.095 420.046 162.819 419.716 162.457C419.38 162.092 419.176 161.659 419.106 161.156C419.035 160.654 419.099 160.103 419.297 159.504C419.495 158.905 419.771 158.427 420.125 158.071C420.481 157.71 420.903 157.483 421.39 157.39C421.872 157.296 422.397 157.343 422.966 157.531C423.545 157.722 424.005 158.001 424.346 158.367C424.682 158.732 424.887 159.166 424.963 159.67C425.041 160.169 424.98 160.718 424.782 161.317ZM424.417 161.196C424.635 160.536 424.595 159.957 424.298 159.458C424.001 158.96 423.468 158.584 422.702 158.331C421.95 158.082 421.311 158.071 420.786 158.298C420.257 158.517 419.883 158.96 419.663 159.625C419.443 160.29 419.476 160.87 419.764 161.365C420.051 161.86 420.573 162.233 421.329 162.483C422.096 162.736 422.748 162.752 423.283 162.529C423.819 162.306 424.197 161.861 424.417 161.196ZM422.264 152.01L421.518 154.265L421.153 154.144L422.903 148.849L423.268 148.97L422.526 151.218L427.493 152.859L427.231 153.652L422.264 152.01ZM429.424 147.27C429.226 147.87 428.947 148.349 428.586 148.709C428.225 149.068 427.801 149.294 427.314 149.387C426.822 149.478 426.286 149.428 425.707 149.236C425.138 149.048 424.688 148.773 424.358 148.41C424.022 148.045 423.819 147.612 423.748 147.11C423.677 146.608 423.741 146.057 423.939 145.458C424.137 144.858 424.413 144.381 424.768 144.024C425.124 143.663 425.545 143.436 426.032 143.344C426.514 143.249 427.039 143.296 427.608 143.484C428.187 143.676 428.647 143.954 428.988 144.321C429.324 144.685 429.53 145.119 429.605 145.623C429.683 146.122 429.622 146.671 429.424 147.27ZM429.059 147.15C429.277 146.489 429.237 145.91 428.94 145.412C428.643 144.914 428.111 144.538 427.344 144.284C426.592 144.036 425.953 144.025 425.428 144.251C424.899 144.471 424.525 144.913 424.305 145.578C424.085 146.244 424.118 146.824 424.406 147.319C424.693 147.814 425.215 148.186 425.971 148.436C426.738 148.69 427.39 148.705 427.925 148.482C428.461 148.259 428.839 147.815 429.059 147.15ZM422.203 143.244C422.116 143.098 422.089 142.976 422.121 142.879C422.143 142.813 422.178 142.766 422.227 142.737C422.271 142.706 422.321 142.7 422.377 142.719C422.427 142.736 422.47 142.778 422.504 142.845C422.538 142.913 422.584 143.03 422.642 143.195L422.908 144.027L422.825 144.278L422.203 143.244ZM422.228 145.188L422.404 144.655L423.882 144.095L423.759 144.469L422.674 145.04L423.205 146.145L423.082 146.518L422.228 145.188ZM431.585 140.732C431.285 141.641 430.815 142.261 430.177 142.59C429.538 142.92 428.774 142.938 427.886 142.644C427.017 142.357 426.426 141.895 426.113 141.256C425.802 140.612 425.796 139.839 426.095 138.934C426.338 138.198 426.691 137.65 427.154 137.29C427.616 136.93 428.139 136.799 428.721 136.895L428.494 137.581C428.029 137.523 427.619 137.621 427.264 137.876C426.905 138.129 426.641 138.509 426.473 139.017C426.255 139.677 426.29 140.253 426.579 140.742C426.869 141.227 427.393 141.594 428.15 141.845C428.922 142.1 429.575 142.118 430.109 141.9C430.638 141.681 431.012 141.238 431.232 140.573C431.4 140.065 431.416 139.606 431.282 139.195C431.147 138.784 430.873 138.463 430.46 138.231L430.686 137.545C431.211 137.814 431.552 138.231 431.71 138.796C431.867 139.36 431.825 140.006 431.585 140.732ZM434.088 133.157C433.827 133.95 433.388 134.484 432.773 134.759C432.155 135.028 431.406 135.017 430.527 134.727C429.649 134.436 429.044 134 428.712 133.417C428.378 132.828 428.341 132.137 428.603 131.344C428.863 130.557 429.303 130.029 429.921 129.76C430.536 129.485 431.283 129.492 432.161 129.782C433.04 130.073 433.648 130.51 433.984 131.095C434.315 131.677 434.35 132.365 434.088 133.157ZM433.768 133.051C433.943 132.523 433.867 132.045 433.541 131.616C433.217 131.182 432.669 130.838 431.897 130.582C431.125 130.327 430.48 130.277 429.961 130.433C429.444 130.583 429.098 130.922 428.923 131.45C428.749 131.978 428.823 132.459 429.148 132.893C429.473 133.322 430.022 133.664 430.794 133.919C431.566 134.174 432.211 134.227 432.728 134.077C433.247 133.921 433.594 133.58 433.768 133.051ZM431.575 126.544L431.117 127.931L430.82 127.832C430.934 127.453 430.962 127.105 430.904 126.787C430.84 126.467 430.692 126.201 430.458 125.989L430.659 125.379L435.992 127.142L435.735 127.919L431.575 126.544Z" fill="#4A3021"/>
<path d="M31.5881 184.995L33.6959 185.561C34.7085 185.833 35.4186 186.262 35.8262 186.847C36.2339 187.433 36.3226 188.155 36.0923 189.013C35.8523 189.906 35.4004 190.527 34.7365 190.875C34.0791 191.219 33.2623 191.26 32.2859 190.998L30.1316 190.419L31.5881 184.995ZM32.4942 190.655C33.1813 190.84 33.7645 190.772 34.2436 190.452C34.7279 190.133 35.0755 189.581 35.2864 188.796C35.4847 188.057 35.4537 187.451 35.1934 186.977C34.9344 186.497 34.4536 186.163 33.751 185.975L32.2942 185.583L31.0374 190.264L32.4942 190.655ZM39.4911 187.516L37.1973 186.9L37.2972 186.528L42.6829 187.974L42.5831 188.346L40.297 187.732L38.9404 192.785L38.1345 192.568L39.4911 187.516ZM45.5439 191.301C46.1018 191.678 46.4876 192.025 46.7014 192.343C46.9203 192.662 46.9854 192.987 46.8966 193.318C46.812 193.633 46.6319 193.881 46.3563 194.061C46.0858 194.244 45.7421 194.348 45.3251 194.374C44.9081 194.401 44.4413 194.345 43.9247 194.206C43.4236 194.072 43.0037 193.892 42.665 193.669C42.3315 193.446 42.0946 193.194 41.9541 192.913C41.8188 192.633 41.7928 192.338 41.8761 192.028C41.9732 191.666 42.194 191.39 42.5385 191.2C42.8845 191.005 43.3122 190.918 43.8218 190.938C43.4491 190.656 43.191 190.39 43.0474 190.141C42.9052 189.886 42.8674 189.635 42.9339 189.387C43.0435 188.979 43.3291 188.71 43.7907 188.579C44.2537 188.443 44.8262 188.467 45.5081 188.65C45.9266 188.762 46.2821 188.913 46.5746 189.102C46.8672 189.291 47.0756 189.505 47.1999 189.744C47.3257 189.977 47.3552 190.217 47.2886 190.465C47.2165 190.734 47.0247 190.943 46.7133 191.092C46.4033 191.236 46.0135 191.305 45.5439 191.301ZM43.7851 189.466C43.7226 189.699 43.7881 189.93 43.9813 190.159C44.1797 190.389 44.5472 190.671 45.0839 191.003C45.4698 190.968 45.7847 190.878 46.0286 190.733C46.2776 190.59 46.4313 190.41 46.4895 190.193C46.5575 189.939 46.4864 189.699 46.2763 189.471C46.0661 189.243 45.7596 189.074 45.3566 188.966C44.9537 188.858 44.6067 188.851 44.3157 188.944C44.0313 189.034 43.8544 189.208 43.7851 189.466ZM44.0684 193.888C44.5747 194.023 45.0087 194.026 45.3704 193.896C45.7321 193.767 45.9608 193.523 46.0565 193.167C46.105 192.986 46.0879 192.812 46.0052 192.646C45.929 192.476 45.7777 192.297 45.5513 192.109C45.3249 191.921 45.0043 191.702 44.5895 191.452L44.32 191.28C43.8803 191.267 43.521 191.337 43.242 191.489C42.9695 191.637 42.7931 191.861 42.7126 192.161C42.61 192.543 42.6824 192.892 42.93 193.208C43.1775 193.524 43.557 193.75 44.0684 193.888Z" fill="#4A3021"/>
<path d="M201.25 462.273C201.25 462.273 211.52 478.109 220.557 476.133C229.593 474.158 243.154 457.349 252.651 455.272C252.652 455.272 252.651 455.272 252.652 455.272C252.671 455.268 304.957 443.737 307.945 437.77C310.934 431.802 336.58 394.643 342.547 401.764C348.515 408.885 360.059 408.333 360.059 408.333C360.059 408.333 370.6 408.925 373.178 413.508C375.755 418.092 377.761 429.215 376.187 433.197C374.612 437.178 388.914 446.325 390.71 444.139C392.505 441.952 390.058 433.106 400.428 425.765C407.412 420.997 414.863 416.953 422.665 413.695C423.04 413.539 423.286 413.173 423.286 412.766V411.944L426.25 399.605C426.328 399.281 426.562 399.016 426.87 398.888C428.503 398.206 433.566 395.857 432.664 393.259C431.59 390.169 420.458 380.11 417.619 373.27C414.781 366.429 410.237 358.105 411.31 351.124C412.384 344.143 415.665 322.951 415.665 322.951" stroke="#4A3021" stroke-width="0.501481" stroke-miterlimit="10"/>
<path d="M455.844 498.73C448.788 497.571 442.242 494.326 437.048 489.412C428.904 481.389 431.151 478.901 422.064 477.728C412.977 476.555 406.839 478.31 402.115 472.533C397.391 466.756 396.92 461.671 394.212 458.02C391.504 454.369 389.829 447.238 390.701 444.139" stroke="#4A3021" stroke-width="0.501481" stroke-miterlimit="10"/>
<path d="M74.2937 573.748C73.486 573.748 72.8495 573.59 72.3841 573.275C71.9187 572.959 71.662 572.51 71.6138 571.927H72.3359C72.3734 572.419 72.5499 572.783 72.8655 573.018C73.1865 573.248 73.6572 573.363 74.2777 573.363C74.8286 573.363 75.2485 573.267 75.5374 573.074C75.8316 572.882 75.9787 572.606 75.9787 572.248C75.9787 572.034 75.9225 571.855 75.8102 571.71C75.6979 571.566 75.5053 571.437 75.2325 571.325C74.965 571.213 74.5879 571.108 74.1012 571.012C73.3255 570.862 72.7398 570.67 72.344 570.434C71.9535 570.194 71.7582 569.857 71.7582 569.423C71.7582 568.942 71.9829 568.581 72.4322 568.34C72.8816 568.094 73.4726 567.971 74.2055 567.971C74.949 567.971 75.5267 568.105 75.9386 568.372C76.3558 568.634 76.5965 569.001 76.6607 569.472H75.9466C75.8664 569.081 75.6765 568.798 75.3769 568.621C75.0827 568.445 74.6735 568.356 74.1493 568.356C73.6411 568.356 73.2533 568.439 72.9859 568.605C72.7238 568.771 72.5927 569.001 72.5927 569.295C72.5927 569.472 72.6435 569.621 72.7452 569.744C72.8468 569.867 73.0233 569.98 73.2747 570.081C73.5315 570.183 73.8952 570.282 74.3659 570.378C74.9436 570.496 75.4063 570.624 75.754 570.763C76.1071 570.902 76.3719 571.084 76.5484 571.309C76.7249 571.528 76.8132 571.809 76.8132 572.151C76.8132 572.654 76.5858 573.047 76.1312 573.331C75.6818 573.609 75.0694 573.748 74.2937 573.748ZM80.5095 573.748C79.5787 573.748 78.9047 573.542 78.4875 573.13C78.0756 572.713 77.8697 572.114 77.8697 571.333V568.051H78.7041V571.518C78.7041 572.117 78.8459 572.574 79.1294 572.89C79.4129 573.205 79.8729 573.363 80.5095 573.363C81.1353 573.363 81.59 573.208 81.8735 572.898C82.1623 572.587 82.3068 572.127 82.3068 571.518V568.051H83.1412V571.333C83.1412 572.114 82.9353 572.713 82.5234 573.13C82.1115 573.542 81.4402 573.748 80.5095 573.748ZM87.2068 573.748C86.5756 573.748 86.0326 573.633 85.5779 573.403C85.1233 573.173 84.7756 572.842 84.5349 572.408C84.2941 571.97 84.1738 571.445 84.1738 570.836C84.1738 570.236 84.2941 569.723 84.5349 569.295C84.7756 568.862 85.1233 568.533 85.5779 568.308C86.0326 568.083 86.5756 567.971 87.2068 567.971C87.8379 567.971 88.3782 568.083 88.8275 568.308C89.2822 568.533 89.6299 568.862 89.8706 569.295C90.1113 569.723 90.2317 570.236 90.2317 570.836C90.2317 571.445 90.1113 571.97 89.8706 572.408C89.6299 572.842 89.2822 573.173 88.8275 573.403C88.3782 573.633 87.8379 573.748 87.2068 573.748ZM87.2068 573.363C87.9021 573.363 88.4397 573.144 88.8195 572.705C89.1993 572.266 89.3892 571.643 89.3892 570.836C89.3892 570.044 89.1993 569.434 88.8195 569.006C88.4451 568.573 87.9075 568.356 87.2068 568.356C86.506 568.356 85.9658 568.57 85.586 568.998C85.2062 569.426 85.0163 570.039 85.0163 570.836C85.0163 571.643 85.2062 572.266 85.586 572.705C85.9658 573.144 86.506 573.363 87.2068 573.363ZM88.7633 565.628C88.8757 565.5 88.9827 565.436 89.0843 565.436C89.1538 565.436 89.21 565.454 89.2528 565.492C89.2956 565.524 89.317 565.569 89.317 565.628C89.317 565.682 89.2902 565.735 89.2367 565.789C89.1833 565.842 89.087 565.922 88.9479 566.029L88.2418 566.543H87.977L88.7633 565.628ZM86.9259 566.262H87.4876L88.4825 567.49H88.0894L87.2068 566.639L86.3241 567.49H85.931L86.9259 566.262ZM91.5976 568.051H92.4321V573.668H91.5976V568.051ZM97.9332 568.437H95.5582V568.051H101.135V568.437H98.7677V573.668H97.9332V568.437ZM105.004 572.208H101.771L101.041 573.668H100.479L103.4 567.971H103.833L106.585 573.668H105.686L105.004 572.208ZM104.82 571.823L103.44 568.87L101.963 571.823H104.82ZM103.287 566.262H103.849L104.844 567.49H104.451L103.568 566.639L102.685 567.49H102.292L103.287 566.262ZM107.253 568.051H108.096L111.514 572.408V568.051H112.22V573.668H111.803L107.959 568.782V573.668H107.253V568.051Z" fill="#4A3021"/>
<path d="M332.324 534.633C331.367 534.633 330.631 534.382 330.118 533.879C329.604 533.376 329.348 532.656 329.348 531.72C329.348 530.806 329.602 530.1 330.11 529.602C330.623 529.105 331.356 528.856 332.308 528.856C333.084 528.856 333.715 529.019 334.202 529.345C334.689 529.672 334.978 530.126 335.068 530.709H334.346C334.255 530.249 334.033 529.891 333.68 529.634C333.327 529.372 332.883 529.241 332.348 529.241C331.653 529.241 331.118 529.455 330.744 529.883C330.375 530.311 330.19 530.923 330.19 531.72C330.19 532.533 330.377 533.159 330.752 533.598C331.126 534.031 331.664 534.248 332.364 534.248C332.899 534.248 333.341 534.119 333.688 533.863C334.036 533.606 334.255 533.245 334.346 532.779H335.068C334.978 533.363 334.689 533.817 334.202 534.144C333.715 534.47 333.089 534.633 332.324 534.633ZM339.976 533.092H336.743L336.012 534.553H335.451L338.371 528.856H338.805L341.557 534.553H340.658L339.976 533.092ZM339.792 532.707L338.411 529.755L336.935 532.707H339.792ZM348.476 528.936V534.553H347.641V529.835L345.459 534.553H345.065L342.723 529.771V534.553H342.225V528.936H343.18L345.419 533.558L347.561 528.936H348.476ZM351.8 528.936H352.635V531.351H356.237V528.936H357.072V534.553H356.237V531.728H352.635V534.553H351.8V528.936ZM361.137 534.633C360.506 534.633 359.963 534.518 359.509 534.288C359.054 534.058 358.706 533.726 358.465 533.293C358.225 532.854 358.104 532.33 358.104 531.72C358.104 531.121 358.225 530.608 358.465 530.18C358.706 529.747 359.054 529.418 359.509 529.193C359.963 528.968 360.506 528.856 361.137 528.856C361.769 528.856 362.309 528.968 362.758 529.193C363.213 529.418 363.56 529.747 363.801 530.18C364.042 530.608 364.162 531.121 364.162 531.72C364.162 532.33 364.042 532.854 363.801 533.293C363.56 533.726 363.213 534.058 362.758 534.288C362.309 534.518 361.769 534.633 361.137 534.633ZM361.137 534.248C361.833 534.248 362.37 534.029 362.75 533.59C363.13 533.151 363.32 532.528 363.32 531.72C363.32 530.929 363.13 530.319 362.75 529.891C362.376 529.458 361.838 529.241 361.137 529.241C360.437 529.241 359.896 529.455 359.517 529.883C359.137 530.311 358.947 530.923 358.947 531.72C358.947 532.528 359.137 533.151 359.517 533.59C359.896 534.029 360.437 534.248 361.137 534.248ZM368.803 533.092H365.57L364.84 534.553H364.278L367.199 528.856H367.632L370.384 534.553H369.485L368.803 533.092ZM368.619 532.707L367.239 529.755L365.762 532.707H368.619ZM365.987 527.516C365.784 527.377 365.682 527.251 365.682 527.139C365.682 527.08 365.704 527.032 365.746 526.994C365.795 526.952 365.859 526.93 365.939 526.93C366.099 526.93 366.241 527 366.364 527.139L367.496 528.374H367.215L365.987 527.516Z" fill="#4A3021"/>
<path d="M577.234 396.546H578.069V398.961H581.671V396.546H582.506V402.162H581.671V399.338H578.069V402.162H577.234V396.546ZM586.571 402.242C585.94 402.242 585.397 402.127 584.943 401.897C584.488 401.667 584.14 401.336 583.9 400.902C583.659 400.464 583.539 399.94 583.539 399.33C583.539 398.731 583.659 398.217 583.9 397.789C584.14 397.356 584.488 397.027 584.943 396.802C585.397 396.578 585.94 396.465 586.571 396.465C587.203 396.465 587.743 396.578 588.192 396.802C588.647 397.027 588.995 397.356 589.235 397.789C589.476 398.217 589.596 398.731 589.596 399.33C589.596 399.94 589.476 400.464 589.235 400.902C588.995 401.336 588.647 401.667 588.192 401.897C587.743 402.127 587.203 402.242 586.571 402.242ZM586.571 401.857C587.267 401.857 587.804 401.638 588.184 401.199C588.564 400.761 588.754 400.137 588.754 399.33C588.754 398.538 588.564 397.928 588.184 397.5C587.81 397.067 587.272 396.85 586.571 396.85C585.871 396.85 585.33 397.064 584.951 397.492C584.571 397.92 584.381 398.533 584.381 399.33C584.381 400.137 584.571 400.761 584.951 401.199C585.33 401.638 585.871 401.857 586.571 401.857ZM585.191 395.125C584.988 394.986 584.886 394.861 584.886 394.748C584.886 394.689 584.908 394.641 584.951 394.604C584.999 394.561 585.063 394.54 585.143 394.54C585.304 394.54 585.445 394.609 585.568 394.748L586.7 395.984H586.419L585.191 395.125ZM590.633 396.546H591.476L594.894 400.902V396.546H595.6V402.162H595.183L591.339 397.276V402.162H590.633V396.546ZM600.769 396.931H598.394V396.546H603.971V396.931H601.604V402.162H600.769V396.931ZM608.92 400.983C609.043 401.293 609.156 401.542 609.257 401.729C609.364 401.911 609.469 402.034 609.57 402.098V402.162H608.696C608.605 402.06 608.519 401.932 608.439 401.777C608.364 401.622 608.281 401.424 608.19 401.183C608.04 400.787 607.888 400.482 607.733 400.269C607.578 400.049 607.388 399.905 607.163 399.835H606.954H605.47V402.162H604.636V396.546H606.954C607.725 396.546 608.319 396.682 608.736 396.955C609.158 397.222 609.37 397.634 609.37 398.19C609.37 399.019 608.902 399.536 607.965 399.739C608.169 399.841 608.345 399.99 608.495 400.188C608.645 400.381 608.787 400.646 608.92 400.983ZM606.971 399.458C608.019 399.458 608.543 399.036 608.543 398.19C608.543 397.351 608.019 396.931 606.971 396.931H605.47V399.458H606.971ZM610.262 396.546H615.02V396.931H611.096V398.961H614.562V399.338H611.096V401.777H615.02V402.162H610.262V396.546Z" fill="#4A3021"/>
<path d="M181.071 154.831H183.253C184.301 154.831 185.098 155.061 185.644 155.521C186.19 155.981 186.462 156.655 186.462 157.543C186.462 158.468 186.187 159.185 185.636 159.693C185.09 160.196 184.312 160.447 183.301 160.447H181.071V154.831ZM183.413 160.062C184.125 160.062 184.67 159.845 185.05 159.412C185.435 158.979 185.628 158.356 185.628 157.543C185.628 156.778 185.441 156.2 185.066 155.81C184.692 155.414 184.141 155.216 183.413 155.216H181.905V160.062H183.413ZM187.832 154.831H188.667V160.447H187.832V154.831ZM190.183 154.831H194.941V155.216H191.018V157.246H194.484V157.623H191.018V160.062H194.941V160.447H190.183V154.831ZM192.35 153.041H192.911L193.906 154.269H193.513L192.63 153.419L191.748 154.269H191.355L192.35 153.041ZM195.762 154.831H196.605L200.023 159.188V154.831H200.729V160.447H200.312L196.468 155.561V160.447H195.762V154.831ZM204.044 154.831H204.879V160.062H208.409V160.447H204.044V154.831ZM213.149 158.987H209.916L209.186 160.447H208.624L211.545 154.75H211.978L214.73 160.447H213.831L213.149 158.987ZM212.965 158.602L211.585 155.649L210.108 158.602H212.965ZM211.432 153.041H211.994L212.989 154.269H212.596L211.713 153.419L210.83 154.269H210.437L211.432 153.041ZM221.649 154.831V160.447H220.814V155.729L218.632 160.447H218.239L215.896 155.665V160.447H215.398V154.831H216.353L218.592 159.452L220.734 154.831H221.649Z" fill="#4A3021"/>
<path d="M-3.57422 275.812C45.9053 293.03 165.626 329.772 238.641 332.981" stroke="#4A3021" stroke-width="3.00889"/>
<path d="M233.125 361.064C233.459 343.011 240.647 306.904 266.724 306.904C299.321 306.904 420.178 302.892 441.741 341.506" stroke="#4A3021" stroke-width="3.00889"/>
</g>
<defs>
<clipPath id="clip0_5617_11036">
<rect width="788" height="675" fill="white"/>
</clipPath>
</defs>
</svg>
